<svg class="animate__animated" xmlns="http://www.w3.org/2000/svg" viewBox="0 0 420.5 501.3">
  <g id="Capa_2" data-name="Capa 2">
    <g id="Capa_1-2" data-name="Capa 1">
      <g class="hoverable" onclick="returnToGroups(); changeImage('rueda');">
        <circle cx="127.5" cy="248.5" r="109" style="fill: #bcc3c5"/>
        <g>
          <path d="M70.1,249.5H64.7v4.2h6.1v2.2H62.1V241.6h8.3v2.1H64.7v3.7h5.4Z" style="fill: #112025"/>
          <path d="M83.3,255.4a9.2,9.2,0,0,1-3.7.7c-4.5,0-7.3-2.9-7.3-7.2s3.3-7.5,7.6-7.5a8.1,8.1,0,0,1,3.5.6l-.6,2.1a6.9,6.9,0,0,0-2.8-.6c-2.9,0-5,1.8-5,5.3s1.9,5.1,5,5.1a7,7,0,0,0,2.8-.5Z" style="fill: #112025"/>
          <path d="M97.6,248.6c0,4.8-2.9,7.5-6.8,7.5s-6.6-3.1-6.6-7.3,2.8-7.4,6.8-7.4S97.6,244.5,97.6,248.6Zm-10.6.2c0,2.9,1.4,5.2,3.9,5.2s3.9-2.3,3.9-5.3-1.3-5.3-3.9-5.3S87,245.8,87,248.8Z" style="fill: #112025"/>
          <path d="M99.8,255.9V241.6h3l3.7,6.1a35.8,35.8,0,0,1,2.4,4.8h.1a55.4,55.4,0,0,1-.3-5.9v-5h2.4v14.3h-2.6l-3.8-6.3c-.9-1.6-1.8-3.3-2.5-4.9h-.1c.1,1.8.1,3.7.1,6.1v5.1Z" style="fill: #112025"/>
          <path d="M126.8,248.6c0,4.8-2.9,7.5-6.8,7.5s-6.6-3.1-6.6-7.3,2.8-7.4,6.8-7.4S126.8,244.5,126.8,248.6Zm-10.6.2c0,2.9,1.4,5.2,3.9,5.2s4-2.3,4-5.3-1.4-5.3-4-5.3S116.2,245.8,116.2,248.8Zm7.3-10.6-2.6,2.6h-2.1l1.8-2.6Z" style="fill: #112025"/>
          <path d="M141.1,250c-.1-1.8-.2-4-.2-6h0c-.5,1.8-1.1,3.7-1.7,5.5l-2.1,6.2h-2l-1.9-6.1c-.6-1.8-1.1-3.8-1.5-5.6h0c-.1,1.9-.2,4.2-.3,6.1l-.3,5.8h-2.4l.9-14.3h3.5l1.8,5.7c.5,1.7,1,3.4,1.3,5h.1c.4-1.6.9-3.3,1.4-5l2-5.7h3.4l.8,14.3h-2.5Z" style="fill: #112025"/>
          <path d="M149.2,241.6v14.3h-2.6V241.6Z" style="fill: #112025"/>
          <path d="M162.4,255.4a9.2,9.2,0,0,1-3.7.7c-4.5,0-7.3-2.9-7.3-7.2s3.3-7.5,7.6-7.5a8.1,8.1,0,0,1,3.5.6l-.6,2.1a6.9,6.9,0,0,0-2.8-.6c-2.9,0-5,1.8-5,5.3s1.9,5.1,5,5.1a7,7,0,0,0,2.8-.5Z" style="fill: #112025"/>
          <path d="M176.7,248.6c0,4.8-2.9,7.5-6.8,7.5s-6.6-3.1-6.6-7.3,2.8-7.4,6.8-7.4S176.7,244.5,176.7,248.6Zm-10.6.2c0,2.9,1.4,5.2,3.9,5.2s3.9-2.3,3.9-5.3-1.3-5.3-3.9-5.3S166.1,245.8,166.1,248.8Z" style="fill: #112025"/>
          <path d="M178.9,253a6.8,6.8,0,0,0,3.4.9c1.7,0,2.6-.8,2.6-1.9s-.7-1.7-2.5-2.4-3.9-2.1-3.9-4.1,2-4.1,5.1-4.1a7.2,7.2,0,0,1,3.4.7l-.6,2.1a5.8,5.8,0,0,0-2.9-.7c-1.6,0-2.3.9-2.3,1.7s.8,1.6,2.7,2.4,3.7,2.1,3.7,4.2-1.8,4.3-5.4,4.3a9.7,9.7,0,0,1-3.9-.9Z" style="fill: #112025"/>
        </g>
        <circle cx="127.5" cy="248.5" r="127" style="fill: none;stroke: #a9b7bc;stroke-miterlimit: 10"/>
      </g>
      <g class="hoverable" onclick="showTypeInstrument('educacion_y_formacion', 2, 3); changeImage('economicos/E_Educacion_y_Formacion');">
        <path d="M257.2,171.4A152.9,152.9,0,0,0,205,120.6L276.1,0a293.7,293.7,0,0,1,99.7,97Z" style="fill: #cc62a1"/>
        <g>
          <path d="M256.9,90v1.1h-6.6V80.4h6.6v1.2h-5.2v3.5h4.2v1.2h-4.2V90Z" style="fill: #fff"/>
          <path d="M264.6,80.1v11h-.8l-.4-.2v-1a5.2,5.2,0,0,1-1.1,1,3.2,3.2,0,0,1-1.4.3,2.4,2.4,0,0,1-2.1-.9,3.1,3.1,0,0,1-.6-1.3,7,7,0,0,1-.2-1.6,7.8,7.8,0,0,1,.2-1.6,5.4,5.4,0,0,1,.7-1.3,2.7,2.7,0,0,1,1-.8,3.2,3.2,0,0,1,1.4-.3l1.2.2.9.7V80.1Zm-1.3,5.2-.9-.7-.9-.2a2.1,2.1,0,0,0-1.7.8,4.2,4.2,0,0,0-.5,2.2,4.1,4.1,0,0,0,.1,1.2,1.9,1.9,0,0,0,.4.9,1,1,0,0,0,.6.5l.8.2a2.7,2.7,0,0,0,1.2-.3,3.8,3.8,0,0,0,.9-.9Z" style="fill: #fff"/>
          <path d="M273,83.5v7.6h-.8l-.4-.2V90a3.1,3.1,0,0,1-1.1.9,3.3,3.3,0,0,1-1.4.4,2,2,0,0,1-1.1-.3l-.8-.5a4.1,4.1,0,0,1-.5-.9,5,5,0,0,1-.2-1.2V83.5H268v4.9a1.7,1.7,0,0,0,.4,1.3,1.4,1.4,0,0,0,1.2.5,2.3,2.3,0,0,0,1.1-.3,3.2,3.2,0,0,0,.9-.8V83.5Z" style="fill: #fff"/>
          <path d="M280.4,84.9h-.6l-.3-.2-.5-.2h-.7a1.6,1.6,0,0,0-1,.2,1.8,1.8,0,0,0-.7.5,3.6,3.6,0,0,0-.4.9,4,4,0,0,0,0,2.5,3.6,3.6,0,0,0,.4.9,1.8,1.8,0,0,0,.7.5l.9.2h.8l.6-.3.3-.2h.5l.4.5-.6.5-.6.4-.8.2H278a2.7,2.7,0,0,1-1.3-.2l-1.1-.8a3.5,3.5,0,0,1-.7-1.2,4.3,4.3,0,0,1-.3-1.7,3.7,3.7,0,0,1,.3-1.5,3.3,3.3,0,0,1,.7-1.3,3.1,3.1,0,0,1,1.1-.8,3.3,3.3,0,0,1,1.5-.3,3.2,3.2,0,0,1,1.4.3,2.6,2.6,0,0,1,1.1.7Z" style="fill: #fff"/>
          <path d="M282,84.6a5.5,5.5,0,0,1,1.4-.9,4.1,4.1,0,0,1,1.6-.3l1.1.2.9.6a2.6,2.6,0,0,1,.5.9,5,5,0,0,1,.2,1.2v4.8h-.9c-.1-.1-.2-.2-.2-.3l-.2-.7-.5.5-.6.4-.7.2h-.8l-.8-.2-.7-.3a1.8,1.8,0,0,1-.5-.7,2.2,2.2,0,0,1-.1-.9,1.1,1.1,0,0,1,.2-.8,2,2,0,0,1,.8-.8l1.5-.5,2.2-.2v-.6a2.6,2.6,0,0,0-.4-1.4,1.5,1.5,0,0,0-1.1-.4H284l-.6.3-.4.3h-.6V85Zm4.4,3.1-1.6.2a1.8,1.8,0,0,0-1.1.3,1.3,1.3,0,0,0-.6.4,1.4,1.4,0,0,0-.2.6,4.3,4.3,0,0,0,.1.5l.3.4.4.2h1.1l.6-.2c.2,0,.3-.2.5-.3l.5-.4Z" style="fill: #fff"/>
          <path d="M295,84.9h-.6l-.3-.2-.5-.2h-.7a1.6,1.6,0,0,0-1,.2,1.8,1.8,0,0,0-.7.5,3.6,3.6,0,0,0-.4.9,4,4,0,0,0,0,2.5,3.6,3.6,0,0,0,.4.9l.7.5.9.2h.8l.6-.3.3-.2h.5l.4.5a1.2,1.2,0,0,1-.5.5l-.7.4-.8.2h-.8a2.7,2.7,0,0,1-1.3-.2l-1.1-.8a3.5,3.5,0,0,1-.7-1.2,4.4,4.4,0,0,1-.2-1.7,3.6,3.6,0,0,1,.2-1.5,5.4,5.4,0,0,1,.7-1.3l1.1-.8a3.7,3.7,0,0,1,1.5-.3,2.9,2.9,0,0,1,1.4.3,2.1,2.1,0,0,1,1.1.7Z" style="fill: #fff"/>
          <path d="M298.5,81.2v.3l-.2.3a.5.5,0,0,1-.4.2h-.7l-.3-.2-.2-.3v-.3c0-.2.1-.3.1-.4l.2-.3.3-.2h.7a.5.5,0,0,1,.4.2l.2.3Zm-.2,2.3v7.6h-1.4V83.5Z" style="fill: #fff"/>
          <path d="M303.7,83.4a4,4,0,0,1,1.5.3,2.8,2.8,0,0,1,1.1.8,3.5,3.5,0,0,1,.7,1.2,4.1,4.1,0,0,1,.3,1.6A4.7,4.7,0,0,1,307,89a7.5,7.5,0,0,1-.7,1.2l-1.1.8-1.5.2-1.6-.2-1.1-.8a3.7,3.7,0,0,1-.7-1.2,4.7,4.7,0,0,1-.3-1.7,4.1,4.1,0,0,1,.3-1.6,2.4,2.4,0,0,1,.7-1.2,2.8,2.8,0,0,1,1.1-.8A4.1,4.1,0,0,1,303.7,83.4Zm0,6.8a1.8,1.8,0,0,0,1.6-.8,4,4,0,0,0,0-4.2,1.8,1.8,0,0,0-1.6-.7,1.5,1.5,0,0,0-1,.2,1.3,1.3,0,0,0-.7.5,4.1,4.1,0,0,0-.5.9,4.9,4.9,0,0,0-.1,1.2,3.3,3.3,0,0,0,.6,2.1A1.9,1.9,0,0,0,303.7,90.2Zm2.1-9.9-1.7,1.9-.2.2h-1.1l1.1-1.8.3-.3h1.6Z" style="fill: #fff"/>
          <path d="M310.2,84.6a1.2,1.2,0,0,0,.5-.5l.6-.3c.2-.2.5-.2.7-.3h.7l1.1.2.8.6a4.1,4.1,0,0,1,.5.9,5,5,0,0,1,.2,1.2v4.8h-1.4V86.3a1.7,1.7,0,0,0-.4-1.3c-.2-.4-.6-.5-1.1-.5l-1.2.3-.9.7v5.6H309V83.5h.8a.3.3,0,0,1,.3.3Z" style="fill: #fff"/>
          <path d="M327.3,83.5l-4.2,9.9-.2.2c0,.1-.1.1-.3.1h-1l1.4-3-3.1-7.2h1.4l.2.2,2,4.8a6.4,6.4,0,0,1,.2.7,6.4,6.4,0,0,1,.2-.7l2-4.8c0-.1.1-.1.1-.2h1.3Z" style="fill: #fff"/>
          <path d="M256.2,99.6v3.7h4.4v1.2h-4.4v4.6h-1.4V98.4h6.6v1.2Z" style="fill: #fff"/>
          <path d="M265.5,101.4a4,4,0,0,1,1.5.3,2.8,2.8,0,0,1,1.1.8,2.4,2.4,0,0,1,.7,1.2,4.1,4.1,0,0,1,.3,1.6,4.7,4.7,0,0,1-.3,1.7,3.7,3.7,0,0,1-.7,1.2l-1.1.8-1.5.2L264,109a3.6,3.6,0,0,1-1.2-.8,7.5,7.5,0,0,1-.7-1.2,4.7,4.7,0,0,1-.3-1.7,4.1,4.1,0,0,1,.3-1.6,3.5,3.5,0,0,1,.7-1.2,2.5,2.5,0,0,1,1.2-.8A3.3,3.3,0,0,1,265.5,101.4Zm0,6.8a2.1,2.1,0,0,0,1.7-.8,4.7,4.7,0,0,0,0-4.2,2.1,2.1,0,0,0-1.7-.7,1.6,1.6,0,0,0-1,.2,1.8,1.8,0,0,0-.7.5,3.6,3.6,0,0,0-.4.9,5,5,0,0,0-.2,1.2,3.3,3.3,0,0,0,.6,2.1A2,2,0,0,0,265.5,108.2Z" style="fill: #fff"/>
          <path d="M272,103.1a4.8,4.8,0,0,1,.9-1.3,2,2,0,0,1,1.3-.4h.9v1c-.1.1-.1.2-.3.2h-1.4l-.5.3-.4.5-.3.7v4.8h-1.3v-7.6h1l.2.3Z" style="fill: #fff"/>
          <path d="M276.2,109.1v-7.6h.8c.2,0,.4.1.4.3v.8l.9-.9a2.8,2.8,0,0,1,1.3-.3,2.1,2.1,0,0,1,1.2.4,3.5,3.5,0,0,1,.7,1.2,1.6,1.6,0,0,1,.4-.7l.6-.5.7-.3h.7l1.1.2a1.6,1.6,0,0,1,.8.6,1.9,1.9,0,0,1,.5.9,4.1,4.1,0,0,1,.1,1.2v4.8h-1.3v-4.8a2.1,2.1,0,0,0-.4-1.4,1.2,1.2,0,0,0-1.1-.4h-.6l-.6.3-.3.6a1.9,1.9,0,0,0-.1.8v4.8h-1.4v-4.8a2,2,0,0,0-.4-1.4,1.2,1.2,0,0,0-1-.4l-.9.2-.8.8v5.6Z" style="fill: #fff"/>
          <path d="M288.4,102.6a5.1,5.1,0,0,1,1.3-.9,4.7,4.7,0,0,1,1.7-.3l1.1.2a2.4,2.4,0,0,1,.8.6,2.6,2.6,0,0,1,.5.9,5,5,0,0,1,.2,1.2v4.8h-.9l-.2-.3v-.7l-.6.5-.6.4-.7.2h-.8l-.8-.2-.7-.3a1.6,1.6,0,0,1-.4-.7,2,2,0,0,1-.2-.9,1.1,1.1,0,0,1,.3-.8,1.5,1.5,0,0,1,.8-.8,3.8,3.8,0,0,1,1.4-.5l2.2-.2v-.6a2,2,0,0,0-.4-1.4,1.2,1.2,0,0,0-1.1-.4h-.8l-.6.3-.4.3h-.6c-.1,0-.1-.1-.2-.2Zm4.3,3.1-1.6.2a1.5,1.5,0,0,0-1,.3.9.9,0,0,0-.6.4,1.4,1.4,0,0,0-.2.6.7.7,0,0,0,.1.5c.1.1.1.3.3.4l.4.2h1.1l.5-.2a.9.9,0,0,0,.5-.3l.5-.4Z" style="fill: #fff"/>
          <path d="M301.3,102.9h-.5l-.3-.2-.5-.2h-.7a1.6,1.6,0,0,0-1,.2,1.3,1.3,0,0,0-.7.5,4.1,4.1,0,0,0-.5.9,4.9,4.9,0,0,0-.1,1.2,5.3,5.3,0,0,0,.1,1.3,4.1,4.1,0,0,0,.5.9,1.8,1.8,0,0,0,.7.5l.9.2h.8l.5-.3.4-.2h.5l.4.5-.6.5-.7.4-.7.2h-.9a3,3,0,0,1-1.3-.2,3.9,3.9,0,0,1-1-.8,2.4,2.4,0,0,1-.7-1.2,4.3,4.3,0,0,1-.3-1.7,6.8,6.8,0,0,1,.2-1.5,5.4,5.4,0,0,1,.7-1.3l1.1-.8a4.1,4.1,0,0,1,1.6-.3,3.2,3.2,0,0,1,1.4.3,2.6,2.6,0,0,1,1.1.7Z" style="fill: #fff"/>
          <path d="M304.9,99.2a.4.4,0,0,1-.1.3l-.2.3-.3.2h-.7c-.2,0-.3-.1-.3-.2l-.2-.3a.4.4,0,0,1-.1-.3c0-.2,0-.3.1-.4l.2-.3c0-.1.1-.2.3-.2h.7l.3.2.2.3C304.9,98.9,304.9,99,304.9,99.2Zm-.3,2.3v7.6h-1.3v-7.6Z" style="fill: #fff"/>
          <path d="M310,101.4a3.3,3.3,0,0,1,1.5.3,2.8,2.8,0,0,1,1.1.8,2.5,2.5,0,0,1,.8,1.2,7.8,7.8,0,0,1,.2,1.6,8.8,8.8,0,0,1-.2,1.7,4.2,4.2,0,0,1-.8,1.2l-1.1.8-1.5.2-1.5-.2a5,5,0,0,1-1.2-.8,7.5,7.5,0,0,1-.7-1.2,8.8,8.8,0,0,1-.2-1.7,7.8,7.8,0,0,1,.2-1.6,3.5,3.5,0,0,1,.7-1.2,3.2,3.2,0,0,1,1.2-.8A3.3,3.3,0,0,1,310,101.4Zm0,6.8a2.1,2.1,0,0,0,1.7-.8,4.7,4.7,0,0,0,0-4.2,2.1,2.1,0,0,0-1.7-.7,1.6,1.6,0,0,0-1,.2,1.8,1.8,0,0,0-.7.5,3.6,3.6,0,0,0-.4.9,5,5,0,0,0-.2,1.2,3.3,3.3,0,0,0,.6,2.1A2,2,0,0,0,310,108.2Zm2.2-9.9-1.8,1.9-.2.2h-1l1.1-1.8.2-.3h1.7Z" style="fill: #fff"/>
          <path d="M316.6,102.6l.5-.5.6-.3c.2-.2.4-.2.6-.3h.8l1.1.2.8.6a4.1,4.1,0,0,1,.5.9,4.9,4.9,0,0,1,.1,1.2v4.8h-1.3v-4.8a1.7,1.7,0,0,0-.4-1.3,1.3,1.3,0,0,0-1.2-.5,2,2,0,0,0-1.1.3l-1,.7v5.6h-1.3v-7.6h.8c.2,0,.3.1.4.3Z" style="fill: #fff"/>
        </g>
      </g>
      <g class="hoverable" onclick="showTypeInstrument('voluntarios', 2, 3); changeImage('economicos/E_Voluntarios');">
        <path d="M280.4,247.2a149.9,149.9,0,0,0-19.6-69.9l121.8-69a293.3,293.3,0,0,1,37.7,134.1Z" style="fill: #cc62a1"/>
        <g>
          <path d="M312.8,189.9l-4.4,10.7h-1.3l-4.4-10.7h1.5l.2.3,3,7.6a.8.8,0,0,1,.2.5,6.4,6.4,0,0,1,.2.7,1.4,1.4,0,0,1,.2-.7,4.3,4.3,0,0,1,.1-.5l3.1-7.6c0-.1,0-.2.1-.2h1.5Z" style="fill: #fff"/>
          <path d="M316,192.9l1.5.3a2.6,2.6,0,0,1,1.1.7,5.7,5.7,0,0,1,.8,1.3,6.5,6.5,0,0,1,0,3.2,3.6,3.6,0,0,1-.8,1.2,2.8,2.8,0,0,1-1.1.8l-1.5.3a3.3,3.3,0,0,1-1.5-.3,3.2,3.2,0,0,1-1.2-.8,3.5,3.5,0,0,1-.7-1.2,6.5,6.5,0,0,1,0-3.2,5.4,5.4,0,0,1,.7-1.3,2.9,2.9,0,0,1,1.2-.7A3.3,3.3,0,0,1,316,192.9Zm0,6.8a2.1,2.1,0,0,0,1.7-.8,4.7,4.7,0,0,0,0-4.2,2.1,2.1,0,0,0-1.7-.8l-1,.2a2,2,0,0,0-.7.6,1.9,1.9,0,0,0-.4.9,4.3,4.3,0,0,0-.2,1.2,3.3,3.3,0,0,0,.6,2.1A2,2,0,0,0,316,199.7Z" style="fill: #fff"/>
          <path d="M322.7,189.6v11h-1.4v-11Z" style="fill: #fff"/>
          <path d="M331.1,193v7.6h-.8c-.2,0-.3-.1-.4-.3v-.8a3.1,3.1,0,0,1-1.1.9,3.2,3.2,0,0,1-1.4.3l-1.1-.2a1.6,1.6,0,0,1-.8-.6,1.9,1.9,0,0,1-.5-.9,4.1,4.1,0,0,1-.1-1.2V193h1.3v4.8a2,2,0,0,0,.4,1.4,1.7,1.7,0,0,0,1.2.5,2,2,0,0,0,1.1-.3,3.4,3.4,0,0,0,.9-.8V193Z" style="fill: #fff"/>
          <path d="M334.5,194.1l.5-.5.6-.4.6-.2h.8a2,2,0,0,1,1.1.2,1.6,1.6,0,0,1,.8.6,1.9,1.9,0,0,1,.5.9,4.1,4.1,0,0,1,.1,1.2v4.8h-1.3v-4.8a2,2,0,0,0-.4-1.4,1.7,1.7,0,0,0-1.2-.5,2,2,0,0,0-1.1.3,3.9,3.9,0,0,0-1,.8v5.6h-1.3V193h.8c.2,0,.3.1.4.3Z" style="fill: #fff"/>
          <path d="M343.8,200.7a1.6,1.6,0,0,1-1.4-.5,2,2,0,0,1-.5-1.4v-4.7h-1.1v-.7l1.3-.2.3-2.3c0-.1,0-.1.1-.2h.9v2.7h2.2v.9h-2.2v4.6a.8.8,0,0,0,.2.7l.6.2h.4l.2-.2h.5l.4.6-.8.5A1.8,1.8,0,0,1,343.8,200.7Z" style="fill: #fff"/>
          <path d="M346.6,194.1a5.5,5.5,0,0,1,1.4-.9,4.1,4.1,0,0,1,1.6-.3,2,2,0,0,1,1.1.2,1.5,1.5,0,0,1,.9.6,1.9,1.9,0,0,1,.5.9,3.6,3.6,0,0,1,.2,1.1v4.9h-.9l-.2-.2v-.7l-.6.5-.6.3-.7.2h-1.6l-.7-.4c-.2-.1-.3-.3-.5-.6a2.8,2.8,0,0,1-.1-.9,2.9,2.9,0,0,1,.2-.9,2.9,2.9,0,0,1,.8-.7,5.3,5.3,0,0,1,1.5-.5,11.7,11.7,0,0,1,2.2-.3v-.6a2.2,2.2,0,0,0-.4-1.3,1.6,1.6,0,0,0-1.1-.5l-.9.2-.5.2-.5.3h-.5l-.2-.2Zm4.4,3.1h-1.6l-1.1.3-.6.5a.7.7,0,0,0-.1.5v.6l.3.3.4.2h1.2l.5-.2.5-.3.5-.4Z" style="fill: #fff"/>
          <path d="M355.6,194.5a3.6,3.6,0,0,1,.8-1.2,2,2,0,0,1,1.3-.4h.5l.4.2v1l-.2.2h-1.4l-.5.3a1,1,0,0,0-.4.5,1.6,1.6,0,0,0-.4.7v4.8h-1.3V193h1.1a.4.4,0,0,1,.1.3Z" style="fill: #fff"/>
          <path d="M361.5,190.6v.4c-.1.1-.2.2-.2.3l-.3.2h-.8l-.3-.2-.2-.3v-.4c0-.1.1-.2.1-.4l.2-.3.3-.2h.8l.3.2.2.3C361.4,190.4,361.5,190.5,361.5,190.6Zm-.3,2.4v7.6h-1.4V193Z" style="fill: #fff"/>
          <path d="M366.6,192.9l1.5.3a2.6,2.6,0,0,1,1.1.7,3.3,3.3,0,0,1,.7,1.3,4.4,4.4,0,0,1,0,3.2,2.4,2.4,0,0,1-.7,1.2,2.8,2.8,0,0,1-1.1.8l-1.5.3a4.1,4.1,0,0,1-1.6-.3,2.8,2.8,0,0,1-1.1-.8,2.4,2.4,0,0,1-.7-1.2,4.4,4.4,0,0,1,0-3.2,3.3,3.3,0,0,1,.7-1.3,2.6,2.6,0,0,1,1.1-.7A4.1,4.1,0,0,1,366.6,192.9Zm0,6.8a1.8,1.8,0,0,0,1.6-.8,4,4,0,0,0,0-4.2,1.8,1.8,0,0,0-1.6-.8l-1,.2c-.3.2-.6.3-.7.6a1.9,1.9,0,0,0-.5.9,4.5,4.5,0,0,0-.1,1.2,3.3,3.3,0,0,0,.6,2.1A1.9,1.9,0,0,0,366.6,199.7Z" style="fill: #fff"/>
          <path d="M376.3,194.3h-.9l-.5-.2h-1.3a.5.5,0,0,0-.4.2l-.3.3a1.3,1.3,0,0,0,0,1l.5.3.6.3.7.2.8.3.6.3.4.6a1.1,1.1,0,0,1,.2.8,2.9,2.9,0,0,1-.2.9,2.2,2.2,0,0,1-.5.8l-.9.5a2.7,2.7,0,0,1-1.3.2l-1.4-.2a4.1,4.1,0,0,1-1.1-.7l.3-.5.2-.2h.5l.3.2.5.3h1.5l.5-.3.3-.4c0-.2.1-.3.1-.5a.8.8,0,0,0-.2-.5,1,1,0,0,0-.5-.4l-.6-.2-.7-.3-.7-.2-.7-.4a2.1,2.1,0,0,1-.4-.6,1.9,1.9,0,0,1-.2-.8,2.9,2.9,0,0,1,.2-.9l.5-.7a1.9,1.9,0,0,1,.9-.4,2,2,0,0,1,1.1-.2l1.4.2,1,.7Z" style="fill: #fff"/>
        </g>
      </g>
      <g class="hoverable" onclick="showTypeInstrument('economicos_o_de_mercado', 3, 2); changeImage('economicos/E_Economicos_o_de_Mercado');">
        <path d="M386.1,390.4,262.6,324.5a152.3,152.3,0,0,0,17.9-70.4l140,1.4A294.6,294.6,0,0,1,386.1,390.4Z" style="fill: #cc62a1"/>
        <g>
          <path d="M295.4,302.4v1.2h-6.6V292.9h6.6V294h-5.2v3.6h4.2v1.1h-4.2v3.7Z" style="fill: #fff"/>
          <path d="M302.1,297.4h-.6l-.3-.2-.5-.2H300l-1,.2a2,2,0,0,0-.7.6,1.9,1.9,0,0,0-.4.9,5,5,0,0,0-.2,1.2,3.7,3.7,0,0,0,.2,1.2,1.9,1.9,0,0,0,.4.9,2,2,0,0,0,.7.6l.9.2h.8l.6-.3.3-.3h.5l.4.5-.6.6-.6.3-.8.2h-.8a2.8,2.8,0,0,1-1.3-.3,2.6,2.6,0,0,1-1.1-.7,7.5,7.5,0,0,1-.7-1.2,4.7,4.7,0,0,1-.3-1.7,4.1,4.1,0,0,1,.3-1.6,2.4,2.4,0,0,1,.7-1.2,2.3,2.3,0,0,1,1.1-.8,3.3,3.3,0,0,1,1.5-.3l1.4.2,1.1.8Z" style="fill: #fff"/>
          <path d="M307,295.9a3.3,3.3,0,0,1,1.5.3,2.6,2.6,0,0,1,1.1.7,3.5,3.5,0,0,1,.8,1.3,6.5,6.5,0,0,1,0,3.2,2.5,2.5,0,0,1-.8,1.2,2.8,2.8,0,0,1-1.1.8,3.9,3.9,0,0,1-3,0,3.2,3.2,0,0,1-1.2-.8,3.5,3.5,0,0,1-.7-1.2,6.5,6.5,0,0,1,0-3.2,5.4,5.4,0,0,1,.7-1.3,2.9,2.9,0,0,1,1.2-.7A3.3,3.3,0,0,1,307,295.9Zm0,6.8a2.1,2.1,0,0,0,1.7-.8,4.7,4.7,0,0,0,0-4.2,2.1,2.1,0,0,0-1.7-.8l-1,.2a2,2,0,0,0-.7.6,1.9,1.9,0,0,0-.4.9,5,5,0,0,0-.2,1.2,3.3,3.3,0,0,0,.6,2.1A2,2,0,0,0,307,302.7Z" style="fill: #fff"/>
          <path d="M313.6,297.1c.1-.2.3-.3.5-.5l.6-.4.6-.2h.8l1.1.2a1.6,1.6,0,0,1,.8.6,1.9,1.9,0,0,1,.5.9,4.1,4.1,0,0,1,.1,1.2v4.8h-1.3v-4.8a2,2,0,0,0-.4-1.4,1.7,1.7,0,0,0-1.2-.5,2,2,0,0,0-1.1.3l-1,.8v5.6h-1.3V296h.8c.2,0,.3.1.4.3Z" style="fill: #fff"/>
          <path d="M323.9,295.9a4,4,0,0,1,1.5.3,2.6,2.6,0,0,1,1.1.7,3.3,3.3,0,0,1,.7,1.3,4.4,4.4,0,0,1,0,3.2,2.4,2.4,0,0,1-.7,1.2,2.8,2.8,0,0,1-1.1.8,4,4,0,0,1-1.5.3,3.3,3.3,0,0,1-1.5-.3,2.5,2.5,0,0,1-1.2-.8,3.5,3.5,0,0,1-.7-1.2,4.4,4.4,0,0,1,0-3.2,5.4,5.4,0,0,1,.7-1.3,2.4,2.4,0,0,1,1.2-.7A3.3,3.3,0,0,1,323.9,295.9Zm0,6.8a2.1,2.1,0,0,0,1.7-.8,4.7,4.7,0,0,0,0-4.2,2.1,2.1,0,0,0-1.7-.8l-1,.2a2,2,0,0,0-.7.6,1.3,1.3,0,0,0-.4.9,5,5,0,0,0-.2,1.2,3.3,3.3,0,0,0,.6,2.1A1.9,1.9,0,0,0,323.9,302.7Zm2.2-10-1.8,2h-1.2l1.1-1.8c0-.2.1-.2.2-.3h1.7Z" style="fill: #fff"/>
          <path d="M329.2,303.6V296h.8a.3.3,0,0,1,.3.3v.8a2.8,2.8,0,0,1,1-.9,2.1,2.1,0,0,1,1.2-.3,1.6,1.6,0,0,1,1.2.4,2.4,2.4,0,0,1,.7,1.2,4.3,4.3,0,0,1,.4-.7l.6-.5a1.1,1.1,0,0,1,.7-.3h.7a2,2,0,0,1,1.1.2l.8.5a4.1,4.1,0,0,1,.5.9,5.1,5.1,0,0,1,.2,1.3v4.8h-1.4v-4.8a2,2,0,0,0-.4-1.4,1.3,1.3,0,0,0-1.1-.5l-.6.2a.9.9,0,0,0-.5.3,1.3,1.3,0,0,0-.4.6,1.9,1.9,0,0,0-.1.8v4.8h-1.4v-4.8a2.6,2.6,0,0,0-.3-1.4,1.4,1.4,0,0,0-1.1-.5,1.6,1.6,0,0,0-.9.3l-.8.7v5.7Z" style="fill: #fff"/>
          <path d="M343.2,293.6a.6.6,0,0,1-.1.4c0,.1-.1.2-.2.3l-.3.2h-.7l-.3-.2c-.1-.1-.2-.2-.2-.3a.6.6,0,0,1-.1-.4.8.8,0,0,1,.1-.4l.2-.3.3-.2h.7l.3.2.2.3A.8.8,0,0,1,343.2,293.6Zm-.3,2.4v7.6h-1.3V296Z" style="fill: #fff"/>
          <path d="M350.4,297.4a.1.1,0,0,0-.1.1h-.4l-.4-.2-.5-.2h-.7l-.9.2a2.4,2.4,0,0,0-.8.6,1.9,1.9,0,0,0-.4.9,4.9,4.9,0,0,0-.1,1.2,4.1,4.1,0,0,0,.1,1.2,1.9,1.9,0,0,0,.5.9c.1.3.4.4.7.6l.9.2h.8l.5-.3.3-.3h.6l.3.5-.5.6-.7.3-.8.2H348a3.1,3.1,0,0,1-1.3-.3,2.6,2.6,0,0,1-1.1-.7,7.5,7.5,0,0,1-.7-1.2,8.8,8.8,0,0,1-.2-1.7,7.8,7.8,0,0,1,.2-1.6,3.5,3.5,0,0,1,.7-1.2,2.8,2.8,0,0,1,1.1-.8,4.1,4.1,0,0,1,1.6-.3l1.4.2,1.1.8Z" style="fill: #fff"/>
          <path d="M355.3,295.9a3.3,3.3,0,0,1,1.5.3,2.4,2.4,0,0,1,1.2.7,5.4,5.4,0,0,1,.7,1.3,4.4,4.4,0,0,1,0,3.2,3.5,3.5,0,0,1-.7,1.2,2.5,2.5,0,0,1-1.2.8,3.3,3.3,0,0,1-1.5.3,4,4,0,0,1-1.5-.3,2.8,2.8,0,0,1-1.1-.8,2.4,2.4,0,0,1-.7-1.2,4.4,4.4,0,0,1,0-3.2,3.3,3.3,0,0,1,.7-1.3,2.6,2.6,0,0,1,1.1-.7A4,4,0,0,1,355.3,295.9Zm0,6.8a1.9,1.9,0,0,0,1.7-.8,4,4,0,0,0,0-4.2,1.9,1.9,0,0,0-1.7-.8l-.9.2a2.4,2.4,0,0,0-.8.6,3.9,3.9,0,0,0-.4.9,4.9,4.9,0,0,0-.1,1.2,4.1,4.1,0,0,0,.5,2.1A2.1,2.1,0,0,0,355.3,302.7Z" style="fill: #fff"/>
          <path d="M365.1,297.3h-.9l-.5-.2h-1.3a.5.5,0,0,0-.4.2q-.3.2-.3.3a1.3,1.3,0,0,0,0,1l.5.3.6.3.7.2.8.3.6.3a2.1,2.1,0,0,1,.4.6,1.9,1.9,0,0,1,.2.8,2.9,2.9,0,0,1-.2.9,2.2,2.2,0,0,1-.5.8l-.9.5a2.7,2.7,0,0,1-1.3.2l-1.4-.2a4.1,4.1,0,0,1-1.1-.7l.3-.5c0-.1.1-.1.1-.2h.5l.4.2.5.3h1.5l.5-.3.3-.4v-.5a.7.7,0,0,0-.1-.5,1,1,0,0,0-.5-.4l-.6-.2-.7-.3-.8-.2-.6-.4a2.1,2.1,0,0,1-.4-.6,1.9,1.9,0,0,1-.2-.8,2.9,2.9,0,0,1,.2-.9l.5-.7a2,2,0,0,1,.8-.4,2.5,2.5,0,0,1,1.2-.2l1.3.2a4.1,4.1,0,0,1,1.1.7Z" style="fill: #fff"/>
          <path d="M374.2,295.9a4,4,0,0,1,1.5.3,2.6,2.6,0,0,1,1.1.7,3.3,3.3,0,0,1,.7,1.3,4.4,4.4,0,0,1,0,3.2,2.4,2.4,0,0,1-.7,1.2,2.8,2.8,0,0,1-1.1.8,4,4,0,0,1-1.5.3,3.3,3.3,0,0,1-1.5-.3,2.5,2.5,0,0,1-1.2-.8,3.5,3.5,0,0,1-.7-1.2,6.5,6.5,0,0,1,0-3.2,5.4,5.4,0,0,1,.7-1.3,2.4,2.4,0,0,1,1.2-.7A3.3,3.3,0,0,1,374.2,295.9Zm0,6.8a2.1,2.1,0,0,0,1.7-.8,4.7,4.7,0,0,0,0-4.2,2.1,2.1,0,0,0-1.7-.8l-1,.2a2,2,0,0,0-.7.6,1.9,1.9,0,0,0-.4.9,5,5,0,0,0-.2,1.2,3.3,3.3,0,0,0,.6,2.1A2,2,0,0,0,374.2,302.7Z" style="fill: #fff"/>
          <path d="M389.6,292.6v11h-.8a.3.3,0,0,1-.3-.3l-.2-.9a3.1,3.1,0,0,1-1.1.9,2.3,2.3,0,0,1-1.4.4l-1.2-.2a2.4,2.4,0,0,1-.9-.8,3.4,3.4,0,0,1-.6-1.2,7.9,7.9,0,0,1-.2-1.7,6.8,6.8,0,0,1,.2-1.5,5.4,5.4,0,0,1,.7-1.3,3.9,3.9,0,0,1,1-.8,3.2,3.2,0,0,1,1.4-.3,2.2,2.2,0,0,1,1.2.2l.9.7v-4.2Zm-1.3,5.2c-.3-.3-.5-.6-.8-.7l-1-.2a1.8,1.8,0,0,0-1.6.8,3.3,3.3,0,0,0-.6,2.1,5.3,5.3,0,0,0,.1,1.3,2.5,2.5,0,0,0,.4.9l.6.5h.8a2.4,2.4,0,0,0,1.2-.3l.9-.8Z" style="fill: #fff"/>
          <path d="M397.9,302.5l-.6.6-.7.3-.9.2h-.8a3.2,3.2,0,0,1-1.4-.3,2.4,2.4,0,0,1-1.2-.7,3.3,3.3,0,0,1-.7-1.3,4.8,4.8,0,0,1-.3-1.8,5.9,5.9,0,0,1,.2-1.4,3.5,3.5,0,0,1,.7-1.2,2.5,2.5,0,0,1,1.2-.8,3.2,3.2,0,0,1,1.4-.3l1.3.2,1,.7a3.6,3.6,0,0,1,.7,1,6.8,6.8,0,0,1,.2,1.5c0,.2,0,.3-.1.4s-.1.1-.2.1h-5.1a5.1,5.1,0,0,0,.2,1.3,2.2,2.2,0,0,0,.5.8,1.6,1.6,0,0,0,.8.6l.9.2.9-.2.6-.2.5-.3h.5Zm-1.1-3.5a2.8,2.8,0,0,0-.1-.9c-.1-.2-.2-.5-.4-.6l-.6-.5h-.8a1.7,1.7,0,0,0-1.5.5,2.2,2.2,0,0,0-.7,1.6Z" style="fill: #fff"/>
          <path d="M326.4,310.9v10.7h-1.3v-8.2a.8.8,0,0,0,.1-.4l-3.7,6.7a.7.7,0,0,1-.5.4h-.3a.7.7,0,0,1-.5-.4l-3.7-6.7v8.6h-1.3V310.9h1.4c.1,0,.1.1.2.2l3.7,6.6c.1.1.1.3.2.4l.2.4c0-.1.1-.3.1-.4s.1-.3.2-.4l3.6-6.6.2-.2h1.4Z" style="fill: #fff"/>
          <path d="M334.8,320.5l-.6.6-.8.3-.8.2h-.8a4,4,0,0,1-1.5-.3,2.6,2.6,0,0,1-1.1-.7,5.7,5.7,0,0,1-.8-1.3,9,9,0,0,1-.2-1.8,5.9,5.9,0,0,1,.2-1.4,3.5,3.5,0,0,1,.7-1.2,2.8,2.8,0,0,1,1.1-.8,4,4,0,0,1,1.5-.3l1.3.2,1,.7a3.6,3.6,0,0,1,.7,1,6.8,6.8,0,0,1,.2,1.5c0,.2,0,.3-.1.4s-.1.1-.2.1h-5.1a5.1,5.1,0,0,0,.2,1.3,2.2,2.2,0,0,0,.5.8,1.3,1.3,0,0,0,.7.6l1,.2.9-.2.6-.2.4-.3h.6Zm-1.1-3.5c0-.3-.1-.6-.1-.9l-.4-.6-.6-.5h-.8a2.1,2.1,0,0,0-1.6.5,3.4,3.4,0,0,0-.7,1.6Z" style="fill: #fff"/>
          <path d="M337.8,315.5a2.7,2.7,0,0,1,.9-1.2,1.8,1.8,0,0,1,1.3-.4h.4l.4.2v1a.2.2,0,0,1-.2.2h-1.4l-.5.3a1,1,0,0,0-.4.5l-.3.7v4.8h-1.4V314h1.1a.4.4,0,0,1,.1.3Z" style="fill: #fff"/>
          <path d="M347,315.4h-.6l-.3-.2-.5-.2h-.7l-1,.2a2,2,0,0,0-.7.6,1.9,1.9,0,0,0-.4.9,5,5,0,0,0-.2,1.2,3.7,3.7,0,0,0,.2,1.2,1.9,1.9,0,0,0,.4.9,2,2,0,0,0,.7.6l.9.2h.8l.6-.3.3-.3h.5l.4.5a3.4,3.4,0,0,1-.6.6l-.6.3-.8.2h-.8a2.8,2.8,0,0,1-1.3-.3,2.6,2.6,0,0,1-1.1-.7,7.5,7.5,0,0,1-.7-1.2,4.7,4.7,0,0,1-.2-1.7,4.1,4.1,0,0,1,.2-1.6,2.4,2.4,0,0,1,.7-1.2,2.8,2.8,0,0,1,1.1-.8,3.3,3.3,0,0,1,1.5-.3l1.4.2,1.1.8Z" style="fill: #fff"/>
          <path d="M348.6,315.1a5.5,5.5,0,0,1,1.4-.9,4.1,4.1,0,0,1,1.6-.3,2,2,0,0,1,1.1.2,1.5,1.5,0,0,1,.9.6,1.9,1.9,0,0,1,.5.9,3.6,3.6,0,0,1,.2,1.1v4.9h-.6c-.2,0-.3,0-.3-.1l-.2-.2v-.7l-.6.5-.6.3-.7.2h-1.6l-.7-.4c-.2-.1-.3-.4-.5-.6a2.8,2.8,0,0,1-.1-.9,2.9,2.9,0,0,1,.2-.9l.8-.7a5.3,5.3,0,0,1,1.5-.5,11.7,11.7,0,0,1,2.2-.3v-.6a2.2,2.2,0,0,0-.4-1.3,1.6,1.6,0,0,0-1.1-.5l-.9.2-.5.2-.5.3h-.5c-.1-.1-.2-.1-.2-.2Zm4.4,3.1h-1.6l-1.1.3-.6.5a.7.7,0,0,0-.1.5,1.3,1.3,0,0,0,.1.6c0,.1.1.2.2.3l.4.2h1.2l.5-.2.5-.3.5-.4Z" style="fill: #fff"/>
          <path d="M362.6,310.6v11h-.8c-.2,0-.3-.1-.4-.3v-.9a3.1,3.1,0,0,1-1.1.9,2.3,2.3,0,0,1-1.4.4l-1.2-.2a2.4,2.4,0,0,1-.9-.8,2.3,2.3,0,0,1-.6-1.2,7.9,7.9,0,0,1-.2-1.7,6.8,6.8,0,0,1,.2-1.5,5.4,5.4,0,0,1,.7-1.3,2.7,2.7,0,0,1,1-.8,3.2,3.2,0,0,1,1.4-.3,2.5,2.5,0,0,1,1.2.2,2.7,2.7,0,0,1,.8.7v-4.2Zm-1.4,5.2a1.8,1.8,0,0,0-.8-.7l-.9-.2a2.1,2.1,0,0,0-1.7.8,4.1,4.1,0,0,0-.5,2.1,5.3,5.3,0,0,0,.1,1.3,2.5,2.5,0,0,0,.4.9,1,1,0,0,0,.6.5h.8a2,2,0,0,0,1.1-.3,2.4,2.4,0,0,0,.9-.8Z" style="fill: #fff"/>
          <path d="M367.9,313.9a3.3,3.3,0,0,1,1.5.3,2.6,2.6,0,0,1,1.1.7,3.5,3.5,0,0,1,.8,1.3,6.5,6.5,0,0,1,0,3.2,2.5,2.5,0,0,1-.8,1.2,2.8,2.8,0,0,1-1.1.8,3.9,3.9,0,0,1-3,0,3.2,3.2,0,0,1-1.2-.8,3.5,3.5,0,0,1-.7-1.2,6.5,6.5,0,0,1,0-3.2,5.4,5.4,0,0,1,.7-1.3,2.9,2.9,0,0,1,1.2-.7A3.3,3.3,0,0,1,367.9,313.9Zm0,6.8a2.1,2.1,0,0,0,1.7-.8,4.7,4.7,0,0,0,0-4.2,2.1,2.1,0,0,0-1.7-.8l-1,.2a2,2,0,0,0-.7.6,1.9,1.9,0,0,0-.4.9,5,5,0,0,0-.2,1.2,3.3,3.3,0,0,0,.6,2.1A2,2,0,0,0,367.9,320.7Z" style="fill: #fff"/>
        </g>
      </g>
      <g class="hoverable" onclick="showTypeInstrument('comando_y_control', 3, 2); changeImage('economicos/E_Comando_y_Control');">
        <path d="M282.4,501.3,208.3,382.5a154.7,154.7,0,0,0,50.9-52.1l120.4,71.5A296.1,296.1,0,0,1,282.4,501.3Z" style="fill: #cc62a1"/>
        <g>
          <path d="M259.8,406.4h.2l.6.6a6.1,6.1,0,0,1-1.6,1.2,5.6,5.6,0,0,1-2.3.4,4.6,4.6,0,0,1-2.1-.4,4.6,4.6,0,0,1-1.6-1.1,6.2,6.2,0,0,1-1.1-1.7,8.5,8.5,0,0,1-.3-2.3,5.4,5.4,0,0,1,.4-2.2,4,4,0,0,1,1-1.7,6.6,6.6,0,0,1,1.7-1.2,7.1,7.1,0,0,1,2.1-.4,6.5,6.5,0,0,1,2.1.4,4.9,4.9,0,0,1,1.5,1l-.5.7h-.6l-.5-.3a2,2,0,0,0-.8-.4h-1.2a4,4,0,0,0-1.5.3,3.6,3.6,0,0,0-1.2.8,4.7,4.7,0,0,0-.8,1.4,8.8,8.8,0,0,0-.2,1.7,4.8,4.8,0,0,0,.3,1.8,3.7,3.7,0,0,0,.7,1.4l1.2.8a4,4,0,0,0,1.5.3h.8l.8-.2a.9.9,0,0,0,.6-.3l.5-.4Z" style="fill: #fff"/>
          <path d="M265,400.9a4,4,0,0,1,1.5.3,2.6,2.6,0,0,1,1.1.7,5.7,5.7,0,0,1,.8,1.3,6.5,6.5,0,0,1,0,3.2,3.6,3.6,0,0,1-.8,1.2,2.8,2.8,0,0,1-1.1.8,4,4,0,0,1-1.5.3,3.3,3.3,0,0,1-1.5-.3,3.2,3.2,0,0,1-1.2-.8,3.5,3.5,0,0,1-.7-1.2,6.5,6.5,0,0,1,0-3.2,5.4,5.4,0,0,1,.7-1.3,2.9,2.9,0,0,1,1.2-.7A3.3,3.3,0,0,1,265,400.9Zm0,6.8a2.1,2.1,0,0,0,1.7-.8,4.7,4.7,0,0,0,0-4.2,2.1,2.1,0,0,0-1.7-.8l-1,.2a2,2,0,0,0-.7.6,1.9,1.9,0,0,0-.4.9,5,5,0,0,0-.2,1.2,3.3,3.3,0,0,0,.6,2.1A2,2,0,0,0,265,407.7Z" style="fill: #fff"/>
          <path d="M270.3,408.6V401h.8c.2,0,.3.1.4.3v.8a2.8,2.8,0,0,1,1-.9,2.1,2.1,0,0,1,1.2-.3,1.6,1.6,0,0,1,1.2.4,1.9,1.9,0,0,1,.7,1.2,1.8,1.8,0,0,1,.5-.7,1.2,1.2,0,0,1,.5-.5l.7-.3h.8a1.6,1.6,0,0,1,1,.2l.8.5a4.1,4.1,0,0,1,.5.9,5.1,5.1,0,0,1,.2,1.3v4.8h-1.3v-4.8a2.6,2.6,0,0,0-.4-1.4,1.7,1.7,0,0,0-1.2-.5l-.6.2a.9.9,0,0,0-.5.3,1.3,1.3,0,0,0-.4.6c0,.2-.1.5-.1.8v4.8h-1.3v-4.8a2.6,2.6,0,0,0-.4-1.4,1.3,1.3,0,0,0-1.1-.5,1.6,1.6,0,0,0-.9.3l-.8.7v5.7Z" style="fill: #fff"/>
          <path d="M282.4,402.1a5.5,5.5,0,0,1,1.4-.9,4.1,4.1,0,0,1,1.6-.3,2,2,0,0,1,1.1.2,1.8,1.8,0,0,1,.9.6,1.9,1.9,0,0,1,.5.9,3.6,3.6,0,0,1,.2,1.1v4.9h-.6c-.2,0-.3,0-.3-.1l-.2-.2-.2-.7c-.2.1-.3.3-.5.5l-.6.3-.7.2h-1.6l-.7-.4a1.5,1.5,0,0,1-.5-.6,2.8,2.8,0,0,1-.1-.9,1.5,1.5,0,0,1,.2-.9,2.9,2.9,0,0,1,.8-.7,5.3,5.3,0,0,1,1.5-.5,11.7,11.7,0,0,1,2.2-.3v-.6a2.2,2.2,0,0,0-.4-1.3,1.6,1.6,0,0,0-1.1-.5l-.9.2-.6.2c-.1.2-.3.2-.4.3h-.6c0-.1-.1-.1-.1-.2Zm4.4,3.1h-1.6l-1.1.3-.6.5a.8.8,0,0,0-.2.5c0,.2.1.4.1.6l.3.3.4.2h1.1l.6-.2.5-.3.5-.4Z" style="fill: #fff"/>
          <path d="M291.3,402.1l.6-.5.6-.4.6-.2h.8l1.1.2a1.6,1.6,0,0,1,.8.6,3.6,3.6,0,0,1,.5.9,4.1,4.1,0,0,1,.1,1.2v4.8h-1.3v-4.8a2.6,2.6,0,0,0-.4-1.4,1.7,1.7,0,0,0-1.2-.5,2,2,0,0,0-1.1.3,3.9,3.9,0,0,0-1,.8v5.6h-1.3V401h.8a.3.3,0,0,1,.3.3Z" style="fill: #fff"/>
          <path d="M304.7,397.6v11h-.8a.3.3,0,0,1-.3-.3v-.9a4.4,4.4,0,0,1-1.1.9,2.6,2.6,0,0,1-1.5.4l-1.2-.2-.9-.8a6.7,6.7,0,0,1-.6-1.2,7.9,7.9,0,0,1-.2-1.7,3.7,3.7,0,0,1,.3-1.5,3.1,3.1,0,0,1,.6-1.3,3.9,3.9,0,0,1,1-.8,3.5,3.5,0,0,1,1.4-.3,2.2,2.2,0,0,1,1.2.2,3.1,3.1,0,0,1,.9.7v-4.2Zm-1.3,5.2a1.8,1.8,0,0,0-.8-.7l-1-.2a1.9,1.9,0,0,0-1.6.8,3.3,3.3,0,0,0-.6,2.1,5.1,5.1,0,0,0,.2,1.3,2.4,2.4,0,0,0,.3.9l.6.5h.9a2,2,0,0,0,1.1-.3l.9-.8Z" style="fill: #fff"/>
          <path d="M310.1,400.9a4,4,0,0,1,1.5.3,2.6,2.6,0,0,1,1.1.7,3.3,3.3,0,0,1,.7,1.3,4.4,4.4,0,0,1,0,3.2,2.4,2.4,0,0,1-.7,1.2,2.8,2.8,0,0,1-1.1.8,4,4,0,0,1-1.5.3,3.3,3.3,0,0,1-1.5-.3,2.5,2.5,0,0,1-1.2-.8,3.5,3.5,0,0,1-.7-1.2,4.4,4.4,0,0,1,0-3.2,5.4,5.4,0,0,1,.7-1.3,2.4,2.4,0,0,1,1.2-.7A3.3,3.3,0,0,1,310.1,400.9Zm0,6.8a1.8,1.8,0,0,0,1.6-.8,4,4,0,0,0,0-4.2,1.8,1.8,0,0,0-1.6-.8l-1,.2a2,2,0,0,0-.7.6,1.9,1.9,0,0,0-.5.9c0,.4-.1.8-.1,1.2a3.3,3.3,0,0,0,.6,2.1A1.9,1.9,0,0,0,310.1,407.7Z" style="fill: #fff"/>
          <path d="M325.4,401l-4.3,9.8c0,.1-.1.2-.1.3h-1.3l1.4-3-3.2-7.2h1.5a.3.3,0,0,1,.1.2l2,4.8a1.4,1.4,0,0,1,.2.6l.3-.6,1.9-4.8c.1-.1.1-.2.2-.2h1.3Z" style="fill: #fff"/>
          <path d="M272.3,424.4c.1,0,.2,0,.2.1l.6.6a4.8,4.8,0,0,1-1.6,1.2,5.3,5.3,0,0,1-2.3.4,4.6,4.6,0,0,1-2.1-.4,5.7,5.7,0,0,1-1.6-1.1,6,6,0,0,1-1.4-4,5.4,5.4,0,0,1,.4-2.2,3.4,3.4,0,0,1,1.1-1.7,4.8,4.8,0,0,1,1.6-1.2,7.8,7.8,0,0,1,2.2-.4,6.5,6.5,0,0,1,2,.4,4,4,0,0,1,1.5,1l-.4.7h-.7l-.5-.3a2,2,0,0,0-.8-.4h-1.1a4.1,4.1,0,0,0-1.6.3l-1.2.8a4.6,4.6,0,0,0-.7,1.4,4.7,4.7,0,0,0-.3,1.7,4.8,4.8,0,0,0,.3,1.8,3.9,3.9,0,0,0,.8,1.4l1.1.8a4,4,0,0,0,1.5.3h.9l.7-.2a.9.9,0,0,0,.6-.3l.6-.4C272.1,424.4,272.2,424.4,272.3,424.4Z" style="fill: #fff"/>
          <path d="M277.5,418.9a3.3,3.3,0,0,1,1.5.3,2.9,2.9,0,0,1,1.2.7,5.4,5.4,0,0,1,.7,1.3,6.5,6.5,0,0,1,0,3.2,3.5,3.5,0,0,1-.7,1.2,3.2,3.2,0,0,1-1.2.8,3.3,3.3,0,0,1-1.5.3,4,4,0,0,1-1.5-.3,2.8,2.8,0,0,1-1.1-.8,3.6,3.6,0,0,1-.8-1.2,6.5,6.5,0,0,1,0-3.2,5.7,5.7,0,0,1,.8-1.3,2.6,2.6,0,0,1,1.1-.7A4,4,0,0,1,277.5,418.9Zm0,6.8a2,2,0,0,0,1.7-.8,4,4,0,0,0,0-4.2,2,2,0,0,0-1.7-.8l-1,.2a2,2,0,0,0-.7.6,1.9,1.9,0,0,0-.4.9,4.9,4.9,0,0,0-.1,1.2,3.3,3.3,0,0,0,.5,2.1A2.1,2.1,0,0,0,277.5,425.7Z" style="fill: #fff"/>
          <path d="M284.1,420.1c.1-.2.3-.3.5-.5l.6-.4.7-.2h.7l1.1.2a1.6,1.6,0,0,1,.8.6,1.9,1.9,0,0,1,.5.9,3.7,3.7,0,0,1,.2,1.2v4.8h-1.4v-4.8a2,2,0,0,0-.4-1.4,1.4,1.4,0,0,0-1.2-.5,2.3,2.3,0,0,0-1.1.3l-.9.8v5.6h-1.4V419h.8c.2,0,.3.1.4.3Z" style="fill: #fff"/>
          <path d="M293.4,426.7a1.7,1.7,0,0,1-1.4-.5,2,2,0,0,1-.4-1.4v-4.7h-1.2v-.7l1.2-.2.3-2.3c0-.1.1-.1.1-.2h.9v2.7h2.2v.9h-2.2v4.6a1.4,1.4,0,0,0,.2.7l.6.2h.4l.3-.2h.5l.4.6a2.6,2.6,0,0,1-.9.5A1.6,1.6,0,0,1,293.4,426.7Z" style="fill: #fff"/>
          <path d="M297.7,420.5a6.2,6.2,0,0,1,.9-1.2,2,2,0,0,1,1.3-.4h.5l.4.2v1c-.1.1-.1.2-.3.2H299l-.5.3-.4.5-.3.7v4.8h-1.3V419h.7c.2,0,.3,0,.3.1s.1.1.1.3Z" style="fill: #fff"/>
          <path d="M304.8,418.9a3.3,3.3,0,0,1,1.5.3,2.9,2.9,0,0,1,1.2.7,5.4,5.4,0,0,1,.7,1.3,6.5,6.5,0,0,1,0,3.2,3.5,3.5,0,0,1-.7,1.2,3.2,3.2,0,0,1-1.2.8,3.3,3.3,0,0,1-1.5.3,4,4,0,0,1-1.5-.3,2.8,2.8,0,0,1-1.1-.8,3.6,3.6,0,0,1-.8-1.2,6.5,6.5,0,0,1,0-3.2,5.7,5.7,0,0,1,.8-1.3,2.6,2.6,0,0,1,1.1-.7A4,4,0,0,1,304.8,418.9Zm0,6.8a2,2,0,0,0,1.7-.8,4,4,0,0,0,0-4.2,2,2,0,0,0-1.7-.8l-1,.2a2,2,0,0,0-.7.6,1.9,1.9,0,0,0-.4.9,4.9,4.9,0,0,0-.1,1.2,3.3,3.3,0,0,0,.5,2.1A2.1,2.1,0,0,0,304.8,425.7Z" style="fill: #fff"/>
          <path d="M311.5,415.6v11h-1.3v-11Z" style="fill: #fff"/>
        </g>
      </g>
    </g>
  </g>
</svg>
