<svg class="animate__animated" xmlns="http://www.w3.org/2000/svg" viewBox="0 0 420.5 579.7">
  <g id="Capa_2" data-name="Capa 2">
    <g id="Capa_1-2" data-name="Capa 1">
      <g class="hoverable" onclick="showTypeInstrument('creditos_blandos', 3, 2); changeImage('financiacion/F_Creditos_Blandos');">
        <path d="M280.4,285.9A149.9,149.9,0,0,0,260.8,216l121.8-69a293.3,293.3,0,0,1,37.7,134.1Z" style="fill: #ca5c9d"/>
        <g>
          <path d="M323.2,229.6h.2l.6.6a6.1,6.1,0,0,1-1.6,1.2,5.6,5.6,0,0,1-2.3.4,4.6,4.6,0,0,1-2.1-.4,3.6,3.6,0,0,1-1.6-1.1,6.2,6.2,0,0,1-1.1-1.7,8.5,8.5,0,0,1-.3-2.3,5.4,5.4,0,0,1,.4-2.2,4.8,4.8,0,0,1,1-1.7,5.2,5.2,0,0,1,1.7-1.2,5.7,5.7,0,0,1,4.2,0,7.8,7.8,0,0,1,1.5,1l-.5.7h-.6l-.5-.3-.8-.4h-1.2l-1.5.3a3.6,3.6,0,0,0-1.2.8,4.2,4.2,0,0,0-1,3.1,9,9,0,0,0,.2,1.8,4.7,4.7,0,0,0,.8,1.4l1.2.8a3.7,3.7,0,0,0,1.5.3h.8l.8-.2a.9.9,0,0,0,.6-.3l.5-.4Z" style="fill: #fff"/>
          <path d="M326.6,225.7a3.6,3.6,0,0,1,.8-1.2,2,2,0,0,1,1.3-.4h.5l.4.2v1l-.2.2h-1.4l-.6.3-.3.5a1.6,1.6,0,0,0-.4.7v4.8h-1.3v-7.6h1.1v1.4Z" style="fill: #fff"/>
          <path d="M336.6,230.7l-.6.6-.7.3-.8.2h-.9a3.2,3.2,0,0,1-1.4-.3,2.9,2.9,0,0,1-1.2-.7,5.4,5.4,0,0,1-.7-1.3,4.7,4.7,0,0,1-.3-1.7,3.3,3.3,0,0,1,.3-1.5,1.9,1.9,0,0,1,.7-1.2,2.3,2.3,0,0,1,1.1-.8,3.3,3.3,0,0,1,1.5-.3l1.2.2,1,.7a3.6,3.6,0,0,1,.7,1,6.8,6.8,0,0,1,.2,1.5v.4h-5.4a5.1,5.1,0,0,0,.2,1.3,4.1,4.1,0,0,0,.5.9l.8.5.9.2.9-.2.6-.2.5-.3h.3a.2.2,0,0,1,.2.2Zm-1.1-3.5a2.8,2.8,0,0,0-.1-.9c-.1-.2-.2-.5-.4-.6l-.6-.5h-.8a2.1,2.1,0,0,0-1.5.5,2.6,2.6,0,0,0-.7,1.6Zm.3-6.3-1.8,2h-1.2l1.1-1.8c0-.1.1-.2.2-.3h1.7Z" style="fill: #fff"/>
          <path d="M344.6,220.8v11h-.7c-.2,0-.4-.1-.4-.3v-.9l-1.1,1a3.7,3.7,0,0,1-1.5.3l-1.2-.2-.9-.8a3.3,3.3,0,0,1-.5-1.2,4.3,4.3,0,0,1-.3-1.7,4,4,0,0,1,.3-1.5,3.1,3.1,0,0,1,.6-1.3,3.1,3.1,0,0,1,1.1-.8,2.8,2.8,0,0,1,1.3-.3l1.2.2a2.2,2.2,0,0,1,.9.7v-4.2Zm-1.3,5.2a1.8,1.8,0,0,0-.8-.7l-1-.2a1.9,1.9,0,0,0-1.6.8,3.3,3.3,0,0,0-.6,2.1,4.4,4.4,0,0,0,.2,1.3,2.4,2.4,0,0,0,.3.9l.6.5h.9a2,2,0,0,0,1.1-.3l.9-.8Z" style="fill: #fff"/>
          <path d="M348.5,221.8c0,.2-.1.3-.1.4l-.2.3-.3.2h-.8l-.3-.2-.2-.3v-.7c.1-.2.1-.3.2-.4l.3-.2h.8l.3.2c.1.1.1.2.2.4S348.5,221.7,348.5,221.8Zm-.3,2.4v7.6h-1.4v-7.6Z" style="fill: #fff"/>
          <path d="M352.7,231.9a1.6,1.6,0,0,1-1.4-.5,2,2,0,0,1-.5-1.4v-4.7h-1.1c0-.1-.1-.2-.1-.3v-.5l1.3-.2.3-2.3v-.2h.9v2.7h2.2v.9h-2.2v4.6a.8.8,0,0,0,.2.7c.1.2.3.2.6.2h.6l.2-.2h.3l.4.6a1.4,1.4,0,0,1-.8.5A1.8,1.8,0,0,1,352.7,231.9Z" style="fill: #fff"/>
          <path d="M358.9,224.1a3.3,3.3,0,0,1,1.5.3,2.8,2.8,0,0,1,1.1.8,2.5,2.5,0,0,1,.8,1.2,6.5,6.5,0,0,1,0,3.2,3.5,3.5,0,0,1-.8,1.3,2.6,2.6,0,0,1-1.1.7,3.9,3.9,0,0,1-3,0,2.9,2.9,0,0,1-1.2-.7,5.4,5.4,0,0,1-.7-1.3,6.5,6.5,0,0,1,0-3.2,3.5,3.5,0,0,1,.7-1.2,3.2,3.2,0,0,1,1.2-.8A3.3,3.3,0,0,1,358.9,224.1Zm0,6.8a2,2,0,0,0,1.7-.8,4.7,4.7,0,0,0,0-4.2,2,2,0,0,0-1.7-.8l-1,.2-.7.6a1.9,1.9,0,0,0-.4.9,5,5,0,0,0-.2,1.2,3.3,3.3,0,0,0,.6,2.1A2,2,0,0,0,358.9,230.9Z" style="fill: #fff"/>
          <path d="M368.6,225.5h-.8l-.5-.2H366l-.5.2-.3.4c0,.1-.1.2-.1.4s.1.3.2.5l.4.3.7.3.7.2.7.3.6.3.5.6a1.9,1.9,0,0,1,.2.8,3.6,3.6,0,0,1-.2,1,2,2,0,0,1-.6.7,1.9,1.9,0,0,1-.9.5,2.2,2.2,0,0,1-1.2.2l-1.5-.2-1-.7.3-.5v-.2h.5l.4.2.5.3h1.4l.5-.3c.2-.1.2-.3.3-.4a.9.9,0,0,0,.1-.5c0-.2,0-.4-.2-.5l-.4-.4-.6-.2-.8-.2-.7-.3-.6-.4c-.2-.2-.4-.3-.5-.6a3.2,3.2,0,0,1,0-1.6,2,2,0,0,1,.6-.7l.8-.5a2.2,2.2,0,0,1,1.2-.2l1.3.2,1,.7Z" style="fill: #fff"/>
          <path d="M317,243.3a3.1,3.1,0,0,1,1.1-.9,2.9,2.9,0,0,1,1.4-.3l1.2.2.9.8.6,1.2a6.1,6.1,0,0,1,.2,1.5,4.7,4.7,0,0,1-.3,1.7,3.1,3.1,0,0,1-.6,1.3,3.9,3.9,0,0,1-1,.8,3.2,3.2,0,0,1-1.4.3,2.8,2.8,0,0,1-1.3-.3,3.2,3.2,0,0,1-.9-.8v.7c-.1.2-.2.3-.4.3h-.8v-11H317Zm0,4.7a2.7,2.7,0,0,0,.8.7l1,.2a1.9,1.9,0,0,0,1.6-.8,3.4,3.4,0,0,0,.6-2.2,3.6,3.6,0,0,0-.5-2.1,1.9,1.9,0,0,0-1.5-.6,2,2,0,0,0-1.1.3,3.2,3.2,0,0,0-.9.8Z" style="fill: #fff"/>
          <path d="M325.4,238.8v11h-1.3v-11Z" style="fill: #fff"/>
          <path d="M327.4,243.3a4.2,4.2,0,0,1,1.4-.9,3.8,3.8,0,0,1,1.6-.3,2,2,0,0,1,1.1.2,1.6,1.6,0,0,1,.8.6,1.3,1.3,0,0,1,.5.9,2,2,0,0,1,.2,1.1v4.9h-.9v-.2l-.2-.7-.6.5-.6.3-.6.2h-1.7c-.2-.1-.5-.2-.6-.4a1,1,0,0,1-.5-.6,2,2,0,0,1-.2-.9,1.6,1.6,0,0,1,.3-.9,1.9,1.9,0,0,1,.8-.7,3.8,3.8,0,0,1,1.4-.5,11.7,11.7,0,0,1,2.2-.3v-.6a1.8,1.8,0,0,0-.4-1.3,1.2,1.2,0,0,0-1.1-.4h-.8l-.6.3-.4.2-.4.2h-.2l-.2-.2Zm4.3,3.1h-1.6l-1,.3c-.3.2-.5.3-.6.5a.8.8,0,0,0-.2.6,1.1,1.1,0,0,0,.1.5l.3.3a.5.5,0,0,0,.4.2h1.1l.6-.2.5-.3.4-.4Z" style="fill: #fff"/>
          <path d="M336.3,243.3l.5-.5.6-.4.7-.2h.7l1.1.2a1.2,1.2,0,0,1,.8.6,1.9,1.9,0,0,1,.5.9,3.7,3.7,0,0,1,.2,1.2v4.8H340V245a2,2,0,0,0-.4-1.4c-.2-.3-.6-.4-1.2-.4a2.3,2.3,0,0,0-1.1.2l-.9.8v5.6h-1.3v-7.6h.8a.3.3,0,0,1,.3.3Z" style="fill: #fff"/>
          <path d="M349.7,238.8v11h-.8a.3.3,0,0,1-.3-.3l-.2-.9a5.2,5.2,0,0,1-1.1,1,3.2,3.2,0,0,1-1.4.3l-1.2-.2a2.4,2.4,0,0,1-.9-.8,2.3,2.3,0,0,1-.6-1.2,7.9,7.9,0,0,1-.2-1.7,7.7,7.7,0,0,1,.2-1.5,5.4,5.4,0,0,1,.7-1.3,3.9,3.9,0,0,1,1-.8,3.2,3.2,0,0,1,1.4-.3l1.2.2.9.7v-4.2Zm-1.3,5.2c-.3-.3-.5-.6-.8-.7l-1-.2a1.8,1.8,0,0,0-1.6.8,3.3,3.3,0,0,0-.6,2.1,4.9,4.9,0,0,0,.1,1.3,2.5,2.5,0,0,0,.4.9l.6.5h.8a2.4,2.4,0,0,0,1.2-.3l.9-.8Z" style="fill: #fff"/>
          <path d="M355,242.1a3.3,3.3,0,0,1,1.5.3,3.2,3.2,0,0,1,1.2.8,3.5,3.5,0,0,1,.7,1.2,6.5,6.5,0,0,1,0,3.2,5.4,5.4,0,0,1-.7,1.3,2.9,2.9,0,0,1-1.2.7,3.3,3.3,0,0,1-1.5.3,4,4,0,0,1-1.5-.3,2.6,2.6,0,0,1-1.1-.7,5.7,5.7,0,0,1-.8-1.3,6.5,6.5,0,0,1,0-3.2,3.6,3.6,0,0,1,.8-1.2,2.8,2.8,0,0,1,1.1-.8A4,4,0,0,1,355,242.1Zm0,6.8a2,2,0,0,0,1.7-.8,4,4,0,0,0,0-4.2,2,2,0,0,0-1.7-.8l-1,.2-.7.6a1.9,1.9,0,0,0-.4.9,4.9,4.9,0,0,0-.1,1.2,4.1,4.1,0,0,0,.5,2.1A2.1,2.1,0,0,0,355,248.9Z" style="fill: #fff"/>
          <path d="M364.8,243.5h-.9l-.5-.2h-1.3l-.5.2-.3.4c0,.1-.1.2-.1.4s.1.3.2.5l.5.3.6.3.7.2.7.3.7.3.4.6a1.9,1.9,0,0,1,.2.8,3.6,3.6,0,0,1-.2,1,1.3,1.3,0,0,1-.6.7,1.9,1.9,0,0,1-.9.5,2.2,2.2,0,0,1-1.2.2l-1.4-.2a3,3,0,0,1-1.1-.7l.3-.5v-.2h.5l.4.2.5.3h1.5l.4-.3a.5.5,0,0,0,.3-.4.9.9,0,0,0,.1-.5.7.7,0,0,0-.1-.5l-.5-.4-.6-.2-.7-.2-.8-.3-.6-.4-.5-.6a1.9,1.9,0,0,1-.1-.8,1.1,1.1,0,0,1,.2-.8,1.2,1.2,0,0,1,.5-.7l.8-.5a2.3,2.3,0,0,1,1.2-.2l1.3.2a4.1,4.1,0,0,1,1.1.7Z" style="fill: #fff"/>
          <path d="M366.6,249a.6.6,0,0,1,.1-.4l.2-.3c0-.1.1-.1.3-.2h.7l.3.2.2.3v.4c0,.1-.1.2-.1.4l-.2.3h-1.3l-.2-.3A.8.8,0,0,1,366.6,249Z" style="fill: #fff"/>
        </g>
      </g>
      <g class="hoverable" onclick="showTypeInstrument('inversion_forzosa', 3, 2); changeImage('financiacion/F_Inversion_Forzosa');">
        <path d="M257.2,210.1A153.8,153.8,0,0,0,205,159.3L276.1,38.7a293.7,293.7,0,0,1,99.7,97Z" style="fill: #c85696"/>
        <g>
          <path d="M257.3,122.3h-1.5V111.6h1.5Z" style="fill: #fff"/>
          <path d="M260.8,115.8l.6-.5.6-.4.6-.2h.8l1.1.2a2.1,2.1,0,0,1,.8.6,1.9,1.9,0,0,1,.4.9,2.5,2.5,0,0,1,.2,1.2v4.8h-1.3v-4.8a2.9,2.9,0,0,0-.4-1.4,1.6,1.6,0,0,0-1.2-.4,2,2,0,0,0-1.1.3,2.3,2.3,0,0,0-1,.7v5.6h-1.3v-7.6h.8a.3.3,0,0,1,.3.3Z" style="fill: #fff"/>
          <path d="M274.3,114.7l-3.1,7.6H270l-3.1-7.6h1.4c0,.1.1.1.1.2l1.9,4.9c.1.2.1.4.2.5s.1.4.1.6a1.3,1.3,0,0,0,.1-.6c.1-.1.1-.3.2-.5l2-4.9v-.2h1.3Z" style="fill: #fff"/>
          <path d="M281.5,121.3l-.6.5-.7.3-.9.3h-.8l-1.4-.2a3.6,3.6,0,0,1-1.2-.8,3.3,3.3,0,0,1-.7-1.3,4.7,4.7,0,0,1-.3-1.7,6.1,6.1,0,0,1,.2-1.5,3.5,3.5,0,0,1,.7-1.2,2.8,2.8,0,0,1,1.1-.8,4,4,0,0,1,1.5-.3l1.3.2,1,.7a3,3,0,0,1,.7,1.1,5.9,5.9,0,0,1,.2,1.4c0,.2,0,.3-.1.4h-5.3a5.1,5.1,0,0,0,.2,1.3,4.1,4.1,0,0,0,.5.9l.7.5,1,.2h.9l.6-.3.5-.2.3-.2.2.2Zm-1.1-3.6a2.8,2.8,0,0,0-.1-.9,2.1,2.1,0,0,0-.4-.6l-.6-.5h-.8a2.5,2.5,0,0,0-1.6.5,2.6,2.6,0,0,0-.6,1.6Z" style="fill: #fff"/>
          <path d="M284.5,116.2a2.7,2.7,0,0,1,.9-1.2,1.8,1.8,0,0,1,1.3-.4h.4l.4.2v1a.2.2,0,0,1-.2.2h-1.4l-.5.3-.4.5-.3.7v4.8h-1.4v-7.6h1.1a.4.4,0,0,1,.1.3Z" style="fill: #fff"/>
          <path d="M293.1,116h-.6l-.3-.2-.5-.2h-1.3a.5.5,0,0,0-.4.2c-.2.1-.3.2-.3.4s-.1.2-.1.4a.7.7,0,0,0,.1.5l.5.3.6.3.7.2.8.3.6.4a1,1,0,0,1,.4.5,1.1,1.1,0,0,1,.2.8,3.6,3.6,0,0,1-.2,1,1.8,1.8,0,0,1-.5.7l-.9.6h-1.3a3.2,3.2,0,0,1-1.4-.2,4.1,4.1,0,0,1-1.1-.7l.3-.5h.2c0-.1.1-.1.2-.1h.3l.3.2.5.3h1.5l.5-.3.3-.4a4.3,4.3,0,0,0,.1-.5.8.8,0,0,0-.2-.5.9.9,0,0,0-.5-.3l-.6-.3-.7-.2-.7-.3-.7-.4a.9.9,0,0,1-.4-.6,1.7,1.7,0,0,1,0-1.6,1.8,1.8,0,0,1,.5-.7,1.9,1.9,0,0,1,.9-.5l1.1-.2,1.3.2a4.1,4.1,0,0,1,1.1.7Z" style="fill: #fff"/>
          <path d="M296.8,112.3v.4l-.2.3-.4.2h-.7l-.3-.2-.2-.3c0-.1-.1-.2-.1-.4V112c.1-.2.1-.3.2-.3l.3-.2h.7l.4.2.2.3Zm-.2,2.4v7.6h-1.4v-7.6Z" style="fill: #fff"/>
          <path d="M302,114.6a4,4,0,0,1,1.5.3,2.8,2.8,0,0,1,1.1.8,3.5,3.5,0,0,1,.7,1.2,4.1,4.1,0,0,1,.3,1.6,3.8,3.8,0,0,1-.3,1.6,5.4,5.4,0,0,1-.7,1.3,2.6,2.6,0,0,1-1.1.7,4,4,0,0,1-1.5.3,4.1,4.1,0,0,1-1.6-.3,2.6,2.6,0,0,1-1.1-.7,3.3,3.3,0,0,1-.7-1.3,3.8,3.8,0,0,1-.3-1.6,4.1,4.1,0,0,1,.3-1.6,2.4,2.4,0,0,1,.7-1.2,2.8,2.8,0,0,1,1.1-.8A4.1,4.1,0,0,1,302,114.6Zm0,6.8a1.8,1.8,0,0,0,1.6-.8,4,4,0,0,0,0-4.2,1.8,1.8,0,0,0-1.6-.7h-1a2.2,2.2,0,0,0-.7.6,4.1,4.1,0,0,0-.5.9,4.9,4.9,0,0,0-.1,1.2,3.3,3.3,0,0,0,.6,2.1A1.9,1.9,0,0,0,302,121.4Zm2.1-9.9-1.7,1.9h-1.3l1.1-1.8.3-.3h1.6Z" style="fill: #fff"/>
          <path d="M308.5,115.8l.5-.5.6-.4.7-.2h.7l1.1.2a1.2,1.2,0,0,1,.8.6,1.9,1.9,0,0,1,.5.9,5,5,0,0,1,.2,1.2v4.8h-1.4v-4.8a2.1,2.1,0,0,0-.4-1.4,1.2,1.2,0,0,0-1.1-.4,2.7,2.7,0,0,0-1.2.3,2.8,2.8,0,0,0-.9.7v5.6h-1.3v-7.6h.8a.3.3,0,0,1,.3.3Z" style="fill: #fff"/>
          <path d="M252.1,140.3v-6.4h-.9l-.2-.2c-.1,0-.1-.1-.1-.2v-.5h1.2v-.8a2,2,0,0,1,.2-1.1,2.6,2.6,0,0,1,.5-.9l.8-.5,1.1-.2.9.2v.6c0,.2-.1.2-.2.2h-1.1l-.5.3a3.3,3.3,0,0,0-.3.6,1.7,1.7,0,0,0-.1.8v.7h2.2v.9h-2.2v6.5Z" style="fill: #fff"/>
          <path d="M259.8,132.6a3.3,3.3,0,0,1,1.5.3,2.3,2.3,0,0,1,1.1.8,2.5,2.5,0,0,1,.8,1.2,7.8,7.8,0,0,1,.2,1.6,7,7,0,0,1-.2,1.6,3.5,3.5,0,0,1-.8,1.3,2.1,2.1,0,0,1-1.1.7,3.9,3.9,0,0,1-3,0,2.1,2.1,0,0,1-1.1-.7,3.5,3.5,0,0,1-.8-1.3,7,7,0,0,1-.2-1.6,7.8,7.8,0,0,1,.2-1.6,2.5,2.5,0,0,1,.8-1.2,2.3,2.3,0,0,1,1.1-.8A3.3,3.3,0,0,1,259.8,132.6Zm0,6.8a2,2,0,0,0,1.7-.8,4.7,4.7,0,0,0,0-4.2,1.9,1.9,0,0,0-1.7-.7h-1l-.7.6a3.6,3.6,0,0,0-.4.9,5,5,0,0,0-.2,1.2,3.3,3.3,0,0,0,.6,2.1A2,2,0,0,0,259.8,139.4Z" style="fill: #fff"/>
          <path d="M266.4,134.2a2.7,2.7,0,0,1,.9-1.2,1.6,1.6,0,0,1,1.2-.4h.5l.4.2v1l-.2.2h-1.4l-.5.3-.4.5a2.1,2.1,0,0,0-.3.7v4.8h-1.4v-7.6h1.1v1.4Z" style="fill: #fff"/>
          <path d="M275.8,133.3v.3l-.2.2-4.1,5.5h4.2v1h-5.8v-.5c0-.1.1-.2.1-.3v-.2l4.2-5.5h-4.1v-1.1h5.6Z" style="fill: #fff"/>
          <path d="M280.4,132.6a3.3,3.3,0,0,1,1.5.3,2.3,2.3,0,0,1,1.1.8,2.5,2.5,0,0,1,.8,1.2,7.8,7.8,0,0,1,.2,1.6,7,7,0,0,1-.2,1.6,3.5,3.5,0,0,1-.8,1.3,2.1,2.1,0,0,1-1.1.7,3.9,3.9,0,0,1-3,0,2.1,2.1,0,0,1-1.1-.7,3.5,3.5,0,0,1-.8-1.3,7,7,0,0,1-.2-1.6,7.8,7.8,0,0,1,.2-1.6,2.5,2.5,0,0,1,.8-1.2,2.3,2.3,0,0,1,1.1-.8A3.3,3.3,0,0,1,280.4,132.6Zm0,6.8a2,2,0,0,0,1.7-.8,4.7,4.7,0,0,0,0-4.2,1.9,1.9,0,0,0-1.7-.7h-1l-.7.6a3.6,3.6,0,0,0-.4.9,4.9,4.9,0,0,0-.1,1.2,3.3,3.3,0,0,0,.5,2.1A2,2,0,0,0,280.4,139.4Z" style="fill: #fff"/>
          <path d="M290.1,134h-.5l-.3-.2-.5-.2h-1.3l-.5.2-.3.4c0,.1-.1.2-.1.4a.8.8,0,0,0,.2.5l.4.3.7.3.7.2.7.3a.9.9,0,0,1,.6.4,1.2,1.2,0,0,1,.5.5,1.9,1.9,0,0,1,.2.8,3.6,3.6,0,0,1-.2,1,1.3,1.3,0,0,1-.6.7,2,2,0,0,1-.9.6h-1.2a3.2,3.2,0,0,1-1.4-.2,3,3,0,0,1-1.1-.7l.3-.5h.6l.4.2.5.3h1.4l.5-.3c.2-.1.3-.2.3-.4a.7.7,0,0,0,.1-.5c0-.2,0-.4-.2-.5s-.2-.3-.4-.3l-.6-.3-.8-.2-.7-.3-.6-.4a1,1,0,0,1-.5-.6,3.2,3.2,0,0,1,0-1.6,2,2,0,0,1,.6-.7l.8-.5,1.2-.2,1.3.2,1,.7Z" style="fill: #fff"/>
          <path d="M292,133.8a4.2,4.2,0,0,1,1.4-.9,4.1,4.1,0,0,1,1.6-.3l1.1.2a1.6,1.6,0,0,1,.8.6,2,2,0,0,1,.6.9,4.1,4.1,0,0,1,.1,1.2v4.8h-.9c0-.1-.1-.2-.1-.3l-.2-.7-.6.5-.6.3-.6.3h-1.7l-.6-.4a1,1,0,0,1-.5-.6,2,2,0,0,1-.2-.9,1.1,1.1,0,0,1,.3-.8,1.5,1.5,0,0,1,.8-.8,4.6,4.6,0,0,1,1.4-.5,7.5,7.5,0,0,1,2.2-.2v-.6a2,2,0,0,0-.4-1.4,1.2,1.2,0,0,0-1.1-.4H294l-.6.3-.4.2-.4.2h-.2c0-.1-.1-.1-.1-.2Zm4.3,3.1h-1.5l-1.1.3c-.3.2-.5.3-.6.5a1.4,1.4,0,0,0-.2.6c0,.2.1.3.1.5l.3.3.4.2h1.1l.6-.2.5-.3.4-.4Z" style="fill: #fff"/>
          <path d="M309.8,129.3v11H309c-.2,0-.3-.1-.4-.3v-.9a5.2,5.2,0,0,1-1.1,1,3.2,3.2,0,0,1-1.4.3l-1.2-.2a1.8,1.8,0,0,1-.9-.8,2.3,2.3,0,0,1-.6-1.2,7.9,7.9,0,0,1-.2-1.7,7.7,7.7,0,0,1,.2-1.5,5.4,5.4,0,0,1,.7-1.3,2.7,2.7,0,0,1,1-.8,3.2,3.2,0,0,1,1.4-.3l1.2.2.9.7v-4.2Zm-1.3,5.2-.9-.7-.9-.2a2.1,2.1,0,0,0-1.7.8,4.1,4.1,0,0,0-.5,2.1,4.9,4.9,0,0,0,.1,1.3,1.9,1.9,0,0,0,.4.9,1,1,0,0,0,.6.5h.8a2,2,0,0,0,1.1-.3,2.5,2.5,0,0,0,1-.8Z" style="fill: #fff"/>
          <path d="M318.1,139.3l-.6.5-.8.3-.8.3h-.8l-1.5-.2-1.1-.8a5.7,5.7,0,0,1-.8-1.3,8.8,8.8,0,0,1-.2-1.7,3.4,3.4,0,0,1,.2-1.5,3.5,3.5,0,0,1,.7-1.2,2.8,2.8,0,0,1,1.1-.8,4,4,0,0,1,1.5-.3l1.3.2,1,.7a2,2,0,0,1,.6,1.1,3.2,3.2,0,0,1,.3,1.4c0,.2,0,.3-.1.4h-5.3a5.1,5.1,0,0,0,.2,1.3,4.1,4.1,0,0,0,.5.9,1.8,1.8,0,0,0,.7.5l1,.2h.9l.6-.3.4-.2.3-.2.3.2Zm-1.1-3.6c0-.3-.1-.6-.1-.9l-.4-.6-.6-.5H315a2.5,2.5,0,0,0-1.5.5,3.4,3.4,0,0,0-.7,1.6Z" style="fill: #fff"/>
          <path d="M321.2,129.3v11h-1.3v-11Z" style="fill: #fff"/>
          <path d="M280,157.3v1h-5.8v-1h2.3V150c0-.2.1-.5.1-.7l-1.9,1.6H274l-.4-.6,3.2-2.8h1.1v9.8Z" style="fill: #fff"/>
          <path d="M286.5,150.2a3.6,3.6,0,0,1-.2,1.1,2.2,2.2,0,0,1-.5.8,2.4,2.4,0,0,1-.8.6h-1.8a2.4,2.4,0,0,1-.8-.6,2.2,2.2,0,0,1-.5-.8,3.6,3.6,0,0,1-.2-1.1,4.3,4.3,0,0,1,.2-1.2,2.2,2.2,0,0,1,.5-.8,2.4,2.4,0,0,1,.8-.6H285a2.4,2.4,0,0,1,.8.6,2.2,2.2,0,0,1,.5.8A4.3,4.3,0,0,1,286.5,150.2Zm3.8-2.4c0-.1.1-.1.2-.2h1.2l-7.9,10.5c0,.1-.1.1-.1.2h-1.3Zm-4.9,2.4a2.5,2.5,0,0,0-.1-.9.8.8,0,0,0-.2-.5l-.5-.4h-1a.8.8,0,0,0-.4.4.5.5,0,0,0-.3.5,2.5,2.5,0,0,0-.1.9,1.9,1.9,0,0,0,.1.8.5.5,0,0,0,.3.5.8.8,0,0,0,.4.4h1l.5-.4a.8.8,0,0,0,.2-.5A1.9,1.9,0,0,0,285.4,150.2Zm7,5.6a2,2,0,0,1-.2,1.1,2.2,2.2,0,0,1-.5.8c-.2.3-.5.4-.7.6h-1.9a2,2,0,0,1-.7-.6,1.4,1.4,0,0,1-.5-.8,2,2,0,0,1-.2-1.1,2.5,2.5,0,0,1,.2-1.2,1.4,1.4,0,0,1,.5-.8,1.8,1.8,0,0,1,.7-.5,1.5,1.5,0,0,1,.9-.2,1.6,1.6,0,0,1,1,.2,1.8,1.8,0,0,1,.7.5,1.4,1.4,0,0,1,.5.8A2.5,2.5,0,0,1,292.4,155.8Zm-1,0a2.8,2.8,0,0,0-.1-.9l-.3-.5a.5.5,0,0,0-.4-.3h-1.1a.5.5,0,0,0-.4.3l-.3.5c0,.3-.1.6-.1.9s.1.6.1.8l.3.6.4.3h1.1l.4-.3.3-.6A1.9,1.9,0,0,0,291.4,155.8Z" style="fill: #fff"/>
          <path d="M293.9,157.5a.6.6,0,0,1,.1-.4l.2-.3.3-.2h.7l.3.2.2.3a.9.9,0,0,1,0,.8l-.2.3-.3.2h-.7l-.3-.2-.2-.3A.6.6,0,0,1,293.9,157.5Z" style="fill: #fff"/>
        </g>
      </g>
      <g class="hoverable" onclick="showTypeInstrument('desarrollo_territorial', 4, 1); changeImage('financiacion/F_Desarrollo');">
        <path d="M386.1,429.1,262.6,363.2a152.3,152.3,0,0,0,17.9-70.4l140,1.4A294.3,294.3,0,0,1,386.1,429.1Z" style="fill: #ca5c9d"/>
        <g>
          <path d="M320.7,334.9a6.9,6.9,0,0,1-.3,2.2,4.2,4.2,0,0,1-1.1,1.7,3.9,3.9,0,0,1-1.7,1.1,5.1,5.1,0,0,1-2.2.4h-4V329.6h4a5.1,5.1,0,0,1,2.2.4,3.9,3.9,0,0,1,1.7,1.1,4.2,4.2,0,0,1,1.1,1.7A6.6,6.6,0,0,1,320.7,334.9Zm-1.4,0a4.7,4.7,0,0,0-.3-1.7,2.9,2.9,0,0,0-.8-1.3,2.7,2.7,0,0,0-1.2-.9,3.8,3.8,0,0,0-1.6-.3h-2.5v8.4h2.5l1.6-.2a2.7,2.7,0,0,0,1.2-.9,2.9,2.9,0,0,0,.8-1.3A4.8,4.8,0,0,0,319.3,334.9Z" style="fill: #fff"/>
          <path d="M328.6,339.3l-.6.5-.7.3-.9.3h-.8l-1.4-.2a3.6,3.6,0,0,1-1.2-.8,3.3,3.3,0,0,1-.7-1.3,4.7,4.7,0,0,1-.3-1.7,6.1,6.1,0,0,1,.2-1.5,3.5,3.5,0,0,1,.7-1.2,2.8,2.8,0,0,1,1.1-.8,4,4,0,0,1,1.5-.3l1.3.2,1,.7a3,3,0,0,1,.7,1.1,5.9,5.9,0,0,1,.2,1.4c0,.2,0,.3-.1.4s-.1.1-.2.1h-5.1a5.1,5.1,0,0,0,.2,1.3,4.1,4.1,0,0,0,.5.9l.7.5,1,.2h.9l.6-.3.5-.2.3-.2a.2.2,0,0,1,.2.2Zm-1.1-3.6a2.8,2.8,0,0,0-.1-.9,2.1,2.1,0,0,0-.4-.6l-.6-.5h-.8a2.5,2.5,0,0,0-1.6.5,2.6,2.6,0,0,0-.6,1.6Z" style="fill: #fff"/>
          <path d="M334.8,334h-.6l-.3-.2-.5-.2h-1.3a.5.5,0,0,0-.4.2c-.2.1-.3.2-.3.4s-.1.2-.1.4a.7.7,0,0,0,.1.5l.5.3.6.3.7.2.7.3.7.4a1,1,0,0,1,.4.5,1.9,1.9,0,0,1,.2.8,3.6,3.6,0,0,1-.2,1,1.8,1.8,0,0,1-.5.7l-.9.6h-1.3a3.2,3.2,0,0,1-1.4-.2,4.1,4.1,0,0,1-1.1-.7l.3-.5a.1.1,0,0,1,.1-.1h.5l.4.2.5.3h1.5l.5-.3a.5.5,0,0,0,.2-.4,1.3,1.3,0,0,0,0-1,.9.9,0,0,0-.5-.3l-.6-.3-.7-.2-.8-.3-.6-.4a.9.9,0,0,1-.4-.6,1.7,1.7,0,0,1,0-1.6,1.8,1.8,0,0,1,.5-.7l.8-.5,1.2-.2,1.3.2a4.1,4.1,0,0,1,1.1.7Z" style="fill: #fff"/>
          <path d="M336.6,333.8a5.5,5.5,0,0,1,1.4-.9,4.1,4.1,0,0,1,1.6-.3l1.1.2a1.5,1.5,0,0,1,.9.6,1.9,1.9,0,0,1,.5.9,3.7,3.7,0,0,1,.2,1.2v4.8h-.9c-.1-.1-.2-.2-.2-.3v-.7l-.6.5-.6.3-.7.3h-1.6l-.7-.4a1,1,0,0,1-.5-.6,2.2,2.2,0,0,1-.1-.9,1.9,1.9,0,0,1,.2-.8,2,2,0,0,1,.8-.8,5.3,5.3,0,0,1,1.5-.5l2.2-.2v-.6a2.6,2.6,0,0,0-.4-1.4,1.5,1.5,0,0,0-1.1-.4h-.9l-.6.3-.4.2-.3.2H337a.3.3,0,0,1-.1-.2Zm4.4,3.1h-1.6l-1.1.3-.6.5a1.4,1.4,0,0,0-.2.6c0,.2.1.3.1.5l.3.3.4.2h1.1l.6-.2.5-.3.5-.4Z" style="fill: #fff"/>
          <path d="M345.6,334.2a3.6,3.6,0,0,1,.8-1.2,2,2,0,0,1,1.3-.4h.5l.4.2v1l-.2.2h-1.4l-.5.3-.4.5a2.5,2.5,0,0,0-.4.7v4.8h-1.3v-7.6h1.1a.4.4,0,0,0,.1.3Z" style="fill: #fff"/>
          <path d="M351,334.2l.9-1.2a2,2,0,0,1,1.3-.4h.4l.4.2v1a.2.2,0,0,1-.2.2h-1.4l-.5.3-.4.5-.3.7v4.8h-1.3v-7.6h.7c.2,0,.3,0,.3.1a.4.4,0,0,1,.1.3Z" style="fill: #fff"/>
          <path d="M358.1,332.6a3.3,3.3,0,0,1,1.5.3,2.3,2.3,0,0,1,1.1.8,2.5,2.5,0,0,1,.8,1.2,7.8,7.8,0,0,1,.2,1.6,7,7,0,0,1-.2,1.6,3.5,3.5,0,0,1-.8,1.3,3.1,3.1,0,0,1-1.1.8l-1.5.2-1.5-.2a3.1,3.1,0,0,1-1.1-.8,3.5,3.5,0,0,1-.8-1.3,7,7,0,0,1-.2-1.6,7.8,7.8,0,0,1,.2-1.6,2.5,2.5,0,0,1,.8-1.2,2.3,2.3,0,0,1,1.1-.8A3.3,3.3,0,0,1,358.1,332.6Zm0,6.8a2,2,0,0,0,1.7-.8,4.7,4.7,0,0,0,0-4.2,1.9,1.9,0,0,0-1.7-.7h-1l-.7.6a3.6,3.6,0,0,0-.4.9,4.9,4.9,0,0,0-.1,1.2,3.3,3.3,0,0,0,.5,2.1A2,2,0,0,0,358.1,339.4Z" style="fill: #fff"/>
          <path d="M364.8,329.3v11h-1.3v-11Z" style="fill: #fff"/>
          <path d="M368.3,329.3v11H367v-11Z" style="fill: #fff"/>
          <path d="M373.7,332.6a4,4,0,0,1,1.5.3,2.8,2.8,0,0,1,1.1.8,3.6,3.6,0,0,1,.8,1.2,7.8,7.8,0,0,1,.2,1.6,7,7,0,0,1-.2,1.6,5.7,5.7,0,0,1-.8,1.3l-1.1.8-1.5.2-1.5-.2a5,5,0,0,1-1.2-.8,5.4,5.4,0,0,1-.7-1.3,3.9,3.9,0,0,1-.2-1.6,4.1,4.1,0,0,1,.2-1.6,3.5,3.5,0,0,1,.7-1.2,3.2,3.2,0,0,1,1.2-.8A3.3,3.3,0,0,1,373.7,332.6Zm0,6.8a2.1,2.1,0,0,0,1.7-.8,4.7,4.7,0,0,0,0-4.2,2.1,2.1,0,0,0-1.7-.7h-1l-.7.6a3.6,3.6,0,0,0-.4.9,5,5,0,0,0-.2,1.2,3.3,3.3,0,0,0,.6,2.1A2,2,0,0,0,373.7,339.4Z" style="fill: #fff"/>
          <path d="M322.7,348.8h-3.5v9.5h-1.5v-9.5h-3.5v-1.2h8.5Z" style="fill: #fff"/>
          <path d="M328.3,357.3l-.6.5-.8.3-.8.3h-.8l-1.5-.2-1.1-.8a5.7,5.7,0,0,1-.8-1.3,8.8,8.8,0,0,1-.2-1.7,3.4,3.4,0,0,1,.2-1.5,3.5,3.5,0,0,1,.7-1.2,2.8,2.8,0,0,1,1.1-.8,4,4,0,0,1,1.5-.3l1.3.2,1,.7a2,2,0,0,1,.6,1.1,3.2,3.2,0,0,1,.3,1.4c0,.2,0,.3-.1.4s-.1.1-.2.1H323a5.1,5.1,0,0,0,.2,1.3,4.1,4.1,0,0,0,.5.9,1.8,1.8,0,0,0,.7.5l1,.2h.9l.6-.3.4-.2.3-.2.3.2Zm-1.1-3.6c0-.3-.1-.6-.1-.9l-.4-.6-.6-.5h-.9a2.5,2.5,0,0,0-1.5.5,2.6,2.6,0,0,0-.7,1.6Z" style="fill: #fff"/>
          <path d="M331.3,352.2a2.7,2.7,0,0,1,.9-1.2,1.7,1.7,0,0,1,1.3-.4h.4l.4.2v1a.2.2,0,0,1-.2.2h-1.4l-.5.3-.4.5-.3.7v4.8H330v-7.6h1.1c0,.1.1.2.1.3Z" style="fill: #fff"/>
          <path d="M336.7,352.2a6.2,6.2,0,0,1,.9-1.2,2,2,0,0,1,1.3-.4h.5l.4.2v1c-.1.1-.1.2-.3.2H338l-.5.3-.4.5-.3.7v4.8h-1.3v-7.6h.7c.2,0,.3,0,.3.1l.2.3Z" style="fill: #fff"/>
          <path d="M342.6,348.3v.4l-.3.3c0,.1-.1.2-.3.2h-.7l-.3-.2-.2-.3c0-.1-.1-.2-.1-.4s.1-.2.1-.3.1-.3.2-.3l.3-.2h.7c.2,0,.3.1.3.2l.3.3Zm-.3,2.4v7.6H341v-7.6Z" style="fill: #fff"/>
          <path d="M346.9,358.4a1.6,1.6,0,0,1-1.4-.5,2,2,0,0,1-.5-1.4v-4.7h-1.1a.4.4,0,0,1-.1-.3V351H345l.4-2.4c0-.1,0-.1.1-.2h.8v2.6h2.2v.9h-2.2v4.6a.8.8,0,0,0,.3.7c.1.2.3.2.6.2h.6l.2-.2h.1c.1,0,.2,0,.2.1l.4.6a2.4,2.4,0,0,1-.8.6Z" style="fill: #fff"/>
          <path d="M353.1,350.6a4,4,0,0,1,1.5.3,2.8,2.8,0,0,1,1.1.8,2.4,2.4,0,0,1,.7,1.2,4.1,4.1,0,0,1,.3,1.6,3.8,3.8,0,0,1-.3,1.6,3.3,3.3,0,0,1-.7,1.3l-1.1.8-1.5.2-1.5-.2a3.6,3.6,0,0,1-1.2-.8,5.4,5.4,0,0,1-.7-1.3,3.8,3.8,0,0,1-.3-1.6,4.1,4.1,0,0,1,.3-1.6,3.5,3.5,0,0,1,.7-1.2,2.5,2.5,0,0,1,1.2-.8A3.3,3.3,0,0,1,353.1,350.6Zm0,6.8a2.1,2.1,0,0,0,1.7-.8,4.7,4.7,0,0,0,0-4.2,2.1,2.1,0,0,0-1.7-.7h-1l-.7.6a3.6,3.6,0,0,0-.4.9,5,5,0,0,0-.2,1.2,3.3,3.3,0,0,0,.6,2.1A2,2,0,0,0,353.1,357.4Z" style="fill: #fff"/>
          <path d="M359.6,352.2a6.2,6.2,0,0,1,.9-1.2,2,2,0,0,1,1.3-.4h.5l.4.2v1c-.1.1-.1.2-.3.2h-1.4l-.5.3-.4.5-.3.7v4.8h-1.3v-7.6h.7c.2,0,.3,0,.3.1l.2.3Z" style="fill: #fff"/>
          <path d="M365.5,348.3v.4l-.3.3c0,.1-.1.2-.3.2h-.7l-.3-.2-.2-.3c0-.1-.1-.2-.1-.4s.1-.2.1-.3.1-.3.2-.3l.3-.2h.7c.2,0,.3.1.3.2s.2.1.3.3Zm-.2,2.4v7.6h-1.4v-7.6Z" style="fill: #fff"/>
          <path d="M367.2,351.8a5.5,5.5,0,0,1,1.4-.9,4.1,4.1,0,0,1,1.6-.3l1.1.2a1.5,1.5,0,0,1,.9.6,1.9,1.9,0,0,1,.5.9,3.7,3.7,0,0,1,.2,1.2v4.8H372c-.1-.1-.2-.2-.2-.3v-.7l-.6.5-.6.3-.7.3h-1.6l-.7-.4c-.2-.1-.3-.3-.5-.6a2.2,2.2,0,0,1-.1-.9,1.9,1.9,0,0,1,.2-.8,2,2,0,0,1,.8-.8,5.3,5.3,0,0,1,1.5-.5l2.2-.2v-.6a2.6,2.6,0,0,0-.4-1.4,1.5,1.5,0,0,0-1.1-.4h-.9l-.5.3-.5.2-.3.2h-.3a.3.3,0,0,1-.1-.2Zm4.4,3.1H370l-1.1.3-.6.5a1.3,1.3,0,0,0-.1.6v.5l.3.3.4.2h1.2l.5-.2.5-.3.5-.4Z" style="fill: #fff"/>
          <path d="M376.3,347.3v11h-1.4v-11Z" style="fill: #fff"/>
        </g>
      </g>
      <g class="hoverable" onclick="showTypeInstrument('encargos_fiduciarios', 4, 1); changeImage('financiacion/F_Encargos_Fiduciarios');">
        <path d="M282.4,540,208.3,421.2a155.3,155.3,0,0,0,50.9-52l120.4,71.4A295.2,295.2,0,0,1,282.4,540Z" style="fill: #ca5c9d"/>
        <g>
          <path d="M264.3,436.1v1.2h-6.6V426.6h6.6v1.2h-5.2v3.5h4.2v1.2h-4.2v3.6Z" style="fill: #fff"/>
          <path d="M267.1,430.8c.1-.2.3-.3.5-.5l.6-.4.6-.2h.8l1.1.2a1.6,1.6,0,0,1,.8.6,1.9,1.9,0,0,1,.5.9,4.9,4.9,0,0,1,.1,1.2v4.8h-1.3v-4.8a2.1,2.1,0,0,0-.4-1.4,1.6,1.6,0,0,0-1.2-.4,2,2,0,0,0-1.1.3,3,3,0,0,0-1,.7v5.6h-1.3v-7.6h.8c.2,0,.3.1.4.3Z" style="fill: #fff"/>
          <path d="M279.5,431.1h-.6l-.3-.3-.5-.2h-.7l-1,.2-.7.6a3.6,3.6,0,0,0-.4.9,5,5,0,0,0-.2,1.2,3.7,3.7,0,0,0,.2,1.2,1.9,1.9,0,0,0,.4.9,1.3,1.3,0,0,0,.7.6l.9.2h.8l.6-.3.3-.2.3-.2a.2.2,0,0,1,.2.2l.4.5-.6.5-.6.3-.8.3h-.8l-1.3-.2-1.1-.8a3.5,3.5,0,0,1-.7-1.2,4.7,4.7,0,0,1-.3-1.7,4.5,4.5,0,0,1,.3-1.6,3.7,3.7,0,0,1,.7-1.2l1.1-.8a3.3,3.3,0,0,1,1.5-.3,2.9,2.9,0,0,1,1.4.3,2.6,2.6,0,0,1,1.1.7Z" style="fill: #fff"/>
          <path d="M281.1,430.8a5.5,5.5,0,0,1,1.4-.9,4.1,4.1,0,0,1,1.6-.3l1.1.2a1.5,1.5,0,0,1,.9.6,1.9,1.9,0,0,1,.5.9,3.7,3.7,0,0,1,.2,1.2v4.8h-.9c-.1-.1-.2-.2-.2-.3v-.7l-.6.5-.6.3-.7.3h-1.6l-.7-.4a1,1,0,0,1-.5-.6,2.2,2.2,0,0,1-.1-.9,1.9,1.9,0,0,1,.2-.8,2,2,0,0,1,.8-.8,5.3,5.3,0,0,1,1.5-.5l2.2-.2v-.6a2.6,2.6,0,0,0-.4-1.4,1.5,1.5,0,0,0-1.1-.4h-.9l-.6.3-.4.2-.3.2h-.3a.3.3,0,0,1-.1-.2Zm4.4,3.1h-1.6l-1.1.3-.6.5a1.3,1.3,0,0,0-.1.6v.5l.3.3.4.2h1.1l.6-.2.5-.3.5-.4Z" style="fill: #fff"/>
          <path d="M290.1,431.2a3.6,3.6,0,0,1,.8-1.2,2,2,0,0,1,1.3-.4h.5l.4.2v1l-.2.2h-1.4l-.5.3-.4.5a2.5,2.5,0,0,0-.4.7v4.8h-1.3v-7.6h1.1c0,.1.1.2.1.3Z" style="fill: #fff"/>
          <path d="M300.5,430v.5a.3.3,0,0,1-.3.3h-.9a2.3,2.3,0,0,1,.3,1.1,3,3,0,0,1-.2,1,2.8,2.8,0,0,1-.6.8l-.9.5-1.2.2h-1l-.3.3c-.1.1-.2.2-.2.3a.5.5,0,0,0,.2.4l.6.2h2.7l.9.2c.2.2.4.3.5.6a1.1,1.1,0,0,1,.3.8,1.9,1.9,0,0,1-.3,1c-.1.3-.4.5-.7.8l-1.1.5a3.3,3.3,0,0,1-1.5.3l-1.5-.2a3.1,3.1,0,0,1-1-.5.9.9,0,0,1-.6-.6,1.9,1.9,0,0,1-.2-.8,1.6,1.6,0,0,1,.3-.9,2.1,2.1,0,0,1,1-.6l-.5-.4a.8.8,0,0,1-.2-.7v-.3c.1-.2.1-.3.2-.4l.3-.3.4-.3a3,3,0,0,1-.8-.8,2.8,2.8,0,0,1-.4-1.3,1.9,1.9,0,0,1,.3-1,2.8,2.8,0,0,1,1.5-1.2l1.1-.2h1l.7.3Zm-1.4,7.7c0-.2,0-.3-.1-.4l-.4-.3h-3a1.8,1.8,0,0,0-.7.5.8.8,0,0,0-.2.7,1.1,1.1,0,0,0,.1.5l.4.3.7.3h1.9l.7-.3.5-.4A1.3,1.3,0,0,0,299.1,437.7Zm-2.4-4.1h.7l.6-.3.3-.5c0-.2.1-.4.1-.6a1.6,1.6,0,0,0-.4-1.1,1.7,1.7,0,0,0-1.3-.4,1.6,1.6,0,0,0-1.2.4,1.2,1.2,0,0,0-.4,1.1,1.3,1.3,0,0,0,.1.6l.3.5.5.3Z" style="fill: #fff"/>
          <path d="M305,429.6a4,4,0,0,1,1.5.3,2.8,2.8,0,0,1,1.1.8,2.4,2.4,0,0,1,.7,1.2,4.1,4.1,0,0,1,.3,1.6,3.8,3.8,0,0,1-.3,1.6,3.3,3.3,0,0,1-.7,1.3l-1.1.8-1.5.2-1.5-.2a3.6,3.6,0,0,1-1.2-.8,5.4,5.4,0,0,1-.7-1.3,3.8,3.8,0,0,1-.3-1.6,4.1,4.1,0,0,1,.3-1.6,3.5,3.5,0,0,1,.7-1.2,2.5,2.5,0,0,1,1.2-.8A3.3,3.3,0,0,1,305,429.6Zm0,6.8a1.8,1.8,0,0,0,1.6-.8,4,4,0,0,0,0-4.2,1.8,1.8,0,0,0-1.6-.7h-1l-.7.6a4.1,4.1,0,0,0-.5.9c0,.4-.1.8-.1,1.2a3.3,3.3,0,0,0,.6,2.1A1.9,1.9,0,0,0,305,436.4Z" style="fill: #fff"/>
          <path d="M314.7,431h-.5l-.4-.2-.5-.2H312l-.4.2c-.2.1-.2.2-.3.4s-.1.2-.1.4,0,.4.2.5l.4.3.6.3.7.2.8.3.6.4a1,1,0,0,1,.4.5,1.1,1.1,0,0,1,.2.8,2.2,2.2,0,0,1-.7,1.7,4.7,4.7,0,0,1-.9.6h-1.3a3.2,3.2,0,0,1-1.4-.2,4.1,4.1,0,0,1-1.1-.7l.3-.5h.7l.3.2.5.3H313l.5-.3.3-.4a4.3,4.3,0,0,0,.1-.5.8.8,0,0,0-.2-.5l-.4-.3-.7-.3-.7-.2-.7-.3-.7-.4a.9.9,0,0,1-.4-.6,1.7,1.7,0,0,1,0-1.6,1.8,1.8,0,0,1,.5-.7,1.9,1.9,0,0,1,.9-.5l1.1-.2,1.4.2,1,.7Z" style="fill: #fff"/>
          <path d="M253.8,455.3v-6.4h-.9l-.2-.2c-.1,0-.1-.1-.1-.2v-.5h1.2v-.4a2.7,2.7,0,0,1,.2-1.3,2.1,2.1,0,0,1,.6-1,4.1,4.1,0,0,1,1.1-.7l1.5-.2h1.1v.7h-.1a.1.1,0,0,1-.1.1h-.5a3.1,3.1,0,0,0-1.9.5,2.2,2.2,0,0,0-.6,1.7v.4h4.5v7.4h-1.3v-6.5h-3.2v6.5Z" style="fill: #fff"/>
          <path d="M268.1,444.3v11h-.8a.3.3,0,0,1-.3-.3l-.2-.9a5.2,5.2,0,0,1-1.1,1,3.2,3.2,0,0,1-1.4.3l-1.2-.2a2.3,2.3,0,0,1-.9-.8,3.4,3.4,0,0,1-.6-1.2,7.9,7.9,0,0,1-.2-1.7,7.7,7.7,0,0,1,.2-1.5,5.4,5.4,0,0,1,.7-1.3,3.9,3.9,0,0,1,1-.8,3.2,3.2,0,0,1,1.4-.3l1.2.2.9.7v-4.2Zm-1.3,5.2-.8-.7-1-.2a1.8,1.8,0,0,0-1.6.8,3.3,3.3,0,0,0-.6,2.1,4.9,4.9,0,0,0,.1,1.3,1.9,1.9,0,0,0,.4.9l.6.5h.8a2.1,2.1,0,0,0,1.2-.3,3.2,3.2,0,0,0,.9-.8Z" style="fill: #fff"/>
          <path d="M276.5,447.7v7.6h-.8c-.2,0-.3-.1-.4-.3v-.8a3.1,3.1,0,0,1-1.1.9,3.2,3.2,0,0,1-1.4.3,2,2,0,0,1-1.1-.2l-.8-.5a3.1,3.1,0,0,1-.5-1,3.7,3.7,0,0,1-.1-1.1v-4.9h1.3v4.9a1.8,1.8,0,0,0,.4,1.3,1.4,1.4,0,0,0,1.2.5,2,2,0,0,0,1.1-.3,3.4,3.4,0,0,0,.9-.8v-5.6Z" style="fill: #fff"/>
          <path d="M283.9,449.1h-.6l-.3-.3-.5-.2h-.7l-1,.2-.7.6a3.6,3.6,0,0,0-.4.9,5,5,0,0,0-.2,1.2,3.7,3.7,0,0,0,.2,1.2,2.2,2.2,0,0,0,1.1,1.5l1,.2h.8l.5-.3.3-.2.3-.2a.2.2,0,0,1,.2.2l.4.5-.5.5-.7.3-.8.3h-.8l-1.3-.2-1.1-.8a3.5,3.5,0,0,1-.7-1.2,8.8,8.8,0,0,1-.2-1.7,4.4,4.4,0,0,1,.2-1.6,7.5,7.5,0,0,1,.7-1.2l1.1-.8a4,4,0,0,1,1.5-.3,2.9,2.9,0,0,1,1.4.3,2.1,2.1,0,0,1,1.1.7Z" style="fill: #fff"/>
          <path d="M287.5,445.3c0,.2-.1.3-.1.4s-.2.2-.2.3l-.3.2h-.8l-.3-.2-.2-.3c0-.1-.1-.2-.1-.4s.1-.2.1-.3.1-.3.2-.3l.3-.2h.8l.3.2.2.3C287.4,445.1,287.5,445.2,287.5,445.3Zm-.3,2.4v7.6h-1.4v-7.6Z" style="fill: #fff"/>
          <path d="M289.2,448.8a3.8,3.8,0,0,1,1.3-.9,4.1,4.1,0,0,1,1.6-.3l1.2.2a1.6,1.6,0,0,1,.8.6,1.9,1.9,0,0,1,.5.9,3.7,3.7,0,0,1,.2,1.2v4.8h-.9l-.2-.3v-.7l-.6.5-.6.3-.7.3h-1.6l-.7-.4a.9.9,0,0,1-.4-.6c-.2-.2-.2-.5-.2-.9a1.9,1.9,0,0,1,.2-.8,3,3,0,0,1,.8-.8,5.3,5.3,0,0,1,1.5-.5l2.2-.2v-.6a2.6,2.6,0,0,0-.4-1.4,1.4,1.4,0,0,0-1.1-.4h-.9l-.5.3-.5.2-.3.2h-.2a.2.2,0,0,1-.2-.2Zm4.3,3.1h-1.6l-1.1.3c-.2.2-.4.3-.5.5a.7.7,0,0,0-.2.6.9.9,0,0,0,.1.5c0,.1.1.2.2.3l.4.2H292l.5-.2.5-.3.5-.4Z" style="fill: #fff"/>
          <path d="M298.1,449.2a2.7,2.7,0,0,1,.9-1.2,1.6,1.6,0,0,1,1.2-.4h.5l.4.2v1l-.2.2h-1.4l-.5.3-.4.5a2.1,2.1,0,0,0-.3.7v4.8h-1.4v-7.6h1.1c0,.1.1.2.1.3Z" style="fill: #fff"/>
          <path d="M304,445.3c0,.2-.1.3-.1.4l-.2.3-.3.2h-.8l-.3-.2c0-.1-.1-.2-.2-.3V445l.2-.3.3-.2h.8l.3.2c.1,0,.1.1.2.3S304,445.2,304,445.3Zm-.3,2.4v7.6h-1.4v-7.6Z" style="fill: #fff"/>
          <path d="M309.1,447.6a4,4,0,0,1,1.5.3,2.8,2.8,0,0,1,1.1.8,2.4,2.4,0,0,1,.7,1.2,4.1,4.1,0,0,1,.3,1.6,3.8,3.8,0,0,1-.3,1.6,3.3,3.3,0,0,1-.7,1.3l-1.1.8-1.5.2-1.5-.2a3.6,3.6,0,0,1-1.2-.8,5.4,5.4,0,0,1-.7-1.3,3.8,3.8,0,0,1-.3-1.6,4.1,4.1,0,0,1,.3-1.6,3.5,3.5,0,0,1,.7-1.2,2.5,2.5,0,0,1,1.2-.8A3.3,3.3,0,0,1,309.1,447.6Zm0,6.8a2.1,2.1,0,0,0,1.7-.8,4.7,4.7,0,0,0,0-4.2,2.1,2.1,0,0,0-1.7-.7h-1l-.7.6a1.8,1.8,0,0,0-.4.9,5,5,0,0,0-.2,1.2,3.3,3.3,0,0,0,.6,2.1A1.9,1.9,0,0,0,309.1,454.4Z" style="fill: #fff"/>
          <path d="M318.8,449h-.5a.5.5,0,0,0-.4-.2l-.5-.2h-1.3l-.4.2-.3.4c-.1.1-.1.2-.1.4s0,.4.2.5l.4.3.6.3.8.2.7.3.6.4.5.5a1.9,1.9,0,0,1,.1.8,2.2,2.2,0,0,1-.7,1.7l-.9.6h-1.2a3.4,3.4,0,0,1-1.5-.2,4.1,4.1,0,0,1-1.1-.7l.3-.5h.7l.3.2.6.3h1.4l.5-.3.3-.4a4.3,4.3,0,0,0,.1-.5.8.8,0,0,0-.2-.5l-.4-.3-.7-.3-.7-.2-.7-.3-.7-.4a1.5,1.5,0,0,1-.4-.6,1.7,1.7,0,0,1,0-1.6,1.8,1.8,0,0,1,.5-.7,2.6,2.6,0,0,1,.9-.5l1.1-.2,1.4.2,1,.7Z" style="fill: #fff"/>
        </g>
      </g>
      <g class="hoverable" onclick="showTypeInstrument('formulacion_de_proyectos', 4, 1); changeImage('financiacion/F_Formulacion_de_Proyectos');">
        <path d="M199,155c-24.7-12.6-45.5-18.7-79.4-17.9V0c53.4,0,96.3,11.2,145,31.8Z" style="fill: #c85696"/>
        <g>
          <path d="M130.2,64.4v3.8h4.4v1.2h-4.4V74h-1.5V63.2h6.7v1.2Z" style="fill: #fff"/>
          <path d="M139.4,66.3l1.5.2a3.6,3.6,0,0,1,1.2.8,5.4,5.4,0,0,1,.7,1.3,3.8,3.8,0,0,1,.3,1.6,4.1,4.1,0,0,1-.3,1.6,3.5,3.5,0,0,1-.7,1.2,2.5,2.5,0,0,1-1.2.8,3.3,3.3,0,0,1-1.5.3,4,4,0,0,1-1.5-.3,2.8,2.8,0,0,1-1.1-.8,2.4,2.4,0,0,1-.7-1.2,4.1,4.1,0,0,1-.3-1.6,3.8,3.8,0,0,1,.3-1.6,3.3,3.3,0,0,1,.7-1.3l1.1-.8Zm0,6.7a1.8,1.8,0,0,0,1.7-.7,4,4,0,0,0,0-4.2,1.9,1.9,0,0,0-1.7-.8l-.9.2a1.6,1.6,0,0,0-.8.6,3.9,3.9,0,0,0-.4.9,4.1,4.1,0,0,0-.1,1.2,4.1,4.1,0,0,0,.5,2.1A2.1,2.1,0,0,0,139.4,73Z" style="fill: #fff"/>
          <path d="M146,67.9a6.2,6.2,0,0,1,.9-1.2,2,2,0,0,1,1.3-.4h.4a.5.5,0,0,1,.4.2v1a.2.2,0,0,1-.2.2h-1.4c-.2,0-.3.1-.5.3l-.4.5-.3.7V74h-1.4V66.4h1.1c.1,0,.1.1.1.3Z" style="fill: #fff"/>
          <path d="M150.2,74V66.4h.8c.2,0,.3.1.4.3v.7a3.4,3.4,0,0,1,.9-.8,2.7,2.7,0,0,1,1.2-.3,2,2,0,0,1,1.3.4,2.3,2.3,0,0,1,.6,1.2,5.6,5.6,0,0,1,.5-.8c.1-.2.3-.3.6-.5l.6-.2h.8a1.6,1.6,0,0,1,1,.2,1.6,1.6,0,0,1,.8.5,2,2,0,0,1,.5.9,2.5,2.5,0,0,1,.2,1.2V74h-1.3V69.1a2.5,2.5,0,0,0-.4-1.3,1.6,1.6,0,0,0-1.1-.5H157l-.5.4a.9.9,0,0,0-.3.6,1.4,1.4,0,0,0-.2.7V74h-1.3V69.1a1.7,1.7,0,0,0-.4-1.3,1.3,1.3,0,0,0-1.1-.5l-.9.3a2.3,2.3,0,0,0-.7.7V74Z" style="fill: #fff"/>
          <path d="M168.8,66.4V74H168c-.2,0-.3-.1-.4-.3v-.8a4.8,4.8,0,0,1-1.1.9,3.2,3.2,0,0,1-1.4.3l-1.1-.2a1.6,1.6,0,0,1-.8-.6,1.9,1.9,0,0,1-.5-.9,4.1,4.1,0,0,1-.1-1.2V66.4h1.3v4.8a2,2,0,0,0,.4,1.4,1.6,1.6,0,0,0,1.2.4l1.1-.2a3.9,3.9,0,0,0,1-.8V66.4Z" style="fill: #fff"/>
          <path d="M172.3,62.9V74H171V62.9Z" style="fill: #fff"/>
          <path d="M174.3,67.5a3.8,3.8,0,0,1,1.3-.9,4.1,4.1,0,0,1,1.6-.3,2.5,2.5,0,0,1,1.2.2l.8.5a3.1,3.1,0,0,1,.5,1,3.6,3.6,0,0,1,.2,1.1V74H179l-.2-.2V73l-.6.4-.6.4-.7.2h-1.6l-.7-.4L174,73a2.8,2.8,0,0,1-.1-.9,2.9,2.9,0,0,1,.2-.9,2.7,2.7,0,0,1,.8-.7,5.3,5.3,0,0,1,1.5-.5,6.9,6.9,0,0,1,2.2-.3v-.6a2.2,2.2,0,0,0-.4-1.3,1.4,1.4,0,0,0-1.1-.5l-.9.2-.5.2-.5.3h-.5l-.2-.2Zm4.3,3.1H177l-1.1.3-.6.5a1.3,1.3,0,0,0,0,1,.5.5,0,0,0,.2.4l.4.2h1.2l.5-.2.5-.3.5-.5Z" style="fill: #fff"/>
          <path d="M187.2,67.7c0,.1-.1.1-.1.2h-.2c-.1,0-.2,0-.2-.1l-.4-.2-.5-.2h-.7l-1,.2A2.2,2.2,0,0,0,183,69a3.7,3.7,0,0,0-.2,1.2,4.3,4.3,0,0,0,.2,1.2,3.9,3.9,0,0,0,.4.9c.2.3.5.4.7.6l1,.2.8-.2.5-.2.3-.3h.6l.3.5a1.2,1.2,0,0,1-.5.5l-.7.4-.8.2h-.8a2.8,2.8,0,0,1-1.3-.3,2.6,2.6,0,0,1-1.1-.7,5.4,5.4,0,0,1-.7-1.3,7,7,0,0,1-.2-1.6,7.8,7.8,0,0,1,.2-1.6,3.5,3.5,0,0,1,.7-1.2,2.8,2.8,0,0,1,1.1-.8l1.5-.3,1.5.2a2.5,2.5,0,0,1,1,.8Z" style="fill: #fff"/>
          <path d="M190.8,64c0,.1-.1.3-.1.4l-.2.3-.3.2h-.8l-.3-.2-.2-.3v-.8l.2-.3.3-.2h.8l.3.2.2.3C190.7,63.7,190.8,63.9,190.8,64Zm-.3,2.4V74h-1.4V66.4Z" style="fill: #fff"/>
          <path d="M195.9,66.3l1.5.2,1.1.8a3.3,3.3,0,0,1,.7,1.3,3.8,3.8,0,0,1,.3,1.6,4.1,4.1,0,0,1-.3,1.6,2.4,2.4,0,0,1-.7,1.2,2.8,2.8,0,0,1-1.1.8,4,4,0,0,1-1.5.3,3.3,3.3,0,0,1-1.5-.3,2.5,2.5,0,0,1-1.2-.8,3.5,3.5,0,0,1-.7-1.2,4.1,4.1,0,0,1-.3-1.6,3.8,3.8,0,0,1,.3-1.6,5.4,5.4,0,0,1,.7-1.3,3.6,3.6,0,0,1,1.2-.8Zm0,6.7a1.8,1.8,0,0,0,1.6-.7,4,4,0,0,0,0-4.2,1.8,1.8,0,0,0-1.6-.8l-1,.2a1.3,1.3,0,0,0-.7.6,1.9,1.9,0,0,0-.5.9c0,.3-.1.7-.1,1.2a3.3,3.3,0,0,0,.6,2.1A1.8,1.8,0,0,0,195.9,73Zm2.2-9.9-1.8,2h-1.2l1.1-1.9a.2.2,0,0,1,.2-.2h1.7Z" style="fill: #fff"/>
          <path d="M202.4,67.5l.6-.5a1,1,0,0,1,.5-.4l.7-.2h.8a2.2,2.2,0,0,1,1.1.2,2.1,2.1,0,0,1,.8.6,1.9,1.9,0,0,1,.4.9,3.6,3.6,0,0,1,.2,1.1V74h-1.3V69.1a2.5,2.5,0,0,0-.4-1.3,1.7,1.7,0,0,0-1.2-.5,2,2,0,0,0-1.1.3,3.9,3.9,0,0,0-1,.8V74h-1.3V66.4h.8a.3.3,0,0,1,.3.3Z" style="fill: #fff"/>
          <path d="M219.7,62.9V74h-.8c-.2,0-.3-.1-.4-.3v-.9a3.1,3.1,0,0,1-1.1.9,2.4,2.4,0,0,1-1.5.4,2,2,0,0,1-1.1-.3,2.3,2.3,0,0,1-1-.7,3.3,3.3,0,0,1-.5-1.2,4.7,4.7,0,0,1-.2-1.7,4.4,4.4,0,0,1,.2-1.6,4.5,4.5,0,0,1,.6-1.2,2.8,2.8,0,0,1,1.1-.8,2.8,2.8,0,0,1,1.3-.3,2.2,2.2,0,0,1,1.2.2,2,2,0,0,1,.9.6V62.9Zm-1.4,5.3a1.8,1.8,0,0,0-.8-.7l-1-.2a1.7,1.7,0,0,0-1.6.8,3.3,3.3,0,0,0-.6,2.1,5.1,5.1,0,0,0,.2,1.3,3.6,3.6,0,0,0,.4.9c.1.2.3.3.6.5h.8a2,2,0,0,0,1.1-.3,2.4,2.4,0,0,0,.9-.8Z" style="fill: #fff"/>
          <path d="M227.9,72.9l-.5.5-.8.4-.8.2H225a3.7,3.7,0,0,1-1.5-.3,2.8,2.8,0,0,1-1.1-.8,2.5,2.5,0,0,1-.8-1.2,4.8,4.8,0,0,1-.3-1.8,4,4,0,0,1,.3-1.5,4.1,4.1,0,0,1,.7-1.1,2.1,2.1,0,0,1,1.1-.8,3.3,3.3,0,0,1,1.5-.3,3,3,0,0,1,1.3.2,3,3,0,0,1,1,.7,2.4,2.4,0,0,1,.6,1,3.3,3.3,0,0,1,.3,1.5c0,.2-.1.3-.1.4s-.1.1-.3.1h-5a2.2,2.2,0,0,0,.2,1.2,1.3,1.3,0,0,0,.5.9,2,2,0,0,0,.7.6h1.8l.7-.2.4-.3h.6Zm-1-3.5a2.4,2.4,0,0,0-.2-.9l-.3-.7-.7-.4h-.8a2,2,0,0,0-1.5.5,2.6,2.6,0,0,0-.7,1.6Z" style="fill: #fff"/>
          <path d="M149.9,81.2a4.8,4.8,0,0,1,1.8.3,5.2,5.2,0,0,1,1.3.6,4.1,4.1,0,0,1,.7,1.1,3.2,3.2,0,0,1,.2,1.4,5.1,5.1,0,0,1-.2,1.3,3.1,3.1,0,0,1-.8,1.1,4.7,4.7,0,0,1-1.2.7,4.8,4.8,0,0,1-1.8.3h-1.7v4h-1.4V81.2Zm0,5.6a2,2,0,0,0,1.1-.2l.8-.4a1.2,1.2,0,0,0,.5-.7,2.9,2.9,0,0,0,.2-.9,2,2,0,0,0-.6-1.6,3,3,0,0,0-2-.6h-1.7v4.4Z" style="fill: #fff"/>
          <path d="M156.6,85.9a2.7,2.7,0,0,1,.9-1.2,1.6,1.6,0,0,1,1.2-.4h.5a.5.5,0,0,1,.4.2v1a.2.2,0,0,1-.2.2h-1.4a.5.5,0,0,0-.5.3,1,1,0,0,0-.4.5,1.5,1.5,0,0,0-.3.7V92h-1.4V84.4h1.1a.4.4,0,0,1,.1.3Z" style="fill: #fff"/>
          <path d="M163.7,84.3l1.5.2,1.1.8a3.3,3.3,0,0,1,.7,1.3,3.8,3.8,0,0,1,.3,1.6,4.1,4.1,0,0,1-.3,1.6,2.4,2.4,0,0,1-.7,1.2,2.8,2.8,0,0,1-1.1.8,4,4,0,0,1-1.5.3,3.3,3.3,0,0,1-1.5-.3A2.5,2.5,0,0,1,161,91a3.5,3.5,0,0,1-.7-1.2,4.1,4.1,0,0,1-.3-1.6,3.8,3.8,0,0,1,.3-1.6,5.4,5.4,0,0,1,.7-1.3,3.6,3.6,0,0,1,1.2-.8Zm0,6.7a1.8,1.8,0,0,0,1.6-.7,4,4,0,0,0,0-4.2,1.8,1.8,0,0,0-1.6-.8l-1,.2a1.3,1.3,0,0,0-.7.6,1.9,1.9,0,0,0-.5.9c0,.3-.1.7-.1,1.2a3.3,3.3,0,0,0,.6,2.1A1.8,1.8,0,0,0,163.7,91Z" style="fill: #fff"/>
          <path d="M175.3,84.4,171,94.2v.3h-1.3l1.4-3.1-3.2-7.1h1.5a.3.3,0,0,1,.1.2l2,4.8a1.4,1.4,0,0,1,.2.6l.3-.7,1.9-4.7.2-.2h1.3Z" style="fill: #fff"/>
          <path d="M182.4,90.9c-.2.2-.3.4-.6.5l-.7.4-.8.2h-.9a3.8,3.8,0,0,1-2.6-1.1,3.5,3.5,0,0,1-.7-1.2,4.8,4.8,0,0,1-.3-1.8,4,4,0,0,1,.3-1.5,2.6,2.6,0,0,1,.7-1.1,1.8,1.8,0,0,1,1.1-.8,3.3,3.3,0,0,1,1.5-.3,2.5,2.5,0,0,1,1.2.2,2.3,2.3,0,0,1,1,.7,2.6,2.6,0,0,1,.7,1,3.4,3.4,0,0,1,.2,1.5v.4h-5.4a3.7,3.7,0,0,0,.2,1.2,3.6,3.6,0,0,0,.5.9,2.4,2.4,0,0,0,.8.6h1.8l.6-.2.5-.3h.3c.1,0,.2,0,.2.1Zm-1.1-3.5a2.5,2.5,0,0,0-.1-.9,1.6,1.6,0,0,0-.4-.7l-.6-.4h-.8a1.8,1.8,0,0,0-1.5.5,2.6,2.6,0,0,0-.7,1.6Z" style="fill: #fff"/>
          <path d="M189.5,85.7l-.2.2h-.4l-.3-.2-.5-.2h-.7l-1,.2a1.3,1.3,0,0,0-.7.6,1.9,1.9,0,0,0-.4.9,3.7,3.7,0,0,0-.2,1.2,4.3,4.3,0,0,0,.2,1.2,1.9,1.9,0,0,0,.4.9,2,2,0,0,0,.7.6l.9.2.8-.2.6-.2.3-.3h.3c.1,0,.2,0,.2.1l.4.5-.6.5-.6.4-.8.2h-.8a2.8,2.8,0,0,1-1.3-.3,2.6,2.6,0,0,1-1.1-.7,5.4,5.4,0,0,1-.7-1.3,3.8,3.8,0,0,1-.3-1.6,4.1,4.1,0,0,1,.3-1.6,2.4,2.4,0,0,1,.7-1.2,2.3,2.3,0,0,1,1.1-.8,3.3,3.3,0,0,1,1.5-.3l1.4.2a2.8,2.8,0,0,1,1.1.8Z" style="fill: #fff"/>
          <path d="M193.7,92.1a1.7,1.7,0,0,1-1.9-1.9V85.5h-1.1c-.1,0-.1-.1-.1-.2v-.5l1.2-.2.3-2.3c.1-.1.1-.2.2-.2h.8v2.6h2.2v1h-2.2v4.6a.9.9,0,0,0,.3.7.8.8,0,0,0,.6.2h.3l.3-.2h.5l.4.6-.8.5Z" style="fill: #fff"/>
          <path d="M199.9,84.3l1.5.2,1.1.8a3.3,3.3,0,0,1,.7,1.3,3.8,3.8,0,0,1,.3,1.6,4.1,4.1,0,0,1-.3,1.6,2.4,2.4,0,0,1-.7,1.2,2.8,2.8,0,0,1-1.1.8,4,4,0,0,1-1.5.3,3.3,3.3,0,0,1-1.5-.3,2.5,2.5,0,0,1-1.2-.8,3.5,3.5,0,0,1-.7-1.2,4.1,4.1,0,0,1-.3-1.6,3.8,3.8,0,0,1,.3-1.6,5.4,5.4,0,0,1,.7-1.3,3.6,3.6,0,0,1,1.2-.8Zm0,6.7a2.1,2.1,0,0,0,1.7-.7,4.7,4.7,0,0,0,0-4.2,2.1,2.1,0,0,0-1.7-.8l-1,.2a1.3,1.3,0,0,0-.7.6,1.3,1.3,0,0,0-.4.9,3.7,3.7,0,0,0-.2,1.2,3.3,3.3,0,0,0,.6,2.1A1.8,1.8,0,0,0,199.9,91Z" style="fill: #fff"/>
          <path d="M209.6,85.6c-.1.2-.2.2-.3.2h-.2l-.4-.2h-1.8l-.4.2-.3.3a.9.9,0,0,0-.1.5.6.6,0,0,0,.2.5l.4.3.6.2.8.3.7.3.6.3.5.6a1.9,1.9,0,0,1,.1.8,1.5,1.5,0,0,1-.2.9,2.2,2.2,0,0,1-.5.8l-.9.5-1.2.2a3.3,3.3,0,0,1-1.5-.3,2.4,2.4,0,0,1-1.1-.6l.3-.5.2-.2h.5l.3.2.6.2h1.4l.5-.2.3-.4c0-.2.1-.3.1-.5a.8.8,0,0,0-.2-.5c-.1-.2-.3-.3-.4-.4l-.7-.2-.7-.3-.7-.2-.7-.4-.4-.6a1.9,1.9,0,0,1-.2-.8,2.9,2.9,0,0,1,.2-.9l.5-.7.9-.5h1.1a3.2,3.2,0,0,1,1.4.2l1,.7Z" style="fill: #fff"/>
        </g>
      </g>
      <g class="hoverable" onclick="showTypeInstrument('destinacion_especifica', 4, 1); changeImage('financiacion/F_Destinacion_Especifica');">
        <path d="M268.5,547.9c-48.7,20.5-91.6,31.8-145,31.8V442.6c33.9.8,54.7-5.3,79.4-17.9Z" style="fill: #cc62a1"/>
        <g>
          <path d="M149.5,494.9a6.7,6.7,0,0,1-.4,2.2,4.2,4.2,0,0,1-1.1,1.7,3.9,3.9,0,0,1-1.7,1.1,4.6,4.6,0,0,1-2.1.4h-4V489.6h4a4.6,4.6,0,0,1,2.1.4,3.9,3.9,0,0,1,1.7,1.1,4.2,4.2,0,0,1,1.1,1.7A6.5,6.5,0,0,1,149.5,494.9Zm-1.5,0a4.7,4.7,0,0,0-.3-1.7,2.9,2.9,0,0,0-.8-1.3,2.7,2.7,0,0,0-1.2-.9,3.3,3.3,0,0,0-1.5-.3h-2.6v8.4h2.6l1.5-.2a2.7,2.7,0,0,0,1.2-.9,2.9,2.9,0,0,0,.8-1.3A4.8,4.8,0,0,0,148,494.9Z" style="fill: #fff"/>
          <path d="M157.3,499.3l-.6.5-.7.3-.8.3h-.9l-1.4-.2a5,5,0,0,1-1.2-.8,5.4,5.4,0,0,1-.7-1.3,4.7,4.7,0,0,1-.3-1.7,3.3,3.3,0,0,1,.3-1.5,2.4,2.4,0,0,1,.7-1.2,2.3,2.3,0,0,1,1.1-.8,3.3,3.3,0,0,1,1.5-.3l1.2.2,1,.7a3,3,0,0,1,.7,1.1,3.2,3.2,0,0,1,.2,1.4v.4H152a5.1,5.1,0,0,0,.2,1.3l.5.9.8.5.9.2h.9l.6-.3.5-.2.3-.2a.2.2,0,0,1,.2.2Zm-1.1-3.6a2.8,2.8,0,0,0-.1-.9,2.1,2.1,0,0,0-.4-.6,1,1,0,0,0-.6-.5h-.8a2.3,2.3,0,0,0-1.5.5,2.6,2.6,0,0,0-.7,1.6Z" style="fill: #fff"/>
          <path d="M163.5,494H163a.5.5,0,0,0-.4-.2l-.5-.2h-1.3l-.4.2-.3.4c-.1.1-.1.2-.1.4s0,.4.2.5l.4.3.6.3.8.2.7.3.6.4.5.5a1.9,1.9,0,0,1,.1.8,2.2,2.2,0,0,1-.7,1.7,4.7,4.7,0,0,1-.9.6H161a3.2,3.2,0,0,1-1.4-.2,4.1,4.1,0,0,1-1.1-.7l.3-.5h.7l.3.2.6.3h1.4l.5-.3.3-.4a4.3,4.3,0,0,0,.1-.5.8.8,0,0,0-.2-.5l-.4-.3-.7-.3-.7-.2-.7-.3-.7-.4a.9.9,0,0,1-.4-.6,1.7,1.7,0,0,1,0-1.6,1.8,1.8,0,0,1,.5-.7,2.6,2.6,0,0,1,.9-.5l1.1-.2,1.4.2,1,.7Z" style="fill: #fff"/>
          <path d="M172.6,500.3h-1.3v-6.5h-3.9v4.6c0,.3,0,.6.2.7a.7.7,0,0,0,.6.2h.6c.1-.1.2-.1.2-.2h.2a.1.1,0,0,1,.1.1l.4.6a2.4,2.4,0,0,1-.8.6h-1a1.6,1.6,0,0,1-1.4-.5,2,2,0,0,1-.5-1.4v-4.7h-1.1c0-.1-.1-.2-.1-.3V493l1.3-.2.3-2.3c0-.1,0-.1.1-.2h.9v2.6h5.2Zm.3-10v.3l-.2.3-.3.2h-.8l-.3-.2c-.1,0-.1-.1-.2-.3s-.1-.2-.1-.3.1-.3.1-.4l.2-.3.3-.2h.8l.3.2.2.3Z" style="fill: #fff"/>
          <path d="M176.1,493.8c.1-.2.3-.3.5-.5l.6-.4.6-.2h.8l1.1.2a1.6,1.6,0,0,1,.8.6,1.9,1.9,0,0,1,.5.9,4.9,4.9,0,0,1,.1,1.2v4.8h-1.3v-4.8a2.1,2.1,0,0,0-.4-1.4,1.6,1.6,0,0,0-1.2-.4,2,2,0,0,0-1.1.3,3,3,0,0,0-1,.7v5.6h-1.3v-7.6h.8c.2,0,.3.1.4.3Z" style="fill: #fff"/>
          <path d="M183,493.8a5.1,5.1,0,0,1,1.3-.9,4.5,4.5,0,0,1,1.6-.3l1.2.2a1.6,1.6,0,0,1,.8.6,1.9,1.9,0,0,1,.5.9,3.7,3.7,0,0,1,.2,1.2v4.8h-.9l-.2-.3v-.7l-.6.5-.6.3-.7.3h-1.6l-.7-.4a.9.9,0,0,1-.4-.6,2,2,0,0,1-.2-.9,1.1,1.1,0,0,1,.3-.8,1.5,1.5,0,0,1,.8-.8,3.8,3.8,0,0,1,1.4-.5l2.2-.2v-.6a2,2,0,0,0-.4-1.4,1.2,1.2,0,0,0-1.1-.4H185l-.6.3-.4.2-.4.2h-.2l-.2-.2Zm4.3,3.1h-1.6l-1,.3c-.3.2-.5.3-.6.5a.7.7,0,0,0-.2.6.9.9,0,0,0,.1.5c.1.1.1.2.3.3l.3.2h1.2l.5-.2.5-.3.5-.4Z" style="fill: #fff"/>
          <path d="M195.9,494.1h-.5l-.3-.3-.5-.2h-.7l-1,.2-.8.6-.4.9a4.9,4.9,0,0,0-.1,1.2,4.1,4.1,0,0,0,.1,1.2,1.9,1.9,0,0,0,.5.9,1.3,1.3,0,0,0,.7.6l.9.2h.8l.5-.3.4-.2a.2.2,0,0,1,.2-.2l.3.2.4.5-.6.5-.7.3-.7.3h-.9l-1.3-.2a3.9,3.9,0,0,1-1-.8,2.4,2.4,0,0,1-.7-1.2,4.7,4.7,0,0,1-.3-1.7,8.8,8.8,0,0,1,.2-1.6,7.5,7.5,0,0,1,.7-1.2l1.1-.8a4.1,4.1,0,0,1,1.6-.3,3.2,3.2,0,0,1,1.4.3,2.6,2.6,0,0,1,1.1.7Z" style="fill: #fff"/>
          <path d="M199.5,490.3c0,.2,0,.3-.1.4s-.1.2-.2.3l-.3.2h-.7c-.2,0-.3-.1-.3-.2s-.2-.2-.2-.3-.1-.2-.1-.4a.4.4,0,0,1,.1-.3c0-.2.1-.3.2-.3s.1-.2.3-.2h.7l.3.2c.1,0,.2.1.2.3A.4.4,0,0,1,199.5,490.3Zm-.3,2.4v7.6h-1.3v-7.6Z" style="fill: #fff"/>
          <path d="M204.6,492.6a4,4,0,0,1,1.5.3,2.8,2.8,0,0,1,1.1.8,3.6,3.6,0,0,1,.8,1.2,7.8,7.8,0,0,1,.2,1.6,7,7,0,0,1-.2,1.6,5.7,5.7,0,0,1-.8,1.3l-1.1.8-1.5.2-1.5-.2a5,5,0,0,1-1.2-.8,5.4,5.4,0,0,1-.7-1.3,3.9,3.9,0,0,1-.2-1.6,4.1,4.1,0,0,1,.2-1.6,3.5,3.5,0,0,1,.7-1.2,3.2,3.2,0,0,1,1.2-.8A3.3,3.3,0,0,1,204.6,492.6Zm0,6.8a2.1,2.1,0,0,0,1.7-.8,4.7,4.7,0,0,0,0-4.2,2.1,2.1,0,0,0-1.7-.7h-1l-.7.6a3.6,3.6,0,0,0-.4.9,5,5,0,0,0-.2,1.2,3.3,3.3,0,0,0,.6,2.1A2,2,0,0,0,204.6,499.4Zm2.2-9.9-1.8,1.9c0,.1-.1.1-.2.1s-.1.1-.2.1h-.8l1.1-1.8.2-.3h1.7Z" style="fill: #fff"/>
          <path d="M211.2,493.8l.5-.5.6-.4.6-.2h.8l1.1.2a1.6,1.6,0,0,1,.8.6,1.9,1.9,0,0,1,.5.9,4.9,4.9,0,0,1,.1,1.2v4.8h-1.3v-4.8a2.1,2.1,0,0,0-.4-1.4,1.6,1.6,0,0,0-1.2-.4,2,2,0,0,0-1.1.3,2.3,2.3,0,0,0-1,.7v5.6h-1.3v-7.6h.8c.2,0,.3.1.4.3Z" style="fill: #fff"/>
          <path d="M153.3,517.1v1.2h-6.6V507.6h6.6v1.2h-5.1v3.5h4.1v1.2h-4.1v3.6Z" style="fill: #fff"/>
          <path d="M159.4,512h-.6l-.3-.2-.5-.2h-1.3l-.5.2-.3.4c0,.1-.1.2-.1.4a.8.8,0,0,0,.2.5l.5.3.6.3.7.2.7.3.7.4a1,1,0,0,1,.4.5,1.9,1.9,0,0,1,.2.8,3.6,3.6,0,0,1-.2,1,1.3,1.3,0,0,1-.6.7,2,2,0,0,1-.9.6h-1.2a3.2,3.2,0,0,1-1.4-.2,3,3,0,0,1-1.1-.7l.3-.5a.1.1,0,0,1,.1-.1h.5l.4.2.5.3h1.5l.5-.3a.5.5,0,0,0,.2-.4,1.3,1.3,0,0,0,0-1,.9.9,0,0,0-.5-.3l-.6-.3-.7-.2-.8-.3-.6-.4c-.2-.1-.3-.3-.5-.6a1.9,1.9,0,0,1-.1-.8,1.1,1.1,0,0,1,.2-.8,1.8,1.8,0,0,1,.5-.7l.8-.5,1.2-.2,1.3.2a4.1,4.1,0,0,1,1.1.7Z" style="fill: #fff"/>
          <path d="M162.7,511.9a5.2,5.2,0,0,1,1.1-1,3.3,3.3,0,0,1,1.5-.3l1.1.2a3.9,3.9,0,0,1,1,.8,3.3,3.3,0,0,1,.5,1.2,4.4,4.4,0,0,1,.2,1.7,3.6,3.6,0,0,1-.2,1.5,5.2,5.2,0,0,1-.6,1.3l-1.1.8a2.9,2.9,0,0,1-1.4.3l-1.1-.2a2.2,2.2,0,0,1-.9-.7v3.4h-1.4V510.7h.8c.2,0,.3.1.4.3Zm.1,4.6a1.8,1.8,0,0,0,.8.7l.9.2a2,2,0,0,0,1.7-.8,3.3,3.3,0,0,0,.6-2.1,5.1,5.1,0,0,0-.2-1.3,2.5,2.5,0,0,0-.4-.9,1,1,0,0,0-.6-.5h-.8a2,2,0,0,0-1.1.3,1.8,1.8,0,0,0-.9.8Z" style="fill: #fff"/>
          <path d="M176,517.3l-.6.5-.7.3-.8.3H173l-1.4-.2a3.6,3.6,0,0,1-1.2-.8,5.4,5.4,0,0,1-.7-1.3,4.7,4.7,0,0,1-.3-1.7,6.1,6.1,0,0,1,.2-1.5,3.5,3.5,0,0,1,.7-1.2,2.5,2.5,0,0,1,1.2-.8,3.2,3.2,0,0,1,1.4-.3l1.3.2,1,.7a3,3,0,0,1,.7,1.1,5.9,5.9,0,0,1,.2,1.4v.4h-5.4a5.1,5.1,0,0,0,.2,1.3,4.1,4.1,0,0,0,.5.9l.8.5.9.2h.9l.6-.3.5-.2.3-.2a.2.2,0,0,1,.2.2Zm-1.1-3.6a2.8,2.8,0,0,0-.1-.9,2.1,2.1,0,0,0-.4-.6l-.6-.5H173a2.1,2.1,0,0,0-1.5.5,2.6,2.6,0,0,0-.7,1.6Zm.3-6.2-1.8,1.9h-1.2l1.1-1.8c0-.1.1-.2.2-.3h1.7Z" style="fill: #fff"/>
          <path d="M183,512.1a.1.1,0,0,1-.1.1h-.4l-.3-.3-.5-.2H181l-1,.2-.7.6a4.1,4.1,0,0,0-.5.9,4.9,4.9,0,0,0-.1,1.2,2.2,2.2,0,0,0,.2,1.2,1.9,1.9,0,0,0,.4.9,1.3,1.3,0,0,0,.7.6l.9.2h.8l.5-.3.4-.2.3-.2a.2.2,0,0,1,.2.2l.4.5-.6.5-.7.3-.7.3h-.8l-1.4-.2a3.9,3.9,0,0,1-1-.8,3.5,3.5,0,0,1-.7-1.2,4.7,4.7,0,0,1-.3-1.7,4.5,4.5,0,0,1,.3-1.6,3.7,3.7,0,0,1,.7-1.2,3.1,3.1,0,0,1,1.1-.8,3.3,3.3,0,0,1,1.5-.3,3.2,3.2,0,0,1,1.4.3,2.6,2.6,0,0,1,1.1.7Z" style="fill: #fff"/>
          <path d="M186.6,508.3c0,.2,0,.3-.1.4s-.1.2-.2.3l-.3.2h-.7l-.3-.2c-.1-.1-.2-.2-.2-.3s-.1-.2-.1-.4a.4.4,0,0,1,.1-.3c0-.2.1-.3.2-.3l.3-.2h.7l.3.2c.1,0,.2.1.2.3A.4.4,0,0,1,186.6,508.3Zm-.3,2.4v7.6H185v-7.6Z" style="fill: #fff"/>
          <path d="M189,518.3v-6.4h-.8l-.3-.2a.3.3,0,0,1-.1-.2v-.5H189v-.4a5.1,5.1,0,0,1,.2-1.3,3.6,3.6,0,0,1,.7-1,3,3,0,0,1,1.1-.7l1.5-.2h1.1v.7h-.6a3.4,3.4,0,0,0-2,.5,2.2,2.2,0,0,0-.6,1.7v.4h4.6v7.4h-1.3v-6.5h-3.2v6.5Z" style="fill: #fff"/>
          <path d="M202.4,512.1h-.5l-.4-.3-.5-.2h-.7l-1,.2-.7.6a3.6,3.6,0,0,0-.4.9,5,5,0,0,0-.2,1.2,3.7,3.7,0,0,0,.2,1.2,3.9,3.9,0,0,0,.4.9,1.9,1.9,0,0,0,.7.6l1,.2h.8l.5-.3.3-.2.3-.2.3.2.3.5c-.1.2-.3.3-.5.5l-.7.3-.8.3H200l-1.3-.2-1.1-.8a3.5,3.5,0,0,1-.7-1.2,6.9,6.9,0,0,1,0-3.3,7.5,7.5,0,0,1,.7-1.2l1.1-.8a4,4,0,0,1,1.5-.3,3.3,3.3,0,0,1,1.5.3,2.3,2.3,0,0,1,1,.7Z" style="fill: #fff"/>
          <path d="M204.1,511.8a3.8,3.8,0,0,1,1.3-.9,4.5,4.5,0,0,1,1.6-.3l1.2.2a1.6,1.6,0,0,1,.8.6,1.9,1.9,0,0,1,.5.9,3.7,3.7,0,0,1,.2,1.2v4.8h-.9l-.2-.3v-.7l-.6.5-.6.3-.7.3H205l-.7-.4a.9.9,0,0,1-.4-.6,2,2,0,0,1-.2-.9,1.9,1.9,0,0,1,.2-.8,3,3,0,0,1,.8-.8,5.3,5.3,0,0,1,1.5-.5l2.2-.2v-.6a2,2,0,0,0-.4-1.4,1.4,1.4,0,0,0-1.1-.4h-.8l-.6.3-.4.2-.4.2h-.2c-.1,0-.1-.1-.2-.2Zm4.3,3.1h-1.6l-1,.3c-.3.2-.5.3-.6.5a.7.7,0,0,0-.2.6.9.9,0,0,0,.1.5c0,.1.1.2.2.3l.4.2h1.2l.5-.2.5-.3.5-.4Z" style="fill: #fff"/>
        </g>
      </g>
      <g class="hoverable" onclick="returnToGroups(); changeImage('rueda');">
        <circle cx="127.5" cy="285.9" r="109" style="fill: #bcc3c5"/>
        <g>
          <path d="M57.7,278.9h8.2v2.2H60.3V285h5.2v2.2H60.3v6H57.7Z" style="fill: #112025"/>
          <path d="M71,278.9v14.3H68.4V278.9Z" style="fill: #112025"/>
          <path d="M74,293.2V278.9h3l3.7,6.2a34.8,34.8,0,0,1,2.4,4.7h0c-.1-1.9-.2-3.7-.2-5.9v-5h2.4v14.3H82.6l-3.7-6.3a45.2,45.2,0,0,1-2.5-4.9h-.1c.1,1.9.1,3.8.1,6.1v5.1Z" style="fill: #112025"/>
          <path d="M91.2,289.2l-1.2,4H87.3l4.5-14.3h3.4l4.6,14.3H97l-1.3-4Zm4.1-2-1.1-3.5c-.3-.9-.6-1.9-.8-2.7h0c-.2.8-.4,1.8-.7,2.7l-1.1,3.5Z" style="fill: #112025"/>
          <path d="M101.8,293.2V278.9h3l3.6,6.2a35.7,35.7,0,0,1,2.5,4.7h0c-.1-1.9-.2-3.7-.2-5.9v-5h2.4v14.3h-2.7l-3.7-6.3a45.9,45.9,0,0,1-2.6-4.9h0c.1,1.9.1,3.8.1,6.1v5.1Z" style="fill: #112025"/>
          <path d="M126.3,292.8a9.2,9.2,0,0,1-3.7.6c-4.5,0-7.2-2.8-7.2-7.2s3.2-7.5,7.6-7.5a10.5,10.5,0,0,1,3.5.6l-.6,2.1a7,7,0,0,0-2.8-.5c-2.9,0-5,1.8-5,5.2s1.8,5.2,5,5.2a7.7,7.7,0,0,0,2.8-.6Z" style="fill: #112025"/>
          <path d="M131.2,278.9v14.3h-2.6V278.9Z" style="fill: #112025"/>
          <path d="M137,289.2l-1.2,4h-2.7l4.6-14.3H141l4.6,14.3h-2.8l-1.3-4Zm4.1-2-1.1-3.5c-.3-.9-.5-1.9-.8-2.7h0c-.2.8-.4,1.8-.7,2.7l-1.1,3.5Z" style="fill: #112025"/>
          <path d="M157.4,292.8a9.6,9.6,0,0,1-3.7.6c-4.5,0-7.3-2.8-7.3-7.2s3.3-7.5,7.6-7.5a9.5,9.5,0,0,1,3.5.6l-.6,2.1a6.7,6.7,0,0,0-2.8-.5c-2.9,0-5,1.8-5,5.2s1.9,5.2,5,5.2a7.8,7.8,0,0,0,2.9-.6Z" style="fill: #112025"/>
          <path d="M162.2,278.9v14.3h-2.6V278.9Z" style="fill: #112025"/>
          <path d="M177.8,285.9c0,4.8-2.9,7.5-6.8,7.5s-6.5-3-6.5-7.2,2.7-7.5,6.7-7.5S177.8,281.9,177.8,285.9Zm-10.6.2c0,2.9,1.5,5.2,4,5.2s3.9-2.3,3.9-5.3-1.3-5.2-3.9-5.2S167.2,283.2,167.2,286.1Zm7.4-10.5-2.7,2.5h-2.1l1.9-2.5Z" style="fill: #112025"/>
          <path d="M180.1,293.2V278.9h3l3.6,6.2a35.7,35.7,0,0,1,2.5,4.7h0a55.3,55.3,0,0,1-.2-5.9v-5h2.4v14.3h-2.7l-3.7-6.3a45.9,45.9,0,0,1-2.6-4.9h0c.1,1.9.1,3.8.1,6.1v5.1Z" style="fill: #112025"/>
        </g>
        <circle cx="127.5" cy="285.9" r="127" style="fill: none;stroke: #a9b7bc;stroke-miterlimit: 10"/>
      </g>
    </g>
  </g>
</svg>
