<svg class="animate__animated" xmlns="http://www.w3.org/2000/svg" viewBox="0 0 734.1 459.2">
  <g>
    <g class="hoverable" onclick="returnToGroups();">
      <circle cx="127.7" cy="258.6" r="105" style="fill: #bdc4c6"/>
      <circle cx="127.5" cy="260.6" r="127" style="fill: none;stroke: #aab8bd;stroke-miterlimit: 10"/>
      <g>
        <path d="M99.2,263.7a14.7,14.7,0,0,1-4.6.8,7.4,7.4,0,0,1-5.5-1.9,7.1,7.1,0,0,1-2-5.3c0-4.5,3.2-7.4,7.9-7.4a9.8,9.8,0,0,1,3.8.7l-.6,2.1a8.2,8.2,0,0,0-3.2-.6c-3.1,0-5.2,1.8-5.2,5.1s2,5.2,5,5.2a6.1,6.1,0,0,0,1.9-.3v-3.6H94.2v-2h5Z" style="fill: #112025"/>
        <path d="M109.9,258h-5.4v4.2h6v2.1h-8.6V250.1h8.3v2.1h-5.7v3.7h5.4Z" style="fill: #112025"/>
        <path d="M112.7,261.5a7.5,7.5,0,0,0,3.5.9c1.7,0,2.6-.8,2.6-1.9s-.7-1.7-2.5-2.4-3.9-2.1-3.9-4.1,2-4.2,5-4.2a7.5,7.5,0,0,1,3.5.8l-.7,2.1a5.6,5.6,0,0,0-2.8-.7c-1.6,0-2.4.9-2.4,1.7s.9,1.6,2.8,2.3,3.6,2.2,3.6,4.3-1.7,4.3-5.4,4.3a9.2,9.2,0,0,1-3.8-.9Z" style="fill: #112025"/>
        <path d="M126.5,252.3h-4v-2.2h10.7v2.2h-4.1v12h-2.6Z" style="fill: #112025"/>
        <path d="M137.5,250.1v14.2h-2.6V250.1Z" style="fill: #112025"/>
        <path d="M153.2,257.1c0,4.7-2.9,7.5-6.9,7.5s-6.5-3.1-6.5-7.3,2.7-7.5,6.7-7.5S153.2,253,153.2,257.1Zm-10.7.2c0,2.9,1.5,5.2,4,5.2s3.9-2.3,3.9-5.3-1.3-5.3-3.9-5.3S142.5,254.3,142.5,257.3Zm7.4-10.6-2.7,2.6h-2.1l1.9-2.6Z" style="fill: #112025"/>
        <path d="M155.4,264.3V250.1h3l3.6,6.1a36.7,36.7,0,0,1,2.5,4.8h0c-.1-1.9-.2-3.8-.2-5.9v-5h2.4v14.2H164l-3.7-6.2a47.4,47.4,0,0,1-2.6-5h0c.1,1.8.1,3.7.1,6v5.1Z" style="fill: #112025"/>
      </g>
    </g>
    <g class="hoverable" onclick="returnToTypesInstrument()">
      <path d="M442.3,371.2,276.4,312.1a159.2,159.2,0,0,0-5.9-120.5l159.3-75.1A331.5,331.5,0,0,1,461.6,259,334.2,334.2,0,0,1,442.3,371.2Z" style="fill: #266ec4"/>
      <path d="M429.9,366.6,270.7,309.8a153.4,153.4,0,0,0-5.6-115.6l152.8-72.1a317.8,317.8,0,0,1,30.5,136.8A320.5,320.5,0,0,1,429.9,366.6Z" style="fill: #b74b90"/>
      <g>
        <path d="M292.7,226.2v15.5h-2V226.2Z" style="fill: #fff"/>
        <path d="M296.3,233.6a28.1,28.1,0,0,0-.1-3H298v1.8h.1a4,4,0,0,1,3.7-2c1.5,0,3.9.9,3.9,4.7v6.6h-2v-6.4c0-1.8-.7-3.3-2.6-3.3a3.3,3.3,0,0,0-2.9,3v6.7h-2Z" style="fill: #fff"/>
        <path d="M311.4,227.4v3.2h2.9v1.5h-2.9v6c0,1.4.4,2.2,1.5,2.2h1.2v1.5a4.2,4.2,0,0,1-1.8.3,2.8,2.8,0,0,1-2.2-.9,4.6,4.6,0,0,1-.8-2.9v-6.1h-1.7v-1.5h1.7v-2.7Z" style="fill: #fff"/>
        <path d="M317.6,236.5a3.5,3.5,0,0,0,3.8,3.9,7.7,7.7,0,0,0,3.1-.6l.3,1.5a9.2,9.2,0,0,1-3.7.7c-3.4,0-5.4-2.3-5.4-5.6s1.9-6,5.2-6,4.6,3.2,4.6,5.2c0,.4-.1.7-.1.9Zm5.9-1.4c0-1.3-.5-3.3-2.8-3.3s-2.9,1.9-3.1,3.3Z" style="fill: #fff"/>
        <path d="M328,234.1c0-1.3,0-2.5-.1-3.5h1.8v2.2h.1a3.3,3.3,0,0,1,3.1-2.4h.6v1.9h-.7a2.8,2.8,0,0,0-2.7,2.6,2.5,2.5,0,0,0-.1.9v5.9h-2Z" style="fill: #fff"/>
        <path d="M336.9,230.6l2.1,6.3a18,18,0,0,1,.9,2.8h.1c.3-.9.6-1.8,1-2.8l2.1-6.3h2.1l-4.3,11.1h-2l-4.2-11.1Z" style="fill: #fff"/>
        <path d="M348,236.5c.1,2.8,1.8,3.9,3.9,3.9a7.1,7.1,0,0,0,3-.6l.4,1.5a9.6,9.6,0,0,1-3.7.7,5.2,5.2,0,0,1-5.5-5.6c0-3.4,2-6,5.2-6s4.6,3.2,4.6,5.2v.9Zm6-1.4c0-1.3-.6-3.3-2.8-3.3a3.3,3.3,0,0,0-3.1,3.3Z" style="fill: #fff"/>
        <path d="M358.4,233.6a28.1,28.1,0,0,0-.1-3h1.8v1.8h.1a4,4,0,0,1,3.7-2c1.5,0,3.9.9,3.9,4.7v6.6h-2v-6.4c0-1.8-.7-3.3-2.6-3.3a2.9,2.9,0,0,0-2.7,2.1,2.8,2.8,0,0,0-.1.9v6.7h-2.1Z" style="fill: #fff"/>
        <path d="M379.1,241.3a6.9,6.9,0,0,1-3.2.7c-3.3,0-5.5-2.3-5.5-5.7a5.6,5.6,0,0,1,6-5.9,6.5,6.5,0,0,1,2.8.6l-.5,1.5a4.4,4.4,0,0,0-2.3-.5,4.2,4.2,0,0,0-.1,8.4,5.1,5.1,0,0,0,2.5-.6Z" style="fill: #fff"/>
        <path d="M383.8,227.5a1.2,1.2,0,0,1-1.3,1.2,1.2,1.2,0,0,1-1.3-1.2,1.3,1.3,0,0,1,1.3-1.3A1.3,1.3,0,0,1,383.8,227.5Zm-2.3,14.2V230.6h2v11.1Z" style="fill: #fff"/>
        <path d="M397,236.1c0,4.1-2.9,5.9-5.6,5.9s-5.3-2.2-5.3-5.7,2.4-5.9,5.5-5.9S397,232.7,397,236.1Zm-8.9.1c0,2.4,1.4,4.3,3.4,4.3s3.4-1.8,3.4-4.4-1-4.2-3.3-4.2S388.1,234.1,388.1,236.2Zm6.4-10.4-2.8,3.3h-1.4l2-3.3Z" style="fill: #fff"/>
        <path d="M399.5,233.6a28.1,28.1,0,0,0-.1-3h1.8v1.8h.1a4,4,0,0,1,3.7-2c1.5,0,3.9.9,3.9,4.7v6.6h-2v-6.4c0-1.8-.7-3.3-2.6-3.3a3.3,3.3,0,0,0-2.9,3v6.7h-2Z" style="fill: #fff"/>
        <path d="M418.3,236.5a3.5,3.5,0,0,0,3.8,3.9,8.1,8.1,0,0,0,3.1-.6l.3,1.5a9.2,9.2,0,0,1-3.7.7,5.2,5.2,0,0,1-5.5-5.6c0-3.4,2-6,5.3-6s4.6,3.2,4.6,5.2c0,.4-.1.7-.1.9Zm5.9-1.4c0-1.3-.5-3.3-2.8-3.3s-2.9,1.9-3.1,3.3Z" style="fill: #fff"/>
        <path d="M428.7,233.6c0-1.1-.1-2.1-.1-3h1.8v1.8h0a4.3,4.3,0,0,1,3.7-2c1.6,0,3.9.9,3.9,4.7v6.6h-2v-6.4c0-1.8-.6-3.3-2.6-3.3a3,3,0,0,0-2.7,2.1,2.8,2.8,0,0,0-.1.9v6.7h-2Z" style="fill: #fff"/>
        <path d="M305.9,253h2v16.3h-2Z" style="fill: #fff"/>
        <path d="M317.5,269.3l-.2-1.4h0a4,4,0,0,1-3.4,1.7,3.1,3.1,0,0,1-3.4-3.2c0-2.7,2.4-4.2,6.7-4.1V262a2.4,2.4,0,0,0-2.6-2.6,5.8,5.8,0,0,0-2.9.9l-.4-1.4a6.6,6.6,0,0,1,3.6-.9c3.4,0,4.3,2.3,4.3,4.5v4.2a20.9,20.9,0,0,0,.1,2.6Zm-.3-5.6c-2.2-.1-4.7.3-4.7,2.5a1.8,1.8,0,0,0,1.9,1.9,2.8,2.8,0,0,0,2.7-1.9,1.3,1.3,0,0,0,.1-.6Z" style="fill: #fff"/>
        <path d="M327.4,254a30.7,30.7,0,0,1,3.8-.3,6.8,6.8,0,0,1,4.4,1.3,4.4,4.4,0,0,1,1.3,3.3,4.5,4.5,0,0,1-1.2,3.3,6.4,6.4,0,0,1-4.7,1.7l-1.6-.2v6.2h-2Zm2,7.5,1.6.2c2.4,0,3.9-1.2,3.9-3.4s-1.4-3-3.6-3l-1.9.2Z" style="fill: #fff"/>
        <path d="M339.2,261.7c0-1.3-.1-2.5-.1-3.5h1.8v2.2h.1a3.3,3.3,0,0,1,3.1-2.4h.6v1.9H344a2.7,2.7,0,0,0-2.7,2.6,2.5,2.5,0,0,0-.1.9v5.9h-2Z" style="fill: #fff"/>
        <path d="M356.5,263.7c0,4.1-2.8,5.9-5.5,5.9s-5.3-2.2-5.3-5.7,2.4-5.9,5.5-5.9S356.5,260.3,356.5,263.7Zm-8.8.1c0,2.4,1.4,4.3,3.4,4.3s3.4-1.8,3.4-4.4-1-4.2-3.4-4.2S347.7,261.7,347.7,263.8Z" style="fill: #fff"/>
        <path d="M359.1,261.8c0-1.4-.1-2.5-.1-3.6h1.8v1.9h.1a4.3,4.3,0,0,1,3.9-2.1c2.7,0,4.7,2.2,4.7,5.6s-2.4,6-5,6a4.1,4.1,0,0,1-3.5-1.8h0v6.1h-2Zm2,3a1.9,1.9,0,0,0,.1.8,3.1,3.1,0,0,0,3,2.4c2.2,0,3.4-1.7,3.4-4.3s-1.2-4.1-3.3-4.1a3.3,3.3,0,0,0-3.1,2.5c0,.2-.1.5-.1.8Z" style="fill: #fff"/>
        <path d="M374.4,255.1c.1.7-.5,1.2-1.3,1.2a1.2,1.2,0,0,1-1.2-1.2,1.3,1.3,0,0,1,1.3-1.3A1.2,1.2,0,0,1,374.4,255.1Zm-2.2,14.2V258.2h2v11.1Z" style="fill: #fff"/>
        <path d="M378.7,264.1a3.5,3.5,0,0,0,3.8,3.9,7.7,7.7,0,0,0,3.1-.6l.3,1.5a9.2,9.2,0,0,1-3.7.7c-3.4,0-5.4-2.3-5.4-5.6s1.9-6,5.2-6,4.6,3.1,4.6,5.2c0,.4-.1.7-.1.9Zm5.9-1.4c0-1.3-.5-3.3-2.8-3.3s-2.9,1.9-3.1,3.3Z" style="fill: #fff"/>
        <path d="M398.7,253v13.5a23.5,23.5,0,0,0,.1,2.8H397v-1.9h-.1a4.1,4.1,0,0,1-3.8,2.2c-2.7,0-4.7-2.3-4.7-5.7s2.3-5.9,5-5.9a3.6,3.6,0,0,1,3.3,1.7h.1V253Zm-2,9.7c0-.2-.1-.6-.1-.8a3,3,0,0,0-2.9-2.4c-2.1,0-3.4,1.9-3.4,4.3s1.1,4.2,3.3,4.2a3.1,3.1,0,0,0,3-2.5c0-.2.1-.5.1-.8Z" style="fill: #fff"/>
        <path d="M408.2,269.3v-1.4H408a4,4,0,0,1-3.4,1.7,3.1,3.1,0,0,1-3.4-3.2c0-2.7,2.4-4.2,6.7-4.1V262a2.4,2.4,0,0,0-2.6-2.6,5.8,5.8,0,0,0-2.9.9l-.4-1.4a6.6,6.6,0,0,1,3.6-.9c3.4,0,4.3,2.3,4.3,4.5v4.2a10.6,10.6,0,0,0,.2,2.6Zm-.3-5.6c-2.2-.1-4.7.3-4.7,2.5a1.8,1.8,0,0,0,1.9,1.9,2.7,2.7,0,0,0,2.7-1.9,1.3,1.3,0,0,0,.1-.6Z" style="fill: #fff"/>
        <path d="M422.8,253v16.3H421v-1.9h0a4.2,4.2,0,0,1-3.8,2.2c-2.7,0-4.8-2.3-4.8-5.7s2.3-5.9,5-5.9a3.8,3.8,0,0,1,3.4,1.7h0V253Zm-2.1,9.7a2.2,2.2,0,0,0-.1-.8,3,3,0,0,0-2.9-2.4c-2.1,0-3.3,1.9-3.3,4.3s1.1,4.2,3.3,4.2a3,3,0,0,0,2.9-2.5,1.9,1.9,0,0,0,.1-.8Z" style="fill: #fff"/>
      </g>
    </g>
    <g class="hoverable" onclick="showInstrument('gestion', 'intervencion_en_la_propiedad', 'enajenacion');">
      <path d="M699.9,459.2,473.4,379.7v-.3a363.4,363.4,0,0,0,20.6-120.5,368.7,368.7,0,0,0-35.2-156.4L675.9,0a609.6,609.6,0,0,1,58.2,258.9,604.7,604.7,0,0,1-33.9,199.5Z" style="fill: #b74b90"/>
      <g>
        <path d="M546.6,102.2l-4.2,1.5,1.4,3.9,4.7-1.6.4,1.1-6.1,2.2L539,98.5l5.8-2.1.4,1.2-4.4,1.6,1.2,3.4,4.2-1.5Z" style="fill: #fff"/>
        <path d="M548.6,100.8a9.3,9.3,0,0,0-.8-2l1.3-.5.5,1.3h.1a3,3,0,0,1,2-2.4c1.1-.4,3-.3,3.9,2.3l1.7,4.7-1.5.5-1.5-4.5c-.5-1.3-1.3-2.1-2.7-1.7a2.1,2.1,0,0,0-1.3,2.1,1.7,1.7,0,0,0,.1.7l1.7,4.7-1.4.5Z" style="fill: #fff"/>
        <path d="M563.8,101.8l-.4-.9h-.1a3.1,3.1,0,0,1-1.9,2,2.4,2.4,0,0,1-3.2-1.4c-.7-1.9.6-3.5,3.6-4.5v-.2a1.7,1.7,0,0,0-2.4-1.2,4.9,4.9,0,0,0-1.8,1.3l-.7-.8a5.9,5.9,0,0,1,2.3-1.6c2.4-.8,3.5.6,4.1,2.1l1,2.9a10.5,10.5,0,0,0,.8,1.8Zm-1.6-3.9c-1.5.5-3.2,1.4-2.6,2.9a1.2,1.2,0,0,0,1.8.9,2,2,0,0,0,1.4-2,.6.6,0,0,0-.1-.4Z" style="fill: #fff"/>
        <path d="M565.5,90a.9.9,0,0,1-.6,1.2.9.9,0,1,1-.6-1.7A.9.9,0,0,1,565.5,90Zm.7,13.5a2.9,2.9,0,0,0,1.3-1.1c.2-.6.2-1.3-.5-3.1l-2.3-6.5,1.4-.5,2.5,7a4.8,4.8,0,0,1,.2,3.5,3.7,3.7,0,0,1-2.1,1.8Z" style="fill: #fff"/>
        <path d="M570.7,95.3a2.6,2.6,0,0,0,3.6,1.7,5.3,5.3,0,0,0,2-1.1l.6.9a6.2,6.2,0,0,1-2.4,1.4,3.8,3.8,0,0,1-5.2-2.5c-.9-2.4-.2-4.7,2.1-5.5s4,1.1,4.5,2.5a2.5,2.5,0,0,1,.2.7Zm3.7-2.5a2.1,2.1,0,0,0-2.7-1.6c-1.5.5-1.6,2.1-1.4,3.1Z" style="fill: #fff"/>
        <path d="M577.2,90.7l-.8-2.1,1.2-.4.5,1.2h.1a3,3,0,0,1,2-2.4c1.1-.3,3-.3,3.9,2.4l1.7,4.6-1.4.5L582.8,90c-.5-1.2-1.3-2.1-2.6-1.6a2,2,0,0,0-1.4,2.1,2,2,0,0,0,.1.7l1.7,4.6-1.4.5Z" style="fill: #fff"/>
        <path d="M592.4,91.6l-.5-.9h0a3.3,3.3,0,0,1-2,2,2.3,2.3,0,0,1-3.2-1.4c-.6-1.8.7-3.5,3.7-4.5v-.2a1.7,1.7,0,0,0-2.4-1.1,3.4,3.4,0,0,0-1.8,1.3l-.7-.8a4.8,4.8,0,0,1,2.3-1.6c2.4-.9,3.6.5,4.1,2.1l1.1,2.9.7,1.8Zm-1.7-3.8c-1.5.5-3.2,1.4-2.6,2.9a1.4,1.4,0,0,0,1.8.9,2.2,2.2,0,0,0,1.4-2,.9.9,0,0,0-.1-.5Z" style="fill: #fff"/>
        <path d="M601.2,88.2a6,6,0,0,1-2.1,1.2,3.9,3.9,0,0,1-5.2-2.6,4.1,4.1,0,0,1,2.7-5.6,5.9,5.9,0,0,1,2.1-.3v1.2a4,4,0,0,0-1.7.3c-1.8.6-2.3,2.2-1.7,3.9a2.9,2.9,0,0,0,3.7,1.9,4.4,4.4,0,0,0,1.6-1Z" style="fill: #fff"/>
        <path d="M601,77.4a.9.9,0,0,1-.6,1.2.9.9,0,1,1-.6-1.8A.9.9,0,0,1,601,77.4Zm2,10.5-2.8-7.8,1.4-.5,2.8,7.8Z" style="fill: #fff"/>
        <path d="M612.3,80.1a4,4,0,0,1-2.4,5.5,3.9,3.9,0,0,1-5.1-2.7c-.9-2.6.2-4.7,2.4-5.5S611.5,77.7,612.3,80.1Zm-6.1,2.3c.6,1.7,2,2.6,3.4,2.1s1.9-2.1,1.3-3.8-1.7-2.8-3.4-2.2S605.7,80.9,606.2,82.4Zm1.9-8.9-1.2,3-1,.4.6-2.8Z" style="fill: #fff"/>
        <path d="M613.5,77.7c-.3-.8-.6-1.4-.8-2l1.2-.5.6,1.3h0a3.1,3.1,0,0,1,2-2.4c1.1-.4,3-.3,3.9,2.3l1.7,4.6-1.4.6-1.6-4.5c-.5-1.3-1.3-2.1-2.6-1.7a2.4,2.4,0,0,0-1.4,2.1c0,.2.1.5.1.7l1.7,4.7-1.4.5Z" style="fill: #fff"/>
        <path d="M552,127.7l-7.3-9.6,1.5-.5,3.6,4.7,2.5,3.6h.1a31,31,0,0,1-.2-4.4v-6l1.5-.6v12.2Z" style="fill: #fff"/>
        <path d="M563.6,119.1a4,4,0,1,1-7.5,2.8c-.9-2.6.2-4.7,2.4-5.5S562.8,116.7,563.6,119.1Zm-6.1,2.3c.6,1.7,2.1,2.6,3.4,2.1s1.9-2.1,1.3-3.8-1.7-2.8-3.4-2.2S557,119.9,557.5,121.4Z" style="fill: #fff"/>
        <path d="M562.8,111l1.4-.5,4,11.4-1.4.5Z" style="fill: #fff"/>
        <path d="M576.3,116.6a22,22,0,0,0,.9,2.1l-1.3.5-.5-1.3h-.1a2.9,2.9,0,0,1-2,2.4c-1.2.4-2.9.3-3.9-2.5l-1.6-4.5,1.4-.5,1.5,4.3c.6,1.5,1.4,2.3,2.6,1.9a2.2,2.2,0,0,0,1.4-2,2.5,2.5,0,0,0-.1-.8l-1.7-4.7,1.4-.5Z" style="fill: #fff"/>
        <path d="M577.4,112.3c-.3-.8-.5-1.5-.8-2.1l1.3-.5.5,1.3h0a3.1,3.1,0,0,1,2.1-2.4c1-.4,2.9-.3,3.9,2.3l1.6,4.7-1.4.5-1.6-4.5c-.4-1.3-1.3-2.1-2.6-1.7a2.4,2.4,0,0,0-1.4,2.2,1.4,1.4,0,0,0,.2.6l1.6,4.7-1.4.5Z" style="fill: #fff"/>
        <path d="M586.4,104.2l.8,2.2,2-.7.4,1.1-2,.7,1.5,4.2c.3.9.8,1.4,1.6,1.1l.7-.4.5,1-1.2.7a1.9,1.9,0,0,1-1.7-.1,2.8,2.8,0,0,1-1.3-1.8l-1.5-4.2-1.2.4-.4-1.1,1.2-.4-.7-1.9Z" style="fill: #fff"/>
        <path d="M597.8,111.3l-.4-.9h-.1a2.9,2.9,0,0,1-1.9,2,2.3,2.3,0,0,1-3.2-1.4c-.7-1.8.6-3.4,3.6-4.5v-.2a1.7,1.7,0,0,0-2.4-1.1,3.4,3.4,0,0,0-1.8,1.3l-.7-.8a4.8,4.8,0,0,1,2.3-1.6c2.4-.9,3.5.5,4.1,2.1l1,2.9c.3.6.5,1.3.8,1.8Zm-1.6-3.8c-1.5.5-3.2,1.4-2.6,2.9a1.4,1.4,0,0,0,1.8.9,2.2,2.2,0,0,0,1.4-2,.9.9,0,0,0-.1-.5Z" style="fill: #fff"/>
        <path d="M599.4,104.8c-.4-.9-.6-1.7-1-2.4l1.3-.4.6,1.5h0a2.4,2.4,0,0,1,1.6-2.4h.4l.5,1.3h-.5a2.2,2.2,0,0,0-1.3,2.5c.1.2.1.5.2.7l1.5,4.1-1.4.5Z" style="fill: #fff"/>
        <path d="M604.6,97.7a.9.9,0,0,1-.6,1.2.8.8,0,0,1-1.1-.5.9.9,0,0,1,.5-1.2A.9.9,0,0,1,604.6,97.7Zm2,10.5-2.8-7.7,1.4-.5,2.8,7.7Z" style="fill: #fff"/>
        <path d="M614.6,105.4l-.5-1h0a2.9,2.9,0,0,1-2,1.9,2.3,2.3,0,0,1-3.1-1.3c-.7-1.9.6-3.5,3.6-4.6h0c-.3-.7-.9-1.8-2.4-1.2a4.3,4.3,0,0,0-1.9,1.3l-.6-.8a4.4,4.4,0,0,1,2.3-1.6c2.4-.9,3.5.6,4.1,2.1l1,2.9a7.5,7.5,0,0,0,.8,1.8Zm-1.6-3.9c-1.6.5-3.2,1.4-2.7,2.9a1.4,1.4,0,0,0,1.8.9,2.3,2.3,0,0,0,1.5-2,.7.7,0,0,1-.1-.5Z" style="fill: #fff"/>
        <path d="M617.8,106.4a20.3,20.3,0,0,0-.4-4.1l1.5-.7a15.7,15.7,0,0,1-.1,4.4Z" style="fill: #fff"/>
      </g>
      <g>
        <path d="M568.9,248l-4.4-.3-.3,4.1,4.9.3v1.3l-6.5-.4.8-11.5,6.1.4v1.3l-4.7-.3-.3,3.6,4.5.3Z" style="fill: #fff"/>
        <path d="M571.3,247.5a17,17,0,0,0,.1-2.2h1.3v1.3h0a3.2,3.2,0,0,1,2.9-1.3c1.1,0,2.8.8,2.6,3.6l-.3,4.9h-1.5l.3-4.7c.1-1.3-.3-2.4-1.7-2.5a2,2,0,0,0-2.1,1.4c-.1.1-.1.4-.2.6l-.3,5h-1.5Z" style="fill: #fff"/>
        <path d="M584.9,254.4v-1.1h0a2.8,2.8,0,0,1-2.6,1.1,2.4,2.4,0,0,1-2.4-2.5c.2-2,2-3,5.2-2.8h0a1.7,1.7,0,0,0-1.8-2,3.8,3.8,0,0,0-2.1.4l-.3-1a4.7,4.7,0,0,1,2.7-.5c2.5.1,3,1.9,2.9,3.5l-.2,3.1v2Zm0-4.2c-1.6-.2-3.5,0-3.6,1.6a1.3,1.3,0,0,0,1.4,1.5,1.8,1.8,0,0,0,2-1.2.9.9,0,0,0,.1-.5Z" style="fill: #fff"/>
        <path d="M586.4,256.9a2.1,2.1,0,0,0,1.6-.6c.5-.4.7-1,.8-3l.4-6.9h1.5l-.4,7.5c-.2,1.6-.5,2.6-1.3,3.3a3.6,3.6,0,0,1-2.6.7Zm4.6-12.7a.9.9,0,0,1-.9.9,1,1,0,0,1-.9-1,.9.9,0,0,1,1-.9C590.8,243.3,591.1,243.7,591,244.2Z" style="fill: #fff"/>
        <path d="M593.7,251.1a2.7,2.7,0,0,0,2.7,3,5.3,5.3,0,0,0,2.3-.2v1a5.8,5.8,0,0,1-2.7.4,3.8,3.8,0,0,1-3.8-4.4c.2-2.5,1.7-4.4,4.1-4.2s3.3,2.6,3.2,4.1-.1.5-.1.7Zm4.5-.8c0-.9-.3-2.4-1.9-2.5a2.4,2.4,0,0,0-2.5,2.2Z" style="fill: #fff"/>
        <path d="M601.5,249.4a17,17,0,0,0,.1-2.2h1.3v1.4h.1a2.8,2.8,0,0,1,2.8-1.4c1.1.1,2.8.9,2.6,3.7l-.3,4.9h-1.5l.3-4.7c.1-1.4-.3-2.5-1.7-2.6a2.1,2.1,0,0,0-2.1,1.4,1.5,1.5,0,0,0-.1.7l-.4,4.9h-1.5Z" style="fill: #fff"/>
        <path d="M615.1,256.3v-1H615a3,3,0,0,1-2.6,1,2.3,2.3,0,0,1-2.3-2.5c.1-2,1.9-2.9,5.1-2.7v-.2c0-.7-.1-1.9-1.7-2a3.3,3.3,0,0,0-2.2.5l-.3-1a4.7,4.7,0,0,1,2.7-.6c2.6.2,3.1,1.9,3,3.6l-.2,3a6.7,6.7,0,0,0,0,2Zm.1-4.2c-1.7-.1-3.5.1-3.6,1.6a1.4,1.4,0,0,0,1.3,1.6,2,2,0,0,0,2-1.3.8.8,0,0,0,.2-.5Z" style="fill: #fff"/>
        <path d="M624.6,256.6a6.1,6.1,0,0,1-2.4.4,3.9,3.9,0,0,1-3.8-4.5,4.3,4.3,0,0,1,4.7-4.1,6,6,0,0,1,2,.6l-.4,1.1a4.3,4.3,0,0,0-1.7-.5,3.1,3.1,0,0,0-.4,6.2,4.2,4.2,0,0,0,1.8-.3Z" style="fill: #fff"/>
        <path d="M626.3,257l.6-8.2h1.5l-.6,8.2Zm2.4-10.4a1,1,0,0,1-1.9-.1,1.1,1.1,0,0,1,1-.9A1,1,0,0,1,628.7,246.6Z" style="fill: #fff"/>
        <path d="M638,253.6a4.1,4.1,0,0,1-4.4,4.1c-2.2-.1-3.8-1.9-3.6-4.5a4,4,0,0,1,4.3-4.1A3.9,3.9,0,0,1,638,253.6Zm-6.5-.3c-.1,1.8.8,3.2,2.3,3.3s2.6-1.2,2.7-3-.5-3.2-2.3-3.4S631.6,251.7,631.5,253.3Zm5.2-7.4-2.2,2.3h-1.1l1.7-2.3Z" style="fill: #fff"/>
        <path d="M640,251.9a17,17,0,0,0,.1-2.2h1.3v1.3h0a3.2,3.2,0,0,1,2.8-1.3c1.2,0,2.9.8,2.7,3.6l-.3,5h-1.5l.3-4.8c.1-1.3-.3-2.4-1.7-2.5a2.1,2.1,0,0,0-2.1,1.4,1.4,1.4,0,0,0-.2.7l-.3,4.9h-1.5Z" style="fill: #fff"/>
        <path d="M565.7,262.1l6.1.4v1.2l-4.6-.3-.3,3.8,4.3.3v1.2l-4.4-.2-.3,5.1h-1.5Z" style="fill: #fff"/>
        <path d="M580.3,270.3c-.2,3.1-2.4,4.3-4.4,4.1a3.8,3.8,0,0,1-3.6-4.4,3.9,3.9,0,0,1,4.3-4.1A3.8,3.8,0,0,1,580.3,270.3Zm-6.5-.3c-.1,1.8.8,3.2,2.3,3.3s2.6-1.2,2.7-3-.5-3.2-2.3-3.3S573.9,268.4,573.8,270Z" style="fill: #fff"/>
        <path d="M582.3,269c0-1,.1-1.8.1-2.6h1.3v1.6h.1a2.3,2.3,0,0,1,2.4-1.6h.4V268h-.5a2.1,2.1,0,0,0-2.1,1.8,1.5,1.5,0,0,0-.1.7l-.3,4.3h-1.5Z" style="fill: #fff"/>
        <path d="M586.7,274.1l4.1-4.6,1.1-1.2h0l-4.4-.2v-1.2l6.2.4v.9l-3.9,4.5a13.6,13.6,0,0,1-1.2,1.2h0l4.8.3v1.2l-6.7-.5Z" style="fill: #fff"/>
        <path d="M602.5,271.8a4.1,4.1,0,0,1-4.4,4.1,4,4,0,0,1-3.7-4.5c.2-2.8,2.1-4.3,4.4-4.1S602.6,269.3,602.5,271.8Zm-6.6-.4c-.1,1.8.9,3.3,2.3,3.3s2.6-1.1,2.7-3-.5-3.2-2.2-3.3S596,269.9,595.9,271.4Z" style="fill: #fff"/>
        <path d="M604,274.5a3.6,3.6,0,0,0,1.9.7c1.1.1,1.6-.4,1.7-1.1s-.4-1.1-1.5-1.6-2-1.5-2-2.4,1.2-2.4,3-2.3a4.7,4.7,0,0,1,2,.7l-.4,1a4.7,4.7,0,0,0-1.7-.6c-.9,0-1.4.5-1.4,1.1s.4,1,1.4,1.5,2.1,1.4,2,2.6-1.3,2.4-3.2,2.2a4.2,4.2,0,0,1-2.3-.7Z" style="fill: #fff"/>
        <path d="M615.3,276.8v-1.1h-.1a2.8,2.8,0,0,1-2.6,1.1,2.3,2.3,0,0,1-2.3-2.5c.1-2,2-3,5.1-2.8h0a1.6,1.6,0,0,0-1.7-2,4,4,0,0,0-2.2.4l-.3-1a4.9,4.9,0,0,1,2.8-.5c2.5.1,3,1.9,2.9,3.5l-.2,3.1a6.7,6.7,0,0,0,0,2Zm.1-4.2c-1.6-.2-3.5,0-3.6,1.6a1.2,1.2,0,0,0,1.3,1.5,2,2,0,0,0,2.1-1.2c0-.2.1-.3.1-.5Z" style="fill: #fff"/>
        <path d="M617.9,279a19.9,19.9,0,0,0,1.2-3.9h1.7a18.7,18.7,0,0,1-1.9,4Z" style="fill: #fff"/>
      </g>
      <g>
        <path d="M563,295.3h3.2c2.1.2,3.5.8,4.4,1.9a4.9,4.9,0,0,1,1.2,4.2,5.9,5.9,0,0,1-2.1,4.3c-1.1,1-2.9,1.3-5.2,1.1l-2.6-.4Zm.5,10.2,1.4.3c3.2.3,5.1-1.3,5.4-4.4s-1.1-4.5-4.2-4.8h-1.7Z" style="fill: #fff"/>
        <path d="M574.4,304a2.6,2.6,0,0,0,2.5,3.1,5.1,5.1,0,0,0,2.3-.2V308a6.6,6.6,0,0,1-2.7.2,3.8,3.8,0,0,1-3.6-4.5c.2-2.5,1.9-4.3,4.3-4s3.1,2.6,2.9,4.1,0,.6-.1.7Zm4.4-.7a2.1,2.1,0,0,0-1.8-2.6,2.5,2.5,0,0,0-2.5,2.2Z" style="fill: #fff"/>
        <path d="M581.6,307a4.2,4.2,0,0,0,1.9.8c1.1.1,1.6-.4,1.7-1.1s-.3-1.1-1.4-1.6-2-1.6-1.9-2.6,1.3-2.2,3.1-2.1a4.2,4.2,0,0,1,1.9.7l-.5,1.1a3.4,3.4,0,0,0-1.6-.7c-.9,0-1.4.4-1.5,1s.4,1.1,1.5,1.6,2,1.4,1.8,2.7-1.3,2.3-3.3,2.1a4.4,4.4,0,0,1-2.2-.8Z" style="fill: #fff"/>
        <path d="M592.9,309.7v-1.1h0a3.1,3.1,0,0,1-2.6,1,2.4,2.4,0,0,1-2.3-2.6c.2-2,2.1-2.9,5.2-2.5v-.2c0-.7,0-1.9-1.7-2.1a4,4,0,0,0-2.2.4l-.2-1a4.7,4.7,0,0,1,2.7-.5c2.5.3,3,2,2.8,3.7l-.3,3a15.6,15.6,0,0,0-.1,2Zm.2-4.2c-1.7-.2-3.5-.1-3.7,1.5a1.3,1.3,0,0,0,1.3,1.5,2,2,0,0,0,2.1-1.1.9.9,0,0,0,.1-.5Z" style="fill: #fff"/>
        <path d="M597.1,304.4c0-.9.1-1.8.1-2.5h1.3v1.6h.1a2.6,2.6,0,0,1,2.4-1.6h.5l-.2,1.4h-.5a2.2,2.2,0,0,0-2.2,1.8c0,.2-.1.4-.1.6l-.4,4.4h-1.5Z" style="fill: #fff"/>
        <path d="M602.7,305c0-1,.1-1.8.1-2.6l1.3.2v1.6h.1a2.4,2.4,0,0,1,2.4-1.6h.5l-.2,1.4h-.5a2.1,2.1,0,0,0-2.2,1.7c0,.2-.1.5-.1.7l-.4,4.4-1.5-.2Z" style="fill: #fff"/>
        <path d="M615.3,307.8a4,4,0,0,1-4.5,3.9c-2.3-.2-3.8-2-3.5-4.6a4,4,0,0,1,4.5-4C614.1,303.4,615.5,305.2,615.3,307.8Zm-6.5-.6c-.2,1.8.7,3.2,2.1,3.4s2.7-1.1,2.8-3-.3-3.2-2.1-3.3S608.9,305.6,608.8,307.2Z" style="fill: #fff"/>
        <path d="M617.9,300.1h1.5l-1.2,12.1-1.5-.2Z" style="fill: #fff"/>
        <path d="M621.9,300.5h1.5l-1.2,12.1-1.5-.2Z" style="fill: #fff"/>
        <path d="M632.5,309.5a4,4,0,0,1-4.5,3.9c-2.2-.2-3.7-2-3.5-4.6a4.1,4.1,0,0,1,4.5-3.9C631.4,305.1,632.8,307,632.5,309.5Zm-6.5-.6c-.1,1.8.8,3.3,2.2,3.4s2.6-1.1,2.8-2.9-.4-3.2-2.1-3.4S626.2,307.4,626,308.9Z" style="fill: #fff"/>
        <path d="M560.3,321.3c.1-1,.2-1.9.2-2.6h1.4v1.4h0a3.5,3.5,0,0,1,3.1-1.3c2,.2,3.3,2,3,4.5s-2.2,4.2-4.1,4a2.7,2.7,0,0,1-2.4-1.5h0l-.5,4.4h-1.5Zm1.3,2.4v.6a2.3,2.3,0,0,0,2,1.9c1.6.2,2.7-1,2.9-2.9s-.6-3.1-2.2-3.3a2.4,2.4,0,0,0-2.4,1.7,1.1,1.1,0,0,0-.2.6Z" style="fill: #fff"/>
        <path d="M570,322.2c.1-1,.1-1.8.2-2.6l1.3.2-.2,1.6h.1a2.5,2.5,0,0,1,2.5-1.6h.4l-.2,1.4h-.5a2.2,2.2,0,0,0-2.2,1.7c0,.2-.1.4-.1.7l-.4,4.4-1.5-.2Z" style="fill: #fff"/>
        <path d="M575,328.4l.8-8.2h1.5l-.8,8.2Zm2.7-10.3c0,.5-.4.8-1,.8s-.9-.5-.8-1a1,1,0,0,1,1-.9A.9.9,0,0,1,577.7,318.1Z" style="fill: #fff"/>
        <path d="M586.8,325.4a4,4,0,0,1-4.5,3.9,3.9,3.9,0,0,1-3.5-4.6,3.9,3.9,0,0,1,4.5-3.9C585.6,321,587,322.9,586.8,325.4Zm-6.5-.6c-.2,1.8.7,3.3,2.1,3.4s2.7-1.1,2.9-2.9-.4-3.2-2.2-3.4S580.4,323.2,580.3,324.8Z" style="fill: #fff"/>
        <path d="M588.8,324.1c.1-1,.2-1.8.2-2.6l1.3.2v1.6h.1a2.3,2.3,0,0,1,2.4-1.6h.4v1.4h-.5a2.1,2.1,0,0,0-2.2,1.7,1.7,1.7,0,0,0-.1.7l-.5,4.4-1.5-.2Z" style="fill: #fff"/>
        <path d="M593.8,330.3l.9-8.2,1.5.2-.9,8.1Zm2.8-10.3a.9.9,0,0,1-1.1.8,1,1,0,0,1-.8-1,.9.9,0,0,1,1-.8C596.3,319,596.6,319.4,596.6,320Z" style="fill: #fff"/>
        <path d="M600.7,320.3l-.3,2.4,2.1.2V324l-2.1-.2-.4,4.4c-.1,1,.1,1.7.9,1.7a1.4,1.4,0,0,0,.9,0V331a2.5,2.5,0,0,1-1.3.1,1.9,1.9,0,0,1-1.5-.8,2.9,2.9,0,0,1-.4-2.2l.4-4.4-1.2-.2v-1.1H599l.2-1.9Z" style="fill: #fff"/>
        <path d="M607.9,331.7v-1h0a3.3,3.3,0,0,1-2.7.9A2.2,2.2,0,0,1,603,329c.2-2,2-2.9,5.2-2.5v-.2a1.7,1.7,0,0,0-1.7-2.1,4.9,4.9,0,0,0-2.1.4l-.3-1a4.2,4.2,0,0,1,2.8-.4c2.5.2,2.9,2,2.8,3.6l-.4,3.1a13.3,13.3,0,0,0,0,2Zm.2-4.2c-1.6-.2-3.5-.1-3.6,1.5a1.3,1.3,0,0,0,1.2,1.6,2.2,2.2,0,0,0,2.2-1.2,4.3,4.3,0,0,0,.1-.5Z" style="fill: #fff"/>
        <path d="M612.1,326.4a22.9,22.9,0,0,0,.2-2.5h1.3v1.6h.1a2.4,2.4,0,0,1,2.4-1.5h.4v1.4h-.5a2.1,2.1,0,0,0-2.2,1.7,1.5,1.5,0,0,0-.1.7l-.5,4.3h-1.5Z" style="fill: #fff"/>
        <path d="M617.1,332.6l.9-8.1h1.5l-.9,8.2Zm2.8-10.3a.9.9,0,0,1-1.1.8c-.5,0-.8-.4-.8-1a1,1,0,0,1,1.9.2Z" style="fill: #fff"/>
        <path d="M628.9,329.6c-.3,3.1-2.5,4.2-4.5,4a4,4,0,0,1-3.5-4.6c.3-2.8,2.2-4.2,4.5-4A3.9,3.9,0,0,1,628.9,329.6Zm-6.5-.5c-.2,1.8.7,3.2,2.2,3.4s2.6-1.1,2.8-3-.4-3.2-2.1-3.4S622.6,327.5,622.4,329.1Z" style="fill: #fff"/>
        <path d="M628.8,335.9a19.8,19.8,0,0,0,1.4-3.9h1.7a19.9,19.9,0,0,1-2,3.9Z" style="fill: #fff"/>
      </g>
      <g>
        <path d="M559.6,345.8l3.1.6a6.8,6.8,0,0,1,4.1,2.6,5.4,5.4,0,0,1,.5,4.4,6.4,6.4,0,0,1-2.8,3.9,7.2,7.2,0,0,1-5.3.2l-2.6-.9Zm-1.3,10.1a5.3,5.3,0,0,0,1.5.5c3,.9,5.1-.4,6-3.3s-.3-4.7-3.3-5.5a9.5,9.5,0,0,0-1.7-.4Z" style="fill: #fff"/>
        <path d="M569.4,356.2a2.6,2.6,0,0,0,1.9,3.5,4.9,4.9,0,0,0,2.3.2V361a5.7,5.7,0,0,1-2.8-.2,3.9,3.9,0,0,1-2.8-5.1c.7-2.4,2.6-3.9,4.9-3.2s2.7,3.2,2.3,4.6l-.3.7Zm4.5.2c.2-.9.2-2.5-1.4-2.9a2.4,2.4,0,0,0-2.8,1.7Z" style="fill: #fff"/>
        <path d="M577.2,356.5c.3-.9.5-1.7.7-2.5l1.2.4-.4,1.6h.1a2.4,2.4,0,0,1,2.7-1.1h.4l-.4,1.4-.5-.2a2.1,2.1,0,0,0-2.4,1.3l-.3.7-1.1,4.2-1.5-.4Z" style="fill: #fff"/>
        <path d="M582.8,360a2.6,2.6,0,0,0,1.9,3.5,10.6,10.6,0,0,0,2.3.2v1.1a7.9,7.9,0,0,1-2.8-.3,3.9,3.9,0,0,1-2.8-5.1c.7-2.4,2.6-3.8,4.9-3.2s2.7,3.2,2.3,4.6a2.4,2.4,0,0,1-.3.7Zm4.5.1c.2-.9.2-2.5-1.4-2.9a2.4,2.4,0,0,0-2.8,1.7Z" style="fill: #fff"/>
        <path d="M594.9,367a5.3,5.3,0,0,1-2.4-.2,4,4,0,0,1-2.9-5.1,4.3,4.3,0,0,1,5.5-3.1,5.7,5.7,0,0,1,1.8,1l-.6,1a3.4,3.4,0,0,0-1.6-.8,2.9,2.9,0,0,0-3.6,2.2,2.8,2.8,0,0,0,1.9,3.7,3.2,3.2,0,0,0,1.9.1Z" style="fill: #fff"/>
        <path d="M599.7,356.1l1.4.4-1.3,5h0a2.9,2.9,0,0,1,1.3-.8h1.6c1.1.3,2.6,1.5,1.8,4.2l-1.3,4.7-1.4-.4,1.2-4.5c.4-1.3.2-2.5-1.1-2.9a2.2,2.2,0,0,0-2.4.9l-.3.7-1.3,4.7-1.4-.4Z" style="fill: #fff"/>
        <path d="M613.9,368.2c-.9,3-3.2,3.7-5.2,3.1a3.9,3.9,0,0,1-2.6-5.1,4,4,0,0,1,5.1-3.1A4,4,0,0,1,613.9,368.2Zm-6.4-1.6c-.4,1.7.2,3.3,1.6,3.7s2.8-.6,3.3-2.4.1-3.3-1.6-3.7S608,365.1,607.5,366.6Z" style="fill: #fff"/>
        <path d="M628.1,364l-2.7,9.6-.5,2-1.3-.3.4-1.4h-.1a3.2,3.2,0,0,1-3.1.8c-1.9-.5-2.9-2.6-2.3-5s2.8-3.8,4.8-3.3a2.9,2.9,0,0,1,2,1.9h0l1.4-4.7Zm-3.4,6.5a1.3,1.3,0,0,0,.1-.6,2,2,0,0,0-1.6-2.2c-1.5-.5-2.7.6-3.2,2.4s0,3.1,1.5,3.5a2.2,2.2,0,0,0,2.6-1.1l.3-.6Z" style="fill: #fff"/>
        <path d="M629.1,372.8a2.6,2.6,0,0,0,1.9,3.5,5.3,5.3,0,0,0,2.4.2v1.1a7.3,7.3,0,0,1-2.8-.2,3.8,3.8,0,0,1-2.7-5.1c.6-2.4,2.5-3.9,4.9-3.2s2.6,3.1,2.2,4.6a2.5,2.5,0,0,0-.2.7Zm4.5.2c.3-1,.3-2.5-1.3-2.9a2.5,2.5,0,0,0-2.9,1.7Z" style="fill: #fff"/>
        <path d="M552.6,371a18.5,18.5,0,0,0,.6-2.6l1.3.3-.3,1.4h0a3.3,3.3,0,0,1,3.3-.7c1.9.5,2.9,2.5,2.2,4.9s-2.9,3.8-4.8,3.3a3.1,3.1,0,0,1-2.1-1.9h0l-1.2,4.3-1.4-.4Zm.8,2.5c0,.2-.1.4-.1.6a2.4,2.4,0,0,0,1.7,2.3c1.5.4,2.8-.6,3.3-2.4s-.1-3.2-1.6-3.6a2.2,2.2,0,0,0-2.6,1.2.9.9,0,0,0-.3.5Z" style="fill: #fff"/>
        <path d="M561.9,373.5a17.6,17.6,0,0,0,.6-2.5l1.3.3-.4,1.6h.1a2.3,2.3,0,0,1,2.7-1.1h.4l-.4,1.4-.5-.2a2.1,2.1,0,0,0-2.4,1.3l-.3.7-1.2,4.2-1.4-.4Z" style="fill: #fff"/>
        <path d="M567.4,376.9a2.7,2.7,0,0,0,2,3.5,4.9,4.9,0,0,0,2.3.2v1.1a6,6,0,0,1-2.8-.3c-2.5-.6-3.5-2.6-2.8-5s2.6-3.9,4.9-3.3,2.6,3.2,2.2,4.7a.8.8,0,0,1-.2.6Zm4.5.1a2.1,2.1,0,0,0-1.3-2.9,2.6,2.6,0,0,0-2.9,1.7Z" style="fill: #fff"/>
        <path d="M574,382.7l1.9-6.9-1.2-.3.3-1.1,1.2.3v-.3a3.6,3.6,0,0,1,1.7-2.5,2.6,2.6,0,0,1,2.1-.2,3.3,3.3,0,0,1,1.2.5l-.6,1.1c-.1-.2-.4-.3-.8-.5s-1.9.7-2.2,1.9v.4l1.9.6-.3,1.1-1.9-.6-1.9,6.9Z" style="fill: #fff"/>
        <path d="M580.2,380.4a2.6,2.6,0,0,0,2,3.5,4.9,4.9,0,0,0,2.3.2v1.1a6.8,6.8,0,0,1-2.7-.2,3.8,3.8,0,0,1-2.8-5.1c.6-2.4,2.6-3.9,4.9-3.2s2.6,3.2,2.2,4.6a2.5,2.5,0,0,0-.2.7Zm4.5.2c.3-1,.3-2.5-1.3-2.9a2.5,2.5,0,0,0-2.9,1.7Z" style="fill: #fff"/>
        <path d="M588.1,380.7a12.9,12.9,0,0,0,.6-2.5l1.3.4-.4,1.5h.1a2.5,2.5,0,0,1,2.6-1.2l.4.2-.3,1.4-.5-.2a2.2,2.2,0,0,0-2.5,1.3,1.4,1.4,0,0,1-.2.6l-1.2,4.3-1.4-.4Z" style="fill: #fff"/>
        <path d="M593.6,384.1a2.6,2.6,0,0,0,2,3.5,4.9,4.9,0,0,0,2.3.2v1.1a5.3,5.3,0,0,1-2.7-.2,3.8,3.8,0,0,1-2.8-5.1c.6-2.4,2.6-3.9,4.9-3.2s2.6,3.2,2.2,4.6a2.5,2.5,0,0,0-.2.7Zm4.5.2a2.1,2.1,0,0,0-1.3-2.9,2.5,2.5,0,0,0-2.9,1.7Z" style="fill: #fff"/>
        <path d="M601.6,384.1a22.5,22.5,0,0,0,.5-2.2l1.3.4-.3,1.3h.1a3,3,0,0,1,3-.7c1.1.3,2.6,1.4,1.9,4.1l-1.4,4.8-1.4-.4,1.3-4.6c.3-1.3.1-2.5-1.2-2.9a2.2,2.2,0,0,0-2.4,1,1.1,1.1,0,0,0-.2.6l-1.4,4.8-1.4-.4Z" style="fill: #fff"/>
        <path d="M614.8,393.7a5.5,5.5,0,0,1-2.4-.2,3.8,3.8,0,0,1-2.8-5.1,4.2,4.2,0,0,1,5.4-3.1,5.4,5.4,0,0,1,1.9,1l-.6,1a3.4,3.4,0,0,0-1.6-.8,2.8,2.8,0,0,0-3.6,2.2,2.8,2.8,0,0,0,1.9,3.7,3.2,3.2,0,0,0,1.9.1Z" style="fill: #fff"/>
        <path d="M616.4,394.5l2.2-8,1.5.4-2.2,8Zm4.4-9.8a.9.9,0,0,1-1.1.7.9.9,0,0,1-.6-1.2.9.9,0,0,1,1.1-.6A.8.8,0,0,1,620.8,384.7Z" style="fill: #fff"/>
        <path d="M624.6,396.7l.2-1h0a3.3,3.3,0,0,1-2.8.5,2.4,2.4,0,0,1-1.8-3c.5-1.9,2.5-2.4,5.6-1.6h0a1.7,1.7,0,0,0-1.2-2.4,4.5,4.5,0,0,0-2.3,0v-1a5.3,5.3,0,0,1,2.8,0c2.4.7,2.5,2.5,2.1,4.1l-.8,3a7.2,7.2,0,0,0-.4,1.9Zm1-4.1c-1.6-.4-3.5-.7-3.9.9a1.2,1.2,0,0,0,1,1.7,2.1,2.1,0,0,0,2.3-.8c.1-.1.1-.2.2-.4Z" style="fill: #fff"/>
      </g>
      <g>
        <path d="M557.8,146.6l-4.3,1.2,1.1,3.9,4.8-1.2.3,1.2-6.2,1.6-3-11,6-1.6.3,1.2-4.5,1.2.9,3.5,4.3-1.2Z" style="fill: #fff"/>
        <path d="M560.1,143.1l1.6,1.4,1.1,1h.1a8.3,8.3,0,0,1,.4-1.5l.7-2,1.5-.4-1.7,4.6,3.9,3.3-1.6.5-1.7-1.5-1.2-1.2h0a7.5,7.5,0,0,1-.5,1.6L562,151l-1.5.5,1.7-4.8-3.7-3.2Z" style="fill: #fff"/>
        <path d="M567.7,143.8c-.3-1-.5-1.8-.8-2.6l1.3-.3.5,1.3h0a3.3,3.3,0,0,1,2.4-2.3c1.9-.5,3.8.7,4.5,3.2s-.6,4.7-2.5,5.2a2.8,2.8,0,0,1-2.8-.6h0l1.1,4.3-1.4.4Zm2,1.7a1.4,1.4,0,0,0,.2.6,2.3,2.3,0,0,0,2.6,1.1c1.6-.4,2.1-1.9,1.6-3.7s-1.6-2.7-3.1-2.3a2.3,2.3,0,0,0-1.7,2.4v.6Z" style="fill: #fff"/>
        <path d="M577,141.2c-.2-1-.5-1.8-.7-2.5l1.2-.3.5,1.5h.1a2.4,2.4,0,0,1,1.7-2.3h.4l.4,1.4h-.5a2,2,0,0,0-1.4,2.3,1.7,1.7,0,0,0,.1.7l1.1,4.3-1.4.4Z" style="fill: #fff"/>
        <path d="M589.8,139.3a4,4,0,0,1-2.8,5.3,3.9,3.9,0,0,1-4.9-3.1,4,4,0,0,1,2.8-5.3C587.2,135.6,589.1,136.9,589.8,139.3Zm-6.3,1.8c.5,1.7,1.8,2.8,3.2,2.4s2.1-2,1.6-3.8-1.5-2.8-3.2-2.4S583.1,139.6,583.5,141.1Z" style="fill: #fff"/>
        <path d="M591.3,137.5c-.3-1-.6-1.8-.8-2.6l1.3-.3.4,1.3h.1a3.3,3.3,0,0,1,2.4-2.3c1.9-.5,3.8.7,4.4,3.2s-.6,4.7-2.4,5.2a2.8,2.8,0,0,1-2.8-.6h-.1l1.2,4.3-1.4.4Zm2,1.7a1.4,1.4,0,0,0,.2.6,2.3,2.3,0,0,0,2.6,1.1c1.5-.4,2.1-1.9,1.6-3.7s-1.6-2.7-3.2-2.3a2.4,2.4,0,0,0-1.7,2.4,1.5,1.5,0,0,0,.1.6Z" style="fill: #fff"/>
        <path d="M600.9,129.7a.9.9,0,0,1-.7,1.2,1,1,0,0,1-1.1-.7.9.9,0,0,1,.7-1.1A.8.8,0,0,1,600.9,129.7Zm1.1,10.7-2.1-8,1.5-.4,2.1,8Z" style="fill: #fff"/>
        <path d="M610.3,138.2l-.4-1h0a3.2,3.2,0,0,1-2.2,1.8,2.3,2.3,0,0,1-3-1.6c-.5-1.9.9-3.4,4-4.2V133a1.7,1.7,0,0,0-2.3-1.4,4.7,4.7,0,0,0-1.9,1.2l-.6-.9a6.1,6.1,0,0,1,2.5-1.4c2.4-.6,3.4.9,3.9,2.5l.8,2.9a8.5,8.5,0,0,0,.6,1.9Zm-1.3-4c-1.6.3-3.3,1.1-2.9,2.6a1.3,1.3,0,0,0,1.7,1.1,2.2,2.2,0,0,0,1.6-1.9v-.5Z" style="fill: #fff"/>
        <path d="M619.4,135.4a5.4,5.4,0,0,1-2.2,1.1,3.9,3.9,0,0,1-5-3,4.1,4.1,0,0,1,3.1-5.4,5.2,5.2,0,0,1,2.1-.1v1.2a2.9,2.9,0,0,0-1.8.1,2.8,2.8,0,0,0-2,3.7,2.9,2.9,0,0,0,3.6,2.3,4.5,4.5,0,0,0,1.6-.9Z" style="fill: #fff"/>
        <path d="M620,124.6a.9.9,0,0,1-.6,1.2.9.9,0,0,1-1.1-.7.8.8,0,0,1,.6-1.1A.8.8,0,0,1,620,124.6Zm1.2,10.6-2.2-7.9,1.5-.4,2.1,8Z" style="fill: #fff"/>
        <path d="M631.1,128.3a3.9,3.9,0,0,1-2.8,5.2,3.8,3.8,0,0,1-4.9-3c-.7-2.7.6-4.7,2.8-5.3A3.8,3.8,0,0,1,631.1,128.3Zm-6.3,1.7c.5,1.8,1.8,2.8,3.3,2.4s2-1.9,1.5-3.7-1.4-2.9-3.2-2.4S624.4,128.5,624.8,130Zm2.6-8.6-1.4,2.9-1,.2.8-2.7Z" style="fill: #fff"/>
        <path d="M632.5,126l-.7-2.1,1.3-.4.4,1.3h.1a3.2,3.2,0,0,1,2.2-2.2c1.1-.3,3-.1,3.7,2.7l1.3,4.7-1.5.4-1.2-4.6c-.3-1.3-1.1-2.2-2.5-1.9a2.2,2.2,0,0,0-1.5,2,1.7,1.7,0,0,0,.1.7l1.3,4.8-1.5.4Z" style="fill: #fff"/>
        <path d="M558.1,161.4l1.4-.4,2,7.4c.8,2.9-.4,4.2-2.3,4.7a5,5,0,0,1-1.6.2V172a1.7,1.7,0,0,0,1.2-.1c1.3-.3,1.9-1.1,1.3-3.2Z" style="fill: #fff"/>
        <path d="M570.9,167.5q.3,1.2.6,2.1l-1.3.4-.4-1.3h0a3.4,3.4,0,0,1-2.3,2.2c-1.2.3-2.9,0-3.6-2.8l-1.3-4.6,1.5-.4,1.1,4.4c.4,1.5,1.2,2.4,2.5,2.1a2.2,2.2,0,0,0,1.5-1.9c.1-.2,0-.5,0-.7l-1.3-4.9,1.4-.4Z" style="fill: #fff"/>
        <path d="M577.6,155.5l2.6,9.6a12.9,12.9,0,0,0,.6,2.1l-1.3.3-.5-1.4h0a2.9,2.9,0,0,1-2.3,2.3c-1.9.5-3.8-.7-4.5-3.1s.5-4.7,2.5-5.2a2.7,2.7,0,0,1,2.7.6h0l-1.3-4.7Zm.4,7.3c-.1-.1-.1-.4-.2-.5a2.3,2.3,0,0,0-2.6-1.2c-1.5.4-2,2-1.5,3.7s1.5,2.8,3.1,2.4a2.4,2.4,0,0,0,1.7-2.3c0-.2-.1-.4-.1-.7Z" style="fill: #fff"/>
        <path d="M582,155.9a1,1,0,0,1-.7,1.2.9.9,0,0,1-1.1-.7.9.9,0,0,1,.7-1.1A.8.8,0,0,1,582,155.9Zm1.1,10.6-2.1-7.9,1.4-.4,2.1,7.9Z" style="fill: #fff"/>
        <path d="M592.5,163.7a5.6,5.6,0,0,1-2.1,1.1,4,4,0,0,1-5.1-3,4.3,4.3,0,0,1,3.2-5.4,5.2,5.2,0,0,1,2.1-.1v1.2a2.9,2.9,0,0,0-1.8.1,2.8,2.8,0,0,0-2,3.7c.5,1.8,1.9,2.7,3.5,2.2a4.5,4.5,0,0,0,1.7-.8Z" style="fill: #fff"/>
        <path d="M593.2,152.9a1,1,0,0,1-.7,1.2.9.9,0,0,1-1.1-.7.9.9,0,0,1,.7-1.1A.8.8,0,0,1,593.2,152.9Zm1.1,10.6-2.1-7.9,1.4-.4,2.1,8Z" style="fill: #fff"/>
        <path d="M602.5,161.3l-.3-.9h-.1a3.2,3.2,0,0,1-2.1,1.8,2.3,2.3,0,0,1-3-1.6c-.6-1.9.9-3.5,3.9-4.3h0a1.7,1.7,0,0,0-2.3-1.4,4.7,4.7,0,0,0-1.9,1.2l-.6-.9a5.7,5.7,0,0,1,2.4-1.4c2.5-.7,3.5.8,3.9,2.4l.8,3a8.4,8.4,0,0,0,.7,1.9Zm-1.3-4c-1.5.4-3.3,1.2-2.8,2.7a1.2,1.2,0,0,0,1.7,1,2.1,2.1,0,0,0,1.6-1.8.9.9,0,0,0-.1-.5Z" style="fill: #fff"/>
        <path d="M602.9,148.7l1.5-.3,3.1,11.6-1.4.4Z" style="fill: #fff"/>
        <path d="M609.4,161.7a19.8,19.8,0,0,0-.1-4.2l1.6-.6a24.4,24.4,0,0,1-.5,4.4Z" style="fill: #fff"/>
      </g>
      <g>
        <path d="M565.8,193.3l-4.4.4.4,4.2,4.9-.5.2,1.2-6.5.6-1.1-11.4,6.1-.6.2,1.2-4.7.5.3,3.6,4.5-.4Z" style="fill: #fff"/>
        <path d="M568.6,190.1l1.3,1.7,1,1.2h0a9.1,9.1,0,0,0,.7-1.4l1-1.9h1.6l-2.4,4.2,3.3,3.9-1.7.2-1.4-1.7-1-1.3h0l-.7,1.5-1,1.9-1.7.2,2.5-4.5-3.2-3.7Z" style="fill: #fff"/>
        <path d="M576,192.1a17.3,17.3,0,0,0-.4-2.7H577l.2,1.4h0a3.1,3.1,0,0,1,2.8-1.9c2-.2,3.6,1.3,3.9,3.8s-1.4,4.6-3.3,4.8a3,3,0,0,1-2.7-1.1h0l.5,4.4h-1.5Zm1.7,2c0,.2.1.4.1.6a2.4,2.4,0,0,0,2.4,1.5c1.6-.1,2.4-1.5,2.2-3.4s-1.2-2.9-2.8-2.8a2.4,2.4,0,0,0-2,2.1,1.3,1.3,0,0,0-.1.6Z" style="fill: #fff"/>
        <path d="M585.6,191c-.1-1-.2-1.8-.3-2.6h1.3l.2,1.6h.1a2.3,2.3,0,0,1,2-2h.5v1.4H589a2.1,2.1,0,0,0-1.8,2.1v.7l.4,4.4h-1.4Z" style="fill: #fff"/>
        <path d="M598.5,191.2a4,4,0,1,1-8,.9c-.2-2.7,1.4-4.5,3.6-4.7A3.8,3.8,0,0,1,598.5,191.2Zm-6.5.7c.2,1.8,1.4,3,2.8,2.9s2.4-1.6,2.2-3.4-1-3.1-2.8-2.9S591.9,190.4,592,191.9Z" style="fill: #fff"/>
        <path d="M600.3,189.6c-.2-1-.3-1.9-.4-2.6l1.4-.2.2,1.4h0a3.3,3.3,0,0,1,2.7-1.9c2-.2,3.7,1.3,3.9,3.8s-1.3,4.6-3.2,4.8a3.2,3.2,0,0,1-2.7-1h0l.4,4.4-1.4.2Zm1.6,2a6.4,6.4,0,0,0,.2.7,2.3,2.3,0,0,0,2.4,1.5c1.6-.2,2.3-1.6,2.2-3.4s-1.2-3-2.8-2.8a2.4,2.4,0,0,0-2.1,2v2Z" style="fill: #fff"/>
        <path d="M611,183.5c.1.5-.2.9-.8,1a.9.9,0,1,1-.2-1.8A.8.8,0,0,1,611,183.5Zm-.6,10.7-.8-8.2,1.5-.2.8,8.2Z" style="fill: #fff"/>
        <path d="M618.9,193.3l-.2-1h0a3.1,3.1,0,0,1-2.4,1.4,2.4,2.4,0,0,1-2.8-2.1c-.2-1.9,1.5-3.2,4.6-3.5v-.2a1.7,1.7,0,0,0-2-1.7,3.7,3.7,0,0,0-2.1.9l-.4-1a5.1,5.1,0,0,1,2.6-1c2.5-.2,3.3,1.4,3.4,3l.3,3.1a9,9,0,0,0,.4,1.9Zm-.6-4.2c-1.6.2-3.5.6-3.3,2.2a1.3,1.3,0,0,0,1.6,1.3,2,2,0,0,0,1.8-1.6v-1.9Z" style="fill: #fff"/>
        <path d="M628.4,192a5.3,5.3,0,0,1-2.4.7,3.9,3.9,0,0,1-4.5-3.7,4.6,4.6,0,0,1,6.1-4.6l-.2,1.2a3.2,3.2,0,0,0-1.8-.2,2.8,2.8,0,0,0-2.6,3.3,2.9,2.9,0,0,0,3.2,2.8,3.8,3.8,0,0,0,1.8-.6Z" style="fill: #fff"/>
        <path d="M630.7,181.5c.1.5-.2.9-.8,1a.8.8,0,0,1-1-.8.8.8,0,0,1,.8-1A.8.8,0,0,1,630.7,181.5Zm-.6,10.6-.8-8.1,1.5-.2.8,8.2Z" style="fill: #fff"/>
        <path d="M641.1,186.8a4.1,4.1,0,0,1-3.7,4.8,3.8,3.8,0,0,1-4.3-3.8,4,4,0,1,1,8-1Zm-6.5.8c.2,1.8,1.3,3,2.8,2.9s2.3-1.6,2.1-3.5-1-3-2.7-2.9S634.4,186,634.6,187.6Zm3.9-8.1-1.8,2.6h-1.1l1.3-2.6Z" style="fill: #fff"/>
        <path d="M642.8,184.8l-.3-2.2h1.3l.2,1.3h0a3.3,3.3,0,0,1,2.6-1.8c1.1-.1,3,.4,3.2,3.2l.5,4.9h-1.5l-.4-4.7c-.2-1.3-.8-2.3-2.2-2.2a2.1,2.1,0,0,0-1.8,1.7.9.9,0,0,0,0,.7l.5,4.9-1.5.2Z" style="fill: #fff"/>
        <path d="M564,215.8l-.8,3.7h-1.6l2.8-11.8,1.7-.2,5.1,11.1h-1.6l-1.6-3.4Zm3.6-1.6-1.4-3.1a11.1,11.1,0,0,1-.8-2.1h-.1l-.3,2.2-.8,3.4Z" style="fill: #fff"/>
        <path d="M578.5,205.8l1,9.9a13.6,13.6,0,0,0,.2,2.1h-1.3l-.2-1.4h0a3,3,0,0,1-2.7,1.9c-1.9.2-3.6-1.3-3.9-3.8s1.2-4.6,3.2-4.8a2.8,2.8,0,0,1,2.6,1h.1l-.5-4.9Zm-.8,7.3c0-.2-.1-.5-.1-.6a2.1,2.1,0,0,0-2.4-1.5c-1.5.1-2.3,1.6-2.1,3.4s1.1,2.9,2.7,2.8a2.2,2.2,0,0,0,2-2,.8.8,0,0,0,0-.7Z" style="fill: #fff"/>
        <path d="M581.5,211.6a6.9,6.9,0,0,0-.3-2.2l1.3-.2.3,1.3h0a2.8,2.8,0,0,1,2.4-1.7,2.4,2.4,0,0,1,2.5,1.4h0a3.6,3.6,0,0,1,.8-1.2,3.3,3.3,0,0,1,1.8-.8c1.1-.1,2.8.5,3,3.3l.5,4.8-1.4.2-.5-4.6c-.2-1.6-.8-2.5-2-2.4a1.8,1.8,0,0,0-1.6,1.6,1.5,1.5,0,0,0-.1.7l.5,5.1h-1.4l-.5-4.9c-.2-1.3-.8-2.2-2-2.1a2.1,2.1,0,0,0-1.7,1.7v.7l.5,5h-1.5Z" style="fill: #fff"/>
        <path d="M596.8,205.4a.9.9,0,0,1-.8,1.1,1.1,1.1,0,0,1-1-.9.9.9,0,0,1,.8-1C596.4,204.6,596.8,204.9,596.8,205.4Zm-.5,10.7-.9-8.2h1.5l.8,8.1Z" style="fill: #fff"/>
        <path d="M599.6,209.7l-.3-2.2h1.3l.3,1.3h0a2.9,2.9,0,0,1,2.5-1.8c1.2-.1,3,.4,3.3,3.2l.5,4.9h-1.5l-.5-4.7c-.1-1.3-.7-2.3-2.1-2.2a2.2,2.2,0,0,0-1.9,1.7v.7l.5,4.9-1.5.2Z" style="fill: #fff"/>
        <path d="M610.2,204.1c.1.5-.3.9-.9,1a.9.9,0,0,1-1-.8.9.9,0,0,1,.9-1A.9.9,0,0,1,610.2,204.1Zm-.6,10.6-.8-8.1,1.5-.2.8,8.2Z" style="fill: #fff"/>
        <path d="M613.2,212.8a3.3,3.3,0,0,0,2,.4c1.1-.1,1.6-.7,1.5-1.3s-.6-1.1-1.7-1.4-2.3-1.1-2.4-2.1a2.6,2.6,0,0,1,2.6-2.7,4.4,4.4,0,0,1,2.1.3l-.3,1.1a6.5,6.5,0,0,0-1.7-.3c-.9.1-1.4.7-1.3,1.3s.6.9,1.7,1.2,2.3,1.1,2.4,2.3-.9,2.5-2.8,2.7a4.5,4.5,0,0,1-2.4-.3Z" style="fill: #fff"/>
        <path d="M621,202.9l.2,2.4,2.1-.2.2,1.1-2.2.2.5,4.4c.1,1.1.4,1.6,1.3,1.5l.8-.2.2,1.1a3.3,3.3,0,0,1-1.3.4,2.3,2.3,0,0,1-1.7-.5,3.4,3.4,0,0,1-.8-2.1l-.4-4.4h-1.3v-1.1l1.3-.2-.2-1.9Z" style="fill: #fff"/>
        <path d="M625.3,207.5a17.8,17.8,0,0,0-.4-2.6h1.4l.2,1.6h0a2.5,2.5,0,0,1,2.1-2.1h.4l.2,1.4a.5.5,0,0,0-.5,0,2,2,0,0,0-1.8,2.1v.7l.4,4.3-1.5.2Z" style="fill: #fff"/>
        <path d="M635.8,212.1l-.2-1h0a3.4,3.4,0,0,1-2.4,1.4,2.4,2.4,0,0,1-2.8-2.1c-.2-1.9,1.5-3.2,4.6-3.5v-.2a1.6,1.6,0,0,0-2-1.7,4.4,4.4,0,0,0-2.1.8l-.4-.9a4.7,4.7,0,0,1,2.6-1c2.5-.3,3.3,1.4,3.4,3l.3,3.1a9,9,0,0,0,.4,1.9Zm-.6-4.2c-1.6.1-3.5.6-3.3,2.2a1.3,1.3,0,0,0,1.6,1.3,2.2,2.2,0,0,0,1.8-1.6v-1.9Z" style="fill: #fff"/>
        <path d="M640.1,201l.2,2.3,2.2-.2v1.2l-2.1.2.4,4.4c.1,1,.5,1.6,1.3,1.5l.8-.2.2,1.1a3.5,3.5,0,0,1-1.3.3,2.3,2.3,0,0,1-1.7-.4,3.4,3.4,0,0,1-.7-2.1l-.5-4.5-1.3.2v-1.2h1.3l-.2-2Z" style="fill: #fff"/>
        <path d="M645.6,200.5a1,1,0,0,1-.9,1,.9.9,0,0,1-1-.8,1,1,0,1,1,1.9-.2Zm-.6,10.6-.9-8.1,1.5-.2.9,8.2Z" style="fill: #fff"/>
        <path d="M648.7,202.5l2.1,4.4a18,18,0,0,1,.8,2.1h.1a22.5,22.5,0,0,1,.5-2.2l1.1-4.8h1.5l-2.3,8.5H651l-3.9-7.8Z" style="fill: #fff"/>
        <path d="M661.5,209.5l-.2-1.1h0a3.2,3.2,0,0,1-2.4,1.5,2.4,2.4,0,0,1-2.8-2.1c-.2-2,1.5-3.2,4.7-3.5v-.2a1.6,1.6,0,0,0-2-1.7,4.4,4.4,0,0,0-2.1.8l-.4-.9a5.1,5.1,0,0,1,2.6-1c2.5-.3,3.3,1.4,3.4,3l.4,3.1a5.4,5.4,0,0,0,.3,1.9Zm-.6-4.2c-1.6.1-3.5.6-3.3,2.2a1.3,1.3,0,0,0,1.6,1.3,2.2,2.2,0,0,0,1.8-1.6v-1.9Z" style="fill: #fff"/>
        <path d="M664.4,211.3a26.5,26.5,0,0,0,.6-4.2l1.6-.3a26.5,26.5,0,0,1-1.1,4.3Z" style="fill: #fff"/>
      </g>
    </g>
  </g>
</svg>
