<svg xmlns="http://www.w3.org/2000/svg" viewBox="0 0 733.952 353.203"><g id="Capa_2" data-name="Capa 2"><g id="Capa_1-2" data-name="Capa 1"><path d="M452.431,288.041,281.218,246.157a159.356,159.356,0,0,0,4.525-37.815,157.916,157.916,0,0,0-8.922-52.588L443.077,97.212A333.736,333.736,0,0,1,462,208.344,335.721,335.721,0,0,1,452.431,288.041Z" style="fill:#29abe2"/><circle cx="127.5" cy="207.726" r="105" style="fill:#bdc4c6"/><circle cx="127.5" cy="207.726" r="127" style="fill:none;stroke:#aab8bd;stroke-miterlimit:10"/><path d="M321.533,185.835a9.907,9.907,0,0,1-4.093.736c-4.369,0-7.657-2.759-7.657-7.841a7.713,7.713,0,0,1,8.094-8.141,8.294,8.294,0,0,1,3.68.691l-.484,1.633a7.271,7.271,0,0,0-3.127-.645c-3.633,0-6.048,2.323-6.048,6.393,0,3.795,2.185,6.232,5.956,6.232a8,8,0,0,0,3.265-.644Z" style="fill:#fff"/><path d="M333.792,180.684c0,4.116-2.851,5.91-5.541,5.91-3.013,0-5.335-2.207-5.335-5.725,0-3.726,2.438-5.911,5.519-5.911C331.631,174.958,333.792,177.282,333.792,180.684Zm-8.83.115c0,2.438,1.4,4.278,3.381,4.278,1.931,0,3.38-1.817,3.38-4.324,0-1.885-.943-4.277-3.334-4.277S324.962,178.684,324.962,180.8Z" style="fill:#fff"/><path d="M336.348,178.224c0-1.149-.024-2.093-.092-3.013h1.77l.092,1.794h.07a3.836,3.836,0,0,1,3.5-2.047,3.291,3.291,0,0,1,3.15,2.231h.046a4.579,4.579,0,0,1,1.241-1.448,3.8,3.8,0,0,1,2.461-.783c1.472,0,3.656.966,3.656,4.83v6.553H350.26v-6.3c0-2.139-.782-3.426-2.415-3.426a2.62,2.62,0,0,0-2.392,1.839,3.333,3.333,0,0,0-.16,1.011v6.876h-1.978v-6.669c0-1.77-.782-3.057-2.323-3.057a3.015,3.015,0,0,0-2.667,3.011v6.715h-1.977Z" style="fill:#fff"/><path d="M361.691,186.341l-.16-1.4h-.069a4.146,4.146,0,0,1-3.4,1.655,3.171,3.171,0,0,1-3.4-3.2c0-2.69,2.392-4.162,6.692-4.139v-.23a2.294,2.294,0,0,0-2.53-2.575,5.536,5.536,0,0,0-2.9.828l-.46-1.334a6.908,6.908,0,0,1,3.656-.99c3.4,0,4.232,2.324,4.232,4.554v4.162a15.764,15.764,0,0,0,.183,2.667Zm-.3-5.679c-2.207-.046-4.714.344-4.714,2.506a1.79,1.79,0,0,0,1.909,1.931,2.769,2.769,0,0,0,2.69-1.862,2.112,2.112,0,0,0,.115-.644Z" style="fill:#fff"/><path d="M366.615,178.224c0-1.149-.023-2.093-.092-3.013h1.793l.116,1.84h.046a4.093,4.093,0,0,1,3.679-2.093c1.54,0,3.932.92,3.932,4.738v6.645h-2.024v-6.416c0-1.793-.667-3.288-2.575-3.288a2.878,2.878,0,0,0-2.714,2.07,2.935,2.935,0,0,0-.137.943v6.691h-2.024Z" style="fill:#fff"/><path d="M388.992,170.015v13.452c0,.989.023,2.116.092,2.874h-1.816l-.093-1.931h-.046a4.116,4.116,0,0,1-3.794,2.184c-2.69,0-4.76-2.276-4.76-5.657-.023-3.7,2.277-5.979,4.989-5.979a3.719,3.719,0,0,1,3.358,1.7h.046v-6.646Zm-2.024,9.727a3.573,3.573,0,0,0-.092-.851,2.976,2.976,0,0,0-2.92-2.346c-2.093,0-3.335,1.84-3.335,4.3,0,2.254,1.105,4.116,3.289,4.116a3.041,3.041,0,0,0,2.966-2.414,3.511,3.511,0,0,0,.092-.874Z" style="fill:#fff"/><path d="M402.423,180.684c0,4.116-2.851,5.91-5.541,5.91-3.013,0-5.335-2.207-5.335-5.725,0-3.726,2.437-5.911,5.518-5.911C400.262,174.958,402.423,177.282,402.423,180.684Zm-8.83.115c0,2.438,1.4,4.278,3.381,4.278,1.931,0,3.38-1.817,3.38-4.324,0-1.885-.943-4.277-3.334-4.277S393.593,178.684,393.593,180.8Z" style="fill:#fff"/><path d="M410.59,175.211l2.437,6.578c.253.735.53,1.609.713,2.276h.046c.207-.667.438-1.518.713-2.322l2.208-6.532h2.139l-3.035,7.934c-1.45,3.817-2.438,5.772-3.818,6.968a5.478,5.478,0,0,1-2.483,1.31l-.506-1.7a5.318,5.318,0,0,0,1.77-.988,6.145,6.145,0,0,0,1.7-2.254,1.473,1.473,0,0,0,.161-.482,1.762,1.762,0,0,0-.138-.53l-4.116-10.256Z" style="fill:#fff"/><path d="M340.888,213.435a9.931,9.931,0,0,1-4.093.735c-4.369,0-7.657-2.758-7.657-7.84a7.713,7.713,0,0,1,8.093-8.141,8.31,8.31,0,0,1,3.68.69l-.483,1.633a7.287,7.287,0,0,0-3.127-.644c-3.634,0-6.048,2.323-6.048,6.392,0,3.8,2.185,6.233,5.956,6.233a7.987,7.987,0,0,0,3.265-.645Z" style="fill:#fff"/><path d="M353.146,208.284c0,4.116-2.85,5.91-5.541,5.91-3.012,0-5.334-2.207-5.334-5.726,0-3.725,2.437-5.91,5.518-5.91C350.985,202.558,353.146,204.881,353.146,208.284Zm-8.83.115c0,2.437,1.4,4.277,3.381,4.277,1.932,0,3.38-1.816,3.38-4.323,0-1.886-.942-4.277-3.334-4.277S344.316,206.284,344.316,208.4Z" style="fill:#fff"/><path d="M355.7,205.824c0-1.15-.023-2.093-.092-3.013H357.4l.116,1.84h.045a4.094,4.094,0,0,1,3.68-2.093c1.54,0,3.932.92,3.932,4.737v6.646h-2.024v-6.416c0-1.793-.667-3.288-2.575-3.288a2.877,2.877,0,0,0-2.714,2.069,2.918,2.918,0,0,0-.137.944v6.691H355.7Z" style="fill:#fff"/><path d="M370.813,199.615v3.2h2.9v1.541h-2.9v6c0,1.38.39,2.161,1.517,2.161a4.5,4.5,0,0,0,1.173-.138l.092,1.518a4.958,4.958,0,0,1-1.794.275,2.806,2.806,0,0,1-2.185-.85,4.128,4.128,0,0,1-.781-2.9v-6.07H367.11v-1.541h1.725v-2.667Z" style="fill:#fff"/><path d="M375.988,206.284c0-1.311-.023-2.438-.092-3.473h1.771l.068,2.185h.093a3.34,3.34,0,0,1,3.081-2.438,2.232,2.232,0,0,1,.575.069v1.909a3.04,3.04,0,0,0-.69-.069,2.837,2.837,0,0,0-2.713,2.6,5.7,5.7,0,0,0-.093.943v5.933h-2Z" style="fill:#fff"/><path d="M393.351,208.284c0,4.116-2.851,5.91-5.541,5.91-3.013,0-5.335-2.207-5.335-5.726,0-3.725,2.437-5.91,5.518-5.91C391.189,202.558,393.351,204.881,393.351,208.284Zm-8.83.115c0,2.437,1.4,4.277,3.38,4.277,1.932,0,3.38-1.816,3.38-4.323,0-1.886-.942-4.277-3.334-4.277S384.521,206.284,384.521,208.4Z" style="fill:#fff"/><path d="M395.906,197.615h2.024v16.326h-2.024Z" style="fill:#fff"/><circle cx="127.258" cy="207.966" r="105" style="fill:#bdc4c6"/><circle cx="127.696" cy="207.891" r="105" style="fill:#bdc4c6"/><path d="M716.4,353.2,483.377,295.748a365.376,365.376,0,0,0,10.575-87.406c0-6.085-.153-12.266-.453-18.375l239.709-11.805c.494,10.023.744,20.176.744,30.179A605.614,605.614,0,0,1,716.4,353.2Z" style="fill:#84266a"/><path d="M493.337,186.946l-.041-.712A366.6,366.6,0,0,0,471.834,82.212L697.314,0a606.553,606.553,0,0,1,35.569,172.16l.071,1.223Z" style="fill:#84266a"/><path d="M439.258,284.305,275.1,244.146a152.7,152.7,0,0,0,4.338-36.257,151.379,151.379,0,0,0-8.554-50.421L430.29,101.337a319.982,319.982,0,0,1,18.147,106.554A321.862,321.862,0,0,1,439.258,284.305Z" style="fill:#84266a"/><path d="M99.242,212.8a14.121,14.121,0,0,1-4.593.8,7.683,7.683,0,0,1-5.587-1.905,7.071,7.071,0,0,1-1.99-5.248c0-4.508,3.217-7.408,7.937-7.408a9.444,9.444,0,0,1,3.788.678l-.571,2.094a7.7,7.7,0,0,0-3.239-.613c-3.047,0-5.184,1.8-5.184,5.122,0,3.237,1.989,5.164,4.952,5.164a4.993,4.993,0,0,0,1.969-.3v-3.555H94.205v-2.053h5.037Z" style="fill:#112025"/><path d="M109.889,207.13h-5.376v4.19h6.01v2.138H101.91V199.193h8.3v2.138h-5.693v3.683h5.376Z" style="fill:#112025"/><path d="M112.748,210.622a7.216,7.216,0,0,0,3.449.91c1.672,0,2.6-.783,2.6-1.947,0-1.079-.72-1.714-2.54-2.37-2.349-.847-3.852-2.1-3.852-4.149,0-2.328,1.947-4.1,5.037-4.1a7.536,7.536,0,0,1,3.429.72l-.635,2.094a6.048,6.048,0,0,0-2.836-.676c-1.651,0-2.371.888-2.371,1.714,0,1.1.825,1.608,2.731,2.349,2.476.931,3.682,2.18,3.682,4.233,0,2.286-1.735,4.275-5.418,4.275a8.472,8.472,0,0,1-3.851-.889Z" style="fill:#112025"/><path d="M126.526,201.373h-4.063v-2.18h10.772v2.18H129.13v12.085h-2.6Z" style="fill:#112025"/><path d="M137.512,199.193v14.265h-2.6V199.193Z" style="fill:#112025"/><path d="M153.152,206.178c0,4.783-2.9,7.512-6.836,7.512-4.02,0-6.56-3.068-6.56-7.258,0-4.381,2.752-7.471,6.772-7.471C150.7,198.961,153.152,202.114,153.152,206.178Zm-10.644.212c0,2.9,1.46,5.206,3.957,5.206,2.518,0,3.936-2.328,3.936-5.313,0-2.687-1.333-5.227-3.936-5.227C143.883,201.056,142.508,203.447,142.508,206.39Zm7.364-10.54-2.645,2.54h-2.095l1.862-2.54Z" style="fill:#112025"/><path d="M155.4,213.458V199.193h2.963l3.683,6.117a39.391,39.391,0,0,1,2.434,4.783h.042c-.169-1.905-.233-3.746-.233-5.926v-4.974H166.7v14.265h-2.687l-3.725-6.265a49.607,49.607,0,0,1-2.56-4.93l-.064.02c.106,1.842.127,3.725.127,6.074v5.1Z" style="fill:#112025"/><path d="M313.95,169.869V184.02h-1.827V169.869Z" style="fill:#fff"/><path d="M317.288,176.609c0-1.051-.021-1.911-.084-2.751h1.638l.105,1.68h.042a3.737,3.737,0,0,1,3.359-1.912c1.406,0,3.59.84,3.59,4.327v6.067H324.09v-5.858c0-1.637-.608-3-2.351-3a2.626,2.626,0,0,0-2.477,1.889,2.66,2.66,0,0,0-.127.861v6.11h-1.847Z" style="fill:#fff"/><path d="M331.084,170.939v2.919h2.647v1.407h-2.647v5.48c0,1.259.358,1.973,1.387,1.973a4.068,4.068,0,0,0,1.071-.126l.083,1.386a4.518,4.518,0,0,1-1.637.252,2.561,2.561,0,0,1-2-.777,3.763,3.763,0,0,1-.713-2.645v-5.543h-1.575v-1.407h1.575v-2.436Z" style="fill:#fff"/><path d="M336.713,179.275A3.256,3.256,0,0,0,340.2,182.8a6.662,6.662,0,0,0,2.813-.525l.315,1.323a8.231,8.231,0,0,1-3.38.63c-3.128,0-5-2.058-5-5.123s1.805-5.481,4.765-5.481c3.319,0,4.2,2.919,4.2,4.788a6.792,6.792,0,0,1-.063.861Zm5.417-1.322c.021-1.176-.483-3-2.561-3-1.869,0-2.688,1.721-2.834,3Z" style="fill:#fff"/><path d="M346.206,177.029c0-1.2-.022-2.227-.084-3.171h1.616l.063,2h.084a3.048,3.048,0,0,1,2.813-2.227,1.991,1.991,0,0,1,.525.064v1.743a2.72,2.72,0,0,0-.63-.063,2.592,2.592,0,0,0-2.477,2.372,5.212,5.212,0,0,0-.084.861v5.417h-1.826Z" style="fill:#fff"/><path d="M354.311,173.858l1.994,5.711a25.945,25.945,0,0,1,.819,2.6h.063c.231-.839.524-1.679.86-2.6l1.975-5.711h1.932l-3.991,10.162H356.2l-3.864-10.162Z" style="fill:#fff"/><path d="M364.517,179.275A3.256,3.256,0,0,0,368,182.8a6.664,6.664,0,0,0,2.814-.525l.315,1.323a8.229,8.229,0,0,1-3.381.63c-3.128,0-5-2.058-5-5.123s1.806-5.481,4.767-5.481c3.316,0,4.2,2.919,4.2,4.788a7.193,7.193,0,0,1-.063.861Zm5.417-1.322c.022-1.176-.482-3-2.561-3-1.869,0-2.688,1.721-2.835,3Z" style="fill:#fff"/><path d="M374.008,176.609c0-1.051-.02-1.911-.084-2.751h1.639l.1,1.68h.042a3.738,3.738,0,0,1,3.36-1.912c1.406,0,3.59.84,3.59,4.327v6.067h-1.848v-5.858c0-1.637-.608-3-2.352-3a2.624,2.624,0,0,0-2.476,1.889,2.66,2.66,0,0,0-.127.861v6.11h-1.848Z" style="fill:#fff"/><path d="M392.908,183.642a6.811,6.811,0,0,1-2.919.588,4.828,4.828,0,0,1-5.06-5.186,5.164,5.164,0,0,1,5.459-5.4,6.177,6.177,0,0,1,2.562.525l-.42,1.428a4.288,4.288,0,0,0-2.142-.483,3.831,3.831,0,0,0-.063,7.642,5.227,5.227,0,0,0,2.267-.5Z" style="fill:#fff"/><path d="M397.129,171a1.144,1.144,0,0,1-2.288,0A1.127,1.127,0,0,1,396,169.847,1.1,1.1,0,0,1,397.129,171Zm-2.056,13.018V173.858h1.847V184.02Z" style="fill:#fff"/><path d="M409.182,178.855c0,3.758-2.6,5.4-5.059,5.4-2.751,0-4.872-2.015-4.872-5.228,0-3.4,2.226-5.4,5.04-5.4C407.209,173.626,409.182,175.748,409.182,178.855Zm-8.062.105c0,2.225,1.281,3.905,3.087,3.905,1.763,0,3.086-1.658,3.086-3.948,0-1.72-.861-3.9-3.044-3.9S401.12,177.029,401.12,178.96Zm5.858-9.49-2.561,3h-1.323l1.848-3Z" style="fill:#fff"/><path d="M411.516,176.609c0-1.051-.021-1.911-.084-2.751h1.637l.1,1.68h.042a3.738,3.738,0,0,1,3.36-1.912c1.407,0,3.591.84,3.591,4.327v6.067h-1.848v-5.858c0-1.637-.61-3-2.352-3a2.626,2.626,0,0,0-2.478,1.889,2.663,2.663,0,0,0-.125.861v6.11h-1.848Z" style="fill:#fff"/><path d="M298.293,202.584h-5.5v5.1h6.13v1.532h-7.957V195.068h7.643V196.6h-5.816v4.472h5.5Z" style="fill:#fff"/><path d="M300.983,207.33a4.839,4.839,0,0,0,2.435.734c1.344,0,1.973-.672,1.973-1.512,0-.881-.524-1.364-1.889-1.868-1.827-.651-2.687-1.659-2.687-2.876,0-1.639,1.322-2.982,3.506-2.982a5.068,5.068,0,0,1,2.5.631l-.461,1.343a3.962,3.962,0,0,0-2.079-.588c-1.092,0-1.7.629-1.7,1.385,0,.84.608,1.219,1.931,1.723,1.764.672,2.666,1.553,2.666,3.064,0,1.785-1.385,3.045-3.8,3.045a5.8,5.8,0,0,1-2.855-.693Z" style="fill:#fff"/><path d="M311.776,196.138v2.919h2.646v1.407h-2.646v5.48c0,1.26.357,1.973,1.387,1.973a4.117,4.117,0,0,0,1.07-.125l.084,1.385a4.528,4.528,0,0,1-1.638.252,2.562,2.562,0,0,1-1.995-.777,3.766,3.766,0,0,1-.713-2.645v-5.543H308.4v-1.407h1.575v-2.435Z" style="fill:#fff"/><path d="M316.5,202.228c0-1.2-.021-2.227-.084-3.171h1.617l.063,2h.084A3.047,3.047,0,0,1,321,198.826a1.994,1.994,0,0,1,.525.063v1.743a2.72,2.72,0,0,0-.63-.063,2.591,2.591,0,0,0-2.477,2.372,5.212,5.212,0,0,0-.084.861v5.417H316.5Z" style="fill:#fff"/><path d="M331.873,206.448c0,1.05.02,1.973.084,2.771h-1.638l-.106-1.659h-.041a3.824,3.824,0,0,1-3.359,1.891c-1.6,0-3.507-.883-3.507-4.451v-5.943h1.848v5.627c0,1.932.588,3.233,2.267,3.233a2.671,2.671,0,0,0,2.436-1.679,2.736,2.736,0,0,0,.168-.946v-6.235h1.848Z" style="fill:#fff"/><path d="M342.184,208.841a6.8,6.8,0,0,1-2.918.588,4.827,4.827,0,0,1-5.06-5.185,5.164,5.164,0,0,1,5.459-5.4,6.174,6.174,0,0,1,2.561.526l-.42,1.427a4.281,4.281,0,0,0-2.141-.483,3.831,3.831,0,0,0-.063,7.642,5.259,5.259,0,0,0,2.268-.5Z" style="fill:#fff"/><path d="M346.846,196.138v2.919h2.647v1.407h-2.647v5.48c0,1.26.358,1.973,1.387,1.973a4.111,4.111,0,0,0,1.07-.125l.084,1.385a4.522,4.522,0,0,1-1.637.252,2.565,2.565,0,0,1-2-.777,3.766,3.766,0,0,1-.712-2.645v-5.543h-1.576v-1.407h1.576v-2.435Z" style="fill:#fff"/><path d="M360.076,206.448c0,1.05.02,1.973.084,2.771h-1.638l-.105-1.659h-.042a3.824,3.824,0,0,1-3.359,1.891c-1.6,0-3.507-.883-3.507-4.451v-5.943h1.848v5.627c0,1.932.588,3.233,2.268,3.233a2.671,2.671,0,0,0,2.435-1.679,2.712,2.712,0,0,0,.168-.946v-6.235h1.848Z" style="fill:#fff"/><path d="M363.143,202.228c0-1.2-.02-2.227-.084-3.171h1.617l.063,2h.084a3.05,3.05,0,0,1,2.814-2.226,2,2,0,0,1,.525.063v1.743a2.72,2.72,0,0,0-.63-.063,2.592,2.592,0,0,0-2.478,2.372,5.212,5.212,0,0,0-.084.861v5.417h-1.827Z" style="fill:#fff"/><path d="M375.534,209.219l-.148-1.28h-.063a3.787,3.787,0,0,1-3.108,1.512,2.9,2.9,0,0,1-3.107-2.919c0-2.456,2.184-3.8,6.11-3.78v-.21a2.1,2.1,0,0,0-2.309-2.351,5.061,5.061,0,0,0-2.646.756l-.42-1.218a6.308,6.308,0,0,1,3.339-.9c3.108,0,3.863,2.121,3.863,4.158v3.8a14.19,14.19,0,0,0,.168,2.435Zm-.274-5.186c-2.015-.041-4.3.315-4.3,2.289a1.635,1.635,0,0,0,1.743,1.763,2.525,2.525,0,0,0,2.456-1.7,1.918,1.918,0,0,0,.105-.588Z" style="fill:#fff"/><path d="M384.543,195.236a21.164,21.164,0,0,1,3.506-.274,5.813,5.813,0,0,1,3.969,1.176,3.8,3.8,0,0,1,1.238,2.961,4.166,4.166,0,0,1-1.091,3.024,5.86,5.86,0,0,1-4.325,1.553,6.23,6.23,0,0,1-1.47-.126v5.669h-1.827Zm1.827,6.824a6.124,6.124,0,0,0,1.511.147c2.205,0,3.549-1.071,3.549-3.024,0-1.869-1.322-2.771-3.338-2.771a7.676,7.676,0,0,0-1.722.146Z" style="fill:#fff"/><path d="M395.317,202.228c0-1.2-.022-2.227-.084-3.171h1.616l.064,2H397a3.047,3.047,0,0,1,2.812-2.226,1.988,1.988,0,0,1,.525.063v1.743a2.711,2.711,0,0,0-.629-.063,2.592,2.592,0,0,0-2.478,2.372,5.212,5.212,0,0,0-.084.861v5.417h-1.826Z" style="fill:#fff"/><path d="M403,204.474A3.256,3.256,0,0,0,406.488,208a6.662,6.662,0,0,0,2.813-.525l.315,1.323a8.231,8.231,0,0,1-3.38.63c-3.128,0-5-2.057-5-5.123s1.805-5.48,4.765-5.48c3.319,0,4.2,2.919,4.2,4.787a6.76,6.76,0,0,1-.063.861Zm5.417-1.322c.021-1.176-.483-3-2.561-3-1.869,0-2.688,1.722-2.834,3Z" style="fill:#fff"/><path d="M421.27,194.312V206.6c0,.9.022,1.932.084,2.624H419.7l-.084-1.763h-.042a3.762,3.762,0,0,1-3.464,2c-2.457,0-4.347-2.079-4.347-5.166-.02-3.38,2.079-5.459,4.556-5.459a3.4,3.4,0,0,1,3.066,1.554h.041v-6.068Zm-1.848,8.881a3.2,3.2,0,0,0-.084-.776,2.716,2.716,0,0,0-2.666-2.142c-1.91,0-3.045,1.68-3.045,3.926,0,2.058,1.008,3.758,3,3.758a2.776,2.776,0,0,0,2.708-2.2,3.163,3.163,0,0,0,.084-.8Z" style="fill:#fff"/><path d="M426.4,196.2a1.144,1.144,0,0,1-2.288,0,1.126,1.126,0,0,1,1.155-1.156A1.1,1.1,0,0,1,426.4,196.2Zm-2.057,13.017V199.057h1.848v10.162Z" style="fill:#fff"/><path d="M434.879,209.219l-.147-1.28h-.064a3.785,3.785,0,0,1-3.107,1.512,2.9,2.9,0,0,1-3.107-2.919c0-2.456,2.183-3.8,6.11-3.78v-.21a2.1,2.1,0,0,0-2.31-2.351,5.061,5.061,0,0,0-2.645.756l-.42-1.218a6.308,6.308,0,0,1,3.339-.9c3.107,0,3.863,2.121,3.863,4.158v3.8a14.19,14.19,0,0,0,.168,2.435Zm-.273-5.186c-2.016-.041-4.305.315-4.305,2.289a1.635,1.635,0,0,0,1.743,1.763,2.523,2.523,0,0,0,2.456-1.7,1.89,1.89,0,0,0,.106-.588Z" style="fill:#fff"/><path d="M439.374,194.312h1.847v14.907h-1.847Z" style="fill:#fff"/><path d="M526.736,113.791l2.037,11.963-1.544.264-2.038-11.964Z" style="fill:#fff"/><path d="M530.527,119.008c-.151-.887-.293-1.612-.467-2.312l1.384-.236.331,1.405.036-.006a3.2,3.2,0,0,1,2.565-2.1c1.188-.2,3.155.194,3.657,3.14l.874,5.129-1.562.266-.843-4.952c-.236-1.384-.947-2.45-2.421-2.2a2.248,2.248,0,0,0-1.821,1.954,2.278,2.278,0,0,0,.016.746l.88,5.165-1.561.266Z" style="fill:#fff"/><path d="M541.369,112.23l.421,2.468,2.236-.381.2,1.188-2.237.382.789,4.632c.182,1.065.586,1.617,1.455,1.469a3.554,3.554,0,0,0,.888-.26l.272,1.158a3.852,3.852,0,0,1-1.35.449,2.193,2.193,0,0,1-1.8-.369,3.231,3.231,0,0,1-.984-2.134l-.8-4.686-1.331.228-.2-1.189,1.331-.227-.351-2.06Z" style="fill:#fff"/><path d="M547.325,118.467a2.792,2.792,0,0,0,3.454,2.48,5.747,5.747,0,0,0,2.3-.849l.457,1.073a7.055,7.055,0,0,1-2.768,1.019,4.046,4.046,0,0,1-4.961-3.611c-.442-2.592.737-4.893,3.24-5.32,2.8-.477,3.97,1.864,4.239,3.443a5.722,5.722,0,0,1,.07.737Zm4.389-1.9a2.257,2.257,0,0,0-2.6-2.169,2.627,2.627,0,0,0-1.963,2.947Z" style="fill:#fff"/><path d="M561.967,111.26c.07.627.152,1.325.331,2.373l.849,4.988c.335,1.97.151,3.243-.556,4.13a4.62,4.62,0,0,1-2.948,1.563,5.628,5.628,0,0,1-2.98-.224l.189-1.256a4.9,4.9,0,0,0,2.634.246c1.6-.272,2.627-1.306,2.259-3.472l-.164-.958-.035.006a3.107,3.107,0,0,1-2.488,1.9c-2.131.363-3.966-1.187-4.37-3.565-.5-2.911,1.122-4.886,3.091-5.222a2.9,2.9,0,0,1,2.935,1.034l.035-.006-.149-1.306Zm-1.038,3.666a2.32,2.32,0,0,0-2.675-1.974c-1.49.254-2.341,1.7-2,3.683.287,1.687,1.378,2.944,3.064,2.657a2.32,2.32,0,0,0,1.894-1.966,2.782,2.782,0,0,0-.019-.856Z" style="fill:#fff"/><path d="M564.834,113.53c-.172-1.012-.338-1.879-.527-2.668l1.366-.233.341,1.677.071-.012a2.614,2.614,0,0,1,2.058-2.287,1.735,1.735,0,0,1,.453-.022l.251,1.473a2.356,2.356,0,0,0-.542.037,2.221,2.221,0,0,0-1.752,2.363,4.407,4.407,0,0,0,.052.74l.78,4.579-1.544.263Z" style="fill:#fff"/><path d="M576.312,117.657,576,116.6l-.053.009a3.25,3.25,0,0,1-2.41,1.726,2.484,2.484,0,0,1-3.047-2.02c-.353-2.077,1.3-3.527,4.621-4.074l-.03-.178a1.8,1.8,0,0,0-2.291-1.656,4.34,4.34,0,0,0-2.128,1.02l-.53-.968a5.407,5.407,0,0,1,2.691-1.245c2.628-.448,3.572,1.237,3.865,2.958l.547,3.213a12.323,12.323,0,0,0,.493,2.035Zm-.978-4.345c-1.71.255-3.593.886-3.309,2.555a1.4,1.4,0,0,0,1.727,1.24,2.169,2.169,0,0,0,1.832-1.792,1.661,1.661,0,0,0,0-.512Z" style="fill:#fff"/><path d="M586.177,115.647a5.842,5.842,0,0,1-2.383.918,4.14,4.14,0,0,1-5.024-3.656,4.426,4.426,0,0,1,3.837-5.347,5.3,5.3,0,0,1,2.242.074L584.7,108.9a3.665,3.665,0,0,0-1.879-.1,3.285,3.285,0,0,0,1.047,6.47,4.5,4.5,0,0,0,1.845-.753Z" style="fill:#fff"/><path d="M587.922,104.354a.982.982,0,0,1-1.936.33.966.966,0,0,1,.811-1.142A.94.94,0,0,1,587.922,104.354Zm.135,11.3-1.464-8.591,1.562-.266,1.463,8.591Z" style="fill:#fff"/><path d="M599.239,109.258a4.259,4.259,0,0,1-3.5,5.29,4.144,4.144,0,0,1-4.871-3.718c-.489-2.875,1.106-4.882,3.484-5.288C596.818,105.122,598.791,106.631,599.239,109.258Zm-6.8,1.249c.321,1.882,1.646,3.118,3.172,2.858,1.491-.254,2.37-1.847,2.04-3.782-.248-1.456-1.289-3.177-3.135-2.863S592.16,108.875,592.438,110.507Zm3.585-8.866-1.732,2.907-1.119.191,1.13-2.8Z" style="fill:#fff"/><path d="M600.883,107.023c-.152-.887-.293-1.612-.468-2.312l1.386-.236.33,1.4.036-.005a3.2,3.2,0,0,1,2.564-2.1c1.189-.2,3.157.193,3.659,3.14l.873,5.129-1.562.266-.844-4.952c-.235-1.384-.947-2.45-2.42-2.2a2.25,2.25,0,0,0-1.822,1.954,2.281,2.281,0,0,0,.017.746l.88,5.165-1.562.266Z" style="fill:#fff"/><path d="M624.8,103.99c-.373-1.653-.821-3.64-1.058-5.135l-.053.01c-.169,1.471-.413,3.047-.734,4.8l-1.124,6.164-1.171.2-2.9-5.368c-.856-1.589-1.6-3.052-2.178-4.415l-.035.006c.219,1.5.472,3.518.671,5.329l.554,5.184-1.473.251-1.2-12.105,1.971-.336,3.026,5.438c.748,1.389,1.38,2.633,1.893,3.824l.054-.008c.1-1.259.3-2.645.573-4.245l1.145-6.149,1.97-.336,2.783,11.837-1.509.257Z" style="fill:#fff"/><path d="M636.963,102.832a4.26,4.26,0,0,1-3.5,5.29,4.143,4.143,0,0,1-4.871-3.718c-.49-2.876,1.1-4.883,3.482-5.288C634.542,98.7,636.516,100.205,636.963,102.832Zm-6.8,1.249c.32,1.882,1.646,3.117,3.172,2.857,1.49-.254,2.37-1.847,2.04-3.781-.248-1.455-1.29-3.178-3.136-2.863S629.885,102.449,630.163,104.081Z" style="fill:#fff"/><path d="M639.6,106.875c-.065-.592-.178-1.468-.308-2.23l-1.769-10.384L639.072,94l.919,5.4.035-.006a3.246,3.246,0,0,1,2.66-2.079c2.13-.363,3.941,1.154,4.369,3.767.522,3.071-1.153,4.927-3.07,5.254a3.1,3.1,0,0,1-3.15-1.126l-.054.009.171,1.432Zm1.028-3.719a2.9,2.9,0,0,0,.168.556,2.444,2.444,0,0,0,2.654,1.429c1.633-.278,2.383-1.775,2.047-3.745-.293-1.723-1.432-3.044-3.1-2.76a2.526,2.526,0,0,0-2.051,2.322,3.094,3.094,0,0,0,.02.654Z" style="fill:#fff"/><path d="M649.636,93.841a.982.982,0,0,1-1.936.33.965.965,0,0,1,.811-1.142A.941.941,0,0,1,649.636,93.841Zm.135,11.3-1.463-8.591,1.561-.265,1.464,8.589Z" style="fill:#fff"/><path d="M651.776,91.833l1.562-.266,2.146,12.6-1.561.267Z" style="fill:#fff"/><path d="M657.975,92.421a.981.981,0,0,1-1.935.329.964.964,0,0,1,.81-1.142A.941.941,0,0,1,657.975,92.421Zm.135,11.3-1.464-8.59,1.562-.266,1.464,8.59Z" style="fill:#fff"/><path d="M667.019,102.205l-.309-1.062-.053.009a3.243,3.243,0,0,1-2.409,1.725,2.481,2.481,0,0,1-3.047-2.019c-.354-2.076,1.3-3.527,4.62-4.074l-.03-.178A1.8,1.8,0,0,0,663.5,94.95a4.341,4.341,0,0,0-2.127,1.02L660.842,95a5.409,5.409,0,0,1,2.692-1.244c2.627-.447,3.571,1.237,3.864,2.958l.548,3.213a12.264,12.264,0,0,0,.492,2.034Zm-.977-4.345c-1.71.255-3.594.886-3.31,2.555a1.4,1.4,0,0,0,1.727,1.24,2.169,2.169,0,0,0,1.832-1.792,1.662,1.662,0,0,0,0-.512Z" style="fill:#fff"/><path d="M669.809,95.648c-.173-1.013-.339-1.879-.529-2.668l1.367-.233.341,1.677.071-.012a2.614,2.614,0,0,1,2.058-2.287,1.7,1.7,0,0,1,.453-.023l.251,1.474a2.353,2.353,0,0,0-.542.037,2.224,2.224,0,0,0-1.753,2.363,4.511,4.511,0,0,0,.053.739l.78,4.58-1.544.263Z" style="fill:#fff"/><path d="M676.553,89.256a.982.982,0,0,1-1.935.33.966.966,0,0,1,.81-1.143A.941.941,0,0,1,676.553,89.256Zm.135,11.3-1.463-8.591,1.561-.266,1.464,8.591Z" style="fill:#fff"/><path d="M685.6,99.04l-.309-1.061-.053.009a3.245,3.245,0,0,1-2.409,1.725,2.482,2.482,0,0,1-3.047-2.02c-.354-2.076,1.3-3.527,4.62-4.074l-.03-.178a1.8,1.8,0,0,0-2.291-1.655,4.324,4.324,0,0,0-2.127,1.02l-.531-.969a5.41,5.41,0,0,1,2.692-1.245c2.627-.447,3.572,1.237,3.865,2.959l.547,3.213a12.309,12.309,0,0,0,.493,2.034Zm-.978-4.345c-1.709.255-3.593.887-3.308,2.555a1.4,1.4,0,0,0,1.726,1.24,2.17,2.17,0,0,0,1.832-1.792,1.63,1.63,0,0,0,0-.512Z" style="fill:#fff"/><path d="M534.13,233.357a16.425,16.425,0,0,1,3.015.162,4.951,4.951,0,0,1,3.341,1.46,3.016,3.016,0,0,1,.632,2.413,3.186,3.186,0,0,1-2.688,2.755l-.008.054a3.023,3.023,0,0,1,1.432,2.669,19.253,19.253,0,0,0,.473,3.428l-1.605-.221a15.7,15.7,0,0,1-.408-2.983c-.127-1.707-.683-2.42-2.085-2.667l-1.463-.2-.718,5.208-1.552-.214Zm.8,5.69,1.587.219c1.659.228,2.838-.537,3.027-1.91.213-1.551-.817-2.384-2.456-2.627a6.418,6.418,0,0,0-1.553-.07Z" style="fill:#fff"/><path d="M543.537,242.632a2.792,2.792,0,0,0,2.548,3.405,5.74,5.74,0,0,0,2.452-.117l.112,1.161a7.066,7.066,0,0,1-2.945.14,4.048,4.048,0,0,1-3.646-4.938c.359-2.6,2.175-4.444,4.691-4.1,2.817.388,3.226,2.971,3.007,4.558a5.933,5.933,0,0,1-.154.724Zm4.756-.489a2.256,2.256,0,0,0-1.824-2.851,2.625,2.625,0,0,0-2.759,2.219Z" style="fill:#fff"/><path d="M555.821,248.433l.025-1.106-.053-.007a3.242,3.242,0,0,1-2.817.92,2.482,2.482,0,0,1-2.3-2.843c.287-2.086,2.3-2.972,5.633-2.5l.024-.178a1.8,1.8,0,0,0-1.687-2.269,4.345,4.345,0,0,0-2.335.333L552.1,239.7a5.423,5.423,0,0,1,2.942-.376c2.64.364,3.034,2.254,2.8,3.984l-.444,3.229a12.27,12.27,0,0,0-.143,2.088ZM556.2,244c-1.707-.271-3.693-.236-3.924,1.441a1.4,1.4,0,0,0,1.274,1.7,2.168,2.168,0,0,0,2.286-1.158,1.642,1.642,0,0,0,.158-.487Z" style="fill:#fff"/><path d="M557.188,251.166a2.568,2.568,0,0,0,1.8-.425c.5-.44.75-1.1,1.035-3.165l1-7.223,1.57.215-1.078,7.83c-.232,1.677-.649,2.728-1.524,3.408a4.024,4.024,0,0,1-2.811.612Zm5.916-13a.931.931,0,0,1-1.114.828.946.946,0,0,1-.831-1.1.97.97,0,0,1,1.134-.843A.936.936,0,0,1,563.1,238.167Z" style="fill:#fff"/><path d="M571.517,248.2c-.123.892-.213,1.68-.253,2.365l-1.391-.192.1-1.421-.036,0a3.28,3.28,0,0,1-3.075,1.212c-1.355-.186-2.876-1.159-2.458-4.192l.7-5.047,1.57.216-.658,4.78c-.226,1.641.121,2.816,1.548,3.012a2.291,2.291,0,0,0,2.266-1.142,2.326,2.326,0,0,0,.253-.783l.73-5.3,1.569.216Z" style="fill:#fff"/><path d="M573.8,249.273a4.151,4.151,0,0,0,1.984.91c1.141.158,1.755-.339,1.853-1.053.1-.749-.286-1.221-1.387-1.809-1.475-.766-2.088-1.723-1.946-2.758.192-1.391,1.473-2.377,3.328-2.123a4.363,4.363,0,0,1,2.049.828l-.55,1.087a3.4,3.4,0,0,0-1.7-.742c-.928-.128-1.518.336-1.607.978-.1.713.375,1.1,1.44,1.688,1.42.778,2.083,1.632,1.906,2.917-.209,1.516-1.533,2.424-3.585,2.141a4.978,4.978,0,0,1-2.344-.922Z" style="fill:#fff"/><path d="M584.276,241.029l-.341,2.48,2.247.309-.164,1.2-2.247-.31-.642,4.655c-.148,1.071.072,1.718.946,1.839a3.528,3.528,0,0,0,.924.019l-.091,1.186a3.886,3.886,0,0,1-1.42.023,2.2,2.2,0,0,1-1.6-.894,3.228,3.228,0,0,1-.3-2.331l.649-4.709-1.338-.183.165-1.2,1.338.185.285-2.069Z" style="fill:#fff"/><path d="M588.08,248.769a2.792,2.792,0,0,0,2.547,3.405,5.737,5.737,0,0,0,2.452-.117l.113,1.161a7.046,7.046,0,0,1-2.946.138,4.045,4.045,0,0,1-3.645-4.936c.358-2.6,2.175-4.444,4.69-4.1,2.818.389,3.226,2.972,3.007,4.558a5.89,5.89,0,0,1-.154.724Zm4.756-.49a2.256,2.256,0,0,0-1.825-2.85,2.626,2.626,0,0,0-2.759,2.218Z" style="fill:#fff"/><path d="M608.564,242.8l-1.437,10.434c-.106.767-.208,1.643-.236,2.24l-1.409-.195.135-1.507-.035,0a3.226,3.226,0,0,1-3.177,1.288c-2.087-.287-3.449-2.275-3.088-4.9.378-2.874,2.4-4.393,4.509-4.1a2.912,2.912,0,0,1,2.423,1.679l.036,0,.71-5.155Zm-2.609,7.328a2.766,2.766,0,0,0,.02-.669,2.331,2.331,0,0,0-2.015-2.133c-1.623-.222-2.782,1.072-3.045,2.98-.241,1.749.416,3.31,2.11,3.544a2.381,2.381,0,0,0,2.559-1.555,2.789,2.789,0,0,0,.165-.669Z" style="fill:#fff"/><path d="M610.851,251.906a2.791,2.791,0,0,0,2.547,3.405,5.721,5.721,0,0,0,2.452-.117l.112,1.16a7.028,7.028,0,0,1-2.944.14,4.046,4.046,0,0,1-3.646-4.937c.358-2.6,2.175-4.444,4.69-4.1,2.818.388,3.226,2.971,3.007,4.558a6.106,6.106,0,0,1-.154.723Zm4.756-.489a2.258,2.258,0,0,0-1.825-2.852,2.628,2.628,0,0,0-2.759,2.22Z" style="fill:#fff"/><path d="M625.214,247.087l-3.656-.5.181-1.32,8.9,1.226-.182,1.32-3.674-.506-1.474,10.7-1.57-.216Z" style="fill:#fff"/><path d="M630.429,254.6a2.792,2.792,0,0,0,2.548,3.4,5.718,5.718,0,0,0,2.451-.116l.113,1.16a7.037,7.037,0,0,1-2.945.139,4.046,4.046,0,0,1-3.646-4.936c.359-2.606,2.175-4.444,4.691-4.1,2.818.388,3.225,2.971,3.006,4.558a5.947,5.947,0,0,1-.153.723Zm4.757-.49a2.256,2.256,0,0,0-1.825-2.85,2.624,2.624,0,0,0-2.759,2.218Z" style="fill:#fff"/><path d="M638.751,253.806c.141-1.018.243-1.894.3-2.7l1.374.189-.18,1.7.071.01a2.615,2.615,0,0,1,2.651-1.562,1.735,1.735,0,0,1,.438.116l-.2,1.48a2.325,2.325,0,0,0-.527-.128,2.224,2.224,0,0,0-2.383,1.726,4.523,4.523,0,0,0-.172.721l-.634,4.6-1.552-.214Z" style="fill:#fff"/><path d="M644.653,254.618c.14-1.016.243-1.892.3-2.7l1.374.189-.181,1.7.072.009a2.614,2.614,0,0,1,2.65-1.561,1.7,1.7,0,0,1,.439.114l-.2,1.481a2.355,2.355,0,0,0-.527-.127,2.222,2.222,0,0,0-2.383,1.725,4.484,4.484,0,0,0-.172.722l-.634,4.6-1.552-.213Z" style="fill:#fff"/><path d="M650.917,257.426a2.792,2.792,0,0,0,2.548,3.405,5.74,5.74,0,0,0,2.452-.117l.112,1.161a7.071,7.071,0,0,1-2.945.139,4.047,4.047,0,0,1-3.646-4.937c.359-2.6,2.175-4.444,4.691-4.1,2.818.389,3.225,2.971,3.007,4.558a5.92,5.92,0,0,1-.155.725Zm4.756-.489a2.256,2.256,0,0,0-1.824-2.851,2.625,2.625,0,0,0-2.759,2.219Z" style="fill:#fff"/><path d="M659.289,256.271c.122-.892.206-1.625.25-2.346l1.392.191-.108,1.44.036,0a3.2,3.2,0,0,1,3.078-1.23c1.194.164,2.951,1.133,2.543,4.094l-.71,5.155-1.57-.216.686-4.976c.192-1.392-.166-2.622-1.647-2.826a2.25,2.25,0,0,0-2.325,1.314,2.278,2.278,0,0,0-.208.717l-.715,5.191-1.57-.217Z" style="fill:#fff"/><path d="M676.734,260.62a4.258,4.258,0,0,1-4.93,3.991,4.142,4.142,0,0,1-3.526-5.011c.4-2.89,2.522-4.324,4.912-4C675.67,255.947,677.1,257.979,676.734,260.62Zm-6.861-.855c-.261,1.89.63,3.467,2.165,3.679,1.5.206,2.816-1.048,3.084-2.992.2-1.463-.275-3.419-2.129-3.674S670.1,258.124,669.873,259.765Z" style="fill:#fff"/><path d="M678.114,263.645a4.161,4.161,0,0,0,1.983.91c1.142.157,1.755-.34,1.853-1.054.1-.749-.286-1.221-1.387-1.809-1.475-.766-2.088-1.723-1.946-2.757.192-1.392,1.474-2.378,3.328-2.123a4.352,4.352,0,0,1,2.049.827l-.55,1.088a3.389,3.389,0,0,0-1.7-.743c-.928-.128-1.518.336-1.607.978-.1.713.375,1.105,1.44,1.689,1.42.777,2.084,1.632,1.906,2.916-.208,1.516-1.533,2.424-3.585,2.142a4.982,4.982,0,0,1-2.344-.923Z" style="fill:#fff"/></g></g></svg>