<svg class="animate__animated" xmlns="http://www.w3.org/2000/svg" viewBox="0 0 734 353.2">
  <g>
    <g class="hoverable" onclick="returnToGroups();">
      <circle cx="127.5" cy="207.7" r="127" style="fill: none;stroke: #aab8bd;stroke-miterlimit: 10"/>
      <circle cx="127.7" cy="207.9" r="105" style="fill: #bdc4c6"/>
      <g>
        <path d="M99.2,212.8a14.7,14.7,0,0,1-4.6.8,7.4,7.4,0,0,1-5.5-1.9,7,7,0,0,1-2-5.2c0-4.6,3.2-7.5,7.9-7.5a9.8,9.8,0,0,1,3.8.7l-.6,2.1a8.2,8.2,0,0,0-3.2-.6c-3.1,0-5.2,1.8-5.2,5.1s2,5.2,5,5.2a4.1,4.1,0,0,0,1.9-.3v-3.6H94.2v-2h5Z" style="fill: #112025"/>
        <path d="M109.9,207.1h-5.4v4.2h6v2.2h-8.6V199.2h8.3v2.1h-5.7V205h5.4Z" style="fill: #112025"/>
        <path d="M112.7,210.6a7.5,7.5,0,0,0,3.5.9c1.7,0,2.6-.8,2.6-1.9s-.7-1.7-2.5-2.4-3.9-2.1-3.9-4.1,2-4.1,5-4.1a7.7,7.7,0,0,1,3.5.7l-.7,2.1a5.6,5.6,0,0,0-2.8-.7c-1.6,0-2.4.9-2.4,1.7s.9,1.6,2.8,2.4,3.6,2.1,3.6,4.2-1.7,4.3-5.4,4.3a9.2,9.2,0,0,1-3.8-.9Z" style="fill: #112025"/>
        <path d="M126.5,201.4h-4v-2.2h10.7v2.2h-4.1v12.1h-2.6Z" style="fill: #112025"/>
        <path d="M137.5,199.2v14.3h-2.6V199.2Z" style="fill: #112025"/>
        <path d="M153.2,206.2c0,4.8-2.9,7.5-6.9,7.5s-6.5-3.1-6.5-7.3,2.7-7.4,6.7-7.4S153.2,202.1,153.2,206.2Zm-10.7.2c0,2.9,1.5,5.2,4,5.2s3.9-2.3,3.9-5.3-1.3-5.2-3.9-5.2S142.5,203.4,142.5,206.4Zm7.4-10.6-2.7,2.6h-2.1l1.9-2.6Z" style="fill: #112025"/>
        <path d="M155.4,213.5V199.2h3l3.6,6.1a36.7,36.7,0,0,1,2.5,4.8h0c-.1-1.9-.2-3.8-.2-5.9v-5h2.4v14.3H164l-3.7-6.3c-.9-1.6-1.9-3.3-2.6-4.9h0c.1,1.8.1,3.7.1,6.1v5.1Z" style="fill: #112025"/>
      </g>
    </g>
    <g class="hoverable" onclick="returnToTypesInstrument();">
      <path d="M452.4,288,281.2,246.2a159.8,159.8,0,0,0,4.5-37.9,158.2,158.2,0,0,0-8.9-52.5L443.1,97.2A335.5,335.5,0,0,1,462,208.3,332.4,332.4,0,0,1,452.4,288Z" style="fill: #29abe2"/>
      <path d="M439.3,284.3,275.1,244.1a154,154,0,0,0-4.2-86.6l159.4-56.2a321.3,321.3,0,0,1,18.1,106.6A326.5,326.5,0,0,1,439.3,284.3Z" style="fill: #84266a"/>
      <g>
        <path d="M313.9,169.9V184h-1.8V169.9Z" style="fill: #fff"/>
        <path d="M317.3,176.6a22.6,22.6,0,0,0-.1-2.7h1.6v1.6h.1a3.9,3.9,0,0,1,3.3-1.9c1.5,0,3.6.9,3.6,4.4v6h-1.8v-5.8c0-1.7-.6-3-2.4-3a2.5,2.5,0,0,0-2.4,1.8,2.9,2.9,0,0,0-.2.9V184h-1.8Z" style="fill: #fff"/>
        <path d="M331.1,170.9v3h2.6v1.4h-2.6v5.4c0,1.3.3,2,1.4,2h1V184l-1.6.2a2.4,2.4,0,0,1-2-.7,4.1,4.1,0,0,1-.7-2.7v-5.5h-1.6v-1.4h1.6v-2.5Z" style="fill: #fff"/>
        <path d="M336.7,179.3a3.3,3.3,0,0,0,3.5,3.5,6.7,6.7,0,0,0,2.8-.5l.3,1.3a7.9,7.9,0,0,1-3.4.6c-3.1,0-5-2-5-5.1s1.9-5.5,4.8-5.5,4.2,2.9,4.2,4.8v.9Zm5.4-1.3a2.7,2.7,0,0,0-2.5-3.1c-1.9,0-2.7,1.8-2.9,3.1Z" style="fill: #fff"/>
        <path d="M346.2,177a29.1,29.1,0,0,0-.1-3.1h1.6v2h.1a3,3,0,0,1,2.8-2.3h.5v1.7h-.6a2.7,2.7,0,0,0-2.5,2.3c0,.3-.1.6-.1.9V184h-1.8Z" style="fill: #fff"/>
        <path d="M354.3,173.9l2,5.7a25.8,25.8,0,0,1,.8,2.6h.1a25.8,25.8,0,0,1,.8-2.6l2-5.7h2L358,184h-1.8l-3.9-10.1Z" style="fill: #fff"/>
        <path d="M364.5,179.3a3.3,3.3,0,0,0,3.5,3.5,6.7,6.7,0,0,0,2.8-.5l.3,1.3a7.7,7.7,0,0,1-3.3.6c-3.2,0-5-2-5-5.1s1.8-5.5,4.7-5.5,4.2,2.9,4.2,4.8v.9Zm5.4-1.3c.1-1.2-.4-3.1-2.5-3.1s-2.7,1.8-2.9,3.1Z" style="fill: #fff"/>
        <path d="M374,176.6a22.6,22.6,0,0,0-.1-2.7h1.7v1.6h0a3.9,3.9,0,0,1,3.4-1.9c1.4,0,3.6.9,3.6,4.4v6h-1.9v-5.8c0-1.7-.6-3-2.3-3A2.5,2.5,0,0,0,376,177a2.8,2.8,0,0,0-.1.9V184H374Z" style="fill: #fff"/>
        <path d="M392.9,183.6a6,6,0,0,1-2.9.6,4.8,4.8,0,0,1-5.1-5.2,5.2,5.2,0,0,1,5.5-5.4,5.1,5.1,0,0,1,2.5.6l-.4,1.4a3.6,3.6,0,0,0-2.1-.5c-2.3,0-3.6,1.7-3.6,3.9a3.5,3.5,0,0,0,3.5,3.8,5.6,5.6,0,0,0,2.3-.5Z" style="fill: #fff"/>
        <path d="M397.1,171a1,1,0,0,1-1.1,1.1,1.1,1.1,0,0,1-1.2-1.1,1.2,1.2,0,0,1,1.2-1.2A1.1,1.1,0,0,1,397.1,171Zm-2,13V173.9h1.8V184Z" style="fill: #fff"/>
        <path d="M409.2,178.9a5,5,0,0,1-5.1,5.4c-2.7,0-4.8-2.1-4.8-5.3s2.2-5.4,5-5.4S409.2,175.7,409.2,178.9Zm-8.1.1c0,2.2,1.3,3.9,3.1,3.9s3.1-1.7,3.1-4-.9-3.9-3.1-3.9S401.1,177,401.1,179Zm5.9-9.5-2.6,3h-1.3l1.8-3Z" style="fill: #fff"/>
        <path d="M411.5,176.6a22.6,22.6,0,0,0-.1-2.7h1.7v1.6h0a3.9,3.9,0,0,1,3.4-1.9c1.4,0,3.6.9,3.6,4.4v6h-1.9v-5.8c0-1.7-.6-3-2.3-3a2.5,2.5,0,0,0-2.5,1.8,2.8,2.8,0,0,0-.1.9V184h-1.9Z" style="fill: #fff"/>
        <path d="M298.3,202.6h-5.5v5.1h6.1v1.5H291V195.1h7.6v1.5h-5.8v4.5h5.5Z" style="fill: #fff"/>
        <path d="M301,207.3a4.3,4.3,0,0,0,2.4.8c1.4,0,2-.7,2-1.5s-.5-1.4-1.9-1.9-2.7-1.7-2.7-2.9,1.3-3,3.5-3a4.1,4.1,0,0,1,2.5.7l-.4,1.3a3.7,3.7,0,0,0-2.1-.6c-1.1,0-1.7.6-1.7,1.4s.6,1.2,1.9,1.7,2.7,1.6,2.7,3.1-1.4,3-3.8,3a5.2,5.2,0,0,1-2.9-.7Z" style="fill: #fff"/>
        <path d="M311.8,196.1v3h2.6v1.4h-2.6v5.4c0,1.3.3,2,1.4,2h1v1.4l-1.6.2a2.4,2.4,0,0,1-2-.7,4.1,4.1,0,0,1-.7-2.7v-5.5h-1.6v-1.4H310v-2.5Z" style="fill: #fff"/>
        <path d="M316.5,202.2a29.1,29.1,0,0,0-.1-3.1H318v2h.1a3,3,0,0,1,2.8-2.3h.5v1.7h-.6a2.7,2.7,0,0,0-2.5,2.3c0,.3-.1.6-.1.9v5.4h-1.8Z" style="fill: #fff"/>
        <path d="M331.9,206.4a23.5,23.5,0,0,0,.1,2.8h-1.7v-1.6h0a4,4,0,0,1-3.4,1.9c-1.6,0-3.5-.9-3.5-4.5v-5.9h1.9v5.6c0,1.9.5,3.2,2.2,3.2a2.7,2.7,0,0,0,2.5-1.7,2.5,2.5,0,0,0,.1-.9v-6.2h1.9Z" style="fill: #fff"/>
        <path d="M342.2,208.8a6.3,6.3,0,0,1-2.9.6,4.8,4.8,0,0,1-5.1-5.2,5.2,5.2,0,0,1,5.5-5.4,5.1,5.1,0,0,1,2.5.6l-.4,1.4a3.6,3.6,0,0,0-2.1-.5c-2.4,0-3.6,1.7-3.6,3.9a3.5,3.5,0,0,0,3.5,3.8,6.1,6.1,0,0,0,2.3-.5Z" style="fill: #fff"/>
        <path d="M346.8,196.1v3h2.7v1.4h-2.7v5.4c0,1.3.4,2,1.4,2h1.1v1.4l-1.7.2a2.4,2.4,0,0,1-1.9-.7,3.6,3.6,0,0,1-.8-2.7v-5.5h-1.5v-1.4H345v-2.5Z" style="fill: #fff"/>
        <path d="M360.1,206.4a23.5,23.5,0,0,0,.1,2.8h-1.7v-1.6h0a4,4,0,0,1-3.4,1.9c-1.6,0-3.5-.9-3.5-4.5v-5.9h1.9v5.6c0,1.9.5,3.2,2.2,3.2a2.7,2.7,0,0,0,2.5-1.7,2.5,2.5,0,0,0,.1-.9v-6.2h1.9Z" style="fill: #fff"/>
        <path d="M363.1,202.2v-3.1h1.6v2h.1a3.1,3.1,0,0,1,2.8-2.3h.6v1.7h-.7a2.5,2.5,0,0,0-2.4,2.3,2.8,2.8,0,0,0-.1.9v5.4h-1.9Z" style="fill: #fff"/>
        <path d="M375.5,209.2v-1.3h-.1a3.6,3.6,0,0,1-3.1,1.6,3,3,0,0,1-3.1-3c0-2.4,2.2-3.8,6.1-3.7v-.3a2.1,2.1,0,0,0-2.3-2.3,5.6,5.6,0,0,0-2.6.7l-.5-1.2a7.1,7.1,0,0,1,3.4-.9c3.1,0,3.8,2.1,3.8,4.2v3.8a16.6,16.6,0,0,0,.2,2.4Zm-.2-5.2c-2.1,0-4.3.3-4.3,2.3a1.7,1.7,0,0,0,1.7,1.8,2.7,2.7,0,0,0,2.5-1.7c0-.2.1-.4.1-.6Z" style="fill: #fff"/>
        <path d="M384.5,195.2l3.5-.2a6,6,0,0,1,4,1.1,3.8,3.8,0,0,1,1.3,3,4.1,4.1,0,0,1-1.1,3,5.8,5.8,0,0,1-4.4,1.6h-1.4v5.6h-1.9Zm1.9,6.9h1.5c2.2,0,3.5-1.1,3.5-3s-1.3-2.8-3.3-2.8l-1.7.2Z" style="fill: #fff"/>
        <path d="M395.3,202.2a29.1,29.1,0,0,0-.1-3.1h1.6v2h.1a3.1,3.1,0,0,1,2.8-2.3h.5v1.7h-.6a2.7,2.7,0,0,0-2.5,2.3c0,.3-.1.6-.1.9v5.4h-1.8Z" style="fill: #fff"/>
        <path d="M403,204.5a3.2,3.2,0,0,0,3.5,3.5,6.7,6.7,0,0,0,2.8-.5l.3,1.3a7.9,7.9,0,0,1-3.4.6c-3.1,0-5-2-5-5.1s1.8-5.5,4.8-5.5,4.2,2.9,4.2,4.8a2.2,2.2,0,0,1-.1.9Zm5.4-1.3c0-1.2-.5-3.1-2.5-3.1s-2.7,1.8-2.9,3.1Z" style="fill: #fff"/>
        <path d="M421.3,194.3v12.3a20.9,20.9,0,0,0,.1,2.6h-1.7v-1.7h0a3.9,3.9,0,0,1-3.5,2c-2.5,0-4.3-2.1-4.3-5.2s2-5.5,4.5-5.5a3.5,3.5,0,0,1,3.1,1.6h0v-6.1Zm-1.9,8.9a2.2,2.2,0,0,0-.1-.8,2.5,2.5,0,0,0-2.6-2.1c-1.9,0-3.1,1.7-3.1,3.9s1,3.8,3,3.8a2.8,2.8,0,0,0,2.7-2.2,2.2,2.2,0,0,0,.1-.8Z" style="fill: #fff"/>
        <path d="M426.4,196.2a1.1,1.1,0,0,1-1.2,1.1,1.1,1.1,0,0,1-1.1-1.1,1.2,1.2,0,0,1,1.2-1.2A1.1,1.1,0,0,1,426.4,196.2Zm-2.1,13V199.1h1.9v10.1Z" style="fill: #fff"/>
        <path d="M434.9,209.2l-.2-1.3h0a3.9,3.9,0,0,1-3.1,1.6,2.9,2.9,0,0,1-3.1-3c0-2.4,2.1-3.8,6.1-3.7v-.3a2.1,2.1,0,0,0-2.3-2.3,5.7,5.7,0,0,0-2.7.7l-.4-1.2a6.4,6.4,0,0,1,3.3-.9c3.1,0,3.9,2.1,3.9,4.2v3.8a9,9,0,0,0,.2,2.4Zm-.3-5.2c-2,0-4.3.3-4.3,2.3a1.7,1.7,0,0,0,1.7,1.8,2.6,2.6,0,0,0,2.5-1.7,1.3,1.3,0,0,0,.1-.6Z" style="fill: #fff"/>
        <path d="M439.4,194.3h1.8v14.9h-1.8Z" style="fill: #fff"/>
      </g>
    </g>
    <g class="hoverable" onclick="showInstrument('gestion', 'intervencion_estructura_predial', 'integracion_mobiliaria');">
      <path d="M493.3,186.9v-.7a364.2,364.2,0,0,0-21.5-104L697.3,0a607.8,607.8,0,0,1,35.6,172.2v1.2Z" style="fill: #84266a"/>
      <g>
        <path d="M526.7,113.8l2.1,12-1.6.2-2-11.9Z" style="fill: #fff"/>
        <path d="M530.5,119c-.1-.9-.3-1.6-.4-2.3l1.3-.2.4,1.4h0a3.2,3.2,0,0,1,2.6-2.1c1.2-.2,3.1.2,3.6,3.1l.9,5.1-1.6.3-.8-5c-.2-1.3-.9-2.4-2.4-2.2a2.3,2.3,0,0,0-1.8,2,.9.9,0,0,0,0,.7l.9,5.2-1.6.3Z" style="fill: #fff"/>
        <path d="M541.4,112.2l.4,2.5,2.2-.4.2,1.2-2.2.4.8,4.6c.2,1.1.6,1.6,1.4,1.5l.9-.3.3,1.2a3.4,3.4,0,0,1-1.4.4,2.2,2.2,0,0,1-1.8-.3,3.2,3.2,0,0,1-.9-2.2l-.8-4.7-1.4.3-.2-1.2,1.4-.2-.4-2.1Z" style="fill: #fff"/>
        <path d="M547.3,118.5a2.8,2.8,0,0,0,3.5,2.4,5.6,5.6,0,0,0,2.3-.8l.4,1.1a7.3,7.3,0,0,1-2.7,1,4.1,4.1,0,0,1-5-3.6c-.4-2.6.7-4.9,3.2-5.3s4,1.8,4.3,3.4,0,.6.1.7Zm4.4-1.9a2.2,2.2,0,0,0-2.6-2.2,2.5,2.5,0,0,0-1.9,2.9Z" style="fill: #fff"/>
        <path d="M562,111.3a12,12,0,0,0,.3,2.3l.8,5c.4,2,.2,3.3-.5,4.2a4.8,4.8,0,0,1-3,1.5,5.5,5.5,0,0,1-2.9-.2l.2-1.3a4.2,4.2,0,0,0,2.6.3c1.6-.3,2.6-1.3,2.2-3.5v-1h-.1a3.2,3.2,0,0,1-2.4,1.9c-2.2.3-4-1.2-4.4-3.6s1.1-4.9,3.1-5.2a2.8,2.8,0,0,1,2.9,1h0v-1.3Zm-1.1,3.6a1.9,1.9,0,0,0-.2-.7,2.2,2.2,0,0,0-2.4-1.2c-1.5.2-2.4,1.6-2,3.6s1.3,3,3,2.7a2.3,2.3,0,0,0,1.9-2,2.1,2.1,0,0,0,0-.8Z" style="fill: #fff"/>
        <path d="M564.8,113.5a17.2,17.2,0,0,0-.5-2.6l1.4-.3.3,1.7h.1a2.7,2.7,0,0,1,2-2.3h.5l.2,1.5h-.5a2.2,2.2,0,0,0-1.7,2.4v.7l.8,4.6-1.6.2Z" style="fill: #fff"/>
        <path d="M576.3,117.7l-.3-1.1h0a3.2,3.2,0,0,1-2.5,1.7,2.4,2.4,0,0,1-3-2c-.4-2.1,1.3-3.5,4.6-4.1h0a1.8,1.8,0,0,0-2.3-1.7,3.8,3.8,0,0,0-2.1,1l-.6-.9a5.7,5.7,0,0,1,2.7-1.3c2.7-.4,3.6,1.2,3.9,3l.5,3.2c.2.7.3,1.4.5,2Zm-1-4.4c-1.7.3-3.6.9-3.3,2.6a1.5,1.5,0,0,0,1.8,1.2,2.1,2.1,0,0,0,1.8-1.8v-.5Z" style="fill: #fff"/>
        <path d="M586.2,115.6a6.1,6.1,0,0,1-2.4,1,4.2,4.2,0,0,1-5-3.7,4.3,4.3,0,0,1,3.8-5.3,5.3,5.3,0,0,1,2.2,0v1.3a5.2,5.2,0,0,0-1.9-.1c-2,.3-2.8,2-2.5,3.8a3.1,3.1,0,0,0,3.6,2.7,4.3,4.3,0,0,0,1.8-.8Z" style="fill: #fff"/>
        <path d="M587.9,104.4a.9.9,0,0,1-.8,1.1.9.9,0,0,1-1.1-.8,1,1,0,0,1,.8-1.2A.9.9,0,0,1,587.9,104.4Zm.2,11.3-1.5-8.6,1.6-.3,1.4,8.6Z" style="fill: #fff"/>
        <path d="M599.2,109.3a4.1,4.1,0,0,1-3.5,5.2,4.1,4.1,0,0,1-4.8-3.7,4.3,4.3,0,0,1,3.5-5.3C596.8,105.1,598.8,106.6,599.2,109.3Zm-6.8,1.2c.4,1.9,1.7,3.1,3.2,2.9s2.4-1.9,2.1-3.8-1.3-3.2-3.2-2.9S592.2,108.9,592.4,110.5Zm3.6-8.9-1.7,2.9-1.1.2,1.1-2.8Z" style="fill: #fff"/>
        <path d="M600.9,107c-.2-.9-.3-1.6-.5-2.3l1.4-.2.3,1.4h.1a3.1,3.1,0,0,1,2.5-2.1c1.2-.2,3.2.2,3.7,3.1l.9,5.1-1.6.3-.8-4.9c-.3-1.4-1-2.5-2.5-2.2a2.1,2.1,0,0,0-1.8,1.9v.8l.9,5.1-1.5.3Z" style="fill: #fff"/>
        <path d="M624.8,104c-.4-1.7-.8-3.7-1.1-5.1h0c-.2,1.4-.4,3-.7,4.8l-1.2,6.1-1.1.2-2.9-5.3a46,46,0,0,1-2.2-4.5h-.1c.3,1.4.5,3.5.7,5.3l.6,5.2-1.5.2-1.2-12.1,2-.3,3,5.4c.7,1.4,1.4,2.6,1.9,3.8h0a42.2,42.2,0,0,1,.6-4.2l1.2-6.2,1.9-.3,2.8,11.8-1.5.3Z" style="fill: #fff"/>
        <path d="M637,102.8c.5,3.2-1.5,5-3.5,5.3s-4.4-1-4.9-3.7,1.1-4.9,3.5-5.3S636.5,100.2,637,102.8Zm-6.8,1.3c.3,1.9,1.6,3.1,3.1,2.8s2.4-1.8,2.1-3.7-1.3-3.2-3.2-2.9S629.9,102.4,630.2,104.1Z" style="fill: #fff"/>
        <path d="M639.6,106.9c-.1-.6-.2-1.5-.3-2.3l-1.8-10.3,1.6-.3.9,5.4h0a3.2,3.2,0,0,1,2.7-2.1c2.1-.4,3.9,1.2,4.4,3.8s-1.2,4.9-3.1,5.2a3.3,3.3,0,0,1-3.2-1.1h0l.2,1.4Zm1-3.7.2.5a2.5,2.5,0,0,0,2.7,1.4c1.6-.2,2.3-1.7,2-3.7s-1.4-3-3.1-2.8a2.7,2.7,0,0,0-2.1,2.4,1.5,1.5,0,0,0,.1.6Z" style="fill: #fff"/>
        <path d="M649.6,93.8a1,1,0,0,1-.8,1.2,1,1,0,0,1-1.1-.8,1,1,0,0,1,.8-1.2A.9.9,0,0,1,649.6,93.8Zm.2,11.3-1.5-8.5,1.6-.3,1.4,8.6Z" style="fill: #fff"/>
        <path d="M651.8,91.8l1.5-.2,2.2,12.6-1.6.2Z" style="fill: #fff"/>
        <path d="M658,92.4c.1.6-.2,1-.9,1.1a.9.9,0,0,1-1.1-.7,1,1,0,0,1,2-.4Zm.1,11.3-1.5-8.6,1.6-.2,1.5,8.6Z" style="fill: #fff"/>
        <path d="M667,102.2l-.3-1.1h0a3.4,3.4,0,0,1-2.5,1.7,2.5,2.5,0,0,1-3-2c-.4-2.1,1.3-3.6,4.6-4.1v-.2a1.8,1.8,0,0,0-2.3-1.6,3.8,3.8,0,0,0-2.1,1l-.6-1a5.1,5.1,0,0,1,2.7-1.2c2.7-.5,3.6,1.2,3.9,2.9l.5,3.2c.2.8.3,1.5.5,2.1Zm-1-4.3c-1.7.2-3.6.8-3.3,2.5a1.6,1.6,0,0,0,1.8,1.3,2.2,2.2,0,0,0,1.8-1.8v-.5Z" style="fill: #fff"/>
        <path d="M669.8,95.6c-.2-1-.3-1.8-.5-2.6l1.3-.3.4,1.7h.1a2.7,2.7,0,0,1,2-2.3h.5l.2,1.5h-.5a2.3,2.3,0,0,0-1.8,2.4,2,2,0,0,0,.1.7l.8,4.6-1.6.3Z" style="fill: #fff"/>
        <path d="M676.6,89.3a1,1,0,0,1-2,.3,1,1,0,1,1,2-.3Zm.1,11.3L675.2,92l1.6-.3,1.5,8.6Z" style="fill: #fff"/>
        <path d="M685.6,99l-.3-1h-.1a3.1,3.1,0,0,1-2.4,1.7,2.5,2.5,0,0,1-3-2c-.4-2.1,1.3-3.5,4.6-4.1v-.2a1.8,1.8,0,0,0-2.3-1.6,3.8,3.8,0,0,0-2.1,1l-.6-1a6.7,6.7,0,0,1,2.7-1.2c2.6-.5,3.6,1.2,3.9,3l.5,3.2c.2.7.3,1.4.5,2Zm-1-4.3c-1.7.2-3.6.9-3.3,2.5a1.4,1.4,0,0,0,1.7,1.3,2.2,2.2,0,0,0,1.9-1.8v-.5Z" style="fill: #fff"/>
      </g>
    </g>
    <g class="hoverable" onclick="showInstrument('gestion', 'intervencion_estructura_predial', 'reajuste_de_terrenos');">
      <path d="M716.4,353.2l-233-57.5A365.6,365.6,0,0,0,494,208.3c0-6-.2-12.2-.5-18.3l239.7-11.8c.5,10,.8,20.1.8,30.1A608.1,608.1,0,0,1,716.4,353.2Z" style="fill: #84266a"/>
      <g>
        <path d="M534.1,233.4a15.5,15.5,0,0,1,3,.1,4.9,4.9,0,0,1,3.4,1.5,3.2,3.2,0,0,1,.6,2.4,3,3,0,0,1-2.7,2.7h0c.9.4,1.3,1.4,1.5,2.7a15.3,15.3,0,0,0,.4,3.4l-1.6-.2a19.5,19.5,0,0,1-.4-3c-.1-1.7-.7-2.4-2.1-2.7l-1.4-.2-.8,5.2-1.5-.2Zm.8,5.6,1.6.3c1.7.2,2.9-.6,3-1.9s-.8-2.4-2.4-2.7h-1.6Z" style="fill: #fff"/>
        <path d="M543.5,242.6a2.8,2.8,0,0,0,2.6,3.4,4.6,4.6,0,0,0,2.4-.1v1.2a6.3,6.3,0,0,1-2.9.1c-2.7-.3-4-2.3-3.6-4.9s2.1-4.5,4.6-4.1,3.3,3,3.1,4.5a4.5,4.5,0,0,0-.2.8Zm4.8-.5c.1-1-.1-2.6-1.8-2.8a2.7,2.7,0,0,0-2.8,2.2Z" style="fill: #fff"/>
        <path d="M555.8,248.4v-1.1h0a3.2,3.2,0,0,1-2.8.9,2.4,2.4,0,0,1-2.3-2.8c.3-2.1,2.3-3,5.6-2.5v-.2a1.7,1.7,0,0,0-1.7-2.2,3.6,3.6,0,0,0-2.3.3l-.2-1.1a5.6,5.6,0,0,1,2.9-.4c2.7.4,3.1,2.3,2.8,4l-.4,3.2a18.3,18.3,0,0,0-.2,2.1Zm.4-4.4c-1.7-.3-3.7-.2-3.9,1.4a1.3,1.3,0,0,0,1.2,1.7,2,2,0,0,0,2.3-1.1c.1-.2.2-.3.2-.5Z" style="fill: #fff"/>
        <path d="M557.2,251.2a2.6,2.6,0,0,0,1.8-.5c.5-.4.7-1.1,1-3.1l1-7.2,1.6.2-1.1,7.8c-.2,1.7-.6,2.7-1.5,3.4a4.1,4.1,0,0,1-2.8.6Zm5.9-13a.9.9,0,0,1-1.1.8.9.9,0,0,1-.8-1.1c0-.6.5-.9,1.1-.8S563.2,237.6,563.1,238.2Z" style="fill: #fff"/>
        <path d="M571.5,248.2a23.2,23.2,0,0,0-.2,2.4l-1.4-.2v-1.5h-.1a3.1,3.1,0,0,1-3,1.3c-1.4-.2-2.9-1.2-2.5-4.2l.7-5.1,1.6.2-.7,4.8c-.2,1.7.1,2.8,1.6,3a2.2,2.2,0,0,0,2.2-1.1c.2-.2.2-.5.3-.8l.7-5.3,1.6.2Z" style="fill: #fff"/>
        <path d="M573.8,249.3a4.6,4.6,0,0,0,2,.9c1.1.1,1.7-.4,1.8-1.1s-.2-1.2-1.3-1.8-2.1-1.7-2-2.7a2.8,2.8,0,0,1,3.3-2.2,5.1,5.1,0,0,1,2.1.9l-.6,1.1a3,3,0,0,0-1.7-.8c-.9-.1-1.5.3-1.6,1s.4,1.1,1.5,1.7,2.1,1.6,1.9,2.9-1.6,2.4-3.6,2.1a4.3,4.3,0,0,1-2.4-.9Z" style="fill: #fff"/>
        <path d="M584.3,241l-.4,2.5,2.3.3L586,245l-2.2-.3-.7,4.7c-.1,1,.1,1.7,1,1.8a2.6,2.6,0,0,0,.9,0v1.2h-1.4a2.2,2.2,0,0,1-1.6-.9,2.8,2.8,0,0,1-.3-2.3l.6-4.7-1.3-.2.2-1.2,1.3.2.3-2.1Z" style="fill: #fff"/>
        <path d="M588.1,248.8a2.8,2.8,0,0,0,2.5,3.4,9.1,9.1,0,0,0,2.5-.1v1.1a8.3,8.3,0,0,1-3,.2,4.1,4.1,0,0,1-3.6-5c.4-2.6,2.2-4.4,4.7-4.1s3.2,3,3,4.6a1.4,1.4,0,0,1-.2.7Zm4.7-.5a2.3,2.3,0,0,0-1.8-2.9,2.6,2.6,0,0,0-2.7,2.2Z" style="fill: #fff"/>
        <path d="M608.6,242.8l-1.5,10.4a21.5,21.5,0,0,0-.2,2.3l-1.4-.2v-1.5h0a3.2,3.2,0,0,1-3.2,1.2c-2.1-.2-3.4-2.2-3.1-4.8s2.4-4.4,4.5-4.2a2.9,2.9,0,0,1,2.4,1.7h.1l.7-5.1Zm-2.6,7.3v-.6a2.4,2.4,0,0,0-2-2.2c-1.7-.2-2.8,1.1-3.1,3s.4,3.3,2.1,3.5a2.4,2.4,0,0,0,2.6-1.5,1.5,1.5,0,0,0,.1-.7Z" style="fill: #fff"/>
        <path d="M610.9,251.9a2.7,2.7,0,0,0,2.5,3.4,4.6,4.6,0,0,0,2.4-.1l.2,1.2a8.9,8.9,0,0,1-3,.1,4,4,0,0,1-3.6-4.9c.3-2.6,2.1-4.5,4.7-4.1s3.2,2.9,3,4.5-.1.6-.2.7Zm4.7-.5a2.2,2.2,0,0,0-1.8-2.8c-1.6-.3-2.5,1.1-2.8,2.2Z" style="fill: #fff"/>
        <path d="M625.2,247.1l-3.6-.5v-1.3l8.9,1.2v1.3l-3.7-.5L625.3,258l-1.6-.2Z" style="fill: #fff"/>
        <path d="M630.4,254.6A2.8,2.8,0,0,0,633,258a4.6,4.6,0,0,0,2.4-.1v1.2a8.1,8.1,0,0,1-2.9.1,4,4,0,0,1-3.6-4.9c.3-2.7,2.1-4.5,4.6-4.1s3.3,2.9,3,4.5a5.6,5.6,0,0,1-.1.7Zm4.8-.5c.1-1-.1-2.6-1.8-2.8s-2.5,1.1-2.8,2.2Z" style="fill: #fff"/>
        <path d="M638.8,253.8l.3-2.7,1.3.2-.2,1.7h.1a2.8,2.8,0,0,1,2.7-1.6l.4.2-.2,1.4h-.5a2.3,2.3,0,0,0-2.4,1.7c-.1.2-.1.5-.2.8l-.6,4.6-1.6-.3Z" style="fill: #fff"/>
        <path d="M644.7,254.6q.1-1.5.3-2.7l1.3.2-.2,1.7h.1a2.6,2.6,0,0,1,2.7-1.5h.4l-.2,1.4h-.5a2.3,2.3,0,0,0-2.4,1.7c-.1.3-.1.5-.2.8l-.6,4.6-1.6-.2Z" style="fill: #fff"/>
        <path d="M650.9,257.4a2.8,2.8,0,0,0,2.6,3.4,4.6,4.6,0,0,0,2.4-.1v1.2a8.3,8.3,0,0,1-2.9.1,4.1,4.1,0,0,1-3.7-4.9c.4-2.6,2.2-4.5,4.7-4.1a3.6,3.6,0,0,1,3,4.5c0,.4-.1.6-.1.8Zm4.8-.5c.1-1-.1-2.6-1.9-2.8a2.6,2.6,0,0,0-2.7,2.2Z" style="fill: #fff"/>
        <path d="M659.3,256.3a23.2,23.2,0,0,0,.2-2.4l1.4.2v1.5h.1a3,3,0,0,1,3-1.3c1.2.2,3,1.2,2.6,4.1l-.7,5.2-1.6-.2.7-5c.2-1.4-.2-2.6-1.7-2.8a2.1,2.1,0,0,0-2.3,1.3,1.4,1.4,0,0,0-.2.7l-.7,5.2-1.6-.2Z" style="fill: #fff"/>
        <path d="M676.7,260.6a4.2,4.2,0,0,1-4.9,4,4.1,4.1,0,0,1-3.5-5,4.3,4.3,0,0,1,4.9-4C675.7,255.9,677.1,258,676.7,260.6Zm-6.8-.8c-.3,1.9.6,3.4,2.1,3.6s2.9-1,3.1-2.9-.3-3.5-2.1-3.7S670.1,258.1,669.9,259.8Z" style="fill: #fff"/>
        <path d="M678.1,263.6a4.7,4.7,0,0,0,2,1c1.1.1,1.8-.4,1.9-1.1s-.3-1.2-1.4-1.8-2.1-1.7-2-2.8,1.5-2.3,3.3-2.1a4.6,4.6,0,0,1,2.1.8l-.6,1.1a3.9,3.9,0,0,0-1.7-.7c-.9-.1-1.5.3-1.6,1s.4,1.1,1.5,1.7,2.1,1.6,1.9,2.9-1.5,2.4-3.6,2.1a4.8,4.8,0,0,1-2.3-.9Z" style="fill: #fff"/>
      </g>
    </g>
  </g>
</svg>
