<svg xmlns="http://www.w3.org/2000/svg" viewBox="0 0 734.07 459.219"><g id="Capa_2" data-name="Capa 2"><g id="Capa_1-2" data-name="Capa 1"><path d="M442.288,371.221,276.4,312.076a158.983,158.983,0,0,0-5.87-120.459l159.283-75.135a331.442,331.442,0,0,1,31.821,142.472A333.371,333.371,0,0,1,442.288,371.221Z" style="fill:#266ec4"/><circle cx="127.695" cy="258.611" r="105" style="fill:#bdc4c6"/><circle cx="127.5" cy="260.611" r="127" style="fill:none;stroke:#aab8bd;stroke-miterlimit:10"/><path d="M99.242,263.687a14.117,14.117,0,0,1-4.593.805,7.683,7.683,0,0,1-5.587-1.906,7.069,7.069,0,0,1-1.99-5.248c0-4.507,3.217-7.408,7.937-7.408a9.462,9.462,0,0,1,3.788.678l-.571,2.095a7.7,7.7,0,0,0-3.239-.614c-3.047,0-5.184,1.8-5.184,5.122,0,3.238,1.989,5.164,4.952,5.164a5,5,0,0,0,1.969-.3v-3.556H94.205V256.47h5.037Z" style="fill:#112025"/><path d="M109.889,258.015h-5.376v4.191h6.01v2.137H101.91V250.079h8.3v2.137h-5.693V255.9h5.376Z" style="fill:#112025"/><path d="M112.748,261.507a7.2,7.2,0,0,0,3.449.91c1.672,0,2.6-.783,2.6-1.947,0-1.079-.72-1.714-2.54-2.37-2.349-.847-3.852-2.1-3.852-4.148,0-2.328,1.947-4.106,5.037-4.106a7.536,7.536,0,0,1,3.429.72l-.635,2.095a6.034,6.034,0,0,0-2.836-.677c-1.651,0-2.371.889-2.371,1.714,0,1.1.825,1.608,2.731,2.349,2.476.931,3.682,2.18,3.682,4.233,0,2.286-1.735,4.275-5.418,4.275a8.486,8.486,0,0,1-3.851-.888Z" style="fill:#112025"/><path d="M126.526,252.258h-4.063v-2.179h10.772v2.179H129.13v12.085h-2.6Z" style="fill:#112025"/><path d="M137.512,250.079v14.264h-2.6V250.079Z" style="fill:#112025"/><path d="M153.152,257.063c0,4.783-2.9,7.513-6.836,7.513-4.02,0-6.56-3.069-6.56-7.259,0-4.381,2.752-7.471,6.772-7.471C150.7,249.846,153.152,253,153.152,257.063Zm-10.644.212c0,2.9,1.46,5.206,3.957,5.206,2.518,0,3.936-2.328,3.936-5.313,0-2.687-1.333-5.227-3.936-5.227C143.883,251.941,142.508,254.333,142.508,257.275Zm7.364-10.54-2.645,2.54h-2.095l1.862-2.54Z" style="fill:#112025"/><path d="M155.4,264.343V250.079h2.963l3.683,6.116a39.464,39.464,0,0,1,2.434,4.783h.042c-.169-1.9-.233-3.746-.233-5.926v-4.973H166.7v14.264h-2.687l-3.725-6.264a49.732,49.732,0,0,1-2.56-4.931l-.064.02c.106,1.842.127,3.725.127,6.075v5.1Z" style="fill:#112025"/><path d="M699.873,459.219l-226.451-79.5.1-.282A365.509,365.509,0,0,0,494.07,258.851a368.575,368.575,0,0,0-35.195-156.362L675.891,0A610.091,610.091,0,0,1,734.07,258.851a604.908,604.908,0,0,1-33.917,199.568Z" style="fill:#b74b90"/><path d="M429.872,366.583,270.687,309.828a152.571,152.571,0,0,0-5.633-115.594l152.848-72.1a318.035,318.035,0,0,1,30.535,136.717A319.906,319.906,0,0,1,429.872,366.583Z" style="fill:#b74b90"/><path d="M292.654,226.238v15.5h-2v-15.5Z" style="fill:#fff"/><path d="M296.311,233.62c0-1.15-.023-2.093-.092-3.013h1.793l.115,1.84h.046a4.094,4.094,0,0,1,3.68-2.093c1.54,0,3.932.92,3.932,4.737v6.646h-2.024v-6.416c0-1.793-.667-3.288-2.575-3.288a2.877,2.877,0,0,0-2.714,2.069,2.914,2.914,0,0,0-.138.943v6.692h-2.023Z" style="fill:#fff"/><path d="M311.421,227.411v3.2h2.9v1.541h-2.9v6c0,1.38.391,2.161,1.518,2.161a4.5,4.5,0,0,0,1.173-.138l.092,1.518a4.958,4.958,0,0,1-1.794.275,2.808,2.808,0,0,1-2.185-.85,4.128,4.128,0,0,1-.781-2.9v-6.07h-1.725v-1.541h1.725V227.94Z" style="fill:#fff"/><path d="M317.586,236.54A3.565,3.565,0,0,0,321.4,240.4a7.335,7.335,0,0,0,3.081-.574l.345,1.448a9.02,9.02,0,0,1-3.7.689c-3.426,0-5.472-2.253-5.472-5.61s1.977-6,5.22-6c3.632,0,4.6,3.2,4.6,5.243a7.883,7.883,0,0,1-.068.943Zm5.933-1.449c.023-1.288-.529-3.288-2.806-3.288-2.046,0-2.943,1.886-3.1,3.288Z" style="fill:#fff"/><path d="M327.982,234.08c0-1.311-.024-2.438-.092-3.473h1.771l.068,2.185h.093a3.339,3.339,0,0,1,3.081-2.438,2.2,2.2,0,0,1,.575.069v1.909a3.04,3.04,0,0,0-.69-.069,2.837,2.837,0,0,0-2.713,2.6,5.691,5.691,0,0,0-.093.943v5.933h-2Z" style="fill:#fff"/><path d="M336.86,230.607l2.183,6.255a28.63,28.63,0,0,1,.9,2.851h.068c.253-.92.575-1.839.944-2.851l2.161-6.255h2.116l-4.369,11.13h-1.932l-4.231-11.13Z" style="fill:#fff"/><path d="M348.037,236.54a3.565,3.565,0,0,0,3.816,3.863,7.337,7.337,0,0,0,3.082-.574l.345,1.448a9.018,9.018,0,0,1-3.7.689c-3.427,0-5.473-2.253-5.473-5.61s1.978-6,5.22-6c3.633,0,4.6,3.2,4.6,5.243a7.883,7.883,0,0,1-.068.943Zm5.932-1.449c.023-1.288-.529-3.288-2.805-3.288-2.047,0-2.944,1.886-3.1,3.288Z" style="fill:#fff"/><path d="M358.432,233.62c0-1.15-.023-2.093-.092-3.013h1.793l.116,1.84h.045a4.094,4.094,0,0,1,3.68-2.093c1.54,0,3.932.92,3.932,4.737v6.646h-2.024v-6.416c0-1.793-.667-3.288-2.575-3.288a2.877,2.877,0,0,0-2.714,2.069,2.916,2.916,0,0,0-.137.943v6.692h-2.024Z" style="fill:#fff"/><path d="M379.13,241.323a7.457,7.457,0,0,1-3.2.643c-3.357,0-5.542-2.276-5.542-5.679a5.656,5.656,0,0,1,5.979-5.91,6.742,6.742,0,0,1,2.805.576l-.46,1.563a4.692,4.692,0,0,0-2.345-.529c-2.553,0-3.933,1.886-3.933,4.208a3.816,3.816,0,0,0,3.863,4.162,5.746,5.746,0,0,0,2.484-.552Z" style="fill:#fff"/><path d="M383.754,227.48a1.253,1.253,0,0,1-2.506,0,1.232,1.232,0,0,1,1.264-1.265A1.2,1.2,0,0,1,383.754,227.48ZM381.5,241.737v-11.13h2.024v11.13Z" style="fill:#fff"/><path d="M396.954,236.08c0,4.116-2.851,5.91-5.541,5.91-3.013,0-5.335-2.207-5.335-5.726,0-3.725,2.437-5.91,5.518-5.91C394.792,230.354,396.954,232.677,396.954,236.08Zm-8.83.115c0,2.437,1.4,4.277,3.38,4.277,1.932,0,3.38-1.816,3.38-4.323,0-1.886-.942-4.277-3.334-4.277S388.124,234.08,388.124,236.2ZM394.54,225.8l-2.806,3.288h-1.448l2.023-3.288Z" style="fill:#fff"/><path d="M399.509,233.62c0-1.15-.023-2.093-.092-3.013h1.793l.116,1.84h.046a4.091,4.091,0,0,1,3.679-2.093c1.54,0,3.932.92,3.932,4.737v6.646h-2.024v-6.416c0-1.793-.667-3.288-2.575-3.288a2.877,2.877,0,0,0-2.714,2.069,2.943,2.943,0,0,0-.137.943v6.692h-2.024Z" style="fill:#fff"/><path d="M418.277,236.54a3.565,3.565,0,0,0,3.816,3.863,7.334,7.334,0,0,0,3.082-.574l.345,1.448a9.018,9.018,0,0,1-3.7.689c-3.427,0-5.473-2.253-5.473-5.61s1.978-6,5.22-6c3.633,0,4.6,3.2,4.6,5.243a7.634,7.634,0,0,1-.069.943Zm5.932-1.449c.023-1.288-.529-3.288-2.805-3.288-2.047,0-2.944,1.886-3.105,3.288Z" style="fill:#fff"/><path d="M428.672,233.62c0-1.15-.023-2.093-.091-3.013h1.793l.115,1.84h.046a4.092,4.092,0,0,1,3.679-2.093c1.54,0,3.932.92,3.932,4.737v6.646h-2.023v-6.416c0-1.793-.667-3.288-2.576-3.288a2.877,2.877,0,0,0-2.714,2.069,2.943,2.943,0,0,0-.137.943v6.692h-2.024Z" style="fill:#fff"/><path d="M305.914,253.01h2.023v16.326h-2.023Z" style="fill:#fff"/><path d="M317.5,269.336l-.16-1.4h-.069a4.146,4.146,0,0,1-3.4,1.655,3.171,3.171,0,0,1-3.4-3.2c0-2.69,2.392-4.162,6.692-4.139v-.23a2.294,2.294,0,0,0-2.53-2.575,5.536,5.536,0,0,0-2.9.828l-.46-1.334a6.908,6.908,0,0,1,3.656-.989c3.4,0,4.232,2.323,4.232,4.553v4.162a15.764,15.764,0,0,0,.183,2.667Zm-.3-5.679c-2.207-.046-4.714.344-4.714,2.507a1.79,1.79,0,0,0,1.909,1.93,2.769,2.769,0,0,0,2.69-1.862,2.112,2.112,0,0,0,.115-.644Z" style="fill:#fff"/><path d="M327.373,254.022a23.165,23.165,0,0,1,3.839-.3,6.371,6.371,0,0,1,4.346,1.287,4.171,4.171,0,0,1,1.358,3.242,4.562,4.562,0,0,1-1.2,3.312,6.419,6.419,0,0,1-4.737,1.7,6.822,6.822,0,0,1-1.609-.139v6.209h-2Zm2,7.474a6.765,6.765,0,0,0,1.656.16c2.414,0,3.886-1.173,3.886-3.311,0-2.047-1.45-3.036-3.657-3.036a8.38,8.38,0,0,0-1.885.161Z" style="fill:#fff"/><path d="M339.171,261.679c0-1.31-.023-2.437-.091-3.472h1.77l.068,2.184h.093a3.34,3.34,0,0,1,3.081-2.437,2.189,2.189,0,0,1,.575.069v1.908a3.045,3.045,0,0,0-.69-.068,2.837,2.837,0,0,0-2.713,2.6,5.715,5.715,0,0,0-.093.944v5.932h-2Z" style="fill:#fff"/><path d="M356.534,263.679c0,4.116-2.851,5.91-5.541,5.91-3.013,0-5.335-2.207-5.335-5.725,0-3.726,2.437-5.91,5.518-5.91C354.373,257.954,356.534,260.277,356.534,263.679Zm-8.83.115c0,2.438,1.4,4.278,3.38,4.278,1.932,0,3.38-1.817,3.38-4.323,0-1.886-.942-4.278-3.334-4.278S347.7,261.679,347.7,263.794Z" style="fill:#fff"/><path d="M359.089,261.84c0-1.425-.046-2.576-.091-3.633h1.816l.092,1.909h.046a4.373,4.373,0,0,1,3.955-2.162c2.69,0,4.714,2.276,4.714,5.657,0,4-2.438,5.978-5.059,5.978a3.9,3.9,0,0,1-3.426-1.748h-.047v6.048h-2Zm2,2.966a4.555,4.555,0,0,0,.093.828A3.12,3.12,0,0,0,364.217,268c2.139,0,3.38-1.747,3.38-4.3,0-2.231-1.173-4.139-3.31-4.139a3.229,3.229,0,0,0-3.059,2.506,3.283,3.283,0,0,0-.139.828Z" style="fill:#fff"/><path d="M374.43,255.08a1.254,1.254,0,0,1-2.507,0,1.233,1.233,0,0,1,1.265-1.265A1.2,1.2,0,0,1,374.43,255.08Zm-2.254,14.256V258.207H374.2v11.129Z" style="fill:#fff"/><path d="M378.685,264.139A3.565,3.565,0,0,0,382.5,268a7.314,7.314,0,0,0,3.082-.574l.345,1.448a8.994,8.994,0,0,1-3.7.69c-3.427,0-5.473-2.253-5.473-5.61s1.978-6,5.22-6c3.633,0,4.6,3.2,4.6,5.243a7.614,7.614,0,0,1-.069.942Zm5.933-1.448c.022-1.288-.53-3.288-2.806-3.288-2.047,0-2.943,1.886-3.1,3.288Z" style="fill:#fff"/><path d="M398.693,253.01v13.452c0,.989.022,2.116.092,2.874h-1.817l-.093-1.931h-.045a4.118,4.118,0,0,1-3.794,2.184c-2.691,0-4.76-2.276-4.76-5.657-.024-3.7,2.276-5.978,4.989-5.978a3.72,3.72,0,0,1,3.358,1.7h.045V253.01Zm-2.025,9.727a3.571,3.571,0,0,0-.091-.851,2.976,2.976,0,0,0-2.92-2.345c-2.093,0-3.335,1.839-3.335,4.3,0,2.254,1.1,4.117,3.289,4.117a3.043,3.043,0,0,0,2.966-2.415,3.512,3.512,0,0,0,.091-.874Z" style="fill:#fff"/><path d="M408.214,269.336l-.16-1.4h-.069a4.148,4.148,0,0,1-3.4,1.655,3.171,3.171,0,0,1-3.4-3.2c0-2.69,2.392-4.162,6.692-4.139v-.23a2.294,2.294,0,0,0-2.53-2.575,5.536,5.536,0,0,0-2.9.828l-.46-1.334a6.908,6.908,0,0,1,3.656-.989c3.4,0,4.232,2.323,4.232,4.553v4.162a15.764,15.764,0,0,0,.183,2.667Zm-.3-5.679c-2.208-.046-4.714.344-4.714,2.507a1.79,1.79,0,0,0,1.909,1.93,2.769,2.769,0,0,0,2.69-1.862,2.112,2.112,0,0,0,.115-.644Z" style="fill:#fff"/><path d="M422.75,253.01v13.452c0,.989.023,2.116.092,2.874h-1.817l-.092-1.931h-.046a4.115,4.115,0,0,1-3.794,2.184c-2.69,0-4.76-2.276-4.76-5.657-.023-3.7,2.277-5.978,4.99-5.978a3.718,3.718,0,0,1,3.357,1.7h.046V253.01Zm-2.024,9.727a3.522,3.522,0,0,0-.092-.851,2.975,2.975,0,0,0-2.92-2.345c-2.092,0-3.335,1.839-3.335,4.3,0,2.254,1.1,4.117,3.289,4.117a3.042,3.042,0,0,0,2.966-2.415,3.464,3.464,0,0,0,.092-.874Z" style="fill:#fff"/><path d="M546.614,102.241l-4.2,1.494,1.387,3.891,4.676-1.666.416,1.169-6.068,2.163L538.984,98.5l5.828-2.078.417,1.17-4.436,1.58,1.215,3.411,4.2-1.5Z" style="fill:#fff"/><path d="M548.645,100.849c-.285-.8-.535-1.451-.811-2.074l1.249-.445.537,1.253.032-.012A3.026,3.026,0,0,1,551.7,97.2c1.072-.382,2.966-.335,3.913,2.323l1.648,4.627-1.408.5-1.592-4.467c-.445-1.249-1.281-2.125-2.609-1.651a2.125,2.125,0,0,0-1.377,2.114,2.152,2.152,0,0,0,.139.691l1.66,4.66-1.41.5Z" style="fill:#fff"/><path d="M563.838,101.806l-.461-.937-.046.017a3.065,3.065,0,0,1-1.959,2,2.344,2.344,0,0,1-3.164-1.381c-.667-1.873.633-3.492,3.633-4.543l-.057-.16a1.7,1.7,0,0,0-2.4-1.166,4.1,4.1,0,0,0-1.812,1.3l-.652-.814a5.12,5.12,0,0,1,2.3-1.6c2.369-.844,3.523.567,4.076,2.121l1.033,2.9a11.52,11.52,0,0,0,.79,1.811Zm-1.617-3.881c-1.549.516-3.2,1.409-2.661,2.915a1.325,1.325,0,0,0,1.809.871,2.046,2.046,0,0,0,1.411-1.963,1.565,1.565,0,0,0-.08-.478Z" style="fill:#fff"/><path d="M565.474,90.036a.877.877,0,0,1-.573,1.177.892.892,0,0,1-1.173-.556.915.915,0,0,1,.584-1.2A.883.883,0,0,1,565.474,90.036Zm.7,13.464a2.421,2.421,0,0,0,1.326-1.14c.225-.585.153-1.245-.509-3.1l-2.311-6.484,1.41-.5,2.5,7.029a4.513,4.513,0,0,1,.207,3.518,3.793,3.793,0,0,1-2.088,1.736Z" style="fill:#fff"/><path d="M570.652,95.3a2.636,2.636,0,0,0,3.617,1.743,5.4,5.4,0,0,0,2-1.165l.6.923a6.661,6.661,0,0,1-2.408,1.4,3.82,3.82,0,0,1-5.2-2.549c-.834-2.338-.112-4.67,2.145-5.475,2.53-.9,4,1.085,4.5,2.51a5.6,5.6,0,0,1,.185.674Zm3.772-2.48a2.13,2.13,0,0,0-2.769-1.594,2.478,2.478,0,0,0-1.346,3.06Z" style="fill:#fff"/><path d="M577.166,90.688c-.286-.8-.536-1.452-.812-2.075l1.25-.445.536,1.252.032-.011a3.022,3.022,0,0,1,2.043-2.369c1.073-.383,2.966-.336,3.912,2.322l1.65,4.628-1.409.5-1.592-4.468c-.444-1.249-1.28-2.124-2.609-1.651a2.125,2.125,0,0,0-1.376,2.115,2.148,2.148,0,0,0,.138.69l1.66,4.659-1.409.5Z" style="fill:#fff"/><path d="M592.358,91.644l-.46-.936-.048.016a3.059,3.059,0,0,1-1.959,2,2.345,2.345,0,0,1-3.163-1.381c-.667-1.874.633-3.492,3.633-4.543l-.057-.16a1.7,1.7,0,0,0-2.4-1.166,4.1,4.1,0,0,0-1.814,1.3l-.651-.815a5.1,5.1,0,0,1,2.3-1.595c2.37-.845,3.523.567,4.076,2.12l1.033,2.9a11.536,11.536,0,0,0,.789,1.812Zm-1.617-3.881c-1.549.517-3.2,1.41-2.66,2.915a1.324,1.324,0,0,0,1.808.872,2.046,2.046,0,0,0,1.411-1.965,1.583,1.583,0,0,0-.08-.476Z" style="fill:#fff"/><path d="M601.208,88.167a5.51,5.51,0,0,1-2.067,1.241,3.907,3.907,0,0,1-5.267-2.58,4.179,4.179,0,0,1,2.7-5.6,4.979,4.979,0,0,1,2.1-.3l.067,1.2a3.474,3.474,0,0,0-1.765.214A3.1,3.1,0,0,0,599,88.2a4.245,4.245,0,0,0,1.591-1Z" style="fill:#fff"/><path d="M600.992,77.38a.926.926,0,0,1-1.745.622.911.911,0,0,1,.567-1.194A.888.888,0,0,1,600.992,77.38Zm1.967,10.487-2.76-7.749,1.409-.5,2.762,7.749Z" style="fill:#fff"/><path d="M612.317,80.094a4.021,4.021,0,0,1-2.393,5.49,3.909,3.909,0,0,1-5.134-2.663,4.017,4.017,0,0,1,2.376-5.485A3.9,3.9,0,0,1,612.317,80.094Zm-6.12,2.271c.6,1.7,2.038,2.63,3.415,2.139,1.346-.479,1.9-2.1,1.281-3.848-.468-1.314-1.718-2.745-3.383-2.152S605.672,80.892,606.2,82.365Zm1.889-8.829-1.138,2.985-1.008.359.593-2.791Z" style="fill:#fff"/><path d="M613.485,77.748c-.285-.8-.535-1.453-.812-2.075l1.249-.445.536,1.252.033-.012a3.023,3.023,0,0,1,2.043-2.369c1.073-.383,2.966-.336,3.913,2.322l1.649,4.628-1.41.5-1.592-4.468c-.444-1.249-1.279-2.124-2.608-1.65a2.194,2.194,0,0,0-1.238,2.806l1.66,4.659-1.409.5Z" style="fill:#fff"/><path d="M552.045,127.665l-7.368-9.539,1.5-.536,3.576,4.717c.984,1.292,1.852,2.463,2.59,3.625l.032-.012c-.14-1.357-.176-2.878-.2-4.458l-.075-5.982,1.489-.531-.013,12.168Z" style="fill:#fff"/><path d="M563.645,119.091a4.021,4.021,0,0,1-2.393,5.491,3.91,3.91,0,0,1-5.135-2.664,4.017,4.017,0,0,1,2.377-5.484A3.9,3.9,0,0,1,563.645,119.091Zm-6.12,2.272c.6,1.7,2.038,2.63,3.415,2.139,1.345-.479,1.9-2.1,1.281-3.848-.468-1.314-1.718-2.745-3.383-2.152S557,119.889,557.525,121.363Z" style="fill:#fff"/><path d="M562.776,111.029l1.409-.5,4.051,11.369-1.409.5Z" style="fill:#fff"/><path d="M576.337,116.626c.286.8.552,1.5.818,2.091l-1.249.446-.531-1.237-.032.011a3.1,3.1,0,0,1-2.049,2.355c-1.216.433-2.913.28-3.883-2.443l-1.615-4.531,1.41-.5,1.529,4.291c.524,1.474,1.326,2.307,2.607,1.851a2.163,2.163,0,0,0,1.4-1.944,2.191,2.191,0,0,0-.128-.766l-1.7-4.755,1.409-.5Z" style="fill:#fff"/><path d="M577.415,112.254c-.286-.8-.536-1.451-.811-2.074l1.248-.445.537,1.253.032-.012a3.026,3.026,0,0,1,2.043-2.37c1.073-.382,2.966-.335,3.913,2.323l1.649,4.628-1.408.5-1.592-4.468c-.445-1.249-1.28-2.124-2.609-1.65a2.122,2.122,0,0,0-1.377,2.113,2.164,2.164,0,0,0,.138.692l1.66,4.659-1.41.5Z" style="fill:#fff"/><path d="M586.4,104.183l.793,2.226,2.019-.719.381,1.072-2.017.72,1.489,4.179c.342.961.809,1.408,1.593,1.129a3.31,3.31,0,0,0,.782-.387l.441,1.033a3.651,3.651,0,0,1-1.18.637,2.073,2.073,0,0,1-1.733-.05A3.047,3.047,0,0,1,587.7,112.2l-1.507-4.227-1.2.428-.382-1.072,1.2-.429-.662-1.857Z" style="fill:#fff"/><path d="M597.844,111.346l-.46-.937-.048.017a3.062,3.062,0,0,1-1.959,2,2.344,2.344,0,0,1-3.163-1.381c-.667-1.874.634-3.492,3.633-4.542l-.056-.161a1.7,1.7,0,0,0-2.4-1.166,4.094,4.094,0,0,0-1.812,1.3l-.652-.815a5.108,5.108,0,0,1,2.3-1.595c2.37-.845,3.523.566,4.076,2.12l1.033,2.9a11.658,11.658,0,0,0,.789,1.811Zm-1.617-3.882c-1.549.517-3.2,1.411-2.66,2.915a1.323,1.323,0,0,0,1.808.872,2.048,2.048,0,0,0,1.411-1.964,1.558,1.558,0,0,0-.079-.477Z" style="fill:#fff"/><path d="M599.372,104.792c-.325-.913-.621-1.691-.925-2.394l1.233-.44.59,1.5.063-.023a2.467,2.467,0,0,1,1.542-2.461,1.6,1.6,0,0,1,.417-.095l.473,1.329a2.3,2.3,0,0,0-.5.123,2.1,2.1,0,0,0-1.245,2.483,4.37,4.37,0,0,0,.17.679l1.472,4.131-1.393.5Z" style="fill:#fff"/><path d="M604.6,97.75a.926.926,0,0,1-1.745.622.912.912,0,0,1,.567-1.195A.886.886,0,0,1,604.6,97.75Zm1.969,10.486-2.762-7.75,1.409-.5,2.761,7.75Z" style="fill:#fff"/><path d="M614.61,105.373l-.46-.938-.048.018a3.064,3.064,0,0,1-1.959,2,2.345,2.345,0,0,1-3.163-1.382c-.667-1.873.634-3.491,3.634-4.542l-.057-.16a1.7,1.7,0,0,0-2.4-1.166,4.1,4.1,0,0,0-1.813,1.3l-.651-.816a5.136,5.136,0,0,1,2.3-1.6c2.37-.843,3.523.568,4.076,2.122l1.033,2.9a11.619,11.619,0,0,0,.789,1.812Zm-1.617-3.882c-1.548.515-3.2,1.41-2.66,2.915a1.323,1.323,0,0,0,1.808.872,2.047,2.047,0,0,0,1.411-1.965,1.563,1.563,0,0,0-.079-.477Z" style="fill:#fff"/><path d="M617.827,106.446a24.434,24.434,0,0,0-.4-4.169l1.512-.72a20.712,20.712,0,0,1-.135,4.433Z" style="fill:#fff"/><path d="M568.9,247.975l-4.444-.285-.266,4.122,4.955.318-.08,1.239-6.429-.413.734-11.434,6.175.4-.079,1.24-4.7-.3-.233,3.612,4.445.286Z" style="fill:#fff"/><path d="M571.314,247.5c.054-.847.082-1.544.075-2.226l1.323.085,0,1.363.034,0a3.027,3.027,0,0,1,2.815-1.37c1.136.073,2.856.865,2.675,3.681l-.315,4.9-1.492-.1.3-4.733c.085-1.323-.335-2.457-1.743-2.548a2.125,2.125,0,0,0-2.1,1.4,2.178,2.178,0,0,0-.147.69l-.317,4.936-1.493-.095Z" style="fill:#fff"/><path d="M584.891,254.386l-.052-1.043-.051,0a3.063,3.063,0,0,1-2.589,1.06,2.343,2.343,0,0,1-2.359-2.519c.127-1.985,1.962-2.957,5.133-2.736l.01-.17a1.7,1.7,0,0,0-1.744-2.019,4.09,4.09,0,0,0-2.176.473l-.276-1.006a5.105,5.105,0,0,1,2.744-.556c2.511.161,3.011,1.914,2.906,3.559l-.2,3.071a11.642,11.642,0,0,0,.009,1.976Zm.048-4.2c-1.626-.138-3.493.031-3.595,1.626a1.324,1.324,0,0,0,1.316,1.516,2.047,2.047,0,0,0,2.072-1.247,1.529,1.529,0,0,0,.116-.469Z" style="fill:#fff"/><path d="M586.367,256.866a2.426,2.426,0,0,0,1.669-.524c.439-.449.632-1.083.759-3.05l.441-6.871,1.493.1-.478,7.446a4.52,4.52,0,0,1-1.2,3.314,3.8,3.8,0,0,1-2.6.769Zm4.68-12.646a.879.879,0,0,1-.992.857.893.893,0,0,1-.857-.975.915.915,0,0,1,1.01-.872A.884.884,0,0,1,591.047,244.22Z" style="fill:#fff"/><path d="M593.722,251.1a2.636,2.636,0,0,0,2.632,3.031,5.415,5.415,0,0,0,2.3-.278l.186,1.085a6.677,6.677,0,0,1-2.764.333,3.819,3.819,0,0,1-3.771-4.4c.159-2.476,1.744-4.333,4.135-4.179,2.68.172,3.241,2.576,3.144,4.086a5.65,5.65,0,0,1-.1.691Zm4.445-.788a2.129,2.129,0,0,0-1.913-2.558,2.478,2.478,0,0,0-2.446,2.278Z" style="fill:#fff"/><path d="M601.528,249.442c.055-.848.082-1.545.076-2.227l1.323.086,0,1.363.033,0a3.028,3.028,0,0,1,2.813-1.37c1.137.074,2.858.865,2.677,3.681l-.315,4.9-1.493-.095.3-4.733c.085-1.323-.336-2.458-1.744-2.548a2.123,2.123,0,0,0-2.1,1.4,2.159,2.159,0,0,0-.147.689l-.317,4.937-1.493-.1Z" style="fill:#fff"/><path d="M615.1,256.328l-.051-1.042-.051,0a3.064,3.064,0,0,1-2.589,1.06,2.344,2.344,0,0,1-2.359-2.519c.127-1.985,1.962-2.957,5.133-2.736l.01-.17a1.7,1.7,0,0,0-1.744-2.02,4.106,4.106,0,0,0-2.177.474L611,248.365a5.105,5.105,0,0,1,2.744-.556c2.511.161,3.011,1.914,2.9,3.56l-.2,3.07a11.552,11.552,0,0,0,.009,1.977Zm.049-4.2c-1.626-.139-3.493.03-3.6,1.626a1.322,1.322,0,0,0,1.316,1.514,2.045,2.045,0,0,0,2.073-1.246,1.548,1.548,0,0,0,.115-.47Z" style="fill:#fff"/><path d="M624.608,256.631a5.508,5.508,0,0,1-2.388.325A3.91,3.91,0,0,1,618.4,252.5a4.18,4.18,0,0,1,4.69-4.076,5.008,5.008,0,0,1,2.043.558l-.413,1.131a3.478,3.478,0,0,0-1.706-.5,3.1,3.1,0,0,0-.448,6.172,4.277,4.277,0,0,0,1.858-.289Z" style="fill:#fff"/><path d="M626.336,257.049l.528-8.21,1.493.1-.528,8.211Zm2.339-10.41a.926.926,0,0,1-1.849-.119.91.91,0,0,1,.992-.872A.888.888,0,0,1,628.675,246.639Z" style="fill:#fff"/><path d="M638.005,253.609a4.023,4.023,0,0,1-4.369,4.1,3.912,3.912,0,0,1-3.663-4.477,4.017,4.017,0,0,1,4.35-4.1A3.9,3.9,0,0,1,638.005,253.609Zm-6.521-.333c-.115,1.8.833,3.222,2.292,3.315,1.425.091,2.579-1.18,2.7-3.029.088-1.391-.494-3.2-2.257-3.313S631.585,251.714,631.484,253.276Zm5.227-7.363-2.226,2.292-1.069-.069,1.649-2.33Z" style="fill:#fff"/><path d="M640.005,251.916c.054-.848.082-1.545.074-2.227l1.323.085,0,1.362.035,0a3.026,3.026,0,0,1,2.813-1.37c1.138.073,2.857.865,2.677,3.681l-.316,4.9-1.493-.1.3-4.732c.085-1.323-.336-2.457-1.743-2.548a2.192,2.192,0,0,0-2.247,2.087L641.112,258l-1.493-.1Z" style="fill:#fff"/><path d="M565.657,262.111l6.157.395-.079,1.24-4.682-.3-.244,3.8,4.325.277-.078,1.221-4.326-.278-.333,5.174-1.475-.1Z" style="fill:#fff"/><path d="M580.3,270.342a4.022,4.022,0,0,1-4.368,4.1,3.913,3.913,0,0,1-3.665-4.477,4.018,4.018,0,0,1,4.352-4.1A3.9,3.9,0,0,1,580.3,270.342Zm-6.519-.333c-.116,1.8.831,3.221,2.29,3.315,1.425.092,2.58-1.18,2.7-3.029.089-1.39-.493-3.2-2.256-3.313S573.886,268.448,573.786,270.009Z" style="fill:#fff"/><path d="M582.283,268.988c.063-.967.1-1.8.1-2.566l1.307.084-.053,1.615.067,0a2.471,2.471,0,0,1,2.39-1.652,1.689,1.689,0,0,1,.42.078l-.09,1.408a2.337,2.337,0,0,0-.506-.084,2.1,2.1,0,0,0-2.125,1.79,4.163,4.163,0,0,0-.112.69l-.282,4.377-1.475-.1Z" style="fill:#fff"/><path d="M586.743,274.079l4.026-4.6c.384-.418.749-.787,1.15-1.2l0-.034-4.444-.287.077-1.2,6.258.4-.076.931-3.97,4.533c-.37.435-.735.821-1.135,1.221l0,.033,4.8.309-.077,1.188-6.666-.428Z" style="fill:#fff"/><path d="M602.461,271.767a4.021,4.021,0,0,1-4.368,4.1,3.911,3.911,0,0,1-3.664-4.477,4.015,4.015,0,0,1,4.351-4.1A3.9,3.9,0,0,1,602.461,271.767Zm-6.52-.334c-.115,1.8.832,3.222,2.291,3.316,1.425.09,2.581-1.18,2.7-3.029.09-1.391-.493-3.2-2.257-3.314S596.042,269.872,595.941,271.433Z" style="fill:#fff"/><path d="M603.972,274.521a3.911,3.911,0,0,0,1.928.72c1.086.07,1.63-.44,1.673-1.118.046-.712-.352-1.13-1.428-1.609-1.443-.62-2.086-1.479-2.023-2.463a2.537,2.537,0,0,1,2.988-2.226,4.093,4.093,0,0,1,1.986.638l-.443,1.062a3.2,3.2,0,0,0-1.649-.584c-.882-.057-1.406.422-1.446,1.032-.043.679.429,1.015,1.471,1.491,1.39.635,2.074,1.394,2,2.616-.092,1.441-1.277,2.387-3.228,2.261a4.67,4.67,0,0,1-2.271-.708Z" style="fill:#fff"/><path d="M615.341,276.785l-.053-1.042-.05,0a3.065,3.065,0,0,1-2.59,1.06,2.344,2.344,0,0,1-2.359-2.519c.128-1.985,1.962-2.957,5.133-2.736l.012-.169a1.7,1.7,0,0,0-1.745-2.021,4.1,4.1,0,0,0-2.176.474l-.277-1.006a5.116,5.116,0,0,1,2.744-.556c2.511.161,3.012,1.914,2.907,3.56l-.2,3.07a11.654,11.654,0,0,0,.009,1.977Zm.049-4.2c-1.626-.139-3.494.031-3.6,1.626a1.323,1.323,0,0,0,1.316,1.514,2.045,2.045,0,0,0,2.074-1.246,1.611,1.611,0,0,0,.116-.47Z" style="fill:#fff"/><path d="M617.871,279.042a24.367,24.367,0,0,0,1.278-3.988l1.673-.062a20.61,20.61,0,0,1-1.877,4.017Z" style="fill:#fff"/><path d="M563.016,295.306a21.132,21.132,0,0,1,3.152.08,6.563,6.563,0,0,1,4.474,1.888,5.271,5.271,0,0,1,1.192,4.255,6.059,6.059,0,0,1-2.088,4.265,7.059,7.059,0,0,1-5.206,1.13,23.819,23.819,0,0,1-2.658-.4Zm.451,10.229a9.612,9.612,0,0,0,1.48.235c3.146.318,5.032-1.269,5.343-4.346.289-2.687-1.06-4.549-4.172-4.864a8.418,8.418,0,0,0-1.741-.022Z" style="fill:#fff"/><path d="M574.375,303.956a2.637,2.637,0,0,0,2.52,3.126,5.4,5.4,0,0,0,2.308-.195l.146,1.092a6.657,6.657,0,0,1-2.774.231,3.819,3.819,0,0,1-3.607-4.533c.249-2.469,1.9-4.267,4.285-4.026,2.672.27,3.145,2.693,2.993,4.2a5.755,5.755,0,0,1-.121.689Zm4.471-.624a2.13,2.13,0,0,0-1.819-2.627,2.479,2.479,0,0,0-2.528,2.187Z" style="fill:#fff"/><path d="M581.584,307.009a3.929,3.929,0,0,0,1.9.79c1.082.11,1.644-.381,1.713-1.056.072-.71-.312-1.142-1.37-1.66-1.418-.673-2.03-1.555-1.93-2.536a2.537,2.537,0,0,1,3.067-2.116,4.113,4.113,0,0,1,1.961.711l-.481,1.045a3.214,3.214,0,0,0-1.627-.643c-.879-.088-1.421.369-1.483.978-.068.677.392,1.03,1.416,1.544,1.366.685,2.021,1.469,1.9,2.686-.146,1.438-1.364,2.34-3.31,2.143a4.7,4.7,0,0,1-2.243-.791Z" style="fill:#fff"/><path d="M592.863,309.688l-.014-1.044-.051,0a3.063,3.063,0,0,1-2.626.965,2.344,2.344,0,0,1-2.265-2.6c.2-1.979,2.069-2.884,5.229-2.546l.017-.169a1.7,1.7,0,0,0-1.668-2.083,4.1,4.1,0,0,0-2.193.393l-.238-1.014a5.08,5.08,0,0,1,2.762-.456c2.5.253,2.939,2.023,2.773,3.664l-.31,3.06a11.679,11.679,0,0,0-.063,1.976Zm.2-4.2c-1.62-.2-3.492-.1-3.653,1.493a1.324,1.324,0,0,0,1.26,1.562,2.048,2.048,0,0,0,2.118-1.169,1.617,1.617,0,0,0,.132-.464Z" style="fill:#fff"/><path d="M597.053,304.422c.1-.964.164-1.8.191-2.56l1.3.132-.112,1.612.067.007a2.47,2.47,0,0,1,2.448-1.565,1.683,1.683,0,0,1,.418.094l-.142,1.4a2.239,2.239,0,0,0-.5-.1,2.1,2.1,0,0,0-2.189,1.709,4.156,4.156,0,0,0-.137.686l-.441,4.364-1.472-.149Z" style="fill:#fff"/><path d="M602.651,304.989c.1-.964.165-1.795.191-2.561l1.3.132-.112,1.612.068.007a2.467,2.467,0,0,1,2.447-1.564,1.684,1.684,0,0,1,.418.093l-.142,1.4a2.226,2.226,0,0,0-.5-.1,2.1,2.1,0,0,0-2.19,1.71,4.374,4.374,0,0,0-.137.686l-.442,4.363-1.471-.148Z" style="fill:#fff"/><path d="M615.271,307.751a4.021,4.021,0,0,1-4.516,3.935,3.911,3.911,0,0,1-3.5-4.607,4.017,4.017,0,0,1,4.5-3.937A3.9,3.9,0,0,1,615.271,307.751Zm-6.5-.572c-.181,1.793.713,3.25,2.168,3.4,1.42.143,2.621-1.085,2.808-2.928.14-1.387-.375-3.216-2.135-3.394S608.926,305.624,608.768,307.179Z" style="fill:#fff"/><path d="M617.943,300.1l1.489.151-1.216,12.007-1.488-.15Z" style="fill:#fff"/><path d="M621.935,300.5l1.488.15-1.215,12.008-1.489-.151Z" style="fill:#fff"/><path d="M632.54,309.5a4.021,4.021,0,0,1-4.516,3.933,3.91,3.91,0,0,1-3.5-4.607,4.016,4.016,0,0,1,4.5-3.936A3.9,3.9,0,0,1,632.54,309.5Zm-6.5-.574c-.182,1.793.713,3.25,2.168,3.4,1.42.143,2.621-1.084,2.807-2.927.141-1.388-.375-3.217-2.134-3.395S626.194,307.371,626.037,308.926Z" style="fill:#fff"/><path d="M560.331,321.331c.106-1.049.159-1.9.2-2.679l1.336.135-.074,1.41.034,0a3.23,3.23,0,0,1,3.069-1.3c1.979.2,3.3,2.024,3.046,4.511-.3,2.942-2.237,4.215-4.165,4.02a2.885,2.885,0,0,1-2.39-1.54l-.034,0-.45,4.448-1.471-.149Zm1.251,2.33a3.489,3.489,0,0,0,.006.616,2.31,2.31,0,0,0,2.056,1.968c1.573.159,2.616-1.035,2.806-2.912.166-1.64-.554-3.13-2.127-3.29a2.592,2.592,0,0,0-2.6,2.214Z" style="fill:#fff"/><path d="M569.967,322.185c.1-.964.164-1.794.191-2.56l1.3.132-.112,1.612.068.006a2.468,2.468,0,0,1,2.447-1.563,1.683,1.683,0,0,1,.418.094l-.142,1.4a2.176,2.176,0,0,0-.5-.1,2.1,2.1,0,0,0-2.189,1.709,4.152,4.152,0,0,0-.138.686l-.441,4.363-1.472-.148Z" style="fill:#fff"/><path d="M575,328.384l.828-8.185,1.489.15-.829,8.186Zm2.718-10.318a.926.926,0,0,1-1.843-.187.911.911,0,0,1,1.024-.835A.887.887,0,0,1,577.714,318.066Z" style="fill:#fff"/><path d="M586.781,325.374a4.021,4.021,0,0,1-4.515,3.934,3.91,3.91,0,0,1-3.5-4.608,4.015,4.015,0,0,1,4.5-3.936A3.9,3.9,0,0,1,586.781,325.374Zm-6.5-.573c-.181,1.792.714,3.249,2.169,3.4,1.42.143,2.62-1.084,2.807-2.928.141-1.387-.375-3.216-2.134-3.394S580.436,323.245,580.278,324.8Z" style="fill:#fff"/><path d="M588.809,324.092c.1-.964.164-1.795.19-2.56l1.3.132-.113,1.611.068.007a2.471,2.471,0,0,1,2.448-1.564,1.683,1.683,0,0,1,.418.094l-.143,1.4a2.209,2.209,0,0,0-.5-.1,2.1,2.1,0,0,0-2.189,1.709,4.168,4.168,0,0,0-.139.686l-.441,4.364-1.471-.149Z" style="fill:#fff"/><path d="M593.837,330.291l.828-8.186,1.489.15-.828,8.186Zm2.718-10.319a.927.927,0,0,1-1.844-.186.912.912,0,0,1,1.025-.835A.887.887,0,0,1,596.555,319.972Z" style="fill:#fff"/><path d="M600.653,320.336l-.237,2.351,2.131.216-.115,1.133-2.131-.216-.447,4.414c-.1,1.015.127,1.619.956,1.7a3.343,3.343,0,0,0,.873-.014l-.045,1.122a3.655,3.655,0,0,1-1.341.07,2.075,2.075,0,0,1-1.543-.788,3.049,3.049,0,0,1-.359-2.189l.452-4.466-1.269-.128.115-1.132,1.268.128.2-1.962Z" style="fill:#fff"/><path d="M607.926,331.716l-.014-1.044-.051-.005a3.066,3.066,0,0,1-2.626.965,2.345,2.345,0,0,1-2.266-2.6c.2-1.979,2.07-2.884,5.23-2.546l.017-.169a1.7,1.7,0,0,0-1.669-2.083,4.1,4.1,0,0,0-2.192.394l-.239-1.016a5.1,5.1,0,0,1,2.762-.455c2.5.253,2.94,2.023,2.774,3.664l-.31,3.06a11.476,11.476,0,0,0-.063,1.976Zm.2-4.2c-1.62-.2-3.492-.1-3.653,1.493a1.324,1.324,0,0,0,1.26,1.563,2.047,2.047,0,0,0,2.117-1.17,1.586,1.586,0,0,0,.133-.465Z" style="fill:#fff"/><path d="M612.115,326.45c.1-.964.164-1.794.191-2.56l1.3.132-.111,1.611.067.007a2.469,2.469,0,0,1,2.447-1.563,1.7,1.7,0,0,1,.419.093l-.142,1.4a2.248,2.248,0,0,0-.5-.1,2.1,2.1,0,0,0-2.189,1.709,4.271,4.271,0,0,0-.138.687l-.441,4.363-1.472-.148Z" style="fill:#fff"/><path d="M617.144,332.649l.828-8.186,1.488.151-.828,8.185Zm2.718-10.318a.927.927,0,0,1-1.844-.187.911.911,0,0,1,1.025-.835A.887.887,0,0,1,619.862,322.331Z" style="fill:#fff"/><path d="M628.93,329.638a4.022,4.022,0,0,1-4.516,3.935,3.912,3.912,0,0,1-3.5-4.609,4.015,4.015,0,0,1,4.5-3.935A3.9,3.9,0,0,1,628.93,329.638Zm-6.5-.572c-.181,1.792.714,3.25,2.168,3.4,1.421.144,2.621-1.084,2.808-2.927.14-1.387-.375-3.216-2.134-3.394S622.584,327.509,622.426,329.066Z" style="fill:#fff"/><path d="M628.807,335.93a24.543,24.543,0,0,0,1.423-3.939H631.9a20.7,20.7,0,0,1-2.022,3.947Z" style="fill:#fff"/><path d="M559.619,345.791a21.116,21.116,0,0,1,3.093.611,6.559,6.559,0,0,1,4.09,2.617,5.278,5.278,0,0,1,.457,4.4,6.063,6.063,0,0,1-2.78,3.85,7.062,7.062,0,0,1-5.322.235,23.9,23.9,0,0,1-2.551-.85Zm-1.284,10.158a9.341,9.341,0,0,0,1.419.481c3.046.846,5.173-.4,6-3.38.74-2.6-.275-4.663-3.29-5.5a8.364,8.364,0,0,0-1.711-.315Z" style="fill:#fff"/><path d="M569.352,356.235a2.636,2.636,0,0,0,1.956,3.507,5.419,5.419,0,0,0,2.308.2l-.041,1.1a6.689,6.689,0,0,1-2.773-.241,3.819,3.819,0,0,1-2.789-5.078c.663-2.391,2.594-3.885,4.9-3.244,2.588.719,2.645,3.187,2.24,4.645a5.634,5.634,0,0,1-.236.657Zm4.513.141a2.131,2.131,0,0,0-1.349-2.9,2.48,2.48,0,0,0-2.861,1.729Z" style="fill:#fff"/><path d="M577.243,356.538c.259-.934.465-1.742.621-2.492l1.261.35-.383,1.569.066.019a2.465,2.465,0,0,1,2.676-1.127,1.643,1.643,0,0,1,.4.162l-.377,1.36a2.209,2.209,0,0,0-.478-.185,2.1,2.1,0,0,0-2.446,1.313,4.294,4.294,0,0,0-.252.655l-1.173,4.225-1.425-.395Z" style="fill:#fff"/><path d="M582.752,359.954a2.634,2.634,0,0,0,1.955,3.5,5.4,5.4,0,0,0,2.309.2l-.04,1.1a6.653,6.653,0,0,1-2.774-.24,3.82,3.82,0,0,1-2.79-5.078c.664-2.392,2.595-3.884,4.9-3.243,2.588.718,2.645,3.185,2.241,4.642a5.744,5.744,0,0,1-.236.659Zm4.512.14a2.129,2.129,0,0,0-1.348-2.9,2.478,2.478,0,0,0-2.861,1.728Z" style="fill:#fff"/><path d="M594.862,366.983a5.516,5.516,0,0,1-2.4-.173,3.909,3.909,0,0,1-2.825-5.142,4.18,4.18,0,0,1,5.427-3.027,4.987,4.987,0,0,1,1.884.964l-.636,1.022a3.461,3.461,0,0,0-1.567-.839,3.1,3.1,0,0,0-1.7,5.948,4.244,4.244,0,0,0,1.878.1Z" style="fill:#fff"/><path d="M599.694,356.116l1.442.4-1.372,4.947.032.009a2.771,2.771,0,0,1,1.313-.729,3.074,3.074,0,0,1,1.588,0c1.066.3,2.587,1.423,1.827,4.158l-1.308,4.718-1.441-.4,1.263-4.553c.355-1.278.179-2.491-1.18-2.868a2.15,2.15,0,0,0-2.333.906,1.8,1.8,0,0,0-.289.661l-1.327,4.782-1.442-.4Z" style="fill:#fff"/><path d="M613.852,368.229a4.022,4.022,0,0,1-5.116,3.115,3.912,3.912,0,0,1-2.669-5.133,4.018,4.018,0,0,1,5.1-3.119A3.9,3.9,0,0,1,613.852,368.229Zm-6.313-1.663c-.482,1.736.154,3.324,1.563,3.715,1.376.382,2.766-.626,3.262-2.411.372-1.344.174-3.234-1.53-3.706S607.957,365.059,607.539,366.566Z" style="fill:#fff"/><path d="M628.1,364l-2.659,9.582c-.2.7-.4,1.51-.5,2.065l-1.294-.358.316-1.395-.033-.009a3.043,3.043,0,0,1-3.134.806c-1.917-.531-2.941-2.562-2.272-4.97.714-2.642,2.8-3.808,4.735-3.272a2.752,2.752,0,0,1,2.056,1.875l.032.009,1.313-4.734Zm-3.365,6.528a2.545,2.545,0,0,0,.1-.624,2.2,2.2,0,0,0-1.616-2.248c-1.491-.413-2.739.651-3.225,2.4-.445,1.605-.027,3.15,1.528,3.582a2.25,2.25,0,0,0,2.591-1.134,2.605,2.605,0,0,0,.238-.6Z" style="fill:#fff"/><path d="M629.094,372.811a2.636,2.636,0,0,0,1.955,3.507,5.437,5.437,0,0,0,2.308.2l-.04,1.1a6.672,6.672,0,0,1-2.773-.241,3.821,3.821,0,0,1-2.79-5.078c.664-2.392,2.6-3.884,4.9-3.244,2.589.719,2.645,3.187,2.24,4.644a5.531,5.531,0,0,1-.235.657Zm4.512.141a2.13,2.13,0,0,0-1.348-2.9,2.481,2.481,0,0,0-2.862,1.729Z" style="fill:#fff"/><path d="M552.575,370.987c.281-1.016.476-1.844.653-2.606l1.293.36-.311,1.377.032.008a3.237,3.237,0,0,1,3.245-.757c1.916.532,2.908,2.553,2.24,4.961-.791,2.85-2.918,3.777-4.785,3.258a2.885,2.885,0,0,1-2.1-1.921l-.034-.009-1.195,4.307-1.425-.395Zm.838,2.509a3.441,3.441,0,0,0-.1.607,2.309,2.309,0,0,0,1.694,2.287c1.524.423,2.754-.576,3.259-2.394.44-1.589-.019-3.181-1.541-3.6a2.593,2.593,0,0,0-2.936,1.743Z" style="fill:#fff"/><path d="M561.928,373.458c.259-.933.465-1.741.62-2.491l1.262.35-.383,1.57.065.018a2.468,2.468,0,0,1,2.677-1.127,1.643,1.643,0,0,1,.4.162l-.377,1.36a2.23,2.23,0,0,0-.478-.185,2.1,2.1,0,0,0-2.447,1.314,4.306,4.306,0,0,0-.251.654l-1.173,4.226-1.425-.4Z" style="fill:#fff"/><path d="M567.437,376.875a2.634,2.634,0,0,0,1.955,3.506,5.42,5.42,0,0,0,2.308.2l-.04,1.1a6.67,6.67,0,0,1-2.774-.24,3.821,3.821,0,0,1-2.789-5.078c.663-2.392,2.594-3.884,4.9-3.243,2.588.717,2.645,3.185,2.24,4.643a5.432,5.432,0,0,1-.236.657Zm4.512.14a2.129,2.129,0,0,0-1.349-2.9,2.477,2.477,0,0,0-2.861,1.728Z" style="fill:#fff"/><path d="M573.961,382.672l1.895-6.831-1.114-.309.305-1.1,1.114.31.1-.377a3.875,3.875,0,0,1,1.686-2.514,2.86,2.86,0,0,1,2.137-.2,3.472,3.472,0,0,1,1.165.57l-.506,1.06a2.214,2.214,0,0,0-.867-.435c-1.229-.342-1.84.653-2.176,1.865l-.119.426,1.917.532-.3,1.1-1.916-.531-1.895,6.83Z" style="fill:#fff"/><path d="M580.214,380.419a2.637,2.637,0,0,0,1.955,3.507,5.4,5.4,0,0,0,2.309.2l-.041,1.1a6.672,6.672,0,0,1-2.773-.241,3.82,3.82,0,0,1-2.789-5.078c.663-2.392,2.6-3.884,4.9-3.243,2.589.717,2.645,3.186,2.241,4.643a5.428,5.428,0,0,1-.237.658Zm4.512.142a2.13,2.13,0,0,0-1.348-2.9,2.477,2.477,0,0,0-2.861,1.729Z" style="fill:#fff"/><path d="M588.1,380.721c.259-.933.466-1.74.621-2.491l1.261.351-.382,1.569.065.018a2.47,2.47,0,0,1,2.677-1.127,1.58,1.58,0,0,1,.395.163l-.377,1.359a2.3,2.3,0,0,0-.477-.186,2.1,2.1,0,0,0-2.447,1.315,4.33,4.33,0,0,0-.252.653l-1.172,4.227-1.426-.4Z" style="fill:#fff"/><path d="M593.613,384.137a2.636,2.636,0,0,0,1.956,3.507,5.436,5.436,0,0,0,2.308.2l-.041,1.1a6.686,6.686,0,0,1-2.773-.24,3.821,3.821,0,0,1-2.789-5.079c.664-2.392,2.6-3.884,4.9-3.244,2.589.719,2.644,3.186,2.24,4.644a5.77,5.77,0,0,1-.235.657Zm4.513.141a2.131,2.131,0,0,0-1.349-2.9,2.48,2.48,0,0,0-2.861,1.729Z" style="fill:#fff"/><path d="M601.6,384.112c.227-.819.4-1.5.53-2.164l1.277.355-.281,1.333.032.009a3.028,3.028,0,0,1,3.035-.764c1.1.305,2.619,1.432,1.865,4.152l-1.314,4.733-1.441-.4,1.268-4.571c.354-1.277.175-2.473-1.185-2.85a2.193,2.193,0,0,0-2.626,1.582l-1.323,4.766-1.441-.4Z" style="fill:#fff"/><path d="M614.815,393.69a5.5,5.5,0,0,1-2.4-.174,3.908,3.908,0,0,1-2.825-5.141,4.179,4.179,0,0,1,5.426-3.027,4.986,4.986,0,0,1,1.885.963l-.636,1.023a3.461,3.461,0,0,0-1.567-.839,3.1,3.1,0,0,0-1.7,5.948,4.277,4.277,0,0,0,1.878.1Z" style="fill:#fff"/><path d="M616.421,394.453l2.2-7.928,1.441.4-2.2,7.928Zm4.423-9.71a.926.926,0,0,1-1.785-.5.912.912,0,0,1,1.15-.651A.889.889,0,0,1,620.844,384.743Z" style="fill:#fff"/><path d="M624.644,396.735l.162-1.032-.049-.013a3.067,3.067,0,0,1-2.751.507,2.346,2.346,0,0,1-1.793-2.95c.532-1.916,2.526-2.493,5.585-1.625l.046-.164a1.7,1.7,0,0,0-1.293-2.334,4.086,4.086,0,0,0-2.228.016l-.064-1.041a5.11,5.11,0,0,1,2.8.019c2.424.672,2.555,2.49,2.114,4.079l-.822,2.965a11.6,11.6,0,0,0-.4,1.936Zm.909-4.106c-1.563-.468-3.425-.685-3.853.854a1.324,1.324,0,0,0,.978,1.753,2.046,2.046,0,0,0,2.284-.8,1.507,1.507,0,0,0,.209-.436Z" style="fill:#fff"/><path d="M557.835,146.609l-4.3,1.15,1.068,3.991,4.8-1.282.32,1.2-6.225,1.663-2.958-11.068,5.978-1.6.32,1.2-4.549,1.216.935,3.5,4.3-1.15Z" style="fill:#fff"/><path d="M560.071,143.056l1.59,1.4c.413.365.77.71,1.151,1.083l.049-.013c.136-.547.288-1.028.437-1.525l.665-1.989,1.559-.417-1.681,4.566,3.888,3.359-1.642.439-1.645-1.478c-.434-.376-.815-.749-1.222-1.151l-.032.009c-.136.547-.3,1.048-.469,1.6l-.671,2.1-1.593.426,1.74-4.811-3.733-3.172Z" style="fill:#fff"/><path d="M567.7,143.8c-.272-1.019-.524-1.831-.758-2.577l1.3-.347.43,1.345.033-.009a3.236,3.236,0,0,1,2.412-2.3c1.921-.514,3.8.726,4.447,3.14.763,2.857-.6,4.735-2.472,5.235a2.883,2.883,0,0,1-2.78-.594l-.033.009,1.155,4.319L570,152.4Zm2,1.736a3.322,3.322,0,0,0,.224.573,2.307,2.307,0,0,0,2.62,1.113c1.527-.408,2.08-1.893,1.593-3.716-.426-1.593-1.627-2.733-3.155-2.324a2.594,2.594,0,0,0-1.646,2.991Z" style="fill:#fff"/><path d="M577.009,141.185c-.25-.936-.481-1.736-.729-2.462l1.266-.338.466,1.547.065-.017a2.469,2.469,0,0,1,1.736-2.33,1.691,1.691,0,0,1,.422-.061l.366,1.364a2.242,2.242,0,0,0-.506.082,2.1,2.1,0,0,0-1.442,2.374,4.211,4.211,0,0,0,.115.691l1.131,4.236-1.428.382Z" style="fill:#fff"/><path d="M589.79,139.3a4.021,4.021,0,0,1-2.83,5.278,3.911,3.911,0,0,1-4.9-3.071,4.018,4.018,0,0,1,2.812-5.274A3.9,3.9,0,0,1,589.79,139.3Zm-6.284,1.767c.465,1.741,1.818,2.787,3.23,2.409,1.379-.369,2.068-1.942,1.589-3.732-.36-1.347-1.489-2.875-3.2-2.418S583.1,139.557,583.506,141.067Z" style="fill:#fff"/><path d="M591.263,137.5c-.273-1.018-.525-1.83-.76-2.577l1.3-.346.429,1.345.034-.009a3.234,3.234,0,0,1,2.412-2.3c1.922-.514,3.8.725,4.446,3.139.765,2.858-.6,4.735-2.471,5.235a2.881,2.881,0,0,1-2.78-.593l-.033.008,1.154,4.319-1.428.382Zm1.994,1.737a3.439,3.439,0,0,0,.223.573,2.31,2.31,0,0,0,2.621,1.113c1.527-.408,2.081-1.894,1.593-3.716-.425-1.594-1.628-2.732-3.155-2.324a2.387,2.387,0,0,0-1.706,2.373,2.415,2.415,0,0,0,.061.618Z" style="fill:#fff"/><path d="M600.926,129.742a.927.927,0,0,1-1.79.479.912.912,0,0,1,.662-1.145A.888.888,0,0,1,600.926,129.742Zm1.112,10.612-2.125-7.948,1.445-.386,2.125,7.948Z" style="fill:#fff"/><path d="M610.282,138.15l-.383-.971-.048.013a3.065,3.065,0,0,1-2.116,1.832,2.343,2.343,0,0,1-3.04-1.632c-.513-1.921.913-3.429,3.99-4.234l-.044-.164a1.7,1.7,0,0,0-2.3-1.356,4.094,4.094,0,0,0-1.912,1.144l-.583-.865a5.105,5.105,0,0,1,2.423-1.4c2.429-.65,3.464.85,3.89,2.443l.8,2.972a11.6,11.6,0,0,0,.64,1.87Zm-1.3-4c-1.585.389-3.3,1.146-2.887,2.69a1.323,1.323,0,0,0,1.731,1.015,2.045,2.045,0,0,0,1.566-1.843,1.541,1.541,0,0,0-.041-.482Z" style="fill:#fff"/><path d="M619.384,135.4a5.51,5.51,0,0,1-2.16,1.07,3.908,3.908,0,0,1-5.041-3,4.179,4.179,0,0,1,3.14-5.361,5,5,0,0,1,2.114-.125l-.03,1.2a3.475,3.475,0,0,0-1.776.07,3.1,3.1,0,0,0,1.549,5.991,4.274,4.274,0,0,0,1.668-.868Z" style="fill:#fff"/><path d="M620.042,124.632a.927.927,0,0,1-1.79.479.911.911,0,0,1,.662-1.144A.888.888,0,0,1,620.042,124.632Zm1.112,10.612L619.03,127.3l1.446-.386,2.124,7.948Z" style="fill:#fff"/><path d="M631.11,128.255a4.02,4.02,0,0,1-2.83,5.278,3.911,3.911,0,0,1-4.9-3.071,4.018,4.018,0,0,1,2.813-5.274A3.9,3.9,0,0,1,631.11,128.255Zm-6.284,1.767c.466,1.741,1.819,2.787,3.231,2.409,1.38-.368,2.067-1.942,1.589-3.732-.36-1.346-1.49-2.875-3.2-2.418S624.423,128.512,624.826,130.022Zm2.6-8.647-1.376,2.884-1.035.276.817-2.734Z" style="fill:#fff"/><path d="M632.464,126.01c-.219-.821-.415-1.49-.641-2.134l1.281-.342.434,1.292.033-.009a3.023,3.023,0,0,1,2.228-2.2c1.1-.3,2.983-.095,3.712,2.632L640.78,130l-1.445.387L638.11,125.8c-.342-1.281-1.1-2.221-2.466-1.857a2.192,2.192,0,0,0-1.461,2.7l1.277,4.778-1.446.387Z" style="fill:#fff"/><path d="M558.067,161.364l1.429-.382,1.98,7.407c.785,2.939-.418,4.229-2.324,4.738a4.8,4.8,0,0,1-1.6.145l-.1-1.223a3.512,3.512,0,0,0,1.256-.107c1.28-.341,1.883-1.119,1.3-3.286Z" style="fill:#fff"/><path d="M570.858,167.482c.219.821.429,1.539.645,2.15l-1.281.342-.429-1.275-.032.009a3.1,3.1,0,0,1-2.233,2.18c-1.248.334-2.926.044-3.673-2.748l-1.242-4.647,1.445-.387,1.176,4.4c.4,1.511,1.136,2.406,2.45,2.055a2.108,2.108,0,0,0,1.488-2.6l-1.3-4.877,1.445-.386Z" style="fill:#fff"/><path d="M577.583,155.515l2.568,9.606c.189.706.42,1.506.615,2.035l-1.3.347-.434-1.362-.033.009a3.044,3.044,0,0,1-2.293,2.284c-1.921.514-3.833-.717-4.479-3.131-.723-2.639.485-4.7,2.422-5.222a2.751,2.751,0,0,1,2.723.574l.033-.009-1.269-4.745Zm.412,7.332a2.725,2.725,0,0,0-.228-.59,2.2,2.2,0,0,0-2.534-1.118c-1.494.4-2.029,1.951-1.56,3.708.431,1.609,1.574,2.728,3.135,2.311a2.25,2.25,0,0,0,1.657-2.29,2.541,2.541,0,0,0-.1-.641Z" style="fill:#fff"/><path d="M581.986,155.921a.926.926,0,0,1-1.79.478.911.911,0,0,1,.661-1.144A.888.888,0,0,1,581.986,155.921Zm1.112,10.611-2.124-7.947,1.445-.387,2.125,7.948Z" style="fill:#fff"/><path d="M592.528,163.7a5.516,5.516,0,0,1-2.16,1.07,3.909,3.909,0,0,1-5.042-3,4.181,4.181,0,0,1,3.142-5.362,5,5,0,0,1,2.113-.125l-.03,1.205a3.479,3.479,0,0,0-1.777.07,3.1,3.1,0,0,0,1.549,5.99,4.218,4.218,0,0,0,1.668-.868Z" style="fill:#fff"/><path d="M593.187,152.927a.927.927,0,0,1-1.791.478.912.912,0,0,1,.663-1.144A.887.887,0,0,1,593.187,152.927Zm1.112,10.612-2.125-7.948,1.445-.386,2.125,7.947Z" style="fill:#fff"/><path d="M602.543,161.335l-.383-.971-.05.013A3.06,3.06,0,0,1,600,162.209a2.344,2.344,0,0,1-3.041-1.633c-.514-1.921.914-3.429,3.988-4.233l-.043-.164a1.7,1.7,0,0,0-2.3-1.356,4.094,4.094,0,0,0-1.912,1.144l-.583-.865a5.116,5.116,0,0,1,2.422-1.4c2.432-.649,3.466.851,3.892,2.444l.794,2.972a11.6,11.6,0,0,0,.64,1.87Zm-1.3-4c-1.586.389-3.3,1.146-2.888,2.69a1.325,1.325,0,0,0,1.732,1.015,2.048,2.048,0,0,0,1.566-1.844,1.562,1.562,0,0,0-.041-.481Z" style="fill:#fff"/><path d="M602.941,148.736l1.446-.386,3.116,11.659-1.445.387Z" style="fill:#fff"/><path d="M609.374,161.673a24.466,24.466,0,0,0-.064-4.188l1.565-.594a20.716,20.716,0,0,1-.493,4.407Z" style="fill:#fff"/><path d="M565.8,193.294l-4.431.452.419,4.109,4.937-.5.126,1.234-6.409.653-1.16-11.4,6.156-.626.125,1.235-4.684.477.366,3.6,4.431-.451Z" style="fill:#fff"/><path d="M568.577,190.142l1.346,1.64c.35.426.646.822.965,1.252l.05-.006c.221-.518.448-.968.674-1.436l.973-1.858,1.606-.163-2.387,4.241,3.3,3.935-1.69.171-1.39-1.72c-.368-.441-.685-.87-1.023-1.331l-.033,0c-.221.518-.464.987-.719,1.508l-1,1.964-1.641.167,2.484-4.473-3.181-3.726Z" style="fill:#fff"/><path d="M575.986,192.087c-.107-1.048-.226-1.89-.34-2.665l1.336-.135.21,1.4.035,0a3.235,3.235,0,0,1,2.747-1.887c1.978-.2,3.636,1.323,3.889,3.808.3,2.942-1.344,4.579-3.272,4.775a2.882,2.882,0,0,1-2.651-1.029l-.034,0,.453,4.447-1.471.151Zm1.693,2.032a3.388,3.388,0,0,0,.13.6,2.308,2.308,0,0,0,2.41,1.515c1.572-.16,2.354-1.538,2.163-3.415-.167-1.641-1.172-2.956-2.744-2.8a2.387,2.387,0,0,0-2.062,2.072,2.448,2.448,0,0,0-.04.619Z" style="fill:#fff"/><path d="M585.6,190.989c-.1-.963-.2-1.79-.327-2.546l1.3-.133.214,1.6.067-.007a2.47,2.47,0,0,1,2.084-2.024,1.711,1.711,0,0,1,.427.008l.144,1.4a2.246,2.246,0,0,0-.513,0,2.1,2.1,0,0,0-1.8,2.115,4.317,4.317,0,0,0,0,.7l.445,4.363-1.472.15Z" style="fill:#fff"/><path d="M598.515,191.162a4.02,4.02,0,0,1-3.633,4.76,3.912,3.912,0,0,1-4.353-3.811,4.019,4.019,0,0,1,3.617-4.76A3.9,3.9,0,0,1,598.515,191.162Zm-6.486.745c.183,1.792,1.352,3.04,2.807,2.892,1.42-.144,2.35-1.589,2.162-3.432-.142-1.387-1.014-3.075-2.772-2.9S591.871,190.35,592.029,191.907Z" style="fill:#fff"/><path d="M600.255,189.617c-.107-1.048-.227-1.891-.34-2.665l1.336-.136.211,1.4.033,0a3.236,3.236,0,0,1,2.747-1.885c1.98-.2,3.638,1.321,3.891,3.807.3,2.943-1.345,4.579-3.273,4.776a2.884,2.884,0,0,1-2.65-1.03l-.034,0,.452,4.449-1.471.149Zm1.693,2.032a3.469,3.469,0,0,0,.129.6,2.308,2.308,0,0,0,2.41,1.515c1.573-.16,2.356-1.538,2.164-3.415-.167-1.641-1.172-2.956-2.745-2.8a2.588,2.588,0,0,0-2.1,2.692Z" style="fill:#fff"/><path d="M611.029,183.5a.926.926,0,0,1-1.843.187.91.91,0,0,1,.835-1.024A.887.887,0,0,1,611.029,183.5Zm-.59,10.653-.833-8.186,1.489-.151.833,8.186Z" style="fill:#fff"/><path d="M618.929,193.287l-.224-1.02-.05,0a3.068,3.068,0,0,1-2.379,1.473,2.344,2.344,0,0,1-2.742-2.1c-.2-1.979,1.447-3.24,4.612-3.545l-.018-.169a1.7,1.7,0,0,0-2.053-1.705,4.109,4.109,0,0,0-2.069.825l-.438-.945a5.1,5.1,0,0,1,2.615-1c2.5-.254,3.286,1.392,3.453,3.032l.311,3.062a11.681,11.681,0,0,0,.335,1.947Zm-.646-4.156c-1.626.132-3.44.607-3.278,2.2a1.323,1.323,0,0,0,1.548,1.276,2.046,2.046,0,0,0,1.839-1.57,1.558,1.558,0,0,0,.036-.483Z" style="fill:#fff"/><path d="M628.352,192.02a5.526,5.526,0,0,1-2.3.713,3.909,3.909,0,0,1-4.5-3.763,4.179,4.179,0,0,1,3.954-4.793,4.984,4.984,0,0,1,2.106.213l-.221,1.184a3.459,3.459,0,0,0-1.764-.213,3.1,3.1,0,0,0,.575,6.16,4.243,4.243,0,0,0,1.785-.591Z" style="fill:#fff"/><path d="M630.715,181.494a.926.926,0,0,1-1.843.187.91.91,0,0,1,.835-1.024A.887.887,0,0,1,630.715,181.494Zm-.59,10.653-.833-8.185,1.488-.152.833,8.186Z" style="fill:#fff"/><path d="M641.066,186.831a4.019,4.019,0,0,1-3.632,4.76,3.912,3.912,0,0,1-4.353-3.811,4.018,4.018,0,0,1,3.616-4.76A3.9,3.9,0,0,1,641.066,186.831Zm-6.485.745c.183,1.792,1.352,3.04,2.807,2.892,1.42-.144,2.348-1.589,2.161-3.432-.141-1.387-1.013-3.076-2.773-2.9S634.423,186.019,634.581,187.576Zm3.94-8.124L636.7,182.08l-1.065.108,1.242-2.569Z" style="fill:#fff"/><path d="M642.76,184.83c-.086-.846-.173-1.538-.293-2.209l1.319-.134.222,1.345.034,0a3.025,3.025,0,0,1,2.549-1.815c1.134-.115,2.961.382,3.247,3.19l.5,4.887-1.487.152-.481-4.719c-.135-1.318-.737-2.368-2.14-2.226a2.2,2.2,0,0,0-1.872,2.43l.5,4.921-1.488.151Z" style="fill:#fff"/><path d="M563.99,215.761l-.819,3.706-1.522.155,2.712-11.792,1.777-.181,5.05,11-1.574.16-1.582-3.461Zm3.62-1.53-1.449-3.167c-.33-.718-.568-1.377-.8-2.02l-.034,0c-.1.694-.216,1.407-.365,2.122l-.78,3.412Z" style="fill:#fff"/><path d="M578.456,205.78l1.007,9.892c.073.728.175,1.555.282,2.108l-1.336.136L578.2,216.5l-.034,0a3.043,3.043,0,0,1-2.627,1.89c-1.978.2-3.671-1.317-3.924-3.8-.294-2.72,1.227-4.566,3.223-4.769a2.75,2.75,0,0,1,2.6,1l.034,0-.5-4.888Zm-.761,7.3a2.583,2.583,0,0,0-.131-.618,2.2,2.2,0,0,0-2.323-1.507c-1.539.158-2.314,1.6-2.131,3.413.169,1.657,1.12,2.944,2.727,2.781a2.249,2.249,0,0,0,2-2,2.611,2.611,0,0,0,0-.65Z" style="fill:#fff"/><path d="M581.54,211.566c-.086-.846-.174-1.537-.293-2.208l1.3-.133.2,1.313.051-.006a2.836,2.836,0,0,1,2.417-1.767,2.432,2.432,0,0,1,2.483,1.405l.034,0a3.389,3.389,0,0,1,.805-1.159,2.807,2.807,0,0,1,1.751-.758c1.082-.111,2.762.435,3.051,3.276l.49,4.82-1.454.149-.472-4.634c-.16-1.572-.832-2.462-2.032-2.339a1.935,1.935,0,0,0-1.621,1.531,2.485,2.485,0,0,0-.043.757l.515,5.056-1.455.148-.5-4.9c-.131-1.3-.8-2.191-1.937-2.075a2.228,2.228,0,0,0-1.735,2.415l.5,4.937-1.455.149Z" style="fill:#fff"/><path d="M596.843,205.447a.927.927,0,0,1-1.844.187.912.912,0,0,1,.836-1.024A.888.888,0,0,1,596.843,205.447Zm-.591,10.653-.833-8.184,1.488-.152.833,8.185Z" style="fill:#fff"/><path d="M599.6,209.727c-.086-.845-.174-1.536-.293-2.208l1.318-.134.223,1.344.034,0a3.022,3.022,0,0,1,2.549-1.814c1.132-.116,2.96.381,3.246,3.189l.5,4.887-1.488.151-.48-4.718c-.134-1.319-.736-2.368-2.14-2.225a2.121,2.121,0,0,0-1.84,1.724,2.173,2.173,0,0,0-.032.705l.5,4.92-1.488.152Z" style="fill:#fff"/><path d="M610.187,204.088a.926.926,0,0,1-1.843.188.911.911,0,0,1,.835-1.025A.888.888,0,0,1,610.187,204.088Zm-.59,10.654-.833-8.185,1.488-.151.833,8.184Z" style="fill:#fff"/><path d="M613.2,212.837a3.915,3.915,0,0,0,2.022.393c1.082-.11,1.534-.7,1.466-1.379-.073-.711-.535-1.057-1.675-1.351-1.526-.375-2.3-1.116-2.4-2.1a2.539,2.539,0,0,1,2.581-2.689,4.1,4.1,0,0,1,2.063.3l-.261,1.12a3.211,3.211,0,0,0-1.722-.3c-.88.09-1.319.647-1.257,1.256.069.677.591.931,1.7,1.229,1.476.4,2.275,1.032,2.4,2.25.147,1.437-.865,2.565-2.81,2.764a4.691,4.691,0,0,1-2.357-.325Z" style="fill:#fff"/><path d="M620.971,202.94l.239,2.351,2.131-.217.115,1.133-2.131.216.449,4.413c.1,1.015.451,1.561,1.279,1.477a3.366,3.366,0,0,0,.852-.189l.181,1.108a3.656,3.656,0,0,1-1.3.338,2.078,2.078,0,0,1-1.671-.462,3.05,3.05,0,0,1-.791-2.072l-.455-4.465-1.267.129-.116-1.133,1.268-.129-.2-1.962Z" style="fill:#fff"/><path d="M625.275,207.457c-.1-.964-.2-1.791-.327-2.547l1.3-.133.214,1.6.067-.006a2.469,2.469,0,0,1,2.083-2.024,1.636,1.636,0,0,1,.429.008l.143,1.4a2.373,2.373,0,0,0-.513,0,2.1,2.1,0,0,0-1.8,2.115,4.317,4.317,0,0,0,0,.7l.444,4.363-1.471.149Z" style="fill:#fff"/><path d="M635.827,212.072l-.223-1.02-.051,0a3.063,3.063,0,0,1-2.379,1.473,2.344,2.344,0,0,1-2.742-2.1c-.2-1.978,1.447-3.24,4.612-3.545l-.018-.169a1.7,1.7,0,0,0-2.052-1.705,4.113,4.113,0,0,0-2.07.826l-.437-.946a5.1,5.1,0,0,1,2.614-1c2.5-.255,3.285,1.392,3.452,3.031l.312,3.062a11.479,11.479,0,0,0,.335,1.947Zm-.645-4.155c-1.626.132-3.441.607-3.279,2.2a1.323,1.323,0,0,0,1.548,1.277,2.045,2.045,0,0,0,1.839-1.571,1.52,1.52,0,0,0,.036-.482Z" style="fill:#fff"/><path d="M640.1,200.993l.239,2.35,2.131-.217.115,1.133-2.131.217.449,4.414c.1,1.015.45,1.561,1.279,1.476a3.232,3.232,0,0,0,.851-.19l.182,1.11a3.694,3.694,0,0,1-1.3.337,2.071,2.071,0,0,1-1.67-.462,3.053,3.053,0,0,1-.792-2.073L639,204.625l-1.269.128-.115-1.132,1.269-.129-.2-1.963Z" style="fill:#fff"/><path d="M645.567,200.487a.926.926,0,0,1-1.843.187.913.913,0,0,1,.836-1.024A.886.886,0,0,1,645.567,200.487Zm-.59,10.653-.833-8.184,1.489-.152.833,8.185Z" style="fill:#fff"/><path d="M648.677,202.5l2.074,4.436a20.706,20.706,0,0,1,.873,2.029l.051,0c.117-.7.285-1.4.48-2.168l1.121-4.761,1.556-.159-2.38,8.511-1.421.145-3.944-7.867Z" style="fill:#fff"/><path d="M661.534,209.456l-.223-1.02-.051,0a3.07,3.07,0,0,1-2.379,1.473,2.345,2.345,0,0,1-2.742-2.1c-.2-1.979,1.447-3.24,4.612-3.545l-.018-.169a1.7,1.7,0,0,0-2.052-1.705,4.1,4.1,0,0,0-2.07.826l-.437-.947a5.1,5.1,0,0,1,2.614-1c2.5-.255,3.285,1.39,3.452,3.031l.312,3.061a11.592,11.592,0,0,0,.335,1.948Zm-.645-4.156c-1.626.132-3.441.608-3.279,2.2a1.325,1.325,0,0,0,1.548,1.278A2.045,2.045,0,0,0,661,207.2a1.52,1.52,0,0,0,.036-.482Z" style="fill:#fff"/><path d="M664.4,211.265a24.452,24.452,0,0,0,.6-4.144l1.64-.338a20.731,20.731,0,0,1-1.188,4.272Z" style="fill:#fff"/></g></g></svg>