<svg xmlns="http://www.w3.org/2000/svg" viewBox="0 0 733.952 353.203"><g id="Capa_2" data-name="Capa 2"><g id="Capa_1-2" data-name="Capa 1"><path d="M452.431,288.041,281.218,246.157a159.356,159.356,0,0,0,4.525-37.815,157.916,157.916,0,0,0-8.922-52.588L443.077,97.212A333.736,333.736,0,0,1,462,208.344,335.721,335.721,0,0,1,452.431,288.041Z" style="fill:#29abe2"/><circle cx="127.5" cy="207.726" r="105" style="fill:#bdc4c6"/><circle cx="127.5" cy="207.726" r="127" style="fill:none;stroke:#aab8bd;stroke-miterlimit:10"/><path d="M321.533,185.835a9.907,9.907,0,0,1-4.093.736c-4.369,0-7.657-2.759-7.657-7.841a7.713,7.713,0,0,1,8.094-8.141,8.294,8.294,0,0,1,3.68.691l-.484,1.633a7.271,7.271,0,0,0-3.127-.645c-3.633,0-6.048,2.323-6.048,6.393,0,3.795,2.185,6.232,5.956,6.232a8,8,0,0,0,3.265-.644Z" style="fill:#fff"/><path d="M333.792,180.684c0,4.116-2.851,5.91-5.541,5.91-3.013,0-5.335-2.207-5.335-5.725,0-3.726,2.438-5.911,5.519-5.911C331.631,174.958,333.792,177.282,333.792,180.684Zm-8.83.115c0,2.438,1.4,4.278,3.381,4.278,1.931,0,3.38-1.817,3.38-4.324,0-1.885-.943-4.277-3.334-4.277S324.962,178.684,324.962,180.8Z" style="fill:#fff"/><path d="M336.348,178.224c0-1.149-.024-2.093-.092-3.013h1.77l.092,1.794h.07a3.836,3.836,0,0,1,3.5-2.047,3.291,3.291,0,0,1,3.15,2.231h.046a4.579,4.579,0,0,1,1.241-1.448,3.8,3.8,0,0,1,2.461-.783c1.472,0,3.656.966,3.656,4.83v6.553H350.26v-6.3c0-2.139-.782-3.426-2.415-3.426a2.62,2.62,0,0,0-2.392,1.839,3.333,3.333,0,0,0-.16,1.011v6.876h-1.978v-6.669c0-1.77-.782-3.057-2.323-3.057a3.015,3.015,0,0,0-2.667,3.011v6.715h-1.977Z" style="fill:#fff"/><path d="M361.691,186.341l-.16-1.4h-.069a4.146,4.146,0,0,1-3.4,1.655,3.171,3.171,0,0,1-3.4-3.2c0-2.69,2.392-4.162,6.692-4.139v-.23a2.294,2.294,0,0,0-2.53-2.575,5.536,5.536,0,0,0-2.9.828l-.46-1.334a6.908,6.908,0,0,1,3.656-.99c3.4,0,4.232,2.324,4.232,4.554v4.162a15.764,15.764,0,0,0,.183,2.667Zm-.3-5.679c-2.207-.046-4.714.344-4.714,2.506a1.79,1.79,0,0,0,1.909,1.931,2.769,2.769,0,0,0,2.69-1.862,2.112,2.112,0,0,0,.115-.644Z" style="fill:#fff"/><path d="M366.615,178.224c0-1.149-.023-2.093-.092-3.013h1.793l.116,1.84h.046a4.093,4.093,0,0,1,3.679-2.093c1.54,0,3.932.92,3.932,4.738v6.645h-2.024v-6.416c0-1.793-.667-3.288-2.575-3.288a2.878,2.878,0,0,0-2.714,2.07,2.935,2.935,0,0,0-.137.943v6.691h-2.024Z" style="fill:#fff"/><path d="M388.992,170.015v13.452c0,.989.023,2.116.092,2.874h-1.816l-.093-1.931h-.046a4.116,4.116,0,0,1-3.794,2.184c-2.69,0-4.76-2.276-4.76-5.657-.023-3.7,2.277-5.979,4.989-5.979a3.719,3.719,0,0,1,3.358,1.7h.046v-6.646Zm-2.024,9.727a3.573,3.573,0,0,0-.092-.851,2.976,2.976,0,0,0-2.92-2.346c-2.093,0-3.335,1.84-3.335,4.3,0,2.254,1.105,4.116,3.289,4.116a3.041,3.041,0,0,0,2.966-2.414,3.511,3.511,0,0,0,.092-.874Z" style="fill:#fff"/><path d="M402.423,180.684c0,4.116-2.851,5.91-5.541,5.91-3.013,0-5.335-2.207-5.335-5.725,0-3.726,2.437-5.911,5.518-5.911C400.262,174.958,402.423,177.282,402.423,180.684Zm-8.83.115c0,2.438,1.4,4.278,3.381,4.278,1.931,0,3.38-1.817,3.38-4.324,0-1.885-.943-4.277-3.334-4.277S393.593,178.684,393.593,180.8Z" style="fill:#fff"/><path d="M410.59,175.211l2.437,6.578c.253.735.53,1.609.713,2.276h.046c.207-.667.438-1.518.713-2.322l2.208-6.532h2.139l-3.035,7.934c-1.45,3.817-2.438,5.772-3.818,6.968a5.478,5.478,0,0,1-2.483,1.31l-.506-1.7a5.318,5.318,0,0,0,1.77-.988,6.145,6.145,0,0,0,1.7-2.254,1.473,1.473,0,0,0,.161-.482,1.762,1.762,0,0,0-.138-.53l-4.116-10.256Z" style="fill:#fff"/><path d="M340.888,213.435a9.931,9.931,0,0,1-4.093.735c-4.369,0-7.657-2.758-7.657-7.84a7.713,7.713,0,0,1,8.093-8.141,8.31,8.31,0,0,1,3.68.69l-.483,1.633a7.287,7.287,0,0,0-3.127-.644c-3.634,0-6.048,2.323-6.048,6.392,0,3.8,2.185,6.233,5.956,6.233a7.987,7.987,0,0,0,3.265-.645Z" style="fill:#fff"/><path d="M353.146,208.284c0,4.116-2.85,5.91-5.541,5.91-3.012,0-5.334-2.207-5.334-5.726,0-3.725,2.437-5.91,5.518-5.91C350.985,202.558,353.146,204.881,353.146,208.284Zm-8.83.115c0,2.437,1.4,4.277,3.381,4.277,1.932,0,3.38-1.816,3.38-4.323,0-1.886-.942-4.277-3.334-4.277S344.316,206.284,344.316,208.4Z" style="fill:#fff"/><path d="M355.7,205.824c0-1.15-.023-2.093-.092-3.013H357.4l.116,1.84h.045a4.094,4.094,0,0,1,3.68-2.093c1.54,0,3.932.92,3.932,4.737v6.646h-2.024v-6.416c0-1.793-.667-3.288-2.575-3.288a2.877,2.877,0,0,0-2.714,2.069,2.918,2.918,0,0,0-.137.944v6.691H355.7Z" style="fill:#fff"/><path d="M370.813,199.615v3.2h2.9v1.541h-2.9v6c0,1.38.39,2.161,1.517,2.161a4.5,4.5,0,0,0,1.173-.138l.092,1.518a4.958,4.958,0,0,1-1.794.275,2.806,2.806,0,0,1-2.185-.85,4.128,4.128,0,0,1-.781-2.9v-6.07H367.11v-1.541h1.725v-2.667Z" style="fill:#fff"/><path d="M375.988,206.284c0-1.311-.023-2.438-.092-3.473h1.771l.068,2.185h.093a3.34,3.34,0,0,1,3.081-2.438,2.232,2.232,0,0,1,.575.069v1.909a3.04,3.04,0,0,0-.69-.069,2.837,2.837,0,0,0-2.713,2.6,5.7,5.7,0,0,0-.093.943v5.933h-2Z" style="fill:#fff"/><path d="M393.351,208.284c0,4.116-2.851,5.91-5.541,5.91-3.013,0-5.335-2.207-5.335-5.726,0-3.725,2.437-5.91,5.518-5.91C391.189,202.558,393.351,204.881,393.351,208.284Zm-8.83.115c0,2.437,1.4,4.277,3.38,4.277,1.932,0,3.38-1.816,3.38-4.323,0-1.886-.942-4.277-3.334-4.277S384.521,206.284,384.521,208.4Z" style="fill:#fff"/><path d="M395.906,197.615h2.024v16.326h-2.024Z" style="fill:#fff"/><circle cx="127.258" cy="207.966" r="105" style="fill:#bdc4c6"/><circle cx="127.696" cy="207.891" r="105" style="fill:#bdc4c6"/><path d="M716.4,353.2,483.377,295.748a365.376,365.376,0,0,0,10.575-87.406c0-6.085-.153-12.266-.453-18.375l239.709-11.805c.494,10.023.744,20.176.744,30.179A605.614,605.614,0,0,1,716.4,353.2Z" style="fill:#84266a"/><path d="M493.337,186.946l-.041-.712A366.6,366.6,0,0,0,471.834,82.212L697.314,0a606.553,606.553,0,0,1,35.569,172.16l.071,1.223Z" style="fill:#84266a"/><path d="M439.258,284.305,275.1,244.146a152.7,152.7,0,0,0,4.338-36.257,151.379,151.379,0,0,0-8.554-50.421L430.29,101.337a319.982,319.982,0,0,1,18.147,106.554A321.862,321.862,0,0,1,439.258,284.305Z" style="fill:#84266a"/><path d="M99.242,212.8a14.121,14.121,0,0,1-4.593.8,7.683,7.683,0,0,1-5.587-1.905,7.071,7.071,0,0,1-1.99-5.248c0-4.508,3.217-7.408,7.937-7.408a9.444,9.444,0,0,1,3.788.678l-.571,2.094a7.7,7.7,0,0,0-3.239-.613c-3.047,0-5.184,1.8-5.184,5.122,0,3.237,1.989,5.164,4.952,5.164a4.993,4.993,0,0,0,1.969-.3v-3.555H94.205v-2.053h5.037Z" style="fill:#112025"/><path d="M109.889,207.13h-5.376v4.19h6.01v2.138H101.91V199.193h8.3v2.138h-5.693v3.683h5.376Z" style="fill:#112025"/><path d="M112.748,210.622a7.216,7.216,0,0,0,3.449.91c1.672,0,2.6-.783,2.6-1.947,0-1.079-.72-1.714-2.54-2.37-2.349-.847-3.852-2.1-3.852-4.149,0-2.328,1.947-4.1,5.037-4.1a7.536,7.536,0,0,1,3.429.72l-.635,2.094a6.048,6.048,0,0,0-2.836-.676c-1.651,0-2.371.888-2.371,1.714,0,1.1.825,1.608,2.731,2.349,2.476.931,3.682,2.18,3.682,4.233,0,2.286-1.735,4.275-5.418,4.275a8.472,8.472,0,0,1-3.851-.889Z" style="fill:#112025"/><path d="M126.526,201.373h-4.063v-2.18h10.772v2.18H129.13v12.085h-2.6Z" style="fill:#112025"/><path d="M137.512,199.193v14.265h-2.6V199.193Z" style="fill:#112025"/><path d="M153.152,206.178c0,4.783-2.9,7.512-6.836,7.512-4.02,0-6.56-3.068-6.56-7.258,0-4.381,2.752-7.471,6.772-7.471C150.7,198.961,153.152,202.114,153.152,206.178Zm-10.644.212c0,2.9,1.46,5.206,3.957,5.206,2.518,0,3.936-2.328,3.936-5.313,0-2.687-1.333-5.227-3.936-5.227C143.883,201.056,142.508,203.447,142.508,206.39Zm7.364-10.54-2.645,2.54h-2.095l1.862-2.54Z" style="fill:#112025"/><path d="M155.4,213.458V199.193h2.963l3.683,6.117a39.391,39.391,0,0,1,2.434,4.783h.042c-.169-1.905-.233-3.746-.233-5.926v-4.974H166.7v14.265h-2.687l-3.725-6.265a49.607,49.607,0,0,1-2.56-4.93l-.064.02c.106,1.842.127,3.725.127,6.074v5.1Z" style="fill:#112025"/><path d="M307.047,170.125a23.2,23.2,0,0,1,3.84-.3,6.371,6.371,0,0,1,4.346,1.287,4.17,4.17,0,0,1,1.357,3.242,4.559,4.559,0,0,1-1.2,3.311,6.421,6.421,0,0,1-4.737,1.7,6.884,6.884,0,0,1-1.61-.139v6.209h-2Zm2,7.474a6.779,6.779,0,0,0,1.657.16c2.414,0,3.885-1.173,3.885-3.31,0-2.047-1.449-3.036-3.656-3.036a8.4,8.4,0,0,0-1.886.161Z" style="fill:#fff"/><path d="M319.1,169.114h2.024V185.44H319.1Z" style="fill:#fff"/><path d="M330.689,185.44l-.16-1.4h-.07a4.146,4.146,0,0,1-3.4,1.655,3.17,3.17,0,0,1-3.4-3.2c0-2.691,2.391-4.163,6.691-4.139v-.231a2.294,2.294,0,0,0-2.529-2.575,5.561,5.561,0,0,0-2.9.828l-.459-1.334a6.912,6.912,0,0,1,3.656-.989c3.4,0,4.231,2.323,4.231,4.554v4.162a15.662,15.662,0,0,0,.184,2.667Zm-.3-5.68c-2.207-.046-4.714.345-4.714,2.507a1.79,1.79,0,0,0,1.909,1.931,2.768,2.768,0,0,0,2.691-1.863,2.135,2.135,0,0,0,.114-.643Z" style="fill:#fff"/><path d="M335.613,177.323c0-1.15-.024-2.093-.092-3.013h1.793l.115,1.84h.046a4.094,4.094,0,0,1,3.68-2.093c1.54,0,3.931.92,3.931,4.737v6.646h-2.023v-6.416c0-1.793-.667-3.288-2.575-3.288a2.877,2.877,0,0,0-2.714,2.069,2.917,2.917,0,0,0-.138.944v6.691h-2.023Z" style="fill:#fff"/><path d="M350.631,171.183a1.253,1.253,0,0,1-2.506,0,1.232,1.232,0,0,1,1.264-1.265A1.2,1.2,0,0,1,350.631,171.183Zm-2.254,14.257V174.31H350.4v11.13Z" style="fill:#fff"/><path d="M353.966,185.44v-9.589H352.4V174.31h1.563v-.6a4.46,4.46,0,0,1,4.852-4.851,5.571,5.571,0,0,1,2.829.735l-.575,1.541a4.258,4.258,0,0,0-2.346-.643c-2.139,0-2.76,1.494-2.76,3.264v.552h6.462v11.13h-2v-9.589h-4.462v9.589Z" style="fill:#fff"/><path d="M373.722,185.026a7.457,7.457,0,0,1-3.2.643c-3.358,0-5.542-2.276-5.542-5.679a5.655,5.655,0,0,1,5.978-5.909,6.75,6.75,0,0,1,2.806.575l-.46,1.563a4.694,4.694,0,0,0-2.346-.529c-2.552,0-3.932,1.886-3.932,4.208a3.816,3.816,0,0,0,3.863,4.162,5.741,5.741,0,0,0,2.483-.552Z" style="fill:#fff"/><path d="M382.254,185.44l-.16-1.4h-.069a4.148,4.148,0,0,1-3.4,1.655,3.171,3.171,0,0,1-3.4-3.2c0-2.691,2.392-4.163,6.692-4.139v-.231a2.3,2.3,0,0,0-2.53-2.575,5.555,5.555,0,0,0-2.9.828l-.46-1.334a6.917,6.917,0,0,1,3.656-.989c3.4,0,4.232,2.323,4.232,4.554v4.162a15.772,15.772,0,0,0,.183,2.667Zm-.3-5.68c-2.207-.046-4.714.345-4.714,2.507a1.79,1.79,0,0,0,1.909,1.931,2.768,2.768,0,0,0,2.69-1.863,2.106,2.106,0,0,0,.115-.643Z" style="fill:#fff"/><path d="M395.112,185.026a7.457,7.457,0,0,1-3.2.643c-3.358,0-5.542-2.276-5.542-5.679a5.654,5.654,0,0,1,5.978-5.909,6.753,6.753,0,0,1,2.806.575l-.46,1.563a4.7,4.7,0,0,0-2.346-.529c-2.553,0-3.933,1.886-3.933,4.208a3.817,3.817,0,0,0,3.864,4.162,5.741,5.741,0,0,0,2.483-.552Z" style="fill:#fff"/><path d="M399.736,171.183a1.254,1.254,0,0,1-2.507,0,1.233,1.233,0,0,1,1.265-1.265A1.2,1.2,0,0,1,399.736,171.183Zm-2.254,14.257V174.31h2.023v11.13Z" style="fill:#fff"/><path d="M412.935,179.783c0,4.116-2.851,5.91-5.541,5.91-3.013,0-5.335-2.207-5.335-5.726,0-3.725,2.438-5.91,5.519-5.91C410.774,174.057,412.935,176.38,412.935,179.783Zm-8.83.115c0,2.437,1.4,4.277,3.381,4.277,1.931,0,3.38-1.816,3.38-4.323,0-1.886-.943-4.277-3.334-4.277S404.105,177.783,404.105,179.9Zm6.416-10.394-2.806,3.288h-1.448l2.024-3.288Z" style="fill:#fff"/><path d="M415.491,177.323c0-1.15-.024-2.093-.092-3.013h1.793l.115,1.84h.046a4.094,4.094,0,0,1,3.68-2.093c1.54,0,3.931.92,3.931,4.737v6.646h-2.023v-6.416c0-1.793-.667-3.288-2.575-3.288a2.877,2.877,0,0,0-2.714,2.069,2.917,2.917,0,0,0-.138.944v6.691h-2.023Z" style="fill:#fff"/><path d="M297.971,212.534a9.927,9.927,0,0,1-4.093.735c-4.369,0-7.657-2.759-7.657-7.841a7.713,7.713,0,0,1,8.094-8.14,8.313,8.313,0,0,1,3.68.69l-.484,1.633a7.286,7.286,0,0,0-3.127-.645c-3.634,0-6.048,2.324-6.048,6.393,0,3.795,2.185,6.232,5.956,6.232a8,8,0,0,0,3.265-.644Z" style="fill:#fff"/><path d="M310.23,207.382c0,4.117-2.851,5.91-5.541,5.91-3.013,0-5.335-2.207-5.335-5.725,0-3.726,2.438-5.91,5.519-5.91C308.069,201.657,310.23,203.98,310.23,207.382Zm-8.83.116c0,2.437,1.4,4.277,3.381,4.277,1.931,0,3.38-1.817,3.38-4.323,0-1.886-.943-4.278-3.334-4.278S301.4,205.382,301.4,207.5Z" style="fill:#fff"/><path d="M312.786,204.922c0-1.149-.024-2.092-.092-3.012h1.77l.092,1.794h.069a3.837,3.837,0,0,1,3.5-2.047,3.291,3.291,0,0,1,3.15,2.23h.046a4.59,4.59,0,0,1,1.241-1.448,3.8,3.8,0,0,1,2.461-.782c1.472,0,3.656.966,3.656,4.829v6.554H326.7v-6.3c0-2.139-.782-3.426-2.415-3.426a2.622,2.622,0,0,0-2.392,1.839,3.334,3.334,0,0,0-.16,1.012v6.876h-1.978v-6.669c0-1.771-.782-3.058-2.323-3.058a3.015,3.015,0,0,0-2.667,3.012v6.715h-1.977Z" style="fill:#fff"/><path d="M331.967,205.543c0-1.425-.046-2.576-.092-3.633h1.817l.092,1.909h.046a4.373,4.373,0,0,1,3.955-2.162c2.69,0,4.714,2.276,4.714,5.657,0,4-2.438,5.978-5.059,5.978a3.9,3.9,0,0,1-3.426-1.748h-.047v6.048h-2Zm2,2.966a4.555,4.555,0,0,0,.093.828,3.121,3.121,0,0,0,3.035,2.369c2.139,0,3.38-1.748,3.38-4.3,0-2.231-1.173-4.139-3.31-4.139a3.229,3.229,0,0,0-3.059,2.506,3.283,3.283,0,0,0-.139.828Z" style="fill:#fff"/><path d="M345.054,196.713h2.024V213.04h-2.024Z" style="fill:#fff"/><path d="M351.609,207.842a3.566,3.566,0,0,0,3.817,3.864,7.31,7.31,0,0,0,3.081-.575l.345,1.449a9.018,9.018,0,0,1-3.7.689c-3.427,0-5.473-2.253-5.473-5.61s1.978-6,5.22-6c3.633,0,4.6,3.2,4.6,5.243a7.614,7.614,0,0,1-.069.942Zm5.933-1.448c.022-1.288-.53-3.288-2.806-3.288-2.047,0-2.944,1.886-3.105,3.288Z" style="fill:#fff"/><path d="M362,204.922c0-1.149-.023-2.092-.091-3.012h1.77l.092,1.794h.069a3.835,3.835,0,0,1,3.5-2.047,3.292,3.292,0,0,1,3.151,2.23h.046a4.578,4.578,0,0,1,1.241-1.448,3.8,3.8,0,0,1,2.461-.782c1.471,0,3.656.966,3.656,4.829v6.554h-1.977v-6.3c0-2.139-.783-3.426-2.416-3.426a2.622,2.622,0,0,0-2.391,1.839,3.334,3.334,0,0,0-.16,1.012v6.876h-1.978v-6.669c0-1.771-.782-3.058-2.323-3.058a3.015,3.015,0,0,0-2.667,3.012v6.715H362Z" style="fill:#fff"/><path d="M382.313,207.842a3.565,3.565,0,0,0,3.816,3.864,7.312,7.312,0,0,0,3.082-.575l.345,1.449a9.014,9.014,0,0,1-3.7.689c-3.427,0-5.473-2.253-5.473-5.61s1.978-6,5.22-6c3.633,0,4.6,3.2,4.6,5.243a7.614,7.614,0,0,1-.069.942Zm5.933-1.448c.022-1.288-.53-3.288-2.806-3.288-2.047,0-2.943,1.886-3.105,3.288Z" style="fill:#fff"/><path d="M392.708,204.922c0-1.149-.023-2.092-.091-3.012h1.793l.115,1.84h.046a4.093,4.093,0,0,1,3.679-2.093c1.541,0,3.932.92,3.932,4.737v6.646h-2.023v-6.416c0-1.793-.667-3.289-2.576-3.289a2.877,2.877,0,0,0-2.713,2.07,2.91,2.91,0,0,0-.138.943v6.692h-2.024Z" style="fill:#fff"/><path d="M407.819,198.713v3.2h2.9v1.541h-2.9v6c0,1.379.39,2.161,1.517,2.161a4.54,4.54,0,0,0,1.173-.138l.092,1.518a4.958,4.958,0,0,1-1.794.275,2.8,2.8,0,0,1-2.184-.851,4.12,4.12,0,0,1-.782-2.9v-6.07h-1.724V201.91h1.724v-2.667Z" style="fill:#fff"/><path d="M419.157,213.04l-.16-1.4h-.07a4.146,4.146,0,0,1-3.4,1.655,3.17,3.17,0,0,1-3.4-3.2c0-2.69,2.391-4.162,6.691-4.138v-.231a2.294,2.294,0,0,0-2.529-2.575,5.549,5.549,0,0,0-2.9.828l-.46-1.334a6.909,6.909,0,0,1,3.657-.989c3.4,0,4.231,2.323,4.231,4.553v4.163A15.669,15.669,0,0,0,421,213.04Zm-.3-5.68c-2.207-.046-4.714.345-4.714,2.507a1.79,1.79,0,0,0,1.909,1.93,2.771,2.771,0,0,0,2.691-1.862,2.135,2.135,0,0,0,.114-.643Z" style="fill:#fff"/><path d="M424.081,205.382c0-1.31-.024-2.437-.092-3.472h1.77l.069,2.184h.092A3.34,3.34,0,0,1,429,201.657a2.2,2.2,0,0,1,.576.069v1.908a3.048,3.048,0,0,0-.691-.068,2.837,2.837,0,0,0-2.713,2.6,5.7,5.7,0,0,0-.092.943v5.933h-2Z" style="fill:#fff"/><path d="M433.947,198.783a1.254,1.254,0,0,1-2.507,0,1.233,1.233,0,0,1,1.265-1.265A1.2,1.2,0,0,1,433.947,198.783Zm-2.254,14.257V201.91h2.023v11.13Z" style="fill:#fff"/><path d="M443.237,213.04l-.16-1.4h-.07a4.146,4.146,0,0,1-3.4,1.655,3.17,3.17,0,0,1-3.4-3.2c0-2.69,2.391-4.162,6.691-4.138v-.231a2.294,2.294,0,0,0-2.529-2.575,5.552,5.552,0,0,0-2.9.828l-.46-1.334a6.909,6.909,0,0,1,3.657-.989c3.4,0,4.231,2.323,4.231,4.553v4.163a15.669,15.669,0,0,0,.184,2.667Zm-.3-5.68c-2.207-.046-4.714.345-4.714,2.507a1.79,1.79,0,0,0,1.909,1.93,2.77,2.77,0,0,0,2.691-1.862,2.135,2.135,0,0,0,.114-.643Z" style="fill:#fff"/><path d="M553.173,99.768l1.207,7.082c.456,2.68,1.839,3.614,3.436,3.341,1.775-.3,2.711-1.667,2.261-4.311L558.87,98.8l1.563-.267,1.188,6.976c.626,3.675-1.052,5.513-3.643,5.954-2.45.417-4.535-.67-5.166-4.38l-1.2-7.047Z" style="fill:#fff"/><path d="M564.026,103.782c-.151-.887-.293-1.612-.467-2.312l1.384-.237.331,1.406.037-.006a3.2,3.2,0,0,1,2.564-2.1c1.188-.2,3.156.194,3.658,3.14l.873,5.129-1.561.266L570,104.116c-.235-1.385-.947-2.45-2.421-2.2a2.25,2.25,0,0,0-1.821,1.953,2.278,2.278,0,0,0,.016.746l.88,5.165-1.561.267Z" style="fill:#fff"/><path d="M574.807,97.069a.982.982,0,0,1-1.936.329.966.966,0,0,1,.811-1.142A.941.941,0,0,1,574.807,97.069Zm.134,11.3-1.462-8.59,1.561-.266,1.464,8.59Z" style="fill:#fff"/><path d="M584.366,93.8l1.769,10.384c.13.762.3,1.63.449,2.206l-1.4.239-.325-1.479-.036.006a3.222,3.222,0,0,1-2.641,2.185c-2.077.354-3.974-1.131-4.418-3.74-.5-2.855.971-4.914,3.065-5.272a2.913,2.913,0,0,1,2.816.873l.036-.006-.874-5.13Zm-.283,7.774a2.743,2.743,0,0,0-.183-.644,2.329,2.329,0,0,0-2.562-1.427c-1.615.274-2.332,1.858-2.009,3.758.3,1.739,1.394,3.032,3.08,2.744a2.382,2.382,0,0,0,1.973-2.253,2.76,2.76,0,0,0-.045-.686Z" style="fill:#fff"/><path d="M593.858,105.147l-.308-1.06-.053.009a3.249,3.249,0,0,1-2.41,1.725,2.483,2.483,0,0,1-3.047-2.02c-.353-2.076,1.3-3.527,4.621-4.074l-.03-.178a1.8,1.8,0,0,0-2.291-1.655,4.33,4.33,0,0,0-2.128,1.019l-.53-.969a5.414,5.414,0,0,1,2.691-1.244c2.628-.447,3.571,1.237,3.865,2.958l.547,3.213a12.3,12.3,0,0,0,.493,2.035Zm-.977-4.343c-1.71.254-3.593.885-3.309,2.553A1.4,1.4,0,0,0,591.3,104.6a2.17,2.17,0,0,0,1.832-1.791,1.667,1.667,0,0,0,0-.513Z" style="fill:#fff"/><path d="M602.927,90.636,604.7,101.02c.13.762.3,1.628.45,2.206l-1.4.238-.325-1.479-.035.006a3.226,3.226,0,0,1-2.642,2.186c-2.077.353-3.973-1.132-4.418-3.741-.5-2.855.971-4.915,3.066-5.271a2.913,2.913,0,0,1,2.815.872l.036-.006-.874-5.13Zm-.283,7.773a2.857,2.857,0,0,0-.183-.644,2.332,2.332,0,0,0-2.564-1.427c-1.615.275-2.331,1.858-2.007,3.758.3,1.74,1.393,3.032,3.08,2.745a2.382,2.382,0,0,0,1.971-2.254,2.722,2.722,0,0,0-.044-.687Z" style="fill:#fff"/><path d="M607.849,98.637a2.791,2.791,0,0,0,3.454,2.48,5.721,5.721,0,0,0,2.3-.849l.457,1.074a7.051,7.051,0,0,1-2.767,1.018,4.046,4.046,0,0,1-4.962-3.611c-.441-2.592.737-4.893,3.24-5.319,2.8-.478,3.97,1.863,4.24,3.442a6.347,6.347,0,0,1,.07.737Zm4.388-1.9a2.256,2.256,0,0,0-2.6-2.169,2.626,2.626,0,0,0-1.964,2.947Z" style="fill:#fff"/><path d="M616.066,99.721a4.155,4.155,0,0,0,2.165.27c1.136-.193,1.573-.851,1.452-1.561-.127-.746-.641-1.078-1.868-1.309-1.637-.286-2.51-1.015-2.685-2.044-.236-1.385.688-2.711,2.534-3.025a4.321,4.321,0,0,1,2.2.173l-.2,1.2a3.4,3.4,0,0,0-1.842-.2c-.923.158-1.347.778-1.237,1.417.12.709.689.941,1.88,1.176,1.589.315,2.478.931,2.7,2.208.257,1.509-.733,2.774-2.774,3.121a4.965,4.965,0,0,1-2.514-.174Z" style="fill:#fff"/><path d="M632.613,85.578l1.769,10.384c.13.763.3,1.63.448,2.206l-1.4.239-.324-1.478-.037.006a3.218,3.218,0,0,1-2.64,2.184c-2.077.355-3.975-1.131-4.419-3.74-.5-2.855.971-4.914,3.066-5.272a2.917,2.917,0,0,1,2.816.873l.035-.005-.874-5.13Zm-.283,7.775a2.753,2.753,0,0,0-.184-.645,2.328,2.328,0,0,0-2.562-1.427c-1.615.276-2.331,1.859-2.008,3.758.3,1.739,1.394,3.032,3.079,2.744a2.381,2.381,0,0,0,1.973-2.253,2.761,2.761,0,0,0-.044-.686Z" style="fill:#fff"/><path d="M637.534,93.58a2.792,2.792,0,0,0,3.454,2.48,5.726,5.726,0,0,0,2.3-.849l.457,1.073a7.078,7.078,0,0,1-2.767,1.02,4.047,4.047,0,0,1-4.962-3.612c-.442-2.591.737-4.893,3.24-5.319,2.8-.478,3.97,1.862,4.239,3.441a5.823,5.823,0,0,1,.071.738Zm4.389-1.9a2.257,2.257,0,0,0-2.6-2.17,2.626,2.626,0,0,0-1.963,2.947Z" style="fill:#fff"/><path d="M535.92,124.765a18.13,18.13,0,0,1,2.926-.736,4.983,4.983,0,0,1,3.523.422,3.263,3.263,0,0,1,1.474,2.324,3.567,3.567,0,0,1-.488,2.713,5.025,5.025,0,0,1-3.432,1.937,5.337,5.337,0,0,1-1.261.1l.817,4.792-1.545.264Zm2.528,5.506a5.26,5.26,0,0,0,1.3-.094c1.863-.318,2.846-1.416,2.565-3.068-.27-1.579-1.518-2.152-3.222-1.861a6.556,6.556,0,0,0-1.435.371Z" style="fill:#fff"/><path d="M545.086,122.4l1.561-.265,2.148,12.6-1.563.267Z" style="fill:#fff"/><path d="M556.177,133.479l-.309-1.062-.053.009a3.245,3.245,0,0,1-2.41,1.725,2.483,2.483,0,0,1-3.047-2.019c-.353-2.077,1.3-3.528,4.621-4.075l-.03-.177a1.8,1.8,0,0,0-2.291-1.656,4.334,4.334,0,0,0-2.128,1.019l-.53-.969a5.414,5.414,0,0,1,2.692-1.244c2.627-.447,3.572,1.237,3.865,2.959l.547,3.212a12.273,12.273,0,0,0,.493,2.035Zm-.978-4.346c-1.71.255-3.593.887-3.309,2.555a1.4,1.4,0,0,0,1.727,1.24,2.17,2.17,0,0,0,1.832-1.791,1.667,1.667,0,0,0,0-.513Z" style="fill:#fff"/><path d="M558.905,126.565c-.15-.887-.292-1.611-.467-2.312l1.385-.236.33,1.405.036-.006a3.206,3.206,0,0,1,2.565-2.1c1.189-.2,3.156.194,3.658,3.14l.874,5.13-1.562.266-.844-4.953c-.235-1.383-.946-2.45-2.42-2.2a2.324,2.324,0,0,0-1.805,2.7l.88,5.166-1.562.266Z" style="fill:#fff"/><path d="M569.686,119.854a.981.981,0,0,1-1.935.329.966.966,0,0,1,.81-1.143A.941.941,0,0,1,569.686,119.854Zm.135,11.3-1.464-8.591,1.563-.266,1.463,8.591Z" style="fill:#fff"/><path d="M574.133,130.419l-1.261-7.4-1.207.206-.2-1.19,1.208-.206-.079-.461a3.492,3.492,0,0,1,3.106-4.383,4.364,4.364,0,0,1,2.281.2l-.241,1.265a3.328,3.328,0,0,0-1.895-.189c-1.652.281-1.934,1.516-1.7,2.884l.072.425,4.987-.849,1.464,8.591-1.545.262-1.261-7.4-3.443.587,1.261,7.4Z" style="fill:#fff"/><path d="M589.322,127.5a5.815,5.815,0,0,1-2.383.918,4.14,4.14,0,0,1-5.024-3.656,4.429,4.429,0,0,1,3.838-5.348,5.307,5.307,0,0,1,2.241.075l-.149,1.268a3.679,3.679,0,0,0-1.88-.1,3.286,3.286,0,0,0,1.047,6.471,4.508,4.508,0,0,0,1.844-.753Z" style="fill:#fff"/><path d="M595.959,126.7l-.309-1.061-.052.009a3.246,3.246,0,0,1-2.41,1.725,2.48,2.48,0,0,1-3.046-2.02c-.355-2.076,1.3-3.526,4.62-4.075l-.031-.176a1.8,1.8,0,0,0-2.291-1.656,4.345,4.345,0,0,0-2.127,1.02l-.531-.969a5.4,5.4,0,0,1,2.693-1.244c2.627-.447,3.571,1.236,3.864,2.958l.548,3.213a12.289,12.289,0,0,0,.492,2.034Zm-.978-4.345c-1.71.255-3.592.887-3.308,2.555a1.4,1.4,0,0,0,1.726,1.24,2.167,2.167,0,0,0,1.832-1.792,1.6,1.6,0,0,0,0-.512Z" style="fill:#fff"/><path d="M605.825,124.692a5.824,5.824,0,0,1-2.383.917,4.14,4.14,0,0,1-5.025-3.655,4.429,4.429,0,0,1,3.839-5.348,5.291,5.291,0,0,1,2.241.075l-.15,1.267a3.669,3.669,0,0,0-1.879-.1,3.285,3.285,0,0,0,1.047,6.47,4.492,4.492,0,0,0,1.844-.754Z" style="fill:#fff"/><path d="M607.57,113.4a.982.982,0,0,1-1.935.33.965.965,0,0,1,.809-1.142A.94.94,0,0,1,607.57,113.4Zm.135,11.3-1.464-8.591,1.563-.265,1.463,8.591Z" style="fill:#fff"/><path d="M618.888,118.3a4.26,4.26,0,0,1-3.5,5.29,4.143,4.143,0,0,1-4.871-3.718c-.49-2.876,1.105-4.883,3.483-5.288C616.467,114.167,618.439,115.675,618.888,118.3Zm-6.8,1.249c.32,1.882,1.644,3.117,3.172,2.857,1.49-.254,2.369-1.846,2.04-3.781-.248-1.455-1.29-3.178-3.136-2.863S611.809,117.919,612.087,119.552Zm3.585-8.866-1.733,2.907-1.119.19,1.13-2.8Z" style="fill:#fff"/><path d="M620.531,116.068c-.151-.887-.293-1.612-.468-2.313l1.386-.235.33,1.4.035-.006a3.211,3.211,0,0,1,2.566-2.1c1.188-.2,3.156.194,3.658,3.14l.873,5.13-1.561.266-.844-4.952c-.235-1.384-.947-2.451-2.421-2.2a2.254,2.254,0,0,0-1.822,1.955,2.3,2.3,0,0,0,.017.745l.88,5.165-1.561.267Z" style="fill:#fff"/><path d="M633.251,108.2a16.4,16.4,0,0,1,2.922-.753,4.965,4.965,0,0,1,3.627.387,3.022,3.022,0,0,1,1.328,2.111,3.189,3.189,0,0,1-1.734,3.438l.008.053a3.025,3.025,0,0,1,2.169,2.115,19.267,19.267,0,0,0,1.483,3.126l-1.6.272a15.724,15.724,0,0,1-1.285-2.722c-.637-1.589-1.382-2.1-2.793-1.916l-1.455.247.883,5.183-1.544.263Zm2.473,5.187,1.579-.269c1.65-.281,2.544-1.365,2.311-2.731-.263-1.545-1.5-2.03-3.133-1.769a6.476,6.476,0,0,0-1.5.4Z" style="fill:#fff"/><path d="M651.544,114.821c.15.888.3,1.666.47,2.331l-1.385.237L650.3,116l-.035.006a3.281,3.281,0,0,1-2.569,2.082c-1.348.229-3.091-.241-3.605-3.259l-.856-5.022,1.563-.267.81,4.757c.278,1.634.962,2.649,2.382,2.407a2.292,2.292,0,0,0,1.818-1.77,2.343,2.343,0,0,0,.005-.824l-.9-5.271,1.562-.266Z" style="fill:#fff"/><path d="M653.524,110.813c-.171-1.012-.337-1.878-.527-2.668l1.367-.233.34,1.678.071-.013a2.616,2.616,0,0,1,2.058-2.287,1.693,1.693,0,0,1,.453-.021l.251,1.472a2.362,2.362,0,0,0-.542.038,2.225,2.225,0,0,0-1.753,2.363,4.418,4.418,0,0,0,.054.739l.779,4.58-1.544.263Z" style="fill:#fff"/><path d="M665,114.939l-.308-1.06-.053.009a3.251,3.251,0,0,1-2.41,1.725,2.482,2.482,0,0,1-3.046-2.02c-.355-2.076,1.3-3.527,4.62-4.075l-.031-.177a1.8,1.8,0,0,0-2.291-1.655,4.343,4.343,0,0,0-2.128,1.019l-.53-.969a5.421,5.421,0,0,1,2.693-1.244c2.627-.447,3.571,1.237,3.864,2.959l.548,3.212a12.3,12.3,0,0,0,.492,2.035Zm-.978-4.344c-1.71.255-3.592.886-3.308,2.554a1.4,1.4,0,0,0,1.727,1.241,2.167,2.167,0,0,0,1.831-1.791,1.637,1.637,0,0,0,0-.513Z" style="fill:#fff"/><path d="M666.651,101.691l1.563-.266,2.146,12.6-1.562.266Z" style="fill:#fff"/><path d="M549.009,245.706a18.322,18.322,0,0,1,3.014.109,4.99,4.99,0,0,1,3.266,1.39,3.262,3.262,0,0,1,.767,2.643,3.568,3.568,0,0,1-1.225,2.468,5.018,5.018,0,0,1-3.837.9,5.409,5.409,0,0,1-1.24-.25L549.2,257.8l-1.557-.178Zm.891,5.992a5.235,5.235,0,0,0,1.273.273c1.879.215,3.128-.567,3.318-2.23.182-1.593-.857-2.491-2.574-2.687a6.539,6.539,0,0,0-1.481-.042Z" style="fill:#fff"/><path d="M558.47,245.992l1.574.18-1.454,12.7-1.574-.181Z" style="fill:#fff"/><path d="M566.03,259.725v-1.106l-.053-.006a3.249,3.249,0,0,1-2.795.985,2.482,2.482,0,0,1-2.363-2.789c.239-2.093,2.231-3.026,5.573-2.624l.021-.179a1.8,1.8,0,0,0-1.738-2.23,4.362,4.362,0,0,0-2.328.386l-.239-1.078a5.407,5.407,0,0,1,2.932-.443c2.648.3,3.085,2.183,2.886,3.918l-.37,3.238a12.242,12.242,0,0,0-.1,2.091Zm.274-4.446c-1.714-.232-3.7-.151-3.891,1.531a1.4,1.4,0,0,0,1.313,1.672,2.168,2.168,0,0,0,2.259-1.21,1.637,1.637,0,0,0,.146-.491Z" style="fill:#fff"/><path d="M570.579,253.848c.1-.9.169-1.63.2-2.352l1.4.16L572.1,253.1l.035,0a3.2,3.2,0,0,1,3.049-1.3c1.2.137,2.977,1.065,2.637,4.035l-.592,5.17-1.574-.181.571-4.99c.16-1.4-.226-2.618-1.711-2.788a2.253,2.253,0,0,0-2.295,1.369,2.3,2.3,0,0,0-.191.721l-.595,5.2-1.575-.18Z" style="fill:#fff"/><path d="M581.12,257.355a2.791,2.791,0,0,0,2.626,3.345,5.694,5.694,0,0,0,2.448-.173l.139,1.159a7.048,7.048,0,0,1-2.941.207,4.048,4.048,0,0,1-3.758-4.853c.3-2.611,2.073-4.492,4.6-4.2,2.826.323,3.293,2.9,3.111,4.487a5.876,5.876,0,0,1-.138.728Zm4.745-.6a2.257,2.257,0,0,0-1.89-2.808,2.625,2.625,0,0,0-2.707,2.281Z" style="fill:#fff"/><path d="M588.709,260.688a4.143,4.143,0,0,0,2,.865c1.145.131,1.747-.38,1.829-1.1.086-.751-.314-1.214-1.428-1.776-1.493-.733-2.128-1.675-2.009-2.713.16-1.395,1.417-2.411,3.278-2.2a4.36,4.36,0,0,1,2.068.78l-.525,1.1a3.4,3.4,0,0,0-1.714-.7c-.93-.106-1.51.371-1.584,1.015-.082.716.4,1.1,1.478,1.655,1.437.744,2.12,1.584,1.973,2.872-.175,1.52-1.477,2.459-3.535,2.223a4.966,4.966,0,0,1-2.365-.868Z" style="fill:#fff"/><path d="M601.03,251.66a18.226,18.226,0,0,1,3.014.11,4.988,4.988,0,0,1,3.267,1.389,3.267,3.267,0,0,1,.767,2.643,3.571,3.571,0,0,1-1.226,2.469,5.02,5.02,0,0,1-3.836.9,5.387,5.387,0,0,1-1.24-.25l-.553,4.829-1.556-.178Zm.891,5.992a5.292,5.292,0,0,0,1.274.273c1.878.215,3.127-.567,3.318-2.23.182-1.592-.857-2.491-2.575-2.687a6.53,6.53,0,0,0-1.48-.042Z" style="fill:#fff"/><path d="M613.456,265.152v-1.1l-.053-.006a3.251,3.251,0,0,1-2.8.985,2.483,2.483,0,0,1-2.362-2.79c.239-2.092,2.231-3.025,5.573-2.624l.021-.178a1.8,1.8,0,0,0-1.738-2.23,4.344,4.344,0,0,0-2.328.387l-.239-1.078a5.4,5.4,0,0,1,2.932-.445c2.648.3,3.085,2.184,2.886,3.919l-.371,3.238a12.442,12.442,0,0,0-.094,2.091Zm.273-4.444c-1.713-.233-3.7-.152-3.889,1.529a1.4,1.4,0,0,0,1.312,1.673,2.17,2.17,0,0,0,2.259-1.209,1.645,1.645,0,0,0,.146-.491Z" style="fill:#fff"/><path d="M617.963,259.634c.117-1.02.2-1.9.238-2.71l1.378.158-.141,1.7.071.009a2.615,2.615,0,0,1,2.614-1.622,1.742,1.742,0,0,1,.441.1l-.169,1.485a2.441,2.441,0,0,0-.531-.116,2.225,2.225,0,0,0-2.342,1.781,4.433,4.433,0,0,0-.156.725l-.528,4.616-1.556-.179Z" style="fill:#fff"/><path d="M629.159,266.623a5.828,5.828,0,0,1-2.544.217,4.14,4.14,0,0,1-3.805-4.912,4.428,4.428,0,0,1,5.177-4.065,5.286,5.286,0,0,1,2.131.7l-.5,1.174a3.67,3.67,0,0,0-1.777-.62,3.285,3.285,0,0,0-.8,6.5,4.487,4.487,0,0,0,1.981-.208Z" style="fill:#fff"/><path d="M630.962,267.156l.991-8.658,1.574.181-.99,8.657Zm3.023-10.89a.981.981,0,0,1-1.95-.223.965.965,0,0,1,1.1-.872A.94.94,0,0,1,633.985,256.266Z" style="fill:#fff"/><path d="M639.941,268.184v-1.106l-.054-.006a3.251,3.251,0,0,1-2.795.986,2.484,2.484,0,0,1-2.363-2.79c.24-2.093,2.231-3.026,5.574-2.624l.021-.179a1.8,1.8,0,0,0-1.739-2.23,4.351,4.351,0,0,0-2.327.387l-.239-1.078a5.4,5.4,0,0,1,2.932-.444c2.647.3,3.085,2.183,2.886,3.919l-.371,3.237a12.241,12.241,0,0,0-.094,2.092Zm.273-4.445c-1.713-.233-3.7-.152-3.89,1.53a1.4,1.4,0,0,0,1.312,1.672,2.17,2.17,0,0,0,2.26-1.209,1.645,1.645,0,0,0,.146-.491Z" style="fill:#fff"/><path d="M645.22,255.921l1.574.18-1.453,12.7-1.574-.181Z" style="fill:#fff"/><path d="M649.326,265.162a2.792,2.792,0,0,0,2.626,3.345,5.71,5.71,0,0,0,2.448-.173l.139,1.158a7.05,7.05,0,0,1-2.941.207,4.046,4.046,0,0,1-3.758-4.852c.3-2.613,2.073-4.493,4.595-4.2,2.826.324,3.294,2.9,3.111,4.488a6.047,6.047,0,0,1-.138.727Zm4.745-.6a2.256,2.256,0,0,0-1.89-2.807,2.624,2.624,0,0,0-2.708,2.281Z" style="fill:#fff"/><path d="M656.915,268.5a4.142,4.142,0,0,0,2,.864c1.144.131,1.747-.38,1.829-1.095.086-.752-.314-1.215-1.428-1.777-1.493-.732-2.128-1.675-2.009-2.713.159-1.395,1.417-2.411,3.278-2.2a4.37,4.37,0,0,1,2.068.78l-.526,1.1a3.388,3.388,0,0,0-1.713-.7c-.93-.107-1.51.37-1.584,1.015-.082.714.4,1.1,1.478,1.655,1.437.744,2.12,1.584,1.973,2.872-.175,1.519-1.477,2.458-3.535,2.223a4.977,4.977,0,0,1-2.365-.869Z" style="fill:#fff"/></g></g></svg>