<svg class="animate__animated" xmlns="http://www.w3.org/2000/svg" viewBox="0 0 734 353.2">
  <g>
    <g class="hoverable" onclick="returnToGroups();">
      <circle cx="127.5" cy="207.7" r="127" style="fill: none;stroke: #aab8bd;stroke-miterlimit: 10"/>
      <circle cx="127.7" cy="207.9" r="105" style="fill: #bdc4c6"/>
      <g>
        <path d="M99.2,212.8a14.7,14.7,0,0,1-4.6.8,7.4,7.4,0,0,1-5.5-1.9,7,7,0,0,1-2-5.2c0-4.6,3.2-7.5,7.9-7.5a9.8,9.8,0,0,1,3.8.7l-.6,2.1a8.2,8.2,0,0,0-3.2-.6c-3.1,0-5.2,1.8-5.2,5.1s2,5.2,5,5.2a4.1,4.1,0,0,0,1.9-.3v-3.6H94.2v-2h5Z" style="fill: #112025"/>
        <path d="M109.9,207.1h-5.4v4.2h6v2.2h-8.6V199.2h8.3v2.1h-5.7V205h5.4Z" style="fill: #112025"/>
        <path d="M112.7,210.6a7.5,7.5,0,0,0,3.5.9c1.7,0,2.6-.8,2.6-1.9s-.7-1.7-2.5-2.4-3.9-2.1-3.9-4.1,2-4.1,5-4.1a7.7,7.7,0,0,1,3.5.7l-.7,2.1a5.6,5.6,0,0,0-2.8-.7c-1.6,0-2.4.9-2.4,1.7s.9,1.6,2.8,2.4,3.6,2.1,3.6,4.2-1.7,4.3-5.4,4.3a9.2,9.2,0,0,1-3.8-.9Z" style="fill: #112025"/>
        <path d="M126.5,201.4h-4v-2.2h10.7v2.2h-4.1v12.1h-2.6Z" style="fill: #112025"/>
        <path d="M137.5,199.2v14.3h-2.6V199.2Z" style="fill: #112025"/>
        <path d="M153.2,206.2c0,4.8-2.9,7.5-6.9,7.5s-6.5-3.1-6.5-7.3,2.7-7.4,6.7-7.4S153.2,202.1,153.2,206.2Zm-10.7.2c0,2.9,1.5,5.2,4,5.2s3.9-2.3,3.9-5.3-1.3-5.2-3.9-5.2S142.5,203.4,142.5,206.4Zm7.4-10.6-2.7,2.6h-2.1l1.9-2.6Z" style="fill: #112025"/>
        <path d="M155.4,213.5V199.2h3l3.6,6.1a36.7,36.7,0,0,1,2.5,4.8h0c-.1-1.9-.2-3.8-.2-5.9v-5h2.4v14.3H164l-3.7-6.3c-.9-1.6-1.9-3.3-2.6-4.9h0c.1,1.8.1,3.7.1,6.1v5.1Z" style="fill: #112025"/>
      </g>
    </g>
    <g class="hoverable" onclick="returnToTypesInstrument();">
      <path d="M452.4,288,281.2,246.2a159.8,159.8,0,0,0,4.5-37.9,158.2,158.2,0,0,0-8.9-52.5L443.1,97.2A335.5,335.5,0,0,1,462,208.3,332.4,332.4,0,0,1,452.4,288Z" style="fill: #29abe2"/>
      <path d="M439.3,284.3,275.1,244.1a154,154,0,0,0-4.2-86.6l159.4-56.2a321.3,321.3,0,0,1,18.1,106.6A326.5,326.5,0,0,1,439.3,284.3Z" style="fill: #84266a"/>
      <g>
        <path d="M307,170.1a34.6,34.6,0,0,1,3.9-.3,6.3,6.3,0,0,1,4.3,1.3,4.2,4.2,0,0,1,1.4,3.3,4.5,4.5,0,0,1-1.2,3.3,6.6,6.6,0,0,1-4.7,1.7l-1.7-.2v6.2h-2Zm2,7.5,1.7.2c2.4,0,3.9-1.2,3.9-3.4s-1.5-3-3.7-3l-1.9.2Z" style="fill: #fff"/>
        <path d="M319.1,169.1h2v16.3h-2Z" style="fill: #fff"/>
        <path d="M330.7,185.4l-.2-1.4h0a4.3,4.3,0,0,1-3.4,1.7,3.1,3.1,0,0,1-3.4-3.2c0-2.7,2.3-4.2,6.6-4.1v-.3a2.2,2.2,0,0,0-2.5-2.5,5.7,5.7,0,0,0-2.9.8l-.4-1.4a6.6,6.6,0,0,1,3.6-.9c3.4,0,4.2,2.3,4.2,4.5v4.2a19.7,19.7,0,0,0,.2,2.6Zm-.3-5.6c-2.2-.1-4.7.3-4.7,2.5a1.8,1.8,0,0,0,1.9,1.9,2.8,2.8,0,0,0,2.7-1.9c0-.2.1-.4.1-.6Z" style="fill: #fff"/>
        <path d="M335.6,177.3a28.1,28.1,0,0,0-.1-3h1.8v1.8h.1a4,4,0,0,1,3.7-2c1.5,0,3.9.9,3.9,4.7v6.6h-2V179c0-1.8-.7-3.3-2.6-3.3a3.3,3.3,0,0,0-2.9,3v6.7h-2Z" style="fill: #fff"/>
        <path d="M350.6,171.2c.1.7-.5,1.2-1.3,1.2a1.2,1.2,0,0,1-1.2-1.2,1.3,1.3,0,0,1,1.3-1.3A1.2,1.2,0,0,1,350.6,171.2Zm-2.2,14.2V174.3h2v11.1Z" style="fill: #fff"/>
        <path d="M354,185.4v-9.5h-1.6v-1.6H354v-.6a4.4,4.4,0,0,1,4.8-4.8,5.2,5.2,0,0,1,2.8.7l-.5,1.5a5,5,0,0,0-2.4-.6c-2.1,0-2.7,1.5-2.7,3.3v.5h6.4v11.1h-2v-9.5H356v9.5Z" style="fill: #fff"/>
        <path d="M373.7,185a6.9,6.9,0,0,1-3.2.7c-3.3,0-5.5-2.3-5.5-5.7a5.6,5.6,0,0,1,6-5.9,6.5,6.5,0,0,1,2.8.6l-.5,1.5a4.4,4.4,0,0,0-2.3-.5,4.2,4.2,0,0,0-.1,8.4,5.4,5.4,0,0,0,2.5-.6Z" style="fill: #fff"/>
        <path d="M382.3,185.4l-.2-1.4H382a4,4,0,0,1-3.4,1.7,3.2,3.2,0,0,1-3.4-3.2c0-2.7,2.4-4.2,6.7-4.1v-.3a2.2,2.2,0,0,0-2.5-2.5,5.5,5.5,0,0,0-2.9.8L376,175a7,7,0,0,1,3.7-.9c3.4,0,4.2,2.3,4.2,4.5v4.2a19.7,19.7,0,0,0,.2,2.6Zm-.3-5.6c-2.3-.1-4.8.3-4.8,2.5a1.8,1.8,0,0,0,2,1.9,2.6,2.6,0,0,0,2.6-1.9,1.4,1.4,0,0,0,.2-.6Z" style="fill: #fff"/>
        <path d="M395.1,185a6.9,6.9,0,0,1-3.2.7c-3.3,0-5.5-2.3-5.5-5.7a5.6,5.6,0,0,1,6-5.9,6.9,6.9,0,0,1,2.8.6l-.5,1.5a4.4,4.4,0,0,0-2.3-.5,4.2,4.2,0,0,0-.1,8.4,5.4,5.4,0,0,0,2.5-.6Z" style="fill: #fff"/>
        <path d="M399.7,171.2c.1.7-.4,1.2-1.3,1.2a1.2,1.2,0,0,1-1.2-1.2,1.3,1.3,0,0,1,1.3-1.3A1.2,1.2,0,0,1,399.7,171.2Zm-2.2,14.2V174.3h2v11.1Z" style="fill: #fff"/>
        <path d="M412.9,179.8c0,4.1-2.8,5.9-5.5,5.9s-5.3-2.2-5.3-5.7,2.4-5.9,5.5-5.9S412.9,176.4,412.9,179.8Zm-8.8.1c0,2.4,1.4,4.3,3.4,4.3s3.4-1.8,3.4-4.3-1-4.3-3.4-4.3S404.1,177.8,404.1,179.9Zm6.4-10.4-2.8,3.3h-1.4l2-3.3Z" style="fill: #fff"/>
        <path d="M415.5,177.3a28.1,28.1,0,0,0-.1-3h1.8v1.8h.1a4,4,0,0,1,3.6-2c1.6,0,4,.9,4,4.7v6.6h-2.1V179c0-1.8-.6-3.3-2.5-3.3a2.8,2.8,0,0,0-2.7,2.1,2.9,2.9,0,0,0-.2.9v6.7h-2Z" style="fill: #fff"/>
        <path d="M298,212.5a9.4,9.4,0,0,1-4.1.8c-4.4,0-7.7-2.8-7.7-7.9a7.7,7.7,0,0,1,8.1-8.1,8,8,0,0,1,3.7.7l-.5,1.6a6.6,6.6,0,0,0-3.1-.6c-3.6,0-6.1,2.3-6.1,6.4s2.2,6.2,6,6.2a8.1,8.1,0,0,0,3.3-.7Z" style="fill: #fff"/>
        <path d="M310.2,207.4c0,4.1-2.8,5.9-5.5,5.9s-5.3-2.2-5.3-5.7,2.4-5.9,5.5-5.9S310.2,204,310.2,207.4Zm-8.8.1c0,2.4,1.4,4.3,3.4,4.3s3.4-1.8,3.4-4.3-1-4.3-3.4-4.3S301.4,205.4,301.4,207.5Z" style="fill: #fff"/>
        <path d="M312.8,204.9a28.1,28.1,0,0,0-.1-3h1.8v1.8h0a3.8,3.8,0,0,1,3.5-2,3.4,3.4,0,0,1,3.2,2.2h0a6.4,6.4,0,0,1,1.3-1.5,3.6,3.6,0,0,1,2.4-.7c1.5,0,3.7.9,3.7,4.8V213h-2v-6.3c0-2.1-.8-3.4-2.4-3.4a2.6,2.6,0,0,0-2.4,1.9,2.5,2.5,0,0,0-.2,1V213h-1.9v-6.6c0-1.8-.8-3.1-2.4-3.1a2.8,2.8,0,0,0-2.5,2,3.4,3.4,0,0,0-.1,1V213h-2Z" style="fill: #fff"/>
        <path d="M332,205.5c0-1.4-.1-2.5-.1-3.6h1.8v1.9h0a4.6,4.6,0,0,1,4-2.1c2.7,0,4.7,2.2,4.7,5.6s-2.4,6-5.1,6a4,4,0,0,1-3.4-1.8h0v6.1h-2Zm2,3a1.9,1.9,0,0,0,.1.8,3,3,0,0,0,3,2.4c2.1,0,3.4-1.7,3.4-4.3s-1.2-4.1-3.3-4.1a3.3,3.3,0,0,0-3.1,2.5,1.9,1.9,0,0,0-.1.8Z" style="fill: #fff"/>
        <path d="M345.1,196.7h2V213h-2Z" style="fill: #fff"/>
        <path d="M351.6,207.8c.1,2.8,1.8,3.9,3.8,3.9a6.3,6.3,0,0,0,3.1-.6l.4,1.5a10.2,10.2,0,0,1-3.8.7c-3.4,0-5.4-2.3-5.4-5.6s2-6,5.2-6,4.6,3.2,4.6,5.2c0,.4-.1.7-.1.9Zm5.9-1.4a2.8,2.8,0,0,0-2.8-3.3c-2,0-2.9,1.9-3.1,3.3Z" style="fill: #fff"/>
        <path d="M362,204.9a28.1,28.1,0,0,0-.1-3h1.8v1.8h0a3.9,3.9,0,0,1,3.5-2,3.3,3.3,0,0,1,3.2,2.2h0a6.4,6.4,0,0,1,1.3-1.5,3.6,3.6,0,0,1,2.4-.7c1.5,0,3.7.9,3.7,4.8V213h-2v-6.3c0-2.1-.8-3.4-2.4-3.4a2.8,2.8,0,0,0-2.4,1.9,2.5,2.5,0,0,0-.2,1V213H369v-6.6c0-1.8-.8-3.1-2.4-3.1a2.9,2.9,0,0,0-2.5,2,3.4,3.4,0,0,0-.1,1V213h-2Z" style="fill: #fff"/>
        <path d="M382.3,207.8c.1,2.8,1.8,3.9,3.8,3.9a6,6,0,0,0,3.1-.6l.4,1.5a10,10,0,0,1-3.7.7c-3.5,0-5.5-2.3-5.5-5.6s2-6,5.2-6,4.6,3.2,4.6,5.2a2.2,2.2,0,0,1-.1.9Zm5.9-1.4a2.8,2.8,0,0,0-2.8-3.3c-2,0-2.9,1.9-3.1,3.3Z" style="fill: #fff"/>
        <path d="M392.7,204.9a28.1,28.1,0,0,0-.1-3h1.8v1.8h.1a4,4,0,0,1,3.7-2c1.5,0,3.9.9,3.9,4.7V213h-2v-6.4c0-1.8-.7-3.3-2.6-3.3a2.8,2.8,0,0,0-2.7,2.1,2.9,2.9,0,0,0-.2.9V213h-2Z" style="fill: #fff"/>
        <path d="M407.8,198.7v3.2h2.9v1.6h-2.9v6c0,1.3.4,2.1,1.5,2.1h1.2V213a4.2,4.2,0,0,1-1.8.3,2.8,2.8,0,0,1-2.2-.9,4,4,0,0,1-.8-2.9v-6h-1.7v-1.6h1.7v-2.7Z" style="fill: #fff"/>
        <path d="M419.2,213l-.2-1.4h-.1a4,4,0,0,1-3.4,1.7,3.2,3.2,0,0,1-3.4-3.2c0-2.7,2.4-4.2,6.7-4.1v-.3a2.2,2.2,0,0,0-2.5-2.5,5.5,5.5,0,0,0-2.9.8l-.5-1.4a7,7,0,0,1,3.7-.9c3.4,0,4.2,2.3,4.2,4.5v4.2a19.7,19.7,0,0,0,.2,2.6Zm-.3-5.6c-2.2-.1-4.8.3-4.8,2.5a1.8,1.8,0,0,0,2,1.9,2.6,2.6,0,0,0,2.6-1.9,1.4,1.4,0,0,0,.2-.6Z" style="fill: #fff"/>
        <path d="M424.1,205.4c0-1.3,0-2.5-.1-3.5h1.8v2.2h.1a3.3,3.3,0,0,1,3.1-2.4h.6v1.9h-.7a2.7,2.7,0,0,0-2.7,2.6,2.5,2.5,0,0,0-.1.9V213h-2Z" style="fill: #fff"/>
        <path d="M433.9,198.8c.1.7-.4,1.2-1.2,1.2a1.2,1.2,0,0,1-1.3-1.2,1.3,1.3,0,0,1,1.3-1.3A1.2,1.2,0,0,1,433.9,198.8ZM431.7,213V201.9h2V213Z" style="fill: #fff"/>
        <path d="M443.2,213v-1.4H443a4,4,0,0,1-3.4,1.7,3.2,3.2,0,0,1-3.4-3.2c0-2.7,2.4-4.2,6.7-4.1v-.3a2.3,2.3,0,0,0-2.5-2.5,5.2,5.2,0,0,0-2.9.8l-.5-1.4a7,7,0,0,1,3.7-.9c3.4,0,4.2,2.3,4.2,4.5v4.2a10.6,10.6,0,0,0,.2,2.6Zm-.3-5.6c-2.2-.1-4.7.3-4.7,2.5a1.8,1.8,0,0,0,1.9,1.9,2.7,2.7,0,0,0,2.7-1.9,1.3,1.3,0,0,0,.1-.6Z" style="fill: #fff"/>
      </g>
    </g>
    <g class="hoverable" onclick="showInstrument('gestion', 'planificacion_complementaria', 'unidades_de_planificacion_rural');">
      <path d="M493.3,186.9v-.7a364.2,364.2,0,0,0-21.5-104L697.3,0a607.8,607.8,0,0,1,35.6,172.2v1.2Z" style="fill: #84266a"/>
      <g>
        <path d="M553.2,99.8l1.2,7c.4,2.7,1.8,3.7,3.4,3.4s2.7-1.7,2.3-4.3l-1.2-7.1,1.5-.3,1.2,7c.6,3.7-1,5.5-3.6,6s-4.6-.7-5.2-4.4l-1.2-7.1Z" style="fill: #fff"/>
        <path d="M564,103.8c-.1-.9-.3-1.6-.4-2.3l1.3-.3.4,1.4h0a3.4,3.4,0,0,1,2.6-2.1c1.2-.2,3.1.2,3.6,3.2l.9,5.1-1.6.3-.8-5c-.2-1.4-.9-2.4-2.4-2.2a2.3,2.3,0,0,0-1.8,2,.8.8,0,0,0,0,.7l.9,5.2-1.6.2Z" style="fill: #fff"/>
        <path d="M574.8,97.1a.9.9,0,0,1-.8,1.1.9.9,0,0,1-1.1-.8,1,1,0,0,1,1.9-.3Zm.1,11.3-1.4-8.6,1.5-.3,1.5,8.6Z" style="fill: #fff"/>
        <path d="M584.4,93.8l1.7,10.4c.2.7.3,1.6.5,2.2l-1.4.2-.3-1.5h-.1a3.1,3.1,0,0,1-2.6,2.1c-2.1.4-4-1.1-4.4-3.7s.9-4.9,3-5.3a3,3,0,0,1,2.8.9h.1l-.9-5.1Zm-.3,7.8c-.1-.2-.1-.5-.2-.7a2.4,2.4,0,0,0-2.6-1.4c-1.6.3-2.3,1.9-2,3.8s1.4,3,3.1,2.7a2.4,2.4,0,0,0,2-2.3,1.3,1.3,0,0,0-.1-.6Z" style="fill: #fff"/>
        <path d="M593.9,105.1l-.4-1h0a3.2,3.2,0,0,1-2.4,1.7,2.6,2.6,0,0,1-3.1-2c-.3-2.1,1.3-3.5,4.7-4.1v-.2a1.8,1.8,0,0,0-2.3-1.6,3.8,3.8,0,0,0-2.1,1l-.5-1a6.1,6.1,0,0,1,2.7-1.2c2.6-.4,3.5,1.2,3.8,3l.6,3.2a11.7,11.7,0,0,0,.5,2Zm-1-4.3c-1.7.3-3.6.9-3.3,2.6a1.4,1.4,0,0,0,1.7,1.2,2.1,2.1,0,0,0,1.8-1.8.5.5,0,0,0,0-.5Z" style="fill: #fff"/>
        <path d="M602.9,90.6l1.8,10.4c.1.8.3,1.6.4,2.2l-1.4.3-.3-1.5h0a3.5,3.5,0,0,1-2.7,2.2c-2,.3-3.9-1.2-4.4-3.8s1-4.9,3.1-5.2a2.8,2.8,0,0,1,2.8.8h0l-.8-5.1Zm-.3,7.8c0-.2-.1-.4-.1-.6a2.4,2.4,0,0,0-2.6-1.5c-1.6.3-2.3,1.9-2,3.8s1.4,3,3.1,2.7a2.2,2.2,0,0,0,1.9-2.2c.1-.2,0-.5,0-.7Z" style="fill: #fff"/>
        <path d="M607.8,98.6a2.8,2.8,0,0,0,3.5,2.5,6.7,6.7,0,0,0,2.3-.8l.5,1a6.9,6.9,0,0,1-2.8,1.1,4.2,4.2,0,0,1-5-3.7c-.4-2.5.8-4.8,3.3-5.3s3.9,1.9,4.2,3.5a2,2,0,0,1,.1.7Zm4.4-1.9a2.2,2.2,0,0,0-2.6-2.1c-1.5.2-2,1.8-1.9,2.9Z" style="fill: #fff"/>
        <path d="M616.1,99.7a4.7,4.7,0,0,0,2.1.3c1.2-.2,1.6-.9,1.5-1.6s-.7-1-1.9-1.3-2.5-1-2.7-2,.7-2.7,2.6-3a4,4,0,0,1,2.2.1l-.2,1.2a5,5,0,0,0-1.9-.2c-.9.2-1.3.8-1.2,1.4s.7,1,1.9,1.2,2.4,1,2.7,2.2-.8,2.8-2.8,3.2a6.5,6.5,0,0,1-2.5-.2Z" style="fill: #fff"/>
        <path d="M632.6,85.6,634.4,96c.1.7.3,1.6.4,2.2l-1.4.2-.3-1.5h0a3.2,3.2,0,0,1-2.7,2.2c-2.1.4-3.9-1.1-4.4-3.7s1-4.9,3.1-5.3a3,3,0,0,1,2.8.9h0l-.8-5.2Zm-.3,7.8a1.9,1.9,0,0,0-.2-.7,2.3,2.3,0,0,0-2.5-1.4c-1.6.3-2.3,1.8-2,3.7s1.4,3.1,3.1,2.8a2.4,2.4,0,0,0,1.9-2.3v-.7Z" style="fill: #fff"/>
        <path d="M637.5,93.6a2.9,2.9,0,0,0,3.5,2.5,5.5,5.5,0,0,0,2.3-.9l.4,1.1a7.3,7.3,0,0,1-2.7,1c-2.7.5-4.5-1-5-3.6s.8-4.9,3.3-5.3,3.9,1.8,4.2,3.4a2.5,2.5,0,0,1,.1.8Zm4.4-1.9a2.2,2.2,0,0,0-2.6-2.2,2.6,2.6,0,0,0-1.9,3Z" style="fill: #fff"/>
        <path d="M535.9,124.8a13,13,0,0,1,2.9-.8,5,5,0,0,1,3.6.5,2.9,2.9,0,0,1,1.4,2.3,3.4,3.4,0,0,1-.4,2.7,5.1,5.1,0,0,1-3.5,1.9,2.6,2.6,0,0,1-1.2.1l.8,4.8-1.6.3Zm2.5,5.5h1.3c1.9-.3,2.9-1.4,2.6-3.1s-1.5-2.1-3.2-1.9l-1.4.4Z" style="fill: #fff"/>
        <path d="M545.1,122.4l1.5-.3,2.2,12.6-1.6.3Z" style="fill: #fff"/>
        <path d="M556.2,133.5l-.3-1.1h-.1a3.3,3.3,0,0,1-2.4,1.8,2.5,2.5,0,0,1-3-2.1c-.4-2,1.3-3.5,4.6-4v-.2a1.8,1.8,0,0,0-2.2-1.7,7.4,7.4,0,0,0-2.2,1l-.5-.9a5.3,5.3,0,0,1,2.7-1.3c2.6-.4,3.6,1.3,3.9,3l.5,3.2a9.7,9.7,0,0,0,.5,2Zm-1-4.4c-1.7.3-3.6.9-3.3,2.6a1.3,1.3,0,0,0,1.7,1.2,2.1,2.1,0,0,0,1.8-1.8.7.7,0,0,0,.1-.5Z" style="fill: #fff"/>
        <path d="M558.9,126.6a13.2,13.2,0,0,0-.5-2.3l1.4-.3.4,1.4h0a3.2,3.2,0,0,1,2.6-2.1c1.1-.2,3.1.2,3.6,3.2l.9,5.1-1.6.3-.8-5c-.3-1.4-1-2.5-2.4-2.2a2.3,2.3,0,0,0-1.9,2,2,2,0,0,0,.1.7l.8,5.2-1.5.2Z" style="fill: #fff"/>
        <path d="M569.7,119.9a.9.9,0,0,1-.8,1.1.9.9,0,0,1-1.1-.8,1,1,0,0,1,.8-1.2A1,1,0,0,1,569.7,119.9Zm.1,11.3-1.4-8.6,1.5-.3,1.5,8.6Z" style="fill: #fff"/>
        <path d="M574.1,130.4l-1.2-7.4-1.2.2-.2-1.2,1.2-.2v-.4a4,4,0,0,1,5.4-4.2l-.3,1.2a2.9,2.9,0,0,0-1.9-.1c-1.6.2-1.9,1.5-1.7,2.8v.5l5-.9,1.5,8.6-1.6.3-1.2-7.4-3.5.6,1.3,7.4Z" style="fill: #fff"/>
        <path d="M589.3,127.5a5.1,5.1,0,0,1-2.4.9c-2.6.5-4.5-1-5-3.6a4.5,4.5,0,0,1,3.9-5.4,7.3,7.3,0,0,1,2.2.1l-.2,1.3a2.6,2.6,0,0,0-1.8-.1,3.2,3.2,0,0,0,1,6.4,5.8,5.8,0,0,0,1.9-.7Z" style="fill: #fff"/>
        <path d="M596,126.7l-.3-1.1h-.1a3.3,3.3,0,0,1-2.4,1.8,2.6,2.6,0,0,1-3.1-2c-.3-2.1,1.3-3.6,4.7-4.1v-.2a1.8,1.8,0,0,0-2.3-1.7,4.7,4.7,0,0,0-2.1,1.1l-.5-1a4.5,4.5,0,0,1,2.7-1.2c2.6-.5,3.5,1.2,3.8,2.9l.6,3.2a10.8,10.8,0,0,0,.5,2.1Zm-1-4.3c-1.7.2-3.6.8-3.3,2.5a1.4,1.4,0,0,0,1.7,1.3,2.2,2.2,0,0,0,1.8-1.8.6.6,0,0,0,0-.6Z" style="fill: #fff"/>
        <path d="M605.8,124.7a5.1,5.1,0,0,1-2.4.9c-2.5.5-4.5-1-5-3.6a4.5,4.5,0,0,1,3.9-5.4,3.9,3.9,0,0,1,2.2.1l-.2,1.2a4.8,4.8,0,0,0-1.8-.1,3.1,3.1,0,0,0-2.5,3.8,2.9,2.9,0,0,0,3.5,2.7,5.8,5.8,0,0,0,1.9-.7Z" style="fill: #fff"/>
        <path d="M607.6,113.4a.9.9,0,0,1-.9,1.1.9.9,0,0,1-1.1-.8,1,1,0,0,1,.8-1.1A1,1,0,0,1,607.6,113.4Zm.1,11.3-1.5-8.6,1.6-.3,1.5,8.6Z" style="fill: #fff"/>
        <path d="M618.9,118.3c.5,3.2-1.4,4.9-3.5,5.3a4.2,4.2,0,0,1-4.9-3.7c-.5-2.9,1.1-4.9,3.5-5.3S618.4,115.7,618.9,118.3Zm-6.8,1.3c.3,1.8,1.6,3.1,3.2,2.8s2.3-1.8,2-3.8-1.3-3.1-3.1-2.8S611.8,117.9,612.1,119.6Zm3.6-8.9-1.8,2.9-1.1.2L614,111Z" style="fill: #fff"/>
        <path d="M620.5,116.1c-.1-.9-.3-1.6-.4-2.3l1.3-.3.4,1.4h0a3.4,3.4,0,0,1,2.6-2.1c1.2-.2,3.1.2,3.6,3.2l.9,5.1-1.6.3-.8-5c-.2-1.4-.9-2.4-2.4-2.2a2.2,2.2,0,0,0-1.8,2,.8.8,0,0,0,0,.7l.9,5.2-1.6.2Z" style="fill: #fff"/>
        <path d="M633.3,108.2a14.8,14.8,0,0,1,2.9-.8,5.7,5.7,0,0,1,3.6.4,3,3,0,0,1,1.3,2.1,3.2,3.2,0,0,1-1.7,3.5h0a3.2,3.2,0,0,1,2.2,2.2,10.9,10.9,0,0,0,1.5,3.1l-1.6.3a15.4,15.4,0,0,1-1.3-2.8c-.7-1.6-1.4-2.1-2.8-1.9l-1.5.3.9,5.1-1.5.3Zm2.4,5.2,1.6-.3c1.7-.3,2.5-1.3,2.3-2.7s-1.5-2-3.1-1.8a4.8,4.8,0,0,0-1.5.4Z" style="fill: #fff"/>
        <path d="M651.5,114.8c.2.9.3,1.7.5,2.4l-1.4.2-.3-1.4h0a3.4,3.4,0,0,1-2.6,2.1c-1.4.2-3.1-.3-3.6-3.3l-.9-5,1.6-.3.8,4.8c.3,1.6,1,2.6,2.4,2.4a2.4,2.4,0,0,0,1.8-1.8,1.1,1.1,0,0,0,0-.8l-.9-5.3,1.6-.2Z" style="fill: #fff"/>
        <path d="M653.5,110.8a18.6,18.6,0,0,0-.5-2.7l1.4-.2.3,1.7h.1a2.7,2.7,0,0,1,2-2.3h.5l.2,1.4H657a2.3,2.3,0,0,0-1.8,2.3c0,.3.1.5.1.8l.8,4.6-1.6.2Z" style="fill: #fff"/>
        <path d="M665,114.9l-.3-1h-.1a3.1,3.1,0,0,1-2.4,1.7,2.5,2.5,0,0,1-3-2c-.4-2.1,1.3-3.5,4.6-4.1v-.2a1.8,1.8,0,0,0-2.3-1.6,3.8,3.8,0,0,0-2.1,1l-.6-1a6.7,6.7,0,0,1,2.7-1.2c2.6-.5,3.6,1.2,3.9,3l.5,3.2c.2.7.3,1.4.5,2Zm-1-4.3c-1.7.2-3.6.9-3.3,2.5a1.4,1.4,0,0,0,1.7,1.3,2.1,2.1,0,0,0,1.9-1.8v-.5Z" style="fill: #fff"/>
        <path d="M666.7,101.7l1.5-.3,2.2,12.6-1.6.3Z" style="fill: #fff"/>
      </g>
    </g>
    <g class="hoverable" onclick="showInstrument('gestion', 'planificacion_complementaria', 'planes_parciales');">
      <path d="M716.4,353.2l-233-57.5A365.6,365.6,0,0,0,494,208.3c0-6-.2-12.2-.5-18.3l239.7-11.8c.5,10,.8,20.1.8,30.1A608.1,608.1,0,0,1,716.4,353.2Z" style="fill: #84266a"/>
      <g>
        <path d="M549,245.7h3a5.3,5.3,0,0,1,3.3,1.4,3.4,3.4,0,0,1,.8,2.6,3.8,3.8,0,0,1-1.3,2.5,4.8,4.8,0,0,1-3.8.9l-1.2-.2-.6,4.8-1.6-.2Zm.9,6,1.3.3c1.9.2,3.1-.6,3.3-2.3s-.9-2.4-2.6-2.6h-1.5Z" style="fill: #fff"/>
        <path d="M558.5,246l1.5.2-1.4,12.7-1.6-.2Z" style="fill: #fff"/>
        <path d="M566,259.7v-1.1h0a3.6,3.6,0,0,1-2.8,1,2.5,2.5,0,0,1-2.4-2.8c.3-2.1,2.2-3,5.6-2.6V254a1.8,1.8,0,0,0-1.7-2.2,4,4,0,0,0-2.4.4l-.2-1.1a5.4,5.4,0,0,1,2.9-.5c2.7.3,3.1,2.2,2.9,4l-.3,3.2a7.6,7.6,0,0,0-.1,2.1Zm.3-4.4c-1.7-.3-3.7-.2-3.9,1.5a1.4,1.4,0,0,0,1.3,1.7,2.3,2.3,0,0,0,2.3-1.2,1.1,1.1,0,0,0,.1-.5Z" style="fill: #fff"/>
        <path d="M570.6,253.8c.1-.8.1-1.6.2-2.3l1.4.2v1.4h0a3.2,3.2,0,0,1,3.1-1.3c1.2.1,3,1.1,2.6,4l-.6,5.2-1.5-.2.5-5c.2-1.4-.2-2.6-1.7-2.8a2.4,2.4,0,0,0-2.3,1.4c-.1.2-.1.5-.2.7l-.6,5.2h-1.5Z" style="fill: #fff"/>
        <path d="M581.1,257.4a2.8,2.8,0,0,0,2.6,3.3,5.9,5.9,0,0,0,2.5-.2v1.2a5.9,5.9,0,0,1-2.9.2c-2.7-.3-4.1-2.2-3.8-4.9s2.1-4.5,4.6-4.2,3.3,2.9,3.1,4.5-.1.6-.1.8Zm4.8-.6a2.5,2.5,0,0,0-1.9-2.9,2.7,2.7,0,0,0-2.7,2.3Z" style="fill: #fff"/>
        <path d="M588.7,260.7a4.6,4.6,0,0,0,2,.9c1.2.1,1.8-.4,1.8-1.1s-.3-1.3-1.4-1.8-2.1-1.7-2-2.7,1.4-2.4,3.3-2.2a5.2,5.2,0,0,1,2.1.7l-.6,1.1a3.9,3.9,0,0,0-1.7-.7,1.3,1.3,0,0,0-1.6,1.1c-.1.7.4,1.1,1.5,1.6s2.1,1.6,2,2.9-1.5,2.4-3.6,2.2a4,4,0,0,1-2.3-.9Z" style="fill: #fff"/>
        <path d="M601,251.7a10.4,10.4,0,0,1,3,.1,4.3,4.3,0,0,1,3.3,1.4,3.2,3.2,0,0,1,.8,2.6,4,4,0,0,1-1.2,2.5,5.6,5.6,0,0,1-3.9.9,4.2,4.2,0,0,1-1.2-.3l-.6,4.9-1.5-.2Zm.9,6,1.3.2c1.9.2,3.1-.5,3.3-2.2s-.8-2.5-2.6-2.7h-1.4Z" style="fill: #fff"/>
        <path d="M613.5,265.2V264h-.1a3,3,0,0,1-2.8,1,2.6,2.6,0,0,1-2.4-2.8c.3-2.1,2.3-3,5.6-2.6v-.2a1.7,1.7,0,0,0-1.7-2.2,4.3,4.3,0,0,0-2.3.4l-.3-1.1a4.9,4.9,0,0,1,3-.4c2.6.3,3.1,2.2,2.9,3.9l-.4,3.2a7.7,7.7,0,0,0-.1,2.1Zm.2-4.5c-1.7-.2-3.7-.1-3.9,1.5a1.4,1.4,0,0,0,1.4,1.7,2.1,2.1,0,0,0,2.2-1.2l.2-.5Z" style="fill: #fff"/>
        <path d="M618,259.6c.1-1,.2-1.9.2-2.7l1.4.2-.2,1.7h.1a2.7,2.7,0,0,1,2.6-1.6h.5l-.2,1.5-.5-.2a2.4,2.4,0,0,0-2.4,1.8c0,.2-.1.5-.1.8l-.6,4.6-1.5-.2Z" style="fill: #fff"/>
        <path d="M629.2,266.6a4.9,4.9,0,0,1-2.6.2,4.1,4.1,0,0,1-3.8-4.9,4.4,4.4,0,0,1,5.2-4,4.7,4.7,0,0,1,2.1.7l-.5,1.1a4.1,4.1,0,0,0-1.8-.6,3.3,3.3,0,0,0-.8,6.5,3.8,3.8,0,0,0,2-.2Z" style="fill: #fff"/>
        <path d="M631,267.2l1-8.7,1.5.2-1,8.6Zm3-10.9a.9.9,0,0,1-1.1.8c-.6,0-.9-.5-.9-1.1a1,1,0,0,1,1.1-.8C633.7,255.2,634,255.7,634,256.3Z" style="fill: #fff"/>
        <path d="M639.9,268.2v-1.1h0a3.6,3.6,0,0,1-2.8,1,2.5,2.5,0,0,1-2.4-2.8c.3-2.1,2.3-3.1,5.6-2.7h0a1.8,1.8,0,0,0-1.7-2.3,4.3,4.3,0,0,0-2.3.4l-.3-1.1a7.1,7.1,0,0,1,3-.4c2.6.3,3,2.2,2.8,3.9l-.3,3.3a6.9,6.9,0,0,0-.1,2Zm.3-4.5c-1.7-.2-3.7-.1-3.9,1.6a1.4,1.4,0,0,0,1.3,1.6,2.1,2.1,0,0,0,2.3-1.2.7.7,0,0,0,.1-.5Z" style="fill: #fff"/>
        <path d="M645.2,255.9l1.6.2-1.5,12.7-1.5-.2Z" style="fill: #fff"/>
        <path d="M649.3,265.2a2.8,2.8,0,0,0,2.7,3.3,5.6,5.6,0,0,0,2.4-.2v1.2a5.9,5.9,0,0,1-2.9.2c-2.7-.3-4.1-2.2-3.8-4.9s2.1-4.4,4.6-4.2,3.3,2.9,3.1,4.5-.1.6-.1.8Zm4.8-.6c.1-1-.1-2.6-1.9-2.8a2.6,2.6,0,0,0-2.7,2.2Z" style="fill: #fff"/>
        <path d="M656.9,268.5a3.7,3.7,0,0,0,2,.9c1.2.1,1.8-.4,1.8-1.1s-.3-1.3-1.4-1.8-2.1-1.7-2-2.7,1.4-2.4,3.3-2.2a4,4,0,0,1,2.1.8l-.6,1.1a2.5,2.5,0,0,0-1.7-.7,1.2,1.2,0,0,0-1.6,1c0,.7.4,1.1,1.5,1.6s2.1,1.6,2,2.9-1.5,2.5-3.5,2.2a4.3,4.3,0,0,1-2.4-.9Z" style="fill: #fff"/>
      </g>
    </g>
  </g>
</svg>
