<svg xmlns="http://www.w3.org/2000/svg" viewBox="0 0 733.53 499.399"><g id="Capa_2" data-name="Capa 2"><g id="Capa_1-2" data-name="Capa 1"><path d="M441.614,406.791,276.2,338.11a161.465,161.465,0,0,0-5.449-134.951l159.3-81.87A341.038,341.038,0,0,1,467.5,276.511,338,338,0,0,1,441.614,406.791Z" style="fill:#29abe2"/><circle cx="127.5" cy="276.289" r="105" style="fill:#bdc4c6"/><circle cx="127.5" cy="276.289" r="127" style="fill:none;stroke:#aab8bd;stroke-miterlimit:10"/><path d="M73.088,274.848H67.712v4.191h6.011v2.137H65.109V266.912h8.3v2.137H67.712v3.683h5.376Z" style="fill:#112025"/><path d="M86.232,280.753a9,9,0,0,1-3.682.635c-4.529,0-7.28-2.836-7.28-7.175,0-4.7,3.259-7.534,7.619-7.534a8.192,8.192,0,0,1,3.47.635l-.571,2.074a6.915,6.915,0,0,0-2.794-.551c-2.9,0-4.994,1.821-4.994,5.249,0,3.132,1.841,5.143,4.974,5.143a7.3,7.3,0,0,0,2.836-.529Z" style="fill:#112025"/><path d="M100.563,273.9c0,4.783-2.9,7.513-6.836,7.513-4.021,0-6.561-3.069-6.561-7.259,0-4.381,2.752-7.471,6.772-7.471C98.108,266.679,100.563,269.833,100.563,273.9Zm-10.645.212c0,2.9,1.46,5.206,3.957,5.206,2.519,0,3.937-2.328,3.937-5.312,0-2.688-1.333-5.228-3.937-5.228C91.293,268.774,89.918,271.166,89.918,274.108Z" style="fill:#112025"/><path d="M102.809,281.176V266.912h2.962l3.683,6.116a39.464,39.464,0,0,1,2.434,4.783h.042c-.169-1.9-.233-3.746-.233-5.926v-4.973h2.412v14.264h-2.687l-3.725-6.264a49.732,49.732,0,0,1-2.56-4.931l-.064.021c.106,1.841.127,3.724.127,6.074v5.1Z" style="fill:#112025"/><path d="M129.772,273.9c0,4.783-2.9,7.513-6.835,7.513-4.021,0-6.561-3.069-6.561-7.259,0-4.381,2.752-7.471,6.772-7.471C127.318,266.679,129.772,269.833,129.772,273.9Zm-10.644.212c0,2.9,1.46,5.206,3.957,5.206,2.519,0,3.936-2.328,3.936-5.312,0-2.688-1.333-5.228-3.936-5.228C120.5,268.774,119.128,271.166,119.128,274.108Zm7.364-10.54-2.645,2.54h-2.095l1.862-2.54Z" style="fill:#112025"/><path d="M144.061,275.356c-.085-1.841-.191-4.063-.169-5.989h-.064c-.466,1.735-1.058,3.661-1.693,5.46l-2.074,6.18H138.05l-1.9-6.1c-.551-1.821-1.059-3.767-1.44-5.545h-.042c-.063,1.862-.148,4.127-.254,6.074l-.317,5.735h-2.435l.953-14.264h3.428l1.862,5.735c.509,1.672.953,3.365,1.313,4.952h.063c.381-1.545.869-3.3,1.418-4.972l1.969-5.715h3.386l.825,14.264h-2.539Z" style="fill:#112025"/><path d="M152.126,266.912v14.264h-2.6V266.912Z" style="fill:#112025"/><path d="M165.333,280.753a9,9,0,0,1-3.683.635c-4.528,0-7.28-2.836-7.28-7.175,0-4.7,3.26-7.534,7.619-7.534a8.2,8.2,0,0,1,3.471.635l-.571,2.074a6.919,6.919,0,0,0-2.794-.551c-2.9,0-4.994,1.821-4.994,5.249,0,3.132,1.84,5.143,4.973,5.143a7.3,7.3,0,0,0,2.836-.529Z" style="fill:#112025"/><path d="M179.663,273.9c0,4.783-2.9,7.513-6.836,7.513-4.02,0-6.56-3.069-6.56-7.259,0-4.381,2.752-7.471,6.772-7.471C177.209,266.679,179.663,269.833,179.663,273.9Zm-10.644.212c0,2.9,1.46,5.206,3.957,5.206,2.518,0,3.936-2.328,3.936-5.312,0-2.688-1.333-5.228-3.936-5.228C170.394,268.774,169.019,271.166,169.019,274.108Z" style="fill:#112025"/><path d="M181.845,278.34a7.2,7.2,0,0,0,3.449.911c1.672,0,2.6-.784,2.6-1.948,0-1.079-.719-1.714-2.54-2.37-2.348-.847-3.851-2.1-3.851-4.148,0-2.328,1.947-4.106,5.037-4.106a7.539,7.539,0,0,1,3.429.72l-.635,2.1a6.034,6.034,0,0,0-2.836-.677c-1.651,0-2.371.889-2.371,1.714,0,1.1.825,1.608,2.73,2.349,2.477.931,3.683,2.18,3.683,4.233,0,2.286-1.735,4.275-5.418,4.275a8.494,8.494,0,0,1-3.852-.888Z" style="fill:#112025"/><path d="M321.533,254.4a9.927,9.927,0,0,1-4.093.735c-4.369,0-7.657-2.758-7.657-7.841a7.713,7.713,0,0,1,8.094-8.14,8.313,8.313,0,0,1,3.68.69l-.484,1.633a7.287,7.287,0,0,0-3.127-.644c-3.633,0-6.048,2.323-6.048,6.392,0,3.8,2.185,6.233,5.956,6.233a7.987,7.987,0,0,0,3.265-.645Z" style="fill:#fff"/><path d="M333.792,249.248c0,4.116-2.851,5.91-5.541,5.91-3.013,0-5.335-2.207-5.335-5.726,0-3.725,2.438-5.91,5.519-5.91C331.631,243.522,333.792,245.845,333.792,249.248Zm-8.83.115c0,2.437,1.4,4.277,3.381,4.277,1.931,0,3.38-1.816,3.38-4.323,0-1.886-.943-4.277-3.334-4.277S324.962,247.248,324.962,249.363Z" style="fill:#fff"/><path d="M336.348,246.788c0-1.15-.024-2.093-.092-3.013h1.77l.092,1.794h.07a3.834,3.834,0,0,1,3.5-2.047,3.291,3.291,0,0,1,3.15,2.23h.046a4.59,4.59,0,0,1,1.241-1.448,3.8,3.8,0,0,1,2.461-.782c1.472,0,3.656.966,3.656,4.829v6.554H350.26v-6.3c0-2.139-.782-3.426-2.415-3.426a2.622,2.622,0,0,0-2.392,1.839,3.34,3.34,0,0,0-.16,1.012v6.876h-1.978v-6.669c0-1.771-.782-3.058-2.323-3.058a3.017,3.017,0,0,0-2.667,3.012v6.715h-1.977Z" style="fill:#fff"/><path d="M361.691,254.905l-.16-1.4h-.069a4.144,4.144,0,0,1-3.4,1.656,3.172,3.172,0,0,1-3.4-3.2c0-2.69,2.392-4.162,6.692-4.138v-.231a2.294,2.294,0,0,0-2.53-2.575,5.536,5.536,0,0,0-2.9.828l-.46-1.334a6.917,6.917,0,0,1,3.656-.989c3.4,0,4.232,2.323,4.232,4.554v4.162a15.772,15.772,0,0,0,.183,2.667Zm-.3-5.68c-2.207-.046-4.714.345-4.714,2.507a1.79,1.79,0,0,0,1.909,1.931,2.768,2.768,0,0,0,2.69-1.863,2.106,2.106,0,0,0,.115-.643Z" style="fill:#fff"/><path d="M366.615,246.788c0-1.15-.023-2.093-.092-3.013h1.793l.116,1.84h.046a4.091,4.091,0,0,1,3.679-2.093c1.54,0,3.932.92,3.932,4.737v6.646h-2.024v-6.416c0-1.793-.667-3.288-2.575-3.288a2.877,2.877,0,0,0-2.714,2.069,2.943,2.943,0,0,0-.137.943v6.692h-2.024Z" style="fill:#fff"/><path d="M388.992,238.579v13.452c0,.988.023,2.115.092,2.874h-1.816l-.093-1.932h-.046a4.117,4.117,0,0,1-3.794,2.185c-2.69,0-4.76-2.277-4.76-5.657-.023-3.7,2.277-5.979,4.989-5.979a3.721,3.721,0,0,1,3.358,1.7h.046v-6.645Zm-2.024,9.726a3.565,3.565,0,0,0-.092-.85,2.976,2.976,0,0,0-2.92-2.346c-2.093,0-3.335,1.84-3.335,4.3,0,2.254,1.105,4.116,3.289,4.116a3.042,3.042,0,0,0,2.966-2.414,3.516,3.516,0,0,0,.092-.874Z" style="fill:#fff"/><path d="M402.423,249.248c0,4.116-2.851,5.91-5.541,5.91-3.013,0-5.335-2.207-5.335-5.726,0-3.725,2.437-5.91,5.518-5.91C400.262,243.522,402.423,245.845,402.423,249.248Zm-8.83.115c0,2.437,1.4,4.277,3.381,4.277,1.931,0,3.38-1.816,3.38-4.323,0-1.886-.943-4.277-3.334-4.277S393.593,247.248,393.593,249.363Z" style="fill:#fff"/><path d="M410.59,243.775l2.437,6.577c.253.735.53,1.609.713,2.276h.046c.207-.667.438-1.517.713-2.322l2.208-6.531h2.139l-3.035,7.934c-1.45,3.817-2.438,5.771-3.818,6.967a5.493,5.493,0,0,1-2.483,1.311l-.506-1.7a5.323,5.323,0,0,0,1.77-.989,6.132,6.132,0,0,0,1.7-2.253,1.484,1.484,0,0,0,.161-.483,1.765,1.765,0,0,0-.138-.529l-4.116-10.256Z" style="fill:#fff"/><path d="M340.888,282a9.931,9.931,0,0,1-4.093.735c-4.369,0-7.657-2.759-7.657-7.841a7.713,7.713,0,0,1,8.093-8.141,8.305,8.305,0,0,1,3.68.691l-.483,1.633a7.286,7.286,0,0,0-3.127-.645c-3.634,0-6.048,2.323-6.048,6.393,0,3.8,2.185,6.232,5.956,6.232a8,8,0,0,0,3.265-.644Z" style="fill:#fff"/><path d="M353.146,276.847c0,4.116-2.85,5.91-5.541,5.91-3.012,0-5.334-2.207-5.334-5.725,0-3.726,2.437-5.91,5.518-5.91C350.985,271.122,353.146,273.445,353.146,276.847Zm-8.83.115c0,2.438,1.4,4.278,3.381,4.278,1.932,0,3.38-1.817,3.38-4.323,0-1.886-.942-4.278-3.334-4.278S344.316,274.847,344.316,276.962Z" style="fill:#fff"/><path d="M355.7,274.387c0-1.149-.023-2.093-.092-3.012H357.4l.116,1.839h.045a4.1,4.1,0,0,1,3.68-2.092c1.54,0,3.932.92,3.932,4.737V282.5h-2.024v-6.416c0-1.793-.667-3.288-2.575-3.288a2.878,2.878,0,0,0-2.714,2.07,2.912,2.912,0,0,0-.137.943V282.5H355.7Z" style="fill:#fff"/><path d="M370.813,268.178v3.2h2.9v1.541h-2.9v6c0,1.379.39,2.161,1.517,2.161a4.547,4.547,0,0,0,1.173-.138l.092,1.518a4.958,4.958,0,0,1-1.794.275,2.806,2.806,0,0,1-2.185-.851,4.125,4.125,0,0,1-.781-2.9v-6.07H367.11v-1.541h1.725v-2.667Z" style="fill:#fff"/><path d="M375.988,274.847c0-1.31-.023-2.437-.092-3.472h1.771l.068,2.184h.093a3.34,3.34,0,0,1,3.081-2.437,2.189,2.189,0,0,1,.575.069V273.1a3.045,3.045,0,0,0-.69-.068,2.836,2.836,0,0,0-2.713,2.6,5.715,5.715,0,0,0-.093.944V282.5h-2Z" style="fill:#fff"/><path d="M393.351,276.847c0,4.116-2.851,5.91-5.541,5.91-3.013,0-5.335-2.207-5.335-5.725,0-3.726,2.437-5.91,5.518-5.91C391.189,271.122,393.351,273.445,393.351,276.847Zm-8.83.115c0,2.438,1.4,4.278,3.38,4.278,1.932,0,3.38-1.817,3.38-4.323,0-1.886-.942-4.278-3.334-4.278S384.521,274.847,384.521,276.962Z" style="fill:#fff"/><path d="M395.906,266.178h2.024V282.5h-2.024Z" style="fill:#fff"/><circle cx="127.258" cy="276.53" r="105" style="fill:#bdc4c6"/><path d="M423.575,399.457,267.494,334.652a152.356,152.356,0,0,0-5.142-127.334l150.312-77.249A321.791,321.791,0,0,1,448,276.53,318.934,318.934,0,0,1,423.575,399.457Z" style="fill:#84266a"/><path d="M691.185,499.4,467.953,411.265a366.654,366.654,0,0,0,23.738-98.377l238.821,23.761A606.639,606.639,0,0,1,691.185,499.4Z" style="fill:#84266a"/><path d="M730.989,331.643l-239-21.881.053-.587c.987-11.037,1.488-22.209,1.488-33.207a365.537,365.537,0,0,0-6.363-67.926l235.8-44.7A606.2,606.2,0,0,1,733.53,275.968c0,18.109-.822,36.478-2.443,54.6Z" style="fill:#84266a"/><path d="M486.579,205.017a363.855,363.855,0,0,0-33.251-95.394L666.829,0A603.776,603.776,0,0,1,721.99,158.309Z" style="fill:#84266a"/><path d="M505.5,133.7l2.277,6.389c.862,2.418,2.3,3.06,3.741,2.547,1.6-.571,2.25-1.992,1.4-4.378l-2.276-6.389,1.409-.5,2.242,6.293c1.181,3.315-.08,5.3-2.417,6.131-2.21.787-4.326.115-5.519-3.232l-2.264-6.357Z" style="fill:#fff"/><path d="M516.252,135.663c-.285-.8-.535-1.452-.812-2.074l1.249-.445.537,1.252.032-.012a3.025,3.025,0,0,1,2.043-2.369c1.073-.383,2.966-.336,3.913,2.322l1.649,4.628-1.409.5L521.862,135c-.445-1.249-1.28-2.124-2.609-1.651a2.193,2.193,0,0,0-1.238,2.805l1.66,4.66-1.409.5Z" style="fill:#fff"/><path d="M525.185,127.662a.927.927,0,0,1-1.746.622.912.912,0,0,1,.568-1.194A.888.888,0,0,1,525.185,127.662Zm1.967,10.487-2.76-7.75,1.409-.5,2.762,7.75Z" style="fill:#fff"/><path d="M533.543,123.06l3.337,9.367c.245.689.541,1.468.777,1.979l-1.264.451-.543-1.322-.033.011a3.045,3.045,0,0,1-2.1,2.463c-1.873.667-3.879-.4-4.718-2.758-.935-2.573.1-4.728,1.991-5.4a2.751,2.751,0,0,1,2.76.351l.032-.011-1.649-4.627Zm1,7.276a2.6,2.6,0,0,0-.276-.57,2.2,2.2,0,0,0-2.615-.909c-1.457.52-1.865,2.109-1.255,3.822.559,1.569,1.79,2.592,3.312,2.05a2.251,2.251,0,0,0,1.466-2.417,2.623,2.623,0,0,0-.154-.631Z" style="fill:#fff"/><path d="M544.223,132.067l-.46-.937-.048.017a3.063,3.063,0,0,1-1.959,2,2.344,2.344,0,0,1-3.163-1.382c-.667-1.873.633-3.491,3.633-4.542l-.057-.16a1.7,1.7,0,0,0-2.4-1.166,4.093,4.093,0,0,0-1.814,1.3l-.651-.814a5.1,5.1,0,0,1,2.3-1.6c2.371-.844,3.524.567,4.077,2.121l1.033,2.9a11.5,11.5,0,0,0,.789,1.812Zm-1.618-3.881c-1.548.516-3.2,1.41-2.66,2.915a1.324,1.324,0,0,0,1.809.871,2.044,2.044,0,0,0,1.411-1.964,1.6,1.6,0,0,0-.08-.477Z" style="fill:#fff"/><path d="M550.293,117.092l3.338,9.368c.245.688.541,1.467.777,1.978l-1.265.451-.543-1.322-.033.012a3.044,3.044,0,0,1-2.1,2.462c-1.874.668-3.88-.4-4.718-2.758-.936-2.573.1-4.728,1.99-5.4a2.753,2.753,0,0,1,2.76.352l.032-.011-1.649-4.628Zm1,7.276a2.647,2.647,0,0,0-.275-.57,2.2,2.2,0,0,0-2.616-.909c-1.457.519-1.865,2.109-1.255,3.822.56,1.569,1.79,2.592,3.312,2.05a2.25,2.25,0,0,0,1.467-2.417,2.694,2.694,0,0,0-.155-.632Z" style="fill:#fff"/><path d="M556.178,123.73a2.635,2.635,0,0,0,3.616,1.742,5.4,5.4,0,0,0,2-1.164l.6.923a6.685,6.685,0,0,1-2.407,1.4,3.82,3.82,0,0,1-5.2-2.549c-.834-2.338-.112-4.67,2.146-5.474,2.53-.9,4,1.084,4.5,2.509a5.7,5.7,0,0,1,.185.674Zm3.771-2.481a2.129,2.129,0,0,0-2.769-1.594,2.481,2.481,0,0,0-1.346,3.06Z" style="fill:#fff"/><path d="M564,123.4a3.92,3.92,0,0,0,2.057-.1c1.025-.365,1.322-1.048,1.093-1.689-.239-.672-.77-.9-1.948-.911-1.569,0-2.5-.535-2.831-1.464A2.538,2.538,0,0,1,564.235,116a4.115,4.115,0,0,1,2.077-.2l.012,1.15a3.206,3.206,0,0,0-1.745.116c-.832.3-1.126.943-.92,1.519.228.641.795.764,1.941.789,1.527.033,2.456.46,2.866,1.613.485,1.361-.229,2.7-2.07,3.354a4.692,4.692,0,0,1-2.367.248Z" style="fill:#fff"/><path d="M577.084,107.547l3.337,9.367c.245.689.541,1.467.777,1.979l-1.264.45-.544-1.321-.033.011a3.045,3.045,0,0,1-2.1,2.463c-1.873.667-3.879-.405-4.718-2.759-.935-2.572.1-4.728,1.991-5.4a2.751,2.751,0,0,1,2.76.352l.032-.012-1.649-4.627Zm1,7.276a2.654,2.654,0,0,0-.275-.571,2.2,2.2,0,0,0-2.616-.908c-1.457.519-1.865,2.108-1.255,3.822.559,1.568,1.79,2.591,3.311,2.049a2.249,2.249,0,0,0,1.467-2.417,2.6,2.6,0,0,0-.154-.63Z" style="fill:#fff"/><path d="M582.968,114.184a2.636,2.636,0,0,0,3.617,1.743,5.411,5.411,0,0,0,2-1.165l.6.923a6.685,6.685,0,0,1-2.408,1.4,3.82,3.82,0,0,1-5.2-2.549c-.834-2.338-.112-4.67,2.145-5.475,2.53-.9,4,1.085,4.5,2.51a5.6,5.6,0,0,1,.185.674Zm3.772-2.48a2.129,2.129,0,0,0-2.769-1.594,2.477,2.477,0,0,0-1.346,3.059Z" style="fill:#fff"/><path d="M595.475,109.981l.088,3.793-1.441.514-.179-12.1,1.682-.6,7.528,9.48-1.489.531-2.362-2.984Zm3.15-2.35-2.163-2.73c-.491-.619-.88-1.2-1.263-1.77l-.032.012c.068.7.126,1.417.152,2.147l.056,3.5Z" style="fill:#fff"/><path d="M609.92,108.334a5.494,5.494,0,0,1-2.066,1.242,3.909,3.909,0,0,1-5.268-2.58,4.182,4.182,0,0,1,2.7-5.6,5.016,5.016,0,0,1,2.1-.3l.068,1.2a3.469,3.469,0,0,0-1.764.214,3.1,3.1,0,0,0,2.028,5.845,4.247,4.247,0,0,0,1.593-1Z" style="fill:#fff"/><path d="M610.023,97.38l.793,2.226,2.019-.719.382,1.073-2.018.718,1.489,4.18c.342.961.809,1.408,1.593,1.129a3.325,3.325,0,0,0,.782-.388l.442,1.034a3.675,3.675,0,0,1-1.182.638,2.071,2.071,0,0,1-1.731-.051,3.047,3.047,0,0,1-1.263-1.823l-1.507-4.228-1.2.428-.382-1.072,1.2-.428-.662-1.858Z" style="fill:#fff"/><path d="M622.913,101.648c.285.8.553,1.5.817,2.09l-1.249.446-.53-1.237-.032.012a3.1,3.1,0,0,1-2.049,2.354c-1.217.433-2.913.28-3.883-2.442l-1.614-4.532,1.408-.5,1.53,4.291c.524,1.474,1.326,2.307,2.607,1.85a2.162,2.162,0,0,0,1.4-1.942,2.214,2.214,0,0,0-.129-.767L619.5,96.514l1.409-.5Z" style="fill:#fff"/><path d="M630.3,101.4l-.461-.937-.048.017a3.066,3.066,0,0,1-1.959,2,2.345,2.345,0,0,1-3.163-1.381c-.667-1.874.633-3.492,3.633-4.543l-.057-.16a1.7,1.7,0,0,0-2.4-1.166,4.1,4.1,0,0,0-1.813,1.3l-.65-.814a5.093,5.093,0,0,1,2.3-1.6c2.37-.844,3.522.568,4.076,2.121l1.032,2.9a11.628,11.628,0,0,0,.79,1.812Zm-1.617-3.881c-1.549.516-3.2,1.41-2.661,2.915a1.323,1.323,0,0,0,1.807.872,2.045,2.045,0,0,0,1.411-1.965,1.534,1.534,0,0,0-.079-.477Z" style="fill:#fff"/><path d="M639.146,97.921a5.518,5.518,0,0,1-2.067,1.242,3.908,3.908,0,0,1-5.268-2.58,4.18,4.18,0,0,1,2.7-5.6,4.981,4.981,0,0,1,2.1-.3l.068,1.2a3.46,3.46,0,0,0-1.765.213,3.1,3.1,0,0,0,2.029,5.846,4.25,4.25,0,0,0,1.592-1Z" style="fill:#fff"/><path d="M638.93,87.135a.926.926,0,0,1-1.745.622.91.91,0,0,1,.567-1.194A.888.888,0,0,1,638.93,87.135ZM640.9,97.622l-2.76-7.749,1.409-.5,2.761,7.75Z" style="fill:#fff"/><path d="M650.255,89.849a4.022,4.022,0,0,1-2.393,5.49,3.911,3.911,0,0,1-5.135-2.663,4.018,4.018,0,0,1,2.377-5.485A3.9,3.9,0,0,1,650.255,89.849Zm-6.12,2.271c.6,1.7,2.038,2.63,3.415,2.139,1.345-.479,1.9-2.1,1.281-3.848-.468-1.314-1.718-2.745-3.383-2.152S643.609,90.647,644.135,92.12Zm1.888-8.829-1.137,2.985-1.009.359.594-2.791Z" style="fill:#fff"/><path d="M651.422,87.5c-.285-.8-.535-1.451-.811-2.074l1.248-.445.537,1.252.033-.011a3.023,3.023,0,0,1,2.042-2.37c1.073-.383,2.967-.336,3.914,2.322l1.648,4.628-1.408.5-1.592-4.468c-.445-1.249-1.281-2.124-2.609-1.65a2.189,2.189,0,0,0-1.238,2.8l1.66,4.659-1.41.5Z" style="fill:#fff"/><path d="M553.551,138.237l2.275,6.39c.862,2.417,2.3,3.06,3.741,2.546,1.6-.57,2.249-1.992,1.4-4.378l-2.277-6.389,1.41-.5,2.242,6.293c1.18,3.314-.08,5.3-2.417,6.13-2.21.787-4.326.116-5.519-3.231l-2.264-6.357Z" style="fill:#fff"/><path d="M564.415,140.519c-.325-.912-.62-1.691-.925-2.394l1.233-.44.59,1.5.064-.022a2.468,2.468,0,0,1,1.541-2.462,1.6,1.6,0,0,1,.417-.095l.474,1.329a2.321,2.321,0,0,0-.5.123,2.1,2.1,0,0,0-1.245,2.482,4.41,4.41,0,0,0,.17.68l1.473,4.132-1.395.5Z" style="fill:#fff"/><path d="M571.552,143.986c-.156-.54-.4-1.336-.65-2.025l-3.337-9.367,1.393-.5,1.734,4.867.033-.011a3.065,3.065,0,0,1,2.134-2.367c1.921-.684,3.853.432,4.675,2.791.987,2.771-.267,4.77-2,5.386a2.929,2.929,0,0,1-3.113-.533l-.048.018.393,1.3Zm.35-3.626a2.914,2.914,0,0,0,.246.49,2.312,2.312,0,0,0,2.7.9c1.472-.525,1.925-2.039,1.292-3.817-.553-1.553-1.828-2.6-3.333-2.06a2.386,2.386,0,0,0-1.53,2.493,3,3,0,0,0,.126.605Z" style="fill:#fff"/><path d="M585.019,139.188l-.46-.937-.048.017a3.069,3.069,0,0,1-1.959,2,2.344,2.344,0,0,1-3.163-1.381c-.668-1.874.632-3.492,3.632-4.543l-.056-.16a1.7,1.7,0,0,0-2.4-1.165,4.09,4.09,0,0,0-1.812,1.3l-.65-.815a5.11,5.11,0,0,1,2.3-1.6c2.37-.844,3.523.568,4.077,2.121l1.032,2.9a11.628,11.628,0,0,0,.79,1.812Zm-1.617-3.882c-1.548.516-3.2,1.41-2.661,2.915a1.323,1.323,0,0,0,1.808.872,2.043,2.043,0,0,0,1.411-1.965,1.522,1.522,0,0,0-.079-.476Z" style="fill:#fff"/><path d="M586.432,132.314c-.286-.8-.536-1.451-.811-2.074l1.248-.446.537,1.252.032-.011a3.027,3.027,0,0,1,2.043-2.369c1.073-.383,2.966-.336,3.914,2.322l1.648,4.628-1.408.5-1.592-4.468c-.445-1.249-1.281-2.124-2.609-1.65a2.125,2.125,0,0,0-1.377,2.114,2.153,2.153,0,0,0,.138.691l1.66,4.659-1.41.5Z" style="fill:#fff"/><path d="M595.365,124.313a.926.926,0,0,1-1.744.622.91.91,0,0,1,.567-1.194A.885.885,0,0,1,595.365,124.313Zm1.969,10.487-2.762-7.75,1.41-.5,2.761,7.75Z" style="fill:#fff"/><path d="M600.375,132.092a3.922,3.922,0,0,0,2.058-.1c1.024-.365,1.322-1.049,1.093-1.69-.239-.672-.77-.9-1.948-.911-1.57,0-2.5-.535-2.832-1.464a2.538,2.538,0,0,1,1.864-3.226,4.1,4.1,0,0,1,2.078-.2l.012,1.149a3.208,3.208,0,0,0-1.745.117c-.833.3-1.126.942-.92,1.52.228.64.8.762,1.941.788,1.527.032,2.455.46,2.866,1.612.484,1.361-.229,2.7-2.071,3.355a4.688,4.688,0,0,1-2.366.247Z" style="fill:#fff"/><path d="M605.564,120.626l.793,2.225,2.018-.719.383,1.073-2.018.718,1.489,4.18c.342.96.809,1.408,1.593,1.128a3.272,3.272,0,0,0,.782-.387l.442,1.034a3.68,3.68,0,0,1-1.181.637,2.07,2.07,0,0,1-1.732-.05,3.047,3.047,0,0,1-1.263-1.824l-1.507-4.227-1.2.428-.382-1.073,1.2-.428-.662-1.858Z" style="fill:#fff"/><path d="M610.755,118.83a.926.926,0,0,1-1.745.622.909.909,0,0,1,.566-1.194A.888.888,0,0,1,610.755,118.83Zm1.968,10.487-2.762-7.75,1.41-.5,2.761,7.75Z" style="fill:#fff"/><path d="M621.892,125.725a5.526,5.526,0,0,1-2.066,1.241,3.908,3.908,0,0,1-5.268-2.58,4.179,4.179,0,0,1,2.7-5.6,4.983,4.983,0,0,1,2.1-.3l.067,1.2a3.476,3.476,0,0,0-1.765.214,3.1,3.1,0,0,0,2.03,5.845,4.236,4.236,0,0,0,1.591-1Z" style="fill:#fff"/><path d="M627.936,123.9l-.461-.937-.048.017a3.064,3.064,0,0,1-1.959,2,2.344,2.344,0,0,1-3.163-1.381c-.667-1.874.633-3.492,3.633-4.543l-.057-.16a1.7,1.7,0,0,0-2.4-1.165,4.1,4.1,0,0,0-1.812,1.3l-.65-.815a5.11,5.11,0,0,1,2.3-1.6c2.371-.844,3.523.568,4.077,2.121l1.032,2.9a11.628,11.628,0,0,0,.79,1.812Zm-1.619-3.882c-1.547.516-3.2,1.41-2.66,2.915a1.323,1.323,0,0,0,1.808.872,2.043,2.043,0,0,0,1.411-1.965,1.552,1.552,0,0,0-.079-.476Z" style="fill:#fff"/><path d="M545.041,247.9l.64,6.751c.241,2.555,1.478,3.532,3,3.387,1.692-.16,2.669-1.379,2.43-3.9l-.638-6.753,1.489-.141.63,6.651c.331,3.5-1.377,5.116-3.848,5.35-2.336.221-4.222-.949-4.557-4.486l-.635-6.719Z" style="fill:#fff"/><path d="M554.982,252.437c-.08-.846-.163-1.54-.277-2.211l1.319-.125.214,1.346.033,0a3.026,3.026,0,0,1,2.563-1.8c1.134-.107,2.957.4,3.224,3.212l.463,4.891-1.49.141-.446-4.722c-.125-1.319-.721-2.373-2.125-2.24a2.124,2.124,0,0,0-1.853,1.712,2.157,2.157,0,0,0-.036.7l.466,4.924-1.489.141Z" style="fill:#fff"/><path d="M565.606,246.872a.926.926,0,0,1-1.844.174.911.911,0,0,1,.842-1.018A.888.888,0,0,1,565.606,246.872Zm-.666,10.649-.775-8.191,1.489-.141.776,8.191Z" style="fill:#fff"/><path d="M574.838,244.462l.936,9.9c.07.728.164,1.555.268,2.109l-1.336.127-.2-1.415-.034,0a3.04,3.04,0,0,1-2.64,1.872c-1.979.187-3.661-1.344-3.9-3.831-.276-2.723,1.258-4.559,3.255-4.747a2.746,2.746,0,0,1,2.589,1.017l.035,0-.463-4.89Zm-.813,7.3a2.523,2.523,0,0,0-.127-.62,2.2,2.2,0,0,0-2.312-1.523c-1.54.146-2.325,1.587-2.154,3.4.157,1.658,1.1,2.952,2.707,2.8a2.247,2.247,0,0,0,2.014-1.983,2.5,2.5,0,0,0,.007-.649Z" style="fill:#fff"/><path d="M582.981,255.814l-.215-1.022-.051,0a3.067,3.067,0,0,1-2.39,1.456,2.344,2.344,0,0,1-2.727-2.115c-.188-1.981,1.47-3.23,4.636-3.512l-.015-.17a1.7,1.7,0,0,0-2.042-1.719,4.1,4.1,0,0,0-2.074.811l-.431-.949a5.11,5.11,0,0,1,2.621-.983c2.5-.237,3.276,1.414,3.432,3.056l.29,3.063a11.611,11.611,0,0,0,.32,1.951Zm-.615-4.16c-1.628.12-3.445.582-3.295,2.174a1.324,1.324,0,0,0,1.539,1.288,2.047,2.047,0,0,0,1.851-1.558,1.553,1.553,0,0,0,.04-.482Z" style="fill:#fff"/><path d="M592.54,242.786l.938,9.9c.068.727.164,1.555.267,2.109l-1.337.126-.2-1.415-.034,0a3.043,3.043,0,0,1-2.64,1.872c-1.98.187-3.662-1.344-3.9-3.832-.275-2.723,1.259-4.558,3.256-4.747a2.751,2.751,0,0,1,2.589,1.018l.034,0-.463-4.89Zm-.811,7.3a2.67,2.67,0,0,0-.127-.62,2.2,2.2,0,0,0-2.313-1.523c-1.54.146-2.326,1.586-2.154,3.4.156,1.658,1.1,2.952,2.706,2.8a2.247,2.247,0,0,0,2.015-1.984,2.546,2.546,0,0,0,.007-.649Z" style="fill:#fff"/><path d="M596.616,250.664a2.635,2.635,0,0,0,3.078,2.577,5.408,5.408,0,0,0,2.228-.636l.354,1.041a6.662,6.662,0,0,1-2.675.766,3.821,3.821,0,0,1-4.419-3.749c-.234-2.471,1.037-4.554,3.422-4.779,2.675-.254,3.609,2.031,3.751,3.538a5.452,5.452,0,0,1,.014.7Zm4.266-1.479a2.131,2.131,0,0,0-2.294-2.225,2.48,2.48,0,0,0-2.056,2.637Z" style="fill:#fff"/><path d="M604.28,252.261a3.92,3.92,0,0,0,2.02.407c1.083-.1,1.539-.692,1.475-1.369-.067-.711-.527-1.061-1.666-1.361-1.522-.387-2.292-1.133-2.384-2.115a2.536,2.536,0,0,1,2.6-2.67,4.091,4.091,0,0,1,2.061.317l-.269,1.118a3.209,3.209,0,0,0-1.72-.316c-.88.084-1.323.638-1.265,1.248.063.676.583.934,1.687,1.24,1.473.407,2.269,1.049,2.384,2.267.136,1.439-.885,2.56-2.831,2.744a4.679,4.679,0,0,1-2.354-.341Z" style="fill:#fff"/><path d="M620.854,240.106l.937,9.9c.069.727.165,1.556.268,2.109l-1.337.126-.2-1.414-.035,0a3.042,3.042,0,0,1-2.639,1.872c-1.98.188-3.661-1.344-3.9-3.832-.275-2.723,1.259-4.557,3.255-4.747a2.753,2.753,0,0,1,2.59,1.019l.033,0-.463-4.891Zm-.812,7.3a2.691,2.691,0,0,0-.127-.62,2.2,2.2,0,0,0-2.312-1.522c-1.54.145-2.326,1.586-2.155,3.4.157,1.658,1.1,2.952,2.707,2.8a2.248,2.248,0,0,0,2.015-1.983,2.649,2.649,0,0,0,.007-.65Z" style="fill:#fff"/><path d="M624.93,247.984a2.636,2.636,0,0,0,3.079,2.578,5.421,5.421,0,0,0,2.226-.637l.356,1.041a6.669,6.669,0,0,1-2.677.766,3.821,3.821,0,0,1-4.419-3.749c-.233-2.47,1.038-4.553,3.424-4.779,2.674-.254,3.607,2.031,3.75,3.538a5.692,5.692,0,0,1,.015.7Zm4.265-1.479a2.13,2.13,0,0,0-2.294-2.224,2.48,2.48,0,0,0-2.055,2.636Z" style="fill:#fff"/><path d="M645.214,249.412a10.665,10.665,0,0,1-3.443.957,5.381,5.381,0,0,1-6.4-5.2c-.3-3.4,1.795-6.111,5.62-6.474a7.092,7.092,0,0,1,2.893.256l-.242,1.235a5.924,5.924,0,0,0-2.568-.252,4.284,4.284,0,0,0-4.152,5.019c.273,2.895,2.179,4.439,4.836,4.187a4.8,4.8,0,0,0,1.933-.49l-.321-3.4-2.319.22-.112-1.185,3.757-.355Z" style="fill:#fff"/><path d="M648.014,245.8a2.635,2.635,0,0,0,3.079,2.577,5.4,5.4,0,0,0,2.227-.638l.355,1.042a6.647,6.647,0,0,1-2.677.766,3.819,3.819,0,0,1-4.418-3.748c-.234-2.471,1.037-4.554,3.423-4.78,2.675-.253,3.607,2.032,3.75,3.538a5.507,5.507,0,0,1,.015.7Zm4.265-1.48a2.13,2.13,0,0,0-2.293-2.224,2.477,2.477,0,0,0-2.055,2.636Z" style="fill:#fff"/><path d="M655.679,247.4a3.9,3.9,0,0,0,2.019.406c1.083-.1,1.539-.692,1.475-1.368-.068-.711-.527-1.061-1.665-1.363-1.523-.385-2.293-1.132-2.386-2.113a2.538,2.538,0,0,1,2.6-2.671,4.1,4.1,0,0,1,2.061.318l-.269,1.118a3.2,3.2,0,0,0-1.72-.316c-.88.084-1.323.638-1.266,1.247.065.677.584.935,1.689,1.241,1.472.407,2.267,1.048,2.383,2.266.136,1.439-.885,2.561-2.83,2.744a4.67,4.67,0,0,1-2.355-.341Z" style="fill:#fff"/><path d="M663.523,237.554l.223,2.352,2.133-.2.107,1.134-2.132.2.417,4.416c.1,1.016.439,1.565,1.268,1.485a3.355,3.355,0,0,0,.854-.182l.173,1.11a3.64,3.64,0,0,1-1.3.328,2.068,2.068,0,0,1-1.667-.474,3.048,3.048,0,0,1-.777-2.077l-.423-4.468-1.269.12-.108-1.134,1.27-.12-.186-1.963Z" style="fill:#fff"/><path d="M669,237.087a.927.927,0,0,1-1.845.175.912.912,0,0,1,.844-1.019A.887.887,0,0,1,669,237.087Zm-.665,10.649-.775-8.19,1.489-.142.775,8.191Z" style="fill:#fff"/><path d="M679.308,242.5a4.021,4.021,0,0,1-3.666,4.735,3.913,3.913,0,0,1-4.326-3.842,4.018,4.018,0,0,1,3.65-4.734A3.9,3.9,0,0,1,679.308,242.5Zm-6.491.7c.17,1.794,1.33,3.05,2.787,2.912,1.42-.134,2.36-1.572,2.186-3.416-.132-1.387-.992-3.083-2.752-2.916S672.67,241.64,672.817,243.2Zm4-8.095-1.835,2.615-1.066.1,1.26-2.56Z" style="fill:#fff"/><path d="M681.016,240.508c-.08-.846-.163-1.538-.278-2.21l1.321-.125.212,1.346.035,0a3.021,3.021,0,0,1,2.561-1.8c1.134-.108,2.957.4,3.224,3.212l.463,4.89-1.49.141-.446-4.722c-.125-1.319-.721-2.373-2.125-2.24a2.122,2.122,0,0,0-1.852,1.712,2.154,2.154,0,0,0-.037.7l.467,4.924-1.49.14Z" style="fill:#fff"/><path d="M523.483,366.691l-1.8,3.342-1.506-.267,5.826-10.6,1.758.311,1.856,11.961-1.556-.274-.579-3.762Zm3.9-.484-.531-3.443c-.122-.782-.17-1.479-.222-2.162l-.034-.006c-.285.64-.591,1.293-.93,1.941l-1.682,3.07Z" style="fill:#fff"/><path d="M531.192,370.158a3.908,3.908,0,0,0,1.838.93c1.072.189,1.668-.258,1.786-.928.124-.7-.225-1.162-1.243-1.756-1.364-.775-1.909-1.7-1.737-2.672a2.538,2.538,0,0,1,3.215-1.882,4.1,4.1,0,0,1,1.9.853l-.557,1.008a3.194,3.194,0,0,0-1.575-.762,1.2,1.2,0,0,0-1.551.865c-.118.67.315,1.057,1.3,1.645,1.312.783,1.907,1.613,1.694,2.818-.251,1.424-1.534,2.233-3.458,1.893a4.684,4.684,0,0,1-2.179-.955Z" style="fill:#fff"/><path d="M537.756,372.871l1.432-8.1,1.472.261-1.431,8.1Zm3.474-10.088a.927.927,0,0,1-1.825-.322.913.913,0,0,1,1.083-.758A.889.889,0,0,1,541.23,362.783Z" style="fill:#fff"/><path d="M550.085,366.7c-.137.58-.286,1.227-.461,2.215l-.83,4.7c-.329,1.86-.9,2.932-1.81,3.5a4.353,4.353,0,0,1-3.117.45,5.3,5.3,0,0,1-2.577-1.145l.567-1.057a4.641,4.641,0,0,0,2.264,1.057c1.507.266,2.75-.326,3.111-2.369l.16-.9-.034-.006a2.935,2.935,0,0,1-2.817.9c-2.008-.353-3.146-2.314-2.75-4.558.485-2.745,2.551-3.985,4.409-3.657a2.737,2.737,0,0,1,2.279,1.852l.034.006.283-1.209ZM548,369.623a2.1,2.1,0,0,0,.035-.684,2.154,2.154,0,0,0-1.784-1.919c-1.406-.248-2.621.761-2.952,2.636-.28,1.59.289,3.055,1.879,3.336a2.188,2.188,0,0,0,2.309-1.146,2.62,2.62,0,0,0,.256-.766Z" style="fill:#fff"/><path d="M551.974,369.291c.148-.838.253-1.527.321-2.2l1.306.23-.154,1.356.033.006a3.026,3.026,0,0,1,2.948-1.051c1.122.2,2.745,1.174,2.254,3.953l-.855,4.838-1.473-.26.825-4.67c.231-1.306-.063-2.48-1.451-2.726a2.131,2.131,0,0,0-2.243,1.158,2.179,2.179,0,0,0-.22.67l-.861,4.869-1.473-.26Z" style="fill:#fff"/><path d="M564.708,377.633l.063-1.041-.05-.01a3.067,3.067,0,0,1-2.691.77,2.346,2.346,0,0,1-2.066-2.766c.346-1.959,2.276-2.723,5.4-2.152l.029-.168a1.694,1.694,0,0,0-1.509-2.2,4.1,4.1,0,0,0-2.215.231l-.164-1.031a5.109,5.109,0,0,1,2.789-.25c2.476.439,2.781,2.236,2.494,3.859l-.535,3.029a11.605,11.605,0,0,0-.209,1.965Zm.513-4.172c-1.6-.316-3.476-.355-3.754,1.219a1.322,1.322,0,0,0,1.14,1.65,2.045,2.045,0,0,0,2.2-1.01,1.57,1.57,0,0,0,.167-.453Z" style="fill:#fff"/><path d="M574.119,378.984a5.491,5.491,0,0,1-2.41.059,3.91,3.91,0,0,1-3.3-4.848,4.179,4.179,0,0,1,5.113-3.531,4.989,4.989,0,0,1,1.968.777l-.536,1.081a3.468,3.468,0,0,0-1.639-.688,2.848,2.848,0,0,0-3.4,2.559,2.819,2.819,0,0,0,2.278,3.525,4.234,4.234,0,0,0,1.878-.082Z" style="fill:#fff"/><path d="M575.791,379.592l1.431-8.1,1.473.26-1.431,8.1Zm3.474-10.088a.927.927,0,0,1-1.825-.322.909.909,0,0,1,1.083-.758A.888.888,0,0,1,579.265,369.5Z" style="fill:#fff"/><path d="M587.767,377.461a4.022,4.022,0,0,1-4.794,3.59,3.913,3.913,0,0,1-3.148-4.854A4.017,4.017,0,0,1,584.6,372.6,3.9,3.9,0,0,1,587.767,377.461Zm-6.443-1.053c-.313,1.776.472,3.295,1.911,3.549,1.406.248,2.694-.887,3.016-2.713.243-1.371-.136-3.234-1.877-3.541S581.6,374.869,581.324,376.408Zm6.007-6.74-2.465,2.033-1.054-.187,1.895-2.133Z" style="fill:#fff"/><path d="M589.941,376c.149-.836.253-1.525.322-2.2l1.3.23-.153,1.356.033.006a3.028,3.028,0,0,1,2.948-1.051c1.122.2,2.744,1.176,2.253,3.953l-.854,4.838-1.473-.26.824-4.67c.232-1.306-.062-2.48-1.451-2.724a2.126,2.126,0,0,0-2.242,1.156,2.2,2.2,0,0,0-.222.67l-.86,4.871-1.473-.262Z" style="fill:#fff"/><path d="M610.835,373.527l-1.731,9.791c-.126.721-.254,1.543-.3,2.106l-1.323-.235.182-1.417-.034-.006a3.043,3.043,0,0,1-3.042,1.1c-1.959-.346-3.173-2.269-2.737-4.73.459-2.7,2.424-4.061,4.4-3.711a2.755,2.755,0,0,1,2.226,1.67l.033.006.854-4.838Zm-2.725,6.821a2.6,2.6,0,0,0,.043-.631,2.2,2.2,0,0,0-1.824-2.084c-1.523-.268-2.664.91-2.98,2.7-.29,1.641.274,3.139,1.864,3.42a2.249,2.249,0,0,0,2.47-1.377,2.593,2.593,0,0,0,.179-.623Z" style="fill:#fff"/><path d="M612.669,382.205a2.636,2.636,0,0,0,2.281,3.3,5.4,5.4,0,0,0,2.318-.022l.064,1.1a6.637,6.637,0,0,1-2.783.025,3.82,3.82,0,0,1-3.263-4.787c.432-2.445,2.211-4.115,4.571-3.7,2.646.469,2.938,2.918,2.674,4.408a5.235,5.235,0,0,1-.172.678Zm4.5-.291a2.13,2.13,0,0,0-1.619-2.754,2.478,2.478,0,0,0-2.683,1.994Z" style="fill:#fff"/><path d="M621.667,375.439l1.473.262-2.1,11.885-1.473-.262Z" style="fill:#fff"/><path d="M629.083,377.527a15.311,15.311,0,0,1,2.837.26,4.679,4.679,0,0,1,3.1,1.5,2.849,2.849,0,0,1,.509,2.3,3.009,3.009,0,0,1-2.634,2.5l-.009.049a2.858,2.858,0,0,1,1.255,2.57,18.243,18.243,0,0,0,.323,3.25l-1.506-.266a14.782,14.782,0,0,1-.277-2.828c-.06-1.615-.56-2.308-1.873-2.591l-1.372-.243-.864,4.887-1.456-.258Zm.549,5.4,1.49.264c1.556.273,2.694-.4,2.922-1.694.258-1.457-.685-2.279-2.222-2.568a5.992,5.992,0,0,0-1.463-.119Z" style="fill:#fff"/><path d="M637.628,386.615a2.637,2.637,0,0,0,2.282,3.3,5.436,5.436,0,0,0,2.318-.021l.064,1.1a6.681,6.681,0,0,1-2.784.028,3.822,3.822,0,0,1-3.262-4.79c.432-2.443,2.211-4.115,4.571-3.7,2.645.467,2.938,2.918,2.674,4.408a5.356,5.356,0,0,1-.172.676Zm4.506-.291a2.133,2.133,0,0,0-1.619-2.756,2.483,2.483,0,0,0-2.684,2Z" style="fill:#fff"/><path d="M645.491,386.277c.183-1.037.3-1.88.4-2.656l1.322.235-.179,1.4.033.006a3.236,3.236,0,0,1,3.158-1.065c1.958.346,3.138,2.264,2.7,4.725-.515,2.912-2.543,4.039-4.451,3.7a2.886,2.886,0,0,1-2.27-1.713l-.033-.006-.779,4.4-1.456-.258Zm1.075,2.418a3.31,3.31,0,0,0-.04.614,2.311,2.311,0,0,0,1.906,2.115c1.556.275,2.684-.838,3.012-2.695.287-1.625-.321-3.165-1.878-3.44a2.594,2.594,0,0,0-2.754,2.016Z" style="fill:#fff"/><path d="M658.538,394.209l.063-1.041-.05-.008a3.072,3.072,0,0,1-2.691.768,2.346,2.346,0,0,1-2.066-2.766c.346-1.959,2.276-2.723,5.4-2.152l.03-.168a1.7,1.7,0,0,0-1.51-2.2,4.1,4.1,0,0,0-2.215.23l-.164-1.031a5.091,5.091,0,0,1,2.789-.248c2.477.437,2.781,2.234,2.494,3.857l-.535,3.03a11.6,11.6,0,0,0-.209,1.966Zm.513-4.172c-1.6-.316-3.476-.355-3.754,1.219a1.323,1.323,0,0,0,1.141,1.65,2.045,2.045,0,0,0,2.2-1.009,1.587,1.587,0,0,0,.167-.454Z" style="fill:#fff"/><path d="M663.105,389.268c.169-.954.3-1.778.38-2.539l1.289.228-.231,1.6.066.011a2.473,2.473,0,0,1,2.557-1.379,1.678,1.678,0,0,1,.41.125l-.245,1.389a2.264,2.264,0,0,0-.493-.139,2.1,2.1,0,0,0-2.31,1.543,4.383,4.383,0,0,0-.188.674l-.763,4.319-1.456-.258Z" style="fill:#fff"/><path d="M671.613,385.766l-.411,2.326,2.11.373-.2,1.123L671,389.215l-.773,4.367c-.176,1.006.007,1.625.828,1.77a3.307,3.307,0,0,0,.871.05l-.127,1.116a3.611,3.611,0,0,1-1.342-.03,2.068,2.068,0,0,1-1.481-.9,3.046,3.046,0,0,1-.2-2.209l.78-4.418-1.254-.223.2-1.121,1.255.221.342-1.941Z" style="fill:#fff"/><path d="M681.5,394.02a4.021,4.021,0,0,1-4.794,3.589,3.91,3.91,0,0,1-3.146-4.853,4.016,4.016,0,0,1,4.776-3.594A3.9,3.9,0,0,1,681.5,394.02Zm-6.442-1.053c-.314,1.775.471,3.3,1.911,3.549,1.406.248,2.693-.887,3.015-2.713.244-1.371-.135-3.235-1.876-3.541S675.325,391.428,675.054,392.967Z" style="fill:#fff"/><path d="M531.627,380.25l-1.731,9.791c-.126.721-.254,1.543-.3,2.106l-1.323-.235.182-1.418-.033-.006a3.041,3.041,0,0,1-3.043,1.1c-1.959-.346-3.173-2.268-2.737-4.729.459-2.7,2.425-4.06,4.4-3.711a2.755,2.755,0,0,1,2.226,1.67l.033.006.854-4.838Zm-2.725,6.82a2.55,2.55,0,0,0,.042-.631,2.2,2.2,0,0,0-1.823-2.083c-1.523-.27-2.664.91-2.98,2.7-.29,1.64.274,3.138,1.864,3.42a2.25,2.25,0,0,0,2.47-1.377,2.606,2.606,0,0,0,.179-.623Z" style="fill:#fff"/><path d="M533.46,388.928a2.636,2.636,0,0,0,2.282,3.3,5.4,5.4,0,0,0,2.318-.022l.064,1.1a6.729,6.729,0,0,1-2.784.025,3.82,3.82,0,0,1-3.262-4.787c.432-2.445,2.211-4.115,4.571-3.7,2.645.466,2.937,2.918,2.674,4.408a5.551,5.551,0,0,1-.172.678Zm4.506-.291a2.13,2.13,0,0,0-1.619-2.754,2.478,2.478,0,0,0-2.683,1.994Z" style="fill:#fff"/><path d="M551.907,395.709a7.375,7.375,0,0,1-3.074.008c-3.181-.561-5.22-2.992-4.566-6.692a5.7,5.7,0,0,1,6.939-4.884,6.132,6.132,0,0,1,2.589.974l-.561,1.127a5.4,5.4,0,0,0-2.193-.871c-2.645-.467-4.7.912-5.226,3.875-.487,2.762.789,4.818,3.535,5.3a5.918,5.918,0,0,0,2.46-.049Z" style="fill:#fff"/><path d="M557.986,397.162l.064-1.043-.051-.008a3.062,3.062,0,0,1-2.689.768,2.345,2.345,0,0,1-2.068-2.764c.346-1.959,2.277-2.722,5.4-2.152l.03-.168a1.7,1.7,0,0,0-1.511-2.2,4.09,4.09,0,0,0-2.216.228l-.162-1.029a5.116,5.116,0,0,1,2.788-.25c2.478.437,2.781,2.234,2.5,3.859l-.535,3.03a11.481,11.481,0,0,0-.21,1.964Zm.513-4.174c-1.6-.316-3.476-.353-3.754,1.219a1.324,1.324,0,0,0,1.141,1.652,2.048,2.048,0,0,0,2.2-1.009,1.566,1.566,0,0,0,.167-.455Z" style="fill:#fff"/><path d="M562.554,392.221c.168-.955.3-1.778.38-2.539l1.289.226-.232,1.6.068.012a2.463,2.463,0,0,1,2.556-1.377,1.622,1.622,0,0,1,.41.123l-.246,1.39a2.335,2.335,0,0,0-.493-.14,2.1,2.1,0,0,0-2.309,1.543,4.18,4.18,0,0,0-.189.673l-.763,4.321-1.457-.258Z" style="fill:#fff"/><path d="M575.32,391.869c-.136.58-.285,1.229-.46,2.215l-.831,4.7c-.328,1.86-.9,2.932-1.808,3.5a4.36,4.36,0,0,1-3.117.451,5.31,5.31,0,0,1-2.578-1.146l.567-1.057a4.641,4.641,0,0,0,2.264,1.057c1.506.266,2.75-.326,3.112-2.367l.159-.905-.033,0a2.946,2.946,0,0,1-2.818.9c-2.008-.355-3.146-2.316-2.75-4.561.486-2.744,2.551-3.984,4.41-3.656a2.739,2.739,0,0,1,2.279,1.852l.033.006.283-1.209Zm-2.088,2.93a2.185,2.185,0,0,0-1.749-2.606c-1.406-.248-2.621.762-2.952,2.637-.28,1.59.289,3.055,1.879,3.336a2.189,2.189,0,0,0,2.309-1.146,2.574,2.574,0,0,0,.257-.766Z" style="fill:#fff"/><path d="M580.753,401.184l.063-1.041-.049-.01a3.061,3.061,0,0,1-2.691.767,2.344,2.344,0,0,1-2.067-2.763c.346-1.959,2.277-2.723,5.4-2.153l.029-.168a1.694,1.694,0,0,0-1.509-2.2,4.1,4.1,0,0,0-2.216.229l-.163-1.03a5.125,5.125,0,0,1,2.788-.25c2.477.438,2.782,2.235,2.5,3.86l-.535,3.029a11.7,11.7,0,0,0-.21,1.965Zm.513-4.174c-1.6-.317-3.476-.354-3.753,1.221a1.322,1.322,0,0,0,1.14,1.65,2.051,2.051,0,0,0,2.2-1.01,1.6,1.6,0,0,0,.166-.453Z" style="fill:#fff"/><path d="M584.4,400.275a3.906,3.906,0,0,0,1.838.928c1.072.19,1.668-.258,1.786-.926.125-.7-.225-1.162-1.242-1.755-1.365-.778-1.909-1.7-1.738-2.672a2.536,2.536,0,0,1,3.216-1.883,4.1,4.1,0,0,1,1.9.853l-.557,1.006a3.19,3.19,0,0,0-1.575-.762,1.2,1.2,0,0,0-1.551.866c-.118.67.315,1.056,1.3,1.644,1.312.785,1.908,1.615,1.695,2.821-.252,1.421-1.534,2.232-3.459,1.89a4.678,4.678,0,0,1-2.179-.953Z" style="fill:#fff"/><path d="M596.481,395.607l.928,5.1c.09.568.179,1.24.228,1.75l.033.006c.236-.461.514-1.049.816-1.6l2.448-4.47,1.556.275-3.229,5.385c-1.545,2.592-2.517,3.888-3.675,4.58a4.042,4.042,0,0,1-1.977.635l-.149-1.3a3.979,3.979,0,0,0,1.416-.492,4.551,4.551,0,0,0,1.529-1.422,1.086,1.086,0,0,0,.179-.33,1.323,1.323,0,0,0-.032-.405l-1.678-7.994Z" style="fill:#fff"/><path d="M605.881,405.623c.132-.547.309-1.361.436-2.08l1.731-9.793,1.456.258-.9,5.088.034.006a3.065,3.065,0,0,1,3.025-1c2.008.355,3.136,2.281,2.684,4.738-.512,2.9-2.59,4.014-4.4,3.693a2.929,2.929,0,0,1-2.442-2l-.051-.007-.3,1.326Zm2.1-2.978a2.828,2.828,0,0,0-.029.546,2.31,2.31,0,0,0,1.9,2.116c1.541.273,2.683-.821,3.011-2.678.287-1.625-.3-3.162-1.878-3.44a2.384,2.384,0,0,0-2.562,1.413,2.89,2.89,0,0,0-.191.587Z" style="fill:#fff"/><path d="M616.962,403.68a2.634,2.634,0,0,0,2.282,3.3,5.383,5.383,0,0,0,2.317-.021l.064,1.1a6.723,6.723,0,0,1-2.783.025,3.822,3.822,0,0,1-3.263-4.789c.432-2.443,2.212-4.113,4.571-3.7,2.646.466,2.938,2.918,2.674,4.408a5.551,5.551,0,0,1-.172.678Zm4.5-.291a2.128,2.128,0,0,0-1.619-2.754,2.477,2.477,0,0,0-2.683,1.994Z" style="fill:#fff"/><path d="M624.9,402.891c.148-.836.252-1.528.321-2.205l1.3.23-.152,1.356.033,0a3.024,3.024,0,0,1,2.947-1.05c1.121.2,2.745,1.175,2.253,3.953l-.854,4.838-1.473-.26.825-4.67c.231-1.307-.063-2.481-1.452-2.725a2.194,2.194,0,0,0-2.463,1.826l-.861,4.872-1.473-.262Z" style="fill:#fff"/><path d="M634.64,406.8a2.635,2.635,0,0,0,2.282,3.3,5.389,5.389,0,0,0,2.316-.022l.065,1.1a6.723,6.723,0,0,1-2.783.025,3.822,3.822,0,0,1-3.263-4.789c.432-2.443,2.212-4.113,4.571-3.7,2.646.466,2.938,2.918,2.674,4.408a5.784,5.784,0,0,1-.171.678Zm4.5-.291a2.128,2.128,0,0,0-1.62-2.754,2.476,2.476,0,0,0-2.682,1.994Z" style="fill:#fff"/><path d="M641.688,411.949l1.234-6.98-1.139-.2.2-1.121,1.139.2.077-.436a3.3,3.3,0,0,1,4.156-2.908,4.118,4.118,0,0,1,1.964.9l-.617,1.047a3.129,3.129,0,0,0-1.624-.769c-1.556-.276-2.2.732-2.429,2.021l-.071.4,4.7.83-1.431,8.1-1.456-.258,1.233-6.978-3.248-.574-1.233,6.98Z" style="fill:#fff"/><path d="M656.122,414.188a5.523,5.523,0,0,1-2.409.058,3.909,3.909,0,0,1-3.3-4.848,4.18,4.18,0,0,1,5.112-3.533,5.015,5.015,0,0,1,1.968.78l-.536,1.08a3.464,3.464,0,0,0-1.64-.688,3.1,3.1,0,0,0-1.125,6.084,4.213,4.213,0,0,0,1.877-.082Z" style="fill:#fff"/><path d="M657.793,414.8l1.432-8.1,1.472.26-1.43,8.1Zm3.475-10.09a.927.927,0,0,1-1.826-.322.913.913,0,0,1,1.083-.758A.89.89,0,0,1,661.268,404.705Z" style="fill:#fff"/><path d="M669.77,412.664a4.019,4.019,0,0,1-4.794,3.588,3.911,3.911,0,0,1-3.147-4.854,4.017,4.017,0,0,1,4.777-3.591A3.9,3.9,0,0,1,669.77,412.664Zm-6.443-1.053c-.313,1.776.471,3.3,1.911,3.549,1.406.248,2.695-.888,3.017-2.713.242-1.371-.137-3.234-1.878-3.541S663.6,410.072,663.327,411.611Z" style="fill:#fff"/><path d="M670.967,415.568a3.9,3.9,0,0,0,1.838.928c1.071.19,1.668-.258,1.786-.926.125-.7-.226-1.162-1.242-1.756-1.366-.777-1.911-1.7-1.739-2.671a2.536,2.536,0,0,1,3.216-1.883,4.106,4.106,0,0,1,1.9.853l-.557,1.006a3.194,3.194,0,0,0-1.575-.762,1.2,1.2,0,0,0-1.551.866c-.118.67.313,1.056,1.3,1.644,1.31.785,1.907,1.615,1.694,2.821-.252,1.421-1.533,2.232-3.459,1.89a4.678,4.678,0,0,1-2.179-.953Z" style="fill:#fff"/><path d="M99.1,281.366a14.132,14.132,0,0,1-4.593.8,7.685,7.685,0,0,1-5.588-1.905,7.066,7.066,0,0,1-1.989-5.248c0-4.508,3.217-7.408,7.936-7.408a9.444,9.444,0,0,1,3.788.678l-.571,2.094a7.692,7.692,0,0,0-3.238-.613c-3.047,0-5.185,1.8-5.185,5.122,0,3.237,1.989,5.164,4.952,5.164a4.993,4.993,0,0,0,1.969-.3V276.2H94.062v-2.053H99.1Z" style="fill:#112025"/><path d="M109.745,275.694h-5.376v4.19h6.011v2.138h-8.613V267.757h8.3V269.9h-5.694v3.683h5.376Z" style="fill:#112025"/><path d="M112.6,279.186a7.22,7.22,0,0,0,3.45.91c1.672,0,2.6-.783,2.6-1.947,0-1.079-.719-1.714-2.54-2.37-2.348-.847-3.851-2.1-3.851-4.149,0-2.328,1.947-4.105,5.037-4.105a7.531,7.531,0,0,1,3.428.72l-.634,2.094a6.048,6.048,0,0,0-2.836-.676c-1.652,0-2.371.888-2.371,1.714,0,1.1.825,1.608,2.73,2.349,2.477.931,3.683,2.18,3.683,4.233,0,2.286-1.736,4.275-5.418,4.275a8.477,8.477,0,0,1-3.852-.889Z" style="fill:#112025"/><path d="M126.383,269.937h-4.064v-2.18h10.773v2.18h-4.106v12.085h-2.6Z" style="fill:#112025"/><path d="M137.368,267.757v14.265h-2.6V267.757Z" style="fill:#112025"/><path d="M153.009,274.742c0,4.783-2.9,7.512-6.836,7.512-4.021,0-6.561-3.068-6.561-7.258,0-4.381,2.752-7.471,6.773-7.471C150.555,267.525,153.009,270.678,153.009,274.742Zm-10.645.212c0,2.9,1.46,5.206,3.957,5.206,2.519,0,3.937-2.328,3.937-5.313,0-2.687-1.333-5.227-3.937-5.227C143.739,269.62,142.364,272.011,142.364,274.954Zm7.365-10.54-2.646,2.54h-2.095l1.863-2.54Z" style="fill:#112025"/><path d="M155.255,282.022V267.757h2.963l3.682,6.117a39.106,39.106,0,0,1,2.434,4.783h.042c-.169-1.9-.232-3.746-.232-5.926v-4.974h2.412v14.265h-2.688l-3.724-6.265a49.407,49.407,0,0,1-2.561-4.93l-.063.02c.1,1.842.126,3.725.126,6.074v5.1Z" style="fill:#112025"/><path d="M308.636,234.614a20.83,20.83,0,0,1,3.84-.321c2.138,0,3.518.39,4.484,1.264a3.863,3.863,0,0,1,1.219,2.944,4.071,4.071,0,0,1-2.921,3.955v.068c1.195.414,1.908,1.519,2.276,3.128a24.681,24.681,0,0,0,1.2,4.254h-2.07a20.119,20.119,0,0,1-1.034-3.7c-.46-2.139-1.288-2.944-3.1-3.013h-1.885v6.715h-2Zm2,7.059h2.047c2.138,0,3.5-1.172,3.5-2.943,0-2-1.449-2.874-3.565-2.9a8.169,8.169,0,0,0-1.977.184Z" style="fill:#fff"/><path d="M322.159,244.709a3.565,3.565,0,0,0,3.818,3.863,7.335,7.335,0,0,0,3.081-.574l.344,1.448a9.014,9.014,0,0,1-3.7.689c-3.427,0-5.472-2.253-5.472-5.61s1.977-6,5.219-6c3.633,0,4.6,3.2,4.6,5.243a7.883,7.883,0,0,1-.068.943Zm5.933-1.449c.022-1.288-.529-3.288-2.806-3.288-2.047,0-2.943,1.886-3.1,3.288Z" style="fill:#fff"/><path d="M332.555,242.41c0-1.426-.046-2.576-.092-3.634h1.816l.092,1.909h.046a4.376,4.376,0,0,1,3.955-2.162c2.691,0,4.714,2.276,4.714,5.657,0,4-2.438,5.979-5.059,5.979a3.9,3.9,0,0,1-3.425-1.748h-.047v6.048h-2Zm2,2.966a4.659,4.659,0,0,0,.092.828,3.122,3.122,0,0,0,3.036,2.368c2.138,0,3.38-1.747,3.38-4.3,0-2.23-1.173-4.139-3.311-4.139a3.23,3.23,0,0,0-3.059,2.506,3.282,3.282,0,0,0-.138.828Z" style="fill:#fff"/><path d="M351.8,249.906l-.16-1.4h-.07a4.144,4.144,0,0,1-3.4,1.656,3.171,3.171,0,0,1-3.4-3.2c0-2.69,2.391-4.162,6.691-4.138v-.231a2.294,2.294,0,0,0-2.529-2.575,5.549,5.549,0,0,0-2.9.828l-.46-1.334a6.918,6.918,0,0,1,3.657-.989c3.4,0,4.231,2.323,4.231,4.554v4.162a15.662,15.662,0,0,0,.184,2.667Zm-.3-5.68c-2.207-.046-4.714.345-4.714,2.507a1.791,1.791,0,0,0,1.909,1.931,2.77,2.77,0,0,0,2.691-1.863,2.135,2.135,0,0,0,.114-.643Z" style="fill:#fff"/><path d="M356.728,242.249c0-1.311-.024-2.438-.092-3.473h1.77l.069,2.184h.092a3.34,3.34,0,0,1,3.081-2.437,2.2,2.2,0,0,1,.576.069V240.5a3.044,3.044,0,0,0-.691-.069,2.837,2.837,0,0,0-2.713,2.6,5.7,5.7,0,0,0-.091.943v5.933h-2Z" style="fill:#fff"/><path d="M367.237,235.58v3.2h2.9v1.541h-2.9v6c0,1.379.391,2.161,1.518,2.161a4.5,4.5,0,0,0,1.173-.138l.092,1.518a4.958,4.958,0,0,1-1.794.275,2.808,2.808,0,0,1-2.185-.85,4.129,4.129,0,0,1-.781-2.9v-6.07h-1.725v-1.541h1.725v-2.667Z" style="fill:#fff"/><path d="M382.347,244.249c0,4.116-2.851,5.91-5.541,5.91-3.013,0-5.335-2.207-5.335-5.726,0-3.725,2.437-5.91,5.518-5.91C380.186,238.523,382.347,240.846,382.347,244.249Zm-8.83.115c0,2.437,1.4,4.277,3.38,4.277,1.932,0,3.38-1.816,3.38-4.323,0-1.886-.942-4.277-3.334-4.277S373.517,242.249,373.517,244.364Z" style="fill:#fff"/><path d="M399.391,233.58v13.452c0,.988.022,2.115.091,2.874h-1.816l-.093-1.932h-.046a4.116,4.116,0,0,1-3.794,2.185c-2.69,0-4.759-2.277-4.759-5.657-.024-3.7,2.276-5.979,4.989-5.979a3.72,3.72,0,0,1,3.357,1.7h.046V233.58Zm-2.025,9.726a3.514,3.514,0,0,0-.092-.85,2.975,2.975,0,0,0-2.92-2.346c-2.092,0-3.334,1.84-3.334,4.3,0,2.254,1.1,4.116,3.289,4.116a3.041,3.041,0,0,0,2.965-2.414,3.474,3.474,0,0,0,.092-.874Z" style="fill:#fff"/><path d="M403.877,244.709a3.565,3.565,0,0,0,3.816,3.863,7.33,7.33,0,0,0,3.082-.574l.345,1.448a9.018,9.018,0,0,1-3.7.689c-3.427,0-5.473-2.253-5.473-5.61s1.978-6,5.22-6c3.633,0,4.6,3.2,4.6,5.243a7.634,7.634,0,0,1-.069.943Zm5.933-1.449c.022-1.288-.53-3.288-2.806-3.288-2.047,0-2.943,1.886-3.105,3.288Z" style="fill:#fff"/><path d="M313.27,269.848c0-1.31-.024-2.437-.092-3.472h1.77l.069,2.184h.092a3.34,3.34,0,0,1,3.081-2.437,2.2,2.2,0,0,1,.576.069V268.1a3.048,3.048,0,0,0-.691-.068,2.837,2.837,0,0,0-2.713,2.6,5.721,5.721,0,0,0-.092.944v5.932h-2Z" style="fill:#fff"/><path d="M321.688,272.308a3.564,3.564,0,0,0,3.816,3.863,7.337,7.337,0,0,0,3.082-.574l.345,1.448a9,9,0,0,1-3.7.69c-3.427,0-5.473-2.253-5.473-5.61s1.977-6,5.22-6c3.632,0,4.6,3.2,4.6,5.243a7.863,7.863,0,0,1-.068.942Zm5.932-1.448c.023-1.288-.529-3.288-2.806-3.288-2.046,0-2.943,1.886-3.1,3.288Z" style="fill:#fff"/><path d="M340.017,277.091a7.447,7.447,0,0,1-3.2.644c-3.357,0-5.542-2.276-5.542-5.68a5.655,5.655,0,0,1,5.979-5.909,6.77,6.77,0,0,1,2.806.575l-.46,1.564a4.687,4.687,0,0,0-2.346-.53c-2.553,0-3.933,1.886-3.933,4.208a3.817,3.817,0,0,0,3.864,4.163,5.741,5.741,0,0,0,2.483-.552Z" style="fill:#fff"/><path d="M348.549,277.505l-.16-1.4h-.07a4.146,4.146,0,0,1-3.4,1.655,3.17,3.17,0,0,1-3.4-3.2c0-2.69,2.391-4.162,6.691-4.139v-.23a2.294,2.294,0,0,0-2.529-2.575,5.552,5.552,0,0,0-2.9.828l-.46-1.334a6.909,6.909,0,0,1,3.657-.989c3.4,0,4.231,2.323,4.231,4.553v4.162a15.654,15.654,0,0,0,.184,2.667Zm-.3-5.679c-2.207-.046-4.714.344-4.714,2.507a1.79,1.79,0,0,0,1.909,1.93,2.77,2.77,0,0,0,2.691-1.862,2.141,2.141,0,0,0,.114-.644Z" style="fill:#fff"/><path d="M353.473,269.848c0-1.31-.024-2.437-.092-3.472h1.77l.069,2.184h.093a3.338,3.338,0,0,1,3.081-2.437,2.2,2.2,0,0,1,.575.069V268.1a3.048,3.048,0,0,0-.691-.068,2.838,2.838,0,0,0-2.713,2.6,5.831,5.831,0,0,0-.092.944v5.932h-2Z" style="fill:#fff"/><path d="M370.4,266.376c-.045.8-.091,1.7-.091,3.058V275.9c0,2.552-.506,4.116-1.587,5.082a5.9,5.9,0,0,1-4.047,1.333,7.169,7.169,0,0,1-3.7-.92l.506-1.54a6.269,6.269,0,0,0,3.264.874c2.071,0,3.588-1.081,3.588-3.887V275.6h-.046a3.976,3.976,0,0,1-3.542,1.863c-2.759,0-4.736-2.346-4.736-5.427,0-3.772,2.46-5.91,5.013-5.91a3.7,3.7,0,0,1,3.472,1.931h.046l.092-1.678Zm-2.092,4.392a2.854,2.854,0,0,0-.116-.92,2.913,2.913,0,0,0-2.828-2.138c-1.931,0-3.311,1.632-3.311,4.208,0,2.184,1.1,4,3.289,4a2.958,2.958,0,0,0,2.805-2.069,3.517,3.517,0,0,0,.161-1.081Z" style="fill:#fff"/><path d="M379.827,277.505l-.16-1.4H379.6a4.148,4.148,0,0,1-3.4,1.655,3.17,3.17,0,0,1-3.4-3.2c0-2.69,2.392-4.162,6.691-4.139v-.23a2.294,2.294,0,0,0-2.529-2.575,5.546,5.546,0,0,0-2.9.828l-.46-1.334a6.908,6.908,0,0,1,3.656-.989c3.4,0,4.231,2.323,4.231,4.553v4.162a15.654,15.654,0,0,0,.184,2.667Zm-.3-5.679c-2.207-.046-4.714.344-4.714,2.507a1.79,1.79,0,0,0,1.91,1.93,2.769,2.769,0,0,0,2.69-1.862,2.141,2.141,0,0,0,.114-.644Z" style="fill:#fff"/><path d="M384.475,275.436a5.3,5.3,0,0,0,2.668.805c1.471,0,2.161-.737,2.161-1.656,0-.965-.575-1.5-2.07-2.046-2-.713-2.943-1.817-2.943-3.151,0-1.794,1.448-3.265,3.84-3.265a5.549,5.549,0,0,1,2.736.69l-.506,1.472a4.315,4.315,0,0,0-2.276-.645c-1.195,0-1.862.691-1.862,1.518,0,.92.667,1.334,2.115,1.885,1.932.737,2.921,1.7,2.921,3.358,0,1.955-1.518,3.334-4.162,3.334a6.348,6.348,0,0,1-3.128-.759Z" style="fill:#fff"/><path d="M399.47,266.376l2.437,6.577c.253.735.53,1.609.713,2.276h.046c.207-.667.438-1.518.713-2.322l2.208-6.531h2.139l-3.036,7.933c-1.449,3.818-2.437,5.772-3.817,6.968a5.478,5.478,0,0,1-2.483,1.31l-.506-1.7a5.318,5.318,0,0,0,1.77-.988,6.125,6.125,0,0,0,1.7-2.254,1.456,1.456,0,0,0,.162-.482,1.762,1.762,0,0,0-.138-.53l-4.116-10.255Z" style="fill:#fff"/><path d="M312.155,305.106c.046-.759.092-1.886.092-2.875V288.78h2v6.99h.046a4.143,4.143,0,0,1,3.794-2.047c2.759,0,4.714,2.3,4.69,5.679,0,3.979-2.506,5.956-4.989,5.956a3.968,3.968,0,0,1-3.726-2.092h-.069l-.092,1.84Zm2.093-4.461a3.789,3.789,0,0,0,.092.735,3.121,3.121,0,0,0,3.035,2.369c2.115,0,3.38-1.725,3.38-4.277,0-2.231-1.15-4.139-3.311-4.139a3.226,3.226,0,0,0-3.082,2.483,3.994,3.994,0,0,0-.114.828Z" style="fill:#fff"/><path d="M326.461,299.908a3.565,3.565,0,0,0,3.816,3.864,7.312,7.312,0,0,0,3.082-.575l.345,1.449a9.018,9.018,0,0,1-3.7.689c-3.427,0-5.473-2.253-5.473-5.61s1.978-6,5.22-6c3.633,0,4.6,3.2,4.6,5.243a7.614,7.614,0,0,1-.069.942Zm5.933-1.448c.022-1.288-.53-3.288-2.806-3.288-2.047,0-2.943,1.886-3.105,3.288Z" style="fill:#fff"/><path d="M336.856,296.988c0-1.149-.023-2.092-.091-3.012h1.793l.115,1.839h.046a4.094,4.094,0,0,1,3.679-2.092c1.54,0,3.932.92,3.932,4.737v6.646h-2.023v-6.417c0-1.792-.667-3.288-2.576-3.288a2.876,2.876,0,0,0-2.713,2.07,2.91,2.91,0,0,0-.138.943v6.692h-2.024Z" style="fill:#fff"/><path d="M350.748,299.908a3.565,3.565,0,0,0,3.816,3.864,7.312,7.312,0,0,0,3.082-.575l.345,1.449a9.014,9.014,0,0,1-3.7.689c-3.427,0-5.473-2.253-5.473-5.61s1.978-6,5.22-6c3.633,0,4.6,3.2,4.6,5.243a7.614,7.614,0,0,1-.069.942Zm5.933-1.448c.022-1.288-.53-3.288-2.806-3.288-2.047,0-2.943,1.886-3.1,3.288Z" style="fill:#fff"/><path d="M361.351,305.106v-9.589h-1.564v-1.541h1.564v-.6a4.459,4.459,0,0,1,4.851-4.851,5.571,5.571,0,0,1,2.829.735l-.575,1.541a4.261,4.261,0,0,0-2.346-.643c-2.138,0-2.759,1.494-2.759,3.264v.552h6.462v11.13h-2v-9.589h-4.462v9.589Z" style="fill:#fff"/><path d="M381.106,304.691a7.438,7.438,0,0,1-3.2.644c-3.357,0-5.542-2.276-5.542-5.68a5.655,5.655,0,0,1,5.979-5.908,6.763,6.763,0,0,1,2.805.574l-.46,1.564a4.681,4.681,0,0,0-2.345-.529c-2.553,0-3.933,1.885-3.933,4.208a3.816,3.816,0,0,0,3.863,4.162,5.742,5.742,0,0,0,2.484-.552Z" style="fill:#fff"/><path d="M385.73,290.849a1.253,1.253,0,0,1-2.506,0,1.232,1.232,0,0,1,1.264-1.264A1.2,1.2,0,0,1,385.73,290.849Zm-2.253,14.257v-11.13H385.5v11.13Z" style="fill:#fff"/><path d="M398.93,299.448c0,4.116-2.851,5.91-5.541,5.91-3.013,0-5.335-2.207-5.335-5.725,0-3.726,2.437-5.91,5.518-5.91C396.769,293.723,398.93,296.046,398.93,299.448Zm-8.83.116c0,2.437,1.4,4.277,3.38,4.277,1.932,0,3.38-1.817,3.38-4.323,0-1.886-.942-4.278-3.334-4.278S390.1,297.448,390.1,299.564Z" style="fill:#fff"/><path d="M401.209,303.036a5.308,5.308,0,0,0,2.668.805c1.472,0,2.161-.736,2.161-1.655,0-.966-.574-1.5-2.069-2.047-2-.713-2.944-1.817-2.944-3.151,0-1.794,1.449-3.265,3.84-3.265a5.556,5.556,0,0,1,2.737.69l-.506,1.472a4.322,4.322,0,0,0-2.277-.645c-1.195,0-1.862.691-1.862,1.518,0,.92.667,1.334,2.115,1.886,1.932.736,2.921,1.7,2.921,3.357,0,1.955-1.517,3.334-4.162,3.334a6.348,6.348,0,0,1-3.128-.759Z" style="fill:#fff"/></g></g></svg>