<svg xmlns="http://www.w3.org/2000/svg" viewBox="0 0 733.992 277.302"><g id="Capa_2" data-name="Capa 2"><g id="Capa_1-2" data-name="Capa 1"><path d="M453.306,197.66,281.718,171.57a158.493,158.493,0,0,0,1.783-23.731,156.646,156.646,0,0,0-4.79-38.57L446.923,66.514a330.39,330.39,0,0,1,10.138,81.328A332.5,332.5,0,0,1,453.306,197.66Z" style="fill:#3f3793"/><circle cx="127.695" cy="147.802" r="105" style="fill:#bdc4c6"/><circle cx="127.5" cy="149.802" r="127" style="fill:none;stroke:#aab8bd;stroke-miterlimit:10"/><circle cx="127.696" cy="147.967" r="105" style="fill:#bdc4c6"/><path d="M725.957,246.759,489.146,207.765a366.433,366.433,0,0,0,4.846-59.347,368.977,368.977,0,0,0-11.14-89.894L715.606,0a609.162,609.162,0,0,1,18.386,148.418A607.142,607.142,0,0,1,725.957,246.759Z" style="fill:#d36caf"/><path d="M444.781,196.476l-167.08-25.4a154.177,154.177,0,0,0,1.736-23.108,152.543,152.543,0,0,0-4.663-37.555L438.566,68.776a321.712,321.712,0,0,1,9.871,79.191A323.7,323.7,0,0,1,444.781,196.476Z" style="fill:#d36caf"/><path d="M329.292,130.322a26.17,26.17,0,0,1,3.885-.3c2.624,0,4.492.609,5.732,1.764a6.521,6.521,0,0,1,2,5.082,7.487,7.487,0,0,1-2.037,5.5c-1.323,1.323-3.506,2.037-6.257,2.037a29.489,29.489,0,0,1-3.318-.168Zm1.827,12.513a11.539,11.539,0,0,0,1.847.1c3.907,0,6.027-2.184,6.027-6,.02-3.338-1.868-5.459-5.732-5.459a10.3,10.3,0,0,0-2.142.19Z" style="fill:#fff"/><path d="M344.328,139.539a3.255,3.255,0,0,0,3.485,3.527,6.677,6.677,0,0,0,2.813-.525l.315,1.323a8.227,8.227,0,0,1-3.38.63c-3.128,0-5-2.058-5-5.123s1.806-5.481,4.766-5.481c3.318,0,4.2,2.919,4.2,4.787a6.8,6.8,0,0,1-.063.862Zm5.417-1.323c.02-1.175-.484-3-2.562-3-1.869,0-2.687,1.722-2.834,3Z" style="fill:#fff"/><path d="M353.568,142.394a4.839,4.839,0,0,0,2.435.734c1.344,0,1.973-.671,1.973-1.511,0-.881-.524-1.365-1.889-1.868-1.827-.652-2.687-1.66-2.687-2.876,0-1.639,1.322-2.983,3.506-2.983a5.068,5.068,0,0,1,2.5.631l-.461,1.344a3.962,3.962,0,0,0-2.079-.588c-1.092,0-1.7.629-1.7,1.385,0,.839.608,1.218,1.931,1.722,1.764.672,2.666,1.553,2.666,3.065,0,1.785-1.386,3.045-3.8,3.045a5.8,5.8,0,0,1-2.855-.694Z" style="fill:#fff"/><path d="M367.763,144.284,367.616,143h-.064a3.785,3.785,0,0,1-3.107,1.512,2.9,2.9,0,0,1-3.108-2.919c0-2.456,2.184-3.8,6.111-3.779v-.21a2.1,2.1,0,0,0-2.31-2.352,5.061,5.061,0,0,0-2.645.756l-.42-1.218a6.314,6.314,0,0,1,3.339-.9c3.107,0,3.863,2.121,3.863,4.158v3.8a14.209,14.209,0,0,0,.168,2.436Zm-.273-5.187c-2.016-.041-4.305.316-4.305,2.289a1.636,1.636,0,0,0,1.743,1.764,2.526,2.526,0,0,0,2.456-1.7,1.9,1.9,0,0,0,.106-.588Z" style="fill:#fff"/><path d="M372.257,137.292c0-1.2-.02-2.226-.084-3.17h1.618l.062,1.995h.084a3.05,3.05,0,0,1,2.814-2.227,2,2,0,0,1,.525.064V135.7a2.716,2.716,0,0,0-.63-.064,2.593,2.593,0,0,0-2.478,2.372,5.214,5.214,0,0,0-.084.862v5.417h-1.827Z" style="fill:#fff"/><path d="M379.208,137.292c0-1.2-.02-2.226-.083-3.17h1.617l.062,1.995h.084a3.05,3.05,0,0,1,2.815-2.227,1.994,1.994,0,0,1,.524.064V135.7a2.71,2.71,0,0,0-.63-.064,2.592,2.592,0,0,0-2.477,2.372,5.214,5.214,0,0,0-.084.862v5.417h-1.828Z" style="fill:#fff"/><path d="M395.062,139.119c0,3.757-2.6,5.4-5.06,5.4-2.751,0-4.871-2.015-4.871-5.228,0-3.4,2.226-5.4,5.039-5.4C393.089,133.89,395.062,136.011,395.062,139.119Zm-8.062.1c0,2.225,1.281,3.9,3.086,3.9,1.764,0,3.087-1.658,3.087-3.947,0-1.721-.861-3.9-3.045-3.9S387,137.292,387,139.224Z" style="fill:#fff"/><path d="M397.4,129.376h1.848v14.908H397.4Z" style="fill:#fff"/><path d="M402.351,129.376H404.2v14.908h-1.848Z" style="fill:#fff"/><path d="M416.5,139.119c0,3.757-2.6,5.4-5.059,5.4-2.751,0-4.871-2.015-4.871-5.228,0-3.4,2.225-5.4,5.039-5.4C414.531,133.89,416.5,136.011,416.5,139.119Zm-8.062.1c0,2.225,1.281,3.9,3.087,3.9,1.764,0,3.087-1.658,3.087-3.947,0-1.721-.862-3.9-3.045-3.9S408.441,137.292,408.441,139.224Z" style="fill:#fff"/><path d="M60.633,134.2h8.232v2.137h-5.63v3.937h5.249v2.138H63.235v6.052h-2.6Z" style="fill:#112025"/><path d="M74.009,134.2v14.264h-2.6V134.2Z" style="fill:#112025"/><path d="M76.994,148.464V134.2h2.963l3.683,6.116a39.309,39.309,0,0,1,2.433,4.783h.042c-.169-1.9-.232-3.746-.232-5.926V134.2H88.3v14.264H85.607L81.883,142.2a49.956,49.956,0,0,1-2.561-4.931l-.063.021c.105,1.841.127,3.724.127,6.074v5.1Z" style="fill:#112025"/><path d="M94.159,144.422l-1.227,4.042H90.244L94.815,134.2h3.324l4.634,14.264H99.979l-1.291-4.042Zm4.085-1.968-1.122-3.513c-.274-.868-.508-1.842-.719-2.667H96.36c-.211.825-.422,1.82-.676,2.667l-1.1,3.513Z" style="fill:#112025"/><path d="M104.765,148.464V134.2h2.963l3.682,6.116a39.32,39.32,0,0,1,2.434,4.783h.042c-.169-1.9-.233-3.746-.233-5.926V134.2h2.412v14.264h-2.687l-3.725-6.264a49.732,49.732,0,0,1-2.56-4.931l-.064.021c.106,1.841.127,3.724.127,6.074v5.1Z" style="fill:#112025"/><path d="M129.295,148.042a9.025,9.025,0,0,1-3.683.634c-4.528,0-7.28-2.836-7.28-7.175,0-4.7,3.26-7.534,7.619-7.534a8.2,8.2,0,0,1,3.471.635l-.571,2.074a6.919,6.919,0,0,0-2.794-.551c-2.9,0-4.994,1.821-4.994,5.25,0,3.131,1.84,5.142,4.973,5.142a7.3,7.3,0,0,0,2.836-.529Z" style="fill:#112025"/><path d="M134.122,134.2v14.264h-2.6V134.2Z" style="fill:#112025"/><path d="M139.964,144.422l-1.228,4.042h-2.687L140.62,134.2h3.323l4.635,14.264h-2.794l-1.291-4.042Zm4.085-1.968-1.122-3.513c-.275-.868-.508-1.842-.719-2.667h-.043c-.211.825-.423,1.82-.677,2.667l-1.1,3.513Z" style="fill:#112025"/><path d="M160.347,148.042a9.029,9.029,0,0,1-3.683.634c-4.528,0-7.28-2.836-7.28-7.175,0-4.7,3.26-7.534,7.619-7.534a8.2,8.2,0,0,1,3.471.635l-.572,2.074a6.911,6.911,0,0,0-2.794-.551c-2.9,0-4.994,1.821-4.994,5.25,0,3.131,1.841,5.142,4.974,5.142a7.3,7.3,0,0,0,2.836-.529Z" style="fill:#112025"/><path d="M165.174,134.2v14.264h-2.6V134.2Z" style="fill:#112025"/><path d="M180.814,141.184c0,4.783-2.9,7.513-6.835,7.513-4.021,0-6.561-3.069-6.561-7.259,0-4.381,2.752-7.471,6.772-7.471C178.36,133.967,180.814,137.121,180.814,141.184Zm-10.644.212c0,2.9,1.46,5.206,3.957,5.206,2.519,0,3.936-2.328,3.936-5.312,0-2.688-1.333-5.228-3.936-5.228C171.545,136.062,170.17,138.454,170.17,141.4Zm7.364-10.54-2.645,2.54h-2.095l1.862-2.54Z" style="fill:#112025"/><path d="M183.061,148.464V134.2h2.962l3.683,6.116a39.464,39.464,0,0,1,2.434,4.783h.042c-.169-1.9-.233-3.746-.233-5.926V134.2h2.412v14.264h-2.687l-3.725-6.264a49.732,49.732,0,0,1-2.56-4.931l-.064.021c.106,1.841.127,3.724.127,6.074v5.1Z" style="fill:#112025"/><path d="M542.514,97.628a19.033,19.033,0,0,1,3.5-.343c1.953-.028,3.219.312,4.111,1.1a3.528,3.528,0,0,1,1.15,2.672,3.717,3.717,0,0,1-2.614,3.648v.063a3.524,3.524,0,0,1,2.117,2.826,22.782,22.782,0,0,0,1.146,3.868l-1.887.027a18.234,18.234,0,0,1-.993-3.366c-.447-1.947-1.213-2.671-2.873-2.711l-1.722.024.086,6.13-1.827.026Zm1.916,6.419,1.869-.026c1.953-.027,3.177-1.115,3.155-2.732-.027-1.827-1.36-2.605-3.291-2.6a7.472,7.472,0,0,0-1.805.193Z" style="fill:#fff"/><path d="M554.99,106.671a3.256,3.256,0,0,0,3.535,3.478,6.68,6.68,0,0,0,2.805-.565l.333,1.319a8.233,8.233,0,0,1-3.371.678c-3.127.043-5.025-1.988-5.068-5.053s1.729-5.505,4.689-5.547c3.317-.046,4.239,2.859,4.265,4.728a6.9,6.9,0,0,1-.051.862Zm5.4-1.4c0-1.176-.525-3-2.6-2.966-1.869.027-2.663,1.759-2.792,3.042Z" style="fill:#fff"/><path d="M570.174,111.2l-.165-1.279h-.063a3.786,3.786,0,0,1-3.086,1.555,2.9,2.9,0,0,1-3.149-2.875c-.035-2.456,2.13-3.83,6.057-3.864l0-.21a2.1,2.1,0,0,0-2.342-2.319,5.071,5.071,0,0,0-2.635.793l-.437-1.212a6.3,6.3,0,0,1,3.326-.949c3.107-.044,3.892,2.066,3.921,4.1l.053,3.8a14.237,14.237,0,0,0,.2,2.433Zm-.345-5.182c-2.017-.014-4.3.375-4.273,2.349a1.635,1.635,0,0,0,1.768,1.738,2.526,2.526,0,0,0,2.432-1.734,1.9,1.9,0,0,0,.1-.589Z" style="fill:#fff"/><path d="M572.233,114.114a2.987,2.987,0,0,0,2-.805c.5-.594.673-1.395.638-3.83l-.119-8.5,1.848-.026.13,9.217c.027,1.973-.271,3.258-1.159,4.194a4.694,4.694,0,0,1-3.134,1.2Zm4.541-16.022a1.084,1.084,0,0,1-1.138,1.15,1.1,1.1,0,0,1-1.151-1.117,1.133,1.133,0,0,1,1.16-1.172A1.092,1.092,0,0,1,576.774,98.092Z" style="fill:#fff"/><path d="M588.235,108.178c.015,1.05.05,1.973.123,2.77l-1.638.024-.128-1.658h-.043a3.817,3.817,0,0,1-3.332,1.936c-1.6.023-3.517-.832-3.567-4.4l-.084-5.941,1.847-.026.079,5.626c.027,1.931.633,3.225,2.313,3.2a2.6,2.6,0,0,0,2.567-2.66l-.088-6.236,1.847-.025Z" style="fill:#fff"/><path d="M591.061,109.021a4.848,4.848,0,0,0,2.446.7c1.344-.019,1.965-.7,1.953-1.539-.012-.882-.544-1.357-1.917-1.842-1.835-.625-2.71-1.621-2.727-2.839-.024-1.637,1.281-3,3.465-3.03a5.086,5.086,0,0,1,2.508.595l-.445,1.351a3.939,3.939,0,0,0-2.086-.56c-1.091.016-1.692.654-1.681,1.41.011.839.626,1.209,1.956,1.694,1.772.647,2.688,1.517,2.71,3.028.024,1.784-1.344,3.064-3.758,3.1a5.785,5.785,0,0,1-2.865-.652Z" style="fill:#fff"/><path d="M601.7,97.68l.041,2.918,2.644-.037.02,1.406-2.645.037.077,5.48c.018,1.259.385,1.968,1.414,1.954a4.083,4.083,0,0,0,1.069-.142l.1,1.385a4.521,4.521,0,0,1-1.634.275,2.556,2.556,0,0,1-2-.749,3.758,3.758,0,0,1-.752-2.635l-.078-5.542-1.573.022-.02-1.407,1.573-.022-.034-2.435Z" style="fill:#fff"/><path d="M607.442,105.935a3.255,3.255,0,0,0,3.534,3.478,6.688,6.688,0,0,0,2.806-.564l.333,1.318a8.223,8.223,0,0,1-3.371.677c-3.127.044-5.025-1.987-5.068-5.052s1.729-5.5,4.688-5.546c3.318-.047,4.24,2.858,4.266,4.727a7.142,7.142,0,0,1-.05.862Zm5.4-1.4c0-1.177-.525-3-2.6-2.967-1.868.027-2.662,1.759-2.791,3.042Z" style="fill:#fff"/><path d="M630.017,95.455l.173,12.281c.013.9.047,1.932.12,2.624l-1.658.023-.109-1.762H628.5a3.759,3.759,0,0,1-3.436,2.044c-2.456.034-4.375-2.018-4.419-5.1-.068-3.38,2-5.488,4.48-5.522a3.394,3.394,0,0,1,3.086,1.51h.043l-.085-6.067Zm-1.722,8.906a3.306,3.306,0,0,0-.094-.775,2.721,2.721,0,0,0-2.7-2.1c-1.911.027-3.02,1.722-2.989,3.969.029,2.057,1.061,3.743,3.055,3.716a2.783,2.783,0,0,0,2.679-2.243,3.288,3.288,0,0,0,.072-.8Z" style="fill:#fff"/><path d="M634.255,105.559a3.257,3.257,0,0,0,3.536,3.478,6.693,6.693,0,0,0,2.8-.564l.333,1.318a8.235,8.235,0,0,1-3.37.677c-3.128.044-5.025-1.988-5.068-5.052s1.728-5.5,4.688-5.547c3.318-.046,4.239,2.86,4.266,4.728a6.864,6.864,0,0,1-.051.861Zm5.4-1.4c0-1.176-.526-2.995-2.6-2.966-1.869.026-2.663,1.759-2.792,3.042Z" style="fill:#fff"/><path d="M650.306,97l.041,2.918,2.645-.038.02,1.407-2.644.037.076,5.48c.017,1.259.385,1.968,1.413,1.953a4.043,4.043,0,0,0,1.069-.141l.1,1.385a4.528,4.528,0,0,1-1.635.275,2.557,2.557,0,0,1-2-.749,3.765,3.765,0,0,1-.752-2.635l-.077-5.542-1.574.022-.02-1.407,1.574-.022-.035-2.436Z" style="fill:#fff"/><path d="M657.09,96.965A1.145,1.145,0,0,1,654.8,97a1.126,1.126,0,0,1,1.139-1.171A1.1,1.1,0,0,1,657.09,96.965Zm-1.876,13.045-.142-10.161,1.847-.026.143,10.161Z" style="fill:#fff"/><path d="M661.09,105.182a3.256,3.256,0,0,0,3.535,3.478,6.68,6.68,0,0,0,2.806-.564l.333,1.318a8.233,8.233,0,0,1-3.371.678c-3.128.043-5.025-1.988-5.068-5.053s1.728-5.5,4.688-5.546c3.319-.047,4.239,2.859,4.266,4.728a6.878,6.878,0,0,1-.051.861Zm5.4-1.4c0-1.177-.526-3-2.6-2.967-1.869.027-2.663,1.76-2.792,3.042Z" style="fill:#fff"/><path d="M670.55,102.8c-.016-1.2-.052-2.225-.129-3.169l1.617-.023.091,1.994h.084A3.046,3.046,0,0,1,675,99.339a1.939,1.939,0,0,1,.526.056l.024,1.742a2.765,2.765,0,0,0-.63-.054,2.593,2.593,0,0,0-2.445,2.407,5.29,5.29,0,0,0-.072.862l.076,5.416-1.826.026Z" style="fill:#fff"/><path d="M677.5,102.705c-.016-1.2-.052-2.225-.128-3.169l1.615-.022.092,1.993h.084a3.047,3.047,0,0,1,2.781-2.265,1.979,1.979,0,0,1,.526.056l.025,1.743a2.775,2.775,0,0,0-.631-.055,2.593,2.593,0,0,0-2.445,2.407,5.3,5.3,0,0,0-.072.862l.076,5.417-1.825.025Z" style="fill:#fff"/><path d="M689.986,109.522l-.165-1.278h-.064a3.783,3.783,0,0,1-3.085,1.555,2.9,2.9,0,0,1-3.148-2.875c-.035-2.456,2.13-3.83,6.056-3.864l0-.21a2.1,2.1,0,0,0-2.341-2.319,5.066,5.066,0,0,0-2.636.793l-.436-1.212a6.292,6.292,0,0,1,3.325-.949c3.107-.044,3.892,2.066,3.922,4.1l.052,3.8a14.231,14.231,0,0,0,.2,2.433Zm-.346-5.181c-2.016-.014-4.3.375-4.271,2.348a1.634,1.634,0,0,0,1.767,1.739,2.527,2.527,0,0,0,2.432-1.735,1.958,1.958,0,0,0,.1-.589Z" style="fill:#fff"/><path d="M694.2,107.573a4.845,4.845,0,0,0,2.446.7c1.343-.019,1.964-.7,1.952-1.54-.013-.881-.545-1.356-1.916-1.841-1.835-.625-2.711-1.621-2.727-2.839-.024-1.637,1.281-3,3.463-3.03a5.08,5.08,0,0,1,2.508.595l-.444,1.35a3.952,3.952,0,0,0-2.086-.559c-1.091.016-1.691.654-1.681,1.409.012.84.626,1.21,1.955,1.695,1.773.647,2.689,1.516,2.71,3.028.025,1.784-1.343,3.063-3.757,3.1a5.787,5.787,0,0,1-2.865-.653Z" style="fill:#fff"/><path d="M543.53,126.617l2.309,5.972c.241.669.5,1.463.68,2.069h.042c.182-.612.38-1.391.621-2.13l1.932-5.99,1.952-.027-2.669,7.281c-1.273,3.5-2.151,5.3-3.4,6.411a5,5,0,0,1-2.251,1.227l-.483-1.545a4.91,4.91,0,0,0,1.6-.926,5.6,5.6,0,0,0,1.523-2.08,1.346,1.346,0,0,0,.142-.443,1.635,1.635,0,0,0-.133-.48l-3.89-9.311Z" style="fill:#fff"/><path d="M564.58,136.106a6.8,6.8,0,0,1-2.911.629,4.826,4.826,0,0,1-5.131-5.114,5.164,5.164,0,0,1,5.381-5.473,6.185,6.185,0,0,1,2.57.49l-.4,1.434a4.276,4.276,0,0,0-2.148-.454,3.831,3.831,0,0,0,.045,7.643,5.254,5.254,0,0,0,2.261-.536Z" style="fill:#fff"/><path d="M575.746,131.162c.052,3.757-2.528,5.433-4.984,5.467-2.75.038-4.9-1.947-4.943-5.16-.048-3.4,2.149-5.427,4.962-5.466C573.7,125.962,575.7,128.055,575.746,131.162Zm-8.06.218c.031,2.225,1.336,3.887,3.141,3.861,1.763-.025,3.063-1.7,3.031-3.991-.025-1.719-.916-3.891-3.1-3.86S567.659,129.45,567.686,131.38Z" style="fill:#fff"/><path d="M587.274,131c.053,3.758-2.527,5.433-4.984,5.467-2.749.039-4.9-1.947-4.944-5.16-.048-3.4,2.15-5.427,4.962-5.466C585.226,125.8,587.23,127.894,587.274,131Zm-8.06.218c.032,2.225,1.334,3.887,3.14,3.862,1.764-.025,3.063-1.7,3.03-3.991-.024-1.72-.915-3.891-3.1-3.861S579.187,129.288,579.214,131.218Z" style="fill:#fff"/><path d="M589.583,129.289c-.019-1.3-.075-2.351-.131-3.317l1.658-.023.108,1.742h.042a4,4,0,0,1,3.584-2.025c2.457-.035,4.334,2.019,4.377,5.105.052,3.652-2.149,5.49-4.542,5.523a3.561,3.561,0,0,1-3.151-1.551h-.042l.077,5.521-1.826.026Zm1.864,2.682a4.129,4.129,0,0,0,.1.755,2.85,2.85,0,0,0,2.8,2.123c1.952-.028,3.065-1.64,3.032-3.97-.029-2.036-1.125-3.763-3.077-3.735a3.2,3.2,0,0,0-2.876,3.084Z" style="fill:#fff"/><path d="M602.587,131.205a3.258,3.258,0,0,0,3.536,3.479,6.673,6.673,0,0,0,2.8-.565l.334,1.319a8.255,8.255,0,0,1-3.372.677c-3.129.044-5.025-1.988-5.068-5.053s1.728-5.505,4.689-5.546c3.317-.047,4.239,2.859,4.266,4.727a7.054,7.054,0,0,1-.052.862Zm5.4-1.4c0-1.175-.525-2.995-2.6-2.966-1.868.026-2.663,1.759-2.793,3.041Z" style="fill:#fff"/><path d="M612.048,128.827c-.016-1.2-.052-2.226-.129-3.17l1.617-.023.091,1.994h.084a3.05,3.05,0,0,1,2.782-2.266,2.021,2.021,0,0,1,.526.056l.024,1.744a2.7,2.7,0,0,0-.63-.055,2.594,2.594,0,0,0-2.445,2.407,5.178,5.178,0,0,0-.071.862l.075,5.417-1.826.025Z" style="fill:#fff"/><path d="M624.534,135.643l-.165-1.278H624.3a3.787,3.787,0,0,1-3.086,1.555,2.9,2.9,0,0,1-3.147-2.875c-.035-2.456,2.129-3.83,6.055-3.864l0-.21a2.1,2.1,0,0,0-2.342-2.319,5.057,5.057,0,0,0-2.635.793l-.437-1.212a6.29,6.29,0,0,1,3.326-.95c3.107-.044,3.892,2.067,3.921,4.1l.053,3.8a14.348,14.348,0,0,0,.2,2.433Zm-.346-5.183c-2.017-.012-4.3.376-4.272,2.35a1.634,1.634,0,0,0,1.767,1.739,2.528,2.528,0,0,0,2.433-1.736,1.916,1.916,0,0,0,.1-.589Z" style="fill:#fff"/><path d="M636.266,135.1a6.814,6.814,0,0,1-2.91.628,4.827,4.827,0,0,1-5.132-5.114,5.162,5.162,0,0,1,5.382-5.472,6.166,6.166,0,0,1,2.569.489l-.4,1.434a4.28,4.28,0,0,0-2.149-.454,3.831,3.831,0,0,0,.045,7.643,5.25,5.25,0,0,0,2.261-.536Z" style="fill:#fff"/><path d="M640.31,122.4a1.144,1.144,0,0,1-2.288.033,1.126,1.126,0,0,1,1.138-1.171A1.1,1.1,0,0,1,640.31,122.4Zm-1.875,13.046-.143-10.161,1.847-.026.143,10.161Z" style="fill:#fff"/><path d="M652.47,130.085c.053,3.758-2.527,5.433-4.982,5.468-2.751.038-4.9-1.948-4.945-5.16-.047-3.4,2.15-5.427,4.963-5.467C650.424,124.885,652.426,126.979,652.47,130.085Zm-8.059.219c.031,2.224,1.336,3.886,3.141,3.861,1.763-.025,3.063-1.7,3.031-3.991-.025-1.72-.916-3.891-3.1-3.861S644.383,128.373,644.411,130.3Zm5.723-9.572-2.518,3.038-1.323.019,1.806-3.028Z" style="fill:#fff"/><path d="M654.773,127.807c-.015-1.051-.049-1.911-.123-2.749l1.637-.023.129,1.677h.042a3.737,3.737,0,0,1,3.332-1.958c1.407-.02,3.6.789,3.651,4.275l.085,6.067-1.848.026-.082-5.858c-.022-1.636-.651-2.993-2.393-2.969a2.7,2.7,0,0,0-2.564,2.786l.085,6.11-1.848.026Z" style="fill:#fff"/><path d="M544.316,157.226a3.255,3.255,0,0,0,3.535,3.477,6.684,6.684,0,0,0,2.806-.564l.334,1.318a8.238,8.238,0,0,1-3.372.678c-3.129.043-5.026-1.988-5.069-5.052s1.729-5.5,4.69-5.547c3.316-.046,4.239,2.86,4.265,4.729a7.271,7.271,0,0,1-.051.86Zm5.4-1.4c0-1.177-.524-3-2.6-2.967-1.868.027-2.663,1.76-2.793,3.042Z" style="fill:#fff"/><path d="M553.769,154.426c-.015-1.049-.048-1.91-.123-2.749l1.639-.023.128,1.678h.043a3.734,3.734,0,0,1,3.332-1.958c1.406-.02,3.6.79,3.649,4.274l.085,6.067-1.847.026-.082-5.856c-.022-1.639-.65-2.994-2.393-2.97a2.713,2.713,0,0,0-2.565,2.788l.085,6.108-1.847.026Z" style="fill:#fff"/><path d="M567.485,148.565l.041,2.917,2.646-.037.021,1.406-2.647.037.077,5.481c.017,1.258.385,1.967,1.415,1.953a4.127,4.127,0,0,0,1.068-.141l.1,1.384a4.478,4.478,0,0,1-1.634.275,2.557,2.557,0,0,1-2.006-.748,3.765,3.765,0,0,1-.75-2.635l-.077-5.543-1.575.022-.021-1.407,1.575-.022-.034-2.434Z" style="fill:#fff"/><path d="M572.3,154.585c-.016-1.2-.052-2.224-.129-3.168l1.617-.023.091,1.994.084,0a3.049,3.049,0,0,1,2.782-2.264,2.024,2.024,0,0,1,.526.055l.025,1.742a2.842,2.842,0,0,0-.631-.053,2.592,2.592,0,0,0-2.445,2.408,5.175,5.175,0,0,0-.071.861l.075,5.416-1.826.026Z" style="fill:#fff"/><path d="M580.012,156.725a3.255,3.255,0,0,0,3.534,3.478,6.708,6.708,0,0,0,2.806-.564l.334,1.318a8.255,8.255,0,0,1-3.372.677c-3.128.044-5.024-1.988-5.067-5.052s1.728-5.5,4.688-5.547c3.316-.046,4.24,2.86,4.267,4.729a7.26,7.26,0,0,1-.052.861Zm5.4-1.4c0-1.177-.525-3-2.6-2.966-1.868.026-2.662,1.759-2.792,3.041Z" style="fill:#fff"/><path d="M593.925,154.43c-.018-1.3-.076-2.351-.131-3.317l1.659-.023.108,1.741h.042a4,4,0,0,1,3.584-2.024c2.455-.034,4.332,2.018,4.375,5.1.052,3.653-2.147,5.489-4.541,5.523a3.561,3.561,0,0,1-3.15-1.552h-.042l.077,5.522-1.826.026Zm1.865,2.682a4.014,4.014,0,0,0,.094.755,2.853,2.853,0,0,0,2.8,2.123c1.952-.028,3.063-1.638,3.029-3.969-.028-2.036-1.123-3.764-3.075-3.737a3.2,3.2,0,0,0-2.875,3.086Z" style="fill:#fff"/><path d="M611.6,161.027l-.165-1.279h-.063a3.781,3.781,0,0,1-3.085,1.555,2.9,2.9,0,0,1-3.149-2.873c-.035-2.457,2.13-3.832,6.056-3.866l0-.21a2.1,2.1,0,0,0-2.341-2.319,5.069,5.069,0,0,0-2.635.793l-.437-1.211a6.3,6.3,0,0,1,3.326-.95c3.107-.043,3.893,2.066,3.921,4.1l.053,3.8a14.133,14.133,0,0,0,.2,2.432Zm-.345-5.181c-2.016-.014-4.3.375-4.272,2.349a1.636,1.636,0,0,0,1.768,1.738,2.527,2.527,0,0,0,2.431-1.734,1.9,1.9,0,0,0,.1-.589Z" style="fill:#fff"/><path d="M615.992,153.973c-.017-1.2-.052-2.225-.129-3.169l1.617-.023.091,1.993h.084a3.049,3.049,0,0,1,2.782-2.264,2.025,2.025,0,0,1,.525.055l.025,1.743a2.832,2.832,0,0,0-.631-.054,2.591,2.591,0,0,0-2.443,2.408,5.169,5.169,0,0,0-.072.861l.076,5.416-1.828.026Z" style="fill:#fff"/><path d="M625.5,147.751l.042,2.917,2.646-.037.02,1.406-2.646.037.076,5.481c.018,1.258.386,1.967,1.415,1.953a4.129,4.129,0,0,0,1.069-.141l.1,1.384a4.484,4.484,0,0,1-1.635.275,2.56,2.56,0,0,1-2.006-.748,3.77,3.77,0,0,1-.75-2.635l-.077-5.543-1.575.022-.02-1.407,1.575-.022-.034-2.434Z" style="fill:#fff"/><path d="M633.963,146.161l-2.519,3.038-1.323.019,1.805-3.028Zm-3.553,14.6-.143-10.161,1.848-.026.142,10.161Z" style="fill:#fff"/><path d="M642.561,160.214a6.8,6.8,0,0,1-2.911.629,4.828,4.828,0,0,1-5.131-5.114,5.164,5.164,0,0,1,5.382-5.473,6.182,6.182,0,0,1,2.569.489l-.4,1.434a4.288,4.288,0,0,0-2.149-.453,3.831,3.831,0,0,0,.044,7.643,5.253,5.253,0,0,0,2.261-.536Z" style="fill:#fff"/><path d="M646.605,147.518a1.145,1.145,0,0,1-2.289.031,1.126,1.126,0,0,1,1.139-1.17A1.1,1.1,0,0,1,646.605,147.518Zm-1.876,13.044-.143-10.161,1.848-.026.143,10.161Z" style="fill:#fff"/><path d="M649.546,153.649c-.018-1.3-.074-2.351-.13-3.316l1.659-.023.108,1.741h.042a4,4,0,0,1,3.584-2.023c2.457-.035,4.333,2.017,4.376,5.1.052,3.654-2.148,5.49-4.541,5.523a3.564,3.564,0,0,1-3.151-1.551h-.042l.077,5.523-1.827.025Zm1.866,2.683a4.1,4.1,0,0,0,.094.754,2.85,2.85,0,0,0,2.8,2.123c1.952-.027,3.065-1.638,3.031-3.969-.028-2.036-1.124-3.764-3.076-3.737a2.951,2.951,0,0,0-2.761,2.329,3,3,0,0,0-.115.757Z" style="fill:#fff"/><path d="M662.553,155.567a3.255,3.255,0,0,0,3.535,3.477,6.668,6.668,0,0,0,2.805-.564l.333,1.318a8.223,8.223,0,0,1-3.37.678c-3.128.044-5.025-1.988-5.068-5.053s1.728-5.5,4.688-5.546c3.317-.046,4.239,2.859,4.266,4.728a7.112,7.112,0,0,1-.051.862Zm5.4-1.4c0-1.175-.526-3-2.6-2.965-1.869.026-2.663,1.759-2.792,3.041Z" style="fill:#fff"/><path d="M671.833,158.292a4.839,4.839,0,0,0,2.446.7c1.344-.019,1.963-.7,1.951-1.538-.013-.883-.544-1.358-1.915-1.843-1.836-.625-2.711-1.621-2.728-2.84-.023-1.636,1.281-3,3.464-3.029a5.071,5.071,0,0,1,2.507.594l-.442,1.35a3.956,3.956,0,0,0-2.087-.559c-1.092.016-1.692.655-1.681,1.411.012.839.625,1.208,1.956,1.693,1.773.647,2.688,1.518,2.709,3.029.025,1.783-1.344,3.063-3.759,3.1a5.817,5.817,0,0,1-2.865-.652Z" style="fill:#fff"/></g></g></svg>