<svg xmlns="http://www.w3.org/2000/svg" viewBox="0 0 733.992 277.302"><g id="Capa_2" data-name="Capa 2"><g id="Capa_1-2" data-name="Capa 1"><path d="M453.306,197.66,281.718,171.57a158.493,158.493,0,0,0,1.783-23.731,156.646,156.646,0,0,0-4.79-38.57L446.923,66.514a330.39,330.39,0,0,1,10.138,81.328A332.5,332.5,0,0,1,453.306,197.66Z" style="fill:#37276e"/><circle cx="127.695" cy="147.802" r="105" style="fill:#bdc4c6"/><circle cx="127.5" cy="149.802" r="127" style="fill:none;stroke:#aab8bd;stroke-miterlimit:10"/><circle cx="127.696" cy="147.967" r="105" style="fill:#bdc4c6"/><path d="M725.957,246.759,489.146,207.765a366.433,366.433,0,0,0,4.846-59.347,368.977,368.977,0,0,0-11.14-89.894L715.606,0a609.162,609.162,0,0,1,18.386,148.418A607.142,607.142,0,0,1,725.957,246.759Z" style="fill:#e27aaf"/><path d="M444.781,196.476l-167.08-25.4a154.177,154.177,0,0,0,1.736-23.108,152.543,152.543,0,0,0-4.663-37.555L438.566,68.776a321.712,321.712,0,0,1,9.871,79.191A323.7,323.7,0,0,1,444.781,196.476Z" style="fill:#e27aaf"/><path d="M316.069,118.941a26.134,26.134,0,0,1,3.884-.3c2.625,0,4.494.61,5.732,1.764a6.519,6.519,0,0,1,1.994,5.082,7.48,7.48,0,0,1-2.036,5.5c-1.323,1.323-3.507,2.037-6.257,2.037a29.235,29.235,0,0,1-3.317-.168Zm1.827,12.514a11.522,11.522,0,0,0,1.848.1c3.9,0,6.025-2.184,6.025-6,.022-3.338-1.869-5.459-5.732-5.459a10.362,10.362,0,0,0-2.141.189Z" style="fill:#fff"/><path d="M331.1,128.158a3.256,3.256,0,0,0,3.485,3.528,6.665,6.665,0,0,0,2.814-.526l.315,1.323a8.229,8.229,0,0,1-3.381.63c-3.129,0-5-2.057-5-5.123s1.806-5.48,4.767-5.48c3.316,0,4.2,2.919,4.2,4.787a7.158,7.158,0,0,1-.063.861Zm5.417-1.322c.021-1.176-.482-3-2.562-3-1.868,0-2.687,1.722-2.834,3Z" style="fill:#fff"/><path d="M340.343,131.014a4.846,4.846,0,0,0,2.436.734c1.344,0,1.974-.672,1.974-1.512,0-.881-.525-1.364-1.89-1.868-1.826-.651-2.688-1.659-2.688-2.876,0-1.638,1.324-2.982,3.507-2.982a5.076,5.076,0,0,1,2.5.631l-.463,1.343a3.949,3.949,0,0,0-2.078-.588c-1.092,0-1.7.629-1.7,1.385,0,.84.609,1.219,1.932,1.723,1.763.672,2.667,1.553,2.667,3.064,0,1.786-1.386,3.045-3.8,3.045a5.794,5.794,0,0,1-2.856-.693Z" style="fill:#fff"/><path d="M351.136,119.822v2.919h2.647v1.407h-2.647v5.48c0,1.26.358,1.974,1.387,1.974a4.1,4.1,0,0,0,1.07-.126l.084,1.385a4.522,4.522,0,0,1-1.637.252,2.565,2.565,0,0,1-2-.777,3.766,3.766,0,0,1-.712-2.645v-5.543h-1.576v-1.407h1.576v-2.435Z" style="fill:#fff"/><path d="M357.919,119.886a1.144,1.144,0,0,1-2.288,0,1.127,1.127,0,0,1,1.156-1.156A1.1,1.1,0,0,1,357.919,119.886ZM355.863,132.9V122.741h1.847V132.9Z" style="fill:#fff"/><path d="M360.777,125.492c0-1.051-.022-1.911-.084-2.751h1.637l.105,1.68h.042a3.737,3.737,0,0,1,3.359-1.911c1.408,0,3.591.84,3.591,4.326V132.9H367.58v-5.858c0-1.637-.61-3-2.352-3a2.625,2.625,0,0,0-2.478,1.89,2.656,2.656,0,0,0-.125.86v6.11h-1.848Z" style="fill:#fff"/><path d="M378.058,132.9l-.146-1.28h-.063a3.788,3.788,0,0,1-3.107,1.512,2.9,2.9,0,0,1-3.108-2.919c0-2.456,2.184-3.8,6.11-3.779v-.21a2.1,2.1,0,0,0-2.31-2.352,5.061,5.061,0,0,0-2.645.756l-.42-1.218a6.3,6.3,0,0,1,3.338-.9c3.107,0,3.863,2.121,3.863,4.158v3.8a14.394,14.394,0,0,0,.168,2.435Zm-.272-5.186c-2.016-.041-4.3.315-4.3,2.289a1.635,1.635,0,0,0,1.742,1.764,2.53,2.53,0,0,0,2.457-1.7,1.918,1.918,0,0,0,.105-.588Z" style="fill:#fff"/><path d="M389.8,132.525a6.8,6.8,0,0,1-2.919.588,4.827,4.827,0,0,1-5.059-5.185,5.164,5.164,0,0,1,5.459-5.4,6.17,6.17,0,0,1,2.561.526l-.42,1.427a4.281,4.281,0,0,0-2.141-.483,3.831,3.831,0,0,0-.064,7.643,5.242,5.242,0,0,0,2.268-.5Z" style="fill:#fff"/><path d="M394.019,119.886a1.144,1.144,0,0,1-2.288,0,1.126,1.126,0,0,1,1.155-1.156A1.1,1.1,0,0,1,394.019,119.886ZM391.962,132.9V122.741h1.848V132.9Z" style="fill:#fff"/><path d="M406.072,127.738c0,3.758-2.6,5.4-5.06,5.4-2.751,0-4.871-2.016-4.871-5.229,0-3.4,2.226-5.4,5.039-5.4C404.1,122.51,406.072,124.631,406.072,127.738Zm-8.063.106c0,2.224,1.282,3.9,3.087,3.9,1.764,0,3.087-1.658,3.087-3.947,0-1.721-.861-3.905-3.045-3.905S398.009,125.912,398.009,127.844Zm5.859-9.49-2.562,3h-1.322l1.848-3Z" style="fill:#fff"/><path d="M408.406,125.492c0-1.051-.022-1.911-.084-2.751h1.636l.106,1.68h.042a3.737,3.737,0,0,1,3.359-1.911c1.408,0,3.591.84,3.591,4.326V132.9h-1.848v-5.858c0-1.637-.609-3-2.351-3a2.627,2.627,0,0,0-2.479,1.89,2.656,2.656,0,0,0-.125.86v6.11h-1.847Z" style="fill:#fff"/><path d="M332.447,151.269h-5.5v5.1h6.131V157.9H325.12V143.752h7.642v1.533h-5.815v4.472h5.5Z" style="fill:#fff"/><path d="M335.136,156.014a4.846,4.846,0,0,0,2.436.734c1.344,0,1.974-.672,1.974-1.512,0-.881-.525-1.364-1.89-1.868-1.826-.651-2.688-1.659-2.688-2.876,0-1.638,1.324-2.982,3.507-2.982a5.076,5.076,0,0,1,2.5.631l-.463,1.343a3.949,3.949,0,0,0-2.078-.588c-1.092,0-1.7.629-1.7,1.385,0,.84.609,1.219,1.932,1.723,1.763.672,2.667,1.553,2.667,3.064,0,1.786-1.386,3.045-3.8,3.045a5.791,5.791,0,0,1-2.856-.693Z" style="fill:#fff"/><path d="M343.705,151.059c0-1.3-.043-2.352-.084-3.318h1.658l.084,1.743h.042a3.994,3.994,0,0,1,3.611-1.974c2.456,0,4.3,2.079,4.3,5.166,0,3.652-2.225,5.459-4.619,5.459a3.561,3.561,0,0,1-3.128-1.6h-.042v5.522h-1.826Zm1.826,2.709a4.16,4.16,0,0,0,.084.755,2.851,2.851,0,0,0,2.771,2.163c1.953,0,3.086-1.6,3.086-3.926,0-2.037-1.07-3.78-3.023-3.78a3.2,3.2,0,0,0-2.918,3.044Z" style="fill:#fff"/><path d="M356.681,153.158a3.257,3.257,0,0,0,3.486,3.528,6.66,6.66,0,0,0,2.813-.526l.314,1.323a8.221,8.221,0,0,1-3.379.63c-3.128,0-5-2.057-5-5.123s1.806-5.48,4.766-5.48c3.318,0,4.2,2.919,4.2,4.787a7,7,0,0,1-.062.861Zm5.417-1.322c.021-1.176-.483-3-2.561-3-1.87,0-2.688,1.722-2.834,3Zm.441-8.482-2.561,3h-1.323l1.847-3Z" style="fill:#fff"/><path d="M373.417,157.525a6.811,6.811,0,0,1-2.919.588,4.828,4.828,0,0,1-5.06-5.185,5.164,5.164,0,0,1,5.459-5.4,6.166,6.166,0,0,1,2.561.526l-.419,1.427A4.288,4.288,0,0,0,370.9,149a3.831,3.831,0,0,0-.064,7.643,5.242,5.242,0,0,0,2.268-.5Z" style="fill:#fff"/><path d="M377.638,144.886a1.144,1.144,0,0,1-2.288,0,1.126,1.126,0,0,1,1.155-1.156A1.1,1.1,0,0,1,377.638,144.886ZM375.582,157.9V147.741h1.847V157.9Z" style="fill:#fff"/><path d="M380.684,157.9v-8.755h-1.428v-1.407h1.428V147.2a4.072,4.072,0,0,1,4.431-4.429,5.078,5.078,0,0,1,2.582.672l-.526,1.406a3.877,3.877,0,0,0-2.14-.588c-1.953,0-2.52,1.365-2.52,2.981v.5h5.9V157.9h-1.828v-8.755h-4.072V157.9Z" style="fill:#fff"/><path d="M398.721,157.525a6.807,6.807,0,0,1-2.919.588,4.827,4.827,0,0,1-5.059-5.185,5.164,5.164,0,0,1,5.459-5.4,6.174,6.174,0,0,1,2.561.526l-.42,1.427A4.284,4.284,0,0,0,396.2,149a3.831,3.831,0,0,0-.064,7.643,5.246,5.246,0,0,0,2.268-.5Z" style="fill:#fff"/><path d="M406.513,157.9l-.147-1.28H406.3a3.785,3.785,0,0,1-3.107,1.512,2.9,2.9,0,0,1-3.108-2.919c0-2.456,2.184-3.8,6.111-3.779v-.21a2.1,2.1,0,0,0-2.31-2.352,5.061,5.061,0,0,0-2.645.756l-.42-1.218a6.305,6.305,0,0,1,3.339-.9c3.107,0,3.863,2.121,3.863,4.158v3.8a14.19,14.19,0,0,0,.168,2.435Zm-.273-5.186c-2.016-.041-4.305.315-4.305,2.289a1.636,1.636,0,0,0,1.743,1.764,2.526,2.526,0,0,0,2.456-1.7,1.89,1.89,0,0,0,.106-.588Z" style="fill:#fff"/><path d="M60.633,134.2h8.232v2.137h-5.63v3.937h5.249v2.138H63.235v6.052h-2.6Z" style="fill:#112025"/><path d="M74.009,134.2v14.264h-2.6V134.2Z" style="fill:#112025"/><path d="M76.994,148.464V134.2h2.963l3.683,6.116a39.309,39.309,0,0,1,2.433,4.783h.042c-.169-1.9-.232-3.746-.232-5.926V134.2H88.3v14.264H85.607L81.883,142.2a49.956,49.956,0,0,1-2.561-4.931l-.063.021c.105,1.841.127,3.724.127,6.074v5.1Z" style="fill:#112025"/><path d="M94.159,144.422l-1.227,4.042H90.244L94.815,134.2h3.324l4.634,14.264H99.979l-1.291-4.042Zm4.085-1.968-1.122-3.513c-.274-.868-.508-1.842-.719-2.667H96.36c-.211.825-.422,1.82-.676,2.667l-1.1,3.513Z" style="fill:#112025"/><path d="M104.765,148.464V134.2h2.963l3.682,6.116a39.32,39.32,0,0,1,2.434,4.783h.042c-.169-1.9-.233-3.746-.233-5.926V134.2h2.412v14.264h-2.687l-3.725-6.264a49.732,49.732,0,0,1-2.56-4.931l-.064.021c.106,1.841.127,3.724.127,6.074v5.1Z" style="fill:#112025"/><path d="M129.295,148.042a9.025,9.025,0,0,1-3.683.634c-4.528,0-7.28-2.836-7.28-7.175,0-4.7,3.26-7.534,7.619-7.534a8.2,8.2,0,0,1,3.471.635l-.571,2.074a6.919,6.919,0,0,0-2.794-.551c-2.9,0-4.994,1.821-4.994,5.25,0,3.131,1.84,5.142,4.973,5.142a7.3,7.3,0,0,0,2.836-.529Z" style="fill:#112025"/><path d="M134.122,134.2v14.264h-2.6V134.2Z" style="fill:#112025"/><path d="M139.964,144.422l-1.228,4.042h-2.687L140.62,134.2h3.323l4.635,14.264h-2.794l-1.291-4.042Zm4.085-1.968-1.122-3.513c-.275-.868-.508-1.842-.719-2.667h-.043c-.211.825-.423,1.82-.677,2.667l-1.1,3.513Z" style="fill:#112025"/><path d="M160.347,148.042a9.029,9.029,0,0,1-3.683.634c-4.528,0-7.28-2.836-7.28-7.175,0-4.7,3.26-7.534,7.619-7.534a8.2,8.2,0,0,1,3.471.635l-.572,2.074a6.911,6.911,0,0,0-2.794-.551c-2.9,0-4.994,1.821-4.994,5.25,0,3.131,1.841,5.142,4.974,5.142a7.3,7.3,0,0,0,2.836-.529Z" style="fill:#112025"/><path d="M165.174,134.2v14.264h-2.6V134.2Z" style="fill:#112025"/><path d="M180.814,141.184c0,4.783-2.9,7.513-6.835,7.513-4.021,0-6.561-3.069-6.561-7.259,0-4.381,2.752-7.471,6.772-7.471C178.36,133.967,180.814,137.121,180.814,141.184Zm-10.644.212c0,2.9,1.46,5.206,3.957,5.206,2.519,0,3.936-2.328,3.936-5.312,0-2.688-1.333-5.228-3.936-5.228C171.545,136.062,170.17,138.454,170.17,141.4Zm7.364-10.54-2.645,2.54h-2.095l1.862-2.54Z" style="fill:#112025"/><path d="M183.061,148.464V134.2h2.962l3.683,6.116a39.464,39.464,0,0,1,2.434,4.783h.042c-.169-1.9-.233-3.746-.233-5.926V134.2h2.412v14.264h-2.687l-3.725-6.264a49.732,49.732,0,0,1-2.56-4.931l-.064.021c.106,1.841.127,3.724.127,6.074v5.1Z" style="fill:#112025"/><path d="M565.1,130.771l-4.62-14.151h1.974l2.2,6.97c.61,1.911,1.135,3.633,1.512,5.291h.043c.4-1.637.986-3.422,1.616-5.27l2.394-6.991h1.953l-5.061,14.151Z" style="fill:#fff"/><path d="M578.581,130.771l-.147-1.281h-.064A3.782,3.782,0,0,1,575.263,131a2.9,2.9,0,0,1-3.108-2.919c0-2.456,2.184-3.8,6.111-3.779v-.21a2.1,2.1,0,0,0-2.31-2.351,5.058,5.058,0,0,0-2.645.756l-.42-1.218a6.3,6.3,0,0,1,3.338-.9c3.108,0,3.864,2.121,3.864,4.157v3.8a14.209,14.209,0,0,0,.168,2.436Zm-.273-5.186c-2.016-.042-4.3.315-4.3,2.289a1.636,1.636,0,0,0,1.743,1.763,2.527,2.527,0,0,0,2.456-1.7,1.9,1.9,0,0,0,.106-.588Z" style="fill:#fff"/><path d="M583.075,115.864h1.848v14.907h-1.848Z" style="fill:#fff"/><path d="M597.228,125.606c0,3.758-2.6,5.4-5.061,5.4-2.75,0-4.871-2.016-4.871-5.228,0-3.4,2.225-5.4,5.039-5.4C595.253,120.378,597.228,122.5,597.228,125.606Zm-8.063.105c0,2.226,1.28,3.905,3.086,3.905,1.764,0,3.086-1.658,3.086-3.947,0-1.722-.86-3.905-3.044-3.905S589.165,123.779,589.165,125.711Z" style="fill:#fff"/><path d="M599.56,123.779c0-1.2-.021-2.225-.084-3.17h1.617l.062,2h.084a3.051,3.051,0,0,1,2.815-2.226,2,2,0,0,1,.524.063v1.743a2.77,2.77,0,0,0-.63-.063,2.59,2.59,0,0,0-2.477,2.372,5.2,5.2,0,0,0-.084.861v5.417H599.56Z" style="fill:#fff"/><path d="M611.948,130.771l-.146-1.281h-.063A3.785,3.785,0,0,1,608.632,131a2.9,2.9,0,0,1-3.108-2.919c0-2.456,2.184-3.8,6.11-3.779v-.21a2.1,2.1,0,0,0-2.31-2.351,5.063,5.063,0,0,0-2.645.756l-.42-1.218a6.3,6.3,0,0,1,3.338-.9c3.107,0,3.863,2.121,3.863,4.157v3.8a14.414,14.414,0,0,0,.168,2.436Zm-.272-5.186c-2.016-.042-4.3.315-4.3,2.289a1.634,1.634,0,0,0,1.742,1.763,2.53,2.53,0,0,0,2.457-1.7,1.929,1.929,0,0,0,.105-.588Z" style="fill:#fff"/><path d="M623.688,130.393a6.811,6.811,0,0,1-2.919.588,4.828,4.828,0,0,1-5.06-5.186,5.164,5.164,0,0,1,5.459-5.4,6.168,6.168,0,0,1,2.561.525l-.419,1.428a4.288,4.288,0,0,0-2.142-.483,3.831,3.831,0,0,0-.064,7.642,5.242,5.242,0,0,0,2.268-.5Z" style="fill:#fff"/><path d="M627.909,117.753a1.144,1.144,0,0,1-2.288,0,1.126,1.126,0,0,1,1.155-1.154A1.1,1.1,0,0,1,627.909,117.753Zm-2.056,13.018V120.609H627.7v10.162Z" style="fill:#fff"/><path d="M639.962,125.606c0,3.758-2.6,5.4-5.06,5.4-2.751,0-4.871-2.016-4.871-5.228,0-3.4,2.226-5.4,5.039-5.4C637.989,120.378,639.962,122.5,639.962,125.606Zm-8.063.105c0,2.226,1.282,3.905,3.087,3.905,1.764,0,3.087-1.658,3.087-3.947,0-1.722-.861-3.905-3.045-3.905S631.9,123.779,631.9,125.711Zm5.859-9.49-2.562,3h-1.322l1.848-3Z" style="fill:#fff"/><path d="M642.294,123.359c0-1.049-.021-1.91-.084-2.75h1.639l.1,1.68H644a3.737,3.737,0,0,1,3.359-1.911c1.407,0,3.59.84,3.59,4.325v6.068H649.1v-5.858c0-1.638-.609-3-2.352-3a2.622,2.622,0,0,0-2.476,1.889,2.656,2.656,0,0,0-.127.861v6.11h-1.848Z" style="fill:#fff"/><path d="M652.753,133.354a30.215,30.215,0,0,0,1.26-5.019l2.057-.21a25.6,25.6,0,0,1-2,5.1Z" style="fill:#fff"/><path d="M561.991,141.987a21.171,21.171,0,0,1,3.506-.273,5.813,5.813,0,0,1,3.969,1.176,3.8,3.8,0,0,1,1.238,2.961,4.158,4.158,0,0,1-1.092,3.023,5.86,5.86,0,0,1-4.324,1.554,6.292,6.292,0,0,1-1.471-.126v5.669h-1.826Zm1.826,6.825a6.192,6.192,0,0,0,1.512.146c2.205,0,3.549-1.07,3.549-3.023,0-1.869-1.322-2.772-3.338-2.772a7.678,7.678,0,0,0-1.723.147Z" style="fill:#fff"/><path d="M573,141.063h1.848v14.908H573Z" style="fill:#fff"/><path d="M586.455,153.2c0,1.05.021,1.974.084,2.772H584.9l-.1-1.659h-.041a3.826,3.826,0,0,1-3.359,1.89c-1.6,0-3.507-.883-3.507-4.451v-5.942h1.847v5.627c0,1.931.588,3.233,2.268,3.233a2.669,2.669,0,0,0,2.435-1.68,2.7,2.7,0,0,0,.168-.945v-6.235h1.848Z" style="fill:#fff"/><path d="M589.271,154.081a4.833,4.833,0,0,0,2.435.734c1.344,0,1.973-.671,1.973-1.511,0-.881-.525-1.365-1.889-1.868-1.827-.652-2.687-1.66-2.687-2.876,0-1.639,1.322-2.983,3.5-2.983a5.062,5.062,0,0,1,2.5.631l-.46,1.344a3.963,3.963,0,0,0-2.08-.588c-1.091,0-1.7.629-1.7,1.385,0,.839.609,1.218,1.932,1.722,1.764.672,2.666,1.553,2.666,3.065,0,1.785-1.386,3.045-3.8,3.045a5.8,5.8,0,0,1-2.855-.694Z" style="fill:#fff"/><path d="M598.552,145.809l2,5.711a26.3,26.3,0,0,1,.819,2.6h.063c.23-.84.525-1.68.861-2.6l1.973-5.711h1.931l-3.988,10.162h-1.764l-3.863-10.162Z" style="fill:#fff"/><path d="M613.481,155.971l-.146-1.281h-.063a3.788,3.788,0,0,1-3.107,1.512,2.894,2.894,0,0,1-3.107-2.919c0-2.456,2.183-3.8,6.109-3.779v-.21a2.1,2.1,0,0,0-2.31-2.352,5.063,5.063,0,0,0-2.645.756l-.42-1.218a6.316,6.316,0,0,1,3.338-.9c3.107,0,3.863,2.121,3.863,4.158v3.8a14.414,14.414,0,0,0,.168,2.436Zm-.272-5.187c-2.016-.041-4.3.316-4.3,2.289a1.634,1.634,0,0,0,1.742,1.764,2.529,2.529,0,0,0,2.457-1.7,1.929,1.929,0,0,0,.1-.588Z" style="fill:#fff"/><path d="M617.978,141.063h1.847v14.908h-1.847Z" style="fill:#fff"/><path d="M626.69,141.42l-2.561,3h-1.323l1.847-3Zm-3.757,14.551V145.809h1.847v10.162Z" style="fill:#fff"/><path d="M633.474,155.971l-.148-1.281h-.063a3.788,3.788,0,0,1-3.108,1.512,2.9,2.9,0,0,1-3.107-2.919c0-2.456,2.183-3.8,6.11-3.779v-.21a2.1,2.1,0,0,0-2.309-2.352,5.061,5.061,0,0,0-2.646.756l-.42-1.218a6.317,6.317,0,0,1,3.339-.9c3.107,0,3.863,2.121,3.863,4.158v3.8a14.209,14.209,0,0,0,.168,2.436Zm-.274-5.187c-2.015-.041-4.3.316-4.3,2.289a1.635,1.635,0,0,0,1.743,1.764,2.526,2.526,0,0,0,2.456-1.7,1.929,1.929,0,0,0,.105-.588Z" style="fill:#fff"/></g></g></svg>