<svg xmlns="http://www.w3.org/2000/svg" viewBox="0 0 734.067 370.857"><g id="Capa_2" data-name="Capa 2"><g id="Capa_1-2" data-name="Capa 1"><path d="M447.347,293.7l-167.8-54.2a159.638,159.638,0,0,0-1.088-100.718L445.033,80.93A335.967,335.967,0,0,1,447.347,293.7Z" style="fill:#3f3793"/><circle cx="127.695" cy="190.704" r="105" style="fill:#bdc4c6"/><circle cx="127.5" cy="192.704" r="127" style="fill:none;stroke:#aab8bd;stroke-miterlimit:10"/><circle cx="127.696" cy="190.869" r="105" style="fill:#bdc4c6"/><path d="M706.6,370.857,477.387,299.721l.176-.568a366.458,366.458,0,0,0,16.5-108.438,363.921,363.921,0,0,0-18.666-115L703.146,0a603.483,603.483,0,0,1,30.921,190.715A606.236,606.236,0,0,1,706.81,370.188Z" style="fill:#d36caf"/><path d="M432.957,289.52l-160.82-51.943A153,153,0,0,0,271.1,141.05L430.739,85.6a322,322,0,0,1,2.218,203.919Z" style="fill:#d36caf"/><path d="M304.161,163.678h8.346v1.679h-6.346v5.151h5.864v1.656h-5.864v7.013h-2Z" style="fill:#fff"/><path d="M324.651,173.52c0,4.116-2.851,5.91-5.541,5.91-3.013,0-5.335-2.207-5.335-5.725,0-3.726,2.437-5.911,5.518-5.911C322.49,167.794,324.651,170.118,324.651,173.52Zm-8.83.115c0,2.438,1.4,4.278,3.381,4.278,1.931,0,3.38-1.817,3.38-4.324,0-1.885-.943-4.277-3.334-4.277S315.821,171.52,315.821,173.635Z" style="fill:#fff"/><path d="M327.207,171.52c0-1.311-.024-2.437-.092-3.473h1.77l.069,2.185h.092a3.341,3.341,0,0,1,3.081-2.438,2.2,2.2,0,0,1,.576.07v1.908a3.048,3.048,0,0,0-.691-.068,2.837,2.837,0,0,0-2.713,2.6,5.721,5.721,0,0,0-.092.944v5.932h-2Z" style="fill:#fff"/><path d="M334.819,171.06c0-1.149-.024-2.093-.092-3.013H336.5l.091,1.794h.07a3.836,3.836,0,0,1,3.5-2.047,3.291,3.291,0,0,1,3.15,2.231h.046a4.579,4.579,0,0,1,1.241-1.448,3.8,3.8,0,0,1,2.461-.783c1.472,0,3.656.966,3.656,4.83v6.553h-1.977v-6.3c0-2.138-.782-3.425-2.415-3.425a2.621,2.621,0,0,0-2.392,1.839,3.364,3.364,0,0,0-.16,1.011v6.876h-1.977v-6.669c0-1.77-.783-3.057-2.324-3.057a3.019,3.019,0,0,0-2.667,3.011v6.715h-1.977Z" style="fill:#fff"/><path d="M363.313,176.142c0,1.15.023,2.161.093,3.035h-1.794l-.115-1.816h-.046a4.188,4.188,0,0,1-3.679,2.069c-1.748,0-3.841-.966-3.841-4.875v-6.508h2.024v6.163c0,2.116.644,3.541,2.483,3.541a2.925,2.925,0,0,0,2.668-1.839,2.96,2.96,0,0,0,.184-1.035v-6.83h2.023Z" style="fill:#fff"/><path d="M366.673,162.851H368.7v16.326h-2.024Z" style="fill:#fff"/><path d="M378.263,179.177l-.16-1.4h-.069a4.148,4.148,0,0,1-3.4,1.655,3.17,3.17,0,0,1-3.4-3.2c0-2.691,2.392-4.162,6.691-4.139v-.23a2.293,2.293,0,0,0-2.529-2.575,5.546,5.546,0,0,0-2.9.828l-.46-1.334a6.908,6.908,0,0,1,3.656-.99c3.4,0,4.231,2.324,4.231,4.554v4.162a15.662,15.662,0,0,0,.184,2.667Zm-.3-5.679c-2.207-.046-4.714.344-4.714,2.506a1.791,1.791,0,0,0,1.91,1.931,2.769,2.769,0,0,0,2.69-1.862,2.141,2.141,0,0,0,.114-.644Z" style="fill:#fff"/><path d="M391.121,178.763a7.447,7.447,0,0,1-3.2.644c-3.357,0-5.542-2.277-5.542-5.68a5.655,5.655,0,0,1,5.979-5.909,6.77,6.77,0,0,1,2.806.575l-.46,1.564a4.687,4.687,0,0,0-2.346-.53c-2.553,0-3.933,1.886-3.933,4.208a3.816,3.816,0,0,0,3.864,4.162,5.743,5.743,0,0,0,2.483-.551Z" style="fill:#fff"/><path d="M395.745,164.92a1.254,1.254,0,0,1-2.507,0,1.232,1.232,0,0,1,1.264-1.264A1.2,1.2,0,0,1,395.745,164.92Zm-2.254,14.257v-11.13h2.023v11.13Z" style="fill:#fff"/><path d="M408.944,173.52c0,4.116-2.851,5.91-5.541,5.91-3.013,0-5.335-2.207-5.335-5.725,0-3.726,2.437-5.911,5.518-5.911C406.783,167.794,408.944,170.118,408.944,173.52Zm-8.83.115c0,2.438,1.4,4.278,3.381,4.278,1.931,0,3.38-1.817,3.38-4.324,0-1.885-.943-4.277-3.334-4.277S400.114,171.52,400.114,173.635Zm6.416-10.393-2.806,3.288h-1.448l2.023-3.288Z" style="fill:#fff"/><path d="M411.5,171.06c0-1.149-.024-2.093-.092-3.013H413.2l.115,1.84h.046a4.1,4.1,0,0,1,3.68-2.093c1.54,0,3.931.92,3.931,4.738v6.645H418.95v-6.416c0-1.793-.667-3.288-2.575-3.288a2.877,2.877,0,0,0-2.714,2.069,2.917,2.917,0,0,0-.138.944v6.691H411.5Z" style="fill:#fff"/><path d="M312.324,190.451V203.9c0,.988.022,2.115.092,2.874H310.6l-.093-1.932h-.046a4.116,4.116,0,0,1-3.793,2.185c-2.691,0-4.76-2.277-4.76-5.657-.024-3.7,2.276-5.979,4.989-5.979a3.719,3.719,0,0,1,3.357,1.7h.046v-6.645Zm-2.025,9.726a3.563,3.563,0,0,0-.091-.85,2.976,2.976,0,0,0-2.92-2.346c-2.093,0-3.335,1.84-3.335,4.3,0,2.254,1.1,4.116,3.289,4.116a3.043,3.043,0,0,0,2.966-2.414,3.517,3.517,0,0,0,.091-.874Z" style="fill:#fff"/><path d="M316.81,201.58a3.565,3.565,0,0,0,3.816,3.863,7.33,7.33,0,0,0,3.082-.574l.345,1.448a9.014,9.014,0,0,1-3.7.689c-3.427,0-5.473-2.253-5.473-5.61s1.978-6,5.22-6c3.633,0,4.6,3.2,4.6,5.243a7.634,7.634,0,0,1-.069.943Zm5.933-1.449c.022-1.288-.53-3.288-2.806-3.288-2.047,0-2.943,1.886-3.1,3.288Z" style="fill:#fff"/><path d="M332.151,191.462a23.2,23.2,0,0,1,3.84-.3,6.368,6.368,0,0,1,4.345,1.287,4.168,4.168,0,0,1,1.358,3.242A4.559,4.559,0,0,1,340.5,199a6.423,6.423,0,0,1-4.738,1.7,6.88,6.88,0,0,1-1.609-.139v6.209h-2Zm2,7.474a6.765,6.765,0,0,0,1.656.16c2.414,0,3.886-1.173,3.886-3.31,0-2.047-1.449-3.036-3.656-3.036a8.4,8.4,0,0,0-1.886.161Z" style="fill:#fff"/><path d="M343.95,199.12c0-1.311-.024-2.438-.092-3.473h1.77l.069,2.185h.093a3.338,3.338,0,0,1,3.081-2.438,2.2,2.2,0,0,1,.575.069v1.909a3.044,3.044,0,0,0-.691-.069,2.838,2.838,0,0,0-2.713,2.6,5.824,5.824,0,0,0-.091.943v5.933h-2Z" style="fill:#fff"/><path d="M361.312,201.12c0,4.116-2.851,5.91-5.541,5.91-3.013,0-5.335-2.207-5.335-5.726,0-3.725,2.438-5.91,5.519-5.91C359.151,195.394,361.312,197.717,361.312,201.12Zm-8.83.115c0,2.437,1.4,4.277,3.381,4.277,1.931,0,3.38-1.816,3.38-4.323,0-1.886-.943-4.277-3.334-4.277S352.482,199.12,352.482,201.235Z" style="fill:#fff"/><path d="M364.442,195.647l2.437,6.577c.253.735.53,1.609.713,2.276h.046c.207-.667.438-1.517.713-2.322l2.208-6.531H372.7l-3.035,7.934c-1.45,3.817-2.438,5.771-3.818,6.967a5.493,5.493,0,0,1-2.483,1.311l-.506-1.7a5.323,5.323,0,0,0,1.77-.989,6.132,6.132,0,0,0,1.7-2.253,1.477,1.477,0,0,0,.161-.483,1.765,1.765,0,0,0-.138-.529l-4.116-10.256Z" style="fill:#fff"/><path d="M375.437,201.58a3.565,3.565,0,0,0,3.816,3.863,7.33,7.33,0,0,0,3.082-.574l.345,1.448a9.014,9.014,0,0,1-3.7.689c-3.427,0-5.473-2.253-5.473-5.61s1.978-6,5.22-6c3.633,0,4.6,3.2,4.6,5.243a7.634,7.634,0,0,1-.069.943Zm5.933-1.449c.022-1.288-.53-3.288-2.806-3.288-2.047,0-2.943,1.886-3.105,3.288Z" style="fill:#fff"/><path d="M393.766,206.363a7.457,7.457,0,0,1-3.2.643c-3.358,0-5.542-2.276-5.542-5.679a5.655,5.655,0,0,1,5.978-5.91,6.747,6.747,0,0,1,2.806.576l-.46,1.563a4.694,4.694,0,0,0-2.346-.529c-2.552,0-3.932,1.886-3.932,4.208a3.816,3.816,0,0,0,3.863,4.162,5.741,5.741,0,0,0,2.483-.552Z" style="fill:#fff"/><path d="M398.873,192.451v3.2h2.9v1.541h-2.9v6c0,1.379.39,2.161,1.517,2.161a4.5,4.5,0,0,0,1.173-.138l.092,1.518a4.958,4.958,0,0,1-1.794.275,2.806,2.806,0,0,1-2.185-.85,4.129,4.129,0,0,1-.781-2.9v-6.07H395.17v-1.541H396.9V192.98Z" style="fill:#fff"/><path d="M413.982,201.12c0,4.116-2.851,5.91-5.541,5.91-3.013,0-5.335-2.207-5.335-5.726,0-3.725,2.437-5.91,5.519-5.91C411.821,195.394,413.982,197.717,413.982,201.12Zm-8.83.115c0,2.437,1.4,4.277,3.381,4.277,1.931,0,3.38-1.816,3.38-4.323,0-1.886-.943-4.277-3.334-4.277S405.152,199.12,405.152,201.235Z" style="fill:#fff"/><path d="M416.261,204.708a5.317,5.317,0,0,0,2.668.8c1.472,0,2.161-.736,2.161-1.655,0-.966-.574-1.5-2.069-2.047-2-.713-2.943-1.816-2.943-3.15,0-1.794,1.448-3.266,3.839-3.266a5.553,5.553,0,0,1,2.737.69l-.506,1.472a4.328,4.328,0,0,0-2.276-.644c-1.2,0-1.863.69-1.863,1.517,0,.92.667,1.334,2.116,1.886,1.931.736,2.92,1.7,2.92,3.357,0,1.955-1.517,3.334-4.162,3.334a6.354,6.354,0,0,1-3.128-.758Z" style="fill:#fff"/><path d="M60.633,181.673h8.232v2.138h-5.63v3.936h5.249v2.138H63.235v6.053h-2.6Z" style="fill:#112025"/><path d="M74.009,181.673v14.265h-2.6V181.673Z" style="fill:#112025"/><path d="M76.994,195.938V181.673h2.963l3.683,6.116a39.309,39.309,0,0,1,2.433,4.783h.042c-.169-1.9-.232-3.746-.232-5.926v-4.973H88.3v14.265H85.607l-3.724-6.265a49.845,49.845,0,0,1-2.561-4.931l-.063.021c.105,1.841.127,3.724.127,6.074v5.1Z" style="fill:#112025"/><path d="M94.159,191.9l-1.227,4.042H90.244l4.571-14.265h3.324l4.634,14.265H99.979L98.688,191.9Zm4.085-1.969-1.122-3.513c-.274-.868-.508-1.842-.719-2.667H96.36c-.211.825-.422,1.82-.676,2.667l-1.1,3.513Z" style="fill:#112025"/><path d="M104.765,195.938V181.673h2.963l3.682,6.116a39.32,39.32,0,0,1,2.434,4.783h.042c-.169-1.9-.233-3.746-.233-5.926v-4.973h2.412v14.265h-2.687l-3.725-6.265a49.622,49.622,0,0,1-2.56-4.931l-.064.021c.106,1.841.127,3.724.127,6.074v5.1Z" style="fill:#112025"/><path d="M129.295,195.515a9.025,9.025,0,0,1-3.683.634c-4.528,0-7.28-2.836-7.28-7.174,0-4.7,3.26-7.535,7.619-7.535a8.2,8.2,0,0,1,3.471.635l-.571,2.074a6.938,6.938,0,0,0-2.794-.55c-2.9,0-4.994,1.82-4.994,5.249,0,3.131,1.84,5.142,4.973,5.142a7.3,7.3,0,0,0,2.836-.529Z" style="fill:#112025"/><path d="M134.122,181.673v14.265h-2.6V181.673Z" style="fill:#112025"/><path d="M139.964,191.9l-1.228,4.042h-2.687l4.571-14.265h3.323l4.635,14.265h-2.794l-1.291-4.042Zm4.085-1.969-1.122-3.513c-.275-.868-.508-1.842-.719-2.667h-.043c-.211.825-.423,1.82-.677,2.667l-1.1,3.513Z" style="fill:#112025"/><path d="M160.347,195.515a9.029,9.029,0,0,1-3.683.634c-4.528,0-7.28-2.836-7.28-7.174,0-4.7,3.26-7.535,7.619-7.535a8.2,8.2,0,0,1,3.471.635l-.572,2.074a6.93,6.93,0,0,0-2.794-.55c-2.9,0-4.994,1.82-4.994,5.249,0,3.131,1.841,5.142,4.974,5.142a7.3,7.3,0,0,0,2.836-.529Z" style="fill:#112025"/><path d="M165.174,181.673v14.265h-2.6V181.673Z" style="fill:#112025"/><path d="M180.814,188.657c0,4.783-2.9,7.513-6.835,7.513-4.021,0-6.561-3.068-6.561-7.259,0-4.381,2.752-7.471,6.772-7.471C178.36,181.44,180.814,184.594,180.814,188.657Zm-10.644.212c0,2.9,1.46,5.206,3.957,5.206,2.519,0,3.936-2.328,3.936-5.312,0-2.688-1.333-5.228-3.936-5.228C171.545,183.535,170.17,185.927,170.17,188.869Zm7.364-10.54-2.645,2.54h-2.095l1.862-2.54Z" style="fill:#112025"/><path d="M183.061,195.938V181.673h2.962l3.683,6.116a39.464,39.464,0,0,1,2.434,4.783h.042c-.169-1.9-.233-3.746-.233-5.926v-4.973h2.412v14.265h-2.687l-3.725-6.265a49.622,49.622,0,0,1-2.56-4.931l-.064.021c.106,1.841.127,3.724.127,6.074v5.1Z" style="fill:#112025"/><path d="M548.639,102.806l6.386-1.394.28,1.284-4.855,1.06.86,3.941,4.486-.98.277,1.266-4.487.979,1.172,5.367-1.53.334Z" style="fill:#fff"/><path d="M565.955,106.913a4.262,4.262,0,0,1-3.253,5.447,4.143,4.143,0,0,1-5.037-3.489c-.623-2.85.877-4.928,3.235-5.443C563.344,102.894,565.386,104.309,565.955,106.913Zm-6.736,1.563c.407,1.864,1.786,3.037,3.3,2.707,1.479-.323,2.283-1.954,1.864-3.872-.315-1.442-1.436-3.114-3.265-2.714S558.866,106.857,559.219,108.476Z" style="fill:#fff"/><path d="M567.493,104.605c-.192-.88-.368-1.6-.575-2.289l1.373-.3.395,1.389.035-.008a3.206,3.206,0,0,1,2.465-2.215c1.18-.258,3.162.047,3.8,2.966l1.11,5.084-1.548.338-1.072-4.908c-.3-1.371-1.059-2.4-2.518-2.085a2.25,2.25,0,0,0-1.731,2.036,2.274,2.274,0,0,0,.051.745l1.118,5.119-1.547.338Z" style="fill:#fff"/><path d="M583.235,94.588l2.247,10.291c.165.756.37,1.615.551,2.184l-1.39.3-.394-1.462-.036.008a3.216,3.216,0,0,1-2.537,2.3c-2.057.45-4.02-.946-4.586-3.532-.635-2.829.743-4.954,2.82-5.407a2.911,2.911,0,0,1,2.851.741l.035-.008-1.11-5.084Zm.076,7.779a2.725,2.725,0,0,0-.212-.635,2.329,2.329,0,0,0-2.626-1.307c-1.6.35-2.243,1.964-1.832,3.846.376,1.725,1.532,2.965,3.2,2.6a2.382,2.382,0,0,0,1.866-2.342,2.729,2.729,0,0,0-.077-.684Z" style="fill:#fff"/><path d="M595.287,100.508a4.261,4.261,0,0,1-3.253,5.447A4.142,4.142,0,0,1,587,102.466c-.623-2.85.877-4.928,3.234-5.443C592.676,96.489,594.718,97.9,595.287,100.508Zm-6.736,1.563c.407,1.865,1.786,3.038,3.3,2.707,1.478-.322,2.282-1.954,1.863-3.871-.315-1.443-1.435-3.115-3.264-2.715S588.2,100.453,588.551,102.071Z" style="fill:#fff"/><path d="M597.625,102.873a4.162,4.162,0,0,0,2.174.169c1.126-.246,1.532-.923,1.378-1.627-.161-.739-.688-1.048-1.926-1.22-1.649-.211-2.555-.9-2.778-1.918-.3-1.372.565-2.74,2.394-3.139a4.336,4.336,0,0,1,2.208.07l-.141,1.21a3.4,3.4,0,0,0-1.851-.112c-.914.2-1.308.839-1.169,1.472.153.7.732.909,1.932,1.089,1.6.24,2.52.814,2.8,2.081.326,1.5-.6,2.8-2.627,3.246a4.981,4.981,0,0,1-2.52-.059Z" style="fill:#fff"/><path d="M604.422,105.314a25.838,25.838,0,0,0,.137-4.435l1.686-.552a21.941,21.941,0,0,1-.738,4.639Z" style="fill:#fff"/><path d="M561.133,167.017l-4.7.42.389,4.358,5.238-.468.116,1.31-6.8.606L554.3,161.155l6.527-.582.116,1.309-4.967.444.34,3.82,4.7-.419Z" style="fill:#fff"/><path d="M563.582,166.13c-.08-.9-.163-1.63-.282-2.342l1.382-.124.2,1.392.054-.005a3,3,0,0,1,2.583-1.839,2.576,2.576,0,0,1,2.612,1.52l.036,0a3.6,3.6,0,0,1,.868-1.216,2.974,2.974,0,0,1,1.865-.781c1.148-.1,2.918.5,3.187,3.512l.456,5.11-1.542.138-.438-4.914c-.149-1.667-.849-2.617-2.121-2.5a2.053,2.053,0,0,0-1.739,1.6,2.61,2.61,0,0,0-.054.8l.478,5.362-1.543.138-.464-5.2c-.123-1.379-.822-2.33-2.024-2.222a2.354,2.354,0,0,0-1.869,2.535l.466,5.236-1.543.138Z" style="fill:#fff"/><path d="M578.578,165.28c-.1-1.112-.216-2.006-.324-2.827l1.417-.127.2,1.483.035,0a3.428,3.428,0,0,1,2.936-1.961c2.1-.187,3.834,1.447,4.069,4.083.278,3.121-1.484,4.833-3.529,5.015a3.053,3.053,0,0,1-2.793-1.124l-.036,0,.421,4.717-1.561.139Zm1.767,2.174a3.536,3.536,0,0,0,.13.639,2.442,2.442,0,0,0,2.531,1.636c1.668-.149,2.515-1.6,2.338-3.588-.156-1.74-1.2-3.147-2.87-3a2.527,2.527,0,0,0-2.212,2.167,2.59,2.59,0,0,0-.05.655Z" style="fill:#fff"/><path d="M588.769,164.244c-.092-1.022-.188-1.9-.315-2.7l1.381-.123.206,1.7.072-.006A2.614,2.614,0,0,1,592.347,161a1.708,1.708,0,0,1,.452.014l.133,1.489a2.354,2.354,0,0,0-.543-.007,2.222,2.222,0,0,0-1.935,2.216,4.644,4.644,0,0,0-.007.742l.413,4.627-1.559.139Z" style="fill:#fff"/><path d="M595.5,165.577a2.792,2.792,0,0,0,3.246,2.747,5.711,5.711,0,0,0,2.363-.663l.37,1.107a7.067,7.067,0,0,1-2.838.795,4.047,4.047,0,0,1-4.66-3.995c-.234-2.619,1.124-4.818,3.654-5.044,2.833-.253,3.808,2.173,3.951,3.769a6.05,6.05,0,0,1,.012.74Zm4.526-1.543a2.255,2.255,0,0,0-2.417-2.369,2.626,2.626,0,0,0-2.191,2.78Z" style="fill:#fff"/><path d="M603.607,167.312a4.138,4.138,0,0,0,2.135.442c1.149-.1,1.637-.724,1.572-1.441-.067-.753-.552-1.126-1.757-1.452-1.61-.417-2.422-1.213-2.515-2.253-.125-1.4.9-2.647,2.768-2.814a4.348,4.348,0,0,1,2.182.348l-.292,1.183a3.4,3.4,0,0,0-1.821-.344c-.932.084-1.4.668-1.347,1.313.065.718.614.995,1.782,1.324,1.557.439,2.4,1.124,2.511,2.415.136,1.524-.951,2.706-3.012,2.89a4.975,4.975,0,0,1-2.494-.374Z" style="fill:#fff"/><path d="M615.872,167.845l-.224-1.083-.053,0a3.247,3.247,0,0,1-2.539,1.528,2.482,2.482,0,0,1-2.876-2.256c-.188-2.1,1.575-3.413,4.931-3.694l-.016-.179a1.8,1.8,0,0,0-2.153-1.833,4.335,4.335,0,0,0-2.2.848l-.451-1.009a5.413,5.413,0,0,1,2.782-1.026c2.655-.236,3.462,1.517,3.617,3.256l.29,3.247a12.213,12.213,0,0,0,.329,2.068Zm-.628-4.409c-1.725.117-3.653.6-3.5,2.282a1.4,1.4,0,0,0,1.623,1.374,2.168,2.168,0,0,0,1.969-1.639,1.626,1.626,0,0,0,.045-.511Z" style="fill:#fff"/><path d="M619.35,165.907a4.141,4.141,0,0,0,2.134.443c1.149-.1,1.636-.725,1.572-1.442-.068-.754-.552-1.126-1.757-1.452-1.61-.417-2.422-1.212-2.515-2.252-.125-1.4.9-2.648,2.768-2.814a4.33,4.33,0,0,1,2.181.347l-.291,1.183a3.394,3.394,0,0,0-1.821-.343c-.932.083-1.4.667-1.347,1.313.065.717.614.994,1.783,1.323,1.556.439,2.395,1.124,2.51,2.415.136,1.524-.951,2.706-3.013,2.891a4.969,4.969,0,0,1-2.492-.375Z" style="fill:#fff"/><path d="M625.785,169.184a26.108,26.108,0,0,0,.694-4.383l1.741-.336a21.99,21.99,0,0,1-1.315,4.51Z" style="fill:#fff"/><path d="M552.777,132.007l6.433-1.157.233,1.294-4.891.88.714,3.97,4.519-.814.23,1.277-4.52.812.972,5.405-1.541.278Z" style="fill:#fff"/><path d="M562.8,131.193a.982.982,0,0,1-1.932.348.966.966,0,0,1,.8-1.151A.942.942,0,0,1,562.8,131.193Zm.238,11.3-1.542-8.576,1.56-.282,1.543,8.577Z" style="fill:#fff"/><path d="M572.329,127.832l1.864,10.367c.138.761.312,1.627.471,2.2l-1.4.252-.34-1.476-.035.006a3.222,3.222,0,0,1-2.621,2.21c-2.074.373-3.984-1.095-4.453-3.7-.53-2.85.927-4.922,3.018-5.3a2.91,2.91,0,0,1,2.822.847l.035-.007-.92-5.121Zm-.211,7.777a2.819,2.819,0,0,0-.188-.644,2.33,2.33,0,0,0-2.576-1.4c-1.613.29-2.315,1.88-1.974,3.776.312,1.737,1.422,3.018,3.105,2.715a2.381,2.381,0,0,0,1.952-2.27,2.833,2.833,0,0,0-.051-.687Z" style="fill:#fff"/><path d="M583.934,136.319c.159.886.318,1.662.492,2.326l-1.383.248-.34-1.384-.035.007a3.282,3.282,0,0,1-2.55,2.105c-1.347.243-3.093-.212-3.635-3.225l-.9-5.015,1.559-.28.853,4.749c.294,1.63.987,2.641,2.4,2.385a2.291,2.291,0,0,0,1.8-1.787,2.344,2.344,0,0,0,0-.823l-.946-5.263,1.559-.281Z" style="fill:#fff"/><path d="M593,136.774a5.837,5.837,0,0,1-2.375.939,4.139,4.139,0,0,1-5.057-3.609,4.428,4.428,0,0,1,3.788-5.383,5.29,5.29,0,0,1,2.241.055l-.137,1.268a3.7,3.7,0,0,0-1.882-.083,3.286,3.286,0,0,0,1.109,6.46,4.506,4.506,0,0,0,1.836-.768Z" style="fill:#fff"/><path d="M594.635,125.465a.982.982,0,0,1-1.932.348.965.965,0,0,1,.8-1.149A.941.941,0,0,1,594.635,125.465Zm.24,11.3-1.543-8.577,1.559-.28,1.543,8.577Z" style="fill:#fff"/><path d="M603.77,135.165l-.32-1.058-.053.01A3.247,3.247,0,0,1,601,135.864a2.483,2.483,0,0,1-3.066-1.991c-.373-2.074,1.267-3.54,4.583-4.118l-.032-.177a1.8,1.8,0,0,0-2.306-1.634,4.351,4.351,0,0,0-2.119,1.039l-.538-.964a5.414,5.414,0,0,1,2.68-1.269c2.623-.471,3.583,1.2,3.893,2.922l.577,3.208a12.221,12.221,0,0,0,.512,2.03Zm-1.018-4.335c-1.707.27-3.586.92-3.286,2.585a1.4,1.4,0,0,0,1.738,1.224,2.17,2.17,0,0,0,1.816-1.808,1.665,1.665,0,0,0,0-.513Z" style="fill:#fff"/><path d="M607.06,132.926a4.131,4.131,0,0,0,2.166.251c1.134-.2,1.565-.867,1.437-1.576-.134-.744-.65-1.071-1.88-1.29-1.64-.271-2.519-.991-2.705-2.019-.248-1.382.665-2.717,2.508-3.048a4.331,4.331,0,0,1,2.2.151l-.185,1.2a3.408,3.408,0,0,0-1.844-.18c-.921.165-1.339.789-1.225,1.427.128.709.7.936,1.892,1.16,1.592.3,2.487.907,2.717,2.183.27,1.506-.708,2.78-2.746,3.146a4.974,4.974,0,0,1-2.516-.151Z" style="fill:#fff"/><path d="M613.762,135.618a25.864,25.864,0,0,0,.3-4.426l1.705-.49a21.928,21.928,0,0,1-.909,4.608Z" style="fill:#fff"/><path d="M556.077,200.605a5.549,5.549,0,0,0,2.856.595c1.6-.111,2.475-1.02,2.39-2.241-.078-1.132-.771-1.734-2.449-2.249-2.025-.563-3.317-1.5-3.435-3.209-.131-1.886,1.334-3.4,3.687-3.559a5.5,5.5,0,0,1,2.717.408l-.342,1.305a4.833,4.833,0,0,0-2.338-.416c-1.654.115-2.214,1.147-2.157,1.973.079,1.132.854,1.638,2.57,2.168,2.1.648,3.214,1.563,3.337,3.342.129,1.868-1.142,3.58-4,3.779a6.278,6.278,0,0,1-3.144-.557Z" style="fill:#fff"/><path d="M572.891,196.909a4.26,4.26,0,0,1-4.009,4.918,4.143,4.143,0,0,1-4.477-4.183c-.2-2.91,1.583-4.749,3.99-4.917C570.891,192.554,572.707,194.252,572.891,196.909Zm-6.891.57c.132,1.9,1.327,3.265,2.872,3.158,1.509-.1,2.542-1.6,2.406-3.561-.1-1.472-.969-3.29-2.837-3.161S565.885,195.826,566,197.479Z" style="fill:#fff"/><path d="M581.364,200.436a5.842,5.842,0,0,1-2.462.676,4.14,4.14,0,0,1-4.637-4.135,4.428,4.428,0,0,1,4.349-4.941,5.306,5.306,0,0,1,2.223.3l-.274,1.247a3.678,3.678,0,0,0-1.862-.288,3.286,3.286,0,0,0,.4,6.543,4.482,4.482,0,0,0,1.909-.566Z" style="fill:#fff"/><path d="M584.22,189.373a.981.981,0,0,1-1.958.136.965.965,0,0,1,.919-1.057A.94.94,0,0,1,584.22,189.373Zm-.987,11.258-.6-8.693,1.58-.11.6,8.693Z" style="fill:#fff"/><path d="M588.033,196.218a2.792,2.792,0,0,0,3.191,2.811,5.725,5.725,0,0,0,2.376-.616l.349,1.112a7.044,7.044,0,0,1-2.855.74,4.047,4.047,0,0,1-4.58-4.085c-.181-2.623,1.22-4.8,3.752-4.972,2.838-.2,3.766,2.247,3.877,3.846a5.622,5.622,0,0,1,0,.74Zm4.555-1.453a2.256,2.256,0,0,0-2.369-2.417,2.626,2.626,0,0,0-2.246,2.738Z" style="fill:#fff"/><path d="M603.053,186.439l.731,10.508c.053.773.132,1.652.227,2.24l-1.419.1-.176-1.5-.037,0a3.219,3.219,0,0,1-2.845,1.912c-2.1.146-3.841-1.52-4.025-4.16-.219-2.891,1.454-4.8,3.574-4.942a2.911,2.911,0,0,1,2.713,1.148l.037,0-.361-5.191ZM602,194.146a2.776,2.776,0,0,0-.118-.658,2.329,2.329,0,0,0-2.408-1.674c-1.635.114-2.5,1.619-2.371,3.54.122,1.76,1.086,3.155,2.792,3.037a2.381,2.381,0,0,0,2.186-2.047,2.734,2.734,0,0,0,.024-.689Z" style="fill:#fff"/><path d="M611.373,198.676l-.2-1.087-.053,0a3.243,3.243,0,0,1-2.569,1.479,2.483,2.483,0,0,1-2.832-2.312c-.146-2.1,1.643-3.381,5-3.6l-.012-.18a1.8,1.8,0,0,0-2.118-1.874,4.34,4.34,0,0,0-2.217.805l-.431-1.018a5.4,5.4,0,0,1,2.8-.971c2.658-.185,3.431,1.586,3.552,3.327l.226,3.251a12.5,12.5,0,0,0,.287,2.074Zm-.54-4.421c-1.728.084-3.665.526-3.547,2.214a1.4,1.4,0,0,0,1.594,1.406,2.17,2.17,0,0,0,2-1.6,1.618,1.618,0,0,0,.056-.509Z" style="fill:#fff"/><path d="M621.836,185.134l.731,10.508c.054.773.132,1.652.227,2.24l-1.419.1-.177-1.5-.035,0a3.224,3.224,0,0,1-2.846,1.914c-2.1.146-3.841-1.52-4.025-4.161-.219-2.891,1.455-4.794,3.574-4.942a2.914,2.914,0,0,1,2.714,1.148l.036,0-.361-5.192Zm-1.053,7.708a2.833,2.833,0,0,0-.117-.659,2.331,2.331,0,0,0-2.409-1.674c-1.634.114-2.5,1.618-2.371,3.539.122,1.761,1.086,3.156,2.792,3.038a2.381,2.381,0,0,0,2.186-2.047,2.728,2.728,0,0,0,.024-.688Z" style="fill:#fff"/><path d="M625.939,193.584a2.794,2.794,0,0,0,3.192,2.812,5.727,5.727,0,0,0,2.376-.617l.348,1.113a7.041,7.041,0,0,1-2.854.739,4.047,4.047,0,0,1-4.58-4.084c-.181-2.623,1.219-4.8,3.752-4.973,2.838-.2,3.765,2.247,3.876,3.846a5.62,5.62,0,0,1,0,.74Zm4.557-1.452a2.258,2.258,0,0,0-2.371-2.418,2.628,2.628,0,0,0-2.246,2.738Z" style="fill:#fff"/><path d="M634.01,195.479a4.162,4.162,0,0,0,2.127.484c1.15-.08,1.65-.692,1.6-1.411-.053-.754-.53-1.136-1.729-1.486-1.6-.449-2.4-1.26-2.47-2.3-.1-1.4.955-2.63,2.823-2.76a4.357,4.357,0,0,1,2.175.391l-.315,1.177a3.4,3.4,0,0,0-1.814-.38c-.934.065-1.417.64-1.372,1.287.05.72.593,1.006,1.754,1.359,1.549.469,2.375,1.169,2.464,2.463.106,1.527-1,2.687-3.07,2.83a4.953,4.953,0,0,1-2.484-.423Z" style="fill:#fff"/><path d="M640.38,198.881a25.839,25.839,0,0,0,.78-4.369l1.748-.3a21.906,21.906,0,0,1-1.4,4.483Z" style="fill:#fff"/><path d="M552.433,281.458c.125-.582.291-1.449.4-2.214l1.562-10.417,1.549.232-.811,5.413.036,0a3.246,3.246,0,0,1,3.175-1.144c2.137.321,3.384,2.329,2.973,4.944-.462,3.08-2.633,4.32-4.556,4.032a3.1,3.1,0,0,1-2.641-2.053l-.054-.007-.285,1.413Zm2.138-3.21a2.98,2.98,0,0,0-.013.58,2.443,2.443,0,0,0,2.075,2.186c1.638.245,2.818-.942,3.114-2.919.26-1.727-.409-3.339-2.083-3.59a2.531,2.531,0,0,0-2.676,1.565,3.216,3.216,0,0,0-.184.629Z" style="fill:#fff"/><path d="M564.529,270.345l1.567.236-1.9,12.642-1.566-.235Z" style="fill:#fff"/><path d="M571.6,284.333l.04-1.1-.053-.008a3.248,3.248,0,0,1-2.828.887,2.483,2.483,0,0,1-2.264-2.87c.313-2.084,2.336-2.946,5.663-2.429l.026-.178a1.8,1.8,0,0,0-1.661-2.288,4.343,4.343,0,0,0-2.339.306l-.2-1.088a5.426,5.426,0,0,1,2.945-.341c2.635.4,3.007,2.291,2.749,4.018l-.484,3.222a12.381,12.381,0,0,0-.168,2.087Zm.43-4.431c-1.7-.293-3.69-.281-3.941,1.392a1.4,1.4,0,0,0,1.253,1.717,2.169,2.169,0,0,0,2.3-1.129,1.627,1.627,0,0,0,.164-.485Z" style="fill:#fff"/><path d="M576.356,278.62c.133-.891.226-1.622.279-2.344l1.388.208-.125,1.438.036.006a3.2,3.2,0,0,1,3.092-1.194c1.194.18,2.939,1.17,2.5,4.126l-.772,5.145-1.566-.235.746-4.968c.208-1.388-.135-2.624-1.613-2.845a2.327,2.327,0,0,0-2.559,2l-.778,5.181-1.566-.235Z" style="fill:#fff"/><path d="M594.632,274.861l-1.563,10.416c-.114.765-.227,1.641-.261,2.236L591.4,287.3l.153-1.506-.036,0a3.224,3.224,0,0,1-3.192,1.251c-2.083-.312-3.421-2.315-3.028-4.933.411-2.869,2.457-4.365,4.558-4.051a2.913,2.913,0,0,1,2.4,1.708l.035.006.771-5.147Zm-2.7,7.3a2.876,2.876,0,0,0,.029-.67,2.332,2.332,0,0,0-1.99-2.155c-1.62-.243-2.794,1.038-3.08,2.942-.262,1.745.377,3.316,2.068,3.569a2.381,2.381,0,0,0,2.577-1.524,2.811,2.811,0,0,0,.172-.666Z" style="fill:#fff"/><path d="M603.789,284.681a4.259,4.259,0,0,1-4.977,3.934,4.143,4.143,0,0,1-3.466-5.053c.432-2.885,2.573-4.3,4.96-3.937C602.78,280,604.185,282.047,603.789,284.681Zm-6.851-.935c-.282,1.887.589,3.474,2.122,3.7,1.5.224,2.828-1.014,3.119-2.954.218-1.46-.234-3.422-2.085-3.7S597.185,282.107,596.938,283.746Z" style="fill:#fff"/><path d="M605.132,287.724a4.172,4.172,0,0,0,1.972.933c1.14.171,1.759-.319,1.867-1.032.112-.747-.271-1.224-1.366-1.825-1.465-.783-2.068-1.748-1.913-2.781.208-1.389,1.5-2.36,3.353-2.083a4.339,4.339,0,0,1,2.039.854l-.563,1.081a3.372,3.372,0,0,0-1.688-.764c-.925-.139-1.521.317-1.618.958-.107.713.362,1.111,1.419,1.707,1.41.794,2.064,1.655,1.872,2.938-.228,1.513-1.563,2.406-3.61,2.1a4.959,4.959,0,0,1-2.334-.95Z" style="fill:#fff"/><path d="M563.05,254.385a7.789,7.789,0,0,1-3.251.193c-3.4-.405-5.7-2.856-5.226-6.807a6.038,6.038,0,0,1,7.047-5.578,6.523,6.523,0,0,1,2.8.877l-.527,1.224a5.747,5.747,0,0,0-2.372-.791c-2.826-.336-4.917,1.246-5.295,4.411-.352,2.95,1.122,5.047,4.053,5.4a6.287,6.287,0,0,0,2.6-.2Z" style="fill:#fff"/><path d="M565.551,249.043c.121-1.018.209-1.9.251-2.707l1.377.164-.15,1.706.072.008a2.617,2.617,0,0,1,2.623-1.611,1.766,1.766,0,0,1,.438.108l-.177,1.484a2.363,2.363,0,0,0-.53-.117,2.22,2.22,0,0,0-2.349,1.768,4.582,4.582,0,0,0-.16.725l-.55,4.612L564.841,255Z" style="fill:#fff"/><path d="M571.864,251.737a2.793,2.793,0,0,0,2.612,3.358,5.714,5.714,0,0,0,2.448-.161l.134,1.158a7.069,7.069,0,0,1-2.943.193,4.045,4.045,0,0,1-3.734-4.869c.311-2.611,2.094-4.485,4.614-4.184,2.825.337,3.279,2.912,3.09,4.5a5.624,5.624,0,0,1-.142.725Zm4.748-.575a2.257,2.257,0,0,0-1.877-2.818,2.625,2.625,0,0,0-2.717,2.27Zm1.237-7.179-2.486,2.3-1.126-.135,1.877-2.368Z" style="fill:#fff"/><path d="M588.448,244.938,587.2,255.4c-.092.77-.179,1.647-.194,2.243l-1.413-.168.107-1.511-.035,0a3.225,3.225,0,0,1-3.153,1.347c-2.092-.25-3.49-2.211-3.176-4.84.325-2.881,2.324-4.438,4.434-4.186a2.91,2.91,0,0,1,2.452,1.635l.036,0,.616-5.168Zm-2.474,7.375a2.777,2.777,0,0,0,.006-.67,2.33,2.33,0,0,0-2.052-2.094c-1.628-.194-2.764,1.121-2.991,3.034-.209,1.751.476,3.3,2.174,3.505a2.382,2.382,0,0,0,2.531-1.6,2.706,2.706,0,0,0,.152-.671Z" style="fill:#fff"/><path d="M589.542,257.943l1.032-8.653,1.573.187-1.032,8.653Zm3.074-10.876a.981.981,0,0,1-1.949-.233.965.965,0,0,1,1.1-.865A.94.94,0,0,1,592.616,247.067Z" style="fill:#fff"/><path d="M596.947,247.529l-.3,2.485,2.253.269-.143,1.2-2.253-.269-.556,4.666c-.128,1.074.1,1.717.98,1.822a3.489,3.489,0,0,0,.925,0l-.07,1.188a3.882,3.882,0,0,1-1.42.049,2.2,2.2,0,0,1-1.619-.863,3.232,3.232,0,0,1-.34-2.326l.563-4.72-1.341-.159.143-1.2,1.341.16.247-2.074Z" style="fill:#fff"/><path d="M607.889,255.669a4.26,4.26,0,0,1-4.858,4.082,4.142,4.142,0,0,1-3.616-4.947c.345-2.9,2.443-4.369,4.839-4.084C606.738,251.017,608.2,253.024,607.889,255.669Zm-6.876-.728c-.226,1.9.693,3.455,2.231,3.639,1.5.178,2.8-1.1,3.029-3.047.174-1.467-.336-3.414-2.2-3.636S601.209,253.3,601.013,254.941Z" style="fill:#fff"/><path d="M609.322,258.67a4.156,4.156,0,0,0,2,.872c1.145.137,1.75-.372,1.835-1.086.09-.751-.308-1.216-1.419-1.783-1.49-.74-2.121-1.686-2-2.722.166-1.4,1.43-2.406,3.289-2.184a4.342,4.342,0,0,1,2.063.791l-.529,1.1a3.393,3.393,0,0,0-1.71-.713c-.929-.11-1.512.364-1.589,1.008-.085.716.395,1.1,1.47,1.662,1.434.751,2.113,1.594,1.959,2.882-.181,1.519-1.489,2.45-3.545,2.206a5,5,0,0,1-2.362-.88Z" style="fill:#fff"/><path d="M559.087,224.542l-1.448,3.75-1.618-.081,4.72-11.916,1.888.094,3.534,12.327-1.673-.084-1.105-3.878Zm4.035-1.025-1.013-3.549c-.231-.8-.375-1.532-.521-2.243h-.035c-.215.709-.45,1.437-.72,2.162l-1.361,3.449Z" style="fill:#fff"/><path d="M573.89,228.775a5.858,5.858,0,0,1-2.525.379,4.139,4.139,0,0,1-4.112-4.657,4.426,4.426,0,0,1,4.9-4.389,5.291,5.291,0,0,1,2.172.559l-.42,1.206a3.649,3.649,0,0,0-1.814-.507,3.286,3.286,0,0,0-.379,6.545,4.5,4.5,0,0,0,1.964-.337Z" style="fill:#fff"/><path d="M583.126,227.179c-.045.9-.065,1.691-.046,2.378l-1.4-.069-.02-1.427-.035,0a3.283,3.283,0,0,1-2.958,1.477c-1.367-.069-2.966-.906-2.813-3.962l.253-5.089,1.582.078-.241,4.819c-.082,1.655.366,2.795,1.8,2.867a2.293,2.293,0,0,0,2.159-1.335,2.33,2.33,0,0,0,.185-.8l.265-5.341,1.582.078Z" style="fill:#fff"/><path d="M586.713,225.664a2.793,2.793,0,0,0,2.836,3.169,5.717,5.717,0,0,0,2.431-.33l.213,1.146a7.035,7.035,0,0,1-2.921.4,4.045,4.045,0,0,1-4.062-4.6c.131-2.626,1.779-4.617,4.315-4.491,2.841.14,3.472,2.678,3.392,4.279a6.036,6.036,0,0,1-.089.734Zm4.7-.9a2.254,2.254,0,0,0-2.065-2.681,2.626,2.626,0,0,0-2.556,2.452Z" style="fill:#fff"/><path d="M594.935,224.143c.05-1.025.077-1.907.062-2.719l1.385.069-.031,1.711.072,0a2.616,2.616,0,0,1,2.5-1.787,1.719,1.719,0,0,1,.446.077l-.074,1.492a2.334,2.334,0,0,0-.537-.08,2.22,2.22,0,0,0-2.222,1.925,4.4,4.4,0,0,0-.109.734l-.231,4.64-1.564-.077Z" style="fill:#fff"/><path d="M608.487,218.021l-.523,10.52c-.038.773-.065,1.656-.039,2.251l-1.421-.07,0-1.515-.036,0a3.22,3.22,0,0,1-3.052,1.561c-2.1-.1-3.634-1.964-3.5-4.608.125-2.9,2.012-4.588,4.135-4.483a2.912,2.912,0,0,1,2.557,1.462l.037,0,.258-5.2Zm-1.961,7.527a2.8,2.8,0,0,0-.039-.669,2.328,2.328,0,0,0-2.192-1.947c-1.637-.081-2.678,1.309-2.774,3.233-.087,1.762.7,3.262,2.411,3.347a2.381,2.381,0,0,0,2.414-1.773,2.8,2.8,0,0,0,.105-.68Z" style="fill:#fff"/><path d="M618.572,226.886a4.259,4.259,0,0,1-4.563,4.407,4.143,4.143,0,0,1-3.949-4.685c.144-2.913,2.134-4.527,4.544-4.407C617.1,222.325,618.705,224.225,618.572,226.886Zm-6.91-.252c-.1,1.907.93,3.4,2.477,3.476,1.511.075,2.714-1.289,2.811-3.249.073-1.475-.57-3.383-2.44-3.476S611.745,224.979,611.662,226.634Z" style="fill:#fff"/><path d="M620.21,229.782a4.155,4.155,0,0,0,2.054.732c1.151.058,1.719-.491,1.756-1.212.037-.755-.391-1.19-1.541-1.679-1.536-.636-2.23-1.537-2.178-2.579.069-1.4,1.261-2.5,3.13-2.405a4.357,4.357,0,0,1,2.114.647l-.453,1.131a3.4,3.4,0,0,0-1.756-.593c-.935-.046-1.483.468-1.516,1.115-.036.72.47,1.069,1.581,1.558,1.483.65,2.218,1.443,2.154,2.739-.076,1.528-1.316,2.547-3.384,2.444a4.957,4.957,0,0,1-2.417-.714Z" style="fill:#fff"/><path d="M626.131,233.916a25.944,25.944,0,0,0,1.293-4.246l1.771-.091a22.125,22.125,0,0,1-1.924,4.285Z" style="fill:#fff"/></g></g></svg>