<svg xmlns="http://www.w3.org/2000/svg" viewBox="0 0 733.992 277.302"><g id="Capa_2" data-name="Capa 2"><g id="Capa_1-2" data-name="Capa 1"><path d="M453.306,197.66,281.718,171.57a158.493,158.493,0,0,0,1.783-23.731,156.646,156.646,0,0,0-4.79-38.57L446.923,66.514a330.39,330.39,0,0,1,10.138,81.328A332.5,332.5,0,0,1,453.306,197.66Z" style="fill:#37276e"/><circle cx="127.695" cy="147.802" r="105" style="fill:#bdc4c6"/><circle cx="127.5" cy="149.802" r="127" style="fill:none;stroke:#aab8bd;stroke-miterlimit:10"/><circle cx="127.696" cy="147.967" r="105" style="fill:#bdc4c6"/><path d="M725.957,246.759,489.146,207.765a366.433,366.433,0,0,0,4.846-59.347,368.977,368.977,0,0,0-11.14-89.894L715.606,0a609.162,609.162,0,0,1,18.386,148.418A607.142,607.142,0,0,1,725.957,246.759Z" style="fill:#e27aaf"/><path d="M444.781,196.476l-167.08-25.4a154.177,154.177,0,0,0,1.736-23.108,152.543,152.543,0,0,0-4.663-37.555L438.566,68.776a321.712,321.712,0,0,1,9.871,79.191A323.7,323.7,0,0,1,444.781,196.476Z" style="fill:#e27aaf"/><path d="M323.333,113.06v12.8h-1.654v-12.8Z" style="fill:#fff"/><path d="M326.353,119.158c0-.95-.019-1.729-.076-2.489h1.482l.095,1.52h.038a3.381,3.381,0,0,1,3.039-1.729c1.274,0,3.249.76,3.249,3.914v5.49h-1.672v-5.3c0-1.482-.55-2.717-2.128-2.717a2.373,2.373,0,0,0-2.241,1.71,2.4,2.4,0,0,0-.114.778v5.529h-1.672Z" style="fill:#fff"/><path d="M338.836,114.029v2.64h2.394v1.273h-2.394V122.9c0,1.141.324,1.786,1.254,1.786a3.719,3.719,0,0,0,.969-.114l.076,1.254a4.113,4.113,0,0,1-1.481.228,2.317,2.317,0,0,1-1.805-.7,3.4,3.4,0,0,1-.646-2.393v-5.016h-1.425v-1.273H337.2v-2.2Z" style="fill:#fff"/><path d="M343.928,121.571a2.946,2.946,0,0,0,3.154,3.191,6.041,6.041,0,0,0,2.545-.475l.286,1.2a7.448,7.448,0,0,1-3.059.57,4.27,4.27,0,0,1-4.521-4.636c0-2.773,1.633-4.958,4.312-4.958,3,0,3.8,2.641,3.8,4.332a6.089,6.089,0,0,1-.058.779Zm4.9-1.2c.019-1.064-.437-2.717-2.318-2.717a2.77,2.77,0,0,0-2.564,2.717Z" style="fill:#fff"/><path d="M352.516,119.538c0-1.083-.018-2.014-.076-2.869H353.9l.057,1.805h.076a2.758,2.758,0,0,1,2.546-2.014,1.8,1.8,0,0,1,.474.057v1.577a2.509,2.509,0,0,0-.569-.057,2.345,2.345,0,0,0-2.242,2.147,4.693,4.693,0,0,0-.076.778v4.9h-1.653Z" style="fill:#fff"/><path d="M359.849,116.669l1.806,5.167a23.632,23.632,0,0,1,.74,2.356h.058c.209-.76.474-1.52.778-2.356l1.786-5.167h1.747l-3.609,9.2h-1.6l-3.5-9.2Z" style="fill:#fff"/><path d="M369.083,121.571a2.946,2.946,0,0,0,3.155,3.191,6.044,6.044,0,0,0,2.545-.475l.285,1.2a7.448,7.448,0,0,1-3.059.57,4.27,4.27,0,0,1-4.521-4.636c0-2.773,1.634-4.958,4.312-4.958,3,0,3.8,2.641,3.8,4.332a6.089,6.089,0,0,1-.058.779Zm4.9-1.2c.019-1.064-.437-2.717-2.318-2.717a2.77,2.77,0,0,0-2.564,2.717Z" style="fill:#fff"/><path d="M377.671,119.158c0-.95-.018-1.729-.076-2.489h1.483l.094,1.52h.038a3.383,3.383,0,0,1,3.04-1.729c1.273,0,3.249.76,3.249,3.914v5.49h-1.672v-5.3c0-1.482-.551-2.717-2.128-2.717a2.455,2.455,0,0,0-2.356,2.488v5.529h-1.672Z" style="fill:#fff"/><path d="M394.77,125.522a6.155,6.155,0,0,1-2.641.532,4.368,4.368,0,0,1-4.578-4.692,4.672,4.672,0,0,1,4.94-4.883,5.584,5.584,0,0,1,2.317.475l-.38,1.292a3.87,3.87,0,0,0-1.937-.437,3.466,3.466,0,0,0-.057,6.915,4.757,4.757,0,0,0,2.052-.456Z" style="fill:#fff"/><path d="M398.589,114.085a1.035,1.035,0,0,1-2.07,0,1.019,1.019,0,0,1,1.045-1.044A.991.991,0,0,1,398.589,114.085Zm-1.861,11.779v-9.2H398.4v9.2Z" style="fill:#fff"/><path d="M409.5,121.191a4.5,4.5,0,0,1-4.579,4.882,4.372,4.372,0,0,1-4.408-4.731c0-3.077,2.014-4.882,4.56-4.882C407.709,116.46,409.5,118.378,409.5,121.191Zm-7.295.095c0,2.013,1.158,3.533,2.792,3.533,1.6,0,2.793-1.5,2.793-3.571,0-1.558-.78-3.534-2.755-3.534S402.2,119.538,402.2,121.286Zm5.3-8.587-2.317,2.717h-1.2l1.672-2.717Z" style="fill:#fff"/><path d="M411.605,119.158c0-.95-.019-1.729-.076-2.489h1.482l.095,1.52h.038a3.381,3.381,0,0,1,3.039-1.729c1.274,0,3.249.76,3.249,3.914v5.49H417.76v-5.3c0-1.482-.551-2.717-2.128-2.717a2.373,2.373,0,0,0-2.241,1.71,2.4,2.4,0,0,0-.114.778v5.529h-1.672Z" style="fill:#fff"/><path d="M338.256,140.861h-4.977v4.616h5.547v1.387h-7.2v-12.8h6.916v1.387h-5.262v4.046h4.977Z" style="fill:#fff"/><path d="M340.689,145.154a4.375,4.375,0,0,0,2.2.665c1.216,0,1.786-.608,1.786-1.368,0-.8-.475-1.235-1.71-1.691-1.652-.589-2.431-1.5-2.431-2.6,0-1.482,1.2-2.7,3.172-2.7a4.59,4.59,0,0,1,2.261.57l-.418,1.216a3.579,3.579,0,0,0-1.881-.532c-.988,0-1.539.57-1.539,1.254,0,.76.551,1.1,1.748,1.558,1.6.607,2.412,1.405,2.412,2.773,0,1.615-1.253,2.755-3.438,2.755a5.24,5.24,0,0,1-2.583-.627Z" style="fill:#fff"/><path d="M350.455,135.029v2.64h2.393v1.273h-2.393V143.9c0,1.141.323,1.786,1.253,1.786a3.719,3.719,0,0,0,.969-.114l.076,1.254a4.113,4.113,0,0,1-1.481.228,2.317,2.317,0,0,1-1.805-.7,3.4,3.4,0,0,1-.646-2.393v-5.016H347.4v-1.273h1.425v-2.2Z" style="fill:#fff"/><path d="M354.73,140.538c0-1.083-.019-2.014-.076-2.869h1.463l.057,1.8h.076a2.757,2.757,0,0,1,2.545-2.014,1.8,1.8,0,0,1,.475.057v1.577a2.509,2.509,0,0,0-.569-.057,2.347,2.347,0,0,0-2.243,2.147,4.693,4.693,0,0,0-.076.778v4.9H354.73Z" style="fill:#fff"/><path d="M368.637,144.356c0,.95.019,1.786.075,2.508h-1.481l-.095-1.5H367.1a3.46,3.46,0,0,1-3.04,1.71c-1.443,0-3.172-.8-3.172-4.028v-5.376h1.672v5.091c0,1.748.531,2.926,2.052,2.926a2.418,2.418,0,0,0,2.2-1.519,2.451,2.451,0,0,0,.152-.856v-5.642h1.672Z" style="fill:#fff"/><path d="M377.965,146.522a6.149,6.149,0,0,1-2.64.532,4.368,4.368,0,0,1-4.578-4.692,4.672,4.672,0,0,1,4.939-4.883,5.584,5.584,0,0,1,2.317.475l-.379,1.292a3.877,3.877,0,0,0-1.938-.437,3.466,3.466,0,0,0-.057,6.915,4.75,4.75,0,0,0,2.052-.456Z" style="fill:#fff"/><path d="M382.184,135.029v2.64h2.394v1.273h-2.394V143.9c0,1.141.323,1.786,1.254,1.786a3.719,3.719,0,0,0,.969-.114l.076,1.254a4.115,4.115,0,0,1-1.482.228,2.313,2.313,0,0,1-1.8-.7,3.4,3.4,0,0,1-.647-2.393v-5.016h-1.425v-1.273h1.425v-2.2Z" style="fill:#fff"/><path d="M394.154,144.356c0,.95.018,1.786.075,2.508h-1.481l-.095-1.5h-.038a3.463,3.463,0,0,1-3.04,1.71c-1.444,0-3.172-.8-3.172-4.028v-5.376h1.672v5.091c0,1.748.531,2.926,2.051,2.926a2.418,2.418,0,0,0,2.2-1.519,2.474,2.474,0,0,0,.152-.856v-5.642h1.672Z" style="fill:#fff"/><path d="M396.928,140.538c0-1.083-.018-2.014-.076-2.869h1.463l.058,1.8h.075a2.759,2.759,0,0,1,2.546-2.014,1.8,1.8,0,0,1,.474.057v1.577a2.509,2.509,0,0,0-.569-.057,2.345,2.345,0,0,0-2.242,2.147,4.7,4.7,0,0,0-.075.778v4.9h-1.654Z" style="fill:#fff"/><path d="M408.138,146.864,408,145.705h-.056a3.425,3.425,0,0,1-2.812,1.368,2.62,2.62,0,0,1-2.811-2.641c0-2.223,1.975-3.438,5.528-3.42v-.189a1.9,1.9,0,0,0-2.09-2.128,4.575,4.575,0,0,0-2.393.683l-.38-1.1a5.7,5.7,0,0,1,3.02-.817c2.812,0,3.5,1.918,3.5,3.761v3.439a12.84,12.84,0,0,0,.153,2.2Zm-.247-4.693c-1.824-.038-3.894.286-3.894,2.071a1.479,1.479,0,0,0,1.576,1.6A2.286,2.286,0,0,0,407.8,144.3a1.717,1.717,0,0,0,.1-.532Z" style="fill:#fff"/><path d="M344.869,155.211a19.259,19.259,0,0,1,3.173-.247,5.253,5.253,0,0,1,3.59,1.065,3.439,3.439,0,0,1,1.12,2.679,3.768,3.768,0,0,1-.987,2.735,5.3,5.3,0,0,1-3.913,1.405,5.693,5.693,0,0,1-1.33-.113v5.129h-1.653Zm1.653,6.174a5.476,5.476,0,0,0,1.367.134c2,0,3.211-.969,3.211-2.736,0-1.691-1.2-2.507-3.02-2.507a6.937,6.937,0,0,0-1.558.133Z" style="fill:#fff"/><path d="M354.617,161.538c0-1.083-.019-2.014-.076-2.869H356l.058,1.8h.075a2.759,2.759,0,0,1,2.546-2.014,1.8,1.8,0,0,1,.475.057v1.577a2.512,2.512,0,0,0-.57-.057,2.347,2.347,0,0,0-2.242,2.147,4.693,4.693,0,0,0-.076.778v4.9h-1.652Z" style="fill:#fff"/><path d="M361.57,163.571a2.945,2.945,0,0,0,3.154,3.191,6.044,6.044,0,0,0,2.545-.475l.285,1.2a7.443,7.443,0,0,1-3.058.571,4.272,4.272,0,0,1-4.522-4.637c0-2.773,1.634-4.958,4.313-4.958,3,0,3.8,2.641,3.8,4.332a6.323,6.323,0,0,1-.057.779Zm4.9-1.2a2.379,2.379,0,0,0-2.317-2.717,2.77,2.77,0,0,0-2.565,2.717Z" style="fill:#fff"/><path d="M378.1,154.375v11.114c0,.817.02,1.748.076,2.375h-1.5l-.075-1.6h-.038a3.4,3.4,0,0,1-3.135,1.805c-2.222,0-3.932-1.881-3.932-4.673-.019-3.059,1.881-4.94,4.123-4.94a3.074,3.074,0,0,1,2.773,1.406h.038v-5.491Zm-1.671,8.037a2.96,2.96,0,0,0-.076-.7,2.459,2.459,0,0,0-2.413-1.937c-1.729,0-2.754,1.52-2.754,3.553,0,1.861.911,3.4,2.716,3.4a2.513,2.513,0,0,0,2.451-1.995,2.9,2.9,0,0,0,.076-.722Z" style="fill:#fff"/><path d="M382.735,156.085a1.035,1.035,0,0,1-2.07,0,1.018,1.018,0,0,1,1.044-1.044A.992.992,0,0,1,382.735,156.085Zm-1.861,11.779v-9.195h1.671v9.195Z" style="fill:#fff"/><path d="M390.412,167.864l-.134-1.159h-.057a3.425,3.425,0,0,1-2.811,1.368,2.62,2.62,0,0,1-2.812-2.641c0-2.223,1.976-3.438,5.528-3.42v-.189a1.9,1.9,0,0,0-2.089-2.128,4.578,4.578,0,0,0-2.394.683l-.38-1.1a5.707,5.707,0,0,1,3.021-.817c2.811,0,3.5,1.918,3.5,3.761v3.439a12.948,12.948,0,0,0,.152,2.2Zm-.247-4.693c-1.825-.038-3.9.286-3.9,2.071a1.479,1.479,0,0,0,1.576,1.6,2.288,2.288,0,0,0,2.223-1.539,1.747,1.747,0,0,0,.1-.532Z" style="fill:#fff"/><path d="M394.478,154.375h1.672v13.489h-1.672Z" style="fill:#fff"/><path d="M60.633,134.2h8.232v2.137h-5.63v3.937h5.249v2.138H63.235v6.052h-2.6Z" style="fill:#112025"/><path d="M74.009,134.2v14.264h-2.6V134.2Z" style="fill:#112025"/><path d="M76.994,148.464V134.2h2.963l3.683,6.116a39.309,39.309,0,0,1,2.433,4.783h.042c-.169-1.9-.232-3.746-.232-5.926V134.2H88.3v14.264H85.607L81.883,142.2a49.956,49.956,0,0,1-2.561-4.931l-.063.021c.105,1.841.127,3.724.127,6.074v5.1Z" style="fill:#112025"/><path d="M94.159,144.422l-1.227,4.042H90.244L94.815,134.2h3.324l4.634,14.264H99.979l-1.291-4.042Zm4.085-1.968-1.122-3.513c-.274-.868-.508-1.842-.719-2.667H96.36c-.211.825-.422,1.82-.676,2.667l-1.1,3.513Z" style="fill:#112025"/><path d="M104.765,148.464V134.2h2.963l3.682,6.116a39.32,39.32,0,0,1,2.434,4.783h.042c-.169-1.9-.233-3.746-.233-5.926V134.2h2.412v14.264h-2.687l-3.725-6.264a49.732,49.732,0,0,1-2.56-4.931l-.064.021c.106,1.841.127,3.724.127,6.074v5.1Z" style="fill:#112025"/><path d="M129.295,148.042a9.025,9.025,0,0,1-3.683.634c-4.528,0-7.28-2.836-7.28-7.175,0-4.7,3.26-7.534,7.619-7.534a8.2,8.2,0,0,1,3.471.635l-.571,2.074a6.919,6.919,0,0,0-2.794-.551c-2.9,0-4.994,1.821-4.994,5.25,0,3.131,1.84,5.142,4.973,5.142a7.3,7.3,0,0,0,2.836-.529Z" style="fill:#112025"/><path d="M134.122,134.2v14.264h-2.6V134.2Z" style="fill:#112025"/><path d="M139.964,144.422l-1.228,4.042h-2.687L140.62,134.2h3.323l4.635,14.264h-2.794l-1.291-4.042Zm4.085-1.968-1.122-3.513c-.275-.868-.508-1.842-.719-2.667h-.043c-.211.825-.423,1.82-.677,2.667l-1.1,3.513Z" style="fill:#112025"/><path d="M160.347,148.042a9.029,9.029,0,0,1-3.683.634c-4.528,0-7.28-2.836-7.28-7.175,0-4.7,3.26-7.534,7.619-7.534a8.2,8.2,0,0,1,3.471.635l-.572,2.074a6.911,6.911,0,0,0-2.794-.551c-2.9,0-4.994,1.821-4.994,5.25,0,3.131,1.841,5.142,4.974,5.142a7.3,7.3,0,0,0,2.836-.529Z" style="fill:#112025"/><path d="M165.174,134.2v14.264h-2.6V134.2Z" style="fill:#112025"/><path d="M180.814,141.184c0,4.783-2.9,7.513-6.835,7.513-4.021,0-6.561-3.069-6.561-7.259,0-4.381,2.752-7.471,6.772-7.471C178.36,133.967,180.814,137.121,180.814,141.184Zm-10.644.212c0,2.9,1.46,5.206,3.957,5.206,2.519,0,3.936-2.328,3.936-5.312,0-2.688-1.333-5.228-3.936-5.228C171.545,136.062,170.17,138.454,170.17,141.4Zm7.364-10.54-2.645,2.54h-2.095l1.862-2.54Z" style="fill:#112025"/><path d="M183.061,148.464V134.2h2.962l3.683,6.116a39.464,39.464,0,0,1,2.434,4.783h.042c-.169-1.9-.233-3.746-.233-5.926V134.2h2.412v14.264h-2.687l-3.725-6.264a49.732,49.732,0,0,1-2.56-4.931l-.064.021c.106,1.841.127,3.724.127,6.074v5.1Z" style="fill:#112025"/><path d="M573.32,121.858h-5.5v5.1h6.131v1.533h-7.957V114.342h7.642v1.533h-5.816v4.472h5.5Z" style="fill:#fff"/><path d="M576.261,121.082c0-1.05-.021-1.911-.084-2.751h1.637l.105,1.68h.042a3.738,3.738,0,0,1,3.36-1.911c1.407,0,3.591.84,3.591,4.325v6.068h-1.848v-5.858c0-1.637-.609-3-2.352-3a2.626,2.626,0,0,0-2.478,1.889,2.658,2.658,0,0,0-.125.861v6.11h-1.848Z" style="fill:#fff"/><path d="M595.159,128.115a6.811,6.811,0,0,1-2.919.588,4.828,4.828,0,0,1-5.06-5.186,5.164,5.164,0,0,1,5.459-5.4,6.177,6.177,0,0,1,2.562.525l-.42,1.428a4.288,4.288,0,0,0-2.142-.483,3.831,3.831,0,0,0-.063,7.642,5.241,5.241,0,0,0,2.267-.5Z" style="fill:#fff"/><path d="M602.951,128.493l-.148-1.281h-.063a3.784,3.784,0,0,1-3.108,1.512,2.9,2.9,0,0,1-3.107-2.918c0-2.457,2.183-3.8,6.11-3.78v-.21a2.1,2.1,0,0,0-2.309-2.351,5.061,5.061,0,0,0-2.646.756L597.26,119a6.308,6.308,0,0,1,3.339-.9c3.108,0,3.863,2.121,3.863,4.157v3.8a14.2,14.2,0,0,0,.168,2.435Zm-.274-5.186c-2.015-.042-4.3.315-4.3,2.289a1.635,1.635,0,0,0,1.743,1.763,2.526,2.526,0,0,0,2.456-1.7,1.929,1.929,0,0,0,.105-.588Z" style="fill:#fff"/><path d="M607.445,121.5c0-1.2-.021-2.225-.084-3.17h1.617l.063,1.995h.084a3.049,3.049,0,0,1,2.814-2.226,2,2,0,0,1,.524.063v1.743a2.77,2.77,0,0,0-.63-.063,2.592,2.592,0,0,0-2.477,2.372,5.2,5.2,0,0,0-.084.861v5.417h-1.827Z" style="fill:#fff"/><path d="M622.9,118.331c-.042.735-.084,1.554-.084,2.793v5.9c0,2.331-.462,3.759-1.449,4.641a5.391,5.391,0,0,1-3.7,1.217,6.567,6.567,0,0,1-3.379-.839l.461-1.407a5.731,5.731,0,0,0,2.982.8c1.89,0,3.275-.987,3.275-3.549V126.75h-.042a3.625,3.625,0,0,1-3.233,1.7c-2.52,0-4.325-2.141-4.325-4.955,0-3.443,2.246-5.4,4.577-5.4a3.383,3.383,0,0,1,3.171,1.764h.041l.084-1.533Zm-1.91,4.01a2.631,2.631,0,0,0-.106-.84,2.661,2.661,0,0,0-2.582-1.952c-1.763,0-3.023,1.491-3.023,3.842,0,1.995,1.008,3.653,3,3.653a2.7,2.7,0,0,0,2.561-1.889,3.217,3.217,0,0,0,.148-.987Z" style="fill:#fff"/><path d="M635.08,123.328c0,3.758-2.6,5.4-5.061,5.4-2.75,0-4.871-2.016-4.871-5.228,0-3.4,2.226-5.4,5.039-5.4C633.105,118.1,635.08,120.221,635.08,123.328Zm-8.063.105c0,2.226,1.28,3.9,3.086,3.9,1.764,0,3.086-1.658,3.086-3.947,0-1.722-.86-3.905-3.044-3.905S627.017,121.5,627.017,123.433Z" style="fill:#fff"/><path d="M637.16,126.6a4.852,4.852,0,0,0,2.435.734c1.344,0,1.975-.671,1.975-1.511,0-.882-.526-1.365-1.891-1.869-1.826-.651-2.687-1.659-2.687-2.876,0-1.638,1.323-2.982,3.507-2.982a5.079,5.079,0,0,1,2.5.63l-.463,1.344a3.952,3.952,0,0,0-2.078-.588c-1.092,0-1.7.63-1.7,1.386,0,.839.61,1.217,1.932,1.721,1.764.672,2.667,1.554,2.667,3.066,0,1.784-1.386,3.044-3.8,3.044a5.789,5.789,0,0,1-2.855-.693Z" style="fill:#fff"/><path d="M565.992,139.542h7.621v1.532h-5.8v4.7h5.354v1.512h-5.354v6.4h-1.826Z" style="fill:#fff"/><path d="M577.667,140.675a1.144,1.144,0,0,1-2.288,0,1.126,1.126,0,0,1,1.156-1.154A1.1,1.1,0,0,1,577.667,140.675Zm-2.056,13.018V143.531h1.847v10.162Z" style="fill:#fff"/><path d="M589.3,138.786v12.283c0,.9.021,1.931.084,2.624h-1.659l-.084-1.764H587.6a3.759,3.759,0,0,1-3.465,2c-2.456,0-4.345-2.079-4.345-5.166-.022-3.38,2.078-5.459,4.556-5.459a3.4,3.4,0,0,1,3.065,1.555h.043v-6.068Zm-1.847,8.881a3.32,3.32,0,0,0-.084-.777,2.719,2.719,0,0,0-2.667-2.141c-1.911,0-3.044,1.679-3.044,3.925,0,2.059,1.008,3.759,3,3.759a2.779,2.779,0,0,0,2.709-2.2,3.261,3.261,0,0,0,.084-.8Z" style="fill:#fff"/><path d="M600.872,150.921c0,1.05.02,1.974.084,2.772h-1.638l-.106-1.659h-.041a3.824,3.824,0,0,1-3.359,1.89c-1.6,0-3.507-.882-3.507-4.451v-5.942h1.848v5.627c0,1.931.588,3.233,2.267,3.233a2.67,2.67,0,0,0,2.436-1.68,2.726,2.726,0,0,0,.168-.945v-6.235h1.848Z" style="fill:#fff"/><path d="M611.182,153.315a6.807,6.807,0,0,1-2.919.588,4.828,4.828,0,0,1-5.059-5.186,5.163,5.163,0,0,1,5.459-5.4,6.176,6.176,0,0,1,2.561.525l-.42,1.428a4.284,4.284,0,0,0-2.141-.483,3.831,3.831,0,0,0-.064,7.642,5.232,5.232,0,0,0,2.268-.5Z" style="fill:#fff"/><path d="M615.4,140.675a1.144,1.144,0,0,1-2.288,0,1.125,1.125,0,0,1,1.155-1.154A1.1,1.1,0,0,1,615.4,140.675Zm-2.057,13.018V143.531H615.2v10.162Z" style="fill:#fff"/><path d="M623.888,153.693l-.147-1.28h-.064a3.787,3.787,0,0,1-3.107,1.511,2.9,2.9,0,0,1-3.108-2.919c0-2.456,2.184-3.8,6.111-3.779v-.21a2.1,2.1,0,0,0-2.31-2.351,5.06,5.06,0,0,0-2.645.755l-.42-1.217a6.306,6.306,0,0,1,3.339-.9c3.107,0,3.863,2.121,3.863,4.159v3.8a14.209,14.209,0,0,0,.168,2.436Zm-.273-5.187c-2.016-.041-4.305.316-4.305,2.289a1.635,1.635,0,0,0,1.743,1.764,2.526,2.526,0,0,0,2.456-1.7,1.9,1.9,0,0,0,.106-.588Z" style="fill:#fff"/><path d="M628.382,146.7c0-1.2-.02-2.227-.084-3.171h1.618l.062,2h.084a3.051,3.051,0,0,1,2.814-2.227,2,2,0,0,1,.525.064v1.743a2.716,2.716,0,0,0-.63-.064,2.593,2.593,0,0,0-2.478,2.373,5.2,5.2,0,0,0-.084.861v5.417h-1.827Z" style="fill:#fff"/><path d="M637.39,140.675a1.144,1.144,0,0,1-2.288,0,1.125,1.125,0,0,1,1.155-1.154A1.1,1.1,0,0,1,637.39,140.675Zm-2.057,13.018V143.531h1.848v10.162Z" style="fill:#fff"/><path d="M649.443,148.528c0,3.758-2.6,5.4-5.06,5.4-2.751,0-4.871-2.015-4.871-5.228,0-3.4,2.226-5.4,5.039-5.4C647.47,143.3,649.443,145.42,649.443,148.528Zm-8.063.105c0,2.225,1.282,3.905,3.087,3.905,1.764,0,3.087-1.659,3.087-3.948,0-1.72-.861-3.9-3.045-3.9S641.38,146.7,641.38,148.633Z" style="fill:#fff"/><path d="M651.525,151.8a4.829,4.829,0,0,0,2.435.735c1.344,0,1.973-.672,1.973-1.512,0-.881-.524-1.364-1.889-1.868-1.827-.652-2.687-1.659-2.687-2.876,0-1.639,1.322-2.983,3.506-2.983a5.068,5.068,0,0,1,2.5.631l-.461,1.344a3.962,3.962,0,0,0-2.079-.588c-1.092,0-1.7.629-1.7,1.385,0,.84.608,1.219,1.931,1.722,1.764.672,2.666,1.553,2.666,3.065,0,1.785-1.385,3.045-3.8,3.045a5.8,5.8,0,0,1-2.855-.694Z" style="fill:#fff"/></g></g></svg>