<svg clas="animate__animated" xmlns="http://www.w3.org/2000/svg" viewBox="0 0 734 277.3">
  <g>
    <g class="hoverable" onclick="returnToTypesInstrument();">
      <path d="M453.3,197.7,281.7,171.6a156.9,156.9,0,0,0,1.8-23.8,155,155,0,0,0-4.8-38.5L446.9,66.5a327,327,0,0,1,10.2,81.3A332.3,332.3,0,0,1,453.3,197.7Z" style="fill: #37276e"/>
      <path d="M444.8,196.5,277.7,171.1a148.7,148.7,0,0,0,1.7-23.1,152.4,152.4,0,0,0-4.6-37.6L438.6,68.8a323.6,323.6,0,0,1,9.8,79.2A327.8,327.8,0,0,1,444.8,196.5Z" style="fill: #e27aaf"/>
      <g>
        <path d="M316.1,118.9a38.9,38.9,0,0,1,3.9-.3,8.4,8.4,0,0,1,5.7,1.8,6.8,6.8,0,0,1,2,5.1,7.2,7.2,0,0,1-2.1,5.5c-1.3,1.3-3.5,2-6.2,2h-3.3Zm1.8,12.6h1.8c3.9,0,6.1-2.2,6.1-6s-1.9-5.5-5.8-5.5l-2.1.2Z" style="fill: #fff"/>
        <path d="M331.1,128.2a3.2,3.2,0,0,0,3.5,3.5,6.7,6.7,0,0,0,2.8-.5l.3,1.3a7.9,7.9,0,0,1-3.4.6c-3.1,0-5-2-5-5.1s1.8-5.5,4.8-5.5,4.2,2.9,4.2,4.8a2.2,2.2,0,0,1-.1.9Zm5.4-1.4c0-1.1-.5-3-2.5-3s-2.7,1.8-2.9,3Z" style="fill: #fff"/>
        <path d="M340.3,131a4.9,4.9,0,0,0,2.5.7c1.3,0,2-.6,2-1.5s-.6-1.3-1.9-1.8-2.7-1.7-2.7-2.9,1.3-3,3.5-3a5.7,5.7,0,0,1,2.5.6l-.5,1.4a3.5,3.5,0,0,0-2.1-.6c-1.1,0-1.7.6-1.7,1.4s.6,1.2,2,1.7,2.6,1.6,2.6,3.1-1.3,3-3.8,3a5.8,5.8,0,0,1-2.8-.7Z" style="fill: #fff"/>
        <path d="M351.1,119.8v2.9h2.7v1.4h-2.7v5.5c0,1.3.4,2,1.4,2h1.1v1.4l-1.7.2a2.8,2.8,0,0,1-2-.8,3.7,3.7,0,0,1-.7-2.6v-5.6h-1.5v-1.4h1.5v-2.4Z" style="fill: #fff"/>
        <path d="M357.9,119.9a1.1,1.1,0,0,1-1.2,1.1,1.1,1.1,0,0,1-1.1-1.1,1.2,1.2,0,0,1,1.2-1.2A1.1,1.1,0,0,1,357.9,119.9Zm-2,13V122.7h1.8v10.2Z" style="fill: #fff"/>
        <path d="M360.8,125.5a24.4,24.4,0,0,0-.1-2.8h1.6v1.7h.1a3.9,3.9,0,0,1,3.3-1.9c1.4,0,3.6.8,3.6,4.3v6.1h-1.8V127c0-1.6-.6-3-2.4-3a2.8,2.8,0,0,0-2.5,1.9c0,.3-.1.6-.1.9v6.1h-1.8Z" style="fill: #fff"/>
        <path d="M378.1,132.9l-.2-1.3h-.1a3.6,3.6,0,0,1-3.1,1.5,2.9,2.9,0,0,1-3.1-2.9c0-2.4,2.2-3.8,6.1-3.8v-.2a2.1,2.1,0,0,0-2.3-2.3,5.6,5.6,0,0,0-2.6.7l-.4-1.2a6.4,6.4,0,0,1,3.3-.9c3.1,0,3.9,2.1,3.9,4.2v3.8a18.5,18.5,0,0,0,.1,2.4Zm-.3-5.2c-2,0-4.3.3-4.3,2.3a1.7,1.7,0,0,0,1.7,1.8,2.7,2.7,0,0,0,2.5-1.7c0-.2.1-.4.1-.6Z" style="fill: #fff"/>
        <path d="M389.8,132.5a6.3,6.3,0,0,1-2.9.6,4.9,4.9,0,0,1-5.1-5.2,5.2,5.2,0,0,1,5.5-5.4,5.1,5.1,0,0,1,2.5.6l-.4,1.4a3.6,3.6,0,0,0-2.1-.5c-2.4,0-3.6,1.7-3.6,3.8s1.5,3.8,3.5,3.8a4.4,4.4,0,0,0,2.3-.5Z" style="fill: #fff"/>
        <path d="M394,119.9a1.1,1.1,0,0,1-1.2,1.1,1.1,1.1,0,0,1-1.1-1.1,1.2,1.2,0,0,1,1.2-1.2A1.1,1.1,0,0,1,394,119.9Zm-2,13V122.7h1.8v10.2Z" style="fill: #fff"/>
        <path d="M406.1,127.7c0,3.8-2.6,5.4-5.1,5.4a4.9,4.9,0,0,1-4.9-5.2,5,5,0,0,1,5.1-5.4C404.1,122.5,406.1,124.6,406.1,127.7Zm-8.1.1c0,2.3,1.3,3.9,3.1,3.9s3.1-1.6,3.1-3.9-.9-3.9-3.1-3.9S398,125.9,398,127.8Zm5.9-9.4-2.6,3H400l1.8-3Z" style="fill: #fff"/>
        <path d="M408.4,125.5a24.4,24.4,0,0,0-.1-2.8H410v1.7h0a3.9,3.9,0,0,1,3.4-1.9c1.4,0,3.6.8,3.6,4.3v6.1h-1.9V127c0-1.6-.6-3-2.3-3a2.6,2.6,0,0,0-2.5,1.9,2.8,2.8,0,0,0-.1.9v6.1h-1.9Z" style="fill: #fff"/>
        <path d="M332.4,151.3h-5.5v5.1h6.2v1.5h-8V143.8h7.7v1.5h-5.9v4.5h5.5Z" style="fill: #fff"/>
        <path d="M335.1,156a4.6,4.6,0,0,0,2.5.7c1.3,0,1.9-.6,1.9-1.5s-.5-1.3-1.8-1.8-2.7-1.7-2.7-2.9,1.3-3,3.5-3a5.7,5.7,0,0,1,2.5.6l-.5,1.4a3.5,3.5,0,0,0-2.1-.6c-1.1,0-1.7.6-1.7,1.4s.6,1.2,2,1.7,2.6,1.6,2.6,3.1-1.4,3-3.8,3a5.8,5.8,0,0,1-2.8-.7Z" style="fill: #fff"/>
        <path d="M343.7,151.1c0-1.3,0-2.4-.1-3.4h1.7v1.8h0a4,4,0,0,1,3.6-2c2.5,0,4.3,2.1,4.3,5.2s-2.2,5.4-4.6,5.4a3.6,3.6,0,0,1-3.1-1.6h-.1v5.6h-1.8Zm1.8,2.7c0,.2.1.5.1.7a3,3,0,0,0,2.8,2.2c1.9,0,3.1-1.6,3.1-3.9s-1.1-3.8-3.1-3.8a2.8,2.8,0,0,0-2.7,2.3,1.9,1.9,0,0,0-.2.7Z" style="fill: #fff"/>
        <path d="M356.7,153.2a3.2,3.2,0,0,0,3.5,3.5,6.7,6.7,0,0,0,2.8-.5l.3,1.3a8.6,8.6,0,0,1-3.4.6c-3.1,0-5-2-5-5.1s1.8-5.5,4.8-5.5,4.2,2.9,4.2,4.8c0,.4-.1.7-.1.9Zm5.4-1.4c0-1.1-.5-3-2.6-3s-2.7,1.8-2.8,3Zm.4-8.4-2.5,3h-1.3l1.8-3Z" style="fill: #fff"/>
        <path d="M373.4,157.5a6,6,0,0,1-2.9.6,4.9,4.9,0,0,1-5.1-5.2,5.2,5.2,0,0,1,5.5-5.4,5.5,5.5,0,0,1,2.6.6l-.5,1.4a3.6,3.6,0,0,0-2.1-.5,3.5,3.5,0,0,0-3.6,3.8c0,2.4,1.5,3.8,3.5,3.8a4.4,4.4,0,0,0,2.3-.5Z" style="fill: #fff"/>
        <path d="M377.6,144.9a1,1,0,0,1-1.1,1.1,1,1,0,0,1-1.1-1.1,1.1,1.1,0,1,1,2.2,0Zm-2,13V147.7h1.8v10.2Z" style="fill: #fff"/>
        <path d="M380.7,157.9v-8.8h-1.4v-1.4h1.4v-.5a4,4,0,0,1,4.4-4.4,5.9,5.9,0,0,1,2.6.6l-.5,1.4a4.5,4.5,0,0,0-2.2-.5c-1.9,0-2.5,1.3-2.5,2.9v.5h5.9v10.2h-1.8v-8.8h-4.1v8.8Z" style="fill: #fff"/>
        <path d="M398.7,157.5a6,6,0,0,1-2.9.6,4.9,4.9,0,0,1-5.1-5.2,5.2,5.2,0,0,1,5.5-5.4,5.5,5.5,0,0,1,2.6.6l-.5,1.4a3.6,3.6,0,0,0-2.1-.5,3.5,3.5,0,0,0-3.6,3.8c0,2.4,1.5,3.8,3.5,3.8a4.4,4.4,0,0,0,2.3-.5Z" style="fill: #fff"/>
        <path d="M406.5,157.9v-1.3h-.1a3.9,3.9,0,0,1-3.1,1.5,2.8,2.8,0,0,1-3.1-2.9c0-2.4,2.2-3.8,6.1-3.8v-.2a2.1,2.1,0,0,0-2.3-2.3,6,6,0,0,0-2.7.7l-.4-1.2a7.1,7.1,0,0,1,3.4-.9c3.1,0,3.8,2.1,3.8,4.2v3.8a17.9,17.9,0,0,0,.2,2.4Zm-.3-5.2c-2,0-4.3.3-4.3,2.3a1.7,1.7,0,0,0,1.8,1.8,2.6,2.6,0,0,0,2.4-1.7,1.3,1.3,0,0,0,.1-.6Z" style="fill: #fff"/>
      </g>
    </g>
    <g class="hoverable" onclick="returnToGroups();">
      <circle cx="127.5" cy="149.8" r="127" style="fill: none;stroke: #aab8bd;stroke-miterlimit: 10"/>
      <circle cx="127.7" cy="148" r="105" style="fill: #bdc4c6"/>
      <g>
        <path d="M60.6,134.2h8.3v2.1H63.2v4h5.3v2.1H63.2v6.1H60.6Z" style="fill: #112025"/>
        <path d="M74,134.2v14.3H71.4V134.2Z" style="fill: #112025"/>
        <path d="M77,148.5V134.2h3l3.6,6.1a44.4,44.4,0,0,1,2.5,4.8h0a55.3,55.3,0,0,1-.2-5.9v-5h2.4v14.3H85.6l-3.7-6.3c-.9-1.6-1.9-3.3-2.6-4.9h0c.1,1.8.1,3.7.1,6.1v5.1Z" style="fill: #112025"/>
        <path d="M94.2,144.4l-1.3,4.1H90.2l4.6-14.3h3.3l4.7,14.3H100l-1.3-4.1Zm4-1.9-1.1-3.6a25,25,0,0,1-.7-2.6h0a25,25,0,0,0-.7,2.6l-1.1,3.6Z" style="fill: #112025"/>
        <path d="M104.8,148.5V134.2h2.9l3.7,6.1a30.7,30.7,0,0,1,2.4,4.8h.1a55.3,55.3,0,0,1-.2-5.9v-5h2.4v14.3h-2.7l-3.7-6.3a38.7,38.7,0,0,1-2.6-4.9H107c.1,1.8.2,3.7.2,6.1v5.1Z" style="fill: #112025"/>
        <path d="M129.3,148a7.7,7.7,0,0,1-3.7.7c-4.5,0-7.3-2.9-7.3-7.2s3.3-7.5,7.7-7.5a7.5,7.5,0,0,1,3.4.6l-.5,2.1a7.3,7.3,0,0,0-2.8-.6c-2.9,0-5,1.8-5,5.3s1.8,5.1,4.9,5.1a7.9,7.9,0,0,0,2.9-.5Z" style="fill: #112025"/>
        <path d="M134.1,134.2v14.3h-2.6V134.2Z" style="fill: #112025"/>
        <path d="M140,144.4l-1.3,4.1H136l4.6-14.3h3.3l4.7,14.3h-2.8l-1.3-4.1Zm4-1.9-1.1-3.6-.7-2.6h0l-.7,2.6-1.1,3.6Z" style="fill: #112025"/>
        <path d="M160.3,148a7.2,7.2,0,0,1-3.6.7c-4.6,0-7.3-2.9-7.3-7.2s3.2-7.5,7.6-7.5a8.4,8.4,0,0,1,3.5.6l-.6,2.1a6.9,6.9,0,0,0-2.8-.6c-2.9,0-5,1.8-5,5.3s1.9,5.1,5,5.1a7.8,7.8,0,0,0,2.8-.5Z" style="fill: #112025"/>
        <path d="M165.2,134.2v14.3h-2.6V134.2Z" style="fill: #112025"/>
        <path d="M180.8,141.2c0,4.8-2.9,7.5-6.8,7.5s-6.6-3.1-6.6-7.3,2.8-7.4,6.8-7.4S180.8,137.1,180.8,141.2Zm-10.6.2c0,2.9,1.4,5.2,3.9,5.2s4-2.3,4-5.3-1.4-5.2-4-5.2S170.2,138.5,170.2,141.4Zm7.3-10.5-2.6,2.5h-2.1l1.9-2.5Z" style="fill: #112025"/>
        <path d="M183.1,148.5V134.2H186l3.7,6.1a30.7,30.7,0,0,1,2.4,4.8h.1a54.1,54.1,0,0,1-.3-5.9v-5h2.5v14.3h-2.7l-3.8-6.3c-.9-1.6-1.8-3.3-2.5-4.9h-.1c.1,1.8.2,3.7.2,6.1v5.1Z" style="fill: #112025"/>
      </g>
    </g>
    <g class="hoverable" onclick="showInstrument('financiacion', 'destinacion_especifica', 'valoracion_plusvalia');">
      <path d="M726,246.8l-236.9-39a358,358,0,0,0,4.9-59.4,373.8,373.8,0,0,0-11.1-89.9L715.6,0A609.3,609.3,0,0,1,734,148.4,611.3,611.3,0,0,1,726,246.8Z" style="fill: #e27aaf"/>
      <g>
        <path d="M565.1,130.8l-4.6-14.2h2l2.2,7c.6,1.9,1.1,3.6,1.5,5.3h0c.4-1.7,1-3.4,1.6-5.3l2.4-7h2l-5.1,14.2Z" style="fill: #fff"/>
        <path d="M578.6,130.8l-.2-1.3h0a3.9,3.9,0,0,1-3.1,1.5,2.8,2.8,0,0,1-3.1-2.9c0-2.5,2.1-3.8,6.1-3.8v-.2a2.2,2.2,0,0,0-2.3-2.4,4.8,4.8,0,0,0-2.7.8l-.4-1.2a5.6,5.6,0,0,1,3.3-.9c3.1,0,3.9,2.1,3.9,4.1v3.8a9.7,9.7,0,0,0,.2,2.5Zm-.3-5.2c-2-.1-4.3.3-4.3,2.3a1.6,1.6,0,0,0,1.7,1.7,2.5,2.5,0,0,0,2.5-1.7,1.3,1.3,0,0,0,.1-.6Z" style="fill: #fff"/>
        <path d="M583.1,115.9h1.8v14.9h-1.8Z" style="fill: #fff"/>
        <path d="M597.2,125.6c0,3.8-2.6,5.4-5,5.4s-4.9-2-4.9-5.2,2.2-5.4,5-5.4S597.2,122.5,597.2,125.6Zm-8,.1c0,2.2,1.2,3.9,3.1,3.9s3-1.6,3-3.9-.8-3.9-3-3.9S589.2,123.8,589.2,125.7Z" style="fill: #fff"/>
        <path d="M599.6,123.8c0-1.2-.1-2.2-.1-3.2h1.6v2h0a3.1,3.1,0,0,1,2.9-2.2h.5v1.8h-.7a2.5,2.5,0,0,0-2.4,2.4,2.2,2.2,0,0,0-.1.9v5.4h-1.8Z" style="fill: #fff"/>
        <path d="M611.9,130.8v-1.3h-.1a3.6,3.6,0,0,1-3.1,1.5,2.9,2.9,0,0,1-3.1-2.9c0-2.5,2.2-3.8,6.1-3.8v-.2a2.1,2.1,0,0,0-2.3-2.4,4.7,4.7,0,0,0-2.6.8l-.4-1.2a5.6,5.6,0,0,1,3.3-.9c3.1,0,3.9,2.1,3.9,4.1v3.8a19.3,19.3,0,0,0,.1,2.5Zm-.2-5.2c-2-.1-4.3.3-4.3,2.3a1.6,1.6,0,0,0,1.7,1.7,2.6,2.6,0,0,0,2.5-1.7c0-.2.1-.4.1-.6Z" style="fill: #fff"/>
        <path d="M623.7,130.4a8,8,0,0,1-2.9.6,4.9,4.9,0,0,1-5.1-5.2,5.2,5.2,0,0,1,5.5-5.4,6.8,6.8,0,0,1,2.5.5l-.4,1.5a3.6,3.6,0,0,0-2.1-.5c-2.4,0-3.6,1.7-3.6,3.8s1.5,3.8,3.5,3.8a6.1,6.1,0,0,0,2.3-.5Z" style="fill: #fff"/>
        <path d="M627.9,117.8a1.1,1.1,0,0,1-1.2,1.1,1.1,1.1,0,0,1-1.1-1.1,1.2,1.2,0,0,1,1.2-1.2A1.1,1.1,0,0,1,627.9,117.8Zm-2,13V120.6h1.8v10.2Z" style="fill: #fff"/>
        <path d="M640,125.6c0,3.8-2.6,5.4-5.1,5.4a4.9,4.9,0,0,1-4.9-5.2,5,5,0,0,1,5.1-5.4C638,120.4,640,122.5,640,125.6Zm-8.1.1c0,2.2,1.3,3.9,3.1,3.9s3.1-1.6,3.1-3.9-.9-3.9-3.1-3.9S631.9,123.8,631.9,125.7Zm5.9-9.5-2.6,3h-1.3l1.8-3Z" style="fill: #fff"/>
        <path d="M642.3,123.4a23.5,23.5,0,0,0-.1-2.8h1.6l.2,1.7h0a3.7,3.7,0,0,1,3.4-1.9c1.4,0,3.5.8,3.5,4.3v6.1h-1.8v-5.9c0-1.6-.6-3-2.4-3a2.6,2.6,0,0,0-2.4,1.9,2,2,0,0,0-.2.9v6.1h-1.8Z" style="fill: #fff"/>
        <path d="M652.8,133.4a34.7,34.7,0,0,0,1.2-5.1l2.1-.2a25.8,25.8,0,0,1-2,5.1Z" style="fill: #fff"/>
        <path d="M562,142a16.2,16.2,0,0,1,3.5-.3,5.8,5.8,0,0,1,4,1.2,4.1,4.1,0,0,1,1.2,3,4.4,4.4,0,0,1-1.1,3,5.9,5.9,0,0,1-4.3,1.5h-1.5V156H562Zm1.8,6.8,1.5.2c2.2,0,3.6-1.1,3.6-3.1s-1.3-2.7-3.4-2.7h-1.7Z" style="fill: #fff"/>
        <path d="M573,141.1h1.8V156H573Z" style="fill: #fff"/>
        <path d="M586.5,153.2V156h-1.6v-1.7h0a4,4,0,0,1-3.4,1.9c-1.6,0-3.5-.9-3.5-4.4v-6h1.8v5.6c0,2,.6,3.3,2.3,3.3a2.7,2.7,0,0,0,2.4-1.7,3,3,0,0,0,.2-1v-6.2h1.9Z" style="fill: #fff"/>
        <path d="M589.3,154.1a5.2,5.2,0,0,0,2.4.7c1.3,0,2-.7,2-1.5s-.5-1.4-1.9-1.9-2.7-1.6-2.7-2.8,1.3-3,3.5-3a5.7,5.7,0,0,1,2.5.6l-.5,1.4a3.4,3.4,0,0,0-2-.6c-1.1,0-1.7.6-1.7,1.3s.6,1.3,1.9,1.8,2.7,1.5,2.7,3-1.4,3.1-3.8,3.1a6.2,6.2,0,0,1-2.9-.7Z" style="fill: #fff"/>
        <path d="M598.6,145.8l1.9,5.7a16.1,16.1,0,0,1,.9,2.6h0l.9-2.6,2-5.7h1.9l-4,10.2h-1.8l-3.8-10.2Z" style="fill: #fff"/>
        <path d="M613.5,156l-.2-1.3h0a3.9,3.9,0,0,1-3.1,1.5,2.8,2.8,0,0,1-3.1-2.9c0-2.5,2.1-3.8,6.1-3.8v-.2a2.2,2.2,0,0,0-2.3-2.4,4.8,4.8,0,0,0-2.7.8l-.4-1.2a5.6,5.6,0,0,1,3.3-.9c3.1,0,3.9,2.1,3.9,4.1v3.8a9.7,9.7,0,0,0,.2,2.5Zm-.3-5.2c-2-.1-4.3.3-4.3,2.3a1.6,1.6,0,0,0,1.7,1.7,2.5,2.5,0,0,0,2.5-1.7,1.3,1.3,0,0,0,.1-.6Z" style="fill: #fff"/>
        <path d="M618,141.1h1.8V156H618Z" style="fill: #fff"/>
        <path d="M626.7,141.4l-2.6,3h-1.3l1.9-3ZM622.9,156V145.8h1.9V156Z" style="fill: #fff"/>
        <path d="M633.5,156l-.2-1.3h0a3.9,3.9,0,0,1-3.1,1.5,2.9,2.9,0,0,1-3.2-2.9c0-2.5,2.2-3.8,6.2-3.8v-.2a2.2,2.2,0,0,0-2.4-2.4,4.7,4.7,0,0,0-2.6.8l-.4-1.2a5.6,5.6,0,0,1,3.3-.9c3.1,0,3.9,2.1,3.9,4.1v3.8a9.7,9.7,0,0,0,.2,2.5Zm-.3-5.2c-2-.1-4.3.3-4.3,2.3a1.6,1.6,0,0,0,1.7,1.7,2.5,2.5,0,0,0,2.5-1.7,1.3,1.3,0,0,0,.1-.6Z" style="fill: #fff"/>
      </g>
    </g>
  </g>
</svg>
