<svg class="animate__animated" xmlns="http://www.w3.org/2000/svg" viewBox="0 0 734.1 370.9">
  <g>
    <g class="hoverable" onclick="returnToTypesInstrument();">
      <path d="M447.3,293.7,279.5,239.5a156.5,156.5,0,0,0,7.7-48.7,159.8,159.8,0,0,0-8.7-52L445,80.9a333.3,333.3,0,0,1,18.5,109.9A331.9,331.9,0,0,1,447.3,293.7Z" style="fill: #3f3793"/>
      <path d="M433,289.5,272.1,237.6a150,150,0,0,0,7.3-46.7,152.2,152.2,0,0,0-8.3-49.8L430.7,85.6a318.5,318.5,0,0,1,17.7,105.3A322.5,322.5,0,0,1,433,289.5Z" style="fill: #d36caf"/>
      <g>
        <path d="M304.2,163.7h8.3v1.7h-6.3v5.1H312v1.7h-5.8v7h-2Z" style="fill: #fff"/>
        <path d="M324.7,173.5c0,4.1-2.9,5.9-5.6,5.9s-5.3-2.2-5.3-5.7,2.4-5.9,5.5-5.9S324.7,170.1,324.7,173.5Zm-8.9.1c0,2.5,1.4,4.3,3.4,4.3s3.4-1.8,3.4-4.3-1-4.3-3.4-4.3S315.8,171.5,315.8,173.6Z" style="fill: #fff"/>
        <path d="M327.2,171.5c0-1.3,0-2.4-.1-3.5h1.8v2.2h0a3.5,3.5,0,0,1,3.1-2.4h.6v1.9H332a2.9,2.9,0,0,0-2.7,2.6c0,.3-.1.6-.1.9v6h-2Z" style="fill: #fff"/>
        <path d="M334.8,171.1a30.1,30.1,0,0,0-.1-3.1h1.8v1.8h.1a3.8,3.8,0,0,1,3.5-2,3.2,3.2,0,0,1,3.1,2.2h.1a3.3,3.3,0,0,1,1.2-1.4,3.9,3.9,0,0,1,2.5-.8c1.4,0,3.6,1,3.6,4.8v6.6h-2v-6.3c0-2.2-.8-3.4-2.4-3.4a2.7,2.7,0,0,0-2.4,1.8,3.1,3.1,0,0,0-.1,1v6.9h-2v-6.7c0-1.8-.8-3-2.3-3a2.7,2.7,0,0,0-2.5,2,1.6,1.6,0,0,0-.2,1v6.7h-2Z" style="fill: #fff"/>
        <path d="M363.3,176.1a29.1,29.1,0,0,0,.1,3.1h-1.8v-1.8h0a4.4,4.4,0,0,1-3.7,2c-1.8,0-3.9-.9-3.9-4.8V168H356v6.2c0,2.1.6,3.6,2.4,3.6a3,3,0,0,0,2.7-1.9,3.6,3.6,0,0,0,.2-1V168h2Z" style="fill: #fff"/>
        <path d="M366.7,162.9h2v16.3h-2Z" style="fill: #fff"/>
        <path d="M378.3,179.2l-.2-1.4H378a4.3,4.3,0,0,1-3.4,1.6,3.2,3.2,0,0,1-3.4-3.2c0-2.7,2.4-4.1,6.7-4.1v-.2c0-1-.2-2.6-2.5-2.6a5.7,5.7,0,0,0-2.9.8l-.5-1.3a7.3,7.3,0,0,1,3.7-1c3.4,0,4.2,2.3,4.2,4.5v4.2a21.3,21.3,0,0,0,.2,2.7Zm-.3-5.7c-2.2,0-4.7.3-4.7,2.5a1.7,1.7,0,0,0,1.9,1.9,2.9,2.9,0,0,0,2.7-1.8c0-.2.1-.5.1-.7Z" style="fill: #fff"/>
        <path d="M391.1,178.8a8.9,8.9,0,0,1-3.2.6c-3.3,0-5.5-2.3-5.5-5.7a5.6,5.6,0,0,1,6-5.9,6.5,6.5,0,0,1,2.8.6l-.5,1.6a4.2,4.2,0,0,0-2.3-.6,4.2,4.2,0,0,0-.1,8.4,5.4,5.4,0,0,0,2.5-.6Z" style="fill: #fff"/>
        <path d="M395.7,164.9a1.1,1.1,0,0,1-1.2,1.3,1.3,1.3,0,0,1-1.3-1.3,1.2,1.2,0,0,1,1.3-1.2A1.1,1.1,0,0,1,395.7,164.9Zm-2.2,14.3V168h2v11.2Z" style="fill: #fff"/>
        <path d="M408.9,173.5c0,4.1-2.8,5.9-5.5,5.9s-5.3-2.2-5.3-5.7,2.4-5.9,5.5-5.9S408.9,170.1,408.9,173.5Zm-8.8.1c0,2.5,1.4,4.3,3.4,4.3s3.4-1.8,3.4-4.3-1-4.3-3.4-4.3S400.1,171.5,400.1,173.6Zm6.4-10.4-2.8,3.3h-1.4l2-3.3Z" style="fill: #fff"/>
        <path d="M411.5,171.1a30.1,30.1,0,0,0-.1-3.1h1.8v1.9h.1a3.9,3.9,0,0,1,3.6-2.1c1.6,0,4,.9,4,4.7v6.7h-2.1v-6.4c0-1.8-.6-3.3-2.5-3.3a2.7,2.7,0,0,0-2.7,2,3,3,0,0,0-.2,1v6.7h-2Z" style="fill: #fff"/>
        <path d="M312.3,190.5v13.4a26.2,26.2,0,0,0,.1,2.9h-1.8v-2h0a4.1,4.1,0,0,1-3.8,2.2c-2.7,0-4.8-2.2-4.8-5.6s2.3-6,5-6a3.9,3.9,0,0,1,3.4,1.7h0v-6.6Zm-2,9.7a2.8,2.8,0,0,0-.1-.9,2.9,2.9,0,0,0-2.9-2.3c-2.1,0-3.3,1.8-3.3,4.3s1.1,4.1,3.2,4.1a3.1,3.1,0,0,0,3-2.4,2.8,2.8,0,0,0,.1-.9Z" style="fill: #fff"/>
        <path d="M316.8,201.6a3.6,3.6,0,0,0,3.8,3.8,8,8,0,0,0,3.1-.5l.4,1.4a10,10,0,0,1-3.7.7c-3.5,0-5.5-2.2-5.5-5.6s2-6,5.2-6,4.6,3.2,4.6,5.2a2.5,2.5,0,0,1-.1,1Zm5.9-1.5a2.8,2.8,0,0,0-2.8-3.3c-2,0-2.9,1.9-3.1,3.3Z" style="fill: #fff"/>
        <path d="M332.2,191.5a18.7,18.7,0,0,1,3.8-.3c2,0,3.4.4,4.3,1.3a3.9,3.9,0,0,1,1.4,3.2,4.5,4.5,0,0,1-1.2,3.3,6.6,6.6,0,0,1-4.7,1.7h-1.6v6.2h-2Zm2,7.4a3.7,3.7,0,0,0,1.6.2c2.4,0,3.9-1.2,3.9-3.3s-1.5-3.1-3.7-3.1l-1.8.2Z" style="fill: #fff"/>
        <path d="M343.9,199.1v-3.5h1.7v2.2h.1a3.3,3.3,0,0,1,3.1-2.4h.5v1.9h-.6a2.9,2.9,0,0,0-2.8,2.6v6.9h-2.1Z" style="fill: #fff"/>
        <path d="M361.3,201.1c0,4.1-2.8,5.9-5.5,5.9a5.3,5.3,0,0,1-5.4-5.7c0-3.7,2.5-5.9,5.6-5.9S361.3,197.7,361.3,201.1Zm-8.8.1c0,2.5,1.4,4.3,3.4,4.3s3.3-1.8,3.3-4.3-.9-4.3-3.3-4.3S352.5,199.1,352.5,201.2Z" style="fill: #fff"/>
        <path d="M364.4,195.6l2.5,6.6c.2.8.5,1.6.7,2.3h0c.2-.7.5-1.5.8-2.3l2.2-6.6h2.1l-3,8c-1.5,3.8-2.5,5.8-3.9,6.9a5.1,5.1,0,0,1-2.4,1.4l-.5-1.7a6.2,6.2,0,0,0,1.7-1,6,6,0,0,0,1.7-2.3l.2-.5a2,2,0,0,1-.1-.5l-4.2-10.3Z" style="fill: #fff"/>
        <path d="M375.4,201.6a3.6,3.6,0,0,0,3.9,3.8,7.4,7.4,0,0,0,3-.5l.4,1.4a9.6,9.6,0,0,1-3.7.7c-3.4,0-5.5-2.2-5.5-5.6s2-6,5.2-6,4.6,3.2,4.6,5.2v1Zm6-1.5c0-1.3-.6-3.3-2.8-3.3a3.3,3.3,0,0,0-3.1,3.3Z" style="fill: #fff"/>
        <path d="M393.8,206.4a9.5,9.5,0,0,1-3.2.6,5.3,5.3,0,0,1-5.6-5.7,5.7,5.7,0,0,1,6-5.9,6.1,6.1,0,0,1,2.8.6l-.4,1.6a4.6,4.6,0,0,0-2.4-.6c-2.5,0-3.9,1.9-3.9,4.2s1.6,4.2,3.8,4.2a5.1,5.1,0,0,0,2.5-.6Z" style="fill: #fff"/>
        <path d="M398.9,192.5v3.1h2.9v1.6h-2.9v6c0,1.4.4,2.2,1.5,2.2l1.2-.2v1.5a4.5,4.5,0,0,1-1.8.3,2.9,2.9,0,0,1-2.2-.8,4,4,0,0,1-.8-2.9v-6.1h-1.7v-1.6h1.7V193Z" style="fill: #fff"/>
        <path d="M414,201.1c0,4.1-2.9,5.9-5.6,5.9s-5.3-2.2-5.3-5.7,2.4-5.9,5.5-5.9S414,197.7,414,201.1Zm-8.8.1c0,2.5,1.4,4.3,3.3,4.3s3.4-1.8,3.4-4.3-.9-4.3-3.3-4.3S405.2,199.1,405.2,201.2Z" style="fill: #fff"/>
        <path d="M416.3,204.7a5,5,0,0,0,2.6.8c1.5,0,2.2-.7,2.2-1.6s-.6-1.5-2.1-2.1-2.9-1.8-2.9-3.1,1.4-3.3,3.8-3.3a5.8,5.8,0,0,1,2.8.7l-.6,1.5a3.8,3.8,0,0,0-2.2-.7c-1.2,0-1.9.7-1.9,1.5s.7,1.4,2.1,1.9,2.9,1.7,2.9,3.4-1.5,3.3-4.1,3.3a5.7,5.7,0,0,1-3.1-.8Z" style="fill: #fff"/>
      </g>
    </g>
    <g class="hoverable" onclick="returnToGroups();">
      <circle cx="127.5" cy="192.7" r="127" style="fill: none;stroke: #aab8bd;stroke-miterlimit: 10"/>
      <circle cx="127.7" cy="190.9" r="105" style="fill: #bdc4c6"/>
      <g>
        <path d="M60.6,181.7h8.3v2.1H63.2v3.9h5.3v2.2H63.2v6H60.6Z" style="fill: #112025"/>
        <path d="M74,181.7v14.2H71.4V181.7Z" style="fill: #112025"/>
        <path d="M77,195.9V181.7h3l3.6,6.1a36.7,36.7,0,0,1,2.5,4.8h0a57.2,57.2,0,0,1-.2-6v-4.9h2.4v14.2H85.6l-3.7-6.2a47.4,47.4,0,0,1-2.6-5h0c.1,1.8.1,3.7.1,6v5.1Z" style="fill: #112025"/>
        <path d="M94.2,191.9l-1.3,4H90.2l4.6-14.2h3.3l4.7,14.2H100l-1.3-4Zm4-2-1.1-3.5a26.8,26.8,0,0,1-.7-2.7h0c-.3.9-.5,1.9-.7,2.7l-1.1,3.5Z" style="fill: #112025"/>
        <path d="M104.8,195.9V181.7h2.9l3.7,6.1a26.9,26.9,0,0,1,2.4,4.8h.1a57.2,57.2,0,0,1-.2-6v-4.9h2.4v14.2h-2.7l-3.7-6.2a34,34,0,0,1-2.6-5H107c.1,1.8.2,3.7.2,6v5.1Z" style="fill: #112025"/>
        <path d="M129.3,195.5a9.6,9.6,0,0,1-3.7.6c-4.5,0-7.3-2.8-7.3-7.1s3.3-7.6,7.7-7.6a7.2,7.2,0,0,1,3.4.7l-.5,2a10.1,10.1,0,0,0-2.8-.5c-2.9,0-5,1.8-5,5.2s1.8,5.2,4.9,5.2a7.9,7.9,0,0,0,2.9-.5Z" style="fill: #112025"/>
        <path d="M134.1,181.7v14.2h-2.6V181.7Z" style="fill: #112025"/>
        <path d="M140,191.9l-1.3,4H136l4.6-14.2h3.3l4.7,14.2h-2.8l-1.3-4Zm4-2-1.1-3.5c-.2-.9-.5-1.8-.7-2.7h0c-.2.9-.5,1.9-.7,2.7l-1.1,3.5Z" style="fill: #112025"/>
        <path d="M160.3,195.5a9,9,0,0,1-3.6.6c-4.6,0-7.3-2.8-7.3-7.1a7.2,7.2,0,0,1,7.6-7.6,8.1,8.1,0,0,1,3.5.7l-.6,2a9.4,9.4,0,0,0-2.8-.5c-2.9,0-5,1.8-5,5.2s1.9,5.2,5,5.2a7.8,7.8,0,0,0,2.8-.5Z" style="fill: #112025"/>
        <path d="M165.2,181.7v14.2h-2.6V181.7Z" style="fill: #112025"/>
        <path d="M180.8,188.7c0,4.7-2.9,7.5-6.8,7.5s-6.6-3.1-6.6-7.3,2.8-7.5,6.8-7.5S180.8,184.6,180.8,188.7Zm-10.6.2c0,2.9,1.4,5.2,3.9,5.2s4-2.4,4-5.3-1.4-5.3-4-5.3S170.2,185.9,170.2,188.9Zm7.3-10.6-2.6,2.6h-2.1l1.9-2.6Z" style="fill: #112025"/>
        <path d="M183.1,195.9V181.7H186l3.7,6.1a26.9,26.9,0,0,1,2.4,4.8h.1a56,56,0,0,1-.3-6v-4.9h2.5v14.2h-2.7l-3.8-6.2a46.6,46.6,0,0,1-2.5-5h-.1c.1,1.8.2,3.7.2,6v5.1Z" style="fill: #112025"/>
      </g>
    </g>
    <g class="hoverable" onclick="showInstrument('financiacion', 'formulacion_de_proyectos', 'fondos');">
      <path d="M706.6,370.9,477.4,299.7l.2-.5a368.5,368.5,0,0,0,16.5-108.5,364,364,0,0,0-18.7-115L703.1,0a601.2,601.2,0,0,1,31,190.7,605.9,605.9,0,0,1-27.3,179.5Z" style="fill: #d36caf"/>
      <g>
        <path d="M548.6,102.8l6.4-1.4.3,1.3-4.9,1.1.9,3.9,4.5-1,.3,1.3-4.5,1,1.2,5.3-1.6.4Z" style="fill: #fff"/>
        <path d="M566,106.9c.6,3.2-1.2,5-3.3,5.5s-4.4-.8-5-3.5.8-5,3.2-5.5A4.2,4.2,0,0,1,566,106.9Zm-6.8,1.6c.4,1.8,1.8,3,3.3,2.7s2.3-2,1.9-3.9-1.5-3.1-3.3-2.7S558.9,106.9,559.2,108.5Z" style="fill: #fff"/>
        <path d="M567.5,104.6c-.2-.9-.4-1.6-.6-2.3l1.4-.3.4,1.4h0a3.3,3.3,0,0,1,2.5-2.2c1.2-.3,3.1,0,3.8,2.9l1.1,5.1-1.6.4-1-4.9c-.3-1.4-1.1-2.4-2.5-2.1a2.2,2.2,0,0,0-1.8,2,2.5,2.5,0,0,0,.1.8l1.1,5.1-1.6.3Z" style="fill: #fff"/>
        <path d="M583.2,94.6l2.3,10.3c.1.7.4,1.6.5,2.2l-1.4.3-.4-1.5h0a3.1,3.1,0,0,1-2.5,2.3c-2.1.5-4-.9-4.6-3.5s.7-5,2.8-5.4a3,3,0,0,1,2.9.7h0l-1.1-5.1Zm.1,7.8a1.9,1.9,0,0,0-.2-.7,2.4,2.4,0,0,0-2.6-1.3c-1.6.4-2.3,2-1.9,3.9s1.6,2.9,3.2,2.6a2.4,2.4,0,0,0,1.9-2.4,2,2,0,0,0-.1-.7Z" style="fill: #fff"/>
        <path d="M595.3,100.5A4.3,4.3,0,0,1,592,106c-2.3.5-4.4-.8-5-3.5s.9-5,3.2-5.5S594.7,97.9,595.3,100.5Zm-6.7,1.6c.4,1.8,1.7,3,3.3,2.7s2.2-2,1.8-3.9-1.4-3.1-3.3-2.7S588.2,100.5,588.6,102.1Z" style="fill: #fff"/>
        <path d="M597.6,102.9a4,4,0,0,0,2.2.1c1.1-.2,1.5-.9,1.4-1.6s-.7-1-1.9-1.2-2.6-.9-2.8-1.9.5-2.8,2.4-3.2a4,4,0,0,1,2.2.1l-.2,1.2a3.2,3.2,0,0,0-1.8-.1,1.3,1.3,0,0,0-1.2,1.5c.2.7.7.9,1.9,1.1s2.6.8,2.8,2-.6,2.9-2.6,3.3a4.2,4.2,0,0,1-2.5-.1Z" style="fill: #fff"/>
        <path d="M604.4,105.3a31,31,0,0,0,.2-4.4l1.6-.6a19.5,19.5,0,0,1-.7,4.7Z" style="fill: #fff"/>
      </g>
      <g>
        <path d="M561.1,167l-4.7.4.4,4.4,5.3-.5v1.3l-6.8.6-1.1-12,6.5-.6v1.3l-4.9.4.3,3.8,4.7-.4Z" style="fill: #fff"/>
        <path d="M563.6,166.1c-.1-.9-.2-1.6-.3-2.3h1.4l.2,1.4h0a3,3,0,0,1,2.6-1.9,2.5,2.5,0,0,1,2.6,1.5h.1a3.6,3.6,0,0,1,.8-1.2,3.7,3.7,0,0,1,1.9-.8c1.1-.1,2.9.5,3.2,3.5l.4,5.2H575l-.4-4.9c-.2-1.7-.9-2.6-2.2-2.5a2,2,0,0,0-1.7,1.6,1.9,1.9,0,0,0-.1.8l.5,5.3-1.5.2-.5-5.2c-.1-1.4-.8-2.4-2-2.2a2,2,0,0,0-1.8,1.7,1.9,1.9,0,0,0-.1.8l.5,5.2-1.6.2Z" style="fill: #fff"/>
        <path d="M578.6,165.3c-.1-1.1-.2-2-.3-2.8l1.4-.2.2,1.5h0a3.7,3.7,0,0,1,2.9-2c2.1-.1,3.9,1.5,4.1,4.1s-1.5,4.9-3.5,5a3,3,0,0,1-2.8-1.1h0l.4,4.7-1.6.2Zm1.7,2.2c.1.2.1.4.2.6a2.4,2.4,0,0,0,2.5,1.6c1.7-.1,2.5-1.6,2.3-3.6s-1.2-3.1-2.8-3a2.5,2.5,0,0,0-2.2,2.2,1.7,1.7,0,0,0-.1.7Z" style="fill: #fff"/>
        <path d="M588.8,164.2q-.1-1.5-.3-2.7h1.3l.2,1.7h.1a2.6,2.6,0,0,1,2.2-2.1h.5v1.5h-.5a2.2,2.2,0,0,0-1.9,2.2,1.7,1.7,0,0,0-.1.7l.5,4.7h-1.6Z" style="fill: #fff"/>
        <path d="M595.5,165.6a2.7,2.7,0,0,0,3.2,2.7,5.9,5.9,0,0,0,2.4-.6l.4,1.1a9.5,9.5,0,0,1-2.9.8,4.1,4.1,0,0,1-4.6-4c-.3-2.7,1.1-4.9,3.6-5.1s3.8,2.2,4,3.8v.7ZM600,164a2.1,2.1,0,0,0-2.4-2.3,2.5,2.5,0,0,0-2.2,2.7Z" style="fill: #fff"/>
        <path d="M603.6,167.3a4.6,4.6,0,0,0,2.1.5c1.2-.1,1.7-.8,1.6-1.5s-.5-1.1-1.7-1.4-2.5-1.3-2.6-2.3.9-2.6,2.8-2.8a4.7,4.7,0,0,1,2.2.3l-.3,1.2a3.1,3.1,0,0,0-1.8-.3c-1,.1-1.4.6-1.4,1.3s.6,1,1.8,1.3,2.4,1.1,2.5,2.4-.9,2.7-3,2.9a4.2,4.2,0,0,1-2.5-.4Z" style="fill: #fff"/>
        <path d="M615.9,167.8l-.3-1h0a3.2,3.2,0,0,1-2.5,1.5,2.5,2.5,0,0,1-2.9-2.3c-.2-2.1,1.6-3.4,4.9-3.7h0a1.9,1.9,0,0,0-2.2-1.9,4.3,4.3,0,0,0-2.2.9l-.4-1a5,5,0,0,1,2.8-1.1c2.6-.2,3.4,1.6,3.6,3.3l.3,3.2a6.6,6.6,0,0,0,.3,2.1Zm-.7-4.4c-1.7.2-3.6.6-3.5,2.3a1.5,1.5,0,0,0,1.7,1.4,2.2,2.2,0,0,0,1.9-1.6,1.3,1.3,0,0,0,.1-.6Z" style="fill: #fff"/>
        <path d="M619.3,165.9a3.8,3.8,0,0,0,2.2.4c1.1-.1,1.6-.7,1.6-1.4s-.6-1.1-1.8-1.4-2.4-1.3-2.5-2.3.9-2.6,2.8-2.8a4.4,4.4,0,0,1,2.1.3l-.3,1.2a2.9,2.9,0,0,0-1.8-.3c-.9.1-1.4.6-1.3,1.3s.6,1,1.8,1.3,2.4,1.1,2.5,2.4-1,2.7-3,2.9a4.7,4.7,0,0,1-2.5-.4Z" style="fill: #fff"/>
        <path d="M625.8,169.2a28.9,28.9,0,0,0,.7-4.4l1.7-.3a27.7,27.7,0,0,1-1.3,4.5Z" style="fill: #fff"/>
      </g>
      <g>
        <path d="M552.8,132l6.4-1.1.2,1.2-4.8.9.7,4,4.5-.8.2,1.3-4.5.8,1,5.4-1.6.3Z" style="fill: #fff"/>
        <path d="M562.8,131.2a.9.9,0,0,1-.8,1.1.9.9,0,0,1-1.1-.8.9.9,0,0,1,.8-1.1A.9.9,0,0,1,562.8,131.2Zm.2,11.3-1.5-8.6,1.6-.3,1.5,8.6Z" style="fill: #fff"/>
        <path d="M572.3,127.8l1.9,10.4a11.9,11.9,0,0,0,.5,2.2l-1.4.3-.4-1.5h0a3.3,3.3,0,0,1-2.6,2.2c-2.1.4-4-1.1-4.5-3.7s.9-4.9,3-5.3a3.3,3.3,0,0,1,2.9.8h0l-.9-5.1Zm-.2,7.8a1.4,1.4,0,0,0-.2-.6,2.2,2.2,0,0,0-2.5-1.4c-1.7.3-2.4,1.8-2,3.7s1.4,3.1,3.1,2.8a2.4,2.4,0,0,0,1.9-2.3c.1-.2,0-.5,0-.7Z" style="fill: #fff"/>
        <path d="M583.9,136.3c.2.9.4,1.7.5,2.3l-1.4.3-.3-1.4h0a3.4,3.4,0,0,1-2.6,2.1c-1.3.3-3.1-.2-3.6-3.2l-.9-5,1.5-.3.9,4.8c.3,1.6,1,2.6,2.4,2.3a2.4,2.4,0,0,0,1.8-1.8,2.1,2.1,0,0,0,0-.8l-.9-5.2,1.5-.3Z" style="fill: #fff"/>
        <path d="M593,136.8a5.7,5.7,0,0,1-2.4.9,4,4,0,0,1-5-3.6,4.5,4.5,0,0,1,3.8-5.4,5.1,5.1,0,0,1,2.2.1V130a4,4,0,0,0-1.9,0,3,3,0,0,0-2.5,3.7,3.1,3.1,0,0,0,3.6,2.7,4.5,4.5,0,0,0,1.8-.7Z" style="fill: #fff"/>
        <path d="M594.6,125.5a.9.9,0,0,1-.8,1.1,1,1,0,0,1-1.1-.8.9.9,0,0,1,.8-1.1A.9.9,0,0,1,594.6,125.5Zm.3,11.3-1.6-8.6,1.6-.3,1.5,8.6Z" style="fill: #fff"/>
        <path d="M603.8,135.2l-.3-1.1h-.1a3.6,3.6,0,0,1-2.4,1.8,2.6,2.6,0,0,1-3.1-2c-.3-2.1,1.3-3.6,4.6-4.1v-.2a1.8,1.8,0,0,0-2.3-1.7,4.7,4.7,0,0,0-2.1,1.1l-.6-1a4.8,4.8,0,0,1,2.7-1.2c2.6-.5,3.6,1.2,3.9,2.9l.6,3.2a11.7,11.7,0,0,0,.5,2Zm-1-4.4c-1.8.3-3.6.9-3.3,2.6a1.3,1.3,0,0,0,1.7,1.2,2.1,2.1,0,0,0,1.8-1.8v-.5Z" style="fill: #fff"/>
        <path d="M607.1,132.9a4.4,4.4,0,0,0,2.1.3c1.2-.2,1.6-.9,1.5-1.6s-.7-1.1-1.9-1.3-2.5-1-2.7-2,.6-2.7,2.5-3.1a4.8,4.8,0,0,1,2.2.2l-.2,1.2a3.2,3.2,0,0,0-1.8-.2c-1,.2-1.4.8-1.3,1.4s.7,1,1.9,1.2,2.5.9,2.7,2.2-.7,2.8-2.7,3.1a5.1,5.1,0,0,1-2.5-.1Z" style="fill: #fff"/>
        <path d="M613.8,135.6a30.4,30.4,0,0,0,.3-4.4l1.7-.5a31.2,31.2,0,0,1-.9,4.6Z" style="fill: #fff"/>
      </g>
      <g>
        <path d="M556.1,200.6a5,5,0,0,0,2.8.6c1.6-.1,2.5-1,2.4-2.2s-.7-1.8-2.4-2.3-3.3-1.5-3.5-3.2,1.4-3.4,3.7-3.6a7.6,7.6,0,0,1,2.7.4l-.3,1.4a5.2,5.2,0,0,0-2.3-.5c-1.7.2-2.3,1.2-2.2,2s.9,1.6,2.6,2.2,3.2,1.5,3.3,3.3-1.1,3.6-4,3.8a5.5,5.5,0,0,1-3.1-.6Z" style="fill: #fff"/>
        <path d="M572.9,196.9c.2,3.2-1.9,4.8-4,4.9s-4.3-1.4-4.5-4.2a4.3,4.3,0,0,1,4-4.9A4.2,4.2,0,0,1,572.9,196.9Zm-6.9.6c.1,1.9,1.3,3.2,2.9,3.1s2.5-1.6,2.4-3.5-1-3.3-2.9-3.2S565.9,195.8,566,197.5Z" style="fill: #fff"/>
        <path d="M581.4,200.4a5.4,5.4,0,0,1-2.5.7,4.1,4.1,0,0,1-4.6-4.1,4.4,4.4,0,0,1,4.3-5,6.1,6.1,0,0,1,2.2.3l-.2,1.3a3.3,3.3,0,0,0-1.9-.3,2.9,2.9,0,0,0-2.8,3.5,2.9,2.9,0,0,0,3.2,3,4,4,0,0,0,1.9-.5Z" style="fill: #fff"/>
        <path d="M584.2,189.4a1,1,0,1,1-1-.9A.8.8,0,0,1,584.2,189.4Zm-1,11.2-.6-8.7h1.6l.6,8.7Z" style="fill: #fff"/>
        <path d="M588,196.2a2.8,2.8,0,0,0,3.2,2.8,4.6,4.6,0,0,0,2.4-.6l.3,1.1a6.2,6.2,0,0,1-2.8.8c-2.7.2-4.4-1.5-4.6-4.1s1.2-4.8,3.8-5,3.7,2.3,3.8,3.9a1.6,1.6,0,0,1,0,.7Zm4.6-1.4c-.1-1-.6-2.6-2.4-2.5a2.7,2.7,0,0,0-2.2,2.8Z" style="fill: #fff"/>
        <path d="M603.1,186.4l.7,10.5a15.2,15.2,0,0,0,.2,2.3h-1.4l-.2-1.5h0a3.2,3.2,0,0,1-2.9,1.9c-2.1.1-3.8-1.5-4-4.2s1.5-4.8,3.6-4.9a3,3,0,0,1,2.7,1.1h0l-.3-5.2Zm-1.1,7.7c0-.2-.1-.4-.1-.6a2.3,2.3,0,0,0-2.4-1.7c-1.7.1-2.5,1.6-2.4,3.6s1.1,3.1,2.8,3a2.4,2.4,0,0,0,2.2-2.1v-2.2Z" style="fill: #fff"/>
        <path d="M611.4,198.7l-.2-1.1h-.1a3.2,3.2,0,0,1-2.6,1.5,2.5,2.5,0,0,1-2.8-2.3c-.1-2.1,1.7-3.4,5-3.6V193a1.8,1.8,0,0,0-2.1-1.9,5.3,5.3,0,0,0-2.2.8l-.5-1a5.8,5.8,0,0,1,2.8-1c2.7-.2,3.5,1.6,3.6,3.4l.2,3.2.3,2.1Zm-.6-4.4c-1.7,0-3.6.5-3.5,2.2a1.5,1.5,0,0,0,1.6,1.4,2.3,2.3,0,0,0,2-1.6v-2Z" style="fill: #fff"/>
        <path d="M621.8,185.1l.8,10.5a15.2,15.2,0,0,0,.2,2.3h-1.4l-.2-1.5h0a3.4,3.4,0,0,1-2.9,1.9c-2.1.1-3.8-1.5-4-4.2s1.4-4.8,3.6-4.9a3.1,3.1,0,0,1,2.7,1.1h0l-.3-5.2Zm-1,7.7c0-.2-.1-.4-.1-.6a2.4,2.4,0,0,0-2.4-1.7c-1.7.1-2.5,1.6-2.4,3.5s1.1,3.2,2.8,3.1a2.5,2.5,0,0,0,2.2-2.1v-2.2Z" style="fill: #fff"/>
        <path d="M625.9,193.6a2.9,2.9,0,0,0,3.2,2.8,5.9,5.9,0,0,0,2.4-.6l.4,1.1a7.6,7.6,0,0,1-2.9.7c-2.7.2-4.4-1.4-4.6-4.1s1.2-4.7,3.8-4.9,3.7,2.2,3.8,3.8a1.1,1.1,0,0,1,0,.8Zm4.6-1.5c-.1-1-.6-2.5-2.4-2.4a2.5,2.5,0,0,0-2.2,2.8Z" style="fill: #fff"/>
        <path d="M634,195.5a4.3,4.3,0,0,0,2.1.5c1.2-.1,1.7-.7,1.6-1.4s-.5-1.2-1.7-1.5-2.4-1.3-2.5-2.3a2.8,2.8,0,0,1,2.9-2.8,3.5,3.5,0,0,1,2.1.4l-.3,1.2a2.8,2.8,0,0,0-1.8-.4c-.9.1-1.4.6-1.4,1.3s.6,1,1.8,1.3,2.4,1.2,2.5,2.5-1.1,2.7-3.1,2.8a4.7,4.7,0,0,1-2.5-.4Z" style="fill: #fff"/>
        <path d="M640.4,198.9a28.7,28.7,0,0,0,.8-4.4l1.7-.3a24.2,24.2,0,0,1-1.4,4.5Z" style="fill: #fff"/>
      </g>
      <g>
        <path d="M552.4,281.5a13.7,13.7,0,0,0,.4-2.3l1.6-10.4,1.5.3-.8,5.4h.1a3.2,3.2,0,0,1,3.1-1.2c2.2.4,3.4,2.4,3,5s-2.6,4.3-4.5,4a3.2,3.2,0,0,1-2.7-2h0l-.3,1.5Zm2.2-3.3a.6.6,0,0,0,0,.6,2.4,2.4,0,0,0,2,2.2c1.7.3,2.9-.9,3.1-2.9s-.4-3.3-2-3.6a2.5,2.5,0,0,0-2.7,1.6.8.8,0,0,0-.2.6Z" style="fill: #fff"/>
        <path d="M564.5,270.3l1.6.3-1.9,12.6-1.6-.2Z" style="fill: #fff"/>
        <path d="M571.6,284.3v-1.1h0a3.2,3.2,0,0,1-2.8.9,2.5,2.5,0,0,1-2.3-2.9c.3-2,2.3-2.9,5.7-2.4v-.2a1.8,1.8,0,0,0-1.7-2.3,4.5,4.5,0,0,0-2.3.3l-.2-1a5.4,5.4,0,0,1,2.9-.4c2.7.4,3,2.3,2.8,4l-.5,3.3a15,15,0,0,0-.2,2Zm.4-4.4c-1.7-.3-3.7-.3-3.9,1.4a1.3,1.3,0,0,0,1.2,1.7,2,2,0,0,0,2.3-1.1c.1-.2.2-.3.2-.5Z" style="fill: #fff"/>
        <path d="M576.4,278.6a21.5,21.5,0,0,0,.2-2.3l1.4.2v1.4h0a3.5,3.5,0,0,1,3.1-1.2c1.2.2,3,1.2,2.5,4.2l-.8,5.1-1.5-.2.7-5c.2-1.4-.1-2.6-1.6-2.8a2.1,2.1,0,0,0-2.3,1.2,1.9,1.9,0,0,0-.2.8l-.8,5.1-1.6-.2Z" style="fill: #fff"/>
        <path d="M594.6,274.9l-1.5,10.4a19.2,19.2,0,0,0-.3,2.2l-1.4-.2.2-1.5h-.1a3,3,0,0,1-3.2,1.2c-2.1-.3-3.4-2.3-3-4.9s2.5-4.4,4.6-4a2.9,2.9,0,0,1,2.4,1.7h0l.8-5.2Zm-2.7,7.3a1.7,1.7,0,0,0,.1-.7,2.5,2.5,0,0,0-2-2.2c-1.6-.2-2.8,1.1-3.1,3s.4,3.3,2.1,3.5a2.2,2.2,0,0,0,2.5-1.5,1.4,1.4,0,0,0,.2-.6Z" style="fill: #fff"/>
        <path d="M603.8,284.7a4.3,4.3,0,0,1-5,3.9,4.1,4.1,0,0,1-3.5-5c.5-2.9,2.6-4.3,5-4S604.2,282,603.8,284.7Zm-6.9-1c-.2,1.9.6,3.5,2.2,3.7s2.8-1,3.1-2.9-.3-3.4-2.1-3.7S597.2,282.1,596.9,283.7Z" style="fill: #fff"/>
        <path d="M605.1,287.7a4.7,4.7,0,0,0,2,1c1.1.1,1.8-.4,1.9-1.1s-.3-1.2-1.4-1.8-2.1-1.7-1.9-2.8,1.5-2.3,3.3-2.1a5.1,5.1,0,0,1,2.1.9l-.6,1.1a3,3,0,0,0-1.7-.8c-.9-.1-1.5.3-1.6,1s.4,1.1,1.4,1.7,2.1,1.6,1.9,2.9-1.6,2.4-3.6,2.1a4.8,4.8,0,0,1-2.3-.9Z" style="fill: #fff"/>
      </g>
      <g>
        <path d="M563,254.4a7.3,7.3,0,0,1-3.2.2c-3.4-.4-5.7-2.9-5.2-6.8a6,6,0,0,1,7-5.6,6.3,6.3,0,0,1,2.8.9l-.5,1.2a5.2,5.2,0,0,0-2.4-.8c-2.8-.3-4.9,1.2-5.3,4.4s1.1,5.1,4.1,5.4a7.2,7.2,0,0,0,2.6-.2Z" style="fill: #fff"/>
        <path d="M565.6,249c.1-1,.2-1.9.2-2.7l1.4.2-.2,1.7h.1a2.7,2.7,0,0,1,2.6-1.6h.5l-.2,1.5h-.5a2.2,2.2,0,0,0-2.4,1.7c-.1.3-.1.5-.2.8l-.5,4.6-1.6-.2Z" style="fill: #fff"/>
        <path d="M571.9,251.7a2.7,2.7,0,0,0,2.6,3.4,5.6,5.6,0,0,0,2.4-.2l.2,1.2a8.3,8.3,0,0,1-3,.2,4.1,4.1,0,0,1-3.7-4.9c.3-2.6,2.1-4.5,4.6-4.2s3.3,2.9,3.1,4.5a4.5,4.5,0,0,1-.2.8Zm4.7-.5a2.4,2.4,0,0,0-1.9-2.9,2.7,2.7,0,0,0-2.7,2.3Zm1.2-7.2-2.4,2.3-1.2-.2,1.9-2.3Z" style="fill: #fff"/>
        <path d="M588.4,244.9l-1.2,10.5a19.9,19.9,0,0,0-.2,2.2h-1.4V256h0a3.2,3.2,0,0,1-3.2,1.3c-2.1-.2-3.5-2.2-3.2-4.8s2.4-4.5,4.5-4.2a2.8,2.8,0,0,1,2.4,1.6h.1l.6-5.1Zm-2.4,7.4v-.7a2.4,2.4,0,0,0-2.1-2.1c-1.6-.1-2.7,1.2-3,3.1s.5,3.3,2.2,3.5a2.4,2.4,0,0,0,2.5-1.6,1.4,1.4,0,0,0,.2-.7Z" style="fill: #fff"/>
        <path d="M589.5,257.9l1.1-8.6,1.5.2-1,8.6Zm3.1-10.8a.9.9,0,0,1-1.1.8.9.9,0,0,1-.8-1.1.9.9,0,0,1,1.1-.8C592.4,246,592.7,246.5,592.6,247.1Z" style="fill: #fff"/>
        <path d="M596.9,247.5l-.2,2.5,2.2.3v1.2l-2.3-.3-.5,4.7q-.3,1.7.9,1.8h1v1.2a3.2,3.2,0,0,1-1.4,0,2.3,2.3,0,0,1-1.7-.8,4.1,4.1,0,0,1-.3-2.4l.6-4.7h-1.4l.2-1.2h1.3l.3-2Z" style="fill: #fff"/>
        <path d="M607.9,255.7a4.3,4.3,0,0,1-4.9,4.1,4.3,4.3,0,0,1-3.6-5c.4-2.9,2.5-4.4,4.9-4.1S608.2,253,607.9,255.7Zm-6.9-.8c-.2,1.9.7,3.5,2.2,3.7s2.8-1.1,3.1-3.1-.4-3.4-2.2-3.6S601.2,253.3,601,254.9Z" style="fill: #fff"/>
        <path d="M609.3,258.7a5.2,5.2,0,0,0,2,.8c1.2.2,1.8-.3,1.9-1s-.4-1.3-1.5-1.8-2.1-1.7-2-2.7a2.7,2.7,0,0,1,3.3-2.2,4,4,0,0,1,2.1.8l-.5,1.1a3.4,3.4,0,0,0-1.7-.8c-1-.1-1.6.4-1.6,1.1s.4,1.1,1.4,1.6,2.1,1.6,2,2.9-1.5,2.4-3.6,2.2a4.3,4.3,0,0,1-2.3-.9Z" style="fill: #fff"/>
      </g>
      <g>
        <path d="M559.1,224.5l-1.5,3.8H556l4.7-11.9h1.9l3.6,12.3h-1.7l-1.1-3.8Zm4-1-1-3.5c-.2-.8-.4-1.6-.5-2.3h0c-.3.7-.5,1.5-.8,2.2l-1.3,3.4Z" style="fill: #fff"/>
        <path d="M573.9,228.8a6.7,6.7,0,0,1-2.5.4,4.1,4.1,0,0,1-4.1-4.7,4.4,4.4,0,0,1,4.9-4.4,4.8,4.8,0,0,1,2.1.6l-.4,1.2a2.8,2.8,0,0,0-1.8-.5,2.9,2.9,0,0,0-3.2,3.1,3,3,0,0,0,2.8,3.4,3.8,3.8,0,0,0,2-.3Z" style="fill: #fff"/>
        <path d="M583.1,227.2v2.4h-1.4v-1.4h-.1a3.3,3.3,0,0,1-2.9,1.4c-1.4,0-3-.9-2.8-3.9l.2-5.1h1.6l-.3,4.8c0,1.6.4,2.8,1.8,2.8a2.2,2.2,0,0,0,2.2-1.3,1.9,1.9,0,0,0,.2-.8l.3-5.3h1.5Z" style="fill: #fff"/>
        <path d="M586.7,225.7a2.7,2.7,0,0,0,2.8,3.1,5.6,5.6,0,0,0,2.5-.3l.2,1.1a5.6,5.6,0,0,1-2.9.4c-2.7-.1-4.2-1.9-4.1-4.6s1.8-4.6,4.3-4.4,3.5,2.6,3.4,4.2a1.7,1.7,0,0,1-.1.8Zm4.7-.9a2.3,2.3,0,0,0-2.1-2.7c-1.6-.1-2.3,1.3-2.5,2.4Z" style="fill: #fff"/>
        <path d="M594.9,224.1a26.2,26.2,0,0,0,.1-2.7h1.4v1.7h0a2.9,2.9,0,0,1,2.5-1.8h.5V223h-.5a2.4,2.4,0,0,0-2.3,1.9c0,.2-.1.5-.1.8l-.2,4.6h-1.6Z" style="fill: #fff"/>
        <path d="M608.5,218l-.5,10.5a19.3,19.3,0,0,0-.1,2.3h-1.4v-1.5h0a3.5,3.5,0,0,1-3.1,1.6c-2.1-.1-3.6-2-3.5-4.6s2-4.6,4.2-4.5a2.7,2.7,0,0,1,2.5,1.4h0l.3-5.2Zm-2,7.5v-.6a2.5,2.5,0,0,0-2.2-2c-1.6,0-2.7,1.3-2.8,3.3s.7,3.2,2.4,3.3a2.3,2.3,0,0,0,2.4-1.8c.1-.2.1-.4.2-.6Z" style="fill: #fff"/>
        <path d="M618.6,226.9a4.3,4.3,0,0,1-4.6,4.4,4.1,4.1,0,0,1-3.9-4.7,4.2,4.2,0,0,1,4.5-4.4C617.1,222.3,618.7,224.2,618.6,226.9Zm-6.9-.3c-.1,1.9.9,3.4,2.4,3.5s2.8-1.3,2.9-3.2-.6-3.4-2.5-3.5S611.7,225,611.7,226.6Z" style="fill: #fff"/>
        <path d="M620.2,229.8a4.4,4.4,0,0,0,2.1.7c1.1.1,1.7-.5,1.7-1.2s-.4-1.2-1.5-1.7-2.3-1.5-2.2-2.6a2.7,2.7,0,0,1,3.1-2.4,4.7,4.7,0,0,1,2.1.7l-.4,1.1a4.6,4.6,0,0,0-1.8-.6,1.4,1.4,0,0,0-1.5,1.1c0,.8.5,1.1,1.6,1.6s2.2,1.4,2.2,2.7-1.4,2.6-3.4,2.5a4.9,4.9,0,0,1-2.4-.7Z" style="fill: #fff"/>
        <path d="M626.1,233.9a17.2,17.2,0,0,0,1.3-4.2h1.8a30.2,30.2,0,0,1-1.9,4.3Z" style="fill: #fff"/>
      </g>
    </g>
  </g>
</svg>
