<svg class="animate__animated" xmlns="http://www.w3.org/2000/svg" viewBox="0 0 734 277.3">
  <g>
    <g class="hoverable();" onclick="returnToTypesInstrument();">
      <path d="M453.3,197.7,281.7,171.6a156.9,156.9,0,0,0,1.8-23.8,155,155,0,0,0-4.8-38.5L446.9,66.5a327,327,0,0,1,10.2,81.3A332.3,332.3,0,0,1,453.3,197.7Z" style="fill: #37276e"/>
      <path d="M444.8,196.5,277.7,171.1a148.7,148.7,0,0,0,1.7-23.1,152.4,152.4,0,0,0-4.6-37.6L438.6,68.8a323.6,323.6,0,0,1,9.8,79.2A327.8,327.8,0,0,1,444.8,196.5Z" style="fill: #e27aaf"/>
      <g>
        <path d="M323.3,113.1v12.8h-1.6V113.1Z" style="fill: #fff"/>
        <path d="M326.4,119.2c0-1-.1-1.8-.1-2.5h1.5v1.5h0a3.2,3.2,0,0,1,3-1.7c1.3,0,3.3.7,3.3,3.9v5.5h-1.7v-5.3c0-1.5-.5-2.8-2.1-2.8a2.5,2.5,0,0,0-2.3,1.8c0,.2-.1.5-.1.7v5.6h-1.6Z" style="fill: #fff"/>
        <path d="M338.8,114v2.7h2.4v1.2h-2.4v5c0,1.1.4,1.8,1.3,1.8h1v1.2a2.6,2.6,0,0,1-1.4.3,2.7,2.7,0,0,1-1.9-.7,4,4,0,0,1-.6-2.4v-5.1h-1.4v-1.2h1.4v-2.2Z" style="fill: #fff"/>
        <path d="M343.9,121.6a3,3,0,0,0,3.2,3.2,5.2,5.2,0,0,0,2.5-.5l.3,1.2a8.6,8.6,0,0,1-3,.6,4.3,4.3,0,0,1-4.6-4.7c0-2.8,1.7-4.9,4.3-4.9s3.8,2.6,3.8,4.3v.8Zm4.9-1.2c0-1.1-.4-2.7-2.3-2.7s-2.4,1.5-2.6,2.7Z" style="fill: #fff"/>
        <path d="M352.5,119.5a24.4,24.4,0,0,0-.1-2.8h1.5v1.8h0a2.8,2.8,0,0,1,2.6-2h.5v1.6h-.6a2.4,2.4,0,0,0-2.3,2.2v5.7h-1.7Z" style="fill: #fff"/>
        <path d="M359.8,116.7l1.9,5.1c.3.9.5,1.6.7,2.4h.1c.2-.8.4-1.5.7-2.4l1.8-5.1h1.8l-3.6,9.2h-1.6l-3.5-9.2Z" style="fill: #fff"/>
        <path d="M369.1,121.6a3,3,0,0,0,3.1,3.2,5.7,5.7,0,0,0,2.6-.5l.3,1.2a8.8,8.8,0,0,1-3.1.6c-2.8,0-4.5-1.9-4.5-4.7s1.6-4.9,4.3-4.9,3.8,2.6,3.8,4.3a1.9,1.9,0,0,1-.1.8Zm4.9-1.2c0-1.1-.5-2.7-2.3-2.7a2.7,2.7,0,0,0-2.6,2.7Z" style="fill: #fff"/>
        <path d="M377.7,119.2a18.5,18.5,0,0,0-.1-2.5h1.5v1.5h0a3.3,3.3,0,0,1,3-1.7c1.3,0,3.3.7,3.3,3.9v5.5h-1.7v-5.3c0-1.5-.5-2.8-2.1-2.8a2.3,2.3,0,0,0-2.2,1.8,1.9,1.9,0,0,0-.2.7v5.6h-1.6Z" style="fill: #fff"/>
        <path d="M394.8,125.5a6.7,6.7,0,0,1-2.7.6,4.4,4.4,0,0,1-4.5-4.7,4.6,4.6,0,0,1,4.9-4.9,4.4,4.4,0,0,1,2.3.5l-.4,1.2a4.1,4.1,0,0,0-1.9-.4,3.3,3.3,0,0,0-3.3,3.5,3.2,3.2,0,0,0,3.2,3.4,5.2,5.2,0,0,0,2.1-.4Z" style="fill: #fff"/>
        <path d="M398.6,114.1a1,1,0,0,1-1.1,1,.9.9,0,0,1-1-1,1.1,1.1,0,0,1,1.1-1.1A1,1,0,0,1,398.6,114.1Zm-1.9,11.8v-9.2h1.7v9.2Z" style="fill: #fff"/>
        <path d="M409.5,121.2a4.5,4.5,0,0,1-4.6,4.9c-2.5,0-4.4-1.9-4.4-4.8a4.5,4.5,0,0,1,4.6-4.8C407.7,116.5,409.5,118.4,409.5,121.2Zm-7.3.1c0,2,1.2,3.5,2.8,3.5s2.8-1.5,2.8-3.6-.8-3.5-2.8-3.5S402.2,119.5,402.2,121.3Zm5.3-8.6-2.3,2.7H404l1.7-2.7Z" style="fill: #fff"/>
        <path d="M411.6,119.2a18.5,18.5,0,0,0-.1-2.5H413v1.5h0a3.5,3.5,0,0,1,3.1-1.7c1.3,0,3.2.7,3.2,3.9v5.5h-1.6v-5.3c0-1.5-.6-2.8-2.2-2.8a2.3,2.3,0,0,0-2.2,1.8,1.7,1.7,0,0,0-.1.7v5.6h-1.7Z" style="fill: #fff"/>
        <path d="M338.3,140.9h-5v4.6h5.5v1.4h-7.2V134.1h6.9v1.3h-5.2v4.1h5Z" style="fill: #fff"/>
        <path d="M340.7,145.2a4.8,4.8,0,0,0,2.2.6c1.2,0,1.8-.6,1.8-1.3s-.5-1.3-1.7-1.7-2.5-1.5-2.5-2.6,1.2-2.7,3.2-2.7a4.9,4.9,0,0,1,2.3.5l-.4,1.2a4.3,4.3,0,0,0-1.9-.5c-1,0-1.6.6-1.6,1.3s.6,1.1,1.8,1.5,2.4,1.4,2.4,2.8-1.3,2.8-3.4,2.8a4.7,4.7,0,0,1-2.6-.7Z" style="fill: #fff"/>
        <path d="M350.5,135v2.7h2.3v1.2h-2.3v5c0,1.1.3,1.8,1.2,1.8h1v1.2a3.3,3.3,0,0,1-1.5.3,2.5,2.5,0,0,1-1.8-.7,3.4,3.4,0,0,1-.7-2.4v-5.1h-1.4v-1.2h1.4v-2.2Z" style="fill: #fff"/>
        <path d="M354.7,140.5v-2.8h1.4v1.8h0a2.8,2.8,0,0,1,2.6-2h.5v1.6h-.6a2.3,2.3,0,0,0-2.2,2.2,1.9,1.9,0,0,0-.1.8v4.9h-1.7Z" style="fill: #fff"/>
        <path d="M368.6,144.4c0,.9.1,1.7.1,2.5h-1.5v-1.5h0a3.5,3.5,0,0,1-3,1.7c-1.5,0-3.2-.8-3.2-4.1v-5.3h1.7v5.1c0,1.7.5,2.9,2,2.9a2.5,2.5,0,0,0,2.2-1.5,2.9,2.9,0,0,0,.2-.9v-5.6h1.6Z" style="fill: #fff"/>
        <path d="M378,146.5a6.7,6.7,0,0,1-2.7.6,4.4,4.4,0,0,1-4.6-4.7,4.7,4.7,0,0,1,5-4.9,4.6,4.6,0,0,1,2.3.5l-.4,1.2a4.1,4.1,0,0,0-1.9-.4,3.3,3.3,0,0,0-3.3,3.5,3.2,3.2,0,0,0,3.2,3.4,5.2,5.2,0,0,0,2.1-.4Z" style="fill: #fff"/>
        <path d="M382.2,135v2.7h2.4v1.2h-2.4v5c0,1.1.3,1.8,1.2,1.8h1v1.2a3.1,3.1,0,0,1-1.5.3,2.5,2.5,0,0,1-1.8-.7,3.4,3.4,0,0,1-.6-2.4v-5.1h-1.5v-1.2h1.5v-2.2Z" style="fill: #fff"/>
        <path d="M394.2,144.4v2.5h-1.5v-1.5h-.1a3.5,3.5,0,0,1-3,1.7c-1.5,0-3.2-.8-3.2-4.1v-5.3h1.7v5.1c0,1.7.5,2.9,2,2.9a2.5,2.5,0,0,0,2.2-1.5,2.9,2.9,0,0,0,.2-.9v-5.6h1.7Z" style="fill: #fff"/>
        <path d="M396.9,140.5v-2.8h1.4v1.8h0a2.8,2.8,0,0,1,2.6-2h.5v1.6h-.6a2.3,2.3,0,0,0-2.2,2.2,1.9,1.9,0,0,0-.1.8v4.9h-1.7Z" style="fill: #fff"/>
        <path d="M408.1,146.9v-1.2h-.1a3.5,3.5,0,0,1-2.8,1.4,2.7,2.7,0,0,1-2.8-2.7c0-2.2,2-3.4,5.6-3.4v-.2a2,2,0,0,0-2.1-2.1,4.5,4.5,0,0,0-2.4.7l-.4-1.1a5.6,5.6,0,0,1,3-.8c2.8,0,3.5,1.9,3.5,3.7v3.5a7.8,7.8,0,0,0,.2,2.2Zm-.2-4.7c-1.8-.1-3.9.3-3.9,2a1.5,1.5,0,0,0,1.6,1.6,2.2,2.2,0,0,0,2.2-1.5,1.1,1.1,0,0,0,.1-.5Z" style="fill: #fff"/>
        <path d="M344.9,155.2l3.1-.2c1.7,0,2.9.3,3.6,1a3.6,3.6,0,0,1,1.2,2.7,3.7,3.7,0,0,1-1,2.7,5.1,5.1,0,0,1-3.9,1.4h-1.4v5.2h-1.6Zm1.6,6.2h1.4c2,0,3.2-.9,3.2-2.7s-1.2-2.5-3-2.5h-1.6Z" style="fill: #fff"/>
        <path d="M354.6,161.5a24.4,24.4,0,0,0-.1-2.8H356v1.8h0a2.8,2.8,0,0,1,2.6-2h.5v1.6h-.6a2.4,2.4,0,0,0-2.3,2.2v5.7h-1.7Z" style="fill: #fff"/>
        <path d="M361.6,163.6a3,3,0,0,0,3.1,3.2,6,6,0,0,0,2.6-.5l.3,1.2a8.8,8.8,0,0,1-3.1.6c-2.8,0-4.5-1.9-4.5-4.7s1.6-4.9,4.3-4.9,3.8,2.6,3.8,4.3-.1.6-.1.8Zm4.9-1.2c0-1.1-.5-2.7-2.3-2.7a2.7,2.7,0,0,0-2.6,2.7Z" style="fill: #fff"/>
        <path d="M378.1,154.4v11.1a18.5,18.5,0,0,0,.1,2.4h-1.5v-1.6h0a3.7,3.7,0,0,1-3.2,1.8c-2.2,0-3.9-1.9-3.9-4.7s1.9-4.9,4.1-4.9a3,3,0,0,1,2.8,1.4h0v-5.5Zm-1.7,8v-.7a2.5,2.5,0,0,0-2.5-1.9c-1.7,0-2.7,1.5-2.7,3.5s.9,3.4,2.7,3.4a2.6,2.6,0,0,0,2.5-2v-2.3Z" style="fill: #fff"/>
        <path d="M382.7,156.1c.1.6-.4,1-1,1a.9.9,0,0,1-1-1,1,1,0,1,1,2,0Zm-1.8,11.8v-9.2h1.6v9.2Z" style="fill: #fff"/>
        <path d="M390.4,167.9v-1.2h-.1a3.5,3.5,0,0,1-2.8,1.4,2.6,2.6,0,0,1-2.8-2.7c0-2.2,2-3.4,5.5-3.4v-.2a1.9,1.9,0,0,0-2.1-2.1,5.1,5.1,0,0,0-2.4.7l-.3-1.1a5.3,5.3,0,0,1,3-.8c2.8,0,3.5,1.9,3.5,3.7v3.5a15.5,15.5,0,0,0,.1,2.2Zm-.2-4.7c-1.9-.1-3.9.3-3.9,2a1.4,1.4,0,0,0,1.5,1.6,2.4,2.4,0,0,0,2.3-1.5,4.3,4.3,0,0,1,.1-.5Z" style="fill: #fff"/>
        <path d="M394.5,154.4h1.6v13.5h-1.6Z" style="fill: #fff"/>
      </g>
    </g>
    <g class="hoverable();" onclick="returnToGroups();">
      <circle cx="127.5" cy="149.8" r="127" style="fill: none;stroke: #aab8bd;stroke-miterlimit: 10"/>
      <circle cx="127.7" cy="148" r="105" style="fill: #bdc4c6"/>
      <g>
        <path d="M60.6,134.2h8.3v2.1H63.2v4h5.3v2.1H63.2v6.1H60.6Z" style="fill: #112025"/>
        <path d="M74,134.2v14.3H71.4V134.2Z" style="fill: #112025"/>
        <path d="M77,148.5V134.2h3l3.6,6.1a44.4,44.4,0,0,1,2.5,4.8h0a55.3,55.3,0,0,1-.2-5.9v-5h2.4v14.3H85.6l-3.7-6.3c-.9-1.6-1.9-3.3-2.6-4.9h0c.1,1.8.1,3.7.1,6.1v5.1Z" style="fill: #112025"/>
        <path d="M94.2,144.4l-1.3,4.1H90.2l4.6-14.3h3.3l4.7,14.3H100l-1.3-4.1Zm4-1.9-1.1-3.6a25,25,0,0,1-.7-2.6h0a25,25,0,0,0-.7,2.6l-1.1,3.6Z" style="fill: #112025"/>
        <path d="M104.8,148.5V134.2h2.9l3.7,6.1a30.7,30.7,0,0,1,2.4,4.8h.1a55.3,55.3,0,0,1-.2-5.9v-5h2.4v14.3h-2.7l-3.7-6.3a38.7,38.7,0,0,1-2.6-4.9H107c.1,1.8.2,3.7.2,6.1v5.1Z" style="fill: #112025"/>
        <path d="M129.3,148a7.7,7.7,0,0,1-3.7.7c-4.5,0-7.3-2.9-7.3-7.2s3.3-7.5,7.7-7.5a7.5,7.5,0,0,1,3.4.6l-.5,2.1a7.3,7.3,0,0,0-2.8-.6c-2.9,0-5,1.8-5,5.3s1.8,5.1,4.9,5.1a7.9,7.9,0,0,0,2.9-.5Z" style="fill: #112025"/>
        <path d="M134.1,134.2v14.3h-2.6V134.2Z" style="fill: #112025"/>
        <path d="M140,144.4l-1.3,4.1H136l4.6-14.3h3.3l4.7,14.3h-2.8l-1.3-4.1Zm4-1.9-1.1-3.6-.7-2.6h0l-.7,2.6-1.1,3.6Z" style="fill: #112025"/>
        <path d="M160.3,148a7.2,7.2,0,0,1-3.6.7c-4.6,0-7.3-2.9-7.3-7.2s3.2-7.5,7.6-7.5a8.4,8.4,0,0,1,3.5.6l-.6,2.1a6.9,6.9,0,0,0-2.8-.6c-2.9,0-5,1.8-5,5.3s1.9,5.1,5,5.1a7.8,7.8,0,0,0,2.8-.5Z" style="fill: #112025"/>
        <path d="M165.2,134.2v14.3h-2.6V134.2Z" style="fill: #112025"/>
        <path d="M180.8,141.2c0,4.8-2.9,7.5-6.8,7.5s-6.6-3.1-6.6-7.3,2.8-7.4,6.8-7.4S180.8,137.1,180.8,141.2Zm-10.6.2c0,2.9,1.4,5.2,3.9,5.2s4-2.3,4-5.3-1.4-5.2-4-5.2S170.2,138.5,170.2,141.4Zm7.3-10.5-2.6,2.5h-2.1l1.9-2.5Z" style="fill: #112025"/>
        <path d="M183.1,148.5V134.2H186l3.7,6.1a30.7,30.7,0,0,1,2.4,4.8h.1a54.1,54.1,0,0,1-.3-5.9v-5h2.5v14.3h-2.7l-3.8-6.3c-.9-1.6-1.8-3.3-2.5-4.9h-.1c.1,1.8.2,3.7.2,6.1v5.1Z" style="fill: #112025"/>
      </g>
    </g>
    <g class="hoverable();" onclick="showInstrument('financiacion', 'intervencion_estructura_predial', 'encargos_fiduciarios');">
      <path d="M726,246.8l-236.9-39a358,358,0,0,0,4.9-59.4,373.8,373.8,0,0,0-11.1-89.9L715.6,0A609.3,609.3,0,0,1,734,148.4,611.3,611.3,0,0,1,726,246.8Z" style="fill: #e27aaf"/>
      <g>
        <path d="M573.3,121.9h-5.5V127h6.1v1.5H566V114.3h7.6v1.6h-5.8v4.4h5.5Z" style="fill: #fff"/>
        <path d="M576.3,121.1c0-1.1-.1-1.9-.1-2.8h1.6V120h.1a3.5,3.5,0,0,1,3.3-1.9c1.4,0,3.6.8,3.6,4.3v6.1h-1.8v-5.9c0-1.6-.6-3-2.4-3a2.7,2.7,0,0,0-2.5,1.9,2.8,2.8,0,0,0-.1.9v6.1h-1.8Z" style="fill: #fff"/>
        <path d="M595.2,128.1a6.5,6.5,0,0,1-3,.6,4.8,4.8,0,0,1-5-5.2,5.1,5.1,0,0,1,5.4-5.4,7.4,7.4,0,0,1,2.6.5l-.4,1.5a4.2,4.2,0,0,0-2.2-.5,3.8,3.8,0,0,0,0,7.6,4.2,4.2,0,0,0,2.2-.5Z" style="fill: #fff"/>
        <path d="M603,128.5l-.2-1.3h-.1a3.6,3.6,0,0,1-3.1,1.5,2.9,2.9,0,0,1-3.1-2.9c0-2.5,2.2-3.8,6.1-3.8v-.2a2.1,2.1,0,0,0-2.3-2.3,5.6,5.6,0,0,0-2.6.7l-.4-1.2a6.4,6.4,0,0,1,3.3-.9c3.1,0,3.9,2.1,3.9,4.2v3.8a18.5,18.5,0,0,0,.1,2.4Zm-.3-5.2c-2,0-4.3.3-4.3,2.3a1.7,1.7,0,0,0,1.7,1.8,2.7,2.7,0,0,0,2.5-1.7c0-.2.1-.4.1-.6Z" style="fill: #fff"/>
        <path d="M607.4,121.5v-3.2H609v2h.1a3.2,3.2,0,0,1,2.8-2.2h.6v1.7h-.7a2.5,2.5,0,0,0-2.4,2.4,2.8,2.8,0,0,0-.1.9v5.4h-1.9Z" style="fill: #fff"/>
        <path d="M622.9,118.3c0,.8-.1,1.6-.1,2.8V127c0,2.4-.4,3.8-1.4,4.7a5.5,5.5,0,0,1-3.7,1.2,6.2,6.2,0,0,1-3.4-.9l.5-1.4a4.8,4.8,0,0,0,2.9.8c1.9,0,3.3-1,3.3-3.5v-1.1h0a3.9,3.9,0,0,1-3.3,1.7c-2.5,0-4.3-2.2-4.3-5s2.3-5.4,4.6-5.4a3.4,3.4,0,0,1,3.2,1.8h0v-1.6Zm-1.9,4a2.2,2.2,0,0,0-.1-.8,2.8,2.8,0,0,0-2.6-2c-1.8,0-3,1.5-3,3.9s1,3.6,3,3.6a2.7,2.7,0,0,0,2.5-1.8,4.4,4.4,0,0,0,.2-1Z" style="fill: #fff"/>
        <path d="M635.1,123.3c0,3.8-2.6,5.4-5.1,5.4a4.9,4.9,0,0,1-4.9-5.2,5,5,0,0,1,5.1-5.4C633.1,118.1,635.1,120.2,635.1,123.3Zm-8.1.1c0,2.3,1.3,3.9,3.1,3.9s3.1-1.6,3.1-3.9-.9-3.9-3.1-3.9S627,121.5,627,123.4Z" style="fill: #fff"/>
        <path d="M637.2,126.6a4.3,4.3,0,0,0,2.4.7c1.3,0,2-.6,2-1.5s-.6-1.3-1.9-1.8-2.7-1.7-2.7-2.9,1.3-3,3.5-3a5.7,5.7,0,0,1,2.5.6l-.5,1.4a3.4,3.4,0,0,0-2-.6c-1.1,0-1.7.6-1.7,1.4s.6,1.2,1.9,1.7,2.7,1.5,2.7,3.1-1.4,3-3.8,3a5.9,5.9,0,0,1-2.9-.7Z" style="fill: #fff"/>
        <path d="M566,139.5h7.6v1.6h-5.8v4.7h5.4v1.5h-5.4v6.4H566Z" style="fill: #fff"/>
        <path d="M577.7,140.7a1.1,1.1,0,0,1-1.2,1.1,1,1,0,0,1-1.1-1.1,1.1,1.1,0,0,1,1.1-1.2A1.2,1.2,0,0,1,577.7,140.7Zm-2.1,13V143.5h1.9v10.2Z" style="fill: #fff"/>
        <path d="M589.3,138.8v12.3a20.9,20.9,0,0,0,.1,2.6h-1.7v-1.8h0a3.7,3.7,0,0,1-3.5,2c-2.4,0-4.3-2.1-4.3-5.1s2.1-5.5,4.5-5.5a3.3,3.3,0,0,1,3.1,1.6h.1v-6.1Zm-1.8,8.9c0-.3-.1-.6-.1-.8a2.8,2.8,0,0,0-2.7-2.2c-1.9,0-3,1.7-3,4s1,3.7,3,3.7a2.8,2.8,0,0,0,2.7-2.2c0-.2.1-.5.1-.8Z" style="fill: #fff"/>
        <path d="M600.9,150.9a23.5,23.5,0,0,0,.1,2.8h-1.7V152h0a3.8,3.8,0,0,1-3.4,1.9c-1.6,0-3.5-.9-3.5-4.4v-6h1.9v5.7c0,1.9.5,3.2,2.2,3.2a2.8,2.8,0,0,0,2.5-1.7,2.8,2.8,0,0,0,.1-.9v-6.3h1.9Z" style="fill: #fff"/>
        <path d="M611.2,153.3a6.3,6.3,0,0,1-2.9.6,4.9,4.9,0,0,1-5.1-5.2,5.2,5.2,0,0,1,5.5-5.4,6.8,6.8,0,0,1,2.5.5l-.4,1.5a3.6,3.6,0,0,0-2.1-.5c-2.4,0-3.6,1.7-3.6,3.8s1.5,3.8,3.5,3.8a4.9,4.9,0,0,0,2.3-.5Z" style="fill: #fff"/>
        <path d="M615.4,140.7a1.1,1.1,0,0,1-1.2,1.1,1.1,1.1,0,0,1-1.1-1.1,1.2,1.2,0,0,1,1.2-1.2A1.1,1.1,0,0,1,615.4,140.7Zm-2.1,13V143.5h1.9v10.2Z" style="fill: #fff"/>
        <path d="M623.9,153.7l-.2-1.3h0a3.9,3.9,0,0,1-3.1,1.5,2.8,2.8,0,0,1-3.1-2.9c0-2.5,2.1-3.8,6.1-3.8V147a2.1,2.1,0,0,0-2.3-2.3,5.7,5.7,0,0,0-2.7.7l-.4-1.2a6.7,6.7,0,0,1,3.3-.9c3.1,0,3.9,2.1,3.9,4.2v3.8a9.3,9.3,0,0,0,.2,2.4Zm-.3-5.2c-2,0-4.3.3-4.3,2.3a1.7,1.7,0,0,0,1.8,1.8,2.6,2.6,0,0,0,2.4-1.7,1.3,1.3,0,0,0,.1-.6Z" style="fill: #fff"/>
        <path d="M628.4,146.7c0-1.2,0-2.2-.1-3.2h1.6v2h.1a3,3,0,0,1,2.8-2.2h.5v1.7h-.6a2.6,2.6,0,0,0-2.5,2.4c0,.3-.1.6-.1.9v5.4h-1.8Z" style="fill: #fff"/>
        <path d="M637.4,140.7a1.1,1.1,0,0,1-1.2,1.1,1.1,1.1,0,0,1-1.1-1.1,1.2,1.2,0,0,1,1.2-1.2A1.1,1.1,0,0,1,637.4,140.7Zm-2.1,13V143.5h1.9v10.2Z" style="fill: #fff"/>
        <path d="M649.4,148.5c0,3.8-2.6,5.4-5,5.4s-4.9-2-4.9-5.2,2.2-5.4,5.1-5.4S649.4,145.4,649.4,148.5Zm-8,.1c0,2.3,1.3,3.9,3.1,3.9s3.1-1.6,3.1-3.9-.9-3.9-3.1-3.9S641.4,146.7,641.4,148.6Z" style="fill: #fff"/>
        <path d="M651.5,151.8a4.6,4.6,0,0,0,2.5.7c1.3,0,1.9-.6,1.9-1.5s-.5-1.3-1.9-1.8-2.6-1.7-2.6-2.9,1.3-3,3.5-3a5.7,5.7,0,0,1,2.5.6l-.5,1.4a3.5,3.5,0,0,0-2.1-.6c-1.1,0-1.7.6-1.7,1.4s.6,1.2,2,1.7,2.6,1.5,2.6,3.1-1.4,3-3.8,3a5.8,5.8,0,0,1-2.8-.7Z" style="fill: #fff"/>
      </g>
    </g>
  </g>
</svg>
