<svg class="animate__animated" xmlns="http://www.w3.org/2000/svg" viewBox="0 0 734 277.3">
  <g>
    <g class="hoverable" onclick="returnToTypesInstrument(); changeImage('financiacion/F_Herramienta_Segundo_Plano');">
      <path d="M453.3,197.7,281.7,171.6a156.9,156.9,0,0,0,1.8-23.8,155,155,0,0,0-4.8-38.5L446.9,66.5a327,327,0,0,1,10.2,81.3A332.3,332.3,0,0,1,453.3,197.7Z" style="fill: #3f3793"/>
      <path d="M444.8,196.5,277.7,171.1a148.7,148.7,0,0,0,1.7-23.1,152.4,152.4,0,0,0-4.6-37.6L438.6,68.8a323.6,323.6,0,0,1,9.8,79.2A327.8,327.8,0,0,1,444.8,196.5Z" style="fill: #d36caf"/>
      <g>
        <path d="M329.3,130.3a38.9,38.9,0,0,1,3.9-.3q3.9,0,5.7,1.8a6.3,6.3,0,0,1,2,5.1,7.6,7.6,0,0,1-2,5.5c-1.4,1.3-3.5,2-6.3,2l-3.3-.2Zm1.8,12.5H333c3.9,0,6-2.1,6-6s-1.9-5.4-5.7-5.4l-2.2.2Z" style="fill: #fff"/>
        <path d="M344.3,139.5a3.4,3.4,0,0,0,3.5,3.6,6.5,6.5,0,0,0,2.8-.6l.3,1.4a7.7,7.7,0,0,1-3.3.6c-3.2,0-5-2.1-5-5.1s1.8-5.5,4.7-5.5,4.2,2.9,4.2,4.8v.8Zm5.4-1.3a2.5,2.5,0,0,0-2.5-3c-1.9,0-2.7,1.7-2.9,3Z" style="fill: #fff"/>
        <path d="M353.6,142.4a4.3,4.3,0,0,0,2.4.7c1.3,0,2-.6,2-1.5s-.5-1.3-1.9-1.9-2.7-1.6-2.7-2.8,1.3-3,3.5-3a5.7,5.7,0,0,1,2.5.6l-.5,1.4a3.4,3.4,0,0,0-2-.6c-1.1,0-1.7.6-1.7,1.4s.6,1.2,1.9,1.7,2.7,1.5,2.7,3-1.4,3.1-3.8,3.1a5.9,5.9,0,0,1-2.9-.7Z" style="fill: #fff"/>
        <path d="M367.8,144.3l-.2-1.3h0a3.9,3.9,0,0,1-3.2,1.5,2.9,2.9,0,0,1-3.1-2.9c0-2.5,2.2-3.8,6.1-3.8v-.2a2.1,2.1,0,0,0-2.3-2.3,4.6,4.6,0,0,0-2.6.7l-.4-1.2a5.6,5.6,0,0,1,3.3-.9c3.1,0,3.9,2.1,3.9,4.1v3.8a19.3,19.3,0,0,0,.1,2.5Zm-.3-5.2c-2,0-4.3.3-4.3,2.3a1.6,1.6,0,0,0,1.7,1.7,2.5,2.5,0,0,0,2.5-1.7,4.3,4.3,0,0,0,.1-.5Z" style="fill: #fff"/>
        <path d="M372.3,137.3c0-1.2-.1-2.2-.1-3.2h1.6v2h0a3.2,3.2,0,0,1,2.9-2.2h.5v1.7h-.7a2.5,2.5,0,0,0-2.4,2.4,2.8,2.8,0,0,0-.1.9v5.4h-1.8Z" style="fill: #fff"/>
        <path d="M379.2,137.3c0-1.2,0-2.2-.1-3.2h1.6v2h.1a3.2,3.2,0,0,1,2.8-2.2h.5v1.7h-.6a2.7,2.7,0,0,0-2.5,2.4c0,.3-.1.6-.1.9v5.4h-1.8Z" style="fill: #fff"/>
        <path d="M395.1,139.1c0,3.8-2.6,5.4-5.1,5.4a4.9,4.9,0,0,1-4.9-5.2,5,5,0,0,1,5.1-5.4C393.1,133.9,395.1,136,395.1,139.1Zm-8.1.1c0,2.2,1.3,3.9,3.1,3.9s3.1-1.6,3.1-3.9-.9-3.9-3.1-3.9S387,137.3,387,139.2Z" style="fill: #fff"/>
        <path d="M397.4,129.4h1.8v14.9h-1.8Z" style="fill: #fff"/>
        <path d="M402.4,129.4h1.8v14.9h-1.8Z" style="fill: #fff"/>
        <path d="M416.5,139.1c0,3.8-2.6,5.4-5.1,5.4s-4.8-2-4.8-5.2,2.2-5.4,5-5.4S416.5,136,416.5,139.1Zm-8.1.1c0,2.2,1.3,3.9,3.1,3.9s3.1-1.6,3.1-3.9-.8-3.9-3-3.9S408.4,137.3,408.4,139.2Z" style="fill: #fff"/>
      </g>
    </g>
    <g class="hoverable" onclick="returnToGroups(); changeImage('rueda');">
      <circle cx="127.5" cy="149.8" r="127" style="fill: none;stroke: #aab8bd;stroke-miterlimit: 10"/>
      <circle cx="127.7" cy="148" r="105" style="fill: #bdc4c6"/>
      <g>
        <path d="M60.6,134.2h8.3v2.1H63.2v4h5.3v2.1H63.2v6.1H60.6Z" style="fill: #112025"/>
        <path d="M74,134.2v14.3H71.4V134.2Z" style="fill: #112025"/>
        <path d="M77,148.5V134.2h3l3.6,6.1a44.4,44.4,0,0,1,2.5,4.8h0a55.3,55.3,0,0,1-.2-5.9v-5h2.4v14.3H85.6l-3.7-6.3c-.9-1.6-1.9-3.3-2.6-4.9h0c.1,1.8.1,3.7.1,6.1v5.1Z" style="fill: #112025"/>
        <path d="M94.2,144.4l-1.3,4.1H90.2l4.6-14.3h3.3l4.7,14.3H100l-1.3-4.1Zm4-1.9-1.1-3.6a25,25,0,0,1-.7-2.6h0a25,25,0,0,0-.7,2.6l-1.1,3.6Z" style="fill: #112025"/>
        <path d="M104.8,148.5V134.2h2.9l3.7,6.1a30.7,30.7,0,0,1,2.4,4.8h.1a55.3,55.3,0,0,1-.2-5.9v-5h2.4v14.3h-2.7l-3.7-6.3a38.7,38.7,0,0,1-2.6-4.9H107c.1,1.8.2,3.7.2,6.1v5.1Z" style="fill: #112025"/>
        <path d="M129.3,148a7.7,7.7,0,0,1-3.7.7c-4.5,0-7.3-2.9-7.3-7.2s3.3-7.5,7.7-7.5a7.5,7.5,0,0,1,3.4.6l-.5,2.1a7.3,7.3,0,0,0-2.8-.6c-2.9,0-5,1.8-5,5.3s1.8,5.1,4.9,5.1a7.9,7.9,0,0,0,2.9-.5Z" style="fill: #112025"/>
        <path d="M134.1,134.2v14.3h-2.6V134.2Z" style="fill: #112025"/>
        <path d="M140,144.4l-1.3,4.1H136l4.6-14.3h3.3l4.7,14.3h-2.8l-1.3-4.1Zm4-1.9-1.1-3.6-.7-2.6h0l-.7,2.6-1.1,3.6Z" style="fill: #112025"/>
        <path d="M160.3,148a7.2,7.2,0,0,1-3.6.7c-4.6,0-7.3-2.9-7.3-7.2s3.2-7.5,7.6-7.5a8.4,8.4,0,0,1,3.5.6l-.6,2.1a6.9,6.9,0,0,0-2.8-.6c-2.9,0-5,1.8-5,5.3s1.9,5.1,5,5.1a7.8,7.8,0,0,0,2.8-.5Z" style="fill: #112025"/>
        <path d="M165.2,134.2v14.3h-2.6V134.2Z" style="fill: #112025"/>
        <path d="M180.8,141.2c0,4.8-2.9,7.5-6.8,7.5s-6.6-3.1-6.6-7.3,2.8-7.4,6.8-7.4S180.8,137.1,180.8,141.2Zm-10.6.2c0,2.9,1.4,5.2,3.9,5.2s4-2.3,4-5.3-1.4-5.2-4-5.2S170.2,138.5,170.2,141.4Zm7.3-10.5-2.6,2.5h-2.1l1.9-2.5Z" style="fill: #112025"/>
        <path d="M183.1,148.5V134.2H186l3.7,6.1a30.7,30.7,0,0,1,2.4,4.8h.1a54.1,54.1,0,0,1-.3-5.9v-5h2.5v14.3h-2.7l-3.8-6.3c-.9-1.6-1.8-3.3-2.5-4.9h-.1c.1,1.8.2,3.7.2,6.1v5.1Z" style="fill: #112025"/>
      </g>
    </g>
    <g class="hoverable" onclick="showInstrument('financiacion', 'desarrollo', 'reajuste_de_tierras_y_cooperacion_entre_participantes');">
      <path d="M726,246.8l-236.9-39a358,358,0,0,0,4.9-59.4,373.8,373.8,0,0,0-11.1-89.9L715.6,0A609.3,609.3,0,0,1,734,148.4,611.3,611.3,0,0,1,726,246.8Z" style="fill: #d36caf"/>
      <g>
        <path d="M542.5,97.6a18.3,18.3,0,0,1,3.5-.3c2,0,3.2.3,4.1,1.1a3.6,3.6,0,0,1,1.2,2.7,3.8,3.8,0,0,1-2.6,3.6h0c1.1.3,1.7,1.3,2.1,2.8a27.3,27.3,0,0,0,1.1,3.9H550c-.2-.4-.5-1.6-1-3.4s-1.2-2.7-2.8-2.7h-1.8v6.2h-1.8Zm1.9,6.4h1.9c2,0,3.2-1.1,3.2-2.7s-1.4-2.6-3.3-2.6a6.2,6.2,0,0,0-1.8.2Z" style="fill: #fff"/>
        <path d="M555,106.7c.1,2.5,1.7,3.5,3.5,3.4a6.7,6.7,0,0,0,2.8-.5l.4,1.3a8.3,8.3,0,0,1-3.4.7c-3.1,0-5-2-5.1-5.1s1.8-5.5,4.7-5.5,4.3,2.8,4.3,4.7c0,.4-.1.7-.1.9Zm5.4-1.4c0-1.2-.5-3-2.6-3s-2.7,1.8-2.8,3Z" style="fill: #fff"/>
        <path d="M570.2,111.2l-.2-1.3h-.1a3.6,3.6,0,0,1-3,1.6,2.9,2.9,0,0,1-3.2-2.9c0-2.4,2.1-3.8,6.1-3.9v-.2a2.1,2.1,0,0,0-2.4-2.3,4.7,4.7,0,0,0-2.6.8l-.4-1.2a6.4,6.4,0,0,1,3.3-1c3.1,0,3.9,2.1,3.9,4.1v3.8a9.7,9.7,0,0,0,.2,2.5Zm-.4-5.2c-2,0-4.3.4-4.2,2.4a1.6,1.6,0,0,0,1.7,1.7,2.7,2.7,0,0,0,2.5-1.7c0-.2.1-.4.1-.6Z" style="fill: #fff"/>
        <path d="M572.2,114.1a2.8,2.8,0,0,0,2-.8c.5-.6.7-1.4.7-3.8V101h1.8v9.2c.1,1.9-.2,3.2-1.1,4.2a5.5,5.5,0,0,1-3.2,1.2Zm4.6-16a1.1,1.1,0,0,1-1.2,1.1,1,1,0,0,1-1.1-1.1,1.1,1.1,0,0,1,1.1-1.1A1,1,0,0,1,576.8,98.1Z" style="fill: #fff"/>
        <path d="M588.2,108.2c.1,1,.1,2,.2,2.7h-1.7v-1.7h-.1a3.9,3.9,0,0,1-3.3,2c-1.6,0-3.5-.9-3.6-4.4v-6h1.8v5.6c0,1.9.6,3.2,2.3,3.2a2.7,2.7,0,0,0,2.4-1.7,3,3,0,0,0,.2-1v-6.2h1.8Z" style="fill: #fff"/>
        <path d="M591.1,109a4.3,4.3,0,0,0,2.4.7c1.4,0,2-.7,2-1.5s-.6-1.4-2-1.9-2.7-1.6-2.7-2.8,1.3-3,3.5-3a4.6,4.6,0,0,1,2.5.6l-.5,1.3a3.4,3.4,0,0,0-2-.5c-1.1,0-1.7.6-1.7,1.4s.6,1.2,1.9,1.7,2.7,1.5,2.7,3-1.3,3.1-3.7,3.1a6.2,6.2,0,0,1-2.9-.7Z" style="fill: #fff"/>
        <path d="M601.7,97.7v2.9h2.7V102h-2.6v5.5c.1,1.2.4,2,1.4,1.9h1.1v1.4l-1.6.3a2.5,2.5,0,0,1-2-.8,3.3,3.3,0,0,1-.8-2.6V102h-1.6v-1.5h1.5V98.2Z" style="fill: #fff"/>
        <path d="M607.4,105.9a3.3,3.3,0,0,0,3.6,3.5,5.3,5.3,0,0,0,2.8-.6l.3,1.4a7.9,7.9,0,0,1-3.4.6c-3.1.1-5-1.9-5-5s1.7-5.5,4.7-5.6,4.2,2.9,4.2,4.8v.8Zm5.4-1.4c0-1.1-.5-3-2.6-2.9s-2.6,1.7-2.8,3Z" style="fill: #fff"/>
        <path d="M630,95.5l.2,12.2a22.6,22.6,0,0,0,.1,2.7h-1.6l-.2-1.8h0a3.8,3.8,0,0,1-3.4,2.1c-2.5,0-4.4-2.1-4.5-5.1s2-5.5,4.5-5.6a3.5,3.5,0,0,1,3.1,1.5h.1v-6Zm-1.7,8.9a1.9,1.9,0,0,0-.1-.8,2.7,2.7,0,0,0-2.7-2.1c-1.9,0-3,1.7-3,4s1.1,3.7,3.1,3.7a2.8,2.8,0,0,0,2.6-2.3,1.9,1.9,0,0,0,.1-.8Z" style="fill: #fff"/>
        <path d="M634.3,105.6a3.1,3.1,0,0,0,3.5,3.4,6.7,6.7,0,0,0,2.8-.5l.3,1.3a9.1,9.1,0,0,1-3.3.7,4.7,4.7,0,0,1-5.1-5.1c-.1-3,1.7-5.5,4.7-5.5s4.2,2.8,4.2,4.7v.9Zm5.4-1.4c0-1.2-.6-3-2.6-3s-2.7,1.8-2.8,3Z" style="fill: #fff"/>
        <path d="M650.3,97v2.9H653v1.4h-2.6v5.5c.1,1.3.4,2,1.5,2l1-.2V110a3.2,3.2,0,0,1-1.6.3,2.5,2.5,0,0,1-2-.8,4.2,4.2,0,0,1-.8-2.6v-5.6H647V100h1.5V97.5Z" style="fill: #fff"/>
        <path d="M657.1,97a1.1,1.1,0,0,1-1.2,1.1,1.1,1.1,0,0,1-1.1-1.1,1.1,1.1,0,0,1,1.1-1.2A1.2,1.2,0,0,1,657.1,97Zm-1.9,13V99.8h1.8l.2,10.2Z" style="fill: #fff"/>
        <path d="M661.1,105.2a3.3,3.3,0,0,0,3.5,3.5,8.4,8.4,0,0,0,2.8-.6l.4,1.3a8.3,8.3,0,0,1-3.4.7c-3.1,0-5-2-5.1-5.1s1.8-5.5,4.7-5.5,4.3,2.9,4.3,4.7-.1.7-.1.9Zm5.4-1.4c0-1.2-.5-3-2.6-3s-2.7,1.8-2.8,3.1Z" style="fill: #fff"/>
        <path d="M670.6,102.8c-.1-1.2-.1-2.2-.2-3.2H672v2h.1a3.3,3.3,0,0,1,2.8-2.3h.5v1.7h-.6a2.5,2.5,0,0,0-2.4,2.4,2.2,2.2,0,0,0-.1.9v5.4h-1.9Z" style="fill: #fff"/>
        <path d="M677.5,102.7c0-1.2-.1-2.2-.1-3.2H679v2h.1a3.1,3.1,0,0,1,2.7-2.3h.6V101h-.6a2.7,2.7,0,0,0-2.5,2.4c0,.2-.1.5-.1.9v5.4h-1.8Z" style="fill: #fff"/>
        <path d="M690,109.5l-.2-1.3h0a3.7,3.7,0,0,1-3.1,1.6,2.9,2.9,0,0,1-3.2-2.9c0-2.4,2.2-3.8,6.1-3.8v-.2a2.2,2.2,0,0,0-2.4-2.4,5.7,5.7,0,0,0-2.6.8l-.4-1.2a6.4,6.4,0,0,1,3.3-.9c3.1-.1,3.9,2,3.9,4.1v3.8a9.3,9.3,0,0,0,.2,2.4Zm-.4-5.2c-2,0-4.3.4-4.2,2.4a1.6,1.6,0,0,0,1.7,1.7,2.5,2.5,0,0,0,2.5-1.7c0-.2.1-.4.1-.6Z" style="fill: #fff"/>
        <path d="M694.2,107.6a5.6,5.6,0,0,0,2.4.7c1.4,0,2-.7,2-1.6s-.5-1.3-1.9-1.8-2.7-1.6-2.7-2.8,1.2-3,3.4-3.1a5.4,5.4,0,0,1,2.5.6l-.4,1.4a3.7,3.7,0,0,0-2.1-.6,1.5,1.5,0,0,0-1.7,1.4c0,.9.6,1.2,2,1.7s2.7,1.5,2.7,3-1.4,3.1-3.8,3.1a4.9,4.9,0,0,1-2.8-.6Z" style="fill: #fff"/>
        <path d="M543.5,126.6l2.3,6c.3.7.5,1.5.7,2.1h.1a10.4,10.4,0,0,1,.6-2.2l1.9-6h2l-2.7,7.3c-1.3,3.5-2.2,5.3-3.4,6.4a5.4,5.4,0,0,1-2.2,1.2l-.5-1.5,1.6-.9a6,6,0,0,0,1.5-2.1,1.1,1.1,0,0,0,.1-.5.8.8,0,0,0-.1-.4l-3.9-9.4Z" style="fill: #fff"/>
        <path d="M564.6,136.1a6.3,6.3,0,0,1-2.9.6c-3.1.1-5.1-2-5.2-5.1a5.3,5.3,0,0,1,5.4-5.5,7.4,7.4,0,0,1,2.6.5l-.4,1.5a4.2,4.2,0,0,0-2.2-.5,3.6,3.6,0,0,0-3.5,3.9,3.5,3.5,0,0,0,3.6,3.8,5.3,5.3,0,0,0,2.2-.6Z" style="fill: #fff"/>
        <path d="M575.7,131.2a4.9,4.9,0,0,1-4.9,5.4c-2.8.1-4.9-1.9-5-5.1s2.2-5.5,5-5.5S575.7,128.1,575.7,131.2Zm-8,.2c0,2.2,1.3,3.9,3.1,3.8s3.1-1.7,3.1-3.9-1-3.9-3.1-3.9S567.7,129.4,567.7,131.4Z" style="fill: #fff"/>
        <path d="M587.3,131a5.1,5.1,0,0,1-5,5.5c-2.8,0-4.9-2-5-5.2s2.2-5.4,5-5.5S587.2,127.9,587.3,131Zm-8.1.2c0,2.2,1.3,3.9,3.2,3.9s3-1.7,3-4-.9-3.9-3.1-3.9S579.2,129.3,579.2,131.2Z" style="fill: #fff"/>
        <path d="M589.6,129.3c0-1.3-.1-2.4-.1-3.3h1.6v1.8h.1a3.7,3.7,0,0,1,3.5-2c2.5-.1,4.4,2,4.4,5.1s-2.1,5.5-4.5,5.5a3.8,3.8,0,0,1-3.2-1.6h0v5.6h-1.9Zm1.8,2.7a1.7,1.7,0,0,1,.1.7,2.8,2.8,0,0,0,2.8,2.1c2,0,3.1-1.6,3.1-3.9s-1.1-3.8-3.1-3.8a3.2,3.2,0,0,0-2.8,2.4c0,.2-.1.5-.1.7Z" style="fill: #fff"/>
        <path d="M602.6,131.2a3.3,3.3,0,0,0,3.5,3.5,6.5,6.5,0,0,0,2.8-.6l.4,1.3a8.3,8.3,0,0,1-3.4.7c-3.1.1-5-2-5.1-5s1.8-5.5,4.7-5.6,4.3,2.9,4.3,4.7-.1.7-.1.9Zm5.4-1.4c0-1.2-.5-3-2.6-3a3.1,3.1,0,0,0-2.8,3.1Z" style="fill: #fff"/>
        <path d="M612,128.8a29.1,29.1,0,0,0-.1-3.1h1.6v2h.1a3.2,3.2,0,0,1,2.8-2.2h.5v1.8h-.6a2.5,2.5,0,0,0-2.4,2.4,2.8,2.8,0,0,0-.1.9v5.4h-1.9Z" style="fill: #fff"/>
        <path d="M624.5,135.6v-1.2h-.1a3.7,3.7,0,0,1-3.1,1.5,2.9,2.9,0,0,1-3.1-2.9c-.1-2.4,2.1-3.8,6-3.8V129c0-.9-.2-2.4-2.3-2.3a6,6,0,0,0-2.7.7l-.4-1.2a6.7,6.7,0,0,1,3.3-.9c3.1-.1,3.9,2.1,4,4.1v3.8a16.6,16.6,0,0,0,.2,2.4Zm-.3-5.1c-2-.1-4.3.3-4.3,2.3a1.6,1.6,0,0,0,1.8,1.7,2.4,2.4,0,0,0,2.4-1.7,1.3,1.3,0,0,0,.1-.6Z" style="fill: #fff"/>
        <path d="M636.3,135.1a6.3,6.3,0,0,1-2.9.6c-3.1.1-5.1-2-5.2-5.1a5.3,5.3,0,0,1,5.4-5.5,7.4,7.4,0,0,1,2.6.5l-.4,1.5a4.2,4.2,0,0,0-2.2-.5c-2.3,0-3.5,1.8-3.5,3.9a3.5,3.5,0,0,0,3.6,3.8,5.3,5.3,0,0,0,2.2-.6Z" style="fill: #fff"/>
        <path d="M640.3,122.4a1.2,1.2,0,0,1-1.1,1.2,1.2,1.2,0,0,1-1.2-1.2,1.1,1.1,0,0,1,1.2-1.1A1,1,0,0,1,640.3,122.4Zm-1.9,13V125.3h1.8l.2,10.1Z" style="fill: #fff"/>
        <path d="M652.5,130.1a5.1,5.1,0,0,1-5,5.5c-2.8,0-4.9-2-5-5.2s2.2-5.4,5-5.5S652.4,127,652.5,130.1Zm-8.1.2c0,2.2,1.3,3.9,3.2,3.9s3-1.7,3-4-.9-3.9-3.1-3.9S644.4,128.4,644.4,130.3Zm5.7-9.6-2.5,3.1h-1.3l1.8-3Z" style="fill: #fff"/>
        <path d="M654.8,127.8a21.3,21.3,0,0,0-.2-2.7h1.7v1.7h.1a3.4,3.4,0,0,1,3.3-1.9c1.4-.1,3.6.7,3.6,4.2v6.1h-1.8v-5.8c0-1.7-.7-3-2.4-3a2.6,2.6,0,0,0-2.4,1.9,2.9,2.9,0,0,0-.2.9v6.1h-1.8Z" style="fill: #fff"/>
        <path d="M544.3,157.2a3.3,3.3,0,0,0,3.6,3.5,6.5,6.5,0,0,0,2.8-.6l.3,1.4a8.6,8.6,0,0,1-3.4.6c-3.1.1-5-2-5-5s1.7-5.5,4.6-5.6,4.3,2.9,4.3,4.8v.8Zm5.4-1.4c0-1.1-.5-3-2.6-2.9a3,3,0,0,0-2.8,3Z" style="fill: #fff"/>
        <path d="M553.8,154.4a21.3,21.3,0,0,0-.2-2.7h1.7v1.6h.1a3.6,3.6,0,0,1,3.3-1.9c1.4,0,3.6.8,3.6,4.2v6.1h-1.8v-5.8c0-1.7-.7-3-2.4-3a2.7,2.7,0,0,0-2.5,1.9c0,.3-.1.6-.1.9v6.1h-1.8Z" style="fill: #fff"/>
        <path d="M567.5,148.6v2.9h2.7v1.5h-2.7v5.5c0,1.2.4,1.9,1.4,1.9h1.1v1.4l-1.6.2a2.2,2.2,0,0,1-2-.7,3.3,3.3,0,0,1-.8-2.6v-5.6h-1.5v-1.4h1.6v-2.4Z" style="fill: #fff"/>
        <path d="M572.3,154.6c0-1.2-.1-2.2-.1-3.2h1.6v2h.1a2.9,2.9,0,0,1,2.7-2.3h.6v1.7h-.6a2.6,2.6,0,0,0-2.5,2.4c0,.2-.1.5-.1.8v5.5h-1.8Z" style="fill: #fff"/>
        <path d="M580,156.7a3.3,3.3,0,0,0,3.5,3.5,6.6,6.6,0,0,0,2.9-.6l.3,1.4a8.6,8.6,0,0,1-3.4.6c-3.1.1-5-2-5.1-5s1.8-5.5,4.7-5.6,4.3,2.9,4.3,4.8a1.9,1.9,0,0,1-.1.8Zm5.4-1.4c0-1.2-.5-3-2.6-2.9a3,3,0,0,0-2.8,3Z" style="fill: #fff"/>
        <path d="M593.9,154.4c0-1.3-.1-2.3-.1-3.3h1.7v1.7h0a4,4,0,0,1,3.6-2c2.4,0,4.3,2,4.4,5.1s-2.2,5.5-4.6,5.5a3.3,3.3,0,0,1-3.1-1.5h-.1v5.5h-1.8Zm1.9,2.7a2.2,2.2,0,0,0,.1.8,2.9,2.9,0,0,0,2.8,2.1c1.9,0,3-1.6,3-4s-1.1-3.7-3.1-3.7a2.8,2.8,0,0,0-2.7,2.3,1.9,1.9,0,0,0-.1.8Z" style="fill: #fff"/>
        <path d="M611.6,161l-.2-1.3h0a3.7,3.7,0,0,1-3.1,1.6,3,3,0,0,1-3.2-2.9c0-2.4,2.2-3.8,6.1-3.8v-.2a2.2,2.2,0,0,0-2.4-2.4,5.7,5.7,0,0,0-2.6.8l-.4-1.2a6.4,6.4,0,0,1,3.3-.9c3.1-.1,3.9,2,3.9,4.1v3.8a9,9,0,0,0,.2,2.4Zm-.4-5.2c-2,0-4.3.4-4.2,2.4a1.6,1.6,0,0,0,1.7,1.7,2.5,2.5,0,0,0,2.5-1.7c0-.2.1-.4.1-.6Z" style="fill: #fff"/>
        <path d="M616,154c0-1.2-.1-2.3-.1-3.2h1.6v2h.1a2.9,2.9,0,0,1,2.7-2.3h.6v1.7c-.2,0-.4-.1-.6,0a2.6,2.6,0,0,0-2.5,2.4c0,.2-.1.5-.1.8v5.4h-1.8Z" style="fill: #fff"/>
        <path d="M625.5,147.8v2.9h2.7V152h-2.6v5.5c.1,1.2.4,1.9,1.5,1.9h1v1.4l-1.6.2a2.4,2.4,0,0,1-2-.7,4.8,4.8,0,0,1-.8-2.7v-5.5h-1.6v-1.4h1.5v-2.4Z" style="fill: #fff"/>
        <path d="M634,146.2l-2.6,3h-1.3l1.8-3Zm-3.6,14.6V150.6h1.8l.2,10.1Z" style="fill: #fff"/>
        <path d="M642.6,160.2a6.5,6.5,0,0,1-3,.6c-3,.1-5-2-5.1-5.1a5.1,5.1,0,0,1,5.4-5.4,5.9,5.9,0,0,1,2.6.4l-.4,1.5a4.2,4.2,0,0,0-2.2-.5,3.6,3.6,0,0,0-3.5,3.9,3.5,3.5,0,0,0,3.6,3.8,4.1,4.1,0,0,0,2.2-.6Z" style="fill: #fff"/>
        <path d="M646.6,147.5a1.2,1.2,0,0,1-1.2,1.2,1.2,1.2,0,1,1,.1-2.3A1.1,1.1,0,0,1,646.6,147.5Zm-1.9,13.1V150.4h1.8l.2,10.1Z" style="fill: #fff"/>
        <path d="M649.5,153.6c0-1.3,0-2.3-.1-3.3h1.7v1.8h0a4.3,4.3,0,0,1,3.6-2.1c2.5,0,4.3,2,4.4,5.1s-2.2,5.5-4.6,5.6a3.6,3.6,0,0,1-3.1-1.6h0v5.5h-1.8Zm1.9,2.7c0,.3.1.6.1.8a2.9,2.9,0,0,0,2.8,2.1c2,0,3.1-1.6,3-4s-1.1-3.7-3-3.7a2.9,2.9,0,0,0-2.8,2.3,2.2,2.2,0,0,0-.1.8Z" style="fill: #fff"/>
        <path d="M662.6,155.6a3.1,3.1,0,0,0,3.5,3.4,6.7,6.7,0,0,0,2.8-.5l.3,1.3a7.4,7.4,0,0,1-3.3.7,4.7,4.7,0,0,1-5.1-5.1c-.1-3,1.7-5.5,4.7-5.5s4.2,2.8,4.2,4.7v.9Zm5.4-1.4a2.7,2.7,0,0,0-2.7-3c-1.8,0-2.6,1.8-2.7,3Z" style="fill: #fff"/>
        <path d="M671.8,158.3a6.1,6.1,0,0,0,2.5.7c1.3,0,1.9-.7,1.9-1.5s-.5-1.4-1.9-1.9-2.7-1.6-2.7-2.8,1.3-3,3.5-3.1a5.7,5.7,0,0,1,2.5.6l-.5,1.4a3.5,3.5,0,0,0-2.1-.6,1.5,1.5,0,0,0-1.7,1.4c.1.9.7,1.2,2,1.7s2.7,1.5,2.7,3.1-1.3,3-3.7,3.1a5.9,5.9,0,0,1-2.9-.7Z" style="fill: #fff"/>
      </g>
    </g>
  </g>
</svg>
