<svg class="animate__animated" xmlns="http://www.w3.org/2000/svg" viewBox="0 0 734 277.3">
  <g id="Capa_2" data-name="Capa 2">
    <g id="Capa_1-2" data-name="Capa 1">
      <g class="hoverable" onclick="returnToTypesInstrument(); changeImage('financiacion/F_Herramienta_Segundo_Plano');">
        <path d="M453.3,197.7,281.7,171.6a156.9,156.9,0,0,0,1.8-23.8,155,155,0,0,0-4.8-38.5L446.9,66.5a327,327,0,0,1,10.2,81.3A332.3,332.3,0,0,1,453.3,197.7Z" style="fill: #37276e"/>
        <path d="M444.8,196.5,277.7,171.1a148.7,148.7,0,0,0,1.7-23.1,152.4,152.4,0,0,0-4.6-37.6L438.6,68.8a323.6,323.6,0,0,1,9.8,79.2A327.8,327.8,0,0,1,444.8,196.5Z" style="fill: #e27aaf"/>
        <g>
          <path d="M316.7,131.4a8.5,8.5,0,0,1-3.8.7c-4,0-7-2.5-7-7.1s3-7.5,7.4-7.5a6.8,6.8,0,0,1,3.4.7l-.5,1.4a7,7,0,0,0-2.8-.5c-3.3,0-5.5,2.1-5.5,5.8s1.9,5.7,5.4,5.7a8.9,8.9,0,0,0,3-.6Z" style="fill: #fff"/>
          <path d="M318.8,124.9c0-1.2,0-2.2-.1-3.2h1.6v2h.1a3.2,3.2,0,0,1,2.8-2.2h.5v1.7h-.6a2.6,2.6,0,0,0-2.5,2.3c0,.3-.1.6-.1.9v5.4h-1.8Z" style="fill: #fff"/>
          <path d="M326.5,127.2a3.2,3.2,0,0,0,3.5,3.5,6.7,6.7,0,0,0,2.8-.5l.3,1.3a7.9,7.9,0,0,1-3.4.6c-3.1,0-5-2-5-5.1s1.8-5.5,4.8-5.5,4.2,2.9,4.2,4.8a2.2,2.2,0,0,1-.1.9Zm5.4-1.4c0-1.1-.5-3-2.5-3s-2.7,1.8-2.9,3Zm.5-8.4-2.6,3h-1.3l1.8-3Z" style="fill: #fff"/>
          <path d="M344.8,117v12.3a20.9,20.9,0,0,0,.1,2.6h-1.7v-1.8h0a3.7,3.7,0,0,1-3.5,2c-2.5,0-4.3-2-4.3-5.1s2-5.5,4.5-5.5a3.3,3.3,0,0,1,3.1,1.6h0V117Zm-1.9,8.9a1.9,1.9,0,0,0-.1-.8,2.5,2.5,0,0,0-2.6-2.1c-1.9,0-3.1,1.6-3.1,3.9s1,3.7,3,3.7a2.7,2.7,0,0,0,2.7-2.2,1.9,1.9,0,0,0,.1-.8Z" style="fill: #fff"/>
          <path d="M349.9,118.9a1.1,1.1,0,0,1-1.2,1.1,1.1,1.1,0,0,1-1.1-1.1,1.2,1.2,0,0,1,1.2-1.2A1.1,1.1,0,0,1,349.9,118.9Zm-2.1,13V121.7h1.9v10.2Z" style="fill: #fff"/>
          <path d="M355,118.8v2.9h2.6v1.4H355v5.5c0,1.3.3,2,1.4,2h1v1.4l-1.6.2a2.5,2.5,0,0,1-2-.8,3.7,3.7,0,0,1-.7-2.6v-5.6h-1.6v-1.4h1.6v-2.4Z" style="fill: #fff"/>
          <path d="M368.8,126.7c0,3.8-2.6,5.4-5.1,5.4a4.9,4.9,0,0,1-4.9-5.2,5,5,0,0,1,5.1-5.4C366.8,121.5,368.8,123.6,368.8,126.7Zm-8.1.1c0,2.3,1.3,3.9,3.1,3.9s3.1-1.6,3.1-3.9-.9-3.9-3.1-3.9S360.7,124.9,360.7,126.8Z" style="fill: #fff"/>
          <path d="M370.9,130a4.3,4.3,0,0,0,2.4.7c1.3,0,2-.6,2-1.5s-.6-1.3-1.9-1.8-2.7-1.7-2.7-2.9,1.3-3,3.5-3a5.7,5.7,0,0,1,2.5.6l-.5,1.4a3.4,3.4,0,0,0-2-.6c-1.1,0-1.7.6-1.7,1.4s.6,1.2,1.9,1.7,2.6,1.6,2.6,3.1-1.3,3-3.8,3a5.8,5.8,0,0,1-2.8-.7Z" style="fill: #fff"/>
          <path d="M311.1,157.1c0-.7.1-1.7.1-2.6V142.2H313v6.4h0a3.7,3.7,0,0,1,3.5-1.9c2.5,0,4.3,2.1,4.3,5.2s-2.3,5.4-4.6,5.4a3.5,3.5,0,0,1-3.4-1.9h-.1v1.7ZM313,153a1.5,1.5,0,0,0,.1.7,2.8,2.8,0,0,0,2.7,2.2c2,0,3.1-1.6,3.1-3.9s-1-3.8-3-3.8a2.9,2.9,0,0,0-2.8,2.2,2.2,2.2,0,0,0-.1.8Z" style="fill: #fff"/>
          <path d="M323.1,142.2h1.8v14.9h-1.8Z" style="fill: #fff"/>
          <path d="M333.7,157.1l-.2-1.3h0a3.9,3.9,0,0,1-3.1,1.5,2.8,2.8,0,0,1-3.1-2.9c0-2.4,2.1-3.8,6.1-3.8v-.2a2.1,2.1,0,0,0-2.3-2.3,5.7,5.7,0,0,0-2.7.7l-.4-1.2a6.7,6.7,0,0,1,3.3-.9c3.1,0,3.9,2.1,3.9,4.2v3.8a9.3,9.3,0,0,0,.2,2.4Zm-.3-5.2c-2,0-4.3.3-4.3,2.3a1.7,1.7,0,0,0,1.7,1.8,2.6,2.6,0,0,0,2.5-1.7,1.3,1.3,0,0,0,.1-.6Z" style="fill: #fff"/>
          <path d="M338.2,149.7a24.4,24.4,0,0,0-.1-2.8h1.6v1.7h.1a3.9,3.9,0,0,1,3.3-1.9c1.4,0,3.6.8,3.6,4.3v6.1H345v-5.9c0-1.6-.6-3-2.4-3a2.6,2.6,0,0,0-2.4,1.9,2.9,2.9,0,0,0-.2.9v6.1h-1.8Z" style="fill: #fff"/>
          <path d="M358.6,142.2v12.3a20.9,20.9,0,0,0,.1,2.6H357v-1.8h-.1a3.7,3.7,0,0,1-3.5,2c-2.4,0-4.3-2-4.3-5.1s2.1-5.5,4.6-5.5a3.1,3.1,0,0,1,3,1.6h.1v-6.1Zm-1.8,8.9c0-.3-.1-.6-.1-.8a2.7,2.7,0,0,0-2.7-2.1c-1.9,0-3,1.6-3,3.9s1,3.7,3,3.7a2.8,2.8,0,0,0,2.7-2.2c0-.2.1-.5.1-.8Z" style="fill: #fff"/>
          <path d="M370.9,151.9c0,3.8-2.6,5.4-5.1,5.4a4.9,4.9,0,0,1-4.9-5.2,5,5,0,0,1,5.1-5.4C368.9,146.7,370.9,148.8,370.9,151.9Zm-8.1.1c0,2.3,1.3,3.9,3.1,3.9s3.1-1.6,3.1-3.9-.9-3.9-3.1-3.9S362.8,150.1,362.8,152Z" style="fill: #fff"/>
          <path d="M373,155.2a4.3,4.3,0,0,0,2.4.7c1.3,0,2-.6,2-1.5s-.6-1.3-1.9-1.8-2.7-1.7-2.7-2.9,1.3-3,3.5-3a5.7,5.7,0,0,1,2.5.6l-.5,1.4a3.4,3.4,0,0,0-2-.6c-1.1,0-1.7.6-1.7,1.4s.6,1.2,1.9,1.7,2.6,1.6,2.6,3.1-1.3,3-3.8,3a5.8,5.8,0,0,1-2.8-.7Z" style="fill: #fff"/>
        </g>
      </g>
      <g class="hoverable" onclick="showInstrument('financiacion', 'creditos_blandos', 'creditos_blandos');">
        <path d="M726,246.8l-236.9-39a358,358,0,0,0,4.9-59.4,373.8,373.8,0,0,0-11.1-89.9L715.6,0A609.3,609.3,0,0,1,734,148.4,611.3,611.3,0,0,1,726,246.8Z" style="fill: #e27aaf"/>
        <g>
          <path d="M584.6,132.4a7.7,7.7,0,0,1-3.7.7c-4,0-7-2.5-7-7.1s3-7.5,7.4-7.5a6.4,6.4,0,0,1,3.3.7l-.4,1.4a7.6,7.6,0,0,0-2.9-.5c-3.3,0-5.5,2.1-5.5,5.8s2,5.7,5.5,5.7a7.8,7.8,0,0,0,2.9-.6Z" style="fill: #fff"/>
          <path d="M586.8,125.9c0-1.2,0-2.2-.1-3.2h1.6v2h.1a3,3,0,0,1,2.8-2.2h.5v1.7h-.6a2.6,2.6,0,0,0-2.5,2.3c0,.3-.1.6-.1.9v5.4h-1.8Z" style="fill: #fff"/>
          <path d="M594.5,128.2a3.2,3.2,0,0,0,3.5,3.5,6.7,6.7,0,0,0,2.8-.5l.3,1.3a8.6,8.6,0,0,1-3.4.6c-3.1,0-5-2-5-5.1s1.8-5.5,4.8-5.5,4.2,2.9,4.2,4.8-.1.7-.1.9Zm5.4-1.4c0-1.1-.5-3-2.6-3s-2.7,1.8-2.8,3Zm.4-8.4-2.5,3h-1.4l1.9-3Z" style="fill: #fff"/>
          <path d="M612.7,118v12.3c0,.9.1,1.9.1,2.6h-1.6v-1.8H611a3.5,3.5,0,0,1-3.4,2c-2.5,0-4.4-2-4.4-5.1s2.1-5.5,4.6-5.5a3.4,3.4,0,0,1,3.1,1.6h0V118Zm-1.8,8.9a1.9,1.9,0,0,0-.1-.8,2.7,2.7,0,0,0-2.7-2.1c-1.9,0-3,1.6-3,3.9s1,3.7,3,3.7a2.8,2.8,0,0,0,2.7-2.2,1.9,1.9,0,0,0,.1-.8Z" style="fill: #fff"/>
          <path d="M617.9,119.9a1.1,1.1,0,0,1-1.2,1.1,1,1,0,0,1-1.1-1.1,1.1,1.1,0,0,1,1.1-1.2A1.2,1.2,0,0,1,617.9,119.9Zm-2.1,13V122.7h1.9v10.2Z" style="fill: #fff"/>
          <path d="M623,119.8v2.9h2.6v1.4H623v5.5c0,1.3.3,2,1.3,2h1.1v1.4l-1.6.2a2.5,2.5,0,0,1-2-.8,3.3,3.3,0,0,1-.8-2.6v-5.6h-1.5v-1.4h1.5v-2.4Z" style="fill: #fff"/>
          <path d="M636.7,127.7c0,3.8-2.6,5.4-5,5.4s-4.9-2-4.9-5.2,2.2-5.4,5.1-5.4S636.7,124.6,636.7,127.7Zm-8,.1c0,2.3,1.3,3.9,3.1,3.9s3.1-1.6,3.1-3.9-.9-3.9-3.1-3.9S628.7,125.9,628.7,127.8Z" style="fill: #fff"/>
          <path d="M638.8,131a4.6,4.6,0,0,0,2.5.7c1.3,0,1.9-.6,1.9-1.5s-.5-1.3-1.9-1.8-2.6-1.7-2.6-2.9,1.3-3,3.5-3a5.7,5.7,0,0,1,2.5.6l-.5,1.4a3.5,3.5,0,0,0-2.1-.6c-1.1,0-1.7.6-1.7,1.4s.6,1.2,2,1.7,2.6,1.6,2.6,3.1-1.4,3-3.8,3a5.8,5.8,0,0,1-2.8-.7Z" style="fill: #fff"/>
          <path d="M578,158.1c0-.7.1-1.7.1-2.6V143.2h1.8v6.4h0a3.8,3.8,0,0,1,3.5-1.9c2.5,0,4.3,2.1,4.3,5.2s-2.3,5.4-4.6,5.4a3.6,3.6,0,0,1-3.4-1.9h0v1.7Zm1.9-4.1a1.5,1.5,0,0,0,.1.7,2.8,2.8,0,0,0,2.8,2.2c1.9,0,3-1.6,3-3.9s-1-3.8-3-3.8a2.9,2.9,0,0,0-2.8,2.2c0,.3-.1.5-.1.8Z" style="fill: #fff"/>
          <path d="M590,143.2h1.9v14.9H590Z" style="fill: #fff"/>
          <path d="M600.6,158.1v-1.3h-.1a3.9,3.9,0,0,1-3.1,1.5,2.8,2.8,0,0,1-3.1-2.9c0-2.4,2.2-3.8,6.1-3.8v-.2a2.1,2.1,0,0,0-2.3-2.3,5.7,5.7,0,0,0-2.7.7l-.4-1.2a7.1,7.1,0,0,1,3.4-.9c3.1,0,3.8,2.1,3.8,4.2v3.8a17.9,17.9,0,0,0,.2,2.4Zm-.3-5.2c-2,0-4.3.3-4.3,2.3a1.7,1.7,0,0,0,1.8,1.8,2.6,2.6,0,0,0,2.4-1.7,1.3,1.3,0,0,0,.1-.6Z" style="fill: #fff"/>
          <path d="M605.1,150.7a24.4,24.4,0,0,0-.1-2.8h1.7v1.7h0a3.9,3.9,0,0,1,3.4-1.9c1.4,0,3.6.8,3.6,4.3v6.1h-1.9v-5.9c0-1.6-.6-3-2.3-3a2.6,2.6,0,0,0-2.5,1.9,2.9,2.9,0,0,0-.2.9v6.1h-1.8Z" style="fill: #fff"/>
          <path d="M625.5,143.2v12.3c0,.9.1,1.9.1,2.6H624v-1.8h-.1a3.5,3.5,0,0,1-3.4,2c-2.5,0-4.4-2-4.4-5.1s2.1-5.5,4.6-5.5a3.1,3.1,0,0,1,3,1.6h.1v-6.1Zm-1.8,8.9a1.9,1.9,0,0,0-.1-.8,2.7,2.7,0,0,0-2.7-2.1c-1.9,0-3,1.6-3,3.9s1,3.7,3,3.7a2.8,2.8,0,0,0,2.7-2.2,1.9,1.9,0,0,0,.1-.8Z" style="fill: #fff"/>
          <path d="M637.8,152.9c0,3.8-2.6,5.4-5.1,5.4s-4.8-2-4.8-5.2,2.2-5.4,5-5.4S637.8,149.8,637.8,152.9Zm-8.1.1c0,2.3,1.3,3.9,3.1,3.9s3.1-1.6,3.1-3.9-.9-3.9-3-3.9S629.7,151.1,629.7,153Z" style="fill: #fff"/>
          <path d="M639.9,156.2a4.3,4.3,0,0,0,2.4.7c1.4,0,2-.6,2-1.5s-.5-1.3-1.9-1.8-2.7-1.7-2.7-2.9,1.3-3,3.5-3a5.7,5.7,0,0,1,2.5.6l-.4,1.4a3.7,3.7,0,0,0-2.1-.6c-1.1,0-1.7.6-1.7,1.4s.6,1.2,1.9,1.7,2.7,1.6,2.7,3.1-1.4,3-3.8,3a6.2,6.2,0,0,1-2.9-.7Z" style="fill: #fff"/>
        </g>
      </g>
      <g class="hoverable" onclick="returnToGroups(); changeImage('rueda');">
        <circle cx="127.5" cy="149.8" r="127" style="fill: none;stroke: #aab8bd;stroke-miterlimit: 10"/>
        <circle cx="127.7" cy="148" r="105" style="fill: #bdc4c6"/>
        <g>
          <path d="M60.6,134.2h8.3v2.1H63.2v4h5.3v2.1H63.2v6.1H60.6Z" style="fill: #112025"/>
          <path d="M74,134.2v14.3H71.4V134.2Z" style="fill: #112025"/>
          <path d="M77,148.5V134.2h3l3.6,6.1a44.4,44.4,0,0,1,2.5,4.8h0a55.3,55.3,0,0,1-.2-5.9v-5h2.4v14.3H85.6l-3.7-6.3c-.9-1.6-1.9-3.3-2.6-4.9h0c.1,1.8.1,3.7.1,6.1v5.1Z" style="fill: #112025"/>
          <path d="M94.2,144.4l-1.3,4.1H90.2l4.6-14.3h3.3l4.7,14.3H100l-1.3-4.1Zm4-1.9-1.1-3.6a25,25,0,0,1-.7-2.6h0a25,25,0,0,0-.7,2.6l-1.1,3.6Z" style="fill: #112025"/>
          <path d="M104.8,148.5V134.2h2.9l3.7,6.1a30.7,30.7,0,0,1,2.4,4.8h.1a55.3,55.3,0,0,1-.2-5.9v-5h2.4v14.3h-2.7l-3.7-6.3a38.7,38.7,0,0,1-2.6-4.9H107c.1,1.8.2,3.7.2,6.1v5.1Z" style="fill: #112025"/>
          <path d="M129.3,148a7.7,7.7,0,0,1-3.7.7c-4.5,0-7.3-2.9-7.3-7.2s3.3-7.5,7.7-7.5a7.5,7.5,0,0,1,3.4.6l-.5,2.1a7.3,7.3,0,0,0-2.8-.6c-2.9,0-5,1.8-5,5.3s1.8,5.1,4.9,5.1a7.9,7.9,0,0,0,2.9-.5Z" style="fill: #112025"/>
          <path d="M134.1,134.2v14.3h-2.6V134.2Z" style="fill: #112025"/>
          <path d="M140,144.4l-1.3,4.1H136l4.6-14.3h3.3l4.7,14.3h-2.8l-1.3-4.1Zm4-1.9-1.1-3.6-.7-2.6h0l-.7,2.6-1.1,3.6Z" style="fill: #112025"/>
          <path d="M160.3,148a7.2,7.2,0,0,1-3.6.7c-4.6,0-7.3-2.9-7.3-7.2s3.2-7.5,7.6-7.5a8.4,8.4,0,0,1,3.5.6l-.6,2.1a6.9,6.9,0,0,0-2.8-.6c-2.9,0-5,1.8-5,5.3s1.9,5.1,5,5.1a7.8,7.8,0,0,0,2.8-.5Z" style="fill: #112025"/>
          <path d="M165.2,134.2v14.3h-2.6V134.2Z" style="fill: #112025"/>
          <path d="M180.8,141.2c0,4.8-2.9,7.5-6.8,7.5s-6.6-3.1-6.6-7.3,2.8-7.4,6.8-7.4S180.8,137.1,180.8,141.2Zm-10.6.2c0,2.9,1.4,5.2,3.9,5.2s4-2.3,4-5.3-1.4-5.2-4-5.2S170.2,138.5,170.2,141.4Zm7.3-10.5-2.6,2.5h-2.1l1.9-2.5Z" style="fill: #112025"/>
          <path d="M183.1,148.5V134.2H186l3.7,6.1a30.7,30.7,0,0,1,2.4,4.8h.1a54.1,54.1,0,0,1-.3-5.9v-5h2.5v14.3h-2.7l-3.8-6.3c-.9-1.6-1.8-3.3-2.5-4.9h-.1c.1,1.8.2,3.7.2,6.1v5.1Z" style="fill: #112025"/>
        </g>
      </g>
    </g>
  </g>
</svg>
