<svg class="animate__animated" xmlns="http://www.w3.org/2000/svg" viewBox="0 0 734.1 370.9">
  <g id="Capa_2" data-name="Capa 2">
    <g id="Capa_1-2" data-name="Capa 1">
      <g class="hoverable" onclick="returnToTypesInstrument(); changeImage('financiacion/F_Herramienta_Segundo_Plano');">
        <path d="M447.3,293.7,279.5,239.5a156.5,156.5,0,0,0,7.7-48.7,159.8,159.8,0,0,0-8.7-52L445,80.9a333.3,333.3,0,0,1,18.5,109.9A331.9,331.9,0,0,1,447.3,293.7Z" style="fill: #3f3793"/>
        <path d="M433,289.5,272.1,237.6a150,150,0,0,0,7.3-46.7,152.2,152.2,0,0,0-8.3-49.8L430.7,85.6a318.5,318.5,0,0,1,17.7,105.3A322.5,322.5,0,0,1,433,289.5Z" style="fill: #d36caf"/>
        <g>
          <path d="M298,164.9a27.2,27.2,0,0,1,4.3-.3c3,0,5.1.7,6.5,2a7.3,7.3,0,0,1,2.2,5.7,8.5,8.5,0,0,1-2.3,6.2c-1.4,1.5-3.9,2.3-7,2.3l-3.7-.2Zm2,14.1h2.1c4.4,0,6.8-2.4,6.8-6.7s-2.1-6.2-6.5-6.2l-2.4.2Z" style="fill: #fff"/>
          <path d="M314.4,175.3a3.8,3.8,0,0,0,4,4,8.1,8.1,0,0,0,3.1-.6l.4,1.5a10.2,10.2,0,0,1-3.8.7c-3.6,0-5.7-2.3-5.7-5.8s2.1-6.2,5.4-6.2,4.7,3.3,4.7,5.4v1Zm6.1-1.5a2.9,2.9,0,0,0-2.9-3.4c-2.1,0-3,2-3.1,3.4Z" style="fill: #fff"/>
          <path d="M324.4,178.5a5.4,5.4,0,0,0,2.7.8c1.5,0,2.2-.7,2.2-1.7s-.6-1.5-2.1-2.1-3-1.8-3-3.2,1.5-3.4,3.9-3.4a6.3,6.3,0,0,1,2.8.7l-.5,1.6a4.2,4.2,0,0,0-2.3-.7c-1.3,0-1.9.7-1.9,1.6s.6,1.3,2.1,1.9,3,1.7,3,3.5-1.5,3.4-4.2,3.4a6.4,6.4,0,0,1-3.3-.8Z" style="fill: #fff"/>
          <path d="M339.9,180.6l-.2-1.4h-.1a4.1,4.1,0,0,1-3.5,1.7,3.3,3.3,0,0,1-3.5-3.3c0-2.8,2.5-4.3,6.9-4.2v-.3a2.3,2.3,0,0,0-2.6-2.6,6.4,6.4,0,0,0-3,.8l-.4-1.3a6.2,6.2,0,0,1,3.7-1.1c3.5,0,4.4,2.4,4.4,4.7v4.3a11,11,0,0,0,.2,2.7Zm-.3-5.8c-2.3,0-4.9.4-4.9,2.6a1.9,1.9,0,0,0,2,2,3,3,0,0,0,2.8-1.9c0-.3.1-.5.1-.7Z" style="fill: #fff"/>
          <path d="M344.5,172.8c0-1.4,0-2.5-.1-3.6h1.8v2.2h.1a3.4,3.4,0,0,1,3.1-2.5h.6v2h-.7a3,3,0,0,0-2.8,2.7c0,.3-.1.6-.1.9v6.1h-2Z" style="fill: #fff"/>
          <path d="M351.8,172.8c0-1.4,0-2.5-.1-3.6h1.9v2.2h.1a3.5,3.5,0,0,1,3.2-2.5h.6v2h-.7a2.9,2.9,0,0,0-2.8,2.7,2.8,2.8,0,0,0-.1.9v6.1h-2.1Z" style="fill: #fff"/>
          <path d="M369.2,174.8c0,4.3-2.9,6.1-5.7,6.1s-5.5-2.3-5.5-5.9,2.5-6.1,5.7-6.1S369.2,171.3,369.2,174.8Zm-9.1.1c0,2.6,1.5,4.4,3.5,4.4s3.5-1.8,3.5-4.4-1-4.4-3.4-4.4S360.1,172.8,360.1,174.9Z" style="fill: #fff"/>
          <path d="M371.4,163.9h2.1v16.7h-2.1Z" style="fill: #fff"/>
          <path d="M376.5,163.9h2.1v16.7h-2.1Z" style="fill: #fff"/>
          <path d="M392,174.8c0,4.3-3,6.1-5.7,6.1s-5.5-2.3-5.5-5.9,2.5-6.1,5.6-6.1S392,171.3,392,174.8Zm-9.1.1c0,2.6,1.4,4.4,3.4,4.4s3.5-1.8,3.5-4.4-.9-4.4-3.4-4.4S382.9,172.8,382.9,174.9Z" style="fill: #fff"/>
          <path d="M304.6,191.3h-4.9v-1.8h11.8v1.8h-4.9v14.2h-2Z" style="fill: #fff"/>
          <path d="M312.2,200.1a3.8,3.8,0,0,0,4,4,8.1,8.1,0,0,0,3.1-.6l.4,1.5a10.2,10.2,0,0,1-3.8.7c-3.6,0-5.7-2.3-5.7-5.8s2.1-6.1,5.4-6.1,4.7,3.2,4.7,5.3v1Zm6.1-1.5a2.9,2.9,0,0,0-2.9-3.4c-2.1,0-3,2-3.1,3.4Z" style="fill: #fff"/>
          <path d="M322.4,197.6V194h1.8v2.3h.1a3.5,3.5,0,0,1,3.2-2.5h.6v2h-.7a2.9,2.9,0,0,0-2.8,2.7c0,.3-.1.6-.1,1v6.1h-2.1Z" style="fill: #fff"/>
          <path d="M329.8,197.6c0-1.4,0-2.5-.1-3.6h1.8v2.3h.1a3.4,3.4,0,0,1,3.2-2.5h.6v2h-.7a2.8,2.8,0,0,0-2.8,2.7,3.1,3.1,0,0,0-.1,1v6.1h-2.1Z" style="fill: #fff"/>
          <path d="M339.5,190.8a1.3,1.3,0,1,1-1.3-1.3A1.3,1.3,0,0,1,339.5,190.8Zm-2.3,14.7V194h2v11.5Z" style="fill: #fff"/>
          <path d="M344.7,190.7V194h3v1.6h-3v6.2c0,1.4.4,2.2,1.6,2.2h1.2v1.5a4.2,4.2,0,0,1-1.8.3,2.9,2.9,0,0,1-2.3-.9,4.2,4.2,0,0,1-.8-3v-6.2h-1.8V194h1.8v-2.7Z" style="fill: #fff"/>
          <path d="M359.8,199.6c0,4.3-2.9,6.1-5.7,6.1s-5.5-2.3-5.5-5.9,2.5-6,5.7-6S359.8,196.1,359.8,199.6Zm-9.1.2c0,2.5,1.5,4.4,3.5,4.4s3.5-1.9,3.5-4.5-1-4.4-3.5-4.4S350.7,197.6,350.7,199.8Z" style="fill: #fff"/>
          <path d="M362,197.6c0-1.4-.1-2.5-.1-3.6h1.8v2.3h.1a3.3,3.3,0,0,1,3.1-2.5h.6v2h-.7a2.9,2.9,0,0,0-2.8,2.7c0,.3-.1.6-.1,1v6.1h-2Z" style="fill: #fff"/>
          <path d="M371.6,190.8a1.2,1.2,0,0,1-1.3,1.3,1.2,1.2,0,0,1-1.2-1.3,1.3,1.3,0,0,1,1.3-1.3A1.2,1.2,0,0,1,371.6,190.8Zm-2.3,14.7V194h2.1v11.5Z" style="fill: #fff"/>
          <path d="M380.7,205.5V204h-.1a4.4,4.4,0,0,1-3.5,1.7,3.3,3.3,0,0,1-3.5-3.3c0-2.7,2.4-4.2,6.9-4.2v-.3a2.4,2.4,0,0,0-2.6-2.6,5.8,5.8,0,0,0-3,.8l-.5-1.3a7.4,7.4,0,0,1,3.8-1c3.5,0,4.3,2.3,4.3,4.6v4.3a23,23,0,0,0,.2,2.8Zm-.3-5.9c-2.3,0-4.8.4-4.8,2.6a1.9,1.9,0,0,0,1.9,2,2.9,2.9,0,0,0,2.8-1.9,1.7,1.7,0,0,0,.1-.7Z" style="fill: #fff"/>
          <path d="M385.3,188.7h2.1v16.8h-2.1Z" style="fill: #fff"/>
        </g>
      </g>
      <g class="hoverable" onclick="showInstrument('financiacion', 'desarrollo_territorial', 'reajuste_de_tierras_y_cooperacion_entre_participes');">
        <path d="M706.6,370.9,477.4,299.7l.2-.5a368.5,368.5,0,0,0,16.5-108.5,364,364,0,0,0-18.7-115L703.1,0a601.2,601.2,0,0,1,31,190.7,605.9,605.9,0,0,1-27.3,179.5Z" style="fill: #d36caf"/>
        <g>
          <path d="M526.9,155.9a20.9,20.9,0,0,1,3.8-.3c2.2,0,3.5.4,4.5,1.2a3.9,3.9,0,0,1,1.2,3,4,4,0,0,1-2.9,3.9h0c1.2.4,1.9,1.5,2.3,3.1a18.6,18.6,0,0,0,1.2,4.3h-2.1a17,17,0,0,1-1-3.7c-.5-2.2-1.3-3-3.1-3h-1.9v6.7h-2Zm2,7h2c2.2,0,3.5-1.1,3.5-2.9s-1.4-2.9-3.6-2.9l-1.9.2Z" style="fill: #fff"/>
          <path d="M540.4,166a3.5,3.5,0,0,0,3.8,3.8,8,8,0,0,0,3.1-.5l.3,1.4a9.2,9.2,0,0,1-3.7.7c-3.4,0-5.4-2.2-5.4-5.6s1.9-6,5.2-6,4.6,3.2,4.6,5.2-.1.8-.1,1Zm5.9-1.5a2.8,2.8,0,0,0-2.8-3.3c-2,0-2.9,1.9-3.1,3.3Z" style="fill: #fff"/>
          <path d="M557,171.2l-.2-1.4h-.1a4.3,4.3,0,0,1-3.4,1.6,3.2,3.2,0,0,1-3.4-3.2c0-2.7,2.4-4.1,6.7-4.1v-.2c0-1-.2-2.6-2.5-2.6a5.5,5.5,0,0,0-2.9.8l-.5-1.3a7,7,0,0,1,3.7-1c3.4,0,4.2,2.3,4.2,4.5v4.2a21.3,21.3,0,0,0,.2,2.7Zm-.3-5.7c-2.3,0-4.8.3-4.8,2.5a1.8,1.8,0,0,0,1.9,1.9,2.7,2.7,0,0,0,2.7-1.8,1.9,1.9,0,0,0,.2-.7Z" style="fill: #fff"/>
          <path d="M559.2,174.4a3.2,3.2,0,0,0,2.2-.9c.5-.6.7-1.5.7-4.1V160h2.1v10.1c0,2.2-.4,3.6-1.4,4.6a5,5,0,0,1-3.4,1.3Zm5.2-17.5a1.3,1.3,0,0,1-1.3,1.3,1.2,1.2,0,0,1-1.2-1.3,1.2,1.2,0,0,1,1.3-1.2A1.2,1.2,0,0,1,564.4,156.9Z" style="fill: #fff"/>
          <path d="M576.8,168.1a29.1,29.1,0,0,0,.1,3.1h-1.8v-1.8h-.1a4.1,4.1,0,0,1-3.7,2c-1.7,0-3.8-.9-3.8-4.8V160h2v6.2c0,2.1.7,3.6,2.5,3.6a3,3,0,0,0,2.7-1.9,3.6,3.6,0,0,0,.2-1V160h2Z" style="fill: #fff"/>
          <path d="M579.9,169.1a5,5,0,0,0,2.6.8c1.5,0,2.2-.7,2.2-1.6s-.6-1.5-2.1-2.1-2.9-1.8-2.9-3.1,1.4-3.3,3.8-3.3a5.8,5.8,0,0,1,2.8.7l-.6,1.5a3.8,3.8,0,0,0-2.2-.7c-1.2,0-1.9.7-1.9,1.5s.7,1.4,2.1,1.9,2.9,1.7,2.9,3.4-1.5,3.3-4.1,3.3a5.7,5.7,0,0,1-3.1-.8Z" style="fill: #fff"/>
          <path d="M591.7,156.9V160h2.9v1.6h-2.9v6c0,1.4.4,2.2,1.5,2.2l1.2-.2v1.5a4.2,4.2,0,0,1-1.8.3,2.9,2.9,0,0,1-2.2-.8,4,4,0,0,1-.8-2.9v-6.1H588V160h1.7v-2.6Z" style="fill: #fff"/>
          <path d="M597.8,166a3.6,3.6,0,0,0,3.9,3.8,7.4,7.4,0,0,0,3-.5l.4,1.4a9.2,9.2,0,0,1-3.7.7c-3.4,0-5.5-2.2-5.5-5.6s2-6,5.2-6,4.6,3.2,4.6,5.2v1Zm6-1.5c0-1.3-.5-3.3-2.8-3.3a3.3,3.3,0,0,0-3.1,3.3Z" style="fill: #fff"/>
          <path d="M622.7,154.9v13.4c0,1,.1,2.1.1,2.9H621v-2h0a4.1,4.1,0,0,1-3.8,2.2c-2.7,0-4.8-2.2-4.8-5.6s2.3-6,5-6a3.8,3.8,0,0,1,3.4,1.7h0v-6.6Zm-2,9.7a2.8,2.8,0,0,0-.1-.9,2.9,2.9,0,0,0-2.9-2.3c-2.1,0-3.3,1.8-3.3,4.3s1.1,4.1,3.3,4.1a3,3,0,0,0,2.9-2.4,2.8,2.8,0,0,0,.1-.9Z" style="fill: #fff"/>
          <path d="M627.2,166a3.6,3.6,0,0,0,3.8,3.8,7.6,7.6,0,0,0,3.1-.5l.4,1.4a10,10,0,0,1-3.7.7c-3.5,0-5.5-2.2-5.5-5.6s2-6,5.2-6,4.6,3.2,4.6,5.2a2.5,2.5,0,0,1-.1,1Zm6-1.5c0-1.3-.6-3.3-2.9-3.3s-2.9,1.9-3.1,3.3Z" style="fill: #fff"/>
          <path d="M644.9,156.9V160h2.9v1.6h-2.9v6c0,1.4.4,2.2,1.5,2.2a2.9,2.9,0,0,0,1.2-.2v1.5a4.2,4.2,0,0,1-1.8.3,3.1,3.1,0,0,1-2.2-.8,4.6,4.6,0,0,1-.7-2.9v-6.1h-1.8V160H643v-2.6Z" style="fill: #fff"/>
          <path d="M652.4,156.9a1.3,1.3,0,0,1-1.3,1.3,1.2,1.2,0,0,1-1.2-1.3,1.2,1.2,0,0,1,1.2-1.2A1.2,1.2,0,0,1,652.4,156.9Zm-2.3,14.3V160h2v11.2Z" style="fill: #fff"/>
          <path d="M656.6,166a3.6,3.6,0,0,0,3.8,3.8,7.6,7.6,0,0,0,3.1-.5l.4,1.4a10,10,0,0,1-3.7.7c-3.5,0-5.5-2.2-5.5-5.6s2-6,5.2-6,4.6,3.2,4.6,5.2a2.5,2.5,0,0,1-.1,1Zm5.9-1.5a2.8,2.8,0,0,0-2.8-3.3c-2,0-2.9,1.9-3.1,3.3Z" style="fill: #fff"/>
          <path d="M667,163.5c0-1.3,0-2.4-.1-3.5h1.8v2.2h0a3.5,3.5,0,0,1,3.1-2.4h.6v1.9h-.7a2.9,2.9,0,0,0-2.7,2.6c0,.3-.1.6-.1.9v6h-2Z" style="fill: #fff"/>
          <path d="M674.6,163.5c0-1.3,0-2.4-.1-3.5h1.8v2.2h.1a3.2,3.2,0,0,1,3-2.4h.6v1.9h-.7a2.9,2.9,0,0,0-2.7,2.6c0,.3-.1.6-.1.9v6h-2Z" style="fill: #fff"/>
          <path d="M688.2,171.2l-.2-1.4h0a4.6,4.6,0,0,1-3.4,1.6,3.1,3.1,0,0,1-3.4-3.2c0-2.7,2.3-4.1,6.6-4.1v-.2c0-1-.2-2.6-2.5-2.6a5.7,5.7,0,0,0-2.9.8l-.4-1.3a6.6,6.6,0,0,1,3.6-1c3.4,0,4.2,2.3,4.2,4.5v4.2a21.3,21.3,0,0,0,.2,2.7Zm-.3-5.7c-2.2,0-4.7.3-4.7,2.5a1.8,1.8,0,0,0,1.9,1.9,2.8,2.8,0,0,0,2.7-1.8c0-.2.1-.5.1-.7Z" style="fill: #fff"/>
          <path d="M692.8,169.1a5.4,5.4,0,0,0,2.7.8c1.5,0,2.2-.7,2.2-1.6s-.6-1.5-2.1-2.1-2.9-1.8-2.9-3.1,1.4-3.3,3.8-3.3a5.1,5.1,0,0,1,2.7.7l-.5,1.5a3.9,3.9,0,0,0-2.3-.7,1.6,1.6,0,0,0-1.8,1.5c0,.9.7,1.4,2.1,1.9s2.9,1.7,2.9,3.4-1.5,3.3-4.1,3.3a6.1,6.1,0,0,1-3.2-.8Z" style="fill: #fff"/>
          <path d="M547.6,187.6l2.4,6.6a11.9,11.9,0,0,1,.7,2.3h.1c.2-.7.4-1.5.7-2.3l2.2-6.6h2.1l-3,8c-1.4,3.8-2.4,5.8-3.8,6.9a5.8,5.8,0,0,1-2.5,1.4l-.5-1.7a6.6,6.6,0,0,0,1.8-1,9.1,9.1,0,0,0,1.7-2.3,1.1,1.1,0,0,0,.1-.5,1.3,1.3,0,0,0-.1-.5l-4.1-10.3Z" style="fill: #fff"/>
          <path d="M570.5,198.4a8.9,8.9,0,0,1-3.2.6c-3.4,0-5.5-2.3-5.5-5.7a5.6,5.6,0,0,1,5.9-5.9,6.1,6.1,0,0,1,2.8.6l-.4,1.6a4.6,4.6,0,0,0-2.4-.6c-2.5,0-3.9,1.9-3.9,4.2a3.9,3.9,0,0,0,3.9,4.2,5.4,5.4,0,0,0,2.5-.6Z" style="fill: #fff"/>
          <path d="M582.8,193.1c0,4.1-2.8,5.9-5.5,5.9a5.3,5.3,0,0,1-5.4-5.7c0-3.7,2.5-5.9,5.5-5.9S582.8,189.7,582.8,193.1Zm-8.8.1c0,2.5,1.4,4.3,3.4,4.3s3.3-1.8,3.3-4.3-.9-4.3-3.3-4.3S574,191.1,574,193.2Z" style="fill: #fff"/>
          <path d="M595.4,193.1c0,4.1-2.8,5.9-5.5,5.9s-5.3-2.2-5.3-5.7,2.4-5.9,5.5-5.9S595.4,189.7,595.4,193.1Zm-8.8.1c0,2.5,1.4,4.3,3.4,4.3s3.4-1.8,3.4-4.3-1-4.3-3.4-4.3S586.6,191.1,586.6,193.2Z" style="fill: #fff"/>
          <path d="M598,191.3c0-1.4-.1-2.6-.1-3.7h1.8v2h0a4.5,4.5,0,0,1,4-2.2c2.7,0,4.7,2.3,4.7,5.7s-2.4,5.9-5,5.9a4,4,0,0,1-3.5-1.7h0v6h-2Zm2,2.9a2.8,2.8,0,0,0,.1.9,3,3,0,0,0,3,2.3c2.2,0,3.4-1.7,3.4-4.3s-1.2-4.1-3.3-4.1a3.3,3.3,0,0,0-3.1,2.5c0,.3-.1.6-.1.8Z" style="fill: #fff"/>
          <path d="M612.2,193.6a3.5,3.5,0,0,0,3.8,3.8,8,8,0,0,0,3.1-.5l.3,1.4a9.2,9.2,0,0,1-3.7.7c-3.4,0-5.4-2.2-5.4-5.6s1.9-6,5.2-6,4.6,3.2,4.6,5.2-.1.8-.1,1Zm5.9-1.5a2.8,2.8,0,0,0-2.8-3.3c-2,0-2.9,1.9-3.1,3.3Z" style="fill: #fff"/>
          <path d="M622.6,191.1c0-1.3,0-2.4-.1-3.5h1.8v2.2h.1a3.4,3.4,0,0,1,3.1-2.4h.6v1.9h-.7a2.9,2.9,0,0,0-2.7,2.6,2.8,2.8,0,0,0-.1.9v6h-2Z" style="fill: #fff"/>
          <path d="M636.2,198.8l-.2-1.4h-.1a4.3,4.3,0,0,1-3.4,1.6,3.2,3.2,0,0,1-3.4-3.2c0-2.7,2.4-4.1,6.7-4.1v-.2c0-1-.2-2.6-2.5-2.6a5.7,5.7,0,0,0-2.9.8l-.5-1.3a7.3,7.3,0,0,1,3.7-1c3.4,0,4.2,2.3,4.2,4.5v4.2a21.3,21.3,0,0,0,.2,2.7Zm-.3-5.7c-2.2,0-4.7.3-4.7,2.5a1.7,1.7,0,0,0,1.9,1.9,2.9,2.9,0,0,0,2.7-1.8c0-.2.1-.5.1-.7Z" style="fill: #fff"/>
          <path d="M649,198.4a8.9,8.9,0,0,1-3.2.6c-3.3,0-5.5-2.3-5.5-5.7a5.6,5.6,0,0,1,6-5.9,6.5,6.5,0,0,1,2.8.6l-.5,1.6a4.2,4.2,0,0,0-2.3-.6,4.2,4.2,0,0,0-.1,8.4,5.4,5.4,0,0,0,2.5-.6Z" style="fill: #fff"/>
          <path d="M653.6,184.5a1.1,1.1,0,0,1-1.2,1.3,1.3,1.3,0,0,1-1.3-1.3,1.2,1.2,0,0,1,1.3-1.2A1.1,1.1,0,0,1,653.6,184.5Zm-2.2,14.3V187.6h2v11.2Z" style="fill: #fff"/>
          <path d="M666.8,193.1c0,4.1-2.8,5.9-5.5,5.9s-5.3-2.2-5.3-5.7,2.4-5.9,5.5-5.9S666.8,189.7,666.8,193.1Zm-8.8.1c0,2.5,1.4,4.3,3.4,4.3s3.4-1.8,3.4-4.3-1-4.3-3.4-4.3S658,191.1,658,193.2Zm6.4-10.4-2.8,3.3h-1.4l2-3.3Z" style="fill: #fff"/>
          <path d="M669.4,190.7a30.1,30.1,0,0,0-.1-3.1h1.8v1.9h.1a3.9,3.9,0,0,1,3.6-2.1c1.6,0,4,.9,4,4.7v6.7h-2v-6.4c0-1.8-.7-3.3-2.6-3.3a2.7,2.7,0,0,0-2.7,2,3,3,0,0,0-.2,1v6.7h-2Z" style="fill: #fff"/>
          <path d="M540.6,221.2a3.5,3.5,0,0,0,3.8,3.8,8.3,8.3,0,0,0,3.1-.5l.3,1.4a9.2,9.2,0,0,1-3.7.7c-3.4,0-5.5-2.2-5.5-5.6s2-6,5.3-6,4.6,3.2,4.6,5.2-.1.8-.1,1Zm5.9-1.5c0-1.3-.5-3.3-2.8-3.3s-2.9,1.9-3.1,3.3Z" style="fill: #fff"/>
          <path d="M551,218.3c0-1.2-.1-2.1-.1-3.1h1.8v1.9h0a4.2,4.2,0,0,1,3.7-2.1c1.5,0,3.9.9,3.9,4.7v6.7h-2V220c0-1.8-.7-3.3-2.6-3.3a2.9,2.9,0,0,0-2.7,2,3.1,3.1,0,0,0-.1,1v6.7h-2Z" style="fill: #fff"/>
          <path d="M566.1,212.1v3.1H569v1.6h-2.9v6c0,1.4.4,2.2,1.5,2.2l1.2-.2v1.5a4.5,4.5,0,0,1-1.8.3,2.9,2.9,0,0,1-2.2-.8,4,4,0,0,1-.8-2.9v-6.1h-1.7v-1.6h1.7v-2.6Z" style="fill: #fff"/>
          <path d="M571.2,218.7v-3.5h1.7v2.2h.1a3.3,3.3,0,0,1,3.1-2.4h.5V217h-.6a2.9,2.9,0,0,0-2.8,2.6c0,.3-.1.6-.1.9v6h-2Z" style="fill: #fff"/>
          <path d="M579.7,221.2a3.5,3.5,0,0,0,3.8,3.8,8.3,8.3,0,0,0,3.1-.5l.3,1.4a9.2,9.2,0,0,1-3.7.7c-3.4,0-5.5-2.2-5.5-5.6s2-6,5.3-6,4.6,3.2,4.6,5.2-.1.8-.1,1Zm5.9-1.5c0-1.3-.5-3.3-2.8-3.3s-2.9,1.9-3.1,3.3Z" style="fill: #fff"/>
          <path d="M594.9,218.9c0-1.4,0-2.6-.1-3.7h1.9v2h0a4.3,4.3,0,0,1,4-2.2c2.6,0,4.7,2.3,4.7,5.7s-2.5,5.9-5.1,5.9a3.8,3.8,0,0,1-3.4-1.7h-.1v6h-2Zm2,2.9c0,.3.1.6.1.9a3.1,3.1,0,0,0,3.1,2.3c2.1,0,3.3-1.7,3.3-4.3s-1.1-4.1-3.3-4.1a3.3,3.3,0,0,0-3,2.5,3.1,3.1,0,0,0-.2.8Z" style="fill: #fff"/>
          <path d="M614.2,226.4,614,225h0a4.6,4.6,0,0,1-3.4,1.6,3.1,3.1,0,0,1-3.4-3.2c0-2.7,2.3-4.1,6.6-4.1v-.2c0-1-.2-2.6-2.5-2.6a5.7,5.7,0,0,0-2.9.8L608,216a6.6,6.6,0,0,1,3.6-1c3.4,0,4.2,2.3,4.2,4.5v4.2a21.3,21.3,0,0,0,.2,2.7Zm-.3-5.7c-2.2,0-4.7.3-4.7,2.5a1.7,1.7,0,0,0,1.9,1.9,2.8,2.8,0,0,0,2.7-1.8c0-.2.1-.5.1-.7Z" style="fill: #fff"/>
          <path d="M619.1,218.7c0-1.3,0-2.4-.1-3.5h1.8v2.2h.1a3.2,3.2,0,0,1,3-2.4h.6V217h-.7a2.9,2.9,0,0,0-2.7,2.6c0,.3-.1.6-.1.9v6h-2Z" style="fill: #fff"/>
          <path d="M629.6,212.1v3.1h2.9v1.6h-2.9v6c0,1.4.4,2.2,1.5,2.2l1.2-.2v1.5a4.2,4.2,0,0,1-1.8.3,3.1,3.1,0,0,1-2.2-.8,4.6,4.6,0,0,1-.8-2.9v-6.1h-1.7v-1.6h1.7v-2.6Z" style="fill: #fff"/>
          <path d="M638.9,210.4l-2.8,3.3h-1.4l2-3.3Zm-4.1,16V215.2h2v11.2Z" style="fill: #fff"/>
          <path d="M648.1,226a8.9,8.9,0,0,1-3.2.6c-3.3,0-5.5-2.3-5.5-5.7a5.6,5.6,0,0,1,6-5.9,6.9,6.9,0,0,1,2.8.6l-.5,1.6a4.2,4.2,0,0,0-2.3-.6,4.2,4.2,0,0,0-.1,8.4,5.4,5.4,0,0,0,2.5-.6Z" style="fill: #fff"/>
          <path d="M652.7,212.1c.1.7-.4,1.3-1.3,1.3a1.3,1.3,0,1,1,.1-2.5A1.1,1.1,0,0,1,652.7,212.1Zm-2.2,14.3V215.2h2v11.2Z" style="fill: #fff"/>
          <path d="M655.9,218.9c0-1.4-.1-2.6-.1-3.7h1.8v2h0a4.5,4.5,0,0,1,4-2.2c2.7,0,4.7,2.3,4.7,5.7s-2.4,5.9-5.1,5.9a4,4,0,0,1-3.4-1.7h0v6h-2Zm2,2.9a2.8,2.8,0,0,0,.1.9,2.9,2.9,0,0,0,3,2.3c2.1,0,3.4-1.7,3.4-4.3s-1.2-4.1-3.3-4.1a3.3,3.3,0,0,0-3.1,2.5,2.5,2.5,0,0,0-.1.8Z" style="fill: #fff"/>
          <path d="M670.1,221.2a3.5,3.5,0,0,0,3.8,3.8,8.3,8.3,0,0,0,3.1-.5l.3,1.4a9.2,9.2,0,0,1-3.7.7c-3.4,0-5.5-2.2-5.5-5.6s2-6,5.3-6,4.6,3.2,4.6,5.2-.1.8-.1,1Zm5.9-1.5c0-1.3-.5-3.3-2.8-3.3s-2.9,1.9-3.1,3.3Z" style="fill: #fff"/>
          <path d="M680.2,224.3a5.4,5.4,0,0,0,2.7.8c1.4,0,2.1-.7,2.1-1.6s-.5-1.5-2-2.1-3-1.8-3-3.1,1.5-3.3,3.9-3.3a5.1,5.1,0,0,1,2.7.7l-.5,1.5a4.5,4.5,0,0,0-2.3-.7c-1.2,0-1.9.7-1.9,1.5s.7,1.4,2.2,1.9,2.9,1.7,2.9,3.4-1.5,3.3-4.2,3.3a5.9,5.9,0,0,1-3.1-.8Z" style="fill: #fff"/>
        </g>
      </g>
      <g class="hoverable" onclick="returnToGroups(); changeImage('rueda');">
        <circle cx="127.5" cy="192.7" r="127" style="fill: none;stroke: #aab8bd;stroke-miterlimit: 10"/>
        <circle cx="127.7" cy="190.9" r="105" style="fill: #bdc4c6"/>
        <g>
          <path d="M60.6,181.7h8.3v2.1H63.2v3.9h5.3v2.2H63.2v6H60.6Z" style="fill: #112025"/>
          <path d="M74,181.7v14.2H71.4V181.7Z" style="fill: #112025"/>
          <path d="M77,195.9V181.7h3l3.6,6.1a36.7,36.7,0,0,1,2.5,4.8h0a57.2,57.2,0,0,1-.2-6v-4.9h2.4v14.2H85.6l-3.7-6.2a47.4,47.4,0,0,1-2.6-5h0c.1,1.8.1,3.7.1,6v5.1Z" style="fill: #112025"/>
          <path d="M94.2,191.9l-1.3,4H90.2l4.6-14.2h3.3l4.7,14.2H100l-1.3-4Zm4-2-1.1-3.5a26.8,26.8,0,0,1-.7-2.7h0c-.3.9-.5,1.9-.7,2.7l-1.1,3.5Z" style="fill: #112025"/>
          <path d="M104.8,195.9V181.7h2.9l3.7,6.1a26.9,26.9,0,0,1,2.4,4.8h.1a57.2,57.2,0,0,1-.2-6v-4.9h2.4v14.2h-2.7l-3.7-6.2a34,34,0,0,1-2.6-5H107c.1,1.8.2,3.7.2,6v5.1Z" style="fill: #112025"/>
          <path d="M129.3,195.5a9.6,9.6,0,0,1-3.7.6c-4.5,0-7.3-2.8-7.3-7.1s3.3-7.6,7.7-7.6a7.2,7.2,0,0,1,3.4.7l-.5,2a10.1,10.1,0,0,0-2.8-.5c-2.9,0-5,1.8-5,5.2s1.8,5.2,4.9,5.2a7.9,7.9,0,0,0,2.9-.5Z" style="fill: #112025"/>
          <path d="M134.1,181.7v14.2h-2.6V181.7Z" style="fill: #112025"/>
          <path d="M140,191.9l-1.3,4H136l4.6-14.2h3.3l4.7,14.2h-2.8l-1.3-4Zm4-2-1.1-3.5c-.2-.9-.5-1.8-.7-2.7h0c-.2.9-.5,1.9-.7,2.7l-1.1,3.5Z" style="fill: #112025"/>
          <path d="M160.3,195.5a9,9,0,0,1-3.6.6c-4.6,0-7.3-2.8-7.3-7.1a7.2,7.2,0,0,1,7.6-7.6,8.1,8.1,0,0,1,3.5.7l-.6,2a9.4,9.4,0,0,0-2.8-.5c-2.9,0-5,1.8-5,5.2s1.9,5.2,5,5.2a7.8,7.8,0,0,0,2.8-.5Z" style="fill: #112025"/>
          <path d="M165.2,181.7v14.2h-2.6V181.7Z" style="fill: #112025"/>
          <path d="M180.8,188.7c0,4.7-2.9,7.5-6.8,7.5s-6.6-3.1-6.6-7.3,2.8-7.5,6.8-7.5S180.8,184.6,180.8,188.7Zm-10.6.2c0,2.9,1.4,5.2,3.9,5.2s4-2.4,4-5.3-1.4-5.3-4-5.3S170.2,185.9,170.2,188.9Zm7.3-10.6-2.6,2.6h-2.1l1.9-2.6Z" style="fill: #112025"/>
          <path d="M183.1,195.9V181.7H186l3.7,6.1a26.9,26.9,0,0,1,2.4,4.8h.1a56,56,0,0,1-.3-6v-4.9h2.5v14.2h-2.7l-3.8-6.2a46.6,46.6,0,0,1-2.5-5h-.1c.1,1.8.2,3.7.2,6v5.1Z" style="fill: #112025"/>
        </g>
      </g>
    </g>
  </g>
</svg>
