<svg class="animate__animated" xmlns="http://www.w3.org/2000/svg" viewBox="0 0 734.1 370.9">
  <g id="Capa_2" data-name="Capa 2">
    <g id="Capa_1-2" data-name="Capa 1">
      <g class="hoverable" onclick="returnToTypesInstrument(); changeImage('financiacion/F_Herramienta_Segundo_Plano');">
        <path d="M447.3,293.7,279.5,239.5a156.5,156.5,0,0,0,7.7-48.7,159.8,159.8,0,0,0-8.7-52L445,80.9a333.3,333.3,0,0,1,18.5,109.9A331.9,331.9,0,0,1,447.3,293.7Z" style="fill: #3f3793"/>
        <path d="M433,289.5,272.1,237.6a150,150,0,0,0,7.3-46.7,152.2,152.2,0,0,0-8.3-49.8L430.7,85.6a318.5,318.5,0,0,1,17.7,105.3A322.5,322.5,0,0,1,433,289.5Z" style="fill: #d36caf"/>
        <g>
          <path d="M310.9,171.9h-6v5.6h6.7v1.7h-8.7V163.7h8.4v1.7h-6.4v4.9h6Z" style="fill: #fff"/>
          <path d="M314.2,171.1c0-1.2-.1-2.1-.1-3.1h1.8v1.9h0a4.2,4.2,0,0,1,3.7-2.1c1.5,0,3.9.9,3.9,4.7v6.7h-2v-6.4c0-1.8-.7-3.3-2.6-3.3a2.9,2.9,0,0,0-2.7,2,3.1,3.1,0,0,0-.1,1v6.7h-2Z" style="fill: #fff"/>
          <path d="M334.9,178.8a9.5,9.5,0,0,1-3.2.6,5.3,5.3,0,0,1-5.6-5.7,5.7,5.7,0,0,1,6-5.9,6.1,6.1,0,0,1,2.8.6l-.5,1.6a4,4,0,0,0-2.3-.6c-2.6,0-3.9,1.9-3.9,4.2s1.6,4.2,3.8,4.2a5.1,5.1,0,0,0,2.5-.6Z" style="fill: #fff"/>
          <path d="M343.4,179.2l-.2-1.4h0a4.6,4.6,0,0,1-3.4,1.6,3.1,3.1,0,0,1-3.4-3.2c0-2.7,2.3-4.1,6.6-4.1v-.2c0-1-.2-2.6-2.5-2.6a5.7,5.7,0,0,0-2.9.8l-.4-1.3a6.6,6.6,0,0,1,3.6-1c3.4,0,4.2,2.3,4.2,4.5v4.2a21.3,21.3,0,0,0,.2,2.7Zm-.3-5.7c-2.2,0-4.7.3-4.7,2.5a1.8,1.8,0,0,0,1.9,1.9,2.8,2.8,0,0,0,2.7-1.8c0-.2.1-.5.1-.7Z" style="fill: #fff"/>
          <path d="M348.3,171.5c0-1.3,0-2.4-.1-3.5H350v2.2h.1a3.2,3.2,0,0,1,3-2.4h.6v1.9h-.7a2.9,2.9,0,0,0-2.7,2.6c0,.3-.1.6-.1.9v6h-2Z" style="fill: #fff"/>
          <path d="M365.2,168c0,.9-.1,1.7-.1,3.1v6.5c0,2.5-.5,4.1-1.5,5a5.7,5.7,0,0,1-4.1,1.4,7.2,7.2,0,0,1-3.7-.9l.5-1.6a6.2,6.2,0,0,0,3.3.9c2.1,0,3.6-1.1,3.6-3.9v-1.2h-.1a3.9,3.9,0,0,1-3.5,1.8c-2.8,0-4.8-2.3-4.8-5.4s2.5-5.9,5.1-5.9a3.7,3.7,0,0,1,3.4,1.9h.1V168Zm-2.1,4.4a2.8,2.8,0,0,0-.1-.9,2.7,2.7,0,0,0-2.8-2.1c-1.9,0-3.3,1.6-3.3,4.2s1.1,4,3.3,4a3,3,0,0,0,2.8-2.1,3.7,3.7,0,0,0,.1-1.1Z" style="fill: #fff"/>
          <path d="M378.6,173.5c0,4.1-2.9,5.9-5.6,5.9s-5.3-2.2-5.3-5.7,2.4-5.9,5.5-5.9S378.6,170.1,378.6,173.5Zm-8.9.1c0,2.5,1.5,4.3,3.4,4.3s3.4-1.8,3.4-4.3-.9-4.3-3.3-4.3S369.7,171.5,369.7,173.6Z" style="fill: #fff"/>
          <path d="M380.9,177.1a5,5,0,0,0,2.6.8c1.5,0,2.2-.7,2.2-1.6s-.6-1.5-2.1-2.1-2.9-1.8-2.9-3.1,1.4-3.3,3.8-3.3a5.8,5.8,0,0,1,2.8.7l-.6,1.5a3.8,3.8,0,0,0-2.2-.7c-1.2,0-1.9.7-1.9,1.5s.7,1.4,2.1,1.9,2.9,1.7,2.9,3.4-1.5,3.3-4.1,3.3a5.7,5.7,0,0,1-3.1-.8Z" style="fill: #fff"/>
          <path d="M303.1,206.8v-9.6h-1.6v-1.6h1.6V195a4.4,4.4,0,0,1,4.8-4.8,5.5,5.5,0,0,1,2.8.7l-.5,1.6a4,4,0,0,0-2.4-.7c-2.1,0-2.7,1.5-2.7,3.3v.5h6.4v11.2h-2v-9.6h-4.4v9.6Z" style="fill: #fff"/>
          <path d="M324.5,190.5v13.4a26.2,26.2,0,0,0,.1,2.9h-1.8v-2h-.1a4,4,0,0,1-3.8,2.2c-2.7,0-4.7-2.2-4.7-5.6s2.2-6,5-6a3.6,3.6,0,0,1,3.3,1.7h.1v-6.6Zm-2,9.7c0-.3-.1-.6-.1-.9a2.9,2.9,0,0,0-2.9-2.3c-2.1,0-3.4,1.8-3.4,4.3s1.1,4.1,3.3,4.1a3.1,3.1,0,0,0,3-2.4c0-.3.1-.6.1-.9Z" style="fill: #fff"/>
          <path d="M337.2,203.7a29.1,29.1,0,0,0,.1,3.1h-1.8l-.2-1.8h0a4.1,4.1,0,0,1-3.7,2c-1.7,0-3.8-.9-3.8-4.8v-6.6h2v6.2c0,2.1.6,3.6,2.5,3.6a3.1,3.1,0,0,0,2.7-1.9,3.4,3.4,0,0,0,.1-1v-6.9h2.1Z" style="fill: #fff"/>
          <path d="M348.5,206.4a9.5,9.5,0,0,1-3.2.6,5.3,5.3,0,0,1-5.6-5.7,5.7,5.7,0,0,1,6-5.9,6.5,6.5,0,0,1,2.8.6l-.5,1.6a4,4,0,0,0-2.3-.6c-2.6,0-3.9,1.9-3.9,4.2s1.6,4.2,3.8,4.2a5.1,5.1,0,0,0,2.5-.6Z" style="fill: #fff"/>
          <path d="M353.1,192.5a1.3,1.3,0,0,1-1.3,1.3,1.2,1.2,0,0,1-1.2-1.3,1.2,1.2,0,0,1,1.2-1.2A1.2,1.2,0,0,1,353.1,192.5Zm-2.3,14.3V195.6h2v11.2Z" style="fill: #fff"/>
          <path d="M362.4,206.8l-.2-1.4h-.1a4.3,4.3,0,0,1-3.4,1.6,3.2,3.2,0,0,1-3.4-3.2c0-2.7,2.4-4.1,6.7-4.1v-.2c0-1-.2-2.6-2.5-2.6a5.7,5.7,0,0,0-2.9.8l-.5-1.3a7.3,7.3,0,0,1,3.7-1c3.4,0,4.2,2.3,4.2,4.5v4.2a21.3,21.3,0,0,0,.2,2.7Zm-.3-5.7c-2.2,0-4.7.3-4.7,2.5a1.7,1.7,0,0,0,1.9,1.9,2.9,2.9,0,0,0,2.7-1.8c0-.2.1-.5.1-.7Z" style="fill: #fff"/>
          <path d="M367.3,199.1c0-1.3,0-2.4-.1-3.5H369v2.2h.1a3.4,3.4,0,0,1,3.1-2.4h.6v1.9h-.7a2.9,2.9,0,0,0-2.7,2.6,2.8,2.8,0,0,0-.1.9v6h-2Z" style="fill: #fff"/>
          <path d="M377.2,192.5a1.3,1.3,0,0,1-1.3,1.3,1.3,1.3,0,0,1-1.3-1.3,1.2,1.2,0,0,1,1.3-1.2A1.2,1.2,0,0,1,377.2,192.5Zm-2.3,14.3V195.6h2v11.2Z" style="fill: #fff"/>
          <path d="M390.4,201.1c0,4.1-2.9,5.9-5.6,5.9s-5.3-2.2-5.3-5.7,2.4-5.9,5.5-5.9S390.4,197.7,390.4,201.1Zm-8.9.1c0,2.5,1.4,4.3,3.4,4.3s3.4-1.8,3.4-4.3-1-4.3-3.3-4.3S381.5,199.1,381.5,201.2Z" style="fill: #fff"/>
          <path d="M392.6,204.7a5.4,5.4,0,0,0,2.7.8c1.5,0,2.2-.7,2.2-1.6s-.6-1.5-2.1-2.1-2.9-1.8-2.9-3.1,1.4-3.3,3.8-3.3a5.1,5.1,0,0,1,2.7.7l-.5,1.5a3.9,3.9,0,0,0-2.3-.7,1.6,1.6,0,0,0-1.8,1.5c0,.9.7,1.4,2.1,1.9s2.9,1.7,2.9,3.4-1.5,3.3-4.1,3.3a6.1,6.1,0,0,1-3.2-.8Z" style="fill: #fff"/>
        </g>
      </g>
      <g class="hoverable" onclick="showInstrument('financiacion', 'encargos_fiduciarios', 'encargos_fiduciarios');">
        <path d="M706.6,370.9,477.4,299.7l.2-.5a368.5,368.5,0,0,0,16.5-108.5,364,364,0,0,0-18.7-115L703.1,0a601.2,601.2,0,0,1,31,190.7,605.9,605.9,0,0,1-27.3,179.5Z" style="fill: #d36caf"/>
        <g>
          <path d="M576.6,171.9h-6.1v5.6h6.8v1.7h-8.8V163.7h8.4v1.7h-6.4v4.9h6.1Z" style="fill: #fff"/>
          <path d="M579.8,171.1a30.1,30.1,0,0,0-.1-3.1h1.8v1.9h.1a3.9,3.9,0,0,1,3.6-2.1c1.6,0,4,.9,4,4.7v6.7h-2.1v-6.4c0-1.8-.6-3.3-2.5-3.3a2.7,2.7,0,0,0-2.7,2,3,3,0,0,0-.2,1v6.7h-2Z" style="fill: #fff"/>
          <path d="M600.5,178.8a8.9,8.9,0,0,1-3.2.6c-3.4,0-5.5-2.3-5.5-5.7a5.6,5.6,0,0,1,5.9-5.9,6.1,6.1,0,0,1,2.8.6l-.4,1.6a4.6,4.6,0,0,0-2.4-.6c-2.5,0-3.9,1.9-3.9,4.2a3.9,3.9,0,0,0,3.9,4.2,4.6,4.6,0,0,0,2.4-.6Z" style="fill: #fff"/>
          <path d="M609,179.2v-1.4h-.1a4.3,4.3,0,0,1-3.4,1.6,3.1,3.1,0,0,1-3.4-3.2c0-2.7,2.4-4.1,6.7-4.1v-.2a2.3,2.3,0,0,0-2.5-2.6,5.2,5.2,0,0,0-2.9.8l-.5-1.3a6.6,6.6,0,0,1,3.6-1c3.5,0,4.3,2.3,4.3,4.5v4.2a11.4,11.4,0,0,0,.2,2.7Zm-.3-5.7c-2.2,0-4.7.3-4.7,2.5a1.8,1.8,0,0,0,1.9,1.9,2.7,2.7,0,0,0,2.7-1.8,1.7,1.7,0,0,0,.1-.7Z" style="fill: #fff"/>
          <path d="M613.9,171.5V168h1.7v2.2h.1a3.3,3.3,0,0,1,3.1-2.4h.5v1.9h-.6a2.9,2.9,0,0,0-2.8,2.6c0,.3-.1.6-.1.9v6h-2Z" style="fill: #fff"/>
          <path d="M630.9,168a27.3,27.3,0,0,0-.1,3.1v6.5c0,2.5-.5,4.1-1.6,5a5.6,5.6,0,0,1-4.1,1.4,7.2,7.2,0,0,1-3.7-.9l.6-1.6a5.5,5.5,0,0,0,3.2.9c2.1,0,3.6-1.1,3.6-3.9v-1.2h0a4.3,4.3,0,0,1-3.6,1.8c-2.7,0-4.7-2.3-4.7-5.4s2.4-5.9,5-5.9a3.8,3.8,0,0,1,3.5,1.9h0V168Zm-2.1,4.4a2.8,2.8,0,0,0-.1-.9,2.9,2.9,0,0,0-2.9-2.1c-1.9,0-3.3,1.6-3.3,4.2s1.1,4,3.3,4a2.9,2.9,0,0,0,2.8-2.1,3.6,3.6,0,0,0,.2-1.1Z" style="fill: #fff"/>
          <path d="M644.2,173.5c0,4.1-2.8,5.9-5.5,5.9a5.3,5.3,0,0,1-5.4-5.7c0-3.7,2.5-5.9,5.6-5.9S644.2,170.1,644.2,173.5Zm-8.8.1c0,2.5,1.4,4.3,3.4,4.3s3.3-1.8,3.3-4.3-.9-4.3-3.3-4.3S635.4,171.5,635.4,173.6Z" style="fill: #fff"/>
          <path d="M646.5,177.1a5.1,5.1,0,0,0,2.7.8c1.4,0,2.1-.7,2.1-1.6s-.6-1.5-2-2.1-3-1.8-3-3.1,1.5-3.3,3.8-3.3a5.2,5.2,0,0,1,2.8.7l-.5,1.5a4.5,4.5,0,0,0-2.3-.7c-1.2,0-1.9.7-1.9,1.5s.7,1.4,2.2,1.9,2.9,1.7,2.9,3.4-1.5,3.3-4.2,3.3a5.9,5.9,0,0,1-3.1-.8Z" style="fill: #fff"/>
          <path d="M562.8,206.8v-9.6h-1.6v-1.6h1.6V195a4.4,4.4,0,0,1,4.8-4.8,5.9,5.9,0,0,1,2.9.7l-.6,1.6a3.9,3.9,0,0,0-2.3-.7c-2.2,0-2.8,1.5-2.8,3.3v.5h6.5v11.2h-2v-9.6h-4.5v9.6Z" style="fill: #fff"/>
          <path d="M584.2,190.5v13.4c0,1,.1,2.1.1,2.9h-1.8v-2h0a4.1,4.1,0,0,1-3.8,2.2c-2.7,0-4.8-2.2-4.8-5.6s2.3-6,5-6a3.8,3.8,0,0,1,3.4,1.7h0v-6.6Zm-2,9.7a2.8,2.8,0,0,0-.1-.9,2.9,2.9,0,0,0-2.9-2.3c-2.1,0-3.3,1.8-3.3,4.3s1.1,4.1,3.3,4.1a3,3,0,0,0,2.9-2.4,2.8,2.8,0,0,0,.1-.9Z" style="fill: #fff"/>
          <path d="M596.9,203.7a29.1,29.1,0,0,0,.1,3.1h-1.8V205H595a4.1,4.1,0,0,1-3.6,2c-1.8,0-3.9-.9-3.9-4.8v-6.6h2v6.2c0,2.1.7,3.6,2.5,3.6a3,3,0,0,0,2.7-1.9,3.6,3.6,0,0,0,.2-1v-6.9h2Z" style="fill: #fff"/>
          <path d="M608.2,206.4a8.9,8.9,0,0,1-3.2.6c-3.4,0-5.5-2.3-5.5-5.7a5.6,5.6,0,0,1,5.9-5.9,6.1,6.1,0,0,1,2.8.6l-.4,1.6a4.6,4.6,0,0,0-2.4-.6c-2.5,0-3.9,1.9-3.9,4.2a3.9,3.9,0,0,0,3.9,4.2,5.4,5.4,0,0,0,2.5-.6Z" style="fill: #fff"/>
          <path d="M612.8,192.5a1.3,1.3,0,0,1-1.3,1.3,1.2,1.2,0,0,1-1.2-1.3,1.2,1.2,0,0,1,1.3-1.2A1.2,1.2,0,0,1,612.8,192.5Zm-2.2,14.3V195.6h2v11.2Z" style="fill: #fff"/>
          <path d="M622.1,206.8v-1.4h-.1a4.3,4.3,0,0,1-3.4,1.6,3.1,3.1,0,0,1-3.4-3.2c0-2.7,2.4-4.1,6.7-4.1v-.2a2.3,2.3,0,0,0-2.6-2.6,5.7,5.7,0,0,0-2.9.8l-.4-1.3a6.6,6.6,0,0,1,3.6-1c3.4,0,4.3,2.3,4.3,4.5v4.2a11.4,11.4,0,0,0,.2,2.7Zm-.3-5.7c-2.2,0-4.7.3-4.7,2.5a1.8,1.8,0,0,0,1.9,1.9,2.7,2.7,0,0,0,2.7-1.8,1.7,1.7,0,0,0,.1-.7Z" style="fill: #fff"/>
          <path d="M627,199.1c0-1.3,0-2.4-.1-3.5h1.8v2.2h.1a3.3,3.3,0,0,1,3.1-2.4h.5v1.9h-.7a2.9,2.9,0,0,0-2.7,2.6c0,.3-.1.6-.1.9v6h-2Z" style="fill: #fff"/>
          <path d="M636.9,192.5a1.3,1.3,0,0,1-1.3,1.3,1.2,1.2,0,0,1-1.2-1.3,1.2,1.2,0,0,1,1.3-1.2A1.2,1.2,0,0,1,636.9,192.5Zm-2.3,14.3V195.6h2.1v11.2Z" style="fill: #fff"/>
          <path d="M650.1,201.1c0,4.1-2.8,5.9-5.5,5.9s-5.4-2.2-5.4-5.7,2.5-5.9,5.5-5.9S650.1,197.7,650.1,201.1Zm-8.8.1c0,2.5,1.4,4.3,3.4,4.3s3.3-1.8,3.3-4.3-.9-4.3-3.3-4.3S641.3,199.1,641.3,201.2Z" style="fill: #fff"/>
          <path d="M652.4,204.7a5,5,0,0,0,2.6.8c1.5,0,2.2-.7,2.2-1.6s-.6-1.5-2.1-2.1-2.9-1.8-2.9-3.1,1.4-3.3,3.8-3.3a5.2,5.2,0,0,1,2.8.7l-.5,1.5a4.5,4.5,0,0,0-2.3-.7c-1.2,0-1.9.7-1.9,1.5s.7,1.4,2.1,1.9,3,1.7,3,3.4-1.6,3.3-4.2,3.3a5.9,5.9,0,0,1-3.1-.8Z" style="fill: #fff"/>
        </g>
      </g>
      <g class="hoverable" onclick="returnToGroups(); changeImage('rueda');">
        <circle cx="127.5" cy="192.7" r="127" style="fill: none;stroke: #aab8bd;stroke-miterlimit: 10"/>
        <circle cx="127.7" cy="190.9" r="105" style="fill: #bdc4c6"/>
        <g>
          <path d="M60.6,181.7h8.3v2.1H63.2v3.9h5.3v2.2H63.2v6H60.6Z" style="fill: #112025"/>
          <path d="M74,181.7v14.2H71.4V181.7Z" style="fill: #112025"/>
          <path d="M77,195.9V181.7h3l3.6,6.1a36.7,36.7,0,0,1,2.5,4.8h0a57.2,57.2,0,0,1-.2-6v-4.9h2.4v14.2H85.6l-3.7-6.2a47.4,47.4,0,0,1-2.6-5h0c.1,1.8.1,3.7.1,6v5.1Z" style="fill: #112025"/>
          <path d="M94.2,191.9l-1.3,4H90.2l4.6-14.2h3.3l4.7,14.2H100l-1.3-4Zm4-2-1.1-3.5a26.8,26.8,0,0,1-.7-2.7h0c-.3.9-.5,1.9-.7,2.7l-1.1,3.5Z" style="fill: #112025"/>
          <path d="M104.8,195.9V181.7h2.9l3.7,6.1a26.9,26.9,0,0,1,2.4,4.8h.1a57.2,57.2,0,0,1-.2-6v-4.9h2.4v14.2h-2.7l-3.7-6.2a34,34,0,0,1-2.6-5H107c.1,1.8.2,3.7.2,6v5.1Z" style="fill: #112025"/>
          <path d="M129.3,195.5a9.6,9.6,0,0,1-3.7.6c-4.5,0-7.3-2.8-7.3-7.1s3.3-7.6,7.7-7.6a7.2,7.2,0,0,1,3.4.7l-.5,2a10.1,10.1,0,0,0-2.8-.5c-2.9,0-5,1.8-5,5.2s1.8,5.2,4.9,5.2a7.9,7.9,0,0,0,2.9-.5Z" style="fill: #112025"/>
          <path d="M134.1,181.7v14.2h-2.6V181.7Z" style="fill: #112025"/>
          <path d="M140,191.9l-1.3,4H136l4.6-14.2h3.3l4.7,14.2h-2.8l-1.3-4Zm4-2-1.1-3.5c-.2-.9-.5-1.8-.7-2.7h0c-.2.9-.5,1.9-.7,2.7l-1.1,3.5Z" style="fill: #112025"/>
          <path d="M160.3,195.5a9,9,0,0,1-3.6.6c-4.6,0-7.3-2.8-7.3-7.1a7.2,7.2,0,0,1,7.6-7.6,8.1,8.1,0,0,1,3.5.7l-.6,2a9.4,9.4,0,0,0-2.8-.5c-2.9,0-5,1.8-5,5.2s1.9,5.2,5,5.2a7.8,7.8,0,0,0,2.8-.5Z" style="fill: #112025"/>
          <path d="M165.2,181.7v14.2h-2.6V181.7Z" style="fill: #112025"/>
          <path d="M180.8,188.7c0,4.7-2.9,7.5-6.8,7.5s-6.6-3.1-6.6-7.3,2.8-7.5,6.8-7.5S180.8,184.6,180.8,188.7Zm-10.6.2c0,2.9,1.4,5.2,3.9,5.2s4-2.4,4-5.3-1.4-5.3-4-5.3S170.2,185.9,170.2,188.9Zm7.3-10.6-2.6,2.6h-2.1l1.9-2.6Z" style="fill: #112025"/>
          <path d="M183.1,195.9V181.7H186l3.7,6.1a26.9,26.9,0,0,1,2.4,4.8h.1a56,56,0,0,1-.3-6v-4.9h2.5v14.2h-2.7l-3.8-6.2a46.6,46.6,0,0,1-2.5-5h-.1c.1,1.8.2,3.7.2,6v5.1Z" style="fill: #112025"/>
        </g>
      </g>
    </g>
  </g>
</svg>
