<svg class="animate__animated" xmlns="http://www.w3.org/2000/svg" viewBox="0 0 734 277.3">
  <g id="Capa_2" data-name="Capa 2">
    <g id="Capa_1-2" data-name="Capa 1">
      <g class="hoverable" onclick="returnToGroups(); changeImage('rueda');">
        <circle cx="127.5" cy="149.8" r="127" style="fill: none;stroke: #aab8bd;stroke-miterlimit: 10"/>
        <circle cx="127.7" cy="148" r="105" style="fill: #bdc4c6"/>
        <g>
          <path d="M60.6,134.2h8.3v2.1H63.2v4h5.3v2.1H63.2v6.1H60.6Z" style="fill: #112025"/>
          <path d="M74,134.2v14.3H71.4V134.2Z" style="fill: #112025"/>
          <path d="M77,148.5V134.2h3l3.6,6.1a44.4,44.4,0,0,1,2.5,4.8h0a55.3,55.3,0,0,1-.2-5.9v-5h2.4v14.3H85.6l-3.7-6.3c-.9-1.6-1.9-3.3-2.6-4.9h0c.1,1.8.1,3.7.1,6.1v5.1Z" style="fill: #112025"/>
          <path d="M94.2,144.4l-1.3,4.1H90.2l4.6-14.3h3.3l4.7,14.3H100l-1.3-4.1Zm4-1.9-1.1-3.6a25,25,0,0,1-.7-2.6h0a25,25,0,0,0-.7,2.6l-1.1,3.6Z" style="fill: #112025"/>
          <path d="M104.8,148.5V134.2h2.9l3.7,6.1a30.7,30.7,0,0,1,2.4,4.8h.1a55.3,55.3,0,0,1-.2-5.9v-5h2.4v14.3h-2.7l-3.7-6.3a38.7,38.7,0,0,1-2.6-4.9H107c.1,1.8.2,3.7.2,6.1v5.1Z" style="fill: #112025"/>
          <path d="M129.3,148a7.7,7.7,0,0,1-3.7.7c-4.5,0-7.3-2.9-7.3-7.2s3.3-7.5,7.7-7.5a7.5,7.5,0,0,1,3.4.6l-.5,2.1a7.3,7.3,0,0,0-2.8-.6c-2.9,0-5,1.8-5,5.3s1.8,5.1,4.9,5.1a7.9,7.9,0,0,0,2.9-.5Z" style="fill: #112025"/>
          <path d="M134.1,134.2v14.3h-2.6V134.2Z" style="fill: #112025"/>
          <path d="M140,144.4l-1.3,4.1H136l4.6-14.3h3.3l4.7,14.3h-2.8l-1.3-4.1Zm4-1.9-1.1-3.6-.7-2.6h0l-.7,2.6-1.1,3.6Z" style="fill: #112025"/>
          <path d="M160.3,148a7.2,7.2,0,0,1-3.6.7c-4.6,0-7.3-2.9-7.3-7.2s3.2-7.5,7.6-7.5a8.4,8.4,0,0,1,3.5.6l-.6,2.1a6.9,6.9,0,0,0-2.8-.6c-2.9,0-5,1.8-5,5.3s1.9,5.1,5,5.1a7.8,7.8,0,0,0,2.8-.5Z" style="fill: #112025"/>
          <path d="M165.2,134.2v14.3h-2.6V134.2Z" style="fill: #112025"/>
          <path d="M180.8,141.2c0,4.8-2.9,7.5-6.8,7.5s-6.6-3.1-6.6-7.3,2.8-7.4,6.8-7.4S180.8,137.1,180.8,141.2Zm-10.6.2c0,2.9,1.4,5.2,3.9,5.2s4-2.3,4-5.3-1.4-5.2-4-5.2S170.2,138.5,170.2,141.4Zm7.3-10.5-2.6,2.5h-2.1l1.9-2.5Z" style="fill: #112025"/>
          <path d="M183.1,148.5V134.2H186l3.7,6.1a30.7,30.7,0,0,1,2.4,4.8h.1a54.1,54.1,0,0,1-.3-5.9v-5h2.5v14.3h-2.7l-3.8-6.3c-.9-1.6-1.8-3.3-2.5-4.9h-.1c.1,1.8.2,3.7.2,6.1v5.1Z" style="fill: #112025"/>
        </g>
      </g>
      <g class="hoverable" onclick="returnToTypesInstrument(); changeImage('financiacion/F_Herramienta_Segundo_Plano');">
        <path d="M453.3,197.7,281.7,171.6a156.9,156.9,0,0,0,1.8-23.8,155,155,0,0,0-4.8-38.5L446.9,66.5a327,327,0,0,1,10.2,81.3A332.3,332.3,0,0,1,453.3,197.7Z" style="fill: #3f3793"/>
        <path d="M444.8,196.5,277.7,171.1a148.7,148.7,0,0,0,1.7-23.1,152.4,152.4,0,0,0-4.6-37.6L438.6,68.8a323.6,323.6,0,0,1,9.8,79.2A327.8,327.8,0,0,1,444.8,196.5Z" style="fill: #d36caf"/>
        <g>
          <path d="M308.4,118.8H316v1.5h-5.8V125h5.4v1.5h-5.3v6.4h-1.8Z" style="fill: #fff"/>
          <path d="M327,128a5,5,0,0,1-5.2,5.3c-2.7,0-4.8-2.1-4.8-5.3s2.3-5.4,5.1-5.3S327,124.9,327,128Zm-8.1,0c0,2.2,1.2,3.9,3,3.9s3.1-1.6,3.2-3.9-.9-3.9-3-3.9S318.9,126,318.9,128Z" style="fill: #fff"/>
          <path d="M329.3,126.2V123h1.6v2h.1a3.2,3.2,0,0,1,2.8-2.2h.6v1.7h-.6a2.6,2.6,0,0,0-2.5,2.3c0,.3-.1.6-.1.9v5.4h-1.8Z" style="fill: #fff"/>
          <path d="M336.3,125.8a22.6,22.6,0,0,0-.1-2.7h1.6v1.6h.1a3.4,3.4,0,0,1,3.2-1.9A2.9,2.9,0,0,1,344,125h.1a3.6,3.6,0,0,1,1.1-1.3,3.3,3.3,0,0,1,2.3-.7c1.3,0,3.3.9,3.3,4.5v5.9h-1.8v-5.7c.1-2-.6-3.2-2.1-3.2a2.4,2.4,0,0,0-2.2,1.7,2,2,0,0,0-.2.9v6.3h-1.8v-6.1c0-1.6-.7-2.8-2.1-2.8a2.6,2.6,0,0,0-2.3,1.8,2.8,2.8,0,0,0-.1.9v6.2h-1.8Z" style="fill: #fff"/>
          <path d="M362.2,130.8a23.5,23.5,0,0,0,.1,2.8h-1.7v-1.7h0a3.7,3.7,0,0,1-3.4,1.8c-1.6,0-3.5-.9-3.4-4.4v-6h1.9V129c0,1.9.6,3.2,2.3,3.2a2.6,2.6,0,0,0,2.4-1.6,3,3,0,0,0,.2-1v-6.2h1.8Z" style="fill: #fff"/>
          <path d="M365.4,118.7h1.9l-.2,14.9h-1.8Z" style="fill: #fff"/>
          <path d="M375.8,133.7v-1.2h-.1a3.3,3.3,0,0,1-3.1,1.4,2.9,2.9,0,0,1-3.1-2.9c.1-2.5,2.3-3.8,6.2-3.7v-.2a2.1,2.1,0,0,0-2.3-2.4,5.6,5.6,0,0,0-2.6.7l-.4-1.2a6.4,6.4,0,0,1,3.3-.9c3.1.1,3.8,2.2,3.8,4.2v3.8a19.3,19.3,0,0,0,.1,2.5Zm-.2-5.1c-2-.1-4.3.2-4.3,2.2a1.7,1.7,0,0,0,1.7,1.8,2.6,2.6,0,0,0,2.5-1.7,1.3,1.3,0,0,0,.1-.6Z" style="fill: #fff"/>
          <path d="M387.6,133.5a6.3,6.3,0,0,1-2.9.6,4.9,4.9,0,0,1-5-5.3,5.1,5.1,0,0,1,5.5-5.3,6.8,6.8,0,0,1,2.5.5l-.4,1.5a3.6,3.6,0,0,0-2.1-.5c-2.4-.1-3.6,1.6-3.7,3.8a3.5,3.5,0,0,0,3.5,3.8,4.4,4.4,0,0,0,2.3-.5Z" style="fill: #fff"/>
          <path d="M392,120.9a1,1,0,0,1-1.2,1.1,1,1,0,0,1-1.1-1.1,1.1,1.1,0,0,1,1.1-1.1A1.1,1.1,0,0,1,392,120.9Zm-2.3,13,.2-10.1h1.8v10.1Z" style="fill: #fff"/>
          <path d="M403.9,128.9a5,5,0,0,1-5.1,5.4A4.8,4.8,0,0,1,394,129a5,5,0,0,1,5.1-5.4C402,123.7,403.9,125.8,403.9,128.9Zm-8.1,0c0,2.3,1.3,4,3.1,4s3.1-1.6,3.1-3.9-.8-3.9-3-4S395.9,127,395.8,128.9Zm6-9.4-2.6,3h-1.3l1.9-3Z" style="fill: #fff"/>
          <path d="M406.3,126.7a22.6,22.6,0,0,0-.1-2.7h1.7v1.7h.1a3.7,3.7,0,0,1,3.4-1.9c1.4,0,3.5.9,3.5,4.4v6H413v-5.8c0-1.7-.6-3.1-2.4-3.1a2.8,2.8,0,0,0-2.5,1.9c0,.2-.1.5-.1.8v6.1h-1.8Z" style="fill: #fff"/>
          <path d="M315.5,143.1v12.3a22.5,22.5,0,0,0,0,2.6h-1.7v-1.8h-.1a3.7,3.7,0,0,1-3.4,2c-2.5-.1-4.4-2.2-4.3-5.3s2.1-5.4,4.6-5.4a3.5,3.5,0,0,1,3,1.6h.1v-6Zm-2,8.8c.1-.2,0-.5,0-.7a2.8,2.8,0,0,0-2.7-2.2c-1.9,0-3,1.6-3.1,3.9s1,3.8,3,3.8a2.8,2.8,0,0,0,2.7-2.2,1.9,1.9,0,0,0,.1-.8Z" style="fill: #fff"/>
          <path d="M319.5,153.3a3.3,3.3,0,0,0,3.4,3.6,6.7,6.7,0,0,0,2.8-.5l.3,1.3a7.9,7.9,0,0,1-3.4.6c-3.1,0-4.9-2.1-4.9-5.2s1.9-5.4,4.8-5.4,4.2,3,4.2,4.8-.1.7-.1.9Zm5.4-1.3c0-1.1-.4-3-2.5-3s-2.7,1.7-2.9,3Z" style="fill: #fff"/>
          <path d="M333.6,144.2l3.5-.2a6.3,6.3,0,0,1,4,1.2,4.3,4.3,0,0,1,1.2,3,4.1,4.1,0,0,1-1.2,3,5.8,5.8,0,0,1-4.3,1.5h-1.5v5.6h-1.8Zm1.7,6.9,1.5.2c2.3,0,3.6-1.1,3.6-3s-1.3-2.8-3.3-2.8a4.1,4.1,0,0,0-1.7.1Z" style="fill: #fff"/>
          <path d="M344.3,151.4a31.1,31.1,0,0,0-.1-3.2h1.7v2h.1a3.2,3.2,0,0,1,2.8-2.2h.5v1.7h-.6c-1.3-.1-2.2.9-2.5,2.3a2.5,2.5,0,0,0-.1.9v5.4h-1.8Z" style="fill: #fff"/>
          <path d="M360.1,153.4a4.9,4.9,0,0,1-5.1,5.3c-2.8,0-4.9-2.1-4.8-5.3a4.9,4.9,0,0,1,5.1-5.3C358.2,148.1,360.2,150.3,360.1,153.4Zm-8.1,0c0,2.2,1.3,3.9,3.1,3.9s3.1-1.6,3.1-3.9-.8-3.9-3-3.9S352.1,151.5,352,153.4Z" style="fill: #fff"/>
          <path d="M363,148.4l2.2,6.1.6,2h0c.2-.6.5-1.3.7-2.1l2.1-5.9h2l-2.9,7.2c-1.4,3.5-2.3,5.3-3.6,6.3a5.4,5.4,0,0,1-2.2,1.2l-.5-1.5a6.5,6.5,0,0,0,1.6-.9,4.5,4.5,0,0,0,1.6-2.1l.2-.4a4.3,4.3,0,0,1-.1-.5l-3.7-9.4Z" style="fill: #fff"/>
          <path d="M373,154a3.2,3.2,0,0,0,3.4,3.5,5.6,5.6,0,0,0,2.9-.5l.3,1.4a8.6,8.6,0,0,1-3.4.6,4.8,4.8,0,0,1-5-5.2c.1-3.1,1.9-5.5,4.9-5.4s4.1,2.9,4.1,4.8a2.2,2.2,0,0,1-.1.9Zm5.4-1.3a2.5,2.5,0,0,0-2.5-3c-1.9,0-2.7,1.7-2.9,2.9Z" style="fill: #fff"/>
          <path d="M389.7,158.5a6.3,6.3,0,0,1-2.9.6c-3.1,0-5.1-2.1-5-5.3a5.1,5.1,0,0,1,5.5-5.3,5.1,5.1,0,0,1,2.5.6l-.4,1.4a3.6,3.6,0,0,0-2.1-.5c-2.4,0-3.6,1.7-3.7,3.8a3.5,3.5,0,0,0,3.5,3.8,5.9,5.9,0,0,0,2.3-.4Z" style="fill: #fff"/>
          <path d="M394.5,145.9v2.9h2.6v1.4h-2.7v5.5c0,1.3.3,2,1.3,2h1.1V159l-1.7.2a2.4,2.4,0,0,1-1.9-.8,3.6,3.6,0,0,1-.7-2.7v-5.5h-1.5v-1.4h1.6v-2.4Z" style="fill: #fff"/>
          <path d="M408.2,154a4.9,4.9,0,0,1-5.1,5.3c-2.8,0-4.9-2.1-4.8-5.3a4.9,4.9,0,0,1,5.1-5.3C406.3,148.7,408.2,150.9,408.2,154Zm-8.1,0c0,2.2,1.3,3.9,3.1,3.9s3.1-1.6,3.1-3.9-.8-3.9-3-3.9S400.2,152.1,400.1,154Z" style="fill: #fff"/>
          <path d="M410.2,157.3a5.7,5.7,0,0,0,2.5.8,1.8,1.8,0,0,0,2-1.5c0-.9-.6-1.4-1.9-1.9s-2.7-1.7-2.7-2.9,1.4-3,3.6-3a4.6,4.6,0,0,1,2.5.7l-.5,1.3a4.4,4.4,0,0,0-2.1-.6c-1.1,0-1.7.6-1.7,1.4s.6,1.2,1.9,1.7,2.7,1.6,2.6,3.1-1.4,3-3.8,3a5.8,5.8,0,0,1-2.8-.7Z" style="fill: #fff"/>
        </g>
      </g>
      <g class="hoverable" onclick="showInstrument('financiacion', 'formulacion_de_proyectos', 'formulacion_de_proyectos');">
        <path d="M726,246.8l-236.9-39a358,358,0,0,0,4.9-59.4,373.8,373.8,0,0,0-11.1-89.9L715.6,0A609.3,609.3,0,0,1,734,148.4,611.3,611.3,0,0,1,726,246.8Z" style="fill: #d36caf"/>
        <g>
          <path d="M556.4,118.8H564v1.5h-5.8V125h5.4v1.5h-5.3v6.4h-1.8Z" style="fill: #fff"/>
          <path d="M575,128a5,5,0,0,1-5.2,5.3c-2.7,0-4.8-2.1-4.8-5.3s2.3-5.4,5.1-5.3S575,124.9,575,128Zm-8.1,0c0,2.2,1.2,3.9,3,3.9s3.1-1.6,3.2-3.9-.9-3.9-3-3.9S566.9,126,566.9,128Z" style="fill: #fff"/>
          <path d="M577.3,126.2V123h1.6v2h.1a3.2,3.2,0,0,1,2.8-2.2h.6v1.7h-.6a2.6,2.6,0,0,0-2.5,2.3c0,.3-.1.6-.1.9v5.4h-1.8Z" style="fill: #fff"/>
          <path d="M584.3,125.8a22.6,22.6,0,0,0-.1-2.7h1.6v1.6h.1a3.4,3.4,0,0,1,3.2-1.9A2.9,2.9,0,0,1,592,125h.1a3.6,3.6,0,0,1,1.1-1.3,3.3,3.3,0,0,1,2.3-.7c1.3,0,3.3.9,3.3,4.5v5.9h-1.8v-5.7c.1-2-.6-3.2-2.1-3.2a2.4,2.4,0,0,0-2.2,1.7,2,2,0,0,0-.2.9v6.3h-1.8v-6.1c0-1.6-.7-2.8-2.1-2.8a2.6,2.6,0,0,0-2.3,1.8,2.8,2.8,0,0,0-.1.9v6.2h-1.8Z" style="fill: #fff"/>
          <path d="M610.2,130.8a23.5,23.5,0,0,0,.1,2.8h-1.7v-1.7h0a3.7,3.7,0,0,1-3.4,1.8c-1.6,0-3.5-.9-3.4-4.4v-6h1.9V129c0,1.9.6,3.2,2.3,3.2a2.6,2.6,0,0,0,2.4-1.6,3,3,0,0,0,.2-1v-6.2h1.8Z" style="fill: #fff"/>
          <path d="M613.4,118.7h1.9l-.2,14.9h-1.8Z" style="fill: #fff"/>
          <path d="M623.8,133.7v-1.2h-.1a3.3,3.3,0,0,1-3.1,1.4,2.9,2.9,0,0,1-3.1-2.9c.1-2.5,2.3-3.8,6.2-3.7v-.2a2.1,2.1,0,0,0-2.3-2.4,5.6,5.6,0,0,0-2.6.7l-.4-1.2a6.4,6.4,0,0,1,3.3-.9c3.1.1,3.8,2.2,3.8,4.2v3.8a19.3,19.3,0,0,0,.1,2.5Zm-.2-5.1c-2-.1-4.3.2-4.3,2.2a1.7,1.7,0,0,0,1.7,1.8,2.6,2.6,0,0,0,2.5-1.7,1.3,1.3,0,0,0,.1-.6Z" style="fill: #fff"/>
          <path d="M635.6,133.5a6.3,6.3,0,0,1-2.9.6,4.9,4.9,0,0,1-5-5.3,5.1,5.1,0,0,1,5.5-5.3,6.8,6.8,0,0,1,2.5.5l-.4,1.5a3.6,3.6,0,0,0-2.1-.5c-2.4-.1-3.6,1.6-3.7,3.8a3.5,3.5,0,0,0,3.5,3.8,4.4,4.4,0,0,0,2.3-.5Z" style="fill: #fff"/>
          <path d="M640,120.9a1,1,0,0,1-1.2,1.1,1,1,0,0,1-1.1-1.1,1.1,1.1,0,0,1,1.1-1.1A1.1,1.1,0,0,1,640,120.9Zm-2.3,13,.2-10.1h1.8v10.1Z" style="fill: #fff"/>
          <path d="M651.9,128.9a5,5,0,0,1-5.1,5.4A4.8,4.8,0,0,1,642,129a5,5,0,0,1,5.1-5.4C650,123.7,651.9,125.8,651.9,128.9Zm-8.1,0c0,2.3,1.3,4,3.1,4s3.1-1.6,3.1-3.9-.8-3.9-3-4S643.9,127,643.8,128.9Zm6-9.4-2.6,3h-1.3l1.9-3Z" style="fill: #fff"/>
          <path d="M654.3,126.7a22.6,22.6,0,0,0-.1-2.7h1.7v1.7h.1a3.7,3.7,0,0,1,3.4-1.9c1.4,0,3.5.9,3.5,4.4v6H661v-5.8c0-1.7-.6-3.1-2.4-3.1a2.8,2.8,0,0,0-2.5,1.9c0,.2-.1.5-.1.8v6.1h-1.8Z" style="fill: #fff"/>
          <path d="M563.5,143.1v12.3a22.5,22.5,0,0,0,0,2.6h-1.7v-1.8h-.1a3.7,3.7,0,0,1-3.4,2c-2.5-.1-4.4-2.2-4.3-5.3s2.1-5.4,4.6-5.4a3.5,3.5,0,0,1,3,1.6h.1v-6Zm-2,8.8c.1-.2,0-.5,0-.7a2.8,2.8,0,0,0-2.7-2.2c-1.9,0-3,1.6-3.1,3.9s1,3.8,3,3.8a2.8,2.8,0,0,0,2.7-2.2,1.9,1.9,0,0,0,.1-.8Z" style="fill: #fff"/>
          <path d="M567.5,153.3a3.3,3.3,0,0,0,3.4,3.6,6.7,6.7,0,0,0,2.8-.5l.3,1.3a7.9,7.9,0,0,1-3.4.6c-3.1,0-4.9-2.1-4.9-5.2s1.9-5.4,4.8-5.4,4.2,3,4.2,4.8-.1.7-.1.9Zm5.4-1.3c0-1.1-.4-3-2.5-3s-2.7,1.7-2.9,3Z" style="fill: #fff"/>
          <path d="M581.6,144.2l3.5-.2a6.3,6.3,0,0,1,4,1.2,4.3,4.3,0,0,1,1.2,3,4.1,4.1,0,0,1-1.2,3,5.8,5.8,0,0,1-4.3,1.5h-1.5v5.6h-1.8Zm1.7,6.9,1.5.2c2.3,0,3.6-1.1,3.6-3s-1.3-2.8-3.3-2.8a4.1,4.1,0,0,0-1.7.1Z" style="fill: #fff"/>
          <path d="M592.3,151.4a31.1,31.1,0,0,0-.1-3.2h1.7v2h.1a3.2,3.2,0,0,1,2.8-2.2h.5v1.7h-.6c-1.3-.1-2.2.9-2.5,2.3a2.5,2.5,0,0,0-.1.9v5.4h-1.8Z" style="fill: #fff"/>
          <path d="M608.1,153.4a4.9,4.9,0,0,1-5.1,5.3c-2.8,0-4.9-2.1-4.8-5.3a4.9,4.9,0,0,1,5.1-5.3C606.2,148.1,608.2,150.3,608.1,153.4Zm-8.1,0c0,2.2,1.3,3.9,3.1,3.9s3.1-1.6,3.1-3.9-.8-3.9-3-3.9S600.1,151.5,600,153.4Z" style="fill: #fff"/>
          <path d="M611,148.4l2.2,6.1.6,2h0c.2-.6.5-1.3.7-2.1l2.1-5.9h2l-2.9,7.2c-1.4,3.5-2.3,5.3-3.6,6.3a5.4,5.4,0,0,1-2.2,1.2l-.5-1.5a6.5,6.5,0,0,0,1.6-.9,4.5,4.5,0,0,0,1.6-2.1l.2-.4a4.3,4.3,0,0,1-.1-.5l-3.7-9.4Z" style="fill: #fff"/>
          <path d="M621,154a3.2,3.2,0,0,0,3.4,3.5,5.6,5.6,0,0,0,2.9-.5l.3,1.4a8.6,8.6,0,0,1-3.4.6,4.8,4.8,0,0,1-5-5.2c.1-3.1,1.9-5.5,4.9-5.4s4.1,2.9,4.1,4.8a2.2,2.2,0,0,1-.1.9Zm5.4-1.3a2.5,2.5,0,0,0-2.5-3c-1.9,0-2.7,1.7-2.9,2.9Z" style="fill: #fff"/>
          <path d="M637.7,158.5a6.3,6.3,0,0,1-2.9.6c-3.1,0-5.1-2.1-5-5.3a5.1,5.1,0,0,1,5.5-5.3,5.1,5.1,0,0,1,2.5.6l-.4,1.4a3.6,3.6,0,0,0-2.1-.5c-2.4,0-3.6,1.7-3.7,3.8a3.5,3.5,0,0,0,3.5,3.8,5.9,5.9,0,0,0,2.3-.4Z" style="fill: #fff"/>
          <path d="M642.5,145.9v2.9h2.6v1.4h-2.7v5.5c0,1.3.3,2,1.3,2h1.1V159l-1.7.2a2.4,2.4,0,0,1-1.9-.8,3.6,3.6,0,0,1-.7-2.7v-5.5h-1.5v-1.4h1.6v-2.4Z" style="fill: #fff"/>
          <path d="M656.2,154a4.9,4.9,0,0,1-5.1,5.3c-2.8,0-4.9-2.1-4.8-5.3a4.9,4.9,0,0,1,5.1-5.3C654.3,148.7,656.2,150.9,656.2,154Zm-8.1,0c0,2.2,1.3,3.9,3.1,3.9s3.1-1.6,3.1-3.9-.8-3.9-3-3.9S648.2,152.1,648.1,154Z" style="fill: #fff"/>
          <path d="M658.2,157.3a5.7,5.7,0,0,0,2.5.8,1.8,1.8,0,0,0,2-1.5c0-.9-.6-1.4-1.9-1.9s-2.7-1.7-2.7-2.9,1.4-3,3.6-3a4.6,4.6,0,0,1,2.5.7l-.5,1.3a4.4,4.4,0,0,0-2.1-.6c-1.1,0-1.7.6-1.7,1.4s.6,1.2,1.9,1.7,2.7,1.6,2.6,3.1-1.4,3-3.8,3a5.8,5.8,0,0,1-2.8-.7Z" style="fill: #fff"/>
        </g>
      </g>
    </g>
  </g>
</svg>
