<svg class="animate__animated" xmlns="http://www.w3.org/2000/svg" viewBox="0 0 734 277.3">
  <g id="Capa_2" data-name="Capa 2">
    <g id="Capa_1-2" data-name="Capa 1">
      <g class="hoverable" onclick="returnToTypesInstrument(); changeImage('financiacion/F_Herramienta_Segundo_Plano');">
        <path d="M453.3,197.7,281.7,171.6a156.9,156.9,0,0,0,1.8-23.8,155,155,0,0,0-4.8-38.5L446.9,66.5a327,327,0,0,1,10.2,81.3A332.3,332.3,0,0,1,453.3,197.7Z" style="fill: #37276e"/>
        <path d="M444.8,196.5,277.7,171.1a148.7,148.7,0,0,0,1.7-23.1,152.4,152.4,0,0,0-4.6-37.6L438.6,68.8a323.6,323.6,0,0,1,9.8,79.2A327.8,327.8,0,0,1,444.8,196.5Z" style="fill: #e27aaf"/>
        <g>
          <path d="M299.6,116.1v14.2h-1.8V116.1Z" style="fill: #fff"/>
          <path d="M302.9,122.9a24.4,24.4,0,0,0-.1-2.8h1.7v1.7h0a3.7,3.7,0,0,1,3.4-1.9c1.4,0,3.6.8,3.6,4.3v6.1h-1.9v-5.9c0-1.6-.6-3-2.3-3a2.7,2.7,0,0,0-2.5,1.9,2.5,2.5,0,0,0-.1.9v6.1h-1.9Z" style="fill: #fff"/>
          <path d="M315,120.1l2,5.7a18.6,18.6,0,0,1,.8,2.6h.1a20.3,20.3,0,0,1,.9-2.6l1.9-5.7h2l-4,10.2h-1.8l-3.8-10.2Z" style="fill: #fff"/>
          <path d="M325.2,125.5a3.4,3.4,0,0,0,3.5,3.6,6.5,6.5,0,0,0,2.8-.6l.3,1.4a7.7,7.7,0,0,1-3.3.6c-3.2,0-5-2.1-5-5.1s1.8-5.5,4.7-5.5,4.2,2.9,4.2,4.8v.8Zm5.4-1.3a2.5,2.5,0,0,0-2.5-3,3,3,0,0,0-2.8,3Z" style="fill: #fff"/>
          <path d="M334.7,123.3c0-1.2,0-2.2-.1-3.2h1.7v2h.1a3.2,3.2,0,0,1,2.8-2.2h.5v1.7h-.6a2.7,2.7,0,0,0-2.5,2.4c0,.3-.1.6-.1.9v5.4h-1.8Z" style="fill: #fff"/>
          <path d="M341.3,128.4a4.6,4.6,0,0,0,2.5.7c1.3,0,1.9-.6,1.9-1.5s-.5-1.3-1.8-1.9-2.7-1.6-2.7-2.8,1.3-3,3.5-3a5.7,5.7,0,0,1,2.5.6l-.5,1.4a3.5,3.5,0,0,0-2.1-.6c-1.1,0-1.7.6-1.7,1.4s.6,1.2,2,1.7,2.6,1.5,2.6,3-1.4,3.1-3.8,3.1a5.8,5.8,0,0,1-2.8-.7Z" style="fill: #fff"/>
          <path d="M352,117.3a1.1,1.1,0,0,1-1.2,1.1,1,1,0,0,1-1.1-1.1,1.1,1.1,0,0,1,1.1-1.2A1.2,1.2,0,0,1,352,117.3Zm-2.1,13V120.1h1.9v10.2Z" style="fill: #fff"/>
          <path d="M364,125.1c0,3.8-2.6,5.4-5,5.4s-4.9-2-4.9-5.2,2.2-5.4,5-5.4S364,122,364,125.1Zm-8,.1c0,2.2,1.2,3.9,3,3.9s3.1-1.6,3.1-3.9-.8-3.9-3-3.9S356,123.3,356,125.2Zm5.8-9.5-2.6,3h-1.3l1.9-3Z" style="fill: #fff"/>
          <path d="M366.3,122.9v-2.8h1.6v1.7h0a3.8,3.8,0,0,1,3.4-1.9c1.4,0,3.6.8,3.6,4.3v6.1h-1.9v-5.9c0-1.6-.6-3-2.3-3a2.7,2.7,0,0,0-2.5,1.9,2.5,2.5,0,0,0-.1.9v6.1h-1.9Z" style="fill: #fff"/>
          <path d="M302.3,155.5v-8.8h-1.4v-1.4h1.4v-.5a5,5,0,0,1,1.2-3.5,3.5,3.5,0,0,1,2.5-1,6.5,6.5,0,0,1,1.6.3l-.3,1.5a1.9,1.9,0,0,0-1.2-.3c-1.5,0-1.9,1.4-1.9,3v.5h2.4v1.4h-2.4v8.8Z" style="fill: #fff"/>
          <path d="M317.2,150.3c0,3.8-2.6,5.4-5.1,5.4s-4.8-2-4.8-5.2,2.2-5.4,5-5.4S317.2,147.2,317.2,150.3Zm-8.1.1c0,2.2,1.3,3.9,3.1,3.9s3.1-1.6,3.1-3.9-.8-3.9-3-3.9S309.1,148.5,309.1,150.4Z" style="fill: #fff"/>
          <path d="M319.5,148.5v-3.2h1.6v2h.1a3.2,3.2,0,0,1,2.8-2.2h.6v1.7h-.7a2.5,2.5,0,0,0-2.4,2.4,2.8,2.8,0,0,0-.1.9v5.4h-1.9Z" style="fill: #fff"/>
          <path d="M325.4,154.4l4.6-6,1.4-1.5h-5.5v-1.5h7.7v1.2l-4.5,5.9a10.1,10.1,0,0,0-1.3,1.6h5.9v1.5h-8.3Z" style="fill: #fff"/>
          <path d="M344.6,150.3c0,3.8-2.6,5.4-5,5.4s-4.9-2-4.9-5.2,2.2-5.4,5-5.4S344.6,147.2,344.6,150.3Zm-8,.1c0,2.2,1.3,3.9,3.1,3.9s3-1.6,3-3.9-.8-3.9-3-3.9S336.6,148.5,336.6,150.4Z" style="fill: #fff"/>
          <path d="M346.7,153.6a4.5,4.5,0,0,0,2.4.7c1.4,0,2-.6,2-1.5s-.5-1.3-1.9-1.9-2.7-1.6-2.7-2.8,1.4-3,3.6-3a5.7,5.7,0,0,1,2.5.6l-.5,1.4a3.5,3.5,0,0,0-2.1-.6c-1.1,0-1.7.6-1.7,1.4s.6,1.2,1.9,1.7,2.7,1.5,2.7,3-1.4,3.1-3.8,3.1a5.8,5.8,0,0,1-2.8-.7Z" style="fill: #fff"/>
          <path d="M360.9,155.5v-1.3h-.1a3.9,3.9,0,0,1-3.1,1.5,2.8,2.8,0,0,1-3.1-2.9c0-2.5,2.2-3.8,6.1-3.8v-.2a2.1,2.1,0,0,0-2.3-2.3,5,5,0,0,0-2.7.7l-.4-1.2a6.2,6.2,0,0,1,3.4-.9c3.1,0,3.8,2.1,3.8,4.1V153a18.1,18.1,0,0,0,.2,2.5Zm-.3-5.2c-2,0-4.3.3-4.3,2.3a1.6,1.6,0,0,0,1.8,1.7,2.4,2.4,0,0,0,2.4-1.7c.1-.1.1-.4.1-.5Z" style="fill: #fff"/>
          <path d="M378.6,140.6v12.3c0,.9.1,1.9.1,2.6h-1.6v-1.8h-.1a3.5,3.5,0,0,1-3.4,2c-2.5,0-4.4-2.1-4.4-5.2s2.1-5.4,4.6-5.4a3.3,3.3,0,0,1,3,1.5h.1v-6Zm-1.8,8.9a1.9,1.9,0,0,0-.1-.8,2.8,2.8,0,0,0-2.7-2.2c-1.9,0-3,1.7-3,4s1,3.7,3,3.7a2.8,2.8,0,0,0,2.7-2.2,1.9,1.9,0,0,0,.1-.8Z" style="fill: #fff"/>
          <path d="M382.7,150.7a3.4,3.4,0,0,0,3.5,3.6,6.5,6.5,0,0,0,2.8-.6l.3,1.4a7.7,7.7,0,0,1-3.3.6c-3.2,0-5-2.1-5-5.1s1.8-5.5,4.7-5.5,4.2,2.9,4.2,4.8v.8Zm5.4-1.3a2.5,2.5,0,0,0-2.5-3c-1.9,0-2.7,1.7-2.9,3Z" style="fill: #fff"/>
          <path d="M392.2,140.6h1.9v14.9h-1.9Z" style="fill: #fff"/>
          <path d="M405.1,143.6H405l-2.4,1.2-.3-1.4,3-1.6h1.5v13.7h-1.7Z" style="fill: #fff"/>
          <path d="M418,145.7c0,2.9-1.5,4.3-3.3,4.3s-3.2-1.4-3.2-4.1,1.5-4.3,3.3-4.3S418,143.1,418,145.7Zm-5,.1c-.1,1.7.6,3.1,1.7,3.1s1.8-1.3,1.8-3.1-.5-3.1-1.8-3.1S413,144.1,413,145.8Zm1.6,9.9,8-14.1h1.2l-8.1,14.1Zm12.2-4.4c0,2.9-1.5,4.3-3.2,4.3s-3.2-1.3-3.2-4.1,1.5-4.2,3.3-4.2S426.8,148.7,426.8,151.3Zm-5,.2c0,1.7.7,3,1.8,3s1.8-1.3,1.8-3.1-.5-3-1.8-3S421.8,149.7,421.8,151.5Z" style="fill: #fff"/>
          <path d="M428.6,154.4a1.2,1.2,0,0,1,1.3-1.3,1.2,1.2,0,0,1,1.2,1.3,1.3,1.3,0,0,1-1.3,1.3A1.2,1.2,0,0,1,428.6,154.4Z" style="fill: #fff"/>
        </g>
      </g>
      <g class="hoverable" onclick="showInstrument('financiacion', 'inversion_forzosa', 'inversion_forzosa');">
        <path d="M726,246.8l-236.9-39a358,358,0,0,0,4.9-59.4,373.8,373.8,0,0,0-11.1-89.9L715.6,0A609.3,609.3,0,0,1,734,148.4,611.3,611.3,0,0,1,726,246.8Z" style="fill: #e27aaf"/>
        <g>
          <path d="M575.8,116.1v14.2h-1.9V116.1Z" style="fill: #fff"/>
          <path d="M579.1,122.9a24.4,24.4,0,0,0-.1-2.8h1.7v1.7h0a3.7,3.7,0,0,1,3.4-1.9c1.4,0,3.6.8,3.6,4.3v6.1h-1.9v-5.9c0-1.6-.6-3-2.3-3a2.6,2.6,0,0,0-2.5,1.9,2.5,2.5,0,0,0-.1.9v6.1h-1.9Z" style="fill: #fff"/>
          <path d="M591.2,120.1l2,5.7c.3,1,.6,1.8.8,2.6h.1c.2-.8.5-1.6.8-2.6l2-5.7h1.9l-3.9,10.2h-1.8l-3.9-10.2Z" style="fill: #fff"/>
          <path d="M601.4,125.5c.1,2.5,1.6,3.6,3.5,3.6a6.5,6.5,0,0,0,2.8-.6l.3,1.4a7.9,7.9,0,0,1-3.4.6,4.8,4.8,0,0,1-5-5.1c0-3.1,1.9-5.5,4.8-5.5s4.2,2.9,4.2,4.8v.8Zm5.4-1.3c0-1.2-.5-3-2.5-3s-2.7,1.7-2.9,3Z" style="fill: #fff"/>
          <path d="M610.9,123.3c0-1.2,0-2.2-.1-3.2h1.6v2h.1a3.1,3.1,0,0,1,2.8-2.2h.5v1.7h-.6a2.7,2.7,0,0,0-2.5,2.4c0,.3-.1.6-.1.9v5.4h-1.8Z" style="fill: #fff"/>
          <path d="M617.5,128.4a4.6,4.6,0,0,0,2.5.7c1.3,0,1.9-.6,1.9-1.5s-.5-1.3-1.9-1.9-2.6-1.6-2.6-2.8,1.3-3,3.5-3a5.7,5.7,0,0,1,2.5.6l-.5,1.4a3.5,3.5,0,0,0-2.1-.6c-1.1,0-1.7.6-1.7,1.4s.6,1.2,1.9,1.7,2.7,1.5,2.7,3-1.4,3.1-3.8,3.1a5.8,5.8,0,0,1-2.8-.7Z" style="fill: #fff"/>
          <path d="M628.1,117.3a1,1,0,0,1-1.1,1.1,1,1,0,0,1-1.1-1.1,1.1,1.1,0,1,1,2.2,0Zm-2,13V120.1h1.8v10.2Z" style="fill: #fff"/>
          <path d="M640.2,125.1c0,3.8-2.6,5.4-5.1,5.4s-4.8-2-4.8-5.2,2.2-5.4,5-5.4S640.2,122,640.2,125.1Zm-8.1.1c0,2.2,1.3,3.9,3.1,3.9s3.1-1.6,3.1-3.9-.9-3.9-3-3.9S632.1,123.3,632.1,125.2Zm5.9-9.5-2.6,3h-1.3l1.9-3Z" style="fill: #fff"/>
          <path d="M642.5,122.9a24.4,24.4,0,0,0-.1-2.8h1.7v1.7h0a3.7,3.7,0,0,1,3.4-1.9c1.4,0,3.6.8,3.6,4.3v6.1h-1.9v-5.9c0-1.6-.6-3-2.3-3a2.7,2.7,0,0,0-2.5,1.9,2.5,2.5,0,0,0-.1.9v6.1h-1.9Z" style="fill: #fff"/>
          <path d="M550.8,155.5v-8.8h-1.4v-1.4h1.4v-.5a4.5,4.5,0,0,1,1.2-3.5,3.5,3.5,0,0,1,2.5-1,6.5,6.5,0,0,1,1.6.3l-.3,1.5a1.9,1.9,0,0,0-1.2-.3c-1.5,0-1.9,1.4-1.9,3v.5h2.4v1.4h-2.4v8.8Z" style="fill: #fff"/>
          <path d="M565.7,150.3c0,3.8-2.6,5.4-5.1,5.4s-4.8-2-4.8-5.2,2.2-5.4,5-5.4S565.7,147.2,565.7,150.3Zm-8.1.1c0,2.2,1.3,3.9,3.1,3.9s3.1-1.6,3.1-3.9-.8-3.9-3-3.9S557.6,148.5,557.6,150.4Z" style="fill: #fff"/>
          <path d="M568,148.5v-3.2h1.6v2h.1a3.2,3.2,0,0,1,2.8-2.2h.6v1.7h-.7a2.7,2.7,0,0,0-2.5,2.4v6.3H568Z" style="fill: #fff"/>
          <path d="M573.9,154.4l4.6-6,1.4-1.5h-5.5v-1.5h7.7v1.2l-4.6,5.9-1.3,1.6h6v1.5h-8.3Z" style="fill: #fff"/>
          <path d="M593.1,150.3c0,3.8-2.6,5.4-5,5.4s-4.9-2-4.9-5.2,2.2-5.4,5-5.4S593.1,147.2,593.1,150.3Zm-8,.1c0,2.2,1.2,3.9,3.1,3.9s3-1.6,3-3.9-.8-3.9-3-3.9S585.1,148.5,585.1,150.4Z" style="fill: #fff"/>
          <path d="M595.2,153.6a4.5,4.5,0,0,0,2.4.7c1.4,0,2-.6,2-1.5s-.5-1.3-1.9-1.9-2.7-1.6-2.7-2.8,1.4-3,3.5-3a5.1,5.1,0,0,1,2.5.6l-.4,1.4a3.5,3.5,0,0,0-2.1-.6c-1.1,0-1.7.6-1.7,1.4s.6,1.2,1.9,1.7,2.7,1.5,2.7,3-1.4,3.1-3.8,3.1a6.5,6.5,0,0,1-2.9-.7Z" style="fill: #fff"/>
          <path d="M609.4,155.5v-1.3h-.1a3.9,3.9,0,0,1-3.1,1.5,2.8,2.8,0,0,1-3.1-2.9c0-2.5,2.2-3.8,6.1-3.8v-.2a2.1,2.1,0,0,0-2.3-2.3,4.7,4.7,0,0,0-2.7.7l-.4-1.2a6.2,6.2,0,0,1,3.4-.9c3.1,0,3.8,2.1,3.8,4.1V153a18.1,18.1,0,0,0,.2,2.5Zm-.3-5.2c-2,0-4.3.3-4.3,2.3a1.6,1.6,0,0,0,1.8,1.7,2.4,2.4,0,0,0,2.4-1.7c.1-.1.1-.4.1-.5Z" style="fill: #fff"/>
          <path d="M627.1,140.6v12.3a20.9,20.9,0,0,0,.1,2.6h-1.6v-1.8h-.1a3.5,3.5,0,0,1-3.4,2c-2.5,0-4.4-2.1-4.4-5.2s2.1-5.4,4.6-5.4a3.3,3.3,0,0,1,3,1.5h.1v-6Zm-1.8,8.9a1.9,1.9,0,0,0-.1-.8,2.8,2.8,0,0,0-2.7-2.2c-1.9,0-3,1.7-3,4s1,3.7,3,3.7a2.8,2.8,0,0,0,2.7-2.2,1.9,1.9,0,0,0,.1-.8Z" style="fill: #fff"/>
          <path d="M631.2,150.7a3.4,3.4,0,0,0,3.5,3.6,6.5,6.5,0,0,0,2.8-.6l.3,1.4a7.7,7.7,0,0,1-3.3.6c-3.2,0-5-2.1-5-5.1s1.8-5.5,4.7-5.5,4.2,2.9,4.2,4.8v.8Zm5.4-1.3a2.5,2.5,0,0,0-2.5-3c-1.9,0-2.7,1.7-2.9,3Z" style="fill: #fff"/>
          <path d="M640.7,140.6h1.9v14.9h-1.9Z" style="fill: #fff"/>
          <path d="M653.5,143.6h0l-2.4,1.2-.3-1.4,3-1.6h1.5v13.7h-1.8Z" style="fill: #fff"/>
          <path d="M666.5,145.7c0,2.9-1.6,4.3-3.3,4.3s-3.2-1.4-3.2-4.1,1.5-4.3,3.3-4.3S666.5,143.1,666.5,145.7Zm-5,.1c-.1,1.7.6,3.1,1.7,3.1s1.8-1.3,1.8-3.1-.5-3.1-1.8-3.1S661.5,144.1,661.5,145.8Zm1.6,9.9,8-14.1h1.2l-8.1,14.1Zm12.2-4.4c0,2.9-1.5,4.3-3.2,4.3s-3.2-1.3-3.2-4.1,1.5-4.2,3.3-4.2S675.3,148.7,675.3,151.3Zm-5,.2c0,1.7.7,3,1.8,3s1.8-1.3,1.8-3.1-.5-3-1.8-3S670.3,149.7,670.3,151.5Z" style="fill: #fff"/>
          <path d="M677.1,154.4a1.2,1.2,0,0,1,1.2-1.3,1.2,1.2,0,0,1,1.3,1.3,1.3,1.3,0,0,1-1.3,1.3A1.2,1.2,0,0,1,677.1,154.4Z" style="fill: #fff"/>
        </g>
      </g>
      <g class="hoverable" onclick="returnToGroups(); changeImage('rueda');">
        <circle cx="127.5" cy="149.8" r="127" style="fill: none;stroke: #aab8bd;stroke-miterlimit: 10"/>
        <circle cx="127.7" cy="148" r="105" style="fill: #bdc4c6"/>
        <g>
          <path d="M60.6,134.2h8.3v2.1H63.2v4h5.3v2.1H63.2v6.1H60.6Z" style="fill: #112025"/>
          <path d="M74,134.2v14.3H71.4V134.2Z" style="fill: #112025"/>
          <path d="M77,148.5V134.2h3l3.6,6.1a44.4,44.4,0,0,1,2.5,4.8h0a55.3,55.3,0,0,1-.2-5.9v-5h2.4v14.3H85.6l-3.7-6.3c-.9-1.6-1.9-3.3-2.6-4.9h0c.1,1.8.1,3.7.1,6.1v5.1Z" style="fill: #112025"/>
          <path d="M94.2,144.4l-1.3,4.1H90.2l4.6-14.3h3.3l4.7,14.3H100l-1.3-4.1Zm4-1.9-1.1-3.6a25,25,0,0,1-.7-2.6h0a25,25,0,0,0-.7,2.6l-1.1,3.6Z" style="fill: #112025"/>
          <path d="M104.8,148.5V134.2h2.9l3.7,6.1a30.7,30.7,0,0,1,2.4,4.8h.1a55.3,55.3,0,0,1-.2-5.9v-5h2.4v14.3h-2.7l-3.7-6.3a38.7,38.7,0,0,1-2.6-4.9H107c.1,1.8.2,3.7.2,6.1v5.1Z" style="fill: #112025"/>
          <path d="M129.3,148a7.7,7.7,0,0,1-3.7.7c-4.5,0-7.3-2.9-7.3-7.2s3.3-7.5,7.7-7.5a7.5,7.5,0,0,1,3.4.6l-.5,2.1a7.3,7.3,0,0,0-2.8-.6c-2.9,0-5,1.8-5,5.3s1.8,5.1,4.9,5.1a7.9,7.9,0,0,0,2.9-.5Z" style="fill: #112025"/>
          <path d="M134.1,134.2v14.3h-2.6V134.2Z" style="fill: #112025"/>
          <path d="M140,144.4l-1.3,4.1H136l4.6-14.3h3.3l4.7,14.3h-2.8l-1.3-4.1Zm4-1.9-1.1-3.6-.7-2.6h0l-.7,2.6-1.1,3.6Z" style="fill: #112025"/>
          <path d="M160.3,148a7.2,7.2,0,0,1-3.6.7c-4.6,0-7.3-2.9-7.3-7.2s3.2-7.5,7.6-7.5a8.4,8.4,0,0,1,3.5.6l-.6,2.1a6.9,6.9,0,0,0-2.8-.6c-2.9,0-5,1.8-5,5.3s1.9,5.1,5,5.1a7.8,7.8,0,0,0,2.8-.5Z" style="fill: #112025"/>
          <path d="M165.2,134.2v14.3h-2.6V134.2Z" style="fill: #112025"/>
          <path d="M180.8,141.2c0,4.8-2.9,7.5-6.8,7.5s-6.6-3.1-6.6-7.3,2.8-7.4,6.8-7.4S180.8,137.1,180.8,141.2Zm-10.6.2c0,2.9,1.4,5.2,3.9,5.2s4-2.3,4-5.3-1.4-5.2-4-5.2S170.2,138.5,170.2,141.4Zm7.3-10.5-2.6,2.5h-2.1l1.9-2.5Z" style="fill: #112025"/>
          <path d="M183.1,148.5V134.2H186l3.7,6.1a30.7,30.7,0,0,1,2.4,4.8h.1a54.1,54.1,0,0,1-.3-5.9v-5h2.5v14.3h-2.7l-3.8-6.3c-.9-1.6-1.8-3.3-2.5-4.9h-.1c.1,1.8.2,3.7.2,6.1v5.1Z" style="fill: #112025"/>
        </g>
      </g>
    </g>
  </g>
</svg>
