<svg class="animate__animated" xmlns="http://www.w3.org/2000/svg" viewBox="0 0 734.4 461.4">
  <g>
    <g class="hoverable" onclick="returnToTypesInstrument(); changeImage('economicos/E_Herramienta_Segundo_Plano');">
      <path
        d="M442.3,368.3,276.4,309.2a159.2,159.2,0,0,0-5.9-120.5l159.3-75.1A331.3,331.3,0,0,1,461.6,256,334.4,334.4,0,0,1,442.3,368.3Z"
        style="fill: #3f3793" />
      <path
        d="M429.9,363.7,270.7,306.9a153.4,153.4,0,0,0-5.6-115.6l152.8-72.1a317.7,317.7,0,0,1,30.5,136.7A320.6,320.6,0,0,1,429.9,363.7Z"
        style="fill: #d36caf" />
      <g>
        <path d="M320.6,235.6h-6v5.5h6.7v1.7h-8.7V227.3h8.3V229h-6.3v4.9h6Z" style="fill: #fff" />
        <path
          d="M333.3,226.5V240a24.4,24.4,0,0,0,.1,2.8h-1.8v-1.9h0a4.3,4.3,0,0,1-3.8,2.2c-2.7,0-4.8-2.3-4.8-5.7s2.3-6,5-6a3.9,3.9,0,0,1,3.4,1.7h0v-6.6Zm-2,9.7a2.2,2.2,0,0,0-.1-.8,3,3,0,0,0-2.9-2.4c-2.1,0-3.3,1.9-3.3,4.3s1.1,4.1,3.2,4.1a3,3,0,0,0,3-2.4,1.9,1.9,0,0,0,.1-.8Z"
          style="fill: #fff" />
        <path
          d="M346,239.8a27.2,27.2,0,0,0,.1,3h-1.8V241h-.1a4.1,4.1,0,0,1-3.6,2.1c-1.8,0-3.9-1-3.9-4.9v-6.5h2v6.2c0,2.1.7,3.5,2.5,3.5a2.9,2.9,0,0,0,2.7-1.8,3.6,3.6,0,0,0,.2-1.1v-6.8h2Z"
          style="fill: #fff" />
        <path
          d="M357.3,242.4a6.9,6.9,0,0,1-3.2.7c-3.4,0-5.5-2.3-5.5-5.7a5.6,5.6,0,0,1,5.9-5.9,8.2,8.2,0,0,1,2.8.5l-.4,1.6a4.8,4.8,0,0,0-2.4-.5c-2.5,0-3.9,1.9-3.9,4.2a3.8,3.8,0,0,0,3.9,4.1,6.2,6.2,0,0,0,2.4-.5Z"
          style="fill: #fff" />
        <path
          d="M365.8,242.8v-1.4h-.1a4,4,0,0,1-3.4,1.7,3.1,3.1,0,0,1-3.4-3.2c0-2.7,2.4-4.2,6.7-4.2v-.2a2.4,2.4,0,0,0-2.6-2.6,5.2,5.2,0,0,0-2.8.9l-.5-1.4a6.6,6.6,0,0,1,3.6-1c3.5,0,4.3,2.4,4.3,4.6v4.2a10.6,10.6,0,0,0,.2,2.6Zm-.3-5.7c-2.2,0-4.7.4-4.7,2.6a1.8,1.8,0,0,0,1.9,1.9,2.7,2.7,0,0,0,2.7-1.9,1.3,1.3,0,0,0,.1-.6Z"
          style="fill: #fff" />
        <path
          d="M378.7,242.4a6.9,6.9,0,0,1-3.2.7,5.3,5.3,0,0,1-5.6-5.7,5.7,5.7,0,0,1,6-5.9,8.2,8.2,0,0,1,2.8.5l-.4,1.6a4.8,4.8,0,0,0-2.4-.5c-2.5,0-3.9,1.9-3.9,4.2s1.6,4.1,3.9,4.1a6.2,6.2,0,0,0,2.4-.5Z"
          style="fill: #fff" />
        <path
          d="M383.3,228.6a1.2,1.2,0,0,1-1.3,1.2,1.2,1.2,0,0,1-1.2-1.2,1.3,1.3,0,0,1,1.3-1.3A1.2,1.2,0,0,1,383.3,228.6Zm-2.2,14.2V231.7h2v11.1Z"
          style="fill: #fff" />
        <path
          d="M396.5,237.2c0,4.1-2.8,5.9-5.5,5.9a5.3,5.3,0,0,1-5.4-5.7c0-3.8,2.5-6,5.5-6S396.5,233.8,396.5,237.2Zm-8.8.1c0,2.4,1.4,4.3,3.4,4.3s3.3-1.9,3.3-4.4-.9-4.2-3.3-4.2S387.7,235.2,387.7,237.3Zm6.4-10.4-2.8,3.3h-1.5l2.1-3.3Z"
          style="fill: #fff" />
        <path
          d="M399.1,234.7c0-1.1-.1-2.1-.1-3h1.8v1.8h0a4.4,4.4,0,0,1,3.7-2.1c1.5,0,3.9,1,3.9,4.8v6.6h-2v-6.4c0-1.8-.7-3.3-2.6-3.3a3,3,0,0,0-2.7,2.1,2.5,2.5,0,0,0-.1.9v6.7h-2Z"
          style="fill: #fff" />
        <path
          d="M417.4,231.7l2.5,6.6.7,2.3h0c.2-.7.5-1.6.7-2.4l2.3-6.5h2.1l-3,7.9c-1.5,3.8-2.5,5.8-3.9,7a4.7,4.7,0,0,1-2.4,1.3l-.5-1.7a6.2,6.2,0,0,0,1.7-1,5,5,0,0,0,1.7-2.2l.2-.5-.2-.5-4.1-10.3Z"
          style="fill: #fff" />
        <path d="M322.9,254.9h8.3v1.7h-6.3v5.2h5.8v1.6h-5.8v7h-2Z" style="fill: #fff" />
        <path
          d="M343.3,264.8c0,4.1-2.8,5.9-5.5,5.9s-5.3-2.2-5.3-5.7,2.4-6,5.5-6S343.3,261.4,343.3,264.8Zm-8.8.1c0,2.4,1.4,4.3,3.4,4.3s3.4-1.9,3.4-4.4-1-4.2-3.4-4.2S334.5,262.8,334.5,264.9Z"
          style="fill: #fff" />
        <path
          d="M345.9,262.3a28.1,28.1,0,0,0-.1-3h1.8v1.8h0a3.9,3.9,0,0,1,3.5-2.1,3.5,3.5,0,0,1,3.2,2.3h0a6.4,6.4,0,0,1,1.3-1.5,3.6,3.6,0,0,1,2.4-.8c1.5,0,3.7,1,3.7,4.9v6.5h-2v-6.3c0-2.1-.8-3.4-2.4-3.4a2.6,2.6,0,0,0-2.4,1.8,3.6,3.6,0,0,0-.2,1.1v6.8h-1.9v-6.6c0-1.8-.8-3.1-2.4-3.1a2.9,2.9,0,0,0-2.5,2,3.4,3.4,0,0,0-.1,1v6.7h-2Z"
          style="fill: #fff" />
        <path
          d="M371.2,270.4V269H371a4,4,0,0,1-3.4,1.7,3.2,3.2,0,0,1-3.4-3.2c0-2.7,2.4-4.2,6.7-4.2v-.2a2.3,2.3,0,0,0-2.5-2.6,5.5,5.5,0,0,0-2.9.9L365,260a7,7,0,0,1,3.7-1c3.4,0,4.2,2.4,4.2,4.6v4.2a10.6,10.6,0,0,0,.2,2.6Zm-.3-5.7c-2.2,0-4.7.4-4.7,2.6a1.8,1.8,0,0,0,1.9,1.9,2.7,2.7,0,0,0,2.7-1.9,1.3,1.3,0,0,0,.1-.6Z"
          style="fill: #fff" />
        <path
          d="M384.1,270a6.9,6.9,0,0,1-3.2.7c-3.4,0-5.5-2.3-5.5-5.7a5.6,5.6,0,0,1,5.9-5.9,8.2,8.2,0,0,1,2.8.5l-.4,1.6a4.8,4.8,0,0,0-2.4-.5c-2.5,0-3.9,1.9-3.9,4.2a3.8,3.8,0,0,0,3.9,4.1,7.3,7.3,0,0,0,2.5-.5Z"
          style="fill: #fff" />
        <path
          d="M388.7,256.2a1.2,1.2,0,0,1-1.3,1.2,1.2,1.2,0,0,1-1.2-1.2,1.3,1.3,0,0,1,1.3-1.3A1.2,1.2,0,0,1,388.7,256.2Zm-2.2,14.2V259.3h2v11.1Z"
          style="fill: #fff" />
        <path
          d="M401.9,264.8c0,4.1-2.8,5.9-5.5,5.9A5.3,5.3,0,0,1,391,265c0-3.8,2.5-6,5.6-6S401.9,261.4,401.9,264.8Zm-8.8.1c0,2.4,1.4,4.3,3.4,4.3s3.4-1.9,3.4-4.4-1-4.2-3.4-4.2S393.1,262.8,393.1,264.9Zm6.4-10.4-2.8,3.3h-1.4l2-3.3Z"
          style="fill: #fff" />
        <path
          d="M404.5,262.3a28.1,28.1,0,0,0-.1-3h1.8v1.8h0A4.4,4.4,0,0,1,410,259c1.6,0,4,1,4,4.8v6.6h-2.1V264c0-1.8-.6-3.3-2.5-3.3a3,3,0,0,0-2.8,2.1,2.5,2.5,0,0,0-.1.9v6.7h-2Z"
          style="fill: #fff" />
      </g>
    </g>
    <g class="hoverable" id="cuotas" onclick="showInstrument('economicos', 'educacion_y_formacion', 'cuotas');">
      <path d="M478.6,135.8a389,389,0,0,0-14.8-40.3L684,0a610.1,610.1,0,0,1,24.4,66.6Z" style="fill: #d36caf" />
      <g>
        <path
          d="M530.7,101.7a6.8,6.8,0,0,1-2.8,1.6c-3.2,1.2-6.3,0-7.7-3.7a6.1,6.1,0,0,1,3.8-8.2,6,6,0,0,1,2.9-.4v1.3a5.9,5.9,0,0,0-2.5.3c-2.7,1-3.8,3.3-2.7,6.3s3.2,4.1,6,3.1a7.6,7.6,0,0,0,2.2-1.4Z"
          style="fill: #fff" />
        <path
          d="M538.5,96.8a16.5,16.5,0,0,0,.9,2.2l-1.3.5-.6-1.3h0a3.3,3.3,0,0,1-2.2,2.5c-1.3.5-3.1.3-4.1-2.6l-1.7-4.8,1.5-.5,1.6,4.5c.6,1.6,1.4,2.5,2.8,2a2.2,2.2,0,0,0,1.4-2.1,1.2,1.2,0,0,0-.1-.8l-1.8-5,1.5-.6Z"
          style="fill: #fff" />
        <path
          d="M547.7,91.3c1.1,3.1-.5,5.1-2.5,5.8a4.1,4.1,0,0,1-5.4-2.8,4.2,4.2,0,0,1,2.5-5.8A4.1,4.1,0,0,1,547.7,91.3Zm-6.4,2.4c.6,1.8,2.1,2.8,3.6,2.3s2-2.2,1.3-4.1-1.8-2.9-3.6-2.2S540.7,92.2,541.3,93.7Z"
          style="fill: #fff" />
        <path
          d="M549.1,83.6,550,86l2.1-.8.4,1.2-2.1.7,1.6,4.4c.3,1.1.8,1.5,1.7,1.2l.8-.4.4,1.1a3.1,3.1,0,0,1-1.2.7,2.2,2.2,0,0,1-1.8-.1c-.6-.2-1-.9-1.4-1.9l-1.6-4.5-1.2.5-.5-1.1,1.3-.5-.7-2Z"
          style="fill: #fff" />
        <path
          d="M561.3,91.2l-.5-1h-.1a3.2,3.2,0,0,1-2,2.1,2.5,2.5,0,0,1-3.4-1.4c-.7-2,.7-3.7,3.8-4.8v-.2a1.8,1.8,0,0,0-2.6-1.2,5,5,0,0,0-1.9,1.3l-.7-.8a5.8,5.8,0,0,1,2.5-1.7c2.5-.9,3.7.6,4.3,2.2l1.1,3.1a8.4,8.4,0,0,0,.8,1.9Zm-1.8-4.1c-1.6.5-3.3,1.5-2.8,3.1a1.5,1.5,0,0,0,2,.9,2.1,2.1,0,0,0,1.4-2.1v-.5Z"
          style="fill: #fff" />
        <path
          d="M564.1,88.4a3.4,3.4,0,0,0,2.2-.1c1.1-.4,1.4-1.1,1.2-1.8s-.8-.9-2.1-.9-2.6-.6-3-1.6.2-2.8,2-3.4a4.3,4.3,0,0,1,2.2-.2v1.2a4.3,4.3,0,0,0-1.9.1,1.4,1.4,0,0,0-.9,1.7c.2.6.8.8,2,.8s2.6.5,3.1,1.7-.3,2.9-2.2,3.6a5.5,5.5,0,0,1-2.5.2Z"
          style="fill: #fff" />
      </g>
    </g>
    <g class="hoverable" id="derechos_transferibles" onclick="showInstrument('economicos', 'educacion_y_formacion', 'derechos_transferibles');">
      <path
        d="M494.3,236.1c-.1-2.1-.1-4.3-.2-6.5a363.7,363.7,0,0,0-4.1-43l237.3-36.3a637.4,637.4,0,0,1,6.6,70.4q.3,5.3.3,10.5Z"
        style="fill: #d36caf" />
      <g>
        <path
          d="M542.3,190.4l3.3-.5c2.3-.2,3.9.2,5,1.1a5.2,5.2,0,0,1,2.1,4.2,6.4,6.4,0,0,1-1.3,4.8,7.4,7.4,0,0,1-5.2,2.2,13.8,13.8,0,0,1-2.8.1Zm2.5,10.6h1.6c3.4-.3,5-2.3,4.7-5.5s-2-4.6-5.3-4.3a6,6,0,0,0-1.8.4Z"
          style="fill: #fff" />
        <path
          d="M555.9,197.2a2.7,2.7,0,0,0,3.2,2.7,6.4,6.4,0,0,0,2.4-.6l.3,1.1a7.9,7.9,0,0,1-2.8.8,4.1,4.1,0,0,1-4.7-4c-.2-2.7,1.2-4.9,3.7-5.1s3.8,2.2,3.9,3.8a2.3,2.3,0,0,1,.1.7Zm4.5-1.6c-.1-1-.7-2.5-2.4-2.3a2.5,2.5,0,0,0-2.2,2.7Z"
          style="fill: #fff" />
        <path
          d="M563.8,194.5q-.1-1.5-.3-2.7h1.4l.2,1.7h0a2.6,2.6,0,0,1,2.3-2.1h.4l.2,1.5h-.6a2.2,2.2,0,0,0-1.9,2.2c0,.2-.1.5,0,.7l.4,4.7h-1.6Z"
          style="fill: #fff" />
        <path
          d="M570.5,195.9a2.8,2.8,0,0,0,3.3,2.7,5.4,5.4,0,0,0,2.3-.6l.4,1.1a8.7,8.7,0,0,1-2.8.8,4.1,4.1,0,0,1-4.7-4c-.2-2.7,1.1-4.9,3.7-5.1s3.8,2.2,3.9,3.8v.7Zm4.5-1.6a2.1,2.1,0,0,0-2.4-2.3c-1.6.1-2.1,1.6-2.2,2.7Z"
          style="fill: #fff" />
        <path
          d="M585.1,198.3a4.5,4.5,0,0,1-2.4.7,4,4,0,0,1-4.7-4,4.3,4.3,0,0,1,4.2-5,7.2,7.2,0,0,1,2.3.2l-.3,1.3a4.4,4.4,0,0,0-1.9-.3,3.1,3.1,0,0,0-2.7,3.6,3,3,0,0,0,3.3,3,6.1,6.1,0,0,0,1.9-.6Z"
          style="fill: #fff" />
        <path
          d="M585.9,185.7h1.6l.4,5.4h.1a2.3,2.3,0,0,1,1-1.2,4.4,4.4,0,0,1,1.6-.6c1.2-.1,3.1.5,3.3,3.5l.5,5.1-1.6.2-.4-5c-.1-1.4-.8-2.6-2.3-2.4a2.2,2.2,0,0,0-1.9,1.7,2.2,2.2,0,0,0-.1.8l.5,5.2-1.6.2Z"
          style="fill: #fff" />
        <path
          d="M604.4,192.5a4.3,4.3,0,0,1-3.9,5,4.1,4.1,0,0,1-4.5-4.1c-.3-2.9,1.4-4.8,3.9-5A4.1,4.1,0,0,1,604.4,192.5Zm-6.8.7c.1,1.9,1.3,3.2,2.9,3.1s2.5-1.7,2.3-3.6-1-3.3-2.9-3.1S597.4,191.5,597.6,193.2Z"
          style="fill: #fff" />
        <path
          d="M606.5,195.1a4.1,4.1,0,0,0,2.1.5,1.6,1.6,0,0,0,1.6-1.5c-.1-.7-.6-1.1-1.8-1.4s-2.4-1.2-2.5-2.3.9-2.6,2.8-2.8a4.4,4.4,0,0,1,2.1.3l-.3,1.2a2.9,2.9,0,0,0-1.8-.3c-.9.1-1.4.7-1.3,1.3s.6,1,1.8,1.3,2.4,1.1,2.5,2.4-1,2.7-3,2.9a4.8,4.8,0,0,1-2.5-.3Z"
          style="fill: #fff" />
        <path d="M546.6,212.9l-3.6.4-.2-1.4,9-.8v1.4l-3.7.3,1,10.7-1.6.2Z" style="fill: #fff" />
        <path
          d="M552.8,217.2q-.1-1.5-.3-2.7h1.4l.2,1.7h.1a2.4,2.4,0,0,1,2.2-2.1h.4l.2,1.5h-.6a2.3,2.3,0,0,0-1.9,2.3v.7l.4,4.6-1.6.2Z"
          style="fill: #fff" />
        <path
          d="M563.9,222.2l-.2-1.1h0a3.4,3.4,0,0,1-2.6,1.6,2.6,2.6,0,0,1-2.9-2.3c-.2-2.1,1.6-3.4,5-3.7v-.2a1.9,1.9,0,0,0-2.2-1.8,4.3,4.3,0,0,0-2.2.9l-.5-1a5,5,0,0,1,2.8-1.1c2.7-.2,3.5,1.5,3.6,3.3l.3,3.2a11.2,11.2,0,0,0,.4,2.1Zm-.6-4.4c-1.7.1-3.7.6-3.5,2.3a1.5,1.5,0,0,0,1.6,1.4,2.2,2.2,0,0,0,2-1.7c0-.1.1-.3,0-.5Z"
          style="fill: #fff" />
        <path
          d="M567.2,215.6l-.3-2.4h1.4l.2,1.4h.1a3,3,0,0,1,2.7-1.9c1.2-.1,3.1.5,3.4,3.4l.5,5.2-1.6.2-.5-5c-.1-1.4-.7-2.6-2.2-2.4a2.3,2.3,0,0,0-2,1.8v.7l.4,5.2-1.5.2Z"
          style="fill: #fff" />
        <path
          d="M577.4,219.4a3.3,3.3,0,0,0,2.1.4c1.1-.1,1.6-.7,1.6-1.4s-.6-1.1-1.8-1.5-2.4-1.2-2.5-2.2a2.7,2.7,0,0,1,2.8-2.8,4.4,4.4,0,0,1,2.1.3l-.3,1.2a2.9,2.9,0,0,0-1.8-.3c-.9.1-1.4.6-1.3,1.3s.6,1,1.8,1.3,2.4,1.1,2.5,2.4-1,2.7-3,2.9a4.7,4.7,0,0,1-2.5-.4Z"
          style="fill: #fff" />
        <path
          d="M585,220.3l-.7-7.4h-1.2v-1.2h1.2v-.4a4.2,4.2,0,0,1,.7-3.2,3.2,3.2,0,0,1,2-1l1.4.2v1.2h-1c-1.4.1-1.6,1.3-1.5,2.7v.4l2.1-.2v1.2l-2.1.2.6,7.5Z"
          style="fill: #fff" />
        <path
          d="M590.3,215.8a2.8,2.8,0,0,0,3.3,2.7,5.4,5.4,0,0,0,2.3-.6l.4,1.1a7.9,7.9,0,0,1-2.8.8,4.1,4.1,0,0,1-4.7-4c-.2-2.6,1.1-4.8,3.7-5.1s3.8,2.2,3.9,3.8v.7Zm4.6-1.6a2.3,2.3,0,0,0-2.5-2.3c-1.6.1-2.1,1.6-2.1,2.8Z"
          style="fill: #fff" />
        <path
          d="M598.3,213.1q-.1-1.5-.3-2.7h1.3l.2,1.7h.1a2.6,2.6,0,0,1,2.2-2.1h.5v1.5h-.5a2.2,2.2,0,0,0-1.9,2.2,1.7,1.7,0,0,0-.1.7l.5,4.7h-1.6Z"
          style="fill: #fff" />
        <path d="M605.5,207.3a1,1,0,0,1-.9,1.1,1,1,0,1,1,.9-1.1Zm-.8,11.3-.7-8.7h1.5l.8,8.6Z" style="fill: #fff" />
        <path
          d="M608.9,218.2c-.1-.6-.1-1.5-.2-2.2l-.9-10.5,1.6-.2.4,5.5h.1a3.3,3.3,0,0,1,2.8-1.9c2.1-.2,3.8,1.5,4,4.1s-1.5,4.8-3.4,5a3.2,3.2,0,0,1-3.1-1.4h0v1.4Zm1.3-3.6c0,.2.1.4.1.6a2.5,2.5,0,0,0,2.5,1.6c1.7-.2,2.6-1.6,2.4-3.6s-1.2-3.1-2.9-3a2.4,2.4,0,0,0-2.2,2.2c0,.2-.1.4-.1.6Z"
          style="fill: #fff" />
        <path d="M618,204.6l1.6-.2,1.1,12.8h-1.6Z" style="fill: #fff" />
        <path
          d="M623.9,212.8a2.7,2.7,0,0,0,3.2,2.7,5.9,5.9,0,0,0,2.4-.6l.4,1.1a7.3,7.3,0,0,1-2.9.8,4,4,0,0,1-4.6-4c-.3-2.6,1.1-4.8,3.6-5.1s3.8,2.2,4,3.8v.7Zm4.5-1.6c-.1-1-.6-2.5-2.4-2.3s-2.2,1.7-2.2,2.8Z"
          style="fill: #fff" />
        <path
          d="M632,214.5a4.3,4.3,0,0,0,2.1.5c1.2-.1,1.7-.8,1.6-1.5s-.6-1.1-1.8-1.4-2.4-1.2-2.5-2.3.9-2.6,2.8-2.8a3.6,3.6,0,0,1,2.2.4l-.3,1.1a4.2,4.2,0,0,0-1.8-.3c-1,.1-1.4.7-1.4,1.3s.6,1,1.8,1.3,2.4,1.2,2.5,2.4-.9,2.8-3,2.9a4.8,4.8,0,0,1-2.5-.3Z"
          style="fill: #fff" />
      </g>
    </g>
    <g class="hoverable" id="promedios" onclick="showInstrument('economicos', 'educacion_y_formacion', 'promedios');">
      <path d="M489.3,182.1a352.7,352.7,0,0,0-9.5-41.9L710.5,73.8A624,624,0,0,1,726.1,143Z" style="fill: #d36caf" />
      <g>
        <path
          d="M532.8,145.7a13,13,0,0,1,2.9-.8,4.8,4.8,0,0,1,3.5.4,2.8,2.8,0,0,1,1.5,2.3,3.4,3.4,0,0,1-.4,2.7,5.3,5.3,0,0,1-3.4,2h-1.3l.9,4.8-1.6.3Zm2.6,5.5,1.3-.2c1.8-.3,2.8-1.4,2.5-3s-1.5-2.2-3.2-1.9l-1.5.4Z"
          style="fill: #fff" />
        <path
          d="M543,149.9c-.2-1-.4-1.8-.6-2.6l1.4-.3.3,1.7h.1a2.7,2.7,0,0,1,2-2.3h.5l.2,1.4h-.5a2.1,2.1,0,0,0-1.7,2.3v.8l.9,4.6-1.6.2Z"
          style="fill: #fff" />
        <path
          d="M556.6,149.1a4.3,4.3,0,0,1-3.4,5.3,4.1,4.1,0,0,1-4.9-3.7c-.6-2.9,1-4.9,3.4-5.3S556.1,146.4,556.6,149.1Zm-6.8,1.3c.4,1.9,1.7,3.1,3.2,2.8s2.4-1.9,2-3.8-1.3-3.2-3.1-2.8S549.5,148.8,549.8,150.4Z"
          style="fill: #fff" />
        <path
          d="M558.2,146.8a13.2,13.2,0,0,0-.5-2.3l1.4-.2.3,1.3h.1a2.8,2.8,0,0,1,2.4-2,2.5,2.5,0,0,1,2.7,1.2h.1a2.4,2.4,0,0,1,.7-1.2,3.5,3.5,0,0,1,1.8-1c1.1-.2,3,.2,3.5,3.2l.9,5.1-1.5.2-.9-4.8c-.3-1.7-1.1-2.5-2.3-2.3a1.9,1.9,0,0,0-1.6,1.7,1.1,1.1,0,0,0,0,.8l1,5.3-1.6.3-.9-5.1c-.2-1.4-1-2.3-2.2-2.1a2.2,2.2,0,0,0-1.7,1.9v.8l1,5.2-1.5.3Z"
          style="fill: #fff" />
        <path
          d="M574.3,146.3a2.8,2.8,0,0,0,3.5,2.4,5.5,5.5,0,0,0,2.3-.9l.4,1.1a5.8,5.8,0,0,1-2.7,1,3.9,3.9,0,0,1-5-3.5c-.5-2.6.7-4.9,3.2-5.4s3.9,1.9,4.2,3.4a2.8,2.8,0,0,1,.1.8Zm4.3-2a2.2,2.2,0,0,0-2.6-2.1,2.6,2.6,0,0,0-1.9,2.9Z"
          style="fill: #fff" />
        <path
          d="M588.2,134.9l1.8,10.4c.2.7.3,1.6.5,2.2l-1.4.2-.4-1.4h0a3.3,3.3,0,0,1-2.6,2.2c-2.1.3-4-1.1-4.5-3.7s1-5,3.1-5.3a2.8,2.8,0,0,1,2.8.8h0l-.9-5.1Zm-.3,7.8c0-.2-.1-.5-.1-.7a2.6,2.6,0,0,0-2.6-1.4c-1.6.3-2.3,1.9-2,3.8s1.4,3,3.1,2.7a2.4,2.4,0,0,0,2-2.2,1.5,1.5,0,0,0-.1-.7Z"
          style="fill: #fff" />
        <path d="M592.8,135.7q.2.9-.9,1.2a1,1,0,0,1-1.1-.8,1,1,0,1,1,2-.4ZM593,147l-1.5-8.6,1.5-.2,1.6,8.5Z"
          style="fill: #fff" />
        <path
          d="M604.1,140.5c.6,3.2-1.4,5-3.4,5.3s-4.4-.9-4.9-3.6,1-4.9,3.4-5.3S603.6,137.9,604.1,140.5Zm-6.8,1.3c.4,1.9,1.7,3.1,3.2,2.9s2.4-1.9,2-3.8-1.3-3.2-3.1-2.9S597,140.2,597.3,141.8Z"
          style="fill: #fff" />
        <path
          d="M606.4,143a3.6,3.6,0,0,0,2.1.2c1.2-.2,1.6-.8,1.5-1.6s-.7-1-1.9-1.2-2.5-1-2.7-2.1.7-2.7,2.5-3a3.9,3.9,0,0,1,2.2.1l-.2,1.2a3.3,3.3,0,0,0-1.8-.1c-1,.1-1.4.8-1.3,1.4s.7.9,1.9,1.2,2.5.9,2.8,2.1-.8,2.8-2.8,3.2a4.2,4.2,0,0,1-2.5-.2Z"
          style="fill: #fff" />
      </g>
    </g>
    <g class="hoverable" id="calificaciones" onclick="showInstrument('economicos', 'educacion_y_formacion', 'calificaciones');">
      <path
        d="M730.9,309.3,492.2,283.8a379.5,379.5,0,0,0,2.2-39.9c0-1.1,0-2.1-.1-3.2l240-2.1c.1,1.7.1,3.5.1,5.3A620.1,620.1,0,0,1,730.9,309.3Z"
        style="fill: #d36caf" />
      <g>
        <path
          d="M552.3,271.2a10,10,0,0,1-3.2.5,5.7,5.7,0,0,1-5.9-6.3,6,6,0,0,1,6.5-6.2,6.6,6.6,0,0,1,2.9.6l-.4,1.2a5.8,5.8,0,0,0-2.5-.5c-2.8-.1-4.7,1.7-4.8,4.9s1.6,4.9,4.5,5a6.3,6.3,0,0,0,2.6-.5Z"
          style="fill: #fff" />
        <path
          d="M558.9,271.7v-1.1h-.1a2.9,2.9,0,0,1-2.6,1.2,2.5,2.5,0,0,1-2.7-2.5c.1-2.1,2-3.2,5.4-3.1V266a1.9,1.9,0,0,0-2-2.1,4.6,4.6,0,0,0-2.3.6l-.3-1a4.5,4.5,0,0,1,2.9-.7c2.6,0,3.3,1.8,3.2,3.6v3.3a12.7,12.7,0,0,0,.1,2Zm-.1-4.4c-1.8-.1-3.7.1-3.8,1.8a1.4,1.4,0,0,0,1.5,1.6,2.1,2.1,0,0,0,2.1-1.4,1.1,1.1,0,0,0,.1-.5Z"
          style="fill: #fff" />
        <path d="M563,259h1.6l-.3,12.8h-1.5Z" style="fill: #fff" />
        <path
          d="M567,271.9l.2-8.7h1.6l-.2,8.7Zm2-11.1a.9.9,0,0,1-1,.9.9.9,0,0,1-1-1,1,1,0,0,1,1.1-.9A.9.9,0,0,1,569,260.8Z"
          style="fill: #fff" />
        <path
          d="M571.4,272v-7.5h-1.2v-1.2h1.3v-.5a3.4,3.4,0,0,1,3.9-3.7,4.8,4.8,0,0,1,2.2.6l-.5,1.2a3.3,3.3,0,0,0-1.9-.5c-1.6-.1-2.1,1.1-2.2,2.5v.4h5.1l-.2,8.7h-1.6l.2-7.5h-3.5l-.2,7.5Z"
          style="fill: #fff" />
        <path
          d="M586.8,272a4.9,4.9,0,0,1-2.5.4,4,4,0,0,1-4.2-4.5,4.3,4.3,0,0,1,4.8-4.5,3.8,3.8,0,0,1,2.1.5l-.3,1.2a5.6,5.6,0,0,0-1.9-.5,3,3,0,0,0-3.1,3.3,3,3,0,0,0,2.9,3.3,5,5,0,0,0,2-.4Z"
          style="fill: #fff" />
        <path
          d="M593.5,272.5v-1.1h0a3.6,3.6,0,0,1-2.7,1.2A2.5,2.5,0,0,1,588,270c.1-2.1,2-3.2,5.4-3.1v-.2a1.8,1.8,0,0,0-2-2,4.6,4.6,0,0,0-2.3.6l-.3-1.1a6.2,6.2,0,0,1,2.9-.7c2.6.1,3.3,1.9,3.2,3.6v3.3c0,.8.1,1.5.1,2.1Zm-.1-4.5c-1.8-.1-3.7.2-3.8,1.9a1.4,1.4,0,0,0,1.5,1.5,1.9,1.9,0,0,0,2.1-1.4.7.7,0,0,0,.1-.5Z"
          style="fill: #fff" />
        <path
          d="M603.6,272.4a6.7,6.7,0,0,1-2.5.4,4.2,4.2,0,0,1-4.3-4.5,4.6,4.6,0,0,1,4.8-4.6,8,8,0,0,1,2.2.5l-.4,1.3a3,3,0,0,0-1.8-.5,3.1,3.1,0,0,0-3.2,3.2,3,3,0,0,0,3,3.3,4.4,4.4,0,0,0,1.9-.3Z"
          style="fill: #fff" />
        <path
          d="M605.4,272.7l.2-8.7h1.6l-.2,8.7Zm2-11.1a.9.9,0,0,1-1,.9c-.6,0-.9-.4-.9-1a.9.9,0,0,1,1-.9C607.1,260.6,607.4,261,607.4,261.6Z"
          style="fill: #fff" />
        <path
          d="M617.6,268.5c-.1,3.3-2.3,4.6-4.4,4.6a4.1,4.1,0,0,1-4.1-4.6c.1-2.9,2-4.6,4.4-4.5A4.1,4.1,0,0,1,617.6,268.5Zm-6.9,0c0,1.9,1,3.4,2.6,3.4s2.6-1.4,2.7-3.3-.7-3.4-2.5-3.4S610.7,266.8,610.7,268.5Z"
          style="fill: #fff" />
        <path
          d="M619.6,266.7a9.6,9.6,0,0,0,0-2.4H621v1.5h0a3.4,3.4,0,0,1,2.9-1.6c1.2,0,3.1.8,3,3.8v5.2h-1.6l.2-5c0-1.4-.5-2.6-2-2.6a2.3,2.3,0,0,0-2.2,1.6c0,.2-.1.4-.1.7v5.3h-1.6Z"
          style="fill: #fff" />
        <path
          d="M630.5,269.2a2.8,2.8,0,0,0,2.9,3.1,7,7,0,0,0,2.4-.4l.3,1.1a7.1,7.1,0,0,1-3,.5A4,4,0,0,1,629,269c0-2.6,1.6-4.7,4.1-4.6s3.6,2.6,3.6,4.2a5.6,5.6,0,0,1-.1.7Zm4.6-1a2.2,2.2,0,0,0-2.1-2.7c-1.6,0-2.3,1.5-2.5,2.6Z"
          style="fill: #fff" />
        <path
          d="M638.3,271.8a4.4,4.4,0,0,0,2.1.7c1.2,0,1.7-.6,1.7-1.3s-.4-1.2-1.6-1.6-2.2-1.5-2.2-2.5a2.7,2.7,0,0,1,3.1-2.5,4.3,4.3,0,0,1,2.1.6l-.4,1.1a3.9,3.9,0,0,0-1.8-.5,1.2,1.2,0,0,0-1.5,1.1c0,.7.5,1.1,1.6,1.5s2.3,1.4,2.3,2.7-1.3,2.6-3.4,2.5a4.5,4.5,0,0,1-2.4-.6Z"
          style="fill: #fff" />
      </g>
    </g>
    <g class="hoverable" id="eco_etiquetado" onclick="showInstrument('economicos', 'educacion_y_formacion', 'eco_etiquetado');">
      <path d="M694.5,461.4,470.2,376a397.4,397.4,0,0,0,12.9-41l232.7,58.7A632.9,632.9,0,0,1,694.5,461.4Z"
        style="fill: #d36caf" />
      <g>
        <path d="M530.7,373.7l-4.4-1.5-1.5,4.1,5,1.7-.5,1.3-6.4-2.3,4-11.4,6.2,2.1-.4,1.3-4.7-1.7-1.3,3.6,4.4,1.6Z"
          style="fill: #fff" />
        <path
          d="M537.1,381.6a4.9,4.9,0,0,1-2.5-.3,4.1,4.1,0,0,1-2.6-5.6,4.4,4.4,0,0,1,5.9-2.9,5.2,5.2,0,0,1,1.9,1.2l-.7,1a4.4,4.4,0,0,0-1.6-1,3.1,3.1,0,0,0-4,2.1,3,3,0,0,0,1.8,4.1,3.7,3.7,0,0,0,2,.2Z"
          style="fill: #fff" />
        <path
          d="M547.6,380.9c-1.1,3.1-3.7,3.7-5.7,3s-3.3-3-2.4-5.6a4.3,4.3,0,1,1,8.1,2.6Zm-6.6-2.1c-.6,1.8-.1,3.5,1.4,4s3-.5,3.6-2.3.4-3.4-1.3-4.1S541.6,377.2,541,378.8Z"
          style="fill: #fff" />
        <path d="M553.5,381.9l-.4,1.1-4.2-1.4.4-1.1Z" style="fill: #fff" />
        <path d="M564.9,385.7l-4.4-1.6-1.5,4.2,5,1.7-.4,1.2-6.5-2.2,4-11.5,6.2,2.2-.4,1.2-4.7-1.6-1.3,3.6,4.4,1.6Z"
          style="fill: #fff" />
        <path
          d="M570.9,381.9l-.9,2.4,2.2.7-.4,1.2-2.2-.8-1.5,4.4c-.4,1.1-.3,1.7.6,2a1.8,1.8,0,0,0,.9.2l-.4,1.2-1.4-.3a2.1,2.1,0,0,1-1.4-1.2,3.8,3.8,0,0,1,.2-2.3l1.6-4.5-1.3-.5.4-1.1,1.3.5.7-2Z"
          style="fill: #fff" />
        <path
          d="M571,393.8l2.9-8.2,1.5.5-2.9,8.3Zm5.3-9.9a.9.9,0,0,1-1.2.6,1,1,0,0,1-.6-1.3,1,1,0,0,1,1.3-.6A1,1,0,0,1,576.3,383.9Z"
          style="fill: #fff" />
        <path
          d="M581,395.9h0a3,3,0,0,1-3.2.5c-1.9-.7-2.9-2.9-2-5.4s3.5-3.7,5.2-3.1a3,3,0,0,1,2.1,2.3h0l.5-1.2,1.4.5c-.3.7-.5,1.4-.8,2.2l-3.3,9.4-1.5-.6Zm1.3-3.6a1.7,1.7,0,0,0,.1-.7,2.2,2.2,0,0,0-1.5-2.4c-1.6-.6-2.9.4-3.6,2.3s-.3,3.3,1.4,3.9a2.5,2.5,0,0,0,2.7-.9,1.5,1.5,0,0,0,.3-.7Z"
          style="fill: #fff" />
        <path
          d="M592.2,398.7l-.7,2.3-1.3-.5.3-1.3h0a3.1,3.1,0,0,1-3.2.6c-1.3-.4-2.6-1.7-1.6-4.6l1.7-4.8,1.5.5-1.6,4.6c-.6,1.6-.5,2.8.9,3.3a2.3,2.3,0,0,0,2.4-.7,2.5,2.5,0,0,0,.4-.7l1.8-5.1,1.5.5Z"
          style="fill: #fff" />
        <path
          d="M596.1,398.3a2.7,2.7,0,0,0,1.8,3.8,6.2,6.2,0,0,0,2.4.4v1.2a7.5,7.5,0,0,1-2.9-.5,4,4,0,0,1-2.6-5.5c.9-2.5,3-4,5.4-3.1s2.6,3.5,2,5a4.1,4.1,0,0,0-.2.7Zm4.7.4a2.2,2.2,0,0,0-1.2-3.1,2.5,2.5,0,0,0-3.1,1.6Z"
          style="fill: #fff" />
        <path
          d="M607.9,394.8l-.8,2.4,2.1.8-.4,1.1-2.1-.7-1.6,4.4c-.3,1-.2,1.7.6,2l.9.2-.3,1.1a4.2,4.2,0,0,1-1.4-.2,2.4,2.4,0,0,1-1.4-1.2,3,3,0,0,1,.2-2.4l1.5-4.5-1.2-.4.4-1.1,1.2.4.7-2Z"
          style="fill: #fff" />
        <path
          d="M612.6,408.4l.2-1.1h0a3.4,3.4,0,0,1-3,.3,2.4,2.4,0,0,1-1.6-3.2c.6-2,2.8-2.5,6-1.4h0a1.8,1.8,0,0,0-1.2-2.6,3.6,3.6,0,0,0-2.3-.1v-1.1a4.9,4.9,0,0,1,2.9.2c2.5.9,2.6,2.8,2,4.4l-1.1,3.1a8.4,8.4,0,0,0-.5,2Zm1.2-4.3c-1.6-.6-3.5-1-4.1.6a1.4,1.4,0,0,0,.9,1.9,2.2,2.2,0,0,0,2.5-.6c.1-.2.2-.3.2-.5Z"
          style="fill: #fff" />
        <path
          d="M627.5,400.1l-3.4,9.9a12.8,12.8,0,0,0-.7,2.1l-1.3-.4.4-1.5h0a3.2,3.2,0,0,1-3.4.6c-2-.6-2.9-2.9-2.1-5.4s3.3-3.8,5.3-3.1a2.8,2.8,0,0,1,2,2.1h0l1.8-4.9Zm-4,6.6a1.4,1.4,0,0,0,.2-.6,2.3,2.3,0,0,0-1.6-2.5c-1.5-.6-2.9.5-3.5,2.3s-.3,3.3,1.3,3.9a2.4,2.4,0,0,0,2.8-1,.9.9,0,0,0,.3-.7Z"
          style="fill: #fff" />
        <path
          d="M634.7,411.4a4.3,4.3,0,1,1-8.1-2.7c1-2.7,3.4-3.7,5.6-2.9S635.6,408.9,634.7,411.4Zm-6.5-2.2c-.7,1.8-.1,3.5,1.4,4s2.9-.4,3.6-2.3.4-3.4-1.4-4S628.7,407.6,628.2,409.2Z"
          style="fill: #fff" />
      </g>
    </g>
    <g class="hoverable" id="sellos" onclick="showInstrument('economicos', 'educacion_y_formacion', 'sellos');">
      <path d="M717.6,386.5,484.2,330.6a378.2,378.2,0,0,0,7.5-42.3L730,316.7A589.5,589.5,0,0,1,717.6,386.5Z"
        style="fill: #d36caf" />
      <g>
        <path
          d="M536.9,323.3a6.4,6.4,0,0,0,2.6,1.3c1.6.3,2.7-.3,2.9-1.5s-.3-1.9-1.7-2.8-2.8-2.4-2.5-4,2.2-3,4.5-2.5a5.3,5.3,0,0,1,2.5,1.1l-.7,1.2a5.6,5.6,0,0,0-2.1-1.1c-1.7-.3-2.5.6-2.6,1.4s.4,1.8,1.9,2.8,2.7,2.3,2.3,4.1-2,3.1-4.8,2.6a7.1,7.1,0,0,1-2.9-1.4Z"
          style="fill: #fff" />
        <path
          d="M547.2,323.1a2.9,2.9,0,0,0,2.3,3.6,6.8,6.8,0,0,0,2.5,0v1.1a5.5,5.5,0,0,1-2.9,0,4,4,0,0,1-3.4-5.1c.6-2.6,2.5-4.3,5-3.8s3,3.1,2.7,4.7a6.4,6.4,0,0,1-.2.7Zm4.8-.2a2.3,2.3,0,0,0-1.7-3c-1.6-.3-2.5,1-2.9,2.1Z"
          style="fill: #fff" />
        <path d="M556.9,316.1l1.5.3L555.9,329l-1.5-.3Z" style="fill: #fff" />
        <path d="M561,317l1.6.3-2.5,12.5-1.5-.3Z" style="fill: #fff" />
        <path
          d="M571.3,327.5a4.2,4.2,0,0,1-5.1,3.7c-2.4-.4-3.8-2.5-3.3-5.2s2.8-4.2,5.2-3.7S571.8,324.9,571.3,327.5Zm-6.8-1.2c-.4,1.8.4,3.5,2,3.8s2.8-.9,3.2-2.8-.1-3.5-1.9-3.8S564.8,324.6,564.5,326.3Z"
          style="fill: #fff" />
        <path
          d="M572.5,330.6a3.9,3.9,0,0,0,1.9,1c1.2.3,1.8-.2,2-.9s-.3-1.2-1.3-1.9-2-1.8-1.8-2.9a2.8,2.8,0,0,1,3.4-1.9,4.2,4.2,0,0,1,2,1l-.6,1a2.7,2.7,0,0,0-1.6-.8c-.9-.2-1.6.2-1.7.9s.3,1.1,1.4,1.7,1.9,1.8,1.7,3.1-1.7,2.3-3.7,1.9a4.5,4.5,0,0,1-2.3-1.1Z"
          style="fill: #fff" />
      </g>
    </g>
    <g class="hoverable" onclick="returnToGroups(); changeImage('rueda');">
      <circle cx="127.7" cy="255.7" r="105" style="fill: #bdc4c6" />
      <circle cx="127.5" cy="257.7" r="127" style="fill: none;stroke: #aab8bd;stroke-miterlimit: 10" />
      <g>
        <path d="M73.1,256.3H67.7v4.2h6v2.1H65.1V248.3h8.3v2.2H67.7v3.6h5.4Z" style="fill: #112025" />
        <path
          d="M86.2,262.2a9.2,9.2,0,0,1-3.7.6c-4.5,0-7.2-2.8-7.2-7.2s3.2-7.5,7.6-7.5a10.5,10.5,0,0,1,3.5.6l-.6,2.1a7,7,0,0,0-2.8-.5c-2.9,0-5,1.8-5,5.2s1.8,5.1,5,5.1a7.8,7.8,0,0,0,2.8-.5Z"
          style="fill: #112025" />
        <path
          d="M100.6,255.3c0,4.8-2.9,7.5-6.9,7.5s-6.5-3-6.5-7.2,2.7-7.5,6.7-7.5S100.6,251.2,100.6,255.3Zm-10.7.2c0,2.9,1.5,5.2,4,5.2s3.9-2.3,3.9-5.3-1.3-5.2-3.9-5.2S89.9,252.6,89.9,255.5Z"
          style="fill: #112025" />
        <path
          d="M102.8,262.6V248.3h3l3.7,6.1c.9,1.6,1.7,3.3,2.4,4.8h0c-.1-1.9-.2-3.7-.2-5.9v-5h2.4v14.3h-2.7l-3.7-6.3a45.9,45.9,0,0,1-2.6-4.9h0c.1,1.9.1,3.7.1,6.1v5.1Z"
          style="fill: #112025" />
        <path
          d="M129.8,255.3c0,4.8-2.9,7.5-6.9,7.5s-6.5-3-6.5-7.2,2.7-7.5,6.7-7.5S129.8,251.2,129.8,255.3Zm-10.7.2c0,2.9,1.5,5.2,4,5.2s3.9-2.3,3.9-5.3-1.3-5.2-3.9-5.2S119.1,252.6,119.1,255.5Zm7.4-10.5-2.7,2.5h-2l1.8-2.5Z"
          style="fill: #112025" />
        <path
          d="M144.1,256.8c-.1-1.9-.2-4.1-.2-6h-.1a41.7,41.7,0,0,1-1.7,5.4l-2,6.2H138l-1.9-6.1c-.5-1.8-1-3.7-1.4-5.5h0c-.1,1.8-.2,4.1-.3,6.1l-.3,5.7h-2.4l.9-14.3H136l1.9,5.8a44.3,44.3,0,0,1,1.3,4.9h.1c.4-1.5.8-3.3,1.4-5l2-5.7H146l.9,14.3h-2.6Z"
          style="fill: #112025" />
        <path d="M152.1,248.3v14.3h-2.6V248.3Z" style="fill: #112025" />
        <path
          d="M165.3,262.2a9,9,0,0,1-3.6.6c-4.6,0-7.3-2.8-7.3-7.2s3.2-7.5,7.6-7.5a10.5,10.5,0,0,1,3.5.6l-.6,2.1a7,7,0,0,0-2.8-.5c-2.9,0-5,1.8-5,5.2s1.8,5.1,5,5.1a7.8,7.8,0,0,0,2.8-.5Z"
          style="fill: #112025" />
        <path
          d="M179.7,255.3c0,4.8-2.9,7.5-6.9,7.5s-6.5-3-6.5-7.2,2.7-7.5,6.7-7.5S179.7,251.2,179.7,255.3Zm-10.7.2c0,2.9,1.5,5.2,4,5.2s3.9-2.3,3.9-5.3-1.3-5.2-3.9-5.2S169,252.6,169,255.5Z"
          style="fill: #112025" />
        <path
          d="M181.8,259.8a9,9,0,0,0,3.5.9c1.7,0,2.6-.8,2.6-2s-.7-1.7-2.5-2.4-3.9-2-3.9-4.1,2-4.1,5-4.1a7.7,7.7,0,0,1,3.5.7l-.7,2.1a5.6,5.6,0,0,0-2.8-.7c-1.7,0-2.4.9-2.4,1.7s.9,1.7,2.8,2.4,3.6,2.2,3.6,4.2-1.7,4.3-5.4,4.3a7.9,7.9,0,0,1-3.8-.9Z"
          style="fill: #112025" />
      </g>
    </g>
  </g>
</svg>