<svg class="animate__animated" xmlns="http://www.w3.org/2000/svg" viewBox="0 0 736.8 550.3">
  <g id="Capa_2" data-name="Capa 2">
    <g id="Capa_1-2" data-name="Capa 1">
      <g class="hoverable" onclick="returnToGroups(); changeImage('rueda');">
        <circle cx="127.7" cy="264.6" r="105" style="fill: #bdc4c6"/>
        <circle cx="127.5" cy="266.6" r="127" style="fill: none;stroke: #aab8bd;stroke-miterlimit: 10"/>
        <g>
          <path d="M99.2,269.6a11.9,11.9,0,0,1-4.6.9,7.4,7.4,0,0,1-5.5-2,6.9,6.9,0,0,1-2-5.2c0-4.5,3.2-7.4,7.9-7.4a8.2,8.2,0,0,1,3.8.7l-.6,2.1A6.6,6.6,0,0,0,95,258c-3.1,0-5.2,1.8-5.2,5.2a4.7,4.7,0,0,0,5,5.1,4.1,4.1,0,0,0,1.9-.3v-3.5H94.2v-2.1h5Z" style="fill: #112025"/>
          <path d="M109.9,264h-5.4v4.2h6v2.1h-8.6V256h8.3v2.2h-5.7v3.7h5.4Z" style="fill: #112025"/>
          <path d="M112.7,267.5a7.5,7.5,0,0,0,3.5.9c1.7,0,2.6-.8,2.6-2s-.7-1.7-2.5-2.3-3.9-2.1-3.9-4.2,2-4.1,5-4.1a7.7,7.7,0,0,1,3.5.7l-.7,2.1a5.6,5.6,0,0,0-2.8-.7c-1.6,0-2.4.9-2.4,1.8s.9,1.6,2.8,2.3,3.6,2.2,3.6,4.2-1.7,4.3-5.4,4.3a7.9,7.9,0,0,1-3.8-.9Z" style="fill: #112025"/>
          <path d="M126.5,258.2h-4V256h10.7v2.2h-4.1v12.1h-2.6Z" style="fill: #112025"/>
          <path d="M137.5,256v14.3h-2.6V256Z" style="fill: #112025"/>
          <path d="M153.2,263c0,4.8-2.9,7.5-6.9,7.5s-6.5-3-6.5-7.2,2.7-7.5,6.7-7.5S153.2,259,153.2,263Zm-10.7.2c0,2.9,1.5,5.2,4,5.2s3.9-2.3,3.9-5.3-1.3-5.2-3.9-5.2S142.5,260.3,142.5,263.2Zm7.4-10.5-2.7,2.5h-2.1l1.9-2.5Z" style="fill: #112025"/>
          <path d="M155.4,270.3V256h3l3.6,6.2a35.7,35.7,0,0,1,2.5,4.7h0c-.1-1.9-.2-3.7-.2-5.9v-5h2.4v14.3H164l-3.7-6.3a45.9,45.9,0,0,1-2.6-4.9h0c.1,1.9.1,3.8.1,6.1v5.1Z" style="fill: #112025"/>
        </g>
      </g>
      <g class="hoverable" onclick="showInstrument('gestion', 'intervencion_en_la_propiedad', 'banco_de_tierras');">
        <path d="M490.2,194.5a375.8,375.8,0,0,0-11.5-44.4l228-74.9a602.6,602.6,0,0,1,19.1,73.6Z" style="fill: #84266a"/>
        <g>
          <path d="M516.4,156.2l2.9-1a5,5,0,0,1,3.4-.1,2.4,2.4,0,0,1,1.7,1.8,2.8,2.8,0,0,1-1.2,2.8h0a2.8,2.8,0,0,1,2.9,2.1,2.9,2.9,0,0,1-.5,2.6c-.6.9-1.8,1.6-3.8,2.1l-2.6.5Zm3.2,3.8,1-.2c1.4-.4,2-1.2,1.8-2.2s-1.2-1.3-2.5-1l-1.1.4Zm1.3,5.1,1.1-.2c1.3-.3,2.3-1.1,1.9-2.5s-1.5-1.5-2.9-1.1l-1,.2Z" style="fill: #fff"/>
          <path d="M532.9,163.6l-.4-.8h0a3.4,3.4,0,0,1-2.1,1.7,2.5,2.5,0,0,1-3.1-1.8c-.6-2,1-3.5,3.9-4.2v-.2c-.1-.5-.6-1.3-2-.9a4.3,4.3,0,0,0-2,1.1l-.7-1.2a6.6,6.6,0,0,1,2.7-1.5c2.6-.6,3.7.8,4.2,2.6l.7,2.9c.2.7.4,1.4.6,1.9Zm-1.3-3.8c-1.4.3-2.7,1-2.4,2.2a1.2,1.2,0,0,0,1.5.9,1.8,1.8,0,0,0,1.3-1.6c0-.1-.1-.3-.1-.4Z" style="fill: #fff"/>
          <path d="M535,157.1c-.2-.9-.5-1.7-.7-2.4l1.8-.4.4,1.1h0a3,3,0,0,1,2.2-2c1.4-.4,3.1.2,3.8,2.7l1.2,4.8-2,.5-1.2-4.5c-.3-1.2-.9-2-2-1.7a1.8,1.8,0,0,0-1.3,1.6,1.7,1.7,0,0,0,.1.7l1.2,4.7-2.1.5Z" style="fill: #fff"/>
          <path d="M551.4,158.7a5.8,5.8,0,0,1-2.2.9,4,4,0,0,1-5.2-3,4.3,4.3,0,0,1,3.4-5.4,4.6,4.6,0,0,1,2-.1v1.6a3,3,0,0,0-1.6.1,2.4,2.4,0,0,0-1.8,3.2,2.4,2.4,0,0,0,3.1,1.9,2.6,2.6,0,0,0,1.5-.7Z" style="fill: #fff"/>
          <path d="M559,152.6a4.2,4.2,0,1,1-8.1,2.2,4.2,4.2,0,0,1,3.1-5.3A4,4,0,0,1,559,152.6Zm-6,1.6c.4,1.6,1.5,2.6,2.7,2.2s1.7-1.6,1.3-3.2-1.3-2.6-2.7-2.2S552.7,152.9,553,154.2Z" style="fill: #fff"/>
          <path d="M568.9,142l2.4,9.4a19.4,19.4,0,0,0,.7,2.2l-1.8.5-.4-1.2h-.1a2.9,2.9,0,0,1-2.2,2.1c-1.9.5-3.9-.8-4.5-3.2s.6-4.7,2.5-5.2a2.5,2.5,0,0,1,2.5.4h.1l-1.2-4.5Zm-.2,7.5c-.1-.2-.1-.4-.2-.5a1.8,1.8,0,0,0-2.1-1c-1.3.3-1.7,1.7-1.4,3.2s1.4,2.3,2.7,2a2,2,0,0,0,1.4-1.9c0-.2-.1-.4-.1-.6Z" style="fill: #fff"/>
          <path d="M574.3,149.4a2.2,2.2,0,0,0,3,1.4,4.6,4.6,0,0,0,2.1-.9l.7,1.3a6.8,6.8,0,0,1-2.7,1.2,3.8,3.8,0,0,1-5.1-3c-.6-2.2.2-4.6,2.8-5.3s4,1.3,4.4,3a5.1,5.1,0,0,1,.2.9Zm3.2-2.3a1.8,1.8,0,0,0-2.2-1.6,2.2,2.2,0,0,0-1.4,2.5Z" style="fill: #fff"/>
          <path d="M587.2,139.7l-3.1.8-.5-1.7,8.4-2.1.5,1.7-3.2.8,2.4,9.4-2.1.5Z" style="fill: #fff"/>
          <path d="M595,136.8a1.2,1.2,0,0,1-2.3.6,1.2,1.2,0,0,1,.9-1.4A1.1,1.1,0,0,1,595,136.8Zm.5,10.8-2.1-8,2.1-.5,2,8Z" style="fill: #fff"/>
          <path d="M599.9,142.8c.4,1.5,1.7,1.8,3,1.5a5.9,5.9,0,0,0,2.1-1l.7,1.4a8.6,8.6,0,0,1-2.7,1.2,3.9,3.9,0,0,1-5.1-3c-.6-2.2.2-4.7,2.8-5.3s4,1.2,4.4,3a5.1,5.1,0,0,1,.2.9Zm3.2-2.3a1.8,1.8,0,0,0-2.2-1.5,2,2,0,0,0-1.3,2.4Z" style="fill: #fff"/>
          <path d="M606.1,139.1a13.8,13.8,0,0,0-.7-2.6l1.8-.4.4,1.5h.1a2.5,2.5,0,0,1,1.8-2.3h.5l.4,2h-.6a2,2,0,0,0-1.4,2,2,2,0,0,0,.1.7l1.1,4.1-2.1.6Z" style="fill: #fff"/>
          <path d="M611.7,137.7l-.7-2.6,1.7-.4.5,1.5h0a2.5,2.5,0,0,1,1.8-2.3h.5l.5,1.9h-.6a2,2,0,0,0-1.5,2,1.5,1.5,0,0,1,.1.7l1.1,4.1-2,.5Z" style="fill: #fff"/>
          <path d="M623,140.6l-.4-.9h0a3.2,3.2,0,0,1-2.1,1.6,2.6,2.6,0,0,1-3.2-1.7c-.5-2,1.1-3.5,4-4.3h0c-.1-.5-.6-1.3-2-1a4.5,4.5,0,0,0-2,1.2l-.7-1.2a4.9,4.9,0,0,1,2.7-1.5c2.6-.7,3.7.8,4.2,2.5l.7,2.9a10.8,10.8,0,0,0,.6,1.9Zm-1.3-3.9c-1.4.4-2.7,1-2.4,2.3a1,1,0,0,0,1.4.8,1.6,1.6,0,0,0,1.3-1.5c.1-.1,0-.3,0-.4Z" style="fill: #fff"/>
          <path d="M625.9,137.9a5.4,5.4,0,0,0,2.2,0c.9-.2,1.2-.7,1.1-1.2s-.5-.7-1.6-.8-2.6-.9-2.8-1.8.5-2.8,2.4-3.3a5.7,5.7,0,0,1,2.2-.1v1.6a2.6,2.6,0,0,0-1.8-.1c-.8.2-1.1.7-.9,1.2s.5.6,1.7.7,2.4.7,2.7,1.9-.5,2.8-2.6,3.4a5.7,5.7,0,0,1-2.6,0Z" style="fill: #fff"/>
        </g>
      </g>
      <g class="hoverable" onclick="showInstrument('gestion', 'intervencion_en_la_propiedad', 'derechos_de_propiedad');">
        <path d="M477.7,147.3a356,356,0,0,0-17.4-42.4L676.2,0a599.5,599.5,0,0,1,28.9,70.5Z" style="fill: #84266a"/>
        <g>
          <path d="M499.9,105.6l3-1.4a6.4,6.4,0,0,1,4.8-.4,4.8,4.8,0,0,1,3.2,3.3,5.6,5.6,0,0,1,0,4.9,8,8,0,0,1-4.3,3.3l-2.7.9Zm5.4,8.3,1.1-.3c2.6-1,3.5-3,2.5-5.7s-2.8-3.2-5.2-2.2a3.1,3.1,0,0,0-1.3.6Z" style="fill: #fff"/>
          <path d="M514.5,108.3a2.2,2.2,0,0,0,3.1,1.1,6.2,6.2,0,0,0,2-1.2l.9,1.3a11.9,11.9,0,0,1-2.6,1.5,4,4,0,0,1-5.5-2.4c-.8-2.1-.3-4.7,2.2-5.6s4.2.8,4.8,2.5l.3.8Zm2.9-2.7a1.8,1.8,0,1,0-3.4,1.3Z" style="fill: #fff"/>
          <path d="M520.2,103.9l-1-2.5,1.7-.6.6,1.4h.1a2.6,2.6,0,0,1,1.5-2.5h.5l.7,1.8-.6.2a1.8,1.8,0,0,0-1.2,2.1,2.5,2.5,0,0,0,.2.7l1.5,4-1.9.7Z" style="fill: #fff"/>
          <path d="M527.6,103.3c.5,1.4,1.9,1.5,3.1,1.1a8.7,8.7,0,0,0,2-1.2l.8,1.2a7.2,7.2,0,0,1-2.5,1.5,3.9,3.9,0,0,1-5.5-2.3c-.8-2.2-.3-4.7,2.2-5.7s4.1.8,4.8,2.5a5.1,5.1,0,0,1,.2.9Zm2.8-2.7a1.8,1.8,0,0,0-2.3-1.3,2.1,2.1,0,0,0-1.1,2.6Z" style="fill: #fff"/>
          <path d="M540.9,101.7a7.9,7.9,0,0,1-2,1.2,4,4,0,0,1-5.5-2.4,4.3,4.3,0,0,1,2.7-5.8,5.4,5.4,0,0,1,2-.4l.2,1.6a3.9,3.9,0,0,0-1.6.3,2.5,2.5,0,0,0-1.4,3.4,2.5,2.5,0,0,0,3.4,1.6,4.2,4.2,0,0,0,1.4-.9Z" style="fill: #fff"/>
          <path d="M537.8,90.2l2-.8,1.7,4.6h.1a3.1,3.1,0,0,1,1.8-2.1c1.3-.5,3-.2,4,2.3l1.7,4.6-1.9.7-1.7-4.3c-.4-1.1-1.2-1.8-2.2-1.4a1.7,1.7,0,0,0-1.1,1.7,1.5,1.5,0,0,0,.1.6l1.8,4.6-2,.8Z" style="fill: #fff"/>
          <path d="M556.7,91.3a4.2,4.2,0,1,1-7.8,3.2c-.9-2.6.1-4.8,2.5-5.7A3.9,3.9,0,0,1,556.7,91.3Zm-5.8,2.3c.6,1.5,1.8,2.4,3,1.9s1.4-1.8.8-3.4-1.5-2.3-2.8-1.8S550.4,92.4,550.9,93.6Z" style="fill: #fff"/>
          <path d="M558.8,93a4.3,4.3,0,0,0,2.2-.2c.8-.3,1.1-.8.9-1.3s-.7-.7-1.7-.7-2.7-.5-3-1.4.2-2.9,1.9-3.6a5,5,0,0,1,2.3-.3V87a4.1,4.1,0,0,0-1.8.2c-.7.3-.9.8-.7,1.2s.6.6,1.7.6,2.5.4,3,1.6-.2,2.8-2.2,3.6a5.2,5.2,0,0,1-2.6.4Z" style="fill: #fff"/>
          <path d="M571.6,77.2l3.5,9.1c.3.8.7,1.6.9,2.1l-1.7.7-.6-1.2h0a3.4,3.4,0,0,1-2,2.4c-1.8.7-3.9-.3-4.8-2.7s0-4.8,1.8-5.5a2.8,2.8,0,0,1,2.6.2h0l-1.7-4.4Zm.7,7.5-.3-.5a1.7,1.7,0,0,0-2.2-.7c-1.3.4-1.5,1.8-1,3.3s1.7,2.1,2.9,1.7a2,2,0,0,0,1.2-2.1c-.1-.2-.1-.4-.2-.6Z" style="fill: #fff"/>
          <path d="M577.8,83.9c.6,1.4,1.9,1.6,3.2,1.1a6.2,6.2,0,0,0,2-1.2l.8,1.2a8.3,8.3,0,0,1-2.5,1.6c-2.5.9-4.6,0-5.5-2.4s-.3-4.7,2.2-5.6,4.1.8,4.7,2.5a1.6,1.6,0,0,1,.3.8Zm2.9-2.7a1.7,1.7,0,0,0-2.3-1.2,2,2,0,0,0-1.1,2.5Z" style="fill: #fff"/>
          <path d="M584.6,73a15.8,15.8,0,0,1,2.9-1.4,5.5,5.5,0,0,1,3.5-.3,3,3,0,0,1,1.9,1.9A3.9,3.9,0,0,1,593,76a5.4,5.4,0,0,1-3,2.5l-1,.3,1.6,4-2,.7Zm3.8,4.2,1-.3c1.5-.5,2.1-1.6,1.6-2.8s-1.5-1.5-2.9-1l-1.1.5Z" style="fill: #fff"/>
          <path d="M594.9,75.1l-1-2.5,1.7-.6.6,1.4h.1a2.5,2.5,0,0,1,1.5-2.5h.4l.8,1.9h-.6a1.8,1.8,0,0,0-1.2,2.2,1.4,1.4,0,0,0,.2.6l1.5,4-2,.7Z" style="fill: #fff"/>
          <path d="M608,71.6a4.1,4.1,0,0,1-2.4,5.6,3.9,3.9,0,0,1-5.4-2.5,4.1,4.1,0,0,1,2.4-5.6A4,4,0,0,1,608,71.6Zm-5.8,2.3c.5,1.5,1.7,2.3,2.9,1.9s1.5-1.8.9-3.4-1.6-2.4-2.9-1.9S601.7,72.6,602.2,73.9Z" style="fill: #fff"/>
          <path d="M608.8,69.9c-.4-1.1-.8-1.9-1.1-2.6l1.7-.7.6,1.2h0a3.5,3.5,0,0,1,2.2-2.4c1.7-.7,3.8.3,4.7,2.7s-.1,4.8-1.9,5.5a2.6,2.6,0,0,1-2.6-.2h0l1.5,4-1.9.8Zm2.7,1.1a.8.8,0,0,0,.2.5,1.8,1.8,0,0,0,2.3.7c1.2-.4,1.6-1.7,1-3.3s-1.7-2.2-2.9-1.7a2,2,0,0,0-1.2,2.1,4.3,4.3,0,0,0,.1.5Z" style="fill: #fff"/>
          <path d="M618,60.9a1,1,0,0,1-.7,1.4,1.1,1.1,0,0,1-1.5-.6,1.2,1.2,0,0,1,.7-1.5A1.1,1.1,0,0,1,618,60.9Zm1.7,10.7-2.9-7.8,1.9-.7,3,7.7Z" style="fill: #fff"/>
          <path d="M623.6,66.3a2.2,2.2,0,0,0,3.1,1,6.8,6.8,0,0,0,2.1-1.1l.8,1.2a7.7,7.7,0,0,1-2.6,1.5,3.8,3.8,0,0,1-5.4-2.3c-.9-2.2-.3-4.7,2.1-5.7s4.2.8,4.8,2.5a9.2,9.2,0,0,1,.3.9Zm2.9-2.7a1.9,1.9,0,0,0-2.4-1.3,2,2,0,0,0-1,2.6Z" style="fill: #fff"/>
          <path d="M634.1,53.1l3.6,9.1a14.6,14.6,0,0,0,.9,2.1l-1.8.7-.5-1.2h-.1a3,3,0,0,1-2,2.4c-1.8.7-3.9-.3-4.8-2.7s0-4.8,1.9-5.5a2.8,2.8,0,0,1,2.6.2h0l-1.7-4.4Zm.7,7.5c-.1-.2-.1-.4-.2-.5a1.9,1.9,0,0,0-2.3-.7c-1.2.4-1.5,1.8-.9,3.3a2.3,2.3,0,0,0,2.9,1.7,2.1,2.1,0,0,0,1.1-2.1,1.4,1.4,0,0,0-.2-.6Z" style="fill: #fff"/>
          <path d="M644.6,62l-.4-.8h-.1a3,3,0,0,1-1.9,1.9,2.5,2.5,0,0,1-3.3-1.4c-.7-1.9.6-3.6,3.5-4.7h-.1c-.2-.5-.7-1.3-2.1-.7a4.9,4.9,0,0,0-1.8,1.3l-.9-1.1a5,5,0,0,1,2.5-1.7c2.5-1,3.8.3,4.5,2l1.1,2.8a7.5,7.5,0,0,0,.8,1.8Zm-1.7-3.7c-1.4.5-2.6,1.3-2.1,2.5a1.1,1.1,0,0,0,1.5.7,1.7,1.7,0,0,0,1.1-1.7c0-.2,0-.3-.1-.4Z" style="fill: #fff"/>
          <path d="M650.8,46.6l3.5,9.1.9,2.2-1.7.7-.6-1.2h0a3.2,3.2,0,0,1-2,2.4c-1.8.7-3.9-.3-4.8-2.7s0-4.8,1.8-5.5a2.8,2.8,0,0,1,2.6.2h0l-1.6-4.4Zm.7,7.6-.3-.5a1.9,1.9,0,0,0-2.2-.8c-1.3.5-1.5,1.9-1,3.3s1.7,2.2,2.9,1.7a1.9,1.9,0,0,0,1.2-2c-.1-.2-.1-.4-.2-.6Z" style="fill: #fff"/>
        </g>
      </g>
      <g class="hoverable" onclick="returnToTypesInstrument(); changeImage('gestion/G_Herramienta_Segundo_Plano');">
        <path d="M428,417.1,273.8,332.7A157.1,157.1,0,0,0,272,194.2l156-79.4a332.6,332.6,0,0,1,36,150.4C464,315.2,449.3,372.3,428,417.1Z" style="fill: #29abe2"/>
        <path d="M416.5,411.6,264,339c9.7-20.4,18.4-51.4,18.4-74.3a150.4,150.4,0,0,0-16.3-68.6l150.6-76.6a321.8,321.8,0,0,1,34.7,145.2C451.4,312.9,437.2,368.4,416.5,411.6Z" style="fill: #84266a"/>
        <g>
          <path d="M294,242.5V258h-2V242.5Z" style="fill: #fff"/>
          <path d="M297.7,249.8a29.1,29.1,0,0,0-.1-3h1.8v1.9h.1a3.9,3.9,0,0,1,3.6-2.1c1.6,0,4,.9,4,4.7V258h-2.1v-6.5c0-1.7-.6-3.2-2.5-3.2a2.7,2.7,0,0,0-2.7,2,3,3,0,0,0-.2,1V258h-2Z" style="fill: #fff"/>
          <path d="M312.8,243.6v3.2h2.9v1.6h-2.9v6c0,1.4.4,2.1,1.5,2.1h1.2v1.5a4.2,4.2,0,0,1-1.8.3,2.7,2.7,0,0,1-2.2-.9,3.9,3.9,0,0,1-.8-2.9v-6h-1.7v-1.6h1.7v-2.6Z" style="fill: #fff"/>
          <path d="M319,252.8a3.5,3.5,0,0,0,3.8,3.8,8.3,8.3,0,0,0,3.1-.5l.3,1.4a9.2,9.2,0,0,1-3.7.7,5.2,5.2,0,0,1-5.5-5.6c0-3.4,2-6,5.3-6s4.6,3.2,4.6,5.2c0,.4-.1.8-.1,1Zm5.9-1.5c0-1.3-.5-3.3-2.8-3.3s-2.9,1.9-3.1,3.3Z" style="fill: #fff"/>
          <path d="M329.4,250.3c0-1.3-.1-2.4-.1-3.5H331V249h.1a3.3,3.3,0,0,1,3.1-2.4h.6v2h-.7a2.7,2.7,0,0,0-2.7,2.6,2.8,2.8,0,0,0-.1.9v6h-2Z" style="fill: #fff"/>
          <path d="M338.2,246.8l2.2,6.3a18,18,0,0,1,.9,2.8h.1c.2-.9.6-1.8.9-2.8l2.2-6.3h2.1L342.2,258h-1.9l-4.2-11.2Z" style="fill: #fff"/>
          <path d="M349.4,252.8a3.6,3.6,0,0,0,3.8,3.8,7.6,7.6,0,0,0,3.1-.5l.4,1.4a10,10,0,0,1-3.7.7c-3.5,0-5.5-2.3-5.5-5.6s2-6,5.2-6,4.6,3.2,4.6,5.2a2.8,2.8,0,0,1-.1,1Zm6-1.5c0-1.3-.6-3.3-2.9-3.3s-2.9,1.9-3.1,3.3Z" style="fill: #fff"/>
          <path d="M359.8,249.8a29.1,29.1,0,0,0-.1-3h1.8v1.9h.1a3.9,3.9,0,0,1,3.7-2.1c1.5,0,3.9.9,3.9,4.7V258h-2v-6.5c0-1.7-.7-3.2-2.6-3.2a2.8,2.8,0,0,0-2.7,2,3,3,0,0,0-.2,1V258h-2Z" style="fill: #fff"/>
          <path d="M380.5,257.5a6.9,6.9,0,0,1-3.2.7c-3.3,0-5.5-2.3-5.5-5.7a5.6,5.6,0,0,1,6-5.9,6.9,6.9,0,0,1,2.8.6l-.5,1.5a5.6,5.6,0,0,0-2.3-.5,4.2,4.2,0,0,0-.1,8.4,5.4,5.4,0,0,0,2.5-.6Z" style="fill: #fff"/>
          <path d="M385.1,243.7c.1.7-.4,1.2-1.3,1.2a1.2,1.2,0,0,1-1.2-1.2,1.3,1.3,0,0,1,1.3-1.3A1.2,1.2,0,0,1,385.1,243.7ZM382.9,258V246.8h2V258Z" style="fill: #fff"/>
          <path d="M398.3,252.3c0,4.1-2.8,5.9-5.5,5.9s-5.3-2.2-5.3-5.7,2.4-5.9,5.5-5.9S398.3,248.9,398.3,252.3Zm-8.8.1c0,2.5,1.4,4.3,3.4,4.3s3.4-1.8,3.4-4.3-1-4.3-3.4-4.3S389.5,250.3,389.5,252.4Zm6.4-10.4-2.8,3.3h-1.4l2-3.3Z" style="fill: #fff"/>
          <path d="M400.9,249.8a29.1,29.1,0,0,0-.1-3h1.8v1.9h.1a3.9,3.9,0,0,1,3.6-2.1c1.6,0,4,.9,4,4.7V258h-2.1v-6.5c0-1.7-.6-3.2-2.5-3.2a2.7,2.7,0,0,0-2.7,2,3,3,0,0,0-.2,1V258h-2Z" style="fill: #fff"/>
          <path d="M293.1,280.4a3.5,3.5,0,0,0,3.8,3.8,8,8,0,0,0,3.1-.5l.3,1.4a9.2,9.2,0,0,1-3.7.7c-3.4,0-5.4-2.3-5.4-5.6s1.9-6,5.2-6,4.6,3.2,4.6,5.2c0,.4-.1.8-.1,1Zm5.9-1.5c0-1.3-.5-3.3-2.8-3.3s-2.9,1.9-3.1,3.3Z" style="fill: #fff"/>
          <path d="M303.5,277.4a29.1,29.1,0,0,0-.1-3h1.8v1.9h.1a3.9,3.9,0,0,1,3.6-2.1c1.6,0,4,.9,4,4.7v6.7h-2.1v-6.5c0-1.7-.6-3.2-2.5-3.2a2.9,2.9,0,0,0-2.8,2c0,.3-.1.6-.1,1v6.7h-2Z" style="fill: #fff"/>
          <path d="M321.1,269.2h2.1v16.4h-2.1Z" style="fill: #fff"/>
          <path d="M332.7,285.6v-1.4h-.1a4.3,4.3,0,0,1-3.4,1.6,3.1,3.1,0,0,1-3.4-3.2c0-2.7,2.4-4.1,6.7-4.1v-.3a2.3,2.3,0,0,0-2.6-2.5,5.7,5.7,0,0,0-2.9.8l-.4-1.3a6.6,6.6,0,0,1,3.6-1c3.4,0,4.3,2.3,4.3,4.5v4.2a11.4,11.4,0,0,0,.2,2.7Zm-.3-5.7c-2.2-.1-4.7.3-4.7,2.5a1.8,1.8,0,0,0,1.9,1.9,2.7,2.7,0,0,0,2.7-1.8,2,2,0,0,0,.1-.7Z" style="fill: #fff"/>
          <path d="M342.6,270.2a32.6,32.6,0,0,1,3.8-.3,6.6,6.6,0,0,1,4.4,1.3,4.5,4.5,0,0,1,1.3,3.3,4.5,4.5,0,0,1-1.2,3.3,6.3,6.3,0,0,1-4.7,1.7h-1.6v6.2h-2Zm2,7.5,1.6.2c2.5,0,3.9-1.2,3.9-3.3s-1.4-3.1-3.6-3.1l-1.9.2Z" style="fill: #fff"/>
          <path d="M354.4,277.9c0-1.3,0-2.4-.1-3.5h1.8v2.2h.1a3.4,3.4,0,0,1,3.1-2.4h.6v2h-.7a2.9,2.9,0,0,0-2.7,2.6,2.8,2.8,0,0,0-.1.9v6h-2Z" style="fill: #fff"/>
          <path d="M371.7,279.9c0,4.1-2.8,5.9-5.5,5.9s-5.3-2.2-5.3-5.7,2.4-5.9,5.5-5.9S371.7,276.5,371.7,279.9Zm-8.8.1c0,2.5,1.4,4.3,3.4,4.3s3.4-1.8,3.4-4.3-1-4.3-3.4-4.3S362.9,277.9,362.9,280Z" style="fill: #fff"/>
          <path d="M374.3,278.1c0-1.5,0-2.6-.1-3.7H376v1.9h.1a4.3,4.3,0,0,1,3.9-2.1c2.7,0,4.7,2.3,4.7,5.6s-2.4,6-5,6a3.7,3.7,0,0,1-3.4-1.7h-.1v6h-2Zm2,2.9c0,.3.1.6.1.9a3.1,3.1,0,0,0,3,2.3c2.2,0,3.4-1.7,3.4-4.3s-1.2-4.1-3.3-4.1a3.3,3.3,0,0,0-3.1,2.5c0,.2-.1.5-.1.8Z" style="fill: #fff"/>
          <path d="M389.6,271.3c.1.7-.4,1.2-1.2,1.2a1.2,1.2,0,0,1-1.3-1.2,1.3,1.3,0,0,1,1.3-1.3A1.2,1.2,0,0,1,389.6,271.3Zm-2.2,14.3V274.4h2v11.2Z" style="fill: #fff"/>
          <path d="M393.9,280.4a3.5,3.5,0,0,0,3.8,3.8,8,8,0,0,0,3.1-.5l.3,1.4a9.2,9.2,0,0,1-3.7.7c-3.4,0-5.4-2.3-5.4-5.6s1.9-6,5.2-6,4.6,3.2,4.6,5.2c0,.4-.1.8-.1,1Zm5.9-1.5a2.8,2.8,0,0,0-2.8-3.3c-2,0-2.9,1.9-3.1,3.3Z" style="fill: #fff"/>
          <path d="M413.9,269.2v13.5a26.2,26.2,0,0,0,.1,2.9h-1.8v-2H412a3.9,3.9,0,0,1-3.7,2.2c-2.7,0-4.8-2.3-4.8-5.6s2.3-6,5-6a3.6,3.6,0,0,1,3.3,1.7h.1v-6.7Zm-2,9.8a2.8,2.8,0,0,0-.1-.9,2.9,2.9,0,0,0-2.9-2.3c-2.1,0-3.4,1.8-3.4,4.3s1.1,4.1,3.3,4.1a3.1,3.1,0,0,0,3-2.4,2.8,2.8,0,0,0,.1-.9Z" style="fill: #fff"/>
          <path d="M423.4,285.6v-1.4h-.1a4.3,4.3,0,0,1-3.4,1.6,3.1,3.1,0,0,1-3.4-3.2c0-2.7,2.4-4.1,6.7-4.1v-.3a2.3,2.3,0,0,0-2.5-2.5,5.2,5.2,0,0,0-2.9.8l-.5-1.3a7,7,0,0,1,3.7-1c3.4,0,4.2,2.3,4.2,4.5v4.2a11.4,11.4,0,0,0,.2,2.7Zm-.3-5.7c-2.2-.1-4.7.3-4.7,2.5a1.8,1.8,0,0,0,1.9,1.9,2.7,2.7,0,0,0,2.7-1.8,2,2,0,0,0,.1-.7Z" style="fill: #fff"/>
          <path d="M438,269.2v13.5a26.2,26.2,0,0,0,.1,2.9h-1.9v-2h0a4,4,0,0,1-3.8,2.2c-2.7,0-4.8-2.3-4.8-5.6s2.3-6,5-6a3.8,3.8,0,0,1,3.4,1.7h0v-6.7Zm-2.1,9.8a2.8,2.8,0,0,0-.1-.9,2.8,2.8,0,0,0-2.9-2.3c-2.1,0-3.3,1.8-3.3,4.3s1.1,4.1,3.3,4.1a3,3,0,0,0,2.9-2.4,2.8,2.8,0,0,0,.1-.9Z" style="fill: #fff"/>
        </g>
      </g>
      <g class="hoverable" onclick="showInstrument('gestion', 'intervencion_en_la_propiedad', 'enajenacion');">
        <path d="M726.7,152.7,490.8,196.4s5.1,20.4,6.1,53.4l238.9-19.9A641.2,641.2,0,0,0,726.7,152.7Z" style="fill: #892972"/>
        <g>
          <path d="M535.5,210.4l-4.3.5.4,3.4,4.8-.6.2,1.7-6.9.8-1.4-11.4,6.6-.8.2,1.7-4.5.6.4,2.9,4.2-.5Z" style="fill: #fff"/>
          <path d="M537.3,209.4c-.1-.9-.3-1.7-.4-2.4l1.8-.2.3,1.2h0a3.2,3.2,0,0,1,2.5-1.8c1.4-.1,3,.6,3.3,3.2l.6,4.9-2,.2-.6-4.6c-.2-1.2-.7-2-1.8-1.9a1.7,1.7,0,0,0-1.5,1.4c-.1.2,0,.5,0,.7l.6,4.8-2.1.3Z" style="fill: #fff"/>
          <path d="M551.9,213.5l-.2-.9h-.1a2.9,2.9,0,0,1-2.3,1.4,2.4,2.4,0,0,1-2.8-2.1c-.3-2.1,1.4-3.4,4.5-3.8h-.1c0-.5-.4-1.4-1.8-1.2a3.7,3.7,0,0,0-2.1.9l-.6-1.3a4.9,4.9,0,0,1,2.9-1.1c2.6-.4,3.6,1.2,3.8,3l.3,3c.1.7.3,1.4.4,1.9Zm-.7-4c-1.5.1-2.9.6-2.7,1.9a1.1,1.1,0,0,0,1.3,1,1.7,1.7,0,0,0,1.5-1.3v-1.6Z" style="fill: #fff"/>
          <path d="M554,215.2c.6-.2,1.2-.4,1.4-.8s.5-1.2.2-2.9l-.8-6.7,2.1-.3.9,7.3a4.8,4.8,0,0,1-.6,3.6,5,5,0,0,1-2.8,1.4Zm2.7-13a1.1,1.1,0,0,1-1,1.3,1.1,1.1,0,0,1-1.3-1,1.1,1.1,0,0,1,1-1.3A1.1,1.1,0,0,1,556.7,202.2Z" style="fill: #fff"/>
          <path d="M560.8,208.8a2.2,2.2,0,0,0,2.8,1.8,5.8,5.8,0,0,0,2.2-.6l.5,1.4a8.5,8.5,0,0,1-2.8.8c-2.7.3-4.4-1.1-4.7-3.6s.8-4.6,3.4-4.9,3.8,1.7,4.1,3.5v.9Zm3.4-1.9a1.7,1.7,0,0,0-1.9-1.8,2.1,2.1,0,0,0-1.7,2.2Z" style="fill: #fff"/>
          <path d="M567.4,205.7q-.1-1.3-.3-2.4l1.8-.3.2,1.3h.1a3.3,3.3,0,0,1,2.4-1.7c1.5-.2,3.1.6,3.4,3.2l.6,4.9-2.1.2-.6-4.6c-.1-1.2-.6-2.1-1.8-1.9a1.8,1.8,0,0,0-1.5,1.4v.7l.6,4.8-2,.3Z" style="fill: #fff"/>
          <path d="M582.1,209.7l-.2-.8h-.1a3.2,3.2,0,0,1-2.3,1.4,2.5,2.5,0,0,1-2.9-2.2c-.2-2,1.5-3.3,4.5-3.7h0c-.1-.6-.4-1.4-1.8-1.2a4.4,4.4,0,0,0-2.2.8l-.6-1.3a7.3,7.3,0,0,1,2.9-1.1c2.7-.3,3.6,1.3,3.8,3.1l.4,3a9,9,0,0,0,.4,1.9Zm-.8-3.9c-1.4.1-2.8.6-2.6,1.9a1,1,0,0,0,1.3,1,1.7,1.7,0,0,0,1.5-1.3v-.5Z" style="fill: #fff"/>
          <path d="M591.7,208.3a4.7,4.7,0,0,1-2.2.7,4,4,0,0,1-4.8-3.7,4.2,4.2,0,0,1,4-4.9,6.9,6.9,0,0,1,2.1.1l-.2,1.6a3.7,3.7,0,0,0-1.6-.1,2.5,2.5,0,0,0-2.2,3,2.4,2.4,0,0,0,2.9,2.3,5,5,0,0,0,1.6-.5Z" style="fill: #fff"/>
          <path d="M593.9,197.6a1.2,1.2,0,0,1-2.4.3,1.3,1.3,0,0,1,1.1-1.3A1.1,1.1,0,0,1,593.9,197.6Zm-.9,10.8-1.1-8.2,2.1-.3,1.1,8.2Z" style="fill: #fff"/>
          <path d="M604.2,202.8a4.2,4.2,0,1,1-8.3,1.1,4.2,4.2,0,0,1,3.7-4.9A4,4,0,0,1,604.2,202.8Zm-6.1.8c.2,1.6,1.1,2.7,2.3,2.5s1.9-1.4,1.7-3-.9-2.7-2.3-2.5S597.9,202.2,598.1,203.6Zm3.5-8.2-1.7,2.7-1.5.2,1.2-2.7Z" style="fill: #fff"/>
          <path d="M605.4,201q-.1-1.4-.3-2.4l1.8-.3.2,1.3h.1a3.3,3.3,0,0,1,2.4-1.7c1.5-.2,3.1.6,3.4,3.2l.6,4.9-2.1.2-.6-4.6c-.1-1.2-.7-2.1-1.8-1.9a1.8,1.8,0,0,0-1.5,1.4v.7l.6,4.8-2.1.3Z" style="fill: #fff"/>
          <path d="M618.9,196.8l1.9,4.1c.3.6.5,1.3.8,1.9h0l.3-2.1.8-4.3,2.2-.3-2.1,8.6-2.1.3-4-7.9Z" style="fill: #fff"/>
          <path d="M633.9,199.1a4.1,4.1,0,0,1-3.6,4.9,4,4,0,0,1-4.7-3.7c-.3-2.8,1.2-4.6,3.7-4.9A3.9,3.9,0,0,1,633.9,199.1Zm-6.1.8c.1,1.6,1.1,2.7,2.3,2.6s1.9-1.4,1.7-3.1-.9-2.7-2.3-2.5S627.6,198.6,627.8,199.9Z" style="fill: #fff"/>
          <path d="M634.3,191.1l2.1-.2,1.5,11.9-2.1.3Z" style="fill: #fff"/>
          <path d="M646.9,199.2a14.5,14.5,0,0,0,.4,2.5l-1.9.2-.2-1.2h-.1a2.6,2.6,0,0,1-2.4,1.7c-1.5.2-3-.5-3.3-3.2l-.6-4.8,2.1-.3.5,4.5c.2,1.4.7,2.2,1.8,2.1a1.9,1.9,0,0,0,1.5-1.3v-.7l-.6-5,2.1-.2Z" style="fill: #fff"/>
          <path d="M648.4,195.7a14.5,14.5,0,0,0-.4-2.5l1.8-.2.3,1.2h0a3.1,3.1,0,0,1,2.5-1.7c1.4-.2,3,.6,3.3,3.2l.6,4.8-2,.3-.6-4.6c-.2-1.2-.7-2.1-1.8-1.9a1.6,1.6,0,0,0-1.5,1.4v.7l.6,4.8-2.1.3Z" style="fill: #fff"/>
          <path d="M659.4,189.5l.3,2.3,2-.2.2,1.5-2,.3.4,3.6c.2,1,.5,1.5,1.3,1.4l.8-.2.2,1.6a4.3,4.3,0,0,1-1.5.3,2.1,2.1,0,0,1-1.8-.4,3.5,3.5,0,0,1-1-2.2l-.4-3.9-1.2.2-.2-1.6h1.2l-.3-1.9Z" style="fill: #fff"/>
          <path d="M668.6,199.1l-.3-.9h0a3.6,3.6,0,0,1-2.3,1.4,2.4,2.4,0,0,1-2.9-2.2c-.3-2,1.4-3.3,4.5-3.7h0c-.1-.6-.4-1.4-1.9-1.2a4.4,4.4,0,0,0-2.1.8l-.6-1.3a7.3,7.3,0,0,1,2.9-1.1c2.6-.3,3.6,1.3,3.8,3.1l.4,3c.1.7.2,1.4.3,1.9Zm-.8-4c-1.5.1-2.8.6-2.7,1.9a1.1,1.1,0,0,0,1.3,1,1.6,1.6,0,0,0,1.5-1.3v-1.6Z" style="fill: #fff"/>
          <path d="M671.5,193c-.2-1.1-.3-1.9-.4-2.6l1.8-.2.3,1.5h0a2.5,2.5,0,0,1,2.1-2h.4l.3,1.9h-.6a2,2,0,0,0-1.7,1.8v.7l.5,4.3-2,.2Z" style="fill: #fff"/>
          <path d="M678.8,187.1a1.3,1.3,0,0,1-1.1,1.3,1.1,1.1,0,0,1-1.3-1,1.2,1.2,0,0,1,1.1-1.3A1.1,1.1,0,0,1,678.8,187.1Zm-1,10.8-1-8.2,2.1-.3,1,8.2Z" style="fill: #fff"/>
          <path d="M686.5,196.8l-.3-.9h0a3.6,3.6,0,0,1-2.3,1.4,2.4,2.4,0,0,1-2.9-2.2c-.3-2.1,1.4-3.3,4.5-3.7h0c-.1-.6-.4-1.4-1.9-1.3a4.5,4.5,0,0,0-2.1.9l-.6-1.3a7.3,7.3,0,0,1,2.9-1.1c2.6-.3,3.6,1.3,3.8,3.1l.4,2.9c.1.8.2,1.5.3,2Zm-.8-3.9c-1.5.1-2.8.6-2.7,1.8a1.1,1.1,0,0,0,1.3,1.1,1.6,1.6,0,0,0,1.5-1.3c.1-.2,0-.4,0-.5Z" style="fill: #fff"/>
          <path d="M538,221.7l1.2,9.7c.1.8.2,1.7.3,2.3l-1.8.2-.3-1.3h0a2.9,2.9,0,0,1-2.5,1.8c-1.9.3-3.7-1.2-4-3.7s1.1-4.6,3.1-4.9a2.8,2.8,0,0,1,2.5.8h0l-.6-4.7Zm-1.2,7.4a4.3,4.3,0,0,1-.1-.5,1.7,1.7,0,0,0-2-1.2c-1.3.1-1.9,1.4-1.7,2.9s1,2.5,2.4,2.4A1.9,1.9,0,0,0,537,231v-.6Z" style="fill: #fff"/>
          <path d="M542.4,229.7a2.2,2.2,0,0,0,2.8,1.8,5.8,5.8,0,0,0,2.2-.6l.5,1.4a6.6,6.6,0,0,1-2.8.8,3.8,3.8,0,0,1-4.7-3.6c-.3-2.3.8-4.6,3.4-4.9s3.8,1.8,4.1,3.6v.8Zm3.4-1.9a1.8,1.8,0,0,0-1.9-1.8,2.1,2.1,0,0,0-1.7,2.3Z" style="fill: #fff"/>
          <path d="M553.8,221.2a1.1,1.1,0,0,1-1,1.3,1.1,1.1,0,0,1-1.3-1,1.1,1.1,0,0,1,1-1.3A1.1,1.1,0,0,1,553.8,221.2Zm-.9,10.8-1-8.2,2.1-.3,1,8.3Z" style="fill: #fff"/>
          <path d="M556.2,225.7a15,15,0,0,0-.4-2.4l1.8-.2.3,1.2h0a3.2,3.2,0,0,1,2.5-1.8c1.4-.1,3,.6,3.3,3.2l.6,4.9-2,.3-.6-4.7c-.2-1.2-.7-2-1.8-1.9a1.7,1.7,0,0,0-1.5,1.4c-.1.2,0,.5,0,.7l.6,4.9-2.1.2Z" style="fill: #fff"/>
          <path d="M565.5,224.6a16.4,16.4,0,0,0-.4-2.5l1.8-.2.3,1.2h0a2.9,2.9,0,0,1,2.4-1.7,2.3,2.3,0,0,1,2.4,1.3h.1a3.1,3.1,0,0,1,.9-1.1,2.6,2.6,0,0,1,1.6-.7c1.3-.2,2.8.6,3.1,3.2l.6,4.9-2,.2-.5-4.5c-.2-1.4-.8-2.1-1.8-2a1.5,1.5,0,0,0-1.3,1.3v.7l.6,4.9-2,.2-.6-4.7c-.2-1.2-.7-1.9-1.7-1.8a1.6,1.6,0,0,0-1.3,1.4,1.5,1.5,0,0,0-.1.7l.6,4.8-2,.3Z" style="fill: #fff"/>
          <path d="M587.3,225.3l.3,2.4-1.8.2-.2-1.2h-.1a3.2,3.2,0,0,1-2.4,1.8c-1.5.2-3-.6-3.4-3.3l-.5-4.8,2-.2.6,4.4c.2,1.4.7,2.2,1.8,2.1a1.7,1.7,0,0,0,1.4-1.3,1.5,1.5,0,0,0,.1-.7l-.6-4.9,2-.3Z" style="fill: #fff"/>
          <path d="M590.5,223.8a2.2,2.2,0,0,0,2.8,1.8,4.4,4.4,0,0,0,2.2-.7l.5,1.4a6.6,6.6,0,0,1-2.8.9c-2.7.3-4.4-1.1-4.7-3.6s.8-4.6,3.4-5,3.8,1.8,4.1,3.6v.9Zm3.4-1.9a1.7,1.7,0,0,0-1.9-1.8,2,2,0,0,0-1.7,2.2Z" style="fill: #fff"/>
          <path d="M597.8,226.5c-.1-.6-.1-1.5-.2-2.4l-1.2-9.6,2-.3.7,4.9h0a2.7,2.7,0,0,1,2.5-1.6c2-.3,3.6,1.2,3.9,3.7s-1.3,4.7-3.2,4.9a3.2,3.2,0,0,1-2.8-1.1h0v1.2Zm1.7-3.7c0,.2.1.3.1.5a1.9,1.9,0,0,0,2,1.2c1.3-.2,2-1.3,1.8-3s-1-2.5-2.4-2.3a2.1,2.1,0,0,0-1.7,1.7v.6Z" style="fill: #fff"/>
          <path d="M605.9,213.3l2.1-.3,1.5,12-2.1.3Z" style="fill: #fff"/>
          <path d="M612.4,221.1a2.4,2.4,0,0,0,2.8,1.8,6.3,6.3,0,0,0,2.3-.7l.4,1.4a7.7,7.7,0,0,1-2.8.9,3.9,3.9,0,0,1-4.7-3.6c-.3-2.3.8-4.6,3.5-5s3.8,1.8,4,3.6v.9Zm3.5-1.9c-.1-.8-.6-2-2-1.8a2,2,0,0,0-1.7,2.2Z" style="fill: #fff"/>
          <path d="M619.4,221.8a4,4,0,0,0,2.2.4c.9-.1,1.3-.6,1.2-1.1s-.4-.8-1.5-1-2.4-1.2-2.5-2.1.8-2.8,2.8-3a4.8,4.8,0,0,1,2.2.2l-.2,1.5a4.7,4.7,0,0,0-1.8-.2c-.8.1-1.1.5-1.1,1s.5.7,1.6.9,2.3,1.1,2.5,2.3-.8,2.7-3,3a5.3,5.3,0,0,1-2.6-.3Z" style="fill: #fff"/>
        </g>
      </g>
      <g class="hoverable" onclick="showInstrument('gestion', 'intervencion_en_la_propiedad', 'enajenacion');">
        <path d="M495.5,299.2a396.2,396.2,0,0,1-6,41.1l237,42.1a601.8,601.8,0,0,0,8.9-71.8Z" style="fill: #892972"/>
        <g>
          <path d="M539.9,315.8l-4.3-.5-.4,3.4,4.8.5v1.7l-6.9-.7,1.1-11.4,6.6.6v1.7l-4.6-.4-.3,2.9,4.3.5Z" style="fill: #fff"/>
          <path d="M541.8,315.2a23.2,23.2,0,0,0,.2-2.4h1.8v1.3h.1a3,3,0,0,1,2.7-1.2c1.5.2,2.9,1.3,2.6,3.9l-.5,4.9-2-.3.4-4.6c.1-1.2-.2-2.1-1.4-2.2a1.7,1.7,0,0,0-1.7,1,6.4,6.4,0,0,0-.2.7l-.4,4.8-2.1-.2Z" style="fill: #fff"/>
          <path d="M555.3,322.4v-.9h0a3.2,3.2,0,0,1-2.6.8,2.4,2.4,0,0,1-2.3-2.7c.2-2.1,2.1-2.9,5.2-2.6v-.2c0-.5-.1-1.4-1.6-1.6a5.1,5.1,0,0,0-2.2.4l-.3-1.4a6.2,6.2,0,0,1,3-.4c2.7.3,3.3,2,3.1,3.8l-.3,3a14.8,14.8,0,0,0-.1,2Zm.1-4.1c-1.5-.1-2.9,0-3,1.3a1.1,1.1,0,0,0,1,1.3,1.8,1.8,0,0,0,1.8-1c0-.1.1-.3.1-.4Z" style="fill: #fff"/>
          <path d="M556.9,324.5a2.7,2.7,0,0,0,1.6-.4c.4-.4.6-1.1.8-2.9l.7-6.7,2,.2-.7,7.3a4.6,4.6,0,0,1-1.4,3.5,4.4,4.4,0,0,1-3,.6Zm5.5-12a1.2,1.2,0,0,1-1.3,1,1.1,1.1,0,0,1-1-1.3,1.1,1.1,0,0,1,1.3-1A1.1,1.1,0,0,1,562.4,312.5Z" style="fill: #fff"/>
          <path d="M564.9,319.8c-.1,1.5,1,2.2,2.4,2.4a5.7,5.7,0,0,0,2.3-.2v1.5a8.4,8.4,0,0,1-2.9.2c-2.7-.3-4.1-2-3.8-4.6s1.8-4.3,4.5-4,3.3,2.5,3.1,4.4c0,.3-.1.6-.1.8Zm3.8-1.1c.1-.8-.1-2.1-1.5-2.2a2,2,0,0,0-2.1,1.8Z" style="fill: #fff"/>
          <path d="M572.1,318.2c.1-.9.1-1.7.2-2.4h1.8v1.3h0a3.1,3.1,0,0,1,2.8-1.2c1.4.2,2.8,1.2,2.6,3.9l-.5,4.8-2.1-.2.5-4.6c.1-1.2-.3-2.1-1.4-2.3a2.1,2.1,0,0,0-1.8,1.1c0,.2-.1.4-.1.7l-.5,4.8-2.1-.2Z" style="fill: #fff"/>
          <path d="M585.5,325.4v-.9h-.1a3.1,3.1,0,0,1-2.5.8,2.4,2.4,0,0,1-2.4-2.7c.2-2.1,2.2-2.9,5.2-2.6v-.2c.1-.5-.1-1.4-1.5-1.6a5.6,5.6,0,0,0-2.3.4l-.3-1.4a6.9,6.9,0,0,1,3.1-.4c2.6.3,3.2,2,3.1,3.8l-.3,3a7,7,0,0,0-.1,2Zm.1-4.1c-1.4-.1-2.9,0-3,1.3s.4,1.2,1.1,1.3a1.6,1.6,0,0,0,1.7-1,.6.6,0,0,0,.1-.4Z" style="fill: #fff"/>
          <path d="M595.2,326.1a5.4,5.4,0,0,1-2.4.2,4,4,0,0,1-3.8-4.6,4.3,4.3,0,0,1,5-4,5.2,5.2,0,0,1,2,.6l-.5,1.5a3.1,3.1,0,0,0-1.6-.4,2.5,2.5,0,0,0-2.8,2.4,2.6,2.6,0,0,0,2.3,2.9,3,3,0,0,0,1.7-.2Z" style="fill: #fff"/>
          <path d="M596.4,326.5l.8-8.3,2.1.2-.8,8.3Zm3.3-10.4a1.1,1.1,0,0,1-1.3,1,1.1,1.1,0,0,1-1.1-1.2,1.1,1.1,0,0,1,1.3-1A1.2,1.2,0,0,1,599.7,316.1Z" style="fill: #fff"/>
          <path d="M608.6,323.4a4,4,0,0,1-4.6,4,3.9,3.9,0,0,1-3.7-4.6,4.1,4.1,0,0,1,4.7-4A3.9,3.9,0,0,1,608.6,323.4Zm-6.2-.5c-.1,1.6.5,2.9,1.8,3s2.1-1,2.3-2.6-.3-2.8-1.7-3S602.6,321.5,602.4,322.9Zm5.3-7.2-2.3,2.3-1.5-.2,1.8-2.3Z" style="fill: #fff"/>
          <path d="M610.2,322a23.6,23.6,0,0,0,.1-2.5l1.9.2V321h0a3.1,3.1,0,0,1,2.8-1.2c1.4.1,2.8,1.2,2.5,3.8l-.4,4.9-2.1-.2.4-4.6c.2-1.2-.2-2.2-1.3-2.3a1.8,1.8,0,0,0-1.8,1.1,1.3,1.3,0,0,0-.1.6l-.5,4.9-2.1-.2Z" style="fill: #fff"/>
          <path d="M531.3,338.6l.7-6.7h-1.2l.2-1.5h1.1V330a4.3,4.3,0,0,1,1.3-2.7,3.8,3.8,0,0,1,2.3-.6l1.3.4-.3,1.6-.9-.3c-1-.1-1.5.7-1.6,1.8v.4l1.8.2-.2,1.5-1.8-.2-.6,6.7Z" style="fill: #fff"/>
          <path d="M544.2,335.7a4.1,4.1,0,0,1-4.7,3.9,4,4,0,0,1-3.7-4.6,4.2,4.2,0,0,1,4.7-4A4.1,4.1,0,0,1,544.2,335.7Zm-6.2-.6c-.2,1.6.5,2.9,1.7,3s2.2-.9,2.3-2.6-.3-2.8-1.7-3S538.1,333.8,538,335.1Z" style="fill: #fff"/>
          <path d="M545.7,334.4c.1-1.1.2-1.9.2-2.7l1.8.2v1.6h.1a2.4,2.4,0,0,1,2.4-1.5h.5l-.2,1.9h-.6a1.9,1.9,0,0,0-2,1.4,1.3,1.3,0,0,0-.1.6l-.5,4.3-2.1-.2Z" style="fill: #fff"/>
          <path d="M550.3,339.3l3.5-3.7,1.4-1.2h0l-4-.4v-1.6l6.6.6-.2,1.3-3.4,3.6-1.3,1.3h0l4.3.4v1.7l-7-.7Z" style="fill: #fff"/>
          <path d="M566.4,337.9a4.1,4.1,0,0,1-4.7,3.9,4,4,0,0,1-3.7-4.6,4.2,4.2,0,0,1,4.7-4A4.1,4.1,0,0,1,566.4,337.9Zm-6.2-.6c-.2,1.6.5,2.9,1.7,3s2.2-.9,2.3-2.6-.3-2.8-1.7-3S560.3,336,560.2,337.3Z" style="fill: #fff"/>
          <path d="M567.4,340.3a6.6,6.6,0,0,0,2.1.8c.9.1,1.4-.3,1.4-.8s-.2-.9-1.2-1.3-2.2-1.7-2.1-2.7,1.5-2.4,3.4-2.3a4.6,4.6,0,0,1,2.1.8l-.5,1.4a3.4,3.4,0,0,0-1.7-.7c-.7,0-1.2.3-1.2.8s.3.8,1.3,1.3,2,1.5,1.9,2.7-1.4,2.5-3.6,2.3a5.2,5.2,0,0,1-2.4-.9Z" style="fill: #fff"/>
          <path d="M578.7,343.3v-.9h-.1a3.1,3.1,0,0,1-2.5.9,2.6,2.6,0,0,1-2.4-2.8c.2-2,2.2-2.9,5.2-2.6h0c.1-.6,0-1.5-1.5-1.6a4.3,4.3,0,0,0-2.3.4l-.2-1.4a6,6,0,0,1,3-.5c2.6.3,3.2,2,3.1,3.8l-.3,3a15.6,15.6,0,0,0-.1,2Zm.1-4c-1.4-.2-2.9,0-3,1.2a1.1,1.1,0,0,0,1.1,1.3,1.7,1.7,0,0,0,1.7-.9,1.1,1.1,0,0,0,.1-.5Z" style="fill: #fff"/>
          <path d="M581.2,345.6a27.2,27.2,0,0,0,1.5-4.3h2.2a17.3,17.3,0,0,1-2.3,4.3Z" style="fill: #fff"/>
        </g>
      </g>
      <g class="hoverable" onclick="showInstrument('gestion', 'intervencion_en_la_propiedad', 'derechos_de_preferencia');">
        <path d="M455.1,439.9,668.2,550.3s20.4-33,38.8-90.5L476.1,390.3A380.5,380.5,0,0,1,455.1,439.9Z" style="fill: #892972"/>
        <g>
          <path d="M508.3,414.8l3.2.9a6.5,6.5,0,0,1,3.9,2.9,5,5,0,0,1,.3,4.5,5.6,5.6,0,0,1-3.3,3.7,7.4,7.4,0,0,1-5.4-.3l-2.6-1.1Zm-1.4,9.8,1.1.5c2.5.9,4.6.1,5.6-2.7s0-4.2-2.5-5.1l-1.4-.4Z" style="fill: #fff"/>
          <path d="M517.5,426.4a2.2,2.2,0,0,0,1.7,2.9,7.4,7.4,0,0,0,2.3.5l-.2,1.4a8.4,8.4,0,0,1-2.9-.5,3.9,3.9,0,0,1-2.6-5.4c.8-2.2,2.8-3.7,5.3-2.8s2.6,3.3,2,5a1.9,1.9,0,0,1-.4.8Zm4-.1a1.9,1.9,0,0,0-1-2.5,2.1,2.1,0,0,0-2.5,1.3Z" style="fill: #fff"/>
          <path d="M524.8,426.9a23.8,23.8,0,0,0,.8-2.6l1.7.7-.4,1.5h0a2.5,2.5,0,0,1,2.8-.9l.4.2-.7,1.9-.5-.3a1.8,1.8,0,0,0-2.3.9l-.3.5-1.5,4.1-2-.7Z" style="fill: #fff"/>
          <path d="M530.7,431.2a2.2,2.2,0,0,0,1.6,2.9,6,6,0,0,0,2.3.5l-.2,1.4a8.8,8.8,0,0,1-2.9-.5,3.9,3.9,0,0,1-2.5-5.4,4.1,4.1,0,0,1,5.3-2.8c2.5.9,2.6,3.3,2,5a5.6,5.6,0,0,1-.4.8Zm3.9-.1a1.8,1.8,0,0,0-.9-2.5,2.1,2.1,0,0,0-2.5,1.3Z" style="fill: #fff"/>
          <path d="M541.8,438.8a4.3,4.3,0,0,1-2.3-.4,3.9,3.9,0,0,1-2.6-5.4,4.2,4.2,0,0,1,5.8-2.6,5,5,0,0,1,1.8,1.1l-.9,1.3a2.2,2.2,0,0,0-1.4-.8,2.4,2.4,0,0,0-3.3,1.6,2.6,2.6,0,0,0,1.5,3.4l1.7.3Z" style="fill: #fff"/>
          <path d="M547,428.1l2,.7-1.7,4.7h0a2.1,2.1,0,0,1,1.3-.5,2.6,2.6,0,0,1,1.5.1c1.3.5,2.4,1.9,1.5,4.4l-1.7,4.5-2-.7,1.6-4.3c.4-1.2.3-2.2-.7-2.6a2.1,2.1,0,0,0-2,.6l-.3.5-1.7,4.7-1.9-.7Z" style="fill: #fff"/>
          <path d="M560.5,441.4a4.1,4.1,0,0,1-5.5,2.7,4,4,0,0,1-2.4-5.4,4.1,4.1,0,0,1,5.5-2.7A4,4,0,0,1,560.5,441.4Zm-5.9-2c-.5,1.5-.2,2.9,1,3.3s2.3-.4,2.9-2,.4-2.8-1-3.3S555.1,438.1,554.6,439.4Z" style="fill: #fff"/>
          <path d="M560.9,444a4,4,0,0,0,1.8,1.3c.9.3,1.4.1,1.6-.4s0-.9-.9-1.6-1.6-2.1-1.3-3,2-2.1,3.9-1.4a4.3,4.3,0,0,1,1.8,1.2l-.8,1.3a3.7,3.7,0,0,0-1.5-1.1c-.7-.3-1.2-.1-1.4.4s.1.9.9,1.6,1.7,2,1.3,3.1-2,2.1-4.1,1.3a6,6,0,0,1-2.2-1.4Z" style="fill: #fff"/>
          <path d="M581,440.6l-3.3,9.1a17.6,17.6,0,0,0-.7,2.2l-1.8-.6.4-1.3h-.1a2.9,2.9,0,0,1-3,.5c-1.9-.7-2.8-2.8-1.9-5.2s3.1-3.6,5-2.9a2.5,2.5,0,0,1,1.8,1.8h.1l1.6-4.4Zm-4.4,6a4.3,4.3,0,0,0,.1-.5,1.8,1.8,0,0,0-1.2-2c-1.2-.5-2.3.4-2.9,1.9s-.2,2.7,1.1,3.1a1.9,1.9,0,0,0,2.2-.7l.3-.6Z" style="fill: #fff"/>
          <path d="M581.3,449.7a2.2,2.2,0,0,0,1.7,2.9,7.4,7.4,0,0,0,2.2.5l-.2,1.4a9.2,9.2,0,0,1-2.9-.5,3.9,3.9,0,0,1-2.5-5.4c.8-2.2,2.8-3.7,5.3-2.8s2.6,3.3,2,5a5.6,5.6,0,0,1-.4.8Zm3.9-.1a1.8,1.8,0,0,0-.9-2.5,2.1,2.1,0,0,0-2.5,1.3Z" style="fill: #fff"/>
          <path d="M499.9,437.6l.8-2.6,1.8.6-.4,1.2h.1a3.4,3.4,0,0,1,3.1-.4c1.8.7,2.7,2.8,1.9,5.2s-3.3,3.5-5.1,2.9a2.8,2.8,0,0,1-1.8-1.9h-.1l-1.4,4.1-2-.8Zm1.2,2.6c0,.2-.1.4-.1.6a1.9,1.9,0,0,0,1.2,2c1.3.5,2.4-.3,2.9-1.8s.3-2.8-1-3.2a2,2,0,0,0-2.3.8.8.8,0,0,0-.2.4Z" style="fill: #fff"/>
          <path d="M508.9,440.8c.4-1.1.7-1.8.9-2.5l1.7.6-.5,1.5h.1a2.6,2.6,0,0,1,2.7-.9l.5.3-.7,1.8-.6-.3a2,2,0,0,0-2.3.9l-.3.6-1.4,4-2-.7Z" style="fill: #fff"/>
          <path d="M514.8,445.2a2.2,2.2,0,0,0,1.7,2.8,5.3,5.3,0,0,0,2.3.5l-.2,1.4a6.6,6.6,0,0,1-2.9-.5,3.9,3.9,0,0,1-2.6-5.4c.8-2.1,2.8-3.7,5.3-2.8s2.6,3.3,2,5a3.9,3.9,0,0,1-.4.9Zm4-.2a1.9,1.9,0,0,0-1-2.5,2.1,2.1,0,0,0-2.5,1.3Z" style="fill: #fff"/>
          <path d="M520.4,451l2.3-6.4-1.1-.3.6-1.5,1,.4v-.4a4.2,4.2,0,0,1,2-2.3,3.6,3.6,0,0,1,2.3,0l1.2.7-.7,1.4-.8-.4c-1-.4-1.6.3-2,1.3v.4l1.7.6-.6,1.5-1.7-.6-2.3,6.3Z" style="fill: #fff"/>
          <path d="M527.4,449.7a2.2,2.2,0,0,0,1.6,2.9,5.3,5.3,0,0,0,2.3.5l-.2,1.4a8.4,8.4,0,0,1-2.9-.5,4,4,0,0,1-2.6-5.4c.8-2.1,2.9-3.7,5.4-2.8s2.6,3.3,1.9,5a2.2,2.2,0,0,1-.3.8Zm3.9-.1a1.8,1.8,0,0,0-.9-2.5,2.1,2.1,0,0,0-2.5,1.3Z" style="fill: #fff"/>
          <path d="M534.6,450.2c.4-1.1.7-1.8.9-2.5l1.7.6-.5,1.5h.1a2.4,2.4,0,0,1,2.7-.9l.4.2-.6,1.9-.6-.3a2,2,0,0,0-2.3.9,1.6,1.6,0,0,0-.3.6l-1.4,4-2-.7Z" style="fill: #fff"/>
          <path d="M540.5,454.5a2.2,2.2,0,0,0,1.7,2.9,5.3,5.3,0,0,0,2.3.5l-.2,1.4a6.6,6.6,0,0,1-2.9-.5,3.9,3.9,0,0,1-2.6-5.4c.8-2.1,2.8-3.7,5.3-2.8s2.6,3.3,2,5a1.9,1.9,0,0,1-.4.8Zm3.9-.1a1.8,1.8,0,0,0-.9-2.5,2.1,2.1,0,0,0-2.5,1.3Z" style="fill: #fff"/>
          <path d="M547.8,454.8a21.6,21.6,0,0,0,.8-2.3l1.7.6-.3,1.2h.1a2.7,2.7,0,0,1,2.9-.4c1.4.5,2.5,1.9,1.6,4.3l-1.7,4.6-2-.7,1.6-4.4c.4-1.1.3-2.1-.7-2.5a1.8,1.8,0,0,0-2,.6l-.3.6-1.7,4.6-2-.7Z" style="fill: #fff"/>
          <path d="M560.5,465.3a4.7,4.7,0,0,1-2.4-.4,3.9,3.9,0,0,1-2.5-5.4,4.3,4.3,0,0,1,5.8-2.6,6.1,6.1,0,0,1,1.8,1.1l-.9,1.3a4.3,4.3,0,0,0-1.4-.8,2.7,2.7,0,0,0-1.8,5,3.6,3.6,0,0,0,1.6.3Z" style="fill: #fff"/>
          <path d="M561.5,466l2.9-7.8,1.9.7-2.8,7.8Zm5.8-9.2a1.3,1.3,0,0,1-1.6.7,1.2,1.2,0,1,1,.8-2.2A1.2,1.2,0,0,1,567.3,456.8Z" style="fill: #fff"/>
          <path d="M569.7,469l.2-.9h-.1a2.8,2.8,0,0,1-2.7.2,2.5,2.5,0,0,1-1.6-3.2c.7-1.9,2.9-2.3,5.7-1.2h.1c.2-.6.3-1.5-1.1-2a4.7,4.7,0,0,0-2.3-.2v-1.4a5.8,5.8,0,0,1,3,.4c2.5.9,2.7,2.7,2,4.4l-1,2.8c-.2.7-.5,1.4-.6,1.9Zm1.1-3.9c-1.4-.6-2.8-.7-3.2.4a1.1,1.1,0,0,0,.7,1.6,1.7,1.7,0,0,0,1.9-.5c.1-.2.2-.3.2-.5Z" style="fill: #fff"/>
        </g>
      </g>
      <g class="hoverable" onclick="showInstrument('gestion', 'intervencion_en_la_propiedad', 'expropiacion_por_via_administrativa');">
        <path d="M735.8,232.9,496.9,252.8a374.8,374.8,0,0,1-1.4,44.9l239.9,11.4A621.7,621.7,0,0,0,735.8,232.9Z" style="fill: #892972"/>
        <g>
          <path d="M539.6,268h-4.3v3.3h4.9v1.8h-6.9l-.2-11.5h6.6v1.7h-4.6v3h4.4Z" style="fill: #fff"/>
          <path d="M542.9,264.7l1,1.6a7.5,7.5,0,0,1,.7,1.2h.1l.7-1.3.9-1.5h2.3l-2.7,4.1,2.9,4.2h-2.4l-1.1-1.6-.7-1.3h-.1a5.4,5.4,0,0,1-.7,1.3l-.9,1.7h-2.3l2.8-4.3-2.9-4Z" style="fill: #fff"/>
          <path d="M549.6,267.4c0-1.1-.1-2-.1-2.8h1.8v1.2h.1a3.3,3.3,0,0,1,2.8-1.5c1.9,0,3.5,1.6,3.5,4.2s-1.8,4.5-3.7,4.5a2.6,2.6,0,0,1-2.3-1.1h0v4.3h-2.1Zm2.1,2a1.3,1.3,0,0,0,.1.6,1.9,1.9,0,0,0,1.8,1.4c1.4,0,2.1-1.2,2.1-2.8s-.8-2.6-2.1-2.6a1.8,1.8,0,0,0-1.8,1.6.7.7,0,0,0-.1.5Z" style="fill: #fff"/>
          <path d="M559.2,267.1c0-1.1-.1-1.9-.1-2.7h1.8V266h.1a2.3,2.3,0,0,1,2.2-1.8h.5v2h-.6a1.8,1.8,0,0,0-1.8,1.6,1.5,1.5,0,0,0-.1.7v4.3h-2.1Z" style="fill: #fff"/>
          <path d="M572.7,268.2a4.1,4.1,0,0,1-4.2,4.5,3.9,3.9,0,0,1-4.2-4.2,4.2,4.2,0,1,1,8.4-.3Zm-6.3.2c0,1.6.8,2.8,2.1,2.8s2-1.2,2-2.9-.6-2.7-2.1-2.7S566.4,267.1,566.4,268.4Z" style="fill: #fff"/>
          <path d="M574,266.9c0-1.1-.1-2-.1-2.7h1.8l.2,1.3h0a3,3,0,0,1,2.8-1.5c1.9-.1,3.5,1.5,3.6,4.1s-1.8,4.5-3.7,4.5a2.7,2.7,0,0,1-2.4-1h0v4.3h-2.1Zm2.1,2c0,.2.1.4.1.6a1.8,1.8,0,0,0,1.9,1.4c1.3,0,2.1-1.1,2-2.7s-.7-2.7-2.1-2.7a2.1,2.1,0,0,0-1.8,1.6,1.3,1.3,0,0,0-.1.6Z" style="fill: #fff"/>
          <path d="M585.8,261.6a1.2,1.2,0,0,1-1.2,1.2,1.1,1.1,0,0,1-1.2-1.1,1.2,1.2,0,0,1,1.2-1.2A1.2,1.2,0,0,1,585.8,261.6Zm-2.1,10.7V264h2.1v8.3Z" style="fill: #fff"/>
          <path d="M592.4,272.1l-.2-.9h0a3.2,3.2,0,0,1-2.4,1.1,2.4,2.4,0,0,1-2.7-2.4c0-2.1,1.8-3.2,4.9-3.2h0c0-.6-.3-1.5-1.7-1.5a5.2,5.2,0,0,0-2.3.7l-.4-1.4a6.9,6.9,0,0,1,3-.7c2.6-.1,3.4,1.6,3.5,3.4v3a11.2,11.2,0,0,0,.2,2Zm-.3-4c-1.5-.1-2.9.3-2.9,1.6s.5,1.1,1.2,1.1a1.7,1.7,0,0,0,1.6-1.1,1.1,1.1,0,0,0,.1-.5Z" style="fill: #fff"/>
          <path d="M602.1,271.7a5.9,5.9,0,0,1-2.3.4,4,4,0,0,1-4.4-4.1,4.3,4.3,0,0,1,4.6-4.5,6,6,0,0,1,2,.3l-.3,1.6a5.7,5.7,0,0,0-1.6-.3,2.4,2.4,0,0,0-2.5,2.8,2.4,2.4,0,0,0,2.6,2.6,3.4,3.4,0,0,0,1.6-.4Z" style="fill: #fff"/>
          <path d="M605.4,261.3a1.2,1.2,0,0,1-2.4,0,1.3,1.3,0,0,1,1.2-1.2A1.2,1.2,0,0,1,605.4,261.3Zm-2.1,10.6v-8.3h2.1l.2,8.3Z" style="fill: #fff"/>
          <path d="M615.2,267.5a4.1,4.1,0,0,1-4.2,4.4,3.9,3.9,0,0,1-4.2-4.1,4,4,0,0,1,4.2-4.5C613.4,263.2,615.1,264.9,615.2,267.5Zm-6.3.2c0,1.6.8,2.8,2.1,2.7s2-1.2,2-2.8-.6-2.8-2.1-2.8S608.9,266.3,608.9,267.7Zm4.4-7.9-2,2.6h-1.5l1.5-2.5Z" style="fill: #fff"/>
          <path d="M616.5,265.8a17.7,17.7,0,0,0-.1-2.4h1.8l.2,1.3h0a2.9,2.9,0,0,1,2.6-1.5c1.5,0,3,.9,3,3.5v4.9H622v-4.7c0-1.2-.4-2.1-1.6-2.1a1.7,1.7,0,0,0-1.6,1.3,1.3,1.3,0,0,0-.1.6v4.9h-2.1Z" style="fill: #fff"/>
          <path d="M629.1,265.9c0-1.1-.1-2-.1-2.8h1.8v1.3h.1a3,3,0,0,1,2.8-1.5c1.9-.1,3.5,1.5,3.5,4.1s-1.8,4.5-3.7,4.5a2.8,2.8,0,0,1-2.3-1h0v4.3h-2Zm2.1,2a1.3,1.3,0,0,0,.1.6,2,2,0,0,0,1.9,1.4c1.3,0,2-1.1,2-2.8s-.7-2.6-2.1-2.6a1.9,1.9,0,0,0-1.8,1.6,1.1,1.1,0,0,0-.1.5Z" style="fill: #fff"/>
          <path d="M646.6,266.9a4.2,4.2,0,0,1-4.2,4.5,4,4,0,0,1-4.2-4.2,4.1,4.1,0,0,1,4.2-4.5A4,4,0,0,1,646.6,266.9Zm-6.2.2c0,1.6.8,2.8,2.1,2.7s2-1.2,1.9-2.8-.6-2.8-2-2.8S640.3,265.7,640.4,267.1Z" style="fill: #fff"/>
          <path d="M648,265.5c-.1-1.2-.1-2-.2-2.7h1.9v1.5h0a2.6,2.6,0,0,1,2.3-1.8h.4v1.9H652a1.9,1.9,0,0,0-1.9,1.6V271h-2Z" style="fill: #fff"/>
          <path d="M658.1,262.6l1.5,4.2.6,2h0a19.4,19.4,0,0,1,.5-2l1.3-4.3h2.2l-3,8.3h-2.1l-3.2-8.3Z" style="fill: #fff"/>
          <path d="M665.3,270.8l-.2-8.3h2.1l.2,8.3Zm3.3-12-2,2.6h-1.4l1.4-2.5Z" style="fill: #fff"/>
          <path d="M673.9,270.6v-.9h-.1a3.1,3.1,0,0,1-2.4,1.1,2.3,2.3,0,0,1-2.6-2.4c-.1-2.1,1.8-3.2,4.8-3.2h0c0-.6-.2-1.5-1.7-1.5a4.8,4.8,0,0,0-2.2.7l-.5-1.4a7.3,7.3,0,0,1,3-.7c2.7-.1,3.5,1.6,3.5,3.4v3a12.1,12.1,0,0,0,.1,2Zm-.3-4c-1.5-.1-2.9.3-2.9,1.6a1.1,1.1,0,0,0,1.2,1.1,1.7,1.7,0,0,0,1.7-1.1v-1.6Z" style="fill: #fff"/>
          <path d="M538.2,291.6l-.2-.9h0a3.3,3.3,0,0,1-2.4,1.2,2.5,2.5,0,0,1-2.7-2.5c0-2.1,1.8-3.1,4.9-3.2h0c0-.6-.3-1.5-1.7-1.4a4.1,4.1,0,0,0-2.3.6l-.4-1.3a5.7,5.7,0,0,1,3-.8c2.6-.1,3.4,1.6,3.5,3.4v3a11.2,11.2,0,0,0,.2,2Zm-.4-4c-1.4,0-2.8.3-2.8,1.6a1,1,0,0,0,1.2,1.1,1.7,1.7,0,0,0,1.6-1.1,1.1,1.1,0,0,0,.1-.5Z" style="fill: #fff"/>
          <path d="M549.3,279.3v9.8c0,.8.1,1.7.1,2.3h-1.8v-1.3h-.1a2.7,2.7,0,0,1-2.6,1.6c-2,0-3.6-1.6-3.7-4.2s1.7-4.4,3.7-4.5a2.7,2.7,0,0,1,2.3,1.1h0v-4.7Zm-2,7.3a.7.7,0,0,0-.1-.5,1.8,1.8,0,0,0-1.8-1.5c-1.3,0-2.1,1.3-2,2.8s.8,2.6,2.1,2.6a1.9,1.9,0,0,0,1.8-1.5v-1.9Z" style="fill: #fff"/>
          <path d="M551.3,285.6c0-1-.1-1.8-.1-2.5H553v1.2h0a2.8,2.8,0,0,1,2.5-1.5,2.6,2.6,0,0,1,2.4,1.5h0a2.4,2.4,0,0,1,1-1,2.5,2.5,0,0,1,1.7-.6c1.3,0,2.8.9,2.8,3.6v4.8h-2v-4.6c-.1-1.4-.5-2.2-1.6-2.2a1.7,1.7,0,0,0-1.4,1.2c0,.2-.1.4-.1.7v4.9h-2v-4.8c0-1.2-.5-2-1.5-2a1.7,1.7,0,0,0-1.5,1.3c0,.2-.1.4-.1.6v4.9h-2Z" style="fill: #fff"/>
          <path d="M567.5,280.5a1.1,1.1,0,0,1-1.2,1.1,1,1,0,0,1-1.1-1.1,1,1,0,0,1,1.1-1.1A1,1,0,0,1,567.5,280.5Zm-2,10.6-.2-8.3h2.1l.2,8.3Z" style="fill: #fff"/>
          <path d="M569.4,285.2c0-.9-.1-1.7-.1-2.4h1.8V284h.1a2.8,2.8,0,0,1,2.6-1.5c1.4,0,2.9.9,3,3.5v4.9h-2.1v-4.6c0-1.2-.5-2.1-1.6-2.1a1.7,1.7,0,0,0-1.6,1.3c-.1.1-.1.4-.1.6V291h-2.1Z" style="fill: #fff"/>
          <path d="M580.9,280.2a1.1,1.1,0,0,1-1.2,1.2,1,1,0,0,1-1.1-1.1,1.1,1.1,0,0,1,1.1-1.2A1.1,1.1,0,0,1,580.9,280.2Zm-2,10.7-.2-8.3h2.1l.2,8.3Z" style="fill: #fff"/>
          <path d="M582.8,288.9a4.1,4.1,0,0,0,2.1.5c.9,0,1.3-.4,1.3-.9s-.4-.9-1.4-1.2-2.3-1.4-2.3-2.4,1.2-2.6,3.1-2.6a6.2,6.2,0,0,1,2.2.4l-.4,1.5a4,4,0,0,0-1.8-.4c-.7,0-1.1.3-1.1.9s.4.7,1.5,1.1,2.2,1.3,2.2,2.5-1.1,2.6-3.3,2.6a5.8,5.8,0,0,1-2.5-.5Z" style="fill: #fff"/>
          <path d="M591.8,280v2.3h2v1.6h-2v3.7c0,1,.3,1.5,1.1,1.5h.8v1.6l-1.5.2a2.4,2.4,0,0,1-1.9-.7,3.3,3.3,0,0,1-.6-2.3v-3.9h-1.2v-1.6h1.2v-1.9Z" style="fill: #fff"/>
          <path d="M595.2,284.9c0-1.1-.1-1.9-.1-2.6h1.8v1.6h0a2.5,2.5,0,0,1,2.3-1.8h.5V284h-.6a1.8,1.8,0,0,0-1.9,1.6v4.9h-2.1Z" style="fill: #fff"/>
          <path d="M605.5,290.4v-.9h-.1a3.2,3.2,0,0,1-2.4,1.1,2.5,2.5,0,0,1-2.7-2.4c0-2.1,1.8-3.2,4.9-3.2v-.2c0-.5-.3-1.4-1.7-1.4a3.8,3.8,0,0,0-2.2.7l-.5-1.4a6.8,6.8,0,0,1,3-.8c2.7,0,3.4,1.7,3.5,3.5v3a10.1,10.1,0,0,0,.2,1.9Zm-.3-4.1c-1.5,0-2.9.4-2.9,1.6a1.1,1.1,0,0,0,1.2,1.2,1.7,1.7,0,0,0,1.6-1.2.6.6,0,0,0,.1-.4Z" style="fill: #fff"/>
          <path d="M611.2,279.6V282h2v1.6h-2v3.7c0,1,.3,1.5,1.1,1.5h.8v1.6l-1.5.2a2.7,2.7,0,0,1-1.9-.6,4.2,4.2,0,0,1-.7-2.3v-3.9h-1.2V282h1.1v-1.9Z" style="fill: #fff"/>
          <path d="M616.7,279.6a1.1,1.1,0,0,1-1.2,1.1,1,1,0,0,1-1.1-1.1,1.2,1.2,0,0,1,1.1-1.2A1.2,1.2,0,0,1,616.7,279.6Zm-2,10.6-.2-8.3h2.1l.2,8.3Z" style="fill: #fff"/>
          <path d="M619.9,281.8l1.4,4.2.6,2.1h0l.6-2.1,1.2-4.2h2.2l-3,8.4h-2.1l-3.2-8.2Z" style="fill: #fff"/>
          <path d="M631.6,289.9l-.2-.9h0a3.3,3.3,0,0,1-2.5,1.1,2.4,2.4,0,0,1-2.6-2.4c-.1-2.1,1.8-3.2,4.8-3.2h0c0-.6-.2-1.5-1.7-1.5a5.2,5.2,0,0,0-2.2.7l-.4-1.4a6.4,6.4,0,0,1,2.9-.7c2.7-.1,3.5,1.6,3.5,3.4v3a12.1,12.1,0,0,0,.1,2Zm-.4-4c-1.5-.1-2.9.3-2.9,1.6a1.2,1.2,0,0,0,1.3,1.1,1.8,1.8,0,0,0,1.6-1.1v-1.6Z" style="fill: #fff"/>
        </g>
      </g>
      <g class="hoverable" onclick="showInstrument('gestion', 'intervencion_en_la_propiedad', 'declaratoria_de_desarrollo_y_construccion_prioritaria');">
        <path d="M476.8,388.6l230.9,69.5a607.2,607.2,0,0,0,18.5-73.9l-237-42.1A366.6,366.6,0,0,1,476.8,388.6Z" style="fill: #892972"/>
        <g>
          <path d="M524.8,358l3.3.5a7.4,7.4,0,0,1,4.3,2.4,5.1,5.1,0,0,1,.7,4.5,5.5,5.5,0,0,1-2.7,4,7.5,7.5,0,0,1-5.4.4,15.2,15.2,0,0,1-2.7-.8Zm-.2,10,1.2.3c2.6.6,4.5-.5,5.2-3.3s-.5-4.2-3.1-4.8a4.2,4.2,0,0,0-1.4-.2Z" style="fill: #fff"/>
          <path d="M535.4,368.4a2.3,2.3,0,0,0,2,2.7,10.6,10.6,0,0,0,2.3.2v1.4a5.8,5.8,0,0,1-2.9-.1,3.9,3.9,0,0,1-3.2-5.1c.5-2.2,2.3-4,4.9-3.4s3,3,2.6,4.7a4.6,4.6,0,0,1-.3.9Zm3.9-.6a1.8,1.8,0,0,0-1.2-2.3,2.1,2.1,0,0,0-2.4,1.5Z" style="fill: #fff"/>
          <path d="M547.4,374.6a6.8,6.8,0,0,1-2.4-.1,4,4,0,0,1-3.2-5.1c.5-2.4,2.6-3.9,5.5-3.3a8.4,8.4,0,0,1,1.9.9l-.8,1.4a4.5,4.5,0,0,0-1.4-.7,2.7,2.7,0,0,0-1.2,5.3,4.2,4.2,0,0,0,1.6,0Z" style="fill: #fff"/>
          <path d="M551.2,363.3l2.1.5-2.7,11.8-2.1-.5Z" style="fill: #fff"/>
          <path d="M557,377.1v-1h0a2.9,2.9,0,0,1-2.6.6,2.4,2.4,0,0,1-2-3c.4-2.1,2.5-2.7,5.5-2h0a1.4,1.4,0,0,0-1.3-1.8,4.4,4.4,0,0,0-2.3.1v-1.4a7.6,7.6,0,0,1,3.1-.1c2.6.6,2.9,2.5,2.5,4.2l-.7,2.9c-.1.8-.3,1.5-.3,2Zm.6-4c-1.4-.4-2.9-.4-3.2.8a1.3,1.3,0,0,0,.9,1.5,1.9,1.9,0,0,0,1.9-.8c.1-.1.1-.3.2-.4Z" style="fill: #fff"/>
          <path d="M561.8,372.4c.2-1.1.4-1.9.5-2.6l1.8.4-.3,1.6h.1a2.3,2.3,0,0,1,2.6-1.2h.4l-.4,2a1.1,1.1,0,0,0-.6-.2,1.8,1.8,0,0,0-2.2,1.1,2.1,2.1,0,0,1-.2.6l-.9,4.2-2.1-.5Z" style="fill: #fff"/>
          <path d="M570.5,380.2v-.9h-.1a3.2,3.2,0,0,1-2.6.5,2.4,2.4,0,0,1-2-3c.5-2,2.5-2.7,5.5-1.9v-.2c.1-.5.1-1.4-1.3-1.8a4.4,4.4,0,0,0-2.3.1v-1.4a6.4,6.4,0,0,1,3.1,0c2.6.6,2.9,2.4,2.5,4.1l-.6,3c-.2.7-.3,1.4-.4,1.9Zm.6-4c-1.4-.4-2.9-.4-3.1.8a1.1,1.1,0,0,0,.9,1.5,1.6,1.6,0,0,0,1.8-.8c.1-.1.1-.3.2-.4Z" style="fill: #fff"/>
          <path d="M578.7,371.2l-.6,2.3,2,.4-.4,1.5-1.9-.4-.8,3.5c-.3,1-.1,1.6.7,1.8h.8l-.3,1.5a4.7,4.7,0,0,1-1.6-.1,2.7,2.7,0,0,1-1.6-1.1,3.7,3.7,0,0,1-.1-2.4l.9-3.8-1.2-.2.4-1.6,1.1.3.5-1.8Z" style="fill: #fff"/>
          <path d="M587.9,379.9a4.2,4.2,0,1,1-8.2-1.8,4.2,4.2,0,0,1,5.2-3.3A4,4,0,0,1,587.9,379.9Zm-6.1-1.3c-.3,1.5.2,2.9,1.4,3.2s2.3-.7,2.6-2.3.1-2.9-1.3-3.2S582.2,377.2,581.8,378.6Z" style="fill: #fff"/>
          <path d="M589.6,378.8a14.7,14.7,0,0,0,.5-2.6l1.8.4-.3,1.6h.1a2.5,2.5,0,0,1,2.6-1.2l.5.2-.5,1.9a.8.8,0,0,0-.6-.2,1.8,1.8,0,0,0-2.1,1.1l-.3.6-.9,4.2-2.1-.5Z" style="fill: #fff"/>
          <path d="M593.9,385.6l1.9-8.1,2,.5-1.8,8.1Zm4.6-9.8a1.1,1.1,0,0,1-1.4.8c-.7-.2-1.1-.7-.9-1.3a1.1,1.1,0,0,1,1.4-.9A1.2,1.2,0,0,1,598.5,375.8Z" style="fill: #fff"/>
          <path d="M602.4,387.6v-1h0a2.9,2.9,0,0,1-2.6.5,2.3,2.3,0,0,1-2-2.9c.4-2.1,2.5-2.7,5.5-2h0a1.4,1.4,0,0,0-1.3-1.8,4.4,4.4,0,0,0-2.3.1V379a5.2,5.2,0,0,1,3.1-.1c2.6.6,2.9,2.4,2.5,4.2l-.7,2.9a19.6,19.6,0,0,0-.3,2Zm.6-4c-1.4-.4-2.9-.4-3.2.8a1.1,1.1,0,0,0,.9,1.4,1.7,1.7,0,0,0,1.9-.7c.1-.1.1-.3.2-.4Z" style="fill: #fff"/>
          <path d="M619.2,379l-2.2,9.5-.5,2.3-1.8-.4.2-1.3h0a3.2,3.2,0,0,1-3,.9c-1.9-.5-3.1-2.5-2.5-5s2.7-3.9,4.6-3.4a2.9,2.9,0,0,1,2.1,1.5h0l1-4.5Zm-3.7,6.6a4.3,4.3,0,0,0,.1-.5,2,2,0,0,0-1.4-1.9c-1.4-.3-2.3.7-2.7,2.2s.1,2.8,1.4,3.1a1.8,1.8,0,0,0,2.1-1.1.8.8,0,0,0,.2-.6Z" style="fill: #fff"/>
          <path d="M620.6,388.1a2.3,2.3,0,0,0,2,2.7,6.1,6.1,0,0,0,2.3.1v1.5a10.4,10.4,0,0,1-3-.1c-2.6-.7-3.8-2.6-3.2-5.1a4.1,4.1,0,0,1,5-3.4c2.6.6,2.9,2.9,2.5,4.7a5.1,5.1,0,0,0-.2.9Zm3.8-.6a1.8,1.8,0,0,0-1.2-2.4,2.2,2.2,0,0,0-2.3,1.6Z" style="fill: #fff"/>
          <path d="M639.8,383.8l-2.2,9.5a11.1,11.1,0,0,0-.4,2.3l-1.9-.4.2-1.3h0a2.9,2.9,0,0,1-3,.8c-1.9-.4-3-2.4-2.5-4.9s2.7-3.9,4.7-3.5a2.6,2.6,0,0,1,2,1.6h0l1.1-4.6Zm-3.7,6.6a1.1,1.1,0,0,0,.1-.5,1.8,1.8,0,0,0-1.4-1.9c-1.3-.3-2.3.7-2.7,2.2s.2,2.7,1.5,3a1.9,1.9,0,0,0,2.1-1,1.4,1.4,0,0,1,.2-.6Z" style="fill: #fff"/>
          <path d="M641.2,392.9c-.3,1.4.7,2.3,2,2.6a4.7,4.7,0,0,0,2.3.2v1.5a7.5,7.5,0,0,1-2.9-.2,4,4,0,0,1-3.3-5c.6-2.3,2.4-4.1,5-3.5s3,3,2.6,4.8a3.4,3.4,0,0,1-.3.8Zm3.9-.6a1.8,1.8,0,0,0-1.3-2.4,2,2,0,0,0-2.3,1.5Z" style="fill: #fff"/>
          <path d="M647.5,396a5,5,0,0,0,1.9,1.1c.9.2,1.4-.1,1.5-.6s-.1-.9-1-1.5-1.9-1.9-1.7-2.9,1.8-2.2,3.6-1.8a4.6,4.6,0,0,1,2.1,1l-.8,1.3a2.7,2.7,0,0,0-1.6-.8c-.7-.2-1.2,0-1.3.5s.2.9,1.2,1.5,1.8,1.8,1.6,3-1.8,2.2-3.9,1.7a4.5,4.5,0,0,1-2.3-1.1Z" style="fill: #fff"/>
          <path d="M658.3,400.5v-.9h-.1a2.9,2.9,0,0,1-2.6.6,2.5,2.5,0,0,1-2-3c.5-2.1,2.5-2.7,5.5-2h0c.2-.5.1-1.5-1.3-1.8a4.4,4.4,0,0,0-2.3.1v-1.4a7.6,7.6,0,0,1,3.1-.1c2.6.6,2.9,2.5,2.5,4.2l-.6,2.9c-.2.8-.3,1.5-.4,2Zm.6-4c-1.4-.4-2.8-.4-3.1.8a1.1,1.1,0,0,0,.9,1.5,1.7,1.7,0,0,0,1.8-.8l.2-.4Z" style="fill: #fff"/>
          <path d="M663.1,395.8a19.1,19.1,0,0,0,.5-2.6l1.8.4-.3,1.6h.1a2.4,2.4,0,0,1,2.6-1.2h.5l-.5,2a.8.8,0,0,0-.6-.2,1.7,1.7,0,0,0-2.1,1.1l-.3.6-.9,4.2-2.1-.5Z" style="fill: #fff"/>
          <path d="M668.7,397.1c.2-1.1.4-1.9.5-2.6l1.8.4-.3,1.6h.1a2.3,2.3,0,0,1,2.6-1.2h.4l-.4,1.9-.6-.2a1.9,1.9,0,0,0-2.2,1.2l-.2.6-.9,4.2-2.1-.5Z" style="fill: #fff"/>
          <path d="M681.5,401.5a4.1,4.1,0,0,1-5.2,3.3,4,4,0,0,1-3.1-5.1,4.2,4.2,0,0,1,5.2-3.3A4.1,4.1,0,0,1,681.5,401.5Zm-6.1-1.3c-.4,1.5.1,2.9,1.3,3.2s2.3-.7,2.6-2.3.1-2.9-1.3-3.2S675.7,398.8,675.4,400.2Z" style="fill: #fff"/>
          <path d="M684.6,394.1l2,.5-2.7,11.8-2-.5Z" style="fill: #fff"/>
          <path d="M688.5,395.1l2.1.4-2.8,11.8-2-.5Z" style="fill: #fff"/>
          <path d="M698.3,405.4a4.2,4.2,0,1,1-8.2-1.8,4.2,4.2,0,0,1,5.2-3.3A4,4,0,0,1,698.3,405.4Zm-6.1-1.3c-.3,1.5.2,2.9,1.4,3.2s2.3-.7,2.6-2.3.1-2.9-1.3-3.2S692.5,402.7,692.2,404.1Z" style="fill: #fff"/>
          <path d="M524.2,380l.5,4.7a9.7,9.7,0,0,1,.1,1.7h0a10.9,10.9,0,0,0,.8-1.5l2.3-4,2.2.5-3.3,5c-1.8,2.8-2.9,3.9-4,4.5a4.4,4.4,0,0,1-2.4.6v-1.8a6.1,6.1,0,0,0,1.3-.3,4.8,4.8,0,0,0,1.5-1.1l.2-.3a.8.8,0,0,0-.1-.4l-1.2-8.1Z" style="fill: #fff"/>
          <path d="M538.2,391.5a6.8,6.8,0,0,1-2.4-.1,4,4,0,0,1-3.2-5.1A4.3,4.3,0,0,1,538,383a5.7,5.7,0,0,1,1.9.8l-.7,1.5a4.2,4.2,0,0,0-1.5-.7,2.5,2.5,0,0,0-3,2.1,2.4,2.4,0,0,0,1.8,3.1,3.4,3.4,0,0,0,1.7.1Z" style="fill: #fff"/>
          <path d="M547.7,389.6a4.2,4.2,0,1,1-8.2-1.7,4.2,4.2,0,0,1,5.2-3.4A4,4,0,0,1,547.7,389.6Zm-6.1-1.3c-.3,1.6.2,2.9,1.4,3.2s2.3-.7,2.6-2.3.1-2.9-1.3-3.2S542,386.9,541.6,388.3Z" style="fill: #fff"/>
          <path d="M549.5,388.4c.2-1,.3-1.7.4-2.5l1.8.5v1.2h0a3.2,3.2,0,0,1,2.9-.8c1.4.3,2.7,1.6,2.1,4.1l-1.1,4.8-2.1-.4,1.1-4.6c.2-1.2,0-2.1-1.1-2.4a1.9,1.9,0,0,0-1.9.8,1.4,1.4,0,0,0-.2.7l-1.1,4.7-2.1-.5Z" style="fill: #fff"/>
          <path d="M557.6,394.3a6.2,6.2,0,0,0,2,1c.9.2,1.3-.1,1.5-.6s-.2-.9-1.1-1.5-1.9-1.9-1.7-2.8,1.8-2.3,3.7-1.9a5.3,5.3,0,0,1,2,1l-.7,1.4a4,4,0,0,0-1.6-.9c-.8-.2-1.2.1-1.4.6s.3.8,1.2,1.4,1.8,1.8,1.6,3-1.7,2.3-3.9,1.8a5.5,5.5,0,0,1-2.3-1.2Z" style="fill: #fff"/>
          <path d="M568.6,387.8l-.5,2.3,1.9.5-.3,1.5-2-.4-.8,3.5c-.2,1-.1,1.6.7,1.8s.6.1.8,0l-.3,1.6a4.1,4.1,0,0,1-1.5-.1,2.4,2.4,0,0,1-1.6-1.1,2.8,2.8,0,0,1-.1-2.4l.8-3.8-1.1-.3.3-1.5,1.2.3.4-1.8Z" style="fill: #fff"/>
          <path d="M570.6,393.5c.3-1.1.4-1.9.6-2.7l1.7.5-.2,1.5h0a2.6,2.6,0,0,1,2.6-1.2l.5.2-.5,1.9-.5-.2a1.8,1.8,0,0,0-2.2,1.1,1.4,1.4,0,0,0-.2.6l-1,4.2-2-.5Z" style="fill: #fff"/>
          <path d="M582.7,399.5c-.2.9-.3,1.7-.5,2.4l-1.8-.4.2-1.3h0a3.1,3.1,0,0,1-2.9.9c-1.5-.4-2.6-1.6-2-4.2l1.1-4.8,2,.5-1,4.4c-.3,1.4-.1,2.3,1,2.6a1.9,1.9,0,0,0,1.8-.8,1.6,1.6,0,0,0,.3-.6l1.1-4.8,2,.4Z" style="fill: #fff"/>
          <path d="M590,403.4a4.6,4.6,0,0,1-2.3-.1,3.9,3.9,0,0,1-3.3-5,4.3,4.3,0,0,1,5.5-3.3,5.7,5.7,0,0,1,1.9.8l-.7,1.5a3,3,0,0,0-1.5-.7,2.7,2.7,0,0,0-1.2,5.2,5.2,5.2,0,0,0,1.7.1Z" style="fill: #fff"/>
          <path d="M597,405.1a5.3,5.3,0,0,1-2.4-.2,3.9,3.9,0,0,1-3.2-5,4.3,4.3,0,0,1,5.5-3.3,6.8,6.8,0,0,1,1.9.8l-.7,1.5a5.3,5.3,0,0,0-1.5-.7,2.5,2.5,0,0,0-3.1,2.1,2.4,2.4,0,0,0,1.9,3.1,3.4,3.4,0,0,0,1.7.1Z" style="fill: #fff"/>
          <path d="M598.1,405.6l1.9-8.1,2,.5-1.8,8.1Zm4.6-9.8a1.2,1.2,0,0,1-1.4.8,1.1,1.1,0,0,1-.9-1.4,1.1,1.1,0,0,1,1.4-.8A1.1,1.1,0,0,1,602.7,395.8Z" style="fill: #fff"/>
          <path d="M610.7,404.1a4.2,4.2,0,0,1-5.2,3.4,4,4,0,0,1-3.1-5.1c.7-2.7,2.8-3.9,5.2-3.3A4,4,0,0,1,610.7,404.1Zm-6.1-1.3c-.4,1.6.1,2.9,1.3,3.2s2.3-.7,2.6-2.3.1-2.8-1.3-3.1S604.9,401.5,604.6,402.8Zm6.1-6.5-2.6,2-1.4-.3,2-2.2Z" style="fill: #fff"/>
          <path d="M612.4,402.9c.2-.9.3-1.7.5-2.4l1.7.4v1.2h0a3.2,3.2,0,0,1,2.9-.8c1.4.4,2.7,1.6,2.1,4.2l-1.1,4.8-2.1-.5,1.1-4.6c.2-1.1,0-2.1-1.1-2.4a1.8,1.8,0,0,0-1.9.9c-.1.1-.1.4-.2.6l-1.1,4.7-2-.4Z" style="fill: #fff"/>
          <path d="M624.6,406c.2-1.1.4-1.9.5-2.7l1.8.4-.2,1.3h0a3.1,3.1,0,0,1,3.1-.8c1.9.4,3.1,2.4,2.5,4.9s-2.9,3.9-4.7,3.5a3,3,0,0,1-2-1.6h0l-1,4.1-2.1-.4Zm1.5,2.5v.6a1.9,1.9,0,0,0,1.4,1.8c1.3.3,2.3-.6,2.7-2.2s-.1-2.7-1.4-3a2,2,0,0,0-2.2,1c-.1.2-.1.4-.2.5Z" style="fill: #fff"/>
          <path d="M633.9,408.1a22.3,22.3,0,0,0,.6-2.6l1.7.4-.2,1.5h0a2.5,2.5,0,0,1,2.6-1.3l.5.2-.4,1.9-.6-.2a2,2,0,0,0-2.2,1.1,1.4,1.4,0,0,0-.2.7l-1,4.1-2-.4Z" style="fill: #fff"/>
          <path d="M638.2,414.8l1.9-8,2.1.4-1.9,8.1Zm4.6-9.8a1.2,1.2,0,0,1-2.3-.5,1.2,1.2,0,0,1,1.4-.9A1.2,1.2,0,0,1,642.8,405Z" style="fill: #fff"/>
          <path d="M650.8,413.4a4.1,4.1,0,0,1-5.2,3.3,3.9,3.9,0,0,1-3-5,4.1,4.1,0,0,1,5.1-3.4A4,4,0,0,1,650.8,413.4Zm-6.1-1.3c-.4,1.5.1,2.9,1.4,3.2s2.2-.7,2.6-2.3,0-2.9-1.4-3.2S645,410.7,644.7,412.1Z" style="fill: #fff"/>
          <path d="M652.4,412.4a19.5,19.5,0,0,0,.6-2.7l1.8.5-.3,1.5h0a2.6,2.6,0,0,1,2.6-1.2l.5.2-.4,1.9-.6-.2a1.8,1.8,0,0,0-2.2,1.1,1.4,1.4,0,0,0-.2.6l-1,4.2-2-.5Z" style="fill: #fff"/>
          <path d="M656.8,419.1l1.8-8.1,2.1.5-1.9,8.1Zm4.5-9.8a1.2,1.2,0,0,1-2.3-.5,1.2,1.2,0,0,1,1.4-.9A1.2,1.2,0,0,1,661.3,409.3Z" style="fill: #fff"/>
          <path d="M665.4,410.2l-.5,2.3,1.9.4-.3,1.6-2-.5-.8,3.6c-.2,1-.1,1.5.7,1.7h.8l-.3,1.6a4.7,4.7,0,0,1-1.5-.2c-.8-.2-1.4-.5-1.6-1a3.1,3.1,0,0,1-.2-2.4l.9-3.8-1.1-.3.3-1.5,1.2.2.4-1.8Z" style="fill: #fff"/>
          <path d="M670.7,422.3v-.9h-.1a2.9,2.9,0,0,1-2.6.5,2.4,2.4,0,0,1-2-3c.5-2,2.5-2.6,5.5-1.9h0c.1-.6.1-1.5-1.3-1.8a3.6,3.6,0,0,0-2.3.1v-1.4a5.2,5.2,0,0,1,3.1-.1c2.6.6,2.9,2.4,2.5,4.2l-.6,2.9a17.7,17.7,0,0,0-.4,2Zm.6-4c-1.4-.3-2.8-.3-3.1.9a1,1,0,0,0,.9,1.4,1.6,1.6,0,0,0,1.8-.7c.1-.2.2-.3.2-.5Z" style="fill: #fff"/>
          <path d="M675.5,417.7a19.1,19.1,0,0,0,.5-2.6l1.8.4-.3,1.5h.1a2.5,2.5,0,0,1,2.6-1.3l.5.2-.5,1.9-.6-.2a1.9,1.9,0,0,0-2.1,1.1l-.3.7-.9,4.1-2.1-.4Z" style="fill: #fff"/>
          <path d="M679.8,424.4l1.9-8,2,.4-1.8,8.1Zm4.6-9.8a1.1,1.1,0,0,1-1.4.8,1,1,0,0,1-.9-1.3,1.2,1.2,0,0,1,1.4-.9A1.2,1.2,0,0,1,684.4,414.6Z" style="fill: #fff"/>
          <path d="M688.3,426.4v-.9h0a3.2,3.2,0,0,1-2.6.5,2.4,2.4,0,0,1-2-3c.4-2,2.5-2.7,5.5-1.9v-.2c.1-.5.1-1.4-1.3-1.8a5.8,5.8,0,0,0-2.3.1v-1.4a6.4,6.4,0,0,1,3.1,0c2.6.6,2.9,2.4,2.5,4.1l-.7,3a18.1,18.1,0,0,0-.3,1.9Zm.6-4c-1.4-.4-2.9-.4-3.2.9a1.2,1.2,0,0,0,.9,1.4,1.6,1.6,0,0,0,1.9-.8c.1-.1.1-.3.2-.4Z" style="fill: #fff"/>
        </g>
      </g>
    </g>
  </g>
</svg>
