<svg class="animate__animated" xmlns="http://www.w3.org/2000/svg" viewBox="0 0 734 353.2">
  <g id="Capa_2" data-name="Capa 2">
    <g id="Capa_1-2" data-name="Capa 1">
      <g class="hoverable" onclick="returnToGroups(); changeImage('rueda');">
        <circle cx="127.5" cy="207.7" r="127" style="fill: none;stroke: #aab8bd;stroke-miterlimit: 10"/>
        <circle cx="127.7" cy="207.9" r="105" style="fill: #bdc4c6"/>
        <g>
          <path d="M99.2,212.8a14.7,14.7,0,0,1-4.6.8,7.4,7.4,0,0,1-5.5-1.9,7,7,0,0,1-2-5.2c0-4.6,3.2-7.5,7.9-7.5a9.8,9.8,0,0,1,3.8.7l-.6,2.1a8.2,8.2,0,0,0-3.2-.6c-3.1,0-5.2,1.8-5.2,5.1s2,5.2,5,5.2a4.1,4.1,0,0,0,1.9-.3v-3.6H94.2v-2h5Z" style="fill: #112025"/>
          <path d="M109.9,207.1h-5.4v4.2h6v2.2h-8.6V199.2h8.3v2.1h-5.7V205h5.4Z" style="fill: #112025"/>
          <path d="M112.7,210.6a7.5,7.5,0,0,0,3.5.9c1.7,0,2.6-.8,2.6-1.9s-.7-1.7-2.5-2.4-3.9-2.1-3.9-4.1,2-4.1,5-4.1a7.7,7.7,0,0,1,3.5.7l-.7,2.1a5.6,5.6,0,0,0-2.8-.7c-1.6,0-2.4.9-2.4,1.7s.9,1.6,2.8,2.4,3.6,2.1,3.6,4.2-1.7,4.3-5.4,4.3a9.2,9.2,0,0,1-3.8-.9Z" style="fill: #112025"/>
          <path d="M126.5,201.4h-4v-2.2h10.7v2.2h-4.1v12.1h-2.6Z" style="fill: #112025"/>
          <path d="M137.5,199.2v14.3h-2.6V199.2Z" style="fill: #112025"/>
          <path d="M153.2,206.2c0,4.8-2.9,7.5-6.9,7.5s-6.5-3.1-6.5-7.3,2.7-7.4,6.7-7.4S153.2,202.1,153.2,206.2Zm-10.7.2c0,2.9,1.5,5.2,4,5.2s3.9-2.3,3.9-5.3-1.3-5.2-3.9-5.2S142.5,203.4,142.5,206.4Zm7.4-10.6-2.7,2.6h-2.1l1.9-2.6Z" style="fill: #112025"/>
          <path d="M155.4,213.5V199.2h3l3.6,6.1a36.7,36.7,0,0,1,2.5,4.8h0c-.1-1.9-.2-3.8-.2-5.9v-5h2.4v14.3H164l-3.7-6.3c-.9-1.6-1.9-3.3-2.6-4.9h0c.1,1.8.1,3.7.1,6.1v5.1Z" style="fill: #112025"/>
        </g>
      </g>
      <g class="hoverable" onclick="returnToTypesInstrument(); changeImage('gestion/G_Herramienta_Segundo_Plano');">
        <path d="M452.4,288,281.3,245.7a155,155,0,0,0,4.4-37.4,158.2,158.2,0,0,0-8.9-52.5L443.1,97.2A335.5,335.5,0,0,1,462,208.3,332.4,332.4,0,0,1,452.4,288Z" style="fill: #29abe2"/>
        <path d="M439.2,284.8,275.1,244.1a154,154,0,0,0-4.2-86.6l159.4-56.2a321.3,321.3,0,0,1,18.1,106.6A325.5,325.5,0,0,1,439.2,284.8Z" style="fill: #84266a"/>
        <g>
          <path d="M291.2,176.1v14.1h-1.9V176.1Z" style="fill: #fff"/>
          <path d="M294.5,182.8a22.6,22.6,0,0,0-.1-2.7H296l.2,1.7h0a3.7,3.7,0,0,1,3.4-1.9c1.4,0,3.5.8,3.5,4.3v6h-1.8v-5.8c0-1.6-.6-3-2.4-3a2.5,2.5,0,0,0-2.4,1.9,1.9,1.9,0,0,0-.2.8v6.1h-1.8Z" style="fill: #fff"/>
          <path d="M308.3,177.2v2.9h2.6v1.4h-2.6V187c0,1.2.3,1.9,1.4,1.9h1v1.4a3.2,3.2,0,0,1-1.6.3,2.5,2.5,0,0,1-2-.8,4.1,4.1,0,0,1-.7-2.7v-5.5h-1.6v-1.4h1.6v-2.5Z" style="fill: #fff"/>
          <path d="M313.9,185.5a3.3,3.3,0,0,0,3.5,3.5,6.7,6.7,0,0,0,2.8-.5l.3,1.3a7.4,7.4,0,0,1-3.3.7c-3.2,0-5-2.1-5-5.2s1.8-5.4,4.7-5.4,4.2,2.9,4.2,4.7v.9Zm5.4-1.3a2.5,2.5,0,0,0-2.5-3c-1.9,0-2.7,1.7-2.9,3Z" style="fill: #fff"/>
          <path d="M323.4,183.3a31.1,31.1,0,0,0-.1-3.2h1.6v2h.1a3,3,0,0,1,2.8-2.2h.5v1.8h-.6a2.7,2.7,0,0,0-2.5,2.4c0,.2-.1.5-.1.8v5.4h-1.8Z" style="fill: #fff"/>
          <path d="M331.5,180.1l2,5.7c.3.9.6,1.8.8,2.6h.1a16.1,16.1,0,0,1,.9-2.6l1.9-5.7h2l-4,10.1h-1.8l-3.9-10.1Z" style="fill: #fff"/>
          <path d="M341.7,185.5a3.3,3.3,0,0,0,3.5,3.5,6.7,6.7,0,0,0,2.8-.5l.3,1.3a7.4,7.4,0,0,1-3.3.7c-3.2,0-5-2.1-5-5.2s1.8-5.4,4.7-5.4,4.2,2.9,4.2,4.7v.9Zm5.4-1.3a2.5,2.5,0,0,0-2.5-3c-1.9,0-2.7,1.7-2.9,3Z" style="fill: #fff"/>
          <path d="M351.2,182.8a22.6,22.6,0,0,0-.1-2.7h1.7v1.7h0a3.7,3.7,0,0,1,3.4-1.9c1.4,0,3.6.8,3.6,4.3v6H358v-5.8c0-1.6-.6-3-2.3-3a2.5,2.5,0,0,0-2.5,1.9,1.9,1.9,0,0,0-.1.8v6.1h-1.9Z" style="fill: #fff"/>
          <path d="M370.1,189.9a7.5,7.5,0,0,1-2.9.6,4.9,4.9,0,0,1-5.1-5.2,5.2,5.2,0,0,1,5.5-5.4,5.7,5.7,0,0,1,2.6.5l-.5,1.4a4.6,4.6,0,0,0-2.1-.5,3.6,3.6,0,0,0-3.6,3.9,3.5,3.5,0,0,0,3.5,3.8,5.6,5.6,0,0,0,2.3-.5Z" style="fill: #fff"/>
          <path d="M374.3,177.2a1,1,0,0,1-1.1,1.2,1.2,1.2,0,0,1-1.2-1.2,1.1,1.1,0,0,1,1.2-1.1A1,1,0,0,1,374.3,177.2Zm-2,13V180.1h1.8v10.1Z" style="fill: #fff"/>
          <path d="M386.4,185.1a5,5,0,0,1-5.1,5.4c-2.7,0-4.8-2-4.8-5.2s2.2-5.4,5-5.4S386.4,182,386.4,185.1Zm-8.1.1c0,2.2,1.3,3.9,3.1,3.9s3.1-1.7,3.1-4-.9-3.9-3-3.9S378.3,183.3,378.3,185.2Zm5.9-9.5-2.6,3h-1.3l1.8-3Z" style="fill: #fff"/>
          <path d="M388.7,182.8a22.6,22.6,0,0,0-.1-2.7h1.7v1.7h0a3.7,3.7,0,0,1,3.4-1.9c1.4,0,3.6.8,3.6,4.3v6h-1.9v-5.8c0-1.6-.6-3-2.3-3a2.6,2.6,0,0,0-2.5,1.9,1.9,1.9,0,0,0-.1.8v6.1h-1.9Z" style="fill: #fff"/>
          <path d="M296.7,208.8h-5.5v5.1h6.1v1.5h-8V201.3H297v1.5h-5.8v4.5h5.5Z" style="fill: #fff"/>
          <path d="M299.3,213.6a6.1,6.1,0,0,0,2.5.7c1.3,0,2-.7,2-1.5s-.6-1.4-1.9-1.9-2.7-1.6-2.7-2.9,1.3-2.9,3.5-2.9a4.6,4.6,0,0,1,2.5.6l-.5,1.3a4.4,4.4,0,0,0-2.1-.6,1.5,1.5,0,0,0-1.7,1.4c0,.9.6,1.2,2,1.7s2.6,1.6,2.6,3.1-1.3,3.1-3.8,3.1a5.8,5.8,0,0,1-2.8-.7Z" style="fill: #fff"/>
          <path d="M310.1,202.4v2.9h2.7v1.4h-2.7v5.5c0,1.2.4,1.9,1.4,1.9h1.1v1.4a3.7,3.7,0,0,1-1.7.3,2.8,2.8,0,0,1-2-.8,4.1,4.1,0,0,1-.7-2.7v-5.5h-1.5v-1.4h1.5v-2.5Z" style="fill: #fff"/>
          <path d="M314.9,208.5c0-1.2-.1-2.3-.1-3.2h1.6v2h0a3.1,3.1,0,0,1,2.9-2.2h.5v1.8h-.6a2.6,2.6,0,0,0-2.5,2.4,1.9,1.9,0,0,0-.1.8v5.4h-1.8Z" style="fill: #fff"/>
          <path d="M330.2,212.7c0,1,.1,1.9.1,2.7h-1.6v-1.6h-.1a3.7,3.7,0,0,1-3.3,1.9c-1.6,0-3.5-.9-3.5-4.5v-5.9h1.8v5.6c0,1.9.6,3.2,2.3,3.2a2.6,2.6,0,0,0,2.4-1.6,3,3,0,0,0,.2-1v-6.2h1.8Z" style="fill: #fff"/>
          <path d="M340.5,215.1a7,7,0,0,1-2.9.6,4.8,4.8,0,0,1-5-5.2,5.1,5.1,0,0,1,5.4-5.4,5.7,5.7,0,0,1,2.6.5l-.4,1.4a5.5,5.5,0,0,0-2.2-.5,3.6,3.6,0,0,0-3.6,3.9,3.5,3.5,0,0,0,3.6,3.8,5.5,5.5,0,0,0,2.2-.5Z" style="fill: #fff"/>
          <path d="M345.2,202.4v2.9h2.7v1.4h-2.7v5.5c0,1.2.4,1.9,1.4,1.9h1.1v1.4a3.2,3.2,0,0,1-1.6.3,2.8,2.8,0,0,1-2-.8,4.1,4.1,0,0,1-.7-2.7v-5.5h-1.6v-1.4h1.6v-2.5Z" style="fill: #fff"/>
          <path d="M358.4,212.7c0,1,.1,1.9.1,2.7h-1.6v-1.6h-.1a3.7,3.7,0,0,1-3.3,1.9c-1.6,0-3.5-.9-3.5-4.5v-5.9h1.8v5.6c0,1.9.6,3.2,2.3,3.2a2.6,2.6,0,0,0,2.4-1.6,3,3,0,0,0,.2-1v-6.2h1.8Z" style="fill: #fff"/>
          <path d="M361.5,208.5a31.1,31.1,0,0,0-.1-3.2H363v2h.1a2.9,2.9,0,0,1,2.8-2.2h.5v1.8h-.6a2.7,2.7,0,0,0-2.5,2.4c0,.2-.1.5-.1.8v5.4h-1.8Z" style="fill: #fff"/>
          <path d="M373.9,215.4l-.2-1.2h0a3.9,3.9,0,0,1-3.1,1.5,2.9,2.9,0,0,1-3.1-2.9c0-2.5,2.2-3.8,6.1-3.8v-.2a2.1,2.1,0,0,0-2.3-2.4,4.8,4.8,0,0,0-2.7.8l-.4-1.2a5.8,5.8,0,0,1,3.3-.9c3.2,0,3.9,2.1,3.9,4.1V213a8.6,8.6,0,0,0,.2,2.4Zm-.3-5.1c-2-.1-4.3.3-4.3,2.2a1.7,1.7,0,0,0,1.8,1.8,2.4,2.4,0,0,0,2.4-1.7,1.3,1.3,0,0,0,.1-.6Z" style="fill: #fff"/>
          <path d="M382.9,201.5a16.2,16.2,0,0,1,3.5-.3,5.8,5.8,0,0,1,4,1.2,3.6,3.6,0,0,1,1.2,2.9,4.5,4.5,0,0,1-1.1,3.1,5.8,5.8,0,0,1-4.3,1.5h-1.5v5.6h-1.8Zm1.8,6.8h1.5c2.2,0,3.6-1,3.6-3s-1.3-2.8-3.3-2.8l-1.8.2Z" style="fill: #fff"/>
          <path d="M393.7,208.5a31.1,31.1,0,0,0-.1-3.2h1.6v2h.1a2.9,2.9,0,0,1,2.8-2.2h.5v1.8h-.6a2.6,2.6,0,0,0-2.5,2.4,1.9,1.9,0,0,0-.1.8v5.4h-1.8Z" style="fill: #fff"/>
          <path d="M401.4,210.7a3.2,3.2,0,0,0,3.5,3.5,6.7,6.7,0,0,0,2.8-.5l.3,1.3a8.3,8.3,0,0,1-3.4.7c-3.1,0-5-2.1-5-5.2s1.8-5.4,4.8-5.4,4.2,2.9,4.2,4.7-.1.7-.1.9Zm5.4-1.3c0-1.2-.5-3-2.6-3a3,3,0,0,0-2.8,3Z" style="fill: #fff"/>
          <path d="M419.6,200.5v12.3c0,.9.1,2,.1,2.6h-1.6v-1.7h-.1a3.7,3.7,0,0,1-3.4,2c-2.5,0-4.4-2.1-4.4-5.2s2.1-5.4,4.6-5.4a3.3,3.3,0,0,1,3,1.5h.1v-6.1Zm-1.8,8.9a2.5,2.5,0,0,0-.1-.8,2.8,2.8,0,0,0-2.7-2.1c-1.9,0-3,1.7-3,3.9s1,3.8,3,3.8a2.8,2.8,0,0,0,2.7-2.2,2.2,2.2,0,0,0,.1-.8Z" style="fill: #fff"/>
          <path d="M424.8,202.4a1.2,1.2,0,0,1-1.2,1.2,1.1,1.1,0,0,1-1.1-1.2,1.1,1.1,0,0,1,1.1-1.1A1.1,1.1,0,0,1,424.8,202.4Zm-2.1,13V205.3h1.8v10.1Z" style="fill: #fff"/>
          <path d="M433.2,215.4v-1.2H433a3.6,3.6,0,0,1-3.1,1.5,2.9,2.9,0,0,1-3.1-2.9c0-2.5,2.2-3.8,6.1-3.8v-.2a2.1,2.1,0,0,0-2.3-2.4,4.7,4.7,0,0,0-2.6.8l-.4-1.2a5.6,5.6,0,0,1,3.3-.9c3.1,0,3.9,2.1,3.9,4.1V213a17,17,0,0,0,.1,2.4Zm-.2-5.1c-2-.1-4.3.3-4.3,2.2a1.7,1.7,0,0,0,1.7,1.8,2.6,2.6,0,0,0,2.5-1.7c0-.2.1-.4.1-.6Z" style="fill: #fff"/>
          <path d="M437.7,200.5h1.9v14.9h-1.9Z" style="fill: #fff"/>
        </g>
      </g>
      <g class="hoverable" onclick="showInstrument('gestion', 'intervencion_estructura_predial', 'integracion_inmobiliaria');">
        <path d="M493.3,186.9v-.7a364.2,364.2,0,0,0-21.5-104L697.3,0a607.8,607.8,0,0,1,35.6,172.2v1.2Z" style="fill: #84266a"/>
        <g>
          <path d="M526.7,113.8l2.1,12-1.6.2-2-11.9Z" style="fill: #fff"/>
          <path d="M530.5,119c-.1-.9-.3-1.6-.4-2.3l1.3-.2.4,1.4h0a3.2,3.2,0,0,1,2.6-2.1c1.2-.2,3.1.2,3.6,3.1l.9,5.1-1.6.3-.8-5c-.2-1.3-.9-2.4-2.4-2.2a2.3,2.3,0,0,0-1.8,2,.9.9,0,0,0,0,.7l.9,5.2-1.6.3Z" style="fill: #fff"/>
          <path d="M541.4,112.2l.4,2.5,2.2-.4.2,1.2-2.2.4.8,4.6c.2,1.1.6,1.6,1.4,1.5l.9-.3.3,1.2a3.4,3.4,0,0,1-1.4.4,2.2,2.2,0,0,1-1.8-.3,3.2,3.2,0,0,1-.9-2.2l-.8-4.7-1.4.3-.2-1.2,1.4-.2-.4-2.1Z" style="fill: #fff"/>
          <path d="M547.3,118.5a2.8,2.8,0,0,0,3.5,2.4,5.6,5.6,0,0,0,2.3-.8l.4,1.1a7.3,7.3,0,0,1-2.7,1,4.1,4.1,0,0,1-5-3.6c-.4-2.6.7-4.9,3.2-5.3s4,1.8,4.3,3.4,0,.6.1.7Zm4.4-1.9a2.2,2.2,0,0,0-2.6-2.2,2.5,2.5,0,0,0-1.9,2.9Z" style="fill: #fff"/>
          <path d="M562,111.3a12,12,0,0,0,.3,2.3l.8,5c.4,2,.2,3.3-.5,4.2a4.8,4.8,0,0,1-3,1.5,5.5,5.5,0,0,1-2.9-.2l.2-1.3a4.2,4.2,0,0,0,2.6.3c1.6-.3,2.6-1.3,2.2-3.5v-1h-.1a3.2,3.2,0,0,1-2.4,1.9c-2.2.3-4-1.2-4.4-3.6s1.1-4.9,3.1-5.2a2.8,2.8,0,0,1,2.9,1h0v-1.3Zm-1.1,3.6a1.9,1.9,0,0,0-.2-.7,2.2,2.2,0,0,0-2.4-1.2c-1.5.2-2.4,1.6-2,3.6s1.3,3,3,2.7a2.3,2.3,0,0,0,1.9-2,2.1,2.1,0,0,0,0-.8Z" style="fill: #fff"/>
          <path d="M564.8,113.5a17.2,17.2,0,0,0-.5-2.6l1.4-.3.3,1.7h.1a2.7,2.7,0,0,1,2-2.3h.5l.2,1.5h-.5a2.2,2.2,0,0,0-1.7,2.4v.7l.8,4.6-1.6.2Z" style="fill: #fff"/>
          <path d="M576.3,117.7l-.3-1.1h0a3.2,3.2,0,0,1-2.5,1.7,2.4,2.4,0,0,1-3-2c-.4-2.1,1.3-3.5,4.6-4.1h0a1.8,1.8,0,0,0-2.3-1.7,3.8,3.8,0,0,0-2.1,1l-.6-.9a5.7,5.7,0,0,1,2.7-1.3c2.7-.4,3.6,1.2,3.9,3l.5,3.2c.2.7.3,1.4.5,2Zm-1-4.4c-1.7.3-3.6.9-3.3,2.6a1.5,1.5,0,0,0,1.8,1.2,2.1,2.1,0,0,0,1.8-1.8v-.5Z" style="fill: #fff"/>
          <path d="M586.2,115.6a6.1,6.1,0,0,1-2.4,1,4.2,4.2,0,0,1-5-3.7,4.3,4.3,0,0,1,3.8-5.3,5.3,5.3,0,0,1,2.2,0v1.3a5.2,5.2,0,0,0-1.9-.1c-2,.3-2.8,2-2.5,3.8a3.1,3.1,0,0,0,3.6,2.7,4.3,4.3,0,0,0,1.8-.8Z" style="fill: #fff"/>
          <path d="M587.9,104.4a.9.9,0,0,1-.8,1.1.9.9,0,0,1-1.1-.8,1,1,0,0,1,.8-1.2A.9.9,0,0,1,587.9,104.4Zm.2,11.3-1.5-8.6,1.6-.3,1.4,8.6Z" style="fill: #fff"/>
          <path d="M599.2,109.3a4.1,4.1,0,0,1-3.5,5.2,4.1,4.1,0,0,1-4.8-3.7,4.3,4.3,0,0,1,3.5-5.3C596.8,105.1,598.8,106.6,599.2,109.3Zm-6.8,1.2c.4,1.9,1.7,3.1,3.2,2.9s2.4-1.9,2.1-3.8-1.3-3.2-3.2-2.9S592.2,108.9,592.4,110.5Zm3.6-8.9-1.7,2.9-1.1.2,1.1-2.8Z" style="fill: #fff"/>
          <path d="M600.9,107c-.2-.9-.3-1.6-.5-2.3l1.4-.2.3,1.4h.1a3.1,3.1,0,0,1,2.5-2.1c1.2-.2,3.2.2,3.7,3.1l.9,5.1-1.6.3-.8-4.9c-.3-1.4-1-2.5-2.5-2.2a2.1,2.1,0,0,0-1.8,1.9v.8l.9,5.1-1.5.3Z" style="fill: #fff"/>
          <path d="M615.1,98.7l2.1,12-1.6.3-2-12Z" style="fill: #fff"/>
          <path d="M618.9,104a14.4,14.4,0,0,0-.5-2.4l1.4-.2.4,1.4h0a3.1,3.1,0,0,1,2.6-2.1c1.1-.2,3.1.2,3.6,3.1l.9,5.2-1.6.2-.8-4.9c-.3-1.4-1-2.5-2.4-2.2a2.3,2.3,0,0,0-1.9,1.9,2.5,2.5,0,0,0,.1.8l.8,5.2-1.5.2Z" style="fill: #fff"/>
          <path d="M628.8,102.3c-.2-.9-.3-1.6-.5-2.3l1.4-.3.3,1.4h0a3,3,0,0,1,2.4-2,2.6,2.6,0,0,1,2.8,1.3h0a3.2,3.2,0,0,1,.8-1.3,3.2,3.2,0,0,1,1.8-1c1.1-.1,2.9.3,3.4,3.3l.9,5.1-1.5.2-.9-4.9c-.2-1.6-1-2.5-2.3-2.3a2.1,2.1,0,0,0-1.6,1.8v.8l.9,5.3-1.5.2-.9-5.1c-.2-1.4-1-2.3-2.2-2.1a2.2,2.2,0,0,0-1.6,1.9,1.1,1.1,0,0,0,0,.8l.9,5.2-1.6.2Z" style="fill: #fff"/>
          <path d="M651.7,100.3c.5,3.2-1.5,5-3.5,5.3a4.1,4.1,0,0,1-4.9-3.7c-.5-2.9,1.1-4.9,3.5-5.3S651.2,97.7,651.7,100.3Zm-6.8,1.3c.3,1.9,1.6,3.1,3.1,2.8s2.4-1.8,2.1-3.7-1.3-3.2-3.2-2.9S644.6,99.9,644.9,101.6Z" style="fill: #fff"/>
          <path d="M654.3,104.4c-.1-.6-.2-1.5-.3-2.3l-1.8-10.3,1.6-.3.9,5.4h0a3.2,3.2,0,0,1,2.7-2.1c2.1-.4,3.9,1.2,4.3,3.8s-1.1,4.9-3,5.2a3.3,3.3,0,0,1-3.2-1.1h0v1.4Zm1-3.7c.1.1.1.3.2.5a2.4,2.4,0,0,0,2.6,1.4c1.7-.2,2.4-1.7,2.1-3.7s-1.4-3.1-3.1-2.8a2.7,2.7,0,0,0-2.1,2.4,1.5,1.5,0,0,0,.1.6Z" style="fill: #fff"/>
          <path d="M664.3,91.3a1,1,0,0,1-.8,1.2.9.9,0,0,1-1.1-.8,1,1,0,0,1,.8-1.2A.9.9,0,0,1,664.3,91.3Zm.2,11.3L663,94l1.6-.2,1.4,8.6Z" style="fill: #fff"/>
          <path d="M666.5,89.3l1.5-.2,2.2,12.6-1.6.2Z" style="fill: #fff"/>
          <path d="M672.7,89.9a.9.9,0,0,1-.9,1.1.9.9,0,0,1-1.1-.8,1,1,0,0,1,.8-1.1A1,1,0,0,1,672.7,89.9Zm.1,11.3-1.5-8.6,1.6-.2,1.5,8.6Z" style="fill: #fff"/>
          <path d="M681.7,99.7l-.3-1.1h0a3.3,3.3,0,0,1-2.5,1.8,2.5,2.5,0,0,1-3-2c-.4-2.1,1.3-3.6,4.6-4.1v-.2a1.8,1.8,0,0,0-2.3-1.7,4.7,4.7,0,0,0-2.1,1.1l-.6-1a4.8,4.8,0,0,1,2.7-1.2c2.7-.5,3.6,1.2,3.9,2.9l.5,3.2c.2.8.3,1.5.5,2.1Zm-1-4.3c-1.7.2-3.6.8-3.3,2.5a1.6,1.6,0,0,0,1.8,1.3,2.2,2.2,0,0,0,1.8-1.8v-.6Z" style="fill: #fff"/>
          <path d="M684.5,93.1c-.2-1-.3-1.8-.5-2.6l1.3-.3.4,1.7h.1a2.6,2.6,0,0,1,2-2.3h.5l.2,1.5H688a2.3,2.3,0,0,0-1.8,2.4,2,2,0,0,0,.1.7l.8,4.6-1.6.3Z" style="fill: #fff"/>
          <path d="M691.2,86.8c.2.5-.2,1-.8,1.1a1,1,0,0,1-1.1-.8,1,1,0,0,1,.8-1.2A.9.9,0,0,1,691.2,86.8Zm.2,11.3-1.5-8.6,1.6-.3,1.4,8.6Z" style="fill: #fff"/>
          <path d="M700.3,96.5l-.3-1h-.1a3.2,3.2,0,0,1-2.4,1.7,2.5,2.5,0,0,1-3-2c-.4-2.1,1.3-3.5,4.6-4.1v-.2a1.8,1.8,0,0,0-2.3-1.6,4.4,4.4,0,0,0-2.2,1l-.5-1a6.1,6.1,0,0,1,2.7-1.2c2.6-.5,3.6,1.2,3.9,2.9l.5,3.3a11.7,11.7,0,0,0,.5,2Zm-1-4.3c-1.7.2-3.6.9-3.3,2.5a1.4,1.4,0,0,0,1.7,1.3,2.4,2.4,0,0,0,1.9-1.8v-.5Z" style="fill: #fff"/>
        </g>
      </g>
      <g class="hoverable" onclick="showInstrument('gestion', 'intervencion_estructura_predial', 'reajuste_de_terrenos');">
        <path d="M716.4,353.2l-233-57.5A365.6,365.6,0,0,0,494,208.3c0-6-.2-12.2-.5-18.3l239.7-11.8c.5,10,.8,20.1.8,30.1A608.1,608.1,0,0,1,716.4,353.2Z" style="fill: #84266a"/>
        <g>
          <path d="M539.4,247.7a16.8,16.8,0,0,1,3.1.1c1.6.2,2.7.6,3.3,1.4a2.9,2.9,0,0,1,.7,2.4,3.2,3.2,0,0,1-2.6,2.8h0c.9.4,1.3,1.3,1.5,2.6a21.1,21.1,0,0,0,.5,3.4l-1.6-.2a12.9,12.9,0,0,1-.5-2.9c-.1-1.8-.7-2.5-2.1-2.7h-1.5l-.6,5.2-1.6-.2Zm1,5.7,1.5.2c1.7.2,2.9-.6,3-2s-.8-2.4-2.5-2.6h-1.5Z" style="fill: #fff"/>
          <path d="M549,256.8a2.8,2.8,0,0,0,2.6,3.3,4.9,4.9,0,0,0,2.5-.1v1.1a6,6,0,0,1-2.9.2,4,4,0,0,1-3.8-4.8c.4-2.6,2.1-4.5,4.7-4.2s3.2,2.9,3.1,4.5a2.5,2.5,0,0,0-.2.7Zm4.8-.6c.1-1-.1-2.6-1.9-2.8a2.6,2.6,0,0,0-2.7,2.3Z" style="fill: #fff"/>
          <path d="M561.4,262.3v-1.1h0a3.6,3.6,0,0,1-2.8,1,2.5,2.5,0,0,1-2.4-2.8c.3-2.1,2.3-3,5.6-2.6v-.2a1.7,1.7,0,0,0-1.7-2.2,3.5,3.5,0,0,0-2.3.4l-.3-1.1a5.8,5.8,0,0,1,3-.5c2.6.4,3,2.2,2.8,4l-.3,3.2a7.7,7.7,0,0,0-.1,2.1Zm.3-4.4c-1.7-.2-3.7-.2-3.9,1.5a1.4,1.4,0,0,0,1.3,1.7,2.2,2.2,0,0,0,2.3-1.2.9.9,0,0,0,.1-.5Z" style="fill: #fff"/>
          <path d="M562.9,265a2.3,2.3,0,0,0,1.7-.4c.5-.5.8-1.1,1-3.2l.9-7.2H568l-.9,7.9a4.9,4.9,0,0,1-1.4,3.4,4.2,4.2,0,0,1-2.8.7Zm5.6-13.1a1,1,0,0,1-1.1.9.9.9,0,0,1-.8-1.1c0-.6.5-.9,1.1-.9A1,1,0,0,1,568.5,251.9Z" style="fill: #fff"/>
          <path d="M577.1,261.8c-.1.9-.2,1.7-.2,2.3h-1.4v-1.4h0a3.5,3.5,0,0,1-3.1,1.2c-1.4-.1-2.9-1.1-2.5-4.1l.6-5.1,1.5.2-.5,4.8c-.2,1.7.1,2.8,1.6,3a2.2,2.2,0,0,0,2.2-1.2l.3-.8.6-5.3,1.6.2Z" style="fill: #fff"/>
          <path d="M579.4,262.8a4.1,4.1,0,0,0,2,.9c1.2.1,1.8-.4,1.9-1.1s-.4-1.2-1.5-1.8-2.1-1.7-2-2.7a2.8,2.8,0,0,1,3.3-2.2,4,4,0,0,1,2.1.8l-.5,1.1a3.8,3.8,0,0,0-1.8-.7c-.9-.1-1.5.3-1.5,1s.4,1.1,1.4,1.6,2.1,1.6,2,2.9-1.5,2.5-3.5,2.2a5.2,5.2,0,0,1-2.4-.8Z" style="fill: #fff"/>
          <path d="M589.7,254.4l-.3,2.4,2.3.3v1.2l-2.3-.3-.5,4.7q-.3,1.7.9,1.8a1.7,1.7,0,0,0,1,0v1.2h-1.4a2,2,0,0,1-1.6-.9,3.2,3.2,0,0,1-.4-2.3l.6-4.7-1.4-.2.2-1.2,1.3.2.2-2.1Z" style="fill: #fff"/>
          <path d="M593.7,262a2.8,2.8,0,0,0,2.6,3.4,6.3,6.3,0,0,0,2.5-.2v1.2a11.5,11.5,0,0,1-3,.2,4.1,4.1,0,0,1-3.7-4.9c.3-2.6,2.1-4.5,4.6-4.2s3.3,2.9,3.1,4.5a5.6,5.6,0,0,1-.1.7Zm4.7-.6a2.2,2.2,0,0,0-1.8-2.8c-1.6-.2-2.5,1.2-2.8,2.3Z" style="fill: #fff"/>
          <path d="M614,255.6l-1.2,10.5a19.9,19.9,0,0,0-.2,2.2h-1.4v-1.5h0a3.2,3.2,0,0,1-3.2,1.3c-2.1-.2-3.5-2.2-3.1-4.8s2.3-4.5,4.4-4.2a2.8,2.8,0,0,1,2.4,1.6h.1l.6-5.2Zm-2.4,7.4v-.7a2.4,2.4,0,0,0-2.1-2.1c-1.6-.1-2.7,1.2-2.9,3.1s.4,3.3,2.1,3.5a2.6,2.6,0,0,0,2.6-1.6c0-.2.1-.4.1-.7Z" style="fill: #fff"/>
          <path d="M616.5,264.7a2.8,2.8,0,0,0,2.6,3.3,4.9,4.9,0,0,0,2.5-.1V269a6,6,0,0,1-2.9.2,4,4,0,0,1-3.8-4.8c.3-2.6,2.1-4.5,4.6-4.2s3.3,2.9,3.1,4.5-.1.5-.1.7Zm4.8-.6c.1-1-.1-2.6-1.9-2.8a2.6,2.6,0,0,0-2.7,2.3Z" style="fill: #fff"/>
          <path d="M630.8,259.6l-3.7-.4.2-1.4,8.9,1.1-.2,1.3-3.6-.4-1.3,10.7-1.6-.2Z" style="fill: #fff"/>
          <path d="M636.1,267a2.8,2.8,0,0,0,2.7,3.3,4.6,4.6,0,0,0,2.4-.1v1.1a5.9,5.9,0,0,1-2.9.2c-2.7-.3-4-2.2-3.7-4.8s2-4.5,4.6-4.2,3.3,2.9,3.1,4.5a6.4,6.4,0,0,1-.2.7Zm4.8-.6c.1-1-.1-2.6-1.9-2.8s-2.4,1.2-2.7,2.3Z" style="fill: #fff"/>
          <path d="M644.5,266c.1-1,.2-1.9.2-2.7l1.4.2-.2,1.7h.1a2.7,2.7,0,0,1,2.6-1.6h.5l-.2,1.5h-.5a2.2,2.2,0,0,0-2.4,1.7,1.7,1.7,0,0,0-.1.7l-.6,4.7-1.5-.2Z" style="fill: #fff"/>
          <path d="M650.4,266.7c.1-1,.2-1.9.2-2.7l1.4.2-.2,1.7h.1a2.5,2.5,0,0,1,2.6-1.6h.5l-.2,1.5-.5-.2a2.4,2.4,0,0,0-2.4,1.8c0,.2-.1.5-.1.7l-.6,4.7-1.5-.2Z" style="fill: #fff"/>
          <path d="M656.7,269.4a2.8,2.8,0,0,0,2.6,3.4,6.3,6.3,0,0,0,2.5-.2v1.1a6.5,6.5,0,0,1-3,.2,4,4,0,0,1-3.7-4.8c.3-2.6,2.1-4.5,4.6-4.2s3.3,2.9,3.1,4.5a5.6,5.6,0,0,1-.1.7Zm4.7-.6a2.2,2.2,0,0,0-1.8-2.8c-1.6-.2-2.5,1.2-2.8,2.3Z" style="fill: #fff"/>
          <path d="M665,268.1a23.2,23.2,0,0,0,.2-2.4l1.4.2v1.4h0a3.4,3.4,0,0,1,3-1.3c1.2.2,3,1.1,2.7,4.1l-.6,5.2-1.6-.2.6-5c.1-1.4-.2-2.6-1.7-2.8a2.2,2.2,0,0,0-2.3,1.3,1.9,1.9,0,0,0-.2.8l-.6,5.2-1.6-.2Z" style="fill: #fff"/>
          <path d="M682.6,272.1a4.3,4.3,0,0,1-4.9,4.1c-2.3-.3-3.9-2.2-3.6-5s2.4-4.4,4.8-4.1S682.9,269.4,682.6,272.1Zm-6.9-.7c-.2,1.8.7,3.4,2.2,3.6s2.8-1.1,3-3.1-.3-3.4-2.2-3.6S675.9,269.7,675.7,271.4Z" style="fill: #fff"/>
          <path d="M684,275.1a4.6,4.6,0,0,0,2,.8c1.2.2,1.8-.3,1.8-1.1s-.3-1.2-1.4-1.7-2.1-1.7-2-2.8a2.7,2.7,0,0,1,3.3-2.1,5.2,5.2,0,0,1,2.1.7l-.6,1.1a3.9,3.9,0,0,0-1.7-.7,1.3,1.3,0,0,0-1.6,1c0,.8.4,1.1,1.5,1.7s2.1,1.6,2,2.9-1.5,2.4-3.6,2.2a4.8,4.8,0,0,1-2.3-.9Z" style="fill: #fff"/>
        </g>
      </g>
    </g>
  </g>
</svg>
