<svg class="animate__animated" xmlns="http://www.w3.org/2000/svg" viewBox="0 0 733.5 499.4">
  <g id="Capa_2" data-name="Capa 2">
    <g id="Capa_1-2" data-name="Capa 1">
      <g class="hoverable" onclick="showInstrument('gestion', 'reparto_de_recargas_y_beneficios', 'unidades_de_actuacion_urbanistica');">
        <path d="M486.6,205a365.4,365.4,0,0,0-33.3-95.4L666.8,0A602.7,602.7,0,0,1,722,158.3Z" style="fill: #84266a"/>
        <g>
          <path d="M505.5,133.7l2.3,6.4c.8,2.4,2.3,3.1,3.7,2.5s2.3-2,1.4-4.3l-2.3-6.4,1.4-.5,2.3,6.3c1.2,3.3-.1,5.3-2.4,6.1s-4.4.1-5.5-3.2l-2.3-6.4Z" style="fill: #fff"/>
          <path d="M516.3,135.7a22,22,0,0,0-.9-2.1l1.3-.5.5,1.3h.1a3,3,0,0,1,2-2.4c1.1-.4,3-.3,3.9,2.3l1.7,4.7-1.4.5-1.6-4.5c-.5-1.2-1.3-2.1-2.6-1.7a2.1,2.1,0,0,0-1.4,2.2,2,2,0,0,0,.1.7l1.7,4.6-1.4.5Z" style="fill: #fff"/>
          <path d="M525.2,127.7c.2.4,0,.9-.6,1.1a.9.9,0,0,1-1.2-.5,1,1,0,0,1,.6-1.2A.9.9,0,0,1,525.2,127.7Zm2,10.4-2.8-7.7,1.4-.5,2.8,7.7Z" style="fill: #fff"/>
          <path d="M533.5,123.1l3.4,9.3a9.3,9.3,0,0,0,.8,2l-1.3.5-.6-1.4h0a2.8,2.8,0,0,1-2.1,2.5c-1.9.7-3.9-.4-4.7-2.7s.1-4.8,2-5.5a2.9,2.9,0,0,1,2.8.4h0l-1.7-4.6Zm1,7.2a1.1,1.1,0,0,0-.2-.5,2.1,2.1,0,0,0-2.6-.9c-1.5.5-1.9,2.1-1.3,3.8s1.8,2.6,3.3,2a2.2,2.2,0,0,0,1.5-2.4,1.4,1.4,0,0,0-.2-.6Z" style="fill: #fff"/>
          <path d="M544.2,132.1l-.4-1h-.1a2.7,2.7,0,0,1-1.9,2,2.3,2.3,0,0,1-3.2-1.3c-.7-1.9.6-3.5,3.6-4.6h0c-.3-.7-.8-1.8-2.4-1.2a3.5,3.5,0,0,0-1.8,1.3l-.7-.8a4.4,4.4,0,0,1,2.3-1.6c2.4-.9,3.5.5,4.1,2.1l1,2.9a15.9,15.9,0,0,0,.8,1.8Zm-1.6-3.9c-1.5.5-3.2,1.4-2.7,2.9a1.5,1.5,0,0,0,1.9.9,2.2,2.2,0,0,0,1.4-2c0-.2-.1-.3-.1-.5Z" style="fill: #fff"/>
          <path d="M550.3,117.1l3.3,9.4c.3.6.6,1.4.8,1.9l-1.3.5-.5-1.3h0a3.2,3.2,0,0,1-2.1,2.4c-1.9.7-3.9-.4-4.7-2.7s.1-4.7,1.9-5.4a2.9,2.9,0,0,1,2.8.3h0l-1.6-4.6Zm1,7.3-.3-.6a2.1,2.1,0,0,0-2.6-.9c-1.5.5-1.9,2.1-1.2,3.8s1.7,2.6,3.3,2.1a2.4,2.4,0,0,0,1.4-2.5,1.3,1.3,0,0,0-.1-.6Z" style="fill: #fff"/>
          <path d="M556.2,123.7a2.6,2.6,0,0,0,3.6,1.8,7,7,0,0,0,2-1.2l.6.9a6.2,6.2,0,0,1-2.4,1.4,3.8,3.8,0,0,1-5.2-2.5c-.8-2.4-.1-4.7,2.1-5.5s4,1.1,4.5,2.5a2.5,2.5,0,0,1,.2.7Zm3.7-2.5a2,2,0,0,0-2.7-1.5,2.5,2.5,0,0,0-1.4,3Z" style="fill: #fff"/>
          <path d="M564,123.4a5.1,5.1,0,0,0,2.1-.1c1-.4,1.3-1.1,1.1-1.7s-.8-.9-2-.9-2.5-.5-2.8-1.5.2-2.6,1.8-3.2a4,4,0,0,1,2.1-.2V117a2.6,2.6,0,0,0-1.7.1c-.9.3-1.1.9-.9,1.5s.8.8,1.9.8,2.5.4,2.9,1.6-.3,2.7-2.1,3.3a5.3,5.3,0,0,1-2.4.3Z" style="fill: #fff"/>
          <path d="M577.1,107.5l3.3,9.4.8,2-1.3.4-.5-1.3h0a3.3,3.3,0,0,1-2.1,2.5c-1.9.7-3.9-.4-4.8-2.8s.1-4.7,2-5.4a2.9,2.9,0,0,1,2.8.4h0l-1.6-4.7Zm1,7.3-.3-.5a2.2,2.2,0,0,0-2.6-1c-1.5.6-1.9,2.2-1.3,3.9s1.8,2.6,3.4,2a2.3,2.3,0,0,0,1.4-2.4c0-.2-.1-.4-.1-.6Z" style="fill: #fff"/>
          <path d="M583,114.2a2.6,2.6,0,0,0,3.6,1.7,5.3,5.3,0,0,0,2-1.1l.6.9a7.9,7.9,0,0,1-2.4,1.4,3.8,3.8,0,0,1-5.2-2.6c-.9-2.3-.1-4.6,2.1-5.4s4,1,4.5,2.5a3.9,3.9,0,0,1,.2.6Zm3.7-2.5c-.3-.9-1.1-2.2-2.7-1.6s-1.6,2.1-1.4,3.1Z" style="fill: #fff"/>
          <path d="M595.5,110v3.8l-1.5.5-.2-12.1,1.7-.6,7.6,9.5-1.5.5-2.4-3Zm3.1-2.4-2.1-2.7-1.3-1.8h0c0,.7.1,1.5.1,2.2v3.5Z" style="fill: #fff"/>
          <path d="M609.9,108.3a4.9,4.9,0,0,1-2,1.3,3.9,3.9,0,0,1-5.3-2.6,4.2,4.2,0,0,1,2.7-5.6,4.2,4.2,0,0,1,2.1-.3v1.2a2.8,2.8,0,0,0-1.7.2,3.1,3.1,0,0,0,2,5.9,4.4,4.4,0,0,0,1.6-1Z" style="fill: #fff"/>
          <path d="M610,97.4l.8,2.2,2-.7.4,1.1-2,.7,1.5,4.2c.3.9.8,1.4,1.6,1.1l.8-.4.4,1a3.1,3.1,0,0,1-1.2.7,2,2,0,0,1-1.7-.1c-.6-.3-.9-.9-1.3-1.8l-1.5-4.2-1.2.4-.4-1.1,1.2-.4-.6-1.9Z" style="fill: #fff"/>
          <path d="M622.9,101.6l.8,2.1-1.2.5-.5-1.3h-.1a3.1,3.1,0,0,1-2,2.3c-1.2.4-2.9.3-3.9-2.4l-1.6-4.6,1.4-.5,1.5,4.3c.5,1.5,1.3,2.3,2.6,1.9a2.1,2.1,0,0,0,1.4-2,1.7,1.7,0,0,0-.1-.7l-1.7-4.8,1.4-.5Z" style="fill: #fff"/>
          <path d="M630.3,101.4l-.5-.9h0a3.3,3.3,0,0,1-2,2,2.4,2.4,0,0,1-3.1-1.4c-.7-1.9.6-3.5,3.6-4.5v-.2a1.7,1.7,0,0,0-2.4-1.2,4.9,4.9,0,0,0-1.8,1.3l-.6-.8a5.9,5.9,0,0,1,2.3-1.6c2.3-.8,3.5.6,4.1,2.1l1,2.9a7.5,7.5,0,0,0,.8,1.8Zm-1.6-3.9c-1.6.5-3.2,1.4-2.7,2.9a1.3,1.3,0,0,0,1.8.9,2.1,2.1,0,0,0,1.4-2v-.4Z" style="fill: #fff"/>
          <path d="M639.1,97.9a6.2,6.2,0,0,1-2,1.3,3.9,3.9,0,0,1-5.3-2.6,4.2,4.2,0,0,1,2.7-5.6,4.4,4.4,0,0,1,2.1-.3v1.2a3.1,3.1,0,0,0-1.8.2,2.8,2.8,0,0,0-1.7,3.9,2.9,2.9,0,0,0,3.7,2,4.4,4.4,0,0,0,1.6-1Z" style="fill: #fff"/>
          <path d="M638.9,87.1a.9.9,0,0,1-.6,1.2.9.9,0,0,1-1.1-.5.8.8,0,0,1,.6-1.2A.8.8,0,0,1,638.9,87.1Zm2,10.5-2.8-7.7,1.4-.5,2.8,7.7Z" style="fill: #fff"/>
          <path d="M650.3,89.8a4.1,4.1,0,0,1-2.4,5.5,3.9,3.9,0,0,1-5.2-2.6,4.1,4.1,0,0,1,2.4-5.5A4,4,0,0,1,650.3,89.8Zm-6.2,2.3c.6,1.7,2.1,2.6,3.4,2.2s2-2.1,1.3-3.9-1.7-2.7-3.4-2.1S643.6,90.6,644.1,92.1Zm1.9-8.8-1.1,3-1,.3.6-2.8Z" style="fill: #fff"/>
          <path d="M651.4,87.5l-.8-2.1,1.3-.4.5,1.2h0a3,3,0,0,1,2.1-2.3c1-.4,2.9-.4,3.9,2.3l1.6,4.6-1.4.5L657,86.8c-.4-1.2-1.2-2.1-2.6-1.6a2.2,2.2,0,0,0-1.4,2.1,1.9,1.9,0,0,0,.2.7l1.6,4.7-1.4.5Z" style="fill: #fff"/>
          <path d="M553.6,138.2l2.2,6.4c.9,2.4,2.3,3.1,3.8,2.6s2.2-2,1.4-4.4l-2.3-6.4,1.4-.5,2.2,6.3c1.2,3.3,0,5.3-2.4,6.1s-4.3.1-5.5-3.2l-2.3-6.4Z" style="fill: #fff"/>
          <path d="M564.4,140.5q-.4-1.4-.9-2.4l1.2-.4.6,1.5h.1a2.5,2.5,0,0,1,1.5-2.5h.4l.5,1.3-.5.2a1.9,1.9,0,0,0-1.2,2.4c0,.2.1.5.1.7l1.5,4.2-1.4.5Z" style="fill: #fff"/>
          <path d="M571.6,144l-.7-2-3.3-9.4,1.4-.5,1.7,4.9h0a3,3,0,0,1,2.2-2.4c1.9-.7,3.8.4,4.6,2.8s-.2,4.7-2,5.4a2.8,2.8,0,0,1-3.1-.6h0l.4,1.4Zm.3-3.6a.8.8,0,0,1,.2.5,2.5,2.5,0,0,0,2.8.8c1.4-.5,1.9-2,1.2-3.8s-1.8-2.6-3.3-2a2.3,2.3,0,0,0-1.5,2.5,1.8,1.8,0,0,0,.1.6Z" style="fill: #fff"/>
          <path d="M585,139.2l-.4-.9h-.1a3.1,3.1,0,0,1-1.9,2,2.4,2.4,0,0,1-3.2-1.4c-.7-1.9.6-3.5,3.6-4.6h0a1.8,1.8,0,0,0-2.4-1.2,4.2,4.2,0,0,0-1.8,1.3l-.7-.8a5,5,0,0,1,2.3-1.6c2.4-.8,3.5.6,4.1,2.1l1,2.9a15.9,15.9,0,0,0,.8,1.8Zm-1.6-3.9c-1.5.5-3.2,1.4-2.7,2.9s1.1,1.2,1.8.9a2.1,2.1,0,0,0,1.5-2c0-.1-.1-.3-.1-.4Z" style="fill: #fff"/>
          <path d="M586.4,132.3l-.8-2.1,1.3-.4.5,1.2h0a3.2,3.2,0,0,1,2.1-2.3c1.1-.4,2.9-.4,3.9,2.3l1.6,4.6-1.4.5-1.6-4.5c-.4-1.2-1.2-2.1-2.6-1.6a2,2,0,0,0-1.3,2.1,1.7,1.7,0,0,0,.1.7l1.7,4.7-1.5.5Z" style="fill: #fff"/>
          <path d="M595.4,124.3a.9.9,0,1,1-1.2-.6A1,1,0,0,1,595.4,124.3Zm1.9,10.5-2.7-7.8,1.4-.5,2.7,7.8Z" style="fill: #fff"/>
          <path d="M600.4,132.1a4.6,4.6,0,0,0,2-.1c1.1-.4,1.4-1.1,1.1-1.7s-.7-.9-1.9-.9-2.5-.5-2.9-1.5a2.6,2.6,0,0,1,1.9-3.2,4,4,0,0,1,2.1-.2v1.2a2.6,2.6,0,0,0-1.7.1c-.9.3-1.2.9-1,1.5s.8.8,2,.8,2.4.4,2.8,1.6-.2,2.7-2,3.3a5.3,5.3,0,0,1-2.4.3Z" style="fill: #fff"/>
          <path d="M605.6,120.6l.8,2.3,2-.8.4,1.1-2.1.7,1.5,4.2c.4,1,.8,1.4,1.6,1.1a1.5,1.5,0,0,0,.8-.4l.4,1.1-1.1.6a2.8,2.8,0,0,1-1.8,0,3.1,3.1,0,0,1-1.2-1.9l-1.5-4.2-1.2.4-.4-1,1.2-.5-.7-1.8Z" style="fill: #fff"/>
          <path d="M610.8,118.8a1,1,0,0,1-.6,1.2,1,1,0,0,1-1.2-.5.9.9,0,0,1,.6-1.2A.9.9,0,0,1,610.8,118.8Zm1.9,10.5-2.7-7.7,1.4-.5,2.7,7.7Z" style="fill: #fff"/>
          <path d="M621.9,125.7a5.8,5.8,0,0,1-2.1,1.3,3.9,3.9,0,0,1-5.2-2.6,4.1,4.1,0,0,1,2.7-5.6,4.2,4.2,0,0,1,2.1-.3v1.2a2.7,2.7,0,0,0-1.7.2,3.1,3.1,0,0,0,2,5.9,5.5,5.5,0,0,0,1.6-1Z" style="fill: #fff"/>
          <path d="M627.9,123.9l-.4-.9h-.1a3.1,3.1,0,0,1-1.9,2,2.4,2.4,0,0,1-3.2-1.4c-.7-1.9.6-3.5,3.6-4.5v-.2a1.7,1.7,0,0,0-2.4-1.2,4.9,4.9,0,0,0-1.8,1.3l-.7-.8a5.9,5.9,0,0,1,2.3-1.6c2.4-.8,3.5.6,4.1,2.1l1,2.9a15.9,15.9,0,0,0,.8,1.8Zm-1.6-3.9c-1.5.5-3.2,1.4-2.6,2.9a1.3,1.3,0,0,0,1.8.9,2.1,2.1,0,0,0,1.4-2v-.4Z" style="fill: #fff"/>
        </g>
      </g>
      <g class="hoverable" onclick="showInstrument('gestion', 'reparto_de_recargas_y_beneficios', 'unidades_de_gestion');">
        <path d="M731,331.6,492,309.8v-.6c1-11.1,1.5-22.2,1.5-33.2a368.5,368.5,0,0,0-6.3-68L723,163.3A607.6,607.6,0,0,1,733.5,276c0,18.1-.8,36.4-2.4,54.6Z" style="fill: #84266a"/>
        <g>
          <path d="M545.1,250.2l.2,6.8c.2,2.5,1.3,3.6,2.9,3.5s2.7-1.2,2.6-3.8l-.3-6.7H552l.3,6.7c.1,3.5-1.7,5-4.1,5.1s-4.2-1.2-4.3-4.7l-.3-6.7Z" style="fill: #fff"/>
          <path d="M554.8,255.2c-.1-.8-.1-1.5-.2-2.2h1.3l.2,1.3h0a2.9,2.9,0,0,1,2.6-1.6c1.2-.1,3,.5,3.1,3.3l.2,4.9h-1.5l-.2-4.7c0-1.4-.6-2.4-2-2.4a2.2,2.2,0,0,0-1.9,1.6,1.7,1.7,0,0,0-.1.7l.2,5H555Z" style="fill: #fff"/>
          <path d="M565.6,250.2a.9.9,0,0,1-.9,1,.9.9,0,0,1-.9-.9,1,1,0,0,1,.9-1A.8.8,0,0,1,565.6,250.2Zm-1.2,10.6-.3-8.2h1.5l.3,8.2Z" style="fill: #fff"/>
          <path d="M575,248.3l.4,9.9a13.8,13.8,0,0,0,.2,2.2h-1.4V259h0a3.1,3.1,0,0,1-2.8,1.7c-2,.1-3.6-1.5-3.7-4s1.5-4.5,3.5-4.6a2.8,2.8,0,0,1,2.6,1.2h0l-.2-4.9Zm-1.2,7.3a1.7,1.7,0,0,0-.1-.7,2.2,2.2,0,0,0-2.2-1.6c-1.6.1-2.4,1.5-2.4,3.3s1,3,2.6,2.9a2.1,2.1,0,0,0,2.1-1.9,1.3,1.3,0,0,0,.1-.6Z" style="fill: #fff"/>
          <path d="M582.5,260.1V259h-.1a3.1,3.1,0,0,1-2.4,1.4,2.5,2.5,0,0,1-2.7-2.3c0-2,1.7-3.1,4.9-3.2v-.2c-.1-.7-.3-1.9-2-1.8a3.8,3.8,0,0,0-2.1.7l-.4-1a5.4,5.4,0,0,1,2.7-.9c2.5-.1,3.2,1.6,3.2,3.3l.2,3a10.3,10.3,0,0,0,.2,2Zm-.4-4.2c-1.6,0-3.4.4-3.4,2a1.4,1.4,0,0,0,1.5,1.4,2.1,2.1,0,0,0,1.9-1.5.9.9,0,0,0,.1-.5Z" style="fill: #fff"/>
          <path d="M592.8,247.6l.4,9.9c0,.7.1,1.6.1,2.1H592v-1.5h-.1a3,3,0,0,1-2.7,1.8c-2,.1-3.6-1.6-3.7-4s1.5-4.5,3.5-4.6a2.6,2.6,0,0,1,2.5,1.1h.1l-.2-4.9Zm-1.2,7.2c0-.2-.1-.4-.1-.6a2.3,2.3,0,0,0-2.3-1.7c-1.5.1-2.4,1.5-2.3,3.3s1,3,2.6,3a2.3,2.3,0,0,0,2.1-1.9v-2.1Z" style="fill: #fff"/>
          <path d="M596.4,255.6a2.7,2.7,0,0,0,3,2.8,8,8,0,0,0,2.2-.5l.3,1a5.4,5.4,0,0,1-2.7.6,3.8,3.8,0,0,1-4.2-3.9c-.1-2.5,1.3-4.5,3.7-4.6a3.4,3.4,0,0,1,3.5,3.7v.7Zm4.4-1.2c-.1-1-.5-2.4-2.2-2.4a2.6,2.6,0,0,0-2.2,2.6Z" style="fill: #fff"/>
          <path d="M604,257.6a3,3,0,0,0,2,.5c1.1,0,1.6-.6,1.5-1.2s-.4-1.1-1.6-1.5-2.2-1.2-2.2-2.2.9-2.5,2.7-2.6a3.7,3.7,0,0,1,2,.5l-.3,1.1a2.5,2.5,0,0,0-1.7-.4c-.9,0-1.3.5-1.3,1.1s.5,1,1.6,1.4,2.2,1.1,2.3,2.4-1,2.5-3,2.5a4.1,4.1,0,0,1-2.3-.4Z" style="fill: #fff"/>
          <path d="M621.2,246.4l.4,9.9a12.5,12.5,0,0,0,.2,2.1h-1.4V257h-.1a2.9,2.9,0,0,1-2.7,1.8c-2,.1-3.6-1.6-3.7-4.1s1.5-4.4,3.5-4.5a2.8,2.8,0,0,1,2.6,1.1h0l-.2-4.9Zm-1.2,7.2c0-.2-.1-.4-.1-.6a2.3,2.3,0,0,0-2.2-1.7c-1.6.1-2.4,1.5-2.4,3.3s1,3,2.6,3a2.3,2.3,0,0,0,2.1-1.9,1.6,1.6,0,0,0,0-.7Z" style="fill: #fff"/>
          <path d="M624.8,254.4a2.8,2.8,0,0,0,3,2.8,5.3,5.3,0,0,0,2.2-.6l.3,1.1a5.4,5.4,0,0,1-2.7.6,3.8,3.8,0,0,1-4.2-3.9c-.1-2.5,1.3-4.5,3.7-4.6s3.5,2.2,3.5,3.7v.7Zm4.4-1.2c-.1-1-.5-2.4-2.2-2.4a2.6,2.6,0,0,0-2.2,2.6Z" style="fill: #fff"/>
          <path d="M645,256.9a10,10,0,0,1-3.5.8,5.7,5.7,0,0,1-4.3-1.3,6.1,6.1,0,0,1-1.8-4.2c-.1-3.4,2.1-6,6-6.2a6.3,6.3,0,0,1,2.8.4l-.3,1.2a7.6,7.6,0,0,0-2.5-.4c-2.8.2-4.6,2-4.4,4.8s1.9,4.6,4.6,4.5a5.4,5.4,0,0,0,1.9-.4v-3.4h-2.3v-1.2l3.8-.2Z" style="fill: #fff"/>
          <path d="M648,253.5a2.6,2.6,0,0,0,2.9,2.7,8.9,8.9,0,0,0,2.3-.5l.3,1a6.4,6.4,0,0,1-2.7.7,3.8,3.8,0,0,1-4.2-4c-.1-2.5,1.2-4.5,3.6-4.6s3.5,2.2,3.6,3.7v.7Zm4.3-1.3c0-1-.5-2.4-2.1-2.3a2.3,2.3,0,0,0-2.2,2.5Z" style="fill: #fff"/>
          <path d="M655.6,255.5a4.8,4.8,0,0,0,2,.5c1.1-.1,1.5-.6,1.5-1.3s-.5-1.1-1.6-1.5-2.2-1.2-2.3-2.2a2.6,2.6,0,0,1,2.8-2.5,3,3,0,0,1,2,.4l-.3,1.1a2.5,2.5,0,0,0-1.7-.4c-.9,0-1.4.5-1.3,1.2s.5.9,1.6,1.3,2.2,1.2,2.2,2.4-1,2.5-2.9,2.6a5.7,5.7,0,0,1-2.4-.5Z" style="fill: #fff"/>
          <path d="M663.9,246v2.4h2.2v1.1h-2.1l.2,4.5c0,1,.3,1.5,1.1,1.5h.9v1.1l-1.3.2a1.7,1.7,0,0,1-1.6-.5,2.7,2.7,0,0,1-.7-2.1l-.2-4.5h-1.3v-1.1h1.3v-2Z" style="fill: #fff"/>
          <path d="M669.4,245.8c0,.6-.3,1-.9,1a.9.9,0,0,1-.9-.9c-.1-.5.3-.9.9-.9A.8.8,0,0,1,669.4,245.8Zm-1.2,10.6-.4-8.2h1.5l.4,8.2Z" style="fill: #fff"/>
          <path d="M679.4,251.8a4,4,0,0,1-3.9,4.5,3.8,3.8,0,0,1-4.1-4c-.1-2.8,1.6-4.5,3.9-4.6A3.9,3.9,0,0,1,679.4,251.8Zm-6.5.3c.1,1.8,1.2,3.2,2.6,3.1s2.5-1.4,2.4-3.3-.8-3.1-2.6-3.1S672.8,250.6,672.9,252.1Zm4.4-7.8-1.9,2.5h-1.1l1.4-2.5Z" style="fill: #fff"/>
          <path d="M681.2,249.9a14.1,14.1,0,0,0-.1-2.2h1.3V249h.1a3,3,0,0,1,2.6-1.7c1.2,0,3,.6,3.1,3.4l.2,4.9H687l-.2-4.8c-.1-1.3-.6-2.4-2-2.3a2.1,2.1,0,0,0-2,1.6v.7l.2,4.9h-1.5Z" style="fill: #fff"/>
        </g>
      </g>
      <g class="hoverable" onclick="showInstrument('gestion', 'reparto_de_recargas_y_beneficios', 'asignacion_del_reparto_de_cargas_y_beneficios');">
        <path d="M691.2,499.4,468,411.3a371.4,371.4,0,0,0,23.7-98.4l238.8,23.7A608.2,608.2,0,0,1,691.2,499.4Z" style="fill: #84266a"/>
        <g>
          <path d="M525.5,364.4l-2,3.2-1.5-.4,6.7-10.1,1.7.5.9,12.1-1.5-.4-.3-3.8Zm4-.1-.3-3.5v-2.2h-.1l-1,1.9-2,2.9Z" style="fill: #fff"/>
          <path d="M533,368.5a3.6,3.6,0,0,0,1.7,1.1c1.1.3,1.7-.1,1.9-.8s-.2-1.2-1.1-1.8-1.8-1.9-1.5-2.9,1.6-2,3.3-1.6a4.3,4.3,0,0,1,1.8,1l-.6,1a3.5,3.5,0,0,0-1.5-.9c-.9-.2-1.5.2-1.6.7s.2,1.1,1.1,1.8,1.8,1.8,1.5,2.9-1.7,2.1-3.6,1.6a4.2,4.2,0,0,1-2.1-1.1Z" style="fill: #fff"/>
          <path d="M539.3,371.7l2.1-7.9,1.4.4-2.1,7.9Zm4.3-9.7a.9.9,0,0,1-1.2.6.8.8,0,0,1-.6-1.1.9.9,0,0,1,1.1-.7A1.1,1.1,0,0,1,543.6,362Z" style="fill: #fff"/>
          <path d="M552.1,366.6c-.2.5-.4,1.2-.7,2.1l-1.2,4.7c-.5,1.8-1.1,2.8-2.1,3.3a4.1,4.1,0,0,1-3.1.2,4.6,4.6,0,0,1-2.5-1.3l.7-1.1a4.2,4.2,0,0,0,2.1,1.3c1.5.4,2.8-.1,3.3-2.1l.3-.9h-.1a2.8,2.8,0,0,1-2.9.6c-1.9-.5-2.9-2.5-2.3-4.7s2.8-3.8,4.7-3.3a3,3,0,0,1,2.1,2h0l.4-1.2Zm-2.4,2.7a.8.8,0,0,0,.1-.7,2,2,0,0,0-1.6-2c-1.4-.4-2.7.5-3.1,2.4s0,3.1,1.6,3.5a2.4,2.4,0,0,0,2.4-1l.3-.7Z" style="fill: #fff"/>
          <path d="M553.7,369.3a9.8,9.8,0,0,0,.5-2.2l1.3.4-.2,1.3h0a3.2,3.2,0,0,1,3-.8c1.1.3,2.7,1.4,1.9,4.1l-1.2,4.8-1.4-.4,1.1-4.6c.4-1.3.2-2.4-1.2-2.8a2,2,0,0,0-2.3,1,3.3,3.3,0,0,0-.3.6l-1.2,4.8-1.5-.4Z" style="fill: #fff"/>
          <path d="M565.8,378.7v-1.1h0a3.3,3.3,0,0,1-2.8.6,2.4,2.4,0,0,1-1.8-3c.5-1.9,2.5-2.5,5.5-1.7h.1c.1-.7.3-1.9-1.4-2.3a4.1,4.1,0,0,0-2.2,0v-1a5.2,5.2,0,0,1,2.8-.1c2.5.7,2.6,2.5,2.2,4.1l-.8,3a14.8,14.8,0,0,0-.3,1.9Zm.8-4.2c-1.6-.4-3.4-.6-3.8,1a1.2,1.2,0,0,0,1,1.7,1.9,1.9,0,0,0,2.2-.8c.1-.2.2-.3.2-.5Z" style="fill: #fff"/>
          <path d="M575,380.8a5.5,5.5,0,0,1-2.4-.2c-2.4-.6-3.5-2.6-2.9-5.1a4.2,4.2,0,0,1,5.4-3.1,4.1,4.1,0,0,1,1.9,1l-.6,1a3.4,3.4,0,0,0-1.6-.8,2.8,2.8,0,0,0-3.6,2.2,2.8,2.8,0,0,0,2,3.7,3.2,3.2,0,0,0,1.9.1Z" style="fill: #fff"/>
          <path d="M576.6,381.5l2.1-8,1.5.4-2.1,8Zm4.3-9.8a.9.9,0,0,1-1.1.7,1,1,0,0,1-.7-1.1,1,1,0,0,1,1.2-.7A.8.8,0,0,1,580.9,371.7Z" style="fill: #fff"/>
          <path d="M588.8,380.3a4,4,0,0,1-5.1,3.2c-2.2-.5-3.4-2.5-2.8-5.1a4,4,0,0,1,5.1-3.1C588.3,375.8,589.4,377.9,588.8,380.3Zm-6.4-1.5c-.4,1.7.2,3.3,1.6,3.7s2.8-.7,3.3-2.5.1-3.2-1.6-3.7S582.8,377.3,582.4,378.8Zm6.5-6.3-2.6,1.9-1-.3,2.1-2Z" style="fill: #fff"/>
          <path d="M591,379.1a11.2,11.2,0,0,0,.5-2.2l1.3.3-.2,1.4h0a2.8,2.8,0,0,1,3-.8c1.1.3,2.7,1.4,1.9,4.1l-1.2,4.7-1.4-.3,1.2-4.6c.3-1.3.1-2.5-1.3-2.9a2.3,2.3,0,0,0-2.3,1l-.3.7-1.2,4.7-1.5-.3Z" style="fill: #fff"/>
          <path d="M612.1,378.3l-2.5,9.6a20.9,20.9,0,0,0-.5,2.1l-1.3-.4.3-1.4H608a3,3,0,0,1-3.1.9c-1.9-.5-3-2.5-2.3-4.9s2.7-3.9,4.7-3.4a2.6,2.6,0,0,1,2,1.9h.1l1.2-4.8Zm-3.3,6.6c0-.2.1-.5.1-.7a2.3,2.3,0,0,0-1.7-2.2c-1.5-.4-2.7.7-3.1,2.5s0,3.1,1.5,3.5a2.2,2.2,0,0,0,2.6-1.1,1.4,1.4,0,0,0,.2-.7Z" style="fill: #fff"/>
          <path d="M613.2,387.1a2.7,2.7,0,0,0,2,3.5,6.2,6.2,0,0,0,2.3.1v1.1a5.7,5.7,0,0,1-2.8-.2,3.8,3.8,0,0,1-2.9-5c.7-2.4,2.6-3.9,4.9-3.3s2.7,3.1,2.3,4.6a3.9,3.9,0,0,0-.2.6Zm4.5.1a2.1,2.1,0,0,0-1.4-2.9c-1.4-.4-2.4.8-2.8,1.8Z" style="fill: #fff"/>
          <path d="M622.7,381.1l1.5.3-3.1,11.7-1.4-.4Z" style="fill: #fff"/>
          <path d="M629.9,383.7l2.8.5a4.6,4.6,0,0,1,3,1.8,2.6,2.6,0,0,1,.3,2.3,3,3,0,0,1-2.8,2.3h0a2.8,2.8,0,0,1,1,2.7,25.6,25.6,0,0,0,.1,3.3l-1.5-.4a12.9,12.9,0,0,1,0-2.9c0-1.6-.4-2.3-1.7-2.7l-1.3-.3-1.3,4.8-1.4-.4Zm.1,5.5,1.5.4c1.5.3,2.7-.2,3.1-1.5s-.5-2.3-2.1-2.7l-1.4-.3Z" style="fill: #fff"/>
          <path d="M637.7,393.5a2.7,2.7,0,0,0,2,3.5,6.2,6.2,0,0,0,2.3.1v1.1a5.7,5.7,0,0,1-2.8-.2,3.7,3.7,0,0,1-2.8-5c.6-2.4,2.5-3.9,4.8-3.3s2.7,3.1,2.3,4.6a1.4,1.4,0,0,1-.2.7Zm4.5.1c.3-1,.3-2.5-1.4-2.9s-2.4.8-2.8,1.8Z" style="fill: #fff"/>
          <path d="M645.6,393.8c.2-1,.4-1.9.6-2.6l1.3.3-.3,1.4h0a3.5,3.5,0,0,1,3.3-.8c1.9.5,2.9,2.5,2.3,4.9s-2.9,3.8-4.8,3.4a3.1,3.1,0,0,1-2.1-1.9h0l-1.1,4.3-1.5-.4Zm.9,2.5a1.3,1.3,0,0,0-.1.6,2.4,2.4,0,0,0,1.7,2.3c1.5.4,2.7-.7,3.2-2.5s0-3.2-1.6-3.6a2.3,2.3,0,0,0-2.6,1.3l-.3.5Z" style="fill: #fff"/>
          <path d="M657.9,402.7l.2-1H658a3.3,3.3,0,0,1-2.7.6,2.4,2.4,0,0,1-1.8-3c.5-1.9,2.5-2.5,5.5-1.7h.1a1.8,1.8,0,0,0-1.4-2.4,4.1,4.1,0,0,0-2.2.1v-1a5.2,5.2,0,0,1,2.8-.1c2.5.7,2.6,2.5,2.2,4.1l-.8,3a6.3,6.3,0,0,0-.3,1.9Zm.9-4.1c-1.6-.4-3.4-.6-3.8.9a1.3,1.3,0,0,0,1,1.8,1.9,1.9,0,0,0,2.2-.8c.1-.2.2-.3.2-.5Z" style="fill: #fff"/>
          <path d="M662.9,398.2c.2-.9.4-1.8.6-2.5l1.2.3-.3,1.6h.1a2.4,2.4,0,0,1,2.6-1.2l.4.2-.3,1.4-.5-.2a2.2,2.2,0,0,0-2.5,1.3,1.9,1.9,0,0,1-.2.7l-1.1,4.2-1.4-.3Z" style="fill: #fff"/>
          <path d="M671.7,395.4l-.6,2.3,2,.5-.3,1.1-2-.5-1.1,4.3c-.3,1-.2,1.6.6,1.8h.9l-.2,1.1a3.6,3.6,0,0,1-1.4-.1,2.4,2.4,0,0,1-1.4-1,3.6,3.6,0,0,1,0-2.3l1.2-4.3-1.3-.3.3-1.1,1.2.3.5-1.9Z" style="fill: #fff"/>
          <path d="M680.8,404.4a3.9,3.9,0,0,1-5,3.2,4,4,0,0,1-2.8-5.1,4,4,0,0,1,5.1-3.2A3.8,3.8,0,0,1,680.8,404.4Zm-6.3-1.6c-.4,1.8.2,3.4,1.6,3.7s2.8-.6,3.3-2.4.1-3.3-1.6-3.7S674.9,401.3,674.5,402.8Z" style="fill: #fff"/>
          <path d="M532.6,378.6l-2.5,9.6a20.9,20.9,0,0,0-.5,2.1l-1.3-.3.3-1.4h0a3.2,3.2,0,0,1-3.2.9c-1.9-.5-2.9-2.5-2.3-4.9s2.7-3.9,4.7-3.4a2.7,2.7,0,0,1,2.1,1.9h0l1.2-4.8Zm-3.3,6.6a1.5,1.5,0,0,0,.1-.6,2.4,2.4,0,0,0-1.6-2.3c-1.5-.4-2.8.7-3.2,2.5s0,3.1,1.5,3.5a2.2,2.2,0,0,0,2.6-1.1,1.4,1.4,0,0,0,.2-.6Z" style="fill: #fff"/>
          <path d="M533.7,387.4a2.7,2.7,0,0,0,2,3.5,6.2,6.2,0,0,0,2.3.1v1.1a5.7,5.7,0,0,1-2.8-.2,3.7,3.7,0,0,1-2.8-5c.6-2.4,2.5-3.9,4.8-3.3s2.7,3.1,2.3,4.6a2.5,2.5,0,0,0-.2.7Zm4.5.1a2.1,2.1,0,0,0-1.4-2.9c-1.4-.4-2.4.8-2.8,1.8Z" style="fill: #fff"/>
          <path d="M551.5,395.6a5.4,5.4,0,0,1-3-.2,5.3,5.3,0,0,1-4-7,5.6,5.6,0,0,1,7.3-4.3,5.3,5.3,0,0,1,2.5,1.1l-.7,1.1a4.6,4.6,0,0,0-2.1-1c-2.6-.7-4.7.5-5.5,3.4s.4,4.9,3.1,5.6a5,5,0,0,0,2.4.1Z" style="fill: #fff"/>
          <path d="M557.5,397.6v-1.1h0a3.1,3.1,0,0,1-2.8.6,2.3,2.3,0,0,1-1.8-2.9c.5-2,2.5-2.6,5.6-1.7v-.2a1.7,1.7,0,0,0-1.3-2.3,4.5,4.5,0,0,0-2.3,0v-1a4.4,4.4,0,0,1,2.8,0c2.4.6,2.6,2.4,2.1,4l-.7,3a8.1,8.1,0,0,0-.4,1.9Zm.8-4.1c-1.5-.5-3.4-.7-3.8.9a1.3,1.3,0,0,0,1,1.7,2.1,2.1,0,0,0,2.3-.8c.1-.1.1-.3.2-.5Z" style="fill: #fff"/>
          <path d="M562.4,393a12.9,12.9,0,0,0,.6-2.5l1.3.4-.4,1.5h.1a2.4,2.4,0,0,1,2.6-1.1h.4l-.3,1.4-.5-.2a2.1,2.1,0,0,0-2.4,1.4l-.3.6-1.1,4.3-1.4-.4Z" style="fill: #fff"/>
          <path d="M575.2,393.7a16.2,16.2,0,0,0-.6,2.2l-1.3,4.6a4.6,4.6,0,0,1-2,3.3,4,4,0,0,1-3.2.2,5.5,5.5,0,0,1-2.5-1.3l.7-1a4.5,4.5,0,0,0,2.2,1.2c1.4.4,2.7-.1,3.3-2.1l.2-.9h0a3.2,3.2,0,0,1-2.9.7c-2-.5-3-2.6-2.4-4.8s2.9-3.8,4.7-3.3a2.8,2.8,0,0,1,2.1,2h0l.4-1.2Zm-2.3,2.8c0-.3.1-.5.1-.7a2.3,2.3,0,0,0-1.7-2.1c-1.3-.3-2.6.6-3.1,2.4s0,3.1,1.6,3.5a2.2,2.2,0,0,0,2.4-1l.3-.7Z" style="fill: #fff"/>
          <path d="M579.9,403.4v-1h-.1a3,3,0,0,1-2.7.5,2.3,2.3,0,0,1-1.8-2.9c.5-1.9,2.5-2.5,5.5-1.7v-.2a1.7,1.7,0,0,0-1.4-2.3,4.1,4.1,0,0,0-2.2.1v-1.1a5.3,5.3,0,0,1,2.8,0c2.5.6,2.6,2.5,2.2,4.1l-.8,2.9a16.2,16.2,0,0,0-.3,2Zm.8-4.1c-1.6-.4-3.4-.6-3.8.9a1.3,1.3,0,0,0,1,1.8,2.1,2.1,0,0,0,2.2-.9.8.8,0,0,0,.2-.4Z" style="fill: #fff"/>
          <path d="M583.6,402.8a3.6,3.6,0,0,0,1.7,1.1c1.1.3,1.7-.1,1.9-.8s-.2-1.2-1.1-1.8-1.8-1.9-1.5-2.8a2.5,2.5,0,0,1,3.3-1.7,4.3,4.3,0,0,1,1.8,1l-.6,1a3.5,3.5,0,0,0-1.5-.9c-.9-.2-1.5.2-1.6.8s.2,1,1.1,1.7,1.8,1.8,1.5,2.9-1.7,2.1-3.6,1.6a4.2,4.2,0,0,1-2.1-1.1Z" style="fill: #fff"/>
          <path d="M596,399.1l.5,5.2c0,.6.1,1.2.1,1.8h0l1-1.6,2.8-4.2,1.5.4-3.7,5.1c-1.7,2.4-2.8,3.7-4,4.3a3.5,3.5,0,0,1-2,.4v-1.3a3.1,3.1,0,0,0,1.5-.4,3.7,3.7,0,0,0,1.6-1.3c.1-.1.2-.2.2-.3v-.4l-1-8.1Z" style="fill: #fff"/>
          <path d="M604.5,409.9a12.9,12.9,0,0,0,.6-2.1l2.6-9.6,1.4.4-1.3,5h0a3.1,3.1,0,0,1,3.1-.8c2,.6,3,2.6,2.3,5s-2.9,3.8-4.7,3.3a3.2,3.2,0,0,1-2.3-2.2h0l-.4,1.3Zm2.4-2.8a.9.9,0,0,0-.1.5,2.4,2.4,0,0,0,1.7,2.3c1.5.4,2.8-.6,3.2-2.4s0-3.2-1.6-3.6a2.3,2.3,0,0,0-2.6,1.2l-.3.5Z" style="fill: #fff"/>
          <path d="M615.7,408.8a2.7,2.7,0,0,0,2,3.5,5.3,5.3,0,0,0,2.4.2v1.1a6.8,6.8,0,0,1-2.7-.2,3.9,3.9,0,0,1-2.9-5.1c.6-2.4,2.5-3.9,4.8-3.3s2.7,3.2,2.4,4.6a2.4,2.4,0,0,1-.3.7Zm4.6.1a2.2,2.2,0,0,0-1.4-2.9,2.5,2.5,0,0,0-2.9,1.8Z" style="fill: #fff"/>
          <path d="M623.7,408.7a22.5,22.5,0,0,0,.5-2.2l1.3.4-.3,1.3h.1a2.8,2.8,0,0,1,3-.8c1.1.3,2.6,1.4,1.9,4.1l-1.2,4.8-1.5-.4,1.2-4.6c.4-1.3.2-2.5-1.2-2.8a2,2,0,0,0-2.3.9l-.3.7-1.2,4.8-1.5-.4Z" style="fill: #fff"/>
          <path d="M633.1,413.4a2.6,2.6,0,0,0,2,3.4,4.9,4.9,0,0,0,2.3.2v1.1a7.3,7.3,0,0,1-2.8-.2,3.7,3.7,0,0,1-2.8-5c.6-2.4,2.5-3.9,4.8-3.3s2.7,3.1,2.3,4.6-.1.5-.2.6Zm4.5,0a2,2,0,0,0-1.4-2.8c-1.4-.4-2.4.8-2.8,1.7Z" style="fill: #fff"/>
          <path d="M639.7,419.1l1.8-6.9-1.1-.3.3-1.1,1.1.3v-.4a3.4,3.4,0,0,1,4.4-2.6,5,5,0,0,1,1.9,1.1l-.7,1a3.1,3.1,0,0,0-1.6-.9c-1.5-.4-2.2.5-2.6,1.8v.4l4.7,1.2-2.1,8-1.5-.4,1.8-6.9-3.2-.8-1.7,6.8Z" style="fill: #fff"/>
          <path d="M653.9,422.5a5.5,5.5,0,0,1-2.4-.2c-2.4-.6-3.5-2.6-2.9-5.1a4.2,4.2,0,0,1,5.4-3.1,4.1,4.1,0,0,1,1.9,1l-.6,1a3.4,3.4,0,0,0-1.6-.8,2.8,2.8,0,0,0-3.6,2.2,2.8,2.8,0,0,0,2,3.7,3.2,3.2,0,0,0,1.9.1Z" style="fill: #fff"/>
          <path d="M655.5,423.2l2.1-8,1.5.4-2.1,8Zm4.3-9.8a.9.9,0,0,1-1.1.7,1,1,0,0,1-.7-1.1,1,1,0,0,1,1.2-.7A.8.8,0,0,1,659.8,413.4Z" style="fill: #fff"/>
          <path d="M667.7,422a4,4,0,0,1-5.1,3.2c-2.2-.5-3.4-2.5-2.8-5.1a4,4,0,0,1,5.1-3.1C667.2,417.5,668.3,419.6,667.7,422Zm-6.4-1.5c-.4,1.7.2,3.3,1.6,3.7s2.8-.7,3.3-2.5.1-3.2-1.6-3.7S661.7,419,661.3,420.5Z" style="fill: #fff"/>
          <path d="M668.6,425a4,4,0,0,0,1.8,1.1c1,.3,1.7-.1,1.8-.8s-.1-1.1-1.1-1.8-1.7-1.9-1.5-2.8,1.7-2.1,3.4-1.6a3.9,3.9,0,0,1,1.8,1l-.6.9a3.4,3.4,0,0,0-1.6-.9,1.3,1.3,0,0,0-1.6.8c-.1.6.3,1.1,1.2,1.7s1.8,1.8,1.5,3-1.8,2.1-3.6,1.6A4.7,4.7,0,0,1,668,426Z" style="fill: #fff"/>
        </g>
      </g>
      <g class="hoverable" onclick="returnToGroups(); changeImage('rueda');">
        <circle cx="127.5" cy="276.3" r="127" style="fill: none;stroke: #aab8bd;stroke-miterlimit: 10"/>
        <circle cx="127.3" cy="276.5" r="105" style="fill: #bdc4c6"/>
        <g>
          <path d="M99.1,281.4a15.3,15.3,0,0,1-4.6.8,7.8,7.8,0,0,1-5.6-1.9,7.1,7.1,0,0,1-2-5.3c0-4.5,3.2-7.4,8-7.4a10.2,10.2,0,0,1,3.8.7l-.6,2.1a7.2,7.2,0,0,0-3.3-.6,4.7,4.7,0,0,0-5.1,5.1c0,3.2,1.9,5.2,4.9,5.2a7.7,7.7,0,0,0,2-.3v-3.6H94.1v-2.1h5Z" style="fill: #112025"/>
          <path d="M109.7,275.7h-5.3v4.2h6V282h-8.6V267.8h8.3v2.1h-5.7v3.7h5.3Z" style="fill: #112025"/>
          <path d="M112.6,279.2a7.2,7.2,0,0,0,3.5.9c1.6,0,2.6-.8,2.6-2s-.8-1.7-2.6-2.3-3.8-2.1-3.8-4.2,1.9-4.1,5-4.1a8.7,8.7,0,0,1,3.4.7l-.6,2.1a7.3,7.3,0,0,0-2.8-.6c-1.7,0-2.4.9-2.4,1.7s.8,1.6,2.7,2.3,3.7,2.2,3.7,4.3-1.7,4.2-5.4,4.2a8.3,8.3,0,0,1-3.9-.9Z" style="fill: #112025"/>
          <path d="M126.4,269.9h-4.1v-2.1h10.8v2.1H129V282h-2.6Z" style="fill: #112025"/>
          <path d="M137.4,267.8V282h-2.6V267.8Z" style="fill: #112025"/>
          <path d="M153,274.7c0,4.8-2.9,7.6-6.8,7.6s-6.6-3.1-6.6-7.3,2.8-7.5,6.8-7.5S153,270.7,153,274.7Zm-10.6.3c0,2.9,1.4,5.2,3.9,5.2s4-2.4,4-5.4-1.4-5.2-4-5.2S142.4,272,142.4,275Zm7.3-10.6-2.6,2.6H145l1.9-2.6Z" style="fill: #112025"/>
          <path d="M155.3,282V267.8h2.9l3.7,6.1a26.9,26.9,0,0,1,2.4,4.8h.1a56,56,0,0,1-.3-6v-4.9h2.5V282h-2.7l-3.8-6.2c-.9-1.6-1.8-3.4-2.5-5h-.1c.1,1.9.1,3.8.1,6.1V282Z" style="fill: #112025"/>
        </g>
      </g>
      <g class="hoverable" onclick="returnToTypesInstrument(); changeImage('gestion/G_Herramienta_Segundo_Plano');">
        <path d="M441.6,406.8,276.2,338.1a159.6,159.6,0,0,0,12.2-61.6,157.4,157.4,0,0,0-17.7-73.3l159.4-81.9a342.2,342.2,0,0,1,37.4,155.2A337.7,337.7,0,0,1,441.6,406.8Z" style="fill: #29abe2"/>
        <path d="M423.6,399.5,267.5,334.7a152.8,152.8,0,0,0-5.1-127.4l150.3-77.2A321.9,321.9,0,0,1,448,276.5,319.4,319.4,0,0,1,423.6,399.5Z" style="fill: #84266a"/>
        <g>
          <path d="M306.7,234.6a22.1,22.1,0,0,1,3.9-.3c2.1,0,3.5.4,4.5,1.3a3.9,3.9,0,0,1,1.2,2.9,4.2,4.2,0,0,1-2.9,4h0a3.8,3.8,0,0,1,2.2,3.2,27.1,27.1,0,0,0,1.2,4.2h-2a19.3,19.3,0,0,1-1.1-3.7c-.4-2.1-1.3-2.9-3.1-3h-1.9v6.7h-2Zm2,7.1h2.1c2.1,0,3.5-1.2,3.5-3s-1.5-2.8-3.6-2.9l-2,.2Z" style="fill: #fff"/>
          <path d="M320.3,244.7a3.5,3.5,0,0,0,3.8,3.9,8.1,8.1,0,0,0,3.1-.6l.3,1.4a7.7,7.7,0,0,1-3.7.7c-3.4,0-5.5-2.2-5.5-5.6s2-6,5.2-6,4.6,3.2,4.6,5.3v.9Zm5.9-1.4c0-1.3-.5-3.3-2.8-3.3a3.3,3.3,0,0,0-3.1,3.3Z" style="fill: #fff"/>
          <path d="M330.6,242.4v-3.6h1.8v1.9h0a4.4,4.4,0,0,1,4-2.2c2.7,0,4.7,2.3,4.7,5.7s-2.5,6-5.1,6a4,4,0,0,1-3.4-1.8h0v6.1h-2.1Zm2.1,3v.8a3.2,3.2,0,0,0,3.1,2.4c2.1,0,3.4-1.8,3.4-4.3s-1.2-4.2-3.4-4.2a3.3,3.3,0,0,0-3,2.5,2.8,2.8,0,0,0-.1.9Z" style="fill: #fff"/>
          <path d="M349.9,249.9l-.2-1.4h0a4.2,4.2,0,0,1-3.4,1.7,3.1,3.1,0,0,1-3.4-3.2c0-2.7,2.4-4.2,6.7-4.2v-.2A2.4,2.4,0,0,0,347,240a5.7,5.7,0,0,0-2.9.8l-.4-1.3a6.6,6.6,0,0,1,3.6-1c3.4,0,4.3,2.3,4.3,4.6v4.1a22.6,22.6,0,0,0,.1,2.7Zm-.3-5.7c-2.2,0-4.7.4-4.7,2.5a1.9,1.9,0,0,0,1.9,2,2.9,2.9,0,0,0,2.7-1.9,1.3,1.3,0,0,0,.1-.6Z" style="fill: #fff"/>
          <path d="M354.8,242.2c0-1.3,0-2.4-.1-3.4h1.8V241h.1a3.4,3.4,0,0,1,3-2.5h.6v1.9h-.7a2.9,2.9,0,0,0-2.7,2.6c0,.3-.1.6-.1,1v5.9h-2Z" style="fill: #fff"/>
          <path d="M365.3,235.6v3.2h2.9v1.5h-2.9v6c0,1.4.4,2.2,1.5,2.2l1.2-.2v1.6l-1.8.2a3.1,3.1,0,0,1-2.2-.8,4.6,4.6,0,0,1-.7-2.9v-6.1h-1.8v-1.5h1.8v-2.7Z" style="fill: #fff"/>
          <path d="M380.4,244.2c0,4.2-2.8,6-5.5,6s-5.3-2.2-5.3-5.8,2.4-5.9,5.5-5.9S380.4,240.8,380.4,244.2Zm-8.8.2c0,2.4,1.4,4.2,3.4,4.2s3.4-1.8,3.4-4.3-1-4.3-3.4-4.3S371.6,242.2,371.6,244.4Z" style="fill: #fff"/>
          <path d="M397.5,233.6V247a26.2,26.2,0,0,0,.1,2.9h-1.8V248h-.1a4.2,4.2,0,0,1-3.8,2.2c-2.7,0-4.7-2.3-4.7-5.7s2.2-6,5-6a3.6,3.6,0,0,1,3.3,1.7h.1v-6.6Zm-2,9.7c0-.2-.1-.6-.1-.8a3,3,0,0,0-3-2.4c-2,0-3.3,1.8-3.3,4.3s1.1,4.1,3.3,4.1a3.1,3.1,0,0,0,3-2.4c0-.3.1-.5.1-.9Z" style="fill: #fff"/>
          <path d="M402,244.7a3.6,3.6,0,0,0,3.8,3.9,8.1,8.1,0,0,0,3.1-.6l.3,1.4a7.7,7.7,0,0,1-3.7.7c-3.4,0-5.5-2.2-5.5-5.6s2-6,5.3-6,4.6,3.2,4.6,5.3c0,.4-.1.7-.1.9Zm5.9-1.4c0-1.3-.5-3.3-2.8-3.3s-2.9,1.9-3.1,3.3Z" style="fill: #fff"/>
          <path d="M306.7,269.8c0-1.3-.1-2.4-.1-3.4h1.7v2.2h.1a3.4,3.4,0,0,1,3.1-2.5h.6v1.9h-.7a2.7,2.7,0,0,0-2.7,2.6,3.1,3.1,0,0,0-.1,1v5.9h-2Z" style="fill: #fff"/>
          <path d="M315.1,272.3a3.6,3.6,0,0,0,3.8,3.9,8.1,8.1,0,0,0,3.1-.6l.3,1.4a7.7,7.7,0,0,1-3.7.7c-3.4,0-5.5-2.2-5.5-5.6s2-6,5.3-6,4.6,3.2,4.6,5.3c0,.4-.1.7-.1.9Zm5.9-1.4c0-1.3-.5-3.3-2.8-3.3s-2.9,1.9-3.1,3.3Z" style="fill: #fff"/>
          <path d="M333.4,277.1a7.1,7.1,0,0,1-3.2.6,5.2,5.2,0,0,1-5.5-5.6,5.6,5.6,0,0,1,5.9-6,7,7,0,0,1,2.9.6l-.5,1.6a4.5,4.5,0,0,0-2.4-.5c-2.5,0-3.9,1.8-3.9,4.2a3.8,3.8,0,0,0,3.9,4.1,7.3,7.3,0,0,0,2.5-.5Z" style="fill: #fff"/>
          <path d="M341.9,277.5v-1.4h-.1a4,4,0,0,1-3.4,1.7,3.2,3.2,0,0,1-3.4-3.2c0-2.7,2.4-4.2,6.7-4.2v-.2a2.3,2.3,0,0,0-2.5-2.6,5.5,5.5,0,0,0-2.9.8l-.5-1.3a7,7,0,0,1,3.7-1c3.4,0,4.2,2.3,4.2,4.6v4.1a11.4,11.4,0,0,0,.2,2.7Zm-.3-5.7c-2.2,0-4.7.4-4.7,2.5a1.9,1.9,0,0,0,1.9,2,2.8,2.8,0,0,0,2.7-1.9,1.3,1.3,0,0,0,.1-.6Z" style="fill: #fff"/>
          <path d="M346.9,269.8c0-1.3-.1-2.4-.1-3.4h1.7v2.2h.1a3.4,3.4,0,0,1,3.1-2.5h.6v1.9h-.7a2.7,2.7,0,0,0-2.7,2.6,3.1,3.1,0,0,0-.1,1v5.9h-2Z" style="fill: #fff"/>
          <path d="M363.8,266.4a25.4,25.4,0,0,0-.1,3v6.5c0,2.5-.5,4.1-1.6,5.1a5.8,5.8,0,0,1-4,1.3,7,7,0,0,1-3.7-.9l.5-1.5a6.8,6.8,0,0,0,3.2.8c2.1,0,3.6-1.1,3.6-3.9v-1.2h0a4.1,4.1,0,0,1-3.6,1.9c-2.7,0-4.7-2.4-4.7-5.5s2.5-5.9,5-5.9a3.7,3.7,0,0,1,3.5,2h0v-1.7Zm-2.1,4.4a3.1,3.1,0,0,0-.1-1,3,3,0,0,0-2.8-2.1c-2,0-3.4,1.6-3.4,4.2s1.1,4,3.3,4a2.9,2.9,0,0,0,2.8-2.1,1.8,1.8,0,0,0,.2-1Z" style="fill: #fff"/>
          <path d="M373.2,277.5v-1.4H373a4,4,0,0,1-3.4,1.7,3.1,3.1,0,0,1-3.4-3.2c0-2.7,2.4-4.2,6.7-4.2v-.2a2.4,2.4,0,0,0-2.6-2.6,5.7,5.7,0,0,0-2.9.8l-.4-1.3a6.6,6.6,0,0,1,3.6-1c3.4,0,4.3,2.3,4.3,4.6v4.1a11.4,11.4,0,0,0,.2,2.7Zm-.3-5.7c-2.2,0-4.7.4-4.7,2.5a1.9,1.9,0,0,0,1.9,2,2.8,2.8,0,0,0,2.7-1.9,1.3,1.3,0,0,0,.1-.6Z" style="fill: #fff"/>
          <path d="M377.9,275.4a5,5,0,0,0,2.6.8c1.5,0,2.2-.7,2.2-1.6s-.6-1.5-2.1-2.1-2.9-1.8-2.9-3.1,1.4-3.3,3.8-3.3a5.8,5.8,0,0,1,2.8.7l-.5,1.5a4.5,4.5,0,0,0-2.3-.7c-1.2,0-1.9.7-1.9,1.6s.7,1.3,2.1,1.8,3,1.7,3,3.4-1.6,3.3-4.2,3.3a6.8,6.8,0,0,1-3.1-.7Z" style="fill: #fff"/>
          <path d="M392.9,266.4l2.4,6.6c.3.7.5,1.6.7,2.2h.1c.2-.6.4-1.5.7-2.3l2.2-6.5h2.1l-3,7.9c-1.5,3.8-2.5,5.8-3.8,7a6.6,6.6,0,0,1-2.5,1.3l-.5-1.7a6.2,6.2,0,0,0,1.7-1,4.8,4.8,0,0,0,1.7-2.3c.1-.2.2-.3.2-.4a1.5,1.5,0,0,0-.1-.6l-4.1-10.2Z" style="fill: #fff"/>
          <path d="M306.6,305.1c0-.8.1-1.9.1-2.9V288.8h2v7h0a4.1,4.1,0,0,1,3.8-2.1c2.8,0,4.7,2.3,4.7,5.7s-2.5,6-5,6a4,4,0,0,1-3.7-2.1h-.1v1.8Zm2.1-4.5a1.9,1.9,0,0,0,.1.8,2.9,2.9,0,0,0,3,2.3c2.1,0,3.4-1.7,3.4-4.2s-1.2-4.2-3.3-4.2a3.3,3.3,0,0,0-3.1,2.5,1.9,1.9,0,0,0-.1.8Z" style="fill: #fff"/>
          <path d="M320.9,299.9a3.6,3.6,0,0,0,3.8,3.9,8.1,8.1,0,0,0,3.1-.6l.3,1.4a7.7,7.7,0,0,1-3.7.7c-3.4,0-5.5-2.2-5.5-5.6s2-6,5.3-6,4.6,3.2,4.6,5.3c0,.4-.1.7-.1.9Zm5.9-1.4c0-1.3-.5-3.3-2.8-3.3s-2.9,1.9-3.1,3.3Z" style="fill: #fff"/>
          <path d="M331.3,297c0-1.2-.1-2.1-.1-3H333v1.8h0a4.4,4.4,0,0,1,3.7-2.1c1.6,0,3.9.9,3.9,4.8v6.6h-2v-6.4c0-1.8-.6-3.3-2.6-3.3a2.9,2.9,0,0,0-2.7,2.1,2.5,2.5,0,0,0-.1.9v6.7h-2Z" style="fill: #fff"/>
          <path d="M345.2,299.9a3.6,3.6,0,0,0,3.8,3.9,8.1,8.1,0,0,0,3.1-.6l.3,1.4a7.7,7.7,0,0,1-3.7.7c-3.4,0-5.5-2.2-5.5-5.6s2-6,5.3-6,4.5,3.2,4.5,5.3v.9Zm5.9-1.4c0-1.3-.5-3.3-2.8-3.3a3.3,3.3,0,0,0-3.1,3.3Z" style="fill: #fff"/>
          <path d="M355.8,305.1v-9.6h-1.6V294h1.6v-.6c0-3,1.7-4.9,4.8-4.9a4.4,4.4,0,0,1,2.8.8l-.5,1.5a5,5,0,0,0-2.4-.6c-2.1,0-2.7,1.5-2.7,3.2v.6h6.4v11.1h-2v-9.6h-4.4v9.6Z" style="fill: #fff"/>
          <path d="M375.5,304.7a7.1,7.1,0,0,1-3.2.6,5.2,5.2,0,0,1-5.5-5.6,5.7,5.7,0,0,1,6-6,6.5,6.5,0,0,1,2.8.6l-.5,1.6a4.4,4.4,0,0,0-2.3-.5c-2.6,0-4,1.8-4,4.2a3.8,3.8,0,0,0,3.9,4.1,7.3,7.3,0,0,0,2.5-.5Z" style="fill: #fff"/>
          <path d="M380.1,290.8a1.1,1.1,0,0,1-1.2,1.3,1.3,1.3,0,0,1-1.3-1.3,1.2,1.2,0,0,1,1.3-1.2A1.1,1.1,0,0,1,380.1,290.8Zm-2.2,14.3V294h2v11.1Z" style="fill: #fff"/>
          <path d="M393.3,299.4c0,4.2-2.8,6-5.5,6s-5.3-2.2-5.3-5.8,2.4-5.9,5.5-5.9S393.3,296,393.3,299.4Zm-8.8.2c0,2.4,1.4,4.2,3.4,4.2s3.4-1.8,3.4-4.3-1-4.3-3.4-4.3S384.5,297.4,384.5,299.6Z" style="fill: #fff"/>
          <path d="M395.6,303a5.4,5.4,0,0,0,2.7.8c1.5,0,2.2-.7,2.2-1.6s-.6-1.5-2.1-2.1-3-1.8-3-3.1,1.5-3.3,3.9-3.3a5.1,5.1,0,0,1,2.7.7l-.5,1.5a3.9,3.9,0,0,0-2.3-.7,1.6,1.6,0,0,0-1.8,1.6c0,.9.6,1.3,2.1,1.8s2.9,1.7,2.9,3.4-1.5,3.3-4.2,3.3a7.1,7.1,0,0,1-3.1-.7Z" style="fill: #fff"/>
        </g>
      </g>
    </g>
  </g>
</svg>
