<svg class="animate__animated" xmlns="http://www.w3.org/2000/svg" viewBox="0 0 732.4 461.4">
  <g id="Capa_2" data-name="Capa 2">
    <g id="Capa_1-2" data-name="Capa 1">
      <g class="hoverable" onclick="returnToGroups(); changeImage('rueda');">
        <circle cx="127.5" cy="257.7" r="105" style="fill: #bdc4c6"/>
        <circle cx="127.5" cy="257.7" r="127" style="fill: none;stroke: #aab8bd;stroke-miterlimit: 10"/>
        <g>
          <path d="M73.1,256.3H67.7v4.2h6v2.1H65.1V248.3h8.3v2.2H67.7v3.6h5.4Z" style="fill: #112025"/>
          <path d="M86.2,262.2a9.2,9.2,0,0,1-3.7.6c-4.5,0-7.2-2.8-7.2-7.2s3.2-7.5,7.6-7.5a10.5,10.5,0,0,1,3.5.6l-.6,2.1a7,7,0,0,0-2.8-.5c-2.9,0-5,1.8-5,5.2s1.8,5.1,5,5.1a7.8,7.8,0,0,0,2.8-.5Z" style="fill: #112025"/>
          <path d="M100.6,255.3c0,4.8-2.9,7.5-6.9,7.5s-6.5-3-6.5-7.2,2.7-7.5,6.7-7.5S100.6,251.2,100.6,255.3Zm-10.7.2c0,2.9,1.5,5.2,4,5.2s3.9-2.3,3.9-5.3-1.3-5.2-3.9-5.2S89.9,252.6,89.9,255.5Z" style="fill: #112025"/>
          <path d="M102.8,262.6V248.3h3l3.7,6.1c.9,1.6,1.7,3.3,2.4,4.8h0c-.1-1.9-.2-3.7-.2-5.9v-5h2.4v14.3h-2.7l-3.7-6.3a45.9,45.9,0,0,1-2.6-4.9h0c.1,1.9.1,3.7.1,6.1v5.1Z" style="fill: #112025"/>
          <path d="M129.8,255.3c0,4.8-2.9,7.5-6.9,7.5s-6.5-3-6.5-7.2,2.7-7.5,6.7-7.5S129.8,251.2,129.8,255.3Zm-10.7.2c0,2.9,1.5,5.2,4,5.2s3.9-2.3,3.9-5.3-1.3-5.2-3.9-5.2S119.1,252.6,119.1,255.5Zm7.4-10.5-2.7,2.5h-2l1.8-2.5Z" style="fill: #112025"/>
          <path d="M144.1,256.8c-.1-1.9-.2-4.1-.2-6h-.1a41.7,41.7,0,0,1-1.7,5.4l-2,6.2H138l-1.9-6.1c-.5-1.8-1-3.7-1.4-5.5h0c-.1,1.8-.2,4.1-.3,6.1l-.3,5.7h-2.4l.9-14.3H136l1.9,5.8a44.3,44.3,0,0,1,1.3,4.9h.1c.4-1.5.8-3.3,1.4-5l2-5.7H146l.9,14.3h-2.6Z" style="fill: #112025"/>
          <path d="M152.1,248.3v14.3h-2.6V248.3Z" style="fill: #112025"/>
          <path d="M165.3,262.2a9,9,0,0,1-3.6.6c-4.6,0-7.3-2.8-7.3-7.2s3.2-7.5,7.6-7.5a10.5,10.5,0,0,1,3.5.6l-.6,2.1a7,7,0,0,0-2.8-.5c-2.9,0-5,1.8-5,5.2s1.8,5.1,5,5.1a7.8,7.8,0,0,0,2.8-.5Z" style="fill: #112025"/>
          <path d="M179.7,255.3c0,4.8-2.9,7.5-6.9,7.5s-6.5-3-6.5-7.2,2.7-7.5,6.7-7.5S179.7,251.2,179.7,255.3Zm-10.7.2c0,2.9,1.5,5.2,4,5.2s3.9-2.3,3.9-5.3-1.3-5.2-3.9-5.2S169,252.6,169,255.5Z" style="fill: #112025"/>
          <path d="M181.8,259.8a9,9,0,0,0,3.5.9c1.7,0,2.6-.8,2.6-2s-.7-1.7-2.5-2.4-3.9-2-3.9-4.1,2-4.1,5-4.1a7.7,7.7,0,0,1,3.5.7l-.7,2.1a5.6,5.6,0,0,0-2.8-.7c-1.7,0-2.4.9-2.4,1.7s.9,1.7,2.8,2.4,3.6,2.2,3.6,4.2-1.7,4.3-5.4,4.3a7.9,7.9,0,0,1-3.8-.9Z" style="fill: #112025"/>
        </g>
      </g>
      <g class="hoverable" id="tasas" onclick="showInstrument('economicos', 'comando_y_control', 'tasas');">
        <path d="M487.3,182.1a352.7,352.7,0,0,0-9.5-41.9L708.5,73.8A624,624,0,0,1,724.1,143Z" style="fill: #d36caf"/>
        <g>
          <path d="M514.6,145.2l-4.2,1.1-.4-1.5,10.1-2.7.4,1.5-4.2,1.1,3.3,12.2-1.8.5Z" style="fill: #fff"/>
          <path d="M529.4,154.3l-.5-1.2h-.1a3.7,3.7,0,0,1-2.6,2.2,2.8,2.8,0,0,1-3.7-2c-.7-2.4,1.1-4.2,4.9-5.2V148a2,2,0,0,0-2.8-1.7,5.3,5.3,0,0,0-2.4,1.4l-.7-1.1a6.8,6.8,0,0,1,3-1.7c3-.8,4.3,1.1,4.8,3l1,3.7a12.3,12.3,0,0,0,.8,2.3Zm-1.6-4.9c-2,.5-4.1,1.4-3.6,3.3a1.6,1.6,0,0,0,2.1,1.3,2.7,2.7,0,0,0,2-2.3,1.3,1.3,0,0,0-.1-.6Z" style="fill: #fff"/>
          <path d="M533,151.4a5.1,5.1,0,0,0,2.5.1c1.3-.3,1.7-1.1,1.5-2s-.8-1.1-2.3-1.3-3-.9-3.3-2.1.5-3.2,2.6-3.8a5.6,5.6,0,0,1,2.6,0v1.4a5.3,5.3,0,0,0-2.2,0,1.6,1.6,0,0,0-1.3,1.8c.3.8.9,1,2.4,1.1s2.9.9,3.3,2.3-.5,3.3-2.9,3.9a5.8,5.8,0,0,1-2.9.1Z" style="fill: #fff"/>
          <path d="M547.2,149.6l-.5-1.2h-.1a3.6,3.6,0,0,1-2.6,2.3,2.9,2.9,0,0,1-3.7-2c-.7-2.4,1.1-4.3,4.9-5.3v-.2c-.3-.8-.9-2.2-2.9-1.6A3.9,3.9,0,0,0,540,143l-.8-1.1a6.8,6.8,0,0,1,3-1.7c3-.8,4.3,1,4.8,3l1,3.7a12.3,12.3,0,0,0,.8,2.3Zm-1.6-4.9c-2,.5-4.1,1.4-3.6,3.3a1.6,1.6,0,0,0,2.1,1.2,2.5,2.5,0,0,0,2-2.2,1.3,1.3,0,0,0-.1-.6Z" style="fill: #fff"/>
          <path d="M550.8,146.7a5.1,5.1,0,0,0,2.5.1c1.3-.4,1.8-1.2,1.6-2s-.9-1.2-2.3-1.3-3.1-.9-3.4-2.1.5-3.2,2.6-3.8a5.6,5.6,0,0,1,2.6,0V139a3.6,3.6,0,0,0-2.1,0c-1.1.3-1.5,1-1.3,1.8s.9,1,2.3,1.1,3,.8,3.3,2.3-.5,3.3-2.9,3.9a5.8,5.8,0,0,1-2.9.1Z" style="fill: #fff"/>
        </g>
      </g>
      <g class="hoverable" id="impuestos" onclick="showInstrument('economicos', 'comando_y_control', 'impuestos');">
        <path d="M476.6,135.8a389,389,0,0,0-14.8-40.3L682,0a610.1,610.1,0,0,1,24.4,66.6Z" style="fill: #d36caf"/>
        <g>
          <path d="M499,96.5l4.6,13.4-1.7.6-4.7-13.4Z" style="fill: #fff"/>
          <path d="M504.3,101.8c-.3-1-.6-1.8-.9-2.6l1.5-.5.6,1.5h.1a3.4,3.4,0,0,1,2.4-2.8,3,3,0,0,1,3.4,1h0a4.3,4.3,0,0,1,.6-1.7,3.5,3.5,0,0,1,1.9-1.4c1.3-.4,3.5-.2,4.6,3.1l2,5.6-1.7.6-1.9-5.4c-.7-1.8-1.7-2.7-3.1-2.2a2.3,2.3,0,0,0-1.5,2.3,3.1,3.1,0,0,0,.1.9l2.1,5.9-1.7.6-2-5.7c-.5-1.6-1.6-2.4-2.9-2a2.7,2.7,0,0,0-1.6,2.5,2.9,2.9,0,0,0,.2.9l2,5.8-1.7.6Z" style="fill: #fff"/>
          <path d="M521.1,96.6c-.5-1.2-.8-2.2-1.2-3.1l1.6-.6.6,1.7h.1a3.9,3.9,0,0,1,2.7-3c2.3-.8,4.8.5,5.8,3.4s-.3,5.9-2.6,6.7a3.3,3.3,0,0,1-3.5-.5h0l1.8,5.2-1.7.6Zm2.6,1.9.3.7a2.9,2.9,0,0,0,3.3,1.2c1.9-.7,2.4-2.6,1.7-4.8s-2.3-3.2-4.1-2.5a2.9,2.9,0,0,0-1.9,3,1.9,1.9,0,0,0,.1.8Z" style="fill: #fff"/>
          <path d="M541.7,93.7l1,2.6-1.5.5-.7-1.5h0a4,4,0,0,1-2.6,2.9c-1.5.5-3.6.3-4.7-3l-2-5.7,1.7-.6,1.9,5.3c.6,1.9,1.6,2.9,3.2,2.4a2.9,2.9,0,0,0,1.8-2.4,3.6,3.6,0,0,0-.2-1l-2.1-5.9,1.8-.6Z" style="fill: #fff"/>
          <path d="M544.9,90.5a3.3,3.3,0,0,0,4.5,2.2,9.2,9.2,0,0,0,2.5-1.4l.7,1.1a7.1,7.1,0,0,1-3,1.7,4.7,4.7,0,0,1-6.4-3.2c-1-2.9-.1-5.8,2.7-6.7s4.9,1.3,5.6,3.1.1.7.2.8Zm4.7-3a2.5,2.5,0,0,0-3.4-2,3.1,3.1,0,0,0-1.7,3.7Z" style="fill: #fff"/>
          <path d="M554.6,90.1a4.3,4.3,0,0,0,2.5-.1c1.3-.4,1.7-1.2,1.4-2s-.9-1.2-2.4-1.2-3.1-.7-3.5-1.8.3-3.3,2.4-4a5.6,5.6,0,0,1,2.5-.2v1.4a3.9,3.9,0,0,0-2.1.1,1.6,1.6,0,0,0-1.2,1.9c.3.8,1,1,2.4,1s3,.6,3.5,2-.3,3.3-2.5,4.1a5.4,5.4,0,0,1-3,.3Z" style="fill: #fff"/>
          <path d="M561.1,76l1,2.8,2.5-.9.4,1.3-2.5.9,1.8,5.2c.5,1.2,1,1.7,2,1.4a3,3,0,0,0,1-.5l.5,1.3a5,5,0,0,1-1.5.8,2.5,2.5,0,0,1-2.1-.1c-.7-.3-1.1-1.1-1.5-2.3l-1.9-5.2-1.5.5-.4-1.3,1.5-.5-.8-2.3Z" style="fill: #fff"/>
          <path d="M576.7,79c1.3,3.5-.6,5.9-3,6.7s-5.2-.3-6.3-3.3a5.1,5.1,0,0,1,3-6.8C573.2,74.7,575.7,76,576.7,79Zm-7.5,2.7c.7,2.1,2.5,3.3,4.2,2.7s2.3-2.6,1.6-4.8-2.1-3.4-4.2-2.6S568.5,79.9,569.2,81.7Z" style="fill: #fff"/>
          <path d="M579.8,81.4a5.4,5.4,0,0,0,2.5-.1c1.3-.5,1.7-1.3,1.4-2.1s-.9-1.1-2.4-1.2-3.1-.6-3.5-1.8.3-3.2,2.3-4a6.1,6.1,0,0,1,2.6-.2v1.4a4.1,4.1,0,0,0-2.1.2,1.4,1.4,0,0,0-1.2,1.8c.3.8,1,1,2.4,1s3,.6,3.5,2-.3,3.4-2.6,4.2a7.6,7.6,0,0,1-2.9.3Z" style="fill: #fff"/>
        </g>
      </g>
      <g class="hoverable" id="multas" onclick="showInstrument('economicos', 'comando_y_control', 'multas');">
        <path d="M492.3,236.1c-.1-2.1-.1-4.3-.2-6.5a363.7,363.7,0,0,0-4.1-43l237.3-36.3a637.4,637.4,0,0,1,6.6,70.4q.3,5.3.3,10.5Z" style="fill: #d36caf"/>
        <g>
          <path d="M536.6,206.7c-.3-2-.7-4.3-.8-6.1h0c-.4,1.7-.8,3.5-1.4,5.5l-1.8,7.1h-1.4l-2.9-6.5c-.8-1.9-1.6-3.7-2.1-5.3h0c.1,1.7.2,4.1.2,6.2l.2,6.1-1.8.2-.2-14.2,2.3-.2,3,6.6c.8,1.7,1.4,3.2,1.9,4.6h0a37,37,0,0,1,1.1-4.9l1.9-7,2.3-.2,2.1,14-1.7.2Z" style="fill: #fff"/>
          <path d="M550.3,208.9c.1,1.1.2,2,.3,2.8H549l-.3-1.6h0a3.9,3.9,0,0,1-3.2,2.2c-1.6.1-3.6-.6-3.9-4.2l-.5-5.9h1.8l.5,5.6c.2,1.9.9,3.1,2.6,3a2.5,2.5,0,0,0,2.2-1.9,1.4,1.4,0,0,0,.1-.9l-.5-6.3h1.8Z" style="fill: #fff"/>
          <path d="M552.3,196.6l1.8-.2,1.3,14.9h-1.8Z" style="fill: #fff"/>
          <path d="M559.6,197.8l.2,2.9,2.7-.2v1.4l-2.6.2.4,5.5c.1,1.2.6,1.9,1.6,1.8l1-.2.2,1.4a5,5,0,0,1-1.6.3,2.3,2.3,0,0,1-2-.6,3.4,3.4,0,0,1-1-2.5l-.4-5.6-1.6.2V201l1.5-.2-.2-2.4Z" style="fill: #fff"/>
          <path d="M571,209.9l-.2-1.3h-.1a3.8,3.8,0,0,1-3,1.7,2.8,2.8,0,0,1-3.3-2.6c-.2-2.5,1.8-4,5.8-4.3v-.2a2.1,2.1,0,0,0-2.5-2.2,5.1,5.1,0,0,0-2.5,1l-.6-1.1a5.7,5.7,0,0,1,3.3-1.2c3.1-.3,4,1.7,4.2,3.8l.3,3.8a17.2,17.2,0,0,0,.4,2.4Zm-.7-5.1c-2,.1-4.3.7-4.1,2.6a1.6,1.6,0,0,0,1.9,1.6,2.5,2.5,0,0,0,2.3-1.9,1.3,1.3,0,0,0,.1-.6Z" style="fill: #fff"/>
          <path d="M575.1,207.7a4.9,4.9,0,0,0,2.5.5c1.3-.1,1.9-.9,1.8-1.7s-.6-1.3-2-1.7-2.9-1.4-3-2.6,1.1-3.1,3.3-3.3a4.7,4.7,0,0,1,2.5.4l-.3,1.4a3.9,3.9,0,0,0-2.1-.4c-1.1.1-1.7.8-1.6,1.5s.7,1.2,2.1,1.6,2.7,1.3,2.9,2.8-1.1,3.1-3.5,3.3a5.3,5.3,0,0,1-2.9-.4Z" style="fill: #fff"/>
        </g>
      </g>
      <g class="hoverable" id="tarifas" onclick="showInstrument('economicos', 'comando_y_control', 'tarifas');">
        <path d="M715.6,386.5,482.2,330.6a378.2,378.2,0,0,0,7.5-42.3L728,316.7A589.5,589.5,0,0,1,715.6,386.5Z" style="fill: #d36caf"/>
        <g>
          <path d="M528.5,311.2l-4.2-.8.2-1.5,10.4,1.8-.3,1.5-4.3-.7-2.1,12.4-1.8-.3Z" style="fill: #fff"/>
          <path d="M538.2,325.6v-1.3h0a3.9,3.9,0,0,1-3.3,1,2.9,2.9,0,0,1-2.6-3.4c.4-2.5,2.8-3.4,6.7-2.7V319c.1-.9.2-2.4-1.9-2.7a4.2,4.2,0,0,0-2.7.3l-.2-1.3a5.5,5.5,0,0,1,3.4-.3c3.1.5,3.5,2.7,3.1,4.7l-.6,3.8a10.5,10.5,0,0,0-.3,2.4Zm.6-5.2c-2-.3-4.3-.4-4.6,1.6a1.6,1.6,0,0,0,1.4,2,2.6,2.6,0,0,0,2.7-1.3.8.8,0,0,0,.2-.5Z" style="fill: #fff"/>
          <path d="M543.8,319.5c.2-1.2.3-2.2.4-3.2l1.6.3-.2,2h0a3.1,3.1,0,0,1,3.2-1.7h.5l-.3,1.7h-.6a2.7,2.7,0,0,0-2.9,1.9,3.1,3.1,0,0,1-.2.8l-.9,5.4-1.8-.3Z" style="fill: #fff"/>
          <path d="M549.5,327.5l1.7-10,1.8.3-1.7,10Zm4.2-12.4a1.2,1.2,0,0,1-2.3-.4,1.2,1.2,0,1,1,2.3.4Z" style="fill: #fff"/>
          <path d="M554.5,328.4l1.5-8.6-1.4-.3.2-1.4,1.4.3v-.5a5,5,0,0,1,1.7-3.3,4.1,4.1,0,0,1,2.6-.5,3.6,3.6,0,0,1,1.5.6l-.4,1.3a2.8,2.8,0,0,0-1.2-.4c-1.5-.3-2.1,1-2.4,2.6v.5l2.4.4-.2,1.4-2.4-.4-1.5,8.6Z" style="fill: #fff"/>
          <path d="M565.9,330.4v-1.3h-.1a3.6,3.6,0,0,1-3.3.9,2.9,2.9,0,0,1-2.6-3.4c.4-2.4,2.8-3.4,6.7-2.7v-.2a2.1,2.1,0,0,0-1.9-2.7,6.1,6.1,0,0,0-2.7.3l-.2-1.3a6.3,6.3,0,0,1,3.4-.3c3.1.5,3.5,2.8,3.1,4.8l-.6,3.7a11.2,11.2,0,0,0-.3,2.4Zm.6-5.2c-2-.4-4.3-.4-4.6,1.5a1.7,1.7,0,0,0,1.4,2.1,2.5,2.5,0,0,0,2.7-1.3,1.4,1.4,0,0,0,.2-.6Z" style="fill: #fff"/>
          <path d="M570.4,329.2a4.6,4.6,0,0,0,2.3,1.2,1.7,1.7,0,0,0,2.2-1.2c.1-.9-.3-1.4-1.6-2.2s-2.4-2.1-2.1-3.3,1.8-2.7,3.9-2.3a6,6,0,0,1,2.4,1l-.7,1.3a3.7,3.7,0,0,0-2-.9,1.5,1.5,0,0,0-1.9,1c-.1.9.4,1.3,1.6,2.1s2.4,1.9,2.1,3.4-1.8,2.8-4.2,2.4a5.2,5.2,0,0,1-2.7-1.2Z" style="fill: #fff"/>
        </g>
      </g>
      <g class="hoverable" id="peajes" onclick="showInstrument('economicos', 'comando_y_control', 'peajes');">
        <path d="M728.9,309.3,490.2,283.8a379.5,379.5,0,0,0,2.2-39.9c0-1.1,0-2.1-.1-3.2l240-2.1c.1,1.7.1,3.5.1,5.3A620.1,620.1,0,0,1,728.9,309.3Z" style="fill: #d36caf"/>
        <g>
          <path d="M531.6,256.4h3.5a5.8,5.8,0,0,1,3.9,1.4,3.7,3.7,0,0,1,1,3,3.7,3.7,0,0,1-1.2,2.9,5.7,5.7,0,0,1-4.4,1.4,5.7,5.7,0,0,1-1.5-.3l-.3,5.7h-1.8Zm1.4,7,1.5.2c2.2.1,3.6-.9,3.7-2.8s-1.1-2.9-3.2-3h-1.7Z" style="fill: #fff"/>
          <path d="M542.6,266.3a3.3,3.3,0,0,0,3.3,3.7,7.8,7.8,0,0,0,2.9-.3l.2,1.3a7.6,7.6,0,0,1-3.4.4c-3.1-.1-4.9-2.3-4.7-5.4s2.1-5.3,5.1-5.2,4,3.2,3.9,5.1c0,.3-.1.6-.1.8Zm5.5-1c.1-1.2-.3-3-2.4-3.1s-2.7,1.5-3,2.8Z" style="fill: #fff"/>
          <path d="M557.5,271.9v-1.3h-.1a3.5,3.5,0,0,1-3.1,1.3,2.9,2.9,0,0,1-3-3c.1-2.5,2.4-3.7,6.3-3.5v-.2a2.1,2.1,0,0,0-2.1-2.5,5.7,5.7,0,0,0-2.7.6l-.4-1.2a6.1,6.1,0,0,1,3.4-.7c3.1.2,3.7,2.3,3.6,4.4l-.2,3.7a19.3,19.3,0,0,0,.1,2.5Zm0-5.2c-2-.2-4.3.1-4.4,2a1.6,1.6,0,0,0,1.6,1.9,2.6,2.6,0,0,0,2.6-1.6,4.3,4.3,0,0,0,.1-.5Z" style="fill: #fff"/>
          <path d="M559.3,274.9a3.3,3.3,0,0,0,2.1-.6c.5-.6.8-1.4.9-3.8l.5-8.5h1.8l-.5,9.2c-.1,2-.5,3.2-1.5,4.1a4.2,4.2,0,0,1-3.2,1Zm5.7-15.6a1,1,0,0,1-1.2,1,1.1,1.1,0,0,1-1.1-1.2,1,1,0,0,1,1.2-1A1.1,1.1,0,0,1,565,259.3Z" style="fill: #fff"/>
          <path d="M568.4,267.7c-.1,2.5,1.4,3.7,3.2,3.8a7.1,7.1,0,0,0,2.9-.4l.2,1.3a7.3,7.3,0,0,1-3.4.5,4.8,4.8,0,0,1-4.7-5.4c.2-3.1,2.1-5.4,5.1-5.2s4,3.1,3.9,5a5.4,5.4,0,0,1-.1.8Zm5.4-1a2.6,2.6,0,0,0-2.4-3.1c-1.8-.1-2.7,1.6-3,2.8Z" style="fill: #fff"/>
          <path d="M577.4,271.1a5.2,5.2,0,0,0,2.4.9c1.4.1,2-.6,2.1-1.4s-.5-1.4-1.8-2-2.6-1.8-2.5-3,1.4-2.9,3.6-2.8a5.3,5.3,0,0,1,2.5.8l-.6,1.3a3.1,3.1,0,0,0-2-.7,1.5,1.5,0,0,0-1.8,1.3c0,.8.6,1.2,1.9,1.8s2.5,1.7,2.5,3.2-1.6,3-4,2.8a4.9,4.9,0,0,1-2.8-.8Z" style="fill: #fff"/>
        </g>
      </g>
      <g class="hoverable" id="licencias_y_permisos" onclick="showInstrument('economicos', 'comando_y_control', 'licencias_y_permisos');">
        <path d="M692.5,461.4,468.2,376a397.4,397.4,0,0,0,12.9-41l232.7,58.7A632.9,632.9,0,0,1,692.5,461.4Z" style="fill: #d36caf"/>
        <g>
          <path d="M516.9,360.3l1.7.5-3.8,12,5.7,1.9-.4,1.4-7.5-2.3Z" style="fill: #fff"/>
          <path d="M522,376.7l3-9.6,1.8.5-3.1,9.7Zm5.9-11.7a1.1,1.1,0,0,1-1.5.7,1.1,1.1,0,0,1-.7-1.4,1.1,1.1,0,0,1,1.4-.8A1.2,1.2,0,0,1,527.9,365Z" style="fill: #fff"/>
          <path d="M533.7,380.1a6.9,6.9,0,0,1-3-.3,4.8,4.8,0,0,1-3.2-6.5,5.1,5.1,0,0,1,6.8-3.5,6.1,6.1,0,0,1,2.3,1.3l-.9,1.2a3.6,3.6,0,0,0-1.9-1.1c-2.2-.7-3.9.5-4.5,2.6a3.4,3.4,0,0,0,2.2,4.7,6.6,6.6,0,0,0,2.3.2Z" style="fill: #fff"/>
          <path d="M537.9,376.9a3.3,3.3,0,0,0,2.3,4.4,5.8,5.8,0,0,0,2.8.3V383a7.6,7.6,0,0,1-3.4-.4,4.7,4.7,0,0,1-3.2-6.4c.9-3,3.4-4.7,6.2-3.8s3.1,4,2.5,5.8a2.2,2.2,0,0,1-.3.8Zm5.6.3c.3-1.1.4-3-1.6-3.6s-3,.8-3.6,2Z" style="fill: #fff"/>
          <path d="M547.8,377.2c.3-1,.5-1.8.7-2.6l1.6.5-.4,1.6h0a3.7,3.7,0,0,1,3.8-.8c1.3.4,3.2,1.9,2.1,5.2l-1.9,5.8-1.7-.6,1.8-5.5c.5-1.6.3-3.1-1.4-3.6a2.5,2.5,0,0,0-2.9,1l-.4.8-1.8,5.8-1.8-.5Z" style="fill: #fff"/>
          <path d="M563.6,389.7a9.5,9.5,0,0,1-2.9-.4c-3-.9-4.2-3.5-3.3-6.5a5.2,5.2,0,0,1,6.9-3.4,5.5,5.5,0,0,1,2.2,1.2l-.8,1.3a3.6,3.6,0,0,0-1.9-1.1c-2.2-.7-3.9.5-4.6,2.5s.3,4.1,2.2,4.7a4.9,4.9,0,0,0,2.3.2Z" style="fill: #fff"/>
          <path d="M565.6,390.7l3.1-9.7,1.7.6-3.1,9.6Zm5.9-11.8a1.1,1.1,0,0,1-1.5.7,1.1,1.1,0,0,1-.7-1.4,1.2,1.2,0,0,1,1.5-.8A1.2,1.2,0,0,1,571.5,378.9Z" style="fill: #fff"/>
          <path d="M575.6,393.9l.3-1.3h-.1a3.8,3.8,0,0,1-3.4.5,2.9,2.9,0,0,1-2.1-3.7c.8-2.4,3.2-3,7-1.8v-.2a2,2,0,0,0-1.4-2.9,5.4,5.4,0,0,0-2.8-.1v-1.3a5.8,5.8,0,0,1,3.4.2c3,.9,3.1,3.2,2.4,5.1l-1.1,3.6a14,14,0,0,0-.6,2.4Zm1.3-5c-1.9-.7-4.2-1.1-4.8.8a1.7,1.7,0,0,0,1.2,2.2,2.5,2.5,0,0,0,2.8-.8l.3-.6Z" style="fill: #fff"/>
          <path d="M580.2,393.4a4.8,4.8,0,0,0,2.1,1.4c1.3.4,2.1,0,2.4-.8s-.1-1.5-1.3-2.4-2-2.4-1.7-3.5,2.2-2.5,4.3-1.8a5.1,5.1,0,0,1,2.2,1.3l-.9,1.2a3.7,3.7,0,0,0-1.8-1.2,1.5,1.5,0,0,0-2,.8c-.3.8.2,1.3,1.3,2.2s2.1,2.3,1.6,3.7-2.2,2.5-4.5,1.8a5.1,5.1,0,0,1-2.5-1.5Z" style="fill: #fff"/>
          <path d="M595.8,389.6l.3,6.4v2.2h0l1.3-1.8,3.7-5.1,1.9.6-4.9,6.1c-2.3,2.9-3.7,4.3-5.2,5a4.5,4.5,0,0,1-2.6.4v-1.6l1.8-.3a8.3,8.3,0,0,0,2.1-1.5l.3-.4v-.5l-.7-10.1Z" style="fill: #fff"/>
          <path d="M610,390.2a15.3,15.3,0,0,1,3.5.8,5.6,5.6,0,0,1,3.4,2.3,4.3,4.3,0,0,1,.3,3.2,4.5,4.5,0,0,1-2,2.6,6,6,0,0,1-4.6.1l-1.4-.5-1.7,5.4-1.7-.6Zm-.3,7a2.6,2.6,0,0,0,1.4.6c2.1.7,3.7.1,4.3-1.8s-.4-3-2.3-3.6a5.4,5.4,0,0,0-1.7-.4Z" style="fill: #fff"/>
          <path d="M618.3,402.5c-.7,2.4.5,3.9,2.2,4.4a6.6,6.6,0,0,0,2.9.4v1.3a7.6,7.6,0,0,1-3.4-.4,4.7,4.7,0,0,1-3.2-6.4c.9-2.9,3.3-4.7,6.2-3.8s3.1,4.1,2.5,5.9l-.3.8Zm5.5.4c.4-1.1.5-3-1.5-3.6s-3.1.8-3.6,2Z" style="fill: #fff"/>
          <path d="M628,403.3a31.9,31.9,0,0,0,.9-3.1l1.5.5-.5,1.9h.1a2.9,2.9,0,0,1,3.3-1.3l.5.2-.5,1.7-.6-.3a2.7,2.7,0,0,0-3.1,1.5l-.3.8-1.7,5.2-1.7-.6Z" style="fill: #fff"/>
          <path d="M634.8,405c.3-1,.5-1.8.7-2.7l1.6.5-.5,1.6h.1a3.6,3.6,0,0,1,3.6-.8,3,3,0,0,1,2.1,2.8h.1a5.5,5.5,0,0,1,1.4-.9,3.9,3.9,0,0,1,2.4,0c1.3.4,2.9,1.9,1.8,5.2l-1.8,5.8-1.7-.6,1.8-5.5c.5-1.8.2-3.2-1.2-3.6a2.4,2.4,0,0,0-2.6.9,5.9,5.9,0,0,0-.4.8l-1.9,6-1.7-.5,1.8-5.8c.5-1.6.2-2.9-1.2-3.3a2.4,2.4,0,0,0-2.7,1,3,3,0,0,0-.4.8l-1.9,5.9-1.7-.6Z" style="fill: #fff"/>
          <path d="M649.2,417.4l3.1-9.7,1.7.5-3.1,9.7Zm5.9-11.8a1.1,1.1,0,0,1-1.5.7,1.1,1.1,0,0,1-.7-1.4,1.2,1.2,0,0,1,1.5-.8A1.2,1.2,0,0,1,655.1,405.6Z" style="fill: #fff"/>
          <path d="M654.2,417a4.8,4.8,0,0,0,2.1,1.4c1.3.4,2.1,0,2.3-.8s0-1.5-1.2-2.4-2-2.4-1.7-3.5,2.2-2.5,4.3-1.8a5.2,5.2,0,0,1,2.2,1.4l-.9,1.1a3.7,3.7,0,0,0-1.8-1.2,1.5,1.5,0,0,0-2,.8c-.3.8.2,1.4,1.3,2.2s2.1,2.3,1.6,3.8-2.3,2.4-4.6,1.7a6.2,6.2,0,0,1-2.5-1.5Z" style="fill: #fff"/>
          <path d="M672.1,419.3a5,5,0,0,1-6.4,3.6c-2.7-.9-4.1-3.4-3.1-6.5s3.8-4.5,6.5-3.6S673.1,416.3,672.1,419.3Zm-7.7-2.4c-.7,2.1,0,4.1,1.8,4.7s3.4-.7,4.1-2.9.4-3.9-1.7-4.6S665,415.1,664.4,416.9Z" style="fill: #fff"/>
          <path d="M673.1,423a4.9,4.9,0,0,0,2.1,1.5c1.3.4,2.1-.1,2.3-.9s0-1.4-1.2-2.3-2-2.4-1.7-3.6,2.2-2.4,4.3-1.8a5.2,5.2,0,0,1,2.2,1.4l-.9,1.1a4.6,4.6,0,0,0-1.8-1.2,1.5,1.5,0,0,0-2,.8c-.3.8.2,1.4,1.3,2.3s2.1,2.3,1.6,3.7-2.2,2.5-4.5,1.7a6,6,0,0,1-2.6-1.5Z" style="fill: #fff"/>
        </g>
      </g>
      <g class="hoverable" onclick="returnToTypesInstrument(); changeImage('economicos/E_Herramienta_Segundo_Plano');">
        <path d="M445.3,368.3,279.4,309.2a159.2,159.2,0,0,0-5.9-120.5l159.3-75.1A331.3,331.3,0,0,1,464.6,256,334.4,334.4,0,0,1,445.3,368.3Z" style="fill: #3f3793"/>
        <path d="M432.9,363.7,273.7,306.9a153.4,153.4,0,0,0-5.6-115.6l152.8-72.1a317.7,317.7,0,0,1,30.5,136.7A320.6,320.6,0,0,1,432.9,363.7Z" style="fill: #d36caf"/>
        <g>
          <path d="M314.6,239.8a9.7,9.7,0,0,1-4.1.7c-4.4,0-7.7-2.7-7.7-7.8a7.7,7.7,0,0,1,8.1-8.1,8,8,0,0,1,3.7.7l-.5,1.6a6.8,6.8,0,0,0-3.1-.7c-3.7,0-6.1,2.4-6.1,6.4s2.2,6.3,6,6.3a7.6,7.6,0,0,0,3.2-.7Z" style="fill: #fff"/>
          <path d="M326.8,234.7c0,4.1-2.8,5.9-5.5,5.9s-5.4-2.2-5.4-5.8,2.5-5.9,5.6-5.9S326.8,231.3,326.8,234.7Zm-8.8.1c0,2.4,1.4,4.3,3.4,4.3s3.4-1.9,3.4-4.4-1-4.2-3.4-4.2S318,232.7,318,234.8Z" style="fill: #fff"/>
          <path d="M329.4,232.2a28.1,28.1,0,0,0-.1-3h1.8V231h.1a3.8,3.8,0,0,1,3.5-2.1,3.5,3.5,0,0,1,3.2,2.3h0a6.5,6.5,0,0,1,1.2-1.5,4.1,4.1,0,0,1,2.5-.8c1.5,0,3.7,1,3.7,4.9v6.5h-2V234c0-2.1-.8-3.4-2.4-3.4a2.5,2.5,0,0,0-2.4,1.8,3.6,3.6,0,0,0-.2,1v6.9h-2v-6.7c0-1.7-.7-3-2.3-3a2.8,2.8,0,0,0-2.5,2,3.4,3.4,0,0,0-.1,1v6.7h-2Z" style="fill: #fff"/>
          <path d="M354.7,240.3v-1.4h-.1a4,4,0,0,1-3.4,1.7,3.1,3.1,0,0,1-3.4-3.2c0-2.7,2.4-4.2,6.7-4.2V233a2.4,2.4,0,0,0-2.6-2.6,5.8,5.8,0,0,0-2.9.9l-.4-1.4a6.6,6.6,0,0,1,3.6-1c3.4,0,4.3,2.4,4.3,4.6v4.2a10.6,10.6,0,0,0,.2,2.6Zm-.3-5.7c-2.2,0-4.7.4-4.7,2.5a1.8,1.8,0,0,0,1.9,2,2.7,2.7,0,0,0,2.7-1.9,1.3,1.3,0,0,0,.1-.6Z" style="fill: #fff"/>
          <path d="M359.6,232.2v-3h1.7l.2,1.8h0a4.2,4.2,0,0,1,3.7-2.1c1.5,0,3.9,1,3.9,4.8v6.6h-2v-6.4c0-1.8-.7-3.3-2.6-3.3a2.9,2.9,0,0,0-2.7,2.1,2.5,2.5,0,0,0-.1.9v6.7h-2.1Z" style="fill: #fff"/>
          <path d="M382,224v13.4a25.3,25.3,0,0,0,.1,2.9h-1.8v-1.9h0a4.3,4.3,0,0,1-3.8,2.2c-2.7,0-4.8-2.3-4.8-5.7s2.3-6,5-6a3.6,3.6,0,0,1,3.3,1.7h.1V224Zm-2,9.7a2.2,2.2,0,0,0-.1-.8,3,3,0,0,0-2.9-2.4c-2.1,0-3.4,1.9-3.4,4.3s1.2,4.1,3.3,4.1a3.1,3.1,0,0,0,3-2.4,2.5,2.5,0,0,0,.1-.9Z" style="fill: #fff"/>
          <path d="M395.5,234.7c0,4.1-2.9,5.9-5.6,5.9s-5.3-2.2-5.3-5.8,2.4-5.9,5.5-5.9S395.5,231.3,395.5,234.7Zm-8.9.1c0,2.4,1.4,4.3,3.4,4.3s3.4-1.9,3.4-4.4-1-4.2-3.4-4.2S386.6,232.7,386.6,234.8Z" style="fill: #fff"/>
          <path d="M403.6,229.2l2.5,6.6.7,2.2h0c.2-.6.5-1.5.7-2.3l2.2-6.5h2.2l-3.1,7.9c-1.4,3.8-2.4,5.8-3.8,7a5.4,5.4,0,0,1-2.5,1.3l-.5-1.7a6.6,6.6,0,0,0,1.8-1,5.8,5.8,0,0,0,1.7-2.2l.2-.5-.2-.6-4.1-10.2Z" style="fill: #fff"/>
          <path d="M314.6,267.4a9.7,9.7,0,0,1-4.1.7c-4.4,0-7.7-2.7-7.7-7.8a7.7,7.7,0,0,1,8.1-8.1,8,8,0,0,1,3.7.7l-.5,1.6a6.8,6.8,0,0,0-3.1-.7c-3.7,0-6.1,2.4-6.1,6.4s2.2,6.3,6,6.3a7.6,7.6,0,0,0,3.2-.7Z" style="fill: #fff"/>
          <path d="M326.8,262.3c0,4.1-2.8,5.9-5.5,5.9s-5.4-2.2-5.4-5.8,2.5-5.9,5.6-5.9S326.8,258.9,326.8,262.3Zm-8.8.1c0,2.4,1.4,4.3,3.4,4.3s3.4-1.9,3.4-4.4-1-4.2-3.4-4.2S318,260.3,318,262.4Z" style="fill: #fff"/>
          <path d="M329.4,259.8a28.1,28.1,0,0,0-.1-3h1.8v1.8h0a4.4,4.4,0,0,1,3.7-2.1c1.6,0,3.9,1,3.9,4.8v6.6h-2v-6.4c0-1.8-.6-3.3-2.6-3.3a3,3,0,0,0-2.7,2.1,2.5,2.5,0,0,0-.1.9v6.7h-2Z" style="fill: #fff"/>
          <path d="M344.5,253.6v3.2h2.9v1.5h-2.9v6c0,1.4.4,2.2,1.5,2.2h1.2v1.5l-1.8.2a2.9,2.9,0,0,1-2.2-.8,4,4,0,0,1-.8-2.9v-6.1h-1.7v-1.5h1.7v-2.7Z" style="fill: #fff"/>
          <path d="M349.7,260.3c0-1.4-.1-2.5-.1-3.5h1.7V259h.1a3.4,3.4,0,0,1,3.1-2.5h.6v1.9h-.7a2.7,2.7,0,0,0-2.7,2.6,3.1,3.1,0,0,0-.1,1v5.9h-2Z" style="fill: #fff"/>
          <path d="M367,262.3c0,4.1-2.8,5.9-5.5,5.9s-5.4-2.2-5.4-5.8,2.5-5.9,5.6-5.9S367,258.9,367,262.3Zm-8.8.1c0,2.4,1.4,4.3,3.4,4.3s3.4-1.9,3.4-4.4-1-4.2-3.4-4.2S358.2,260.3,358.2,262.4Z" style="fill: #fff"/>
          <path d="M369.6,251.6h2v16.3h-2Z" style="fill: #fff"/>
        </g>
      </g>
    </g>
  </g>
</svg>
