<svg class="animate__animated" xmlns="http://www.w3.org/2000/svg" viewBox="0 0 732.8 669.9">
  <g id="Capa_2" data-name="Capa 2">
    <g id="Capa_1-2" data-name="Capa 1">
      <g class="hoverable" onclick="returnToGroups(); changeImage('rueda');">
        <circle cx="127.5" cy="380" r="127" style="fill: none;stroke: #aab8bd;stroke-miterlimit: 10"/>
        <circle cx="127.7" cy="378.2" r="105" style="fill: #bdc4c6"/>
        <g>
          <path d="M73.1,379.9H67.7v4.2h6v2.2H65.1V372h8.3v2.1H67.7v3.7h5.4Z" style="fill: #112025"/>
          <path d="M86.2,385.8a7.4,7.4,0,0,1-3.7.7c-4.5,0-7.2-2.9-7.2-7.2s3.2-7.5,7.6-7.5a8.4,8.4,0,0,1,3.5.6l-.6,2.1a6.9,6.9,0,0,0-2.8-.6c-2.9,0-5,1.9-5,5.3s1.8,5.1,5,5.1a7.8,7.8,0,0,0,2.8-.5Z" style="fill: #112025"/>
          <path d="M100.6,379c0,4.8-2.9,7.5-6.9,7.5s-6.5-3.1-6.5-7.3,2.7-7.4,6.7-7.4S100.6,374.9,100.6,379Zm-10.7.2c0,2.9,1.5,5.2,4,5.2s3.9-2.3,3.9-5.3-1.3-5.2-3.9-5.2S89.9,376.3,89.9,379.2Z" style="fill: #112025"/>
          <path d="M102.8,386.3V372h3l3.7,6.1c.9,1.6,1.7,3.3,2.4,4.8h0c-.1-1.9-.2-3.7-.2-5.9v-5h2.4v14.3h-2.7l-3.7-6.3c-.9-1.6-1.9-3.3-2.6-4.9h0c.1,1.8.1,3.7.1,6.1v5.1Z" style="fill: #112025"/>
          <path d="M129.8,379c0,4.8-2.9,7.5-6.9,7.5s-6.5-3.1-6.5-7.3,2.7-7.4,6.7-7.4S129.8,374.9,129.8,379Zm-10.7.2c0,2.9,1.5,5.2,4,5.2s3.9-2.3,3.9-5.3-1.3-5.2-3.9-5.2S119.1,376.3,119.1,379.2Zm7.4-10.5-2.7,2.5h-2l1.8-2.5Z" style="fill: #112025"/>
          <path d="M144.1,380.5c-.1-1.9-.2-4.1-.2-6h-.1a41.7,41.7,0,0,1-1.7,5.4l-2,6.2H138l-1.9-6.1c-.5-1.8-1-3.8-1.4-5.5h0c-.1,1.8-.2,4.1-.3,6l-.3,5.8h-2.4l.9-14.3H136l1.9,5.7c.5,1.7,1,3.4,1.3,5h.1c.4-1.6.8-3.3,1.4-5l2-5.7H146l.9,14.3h-2.6Z" style="fill: #112025"/>
          <path d="M152.1,372v14.3h-2.6V372Z" style="fill: #112025"/>
          <path d="M165.3,385.8a7.2,7.2,0,0,1-3.6.7c-4.6,0-7.3-2.9-7.3-7.2s3.2-7.5,7.6-7.5a8.4,8.4,0,0,1,3.5.6l-.6,2.1a6.9,6.9,0,0,0-2.8-.6c-2.9,0-5,1.9-5,5.3s1.8,5.1,5,5.1a7.8,7.8,0,0,0,2.8-.5Z" style="fill: #112025"/>
          <path d="M179.7,379c0,4.8-2.9,7.5-6.9,7.5s-6.5-3.1-6.5-7.3,2.7-7.4,6.7-7.4S179.7,374.9,179.7,379Zm-10.7.2c0,2.9,1.5,5.2,4,5.2s3.9-2.3,3.9-5.3-1.3-5.2-3.9-5.2S169,376.3,169,379.2Z" style="fill: #112025"/>
          <path d="M181.8,383.4a7.5,7.5,0,0,0,3.5.9c1.7,0,2.6-.7,2.6-1.9s-.7-1.7-2.5-2.4-3.9-2.1-3.9-4.1,2-4.1,5-4.1a7.7,7.7,0,0,1,3.5.7l-.7,2.1a5.6,5.6,0,0,0-2.8-.7c-1.7,0-2.4.9-2.4,1.7s.9,1.6,2.8,2.4,3.6,2.2,3.6,4.2-1.7,4.3-5.4,4.3a7.9,7.9,0,0,1-3.8-.9Z" style="fill: #112025"/>
        </g>
      </g>
      <g class="hoverable" onclick="returnToTypesInstrument(); changeImage('economicos/E_Herramienta_Segundo_Plano');">
        <path d="M430,252a308.2,308.2,0,0,0-47.2-74L248.5,287.2a136.8,136.8,0,0,1,16.8,162.3l150.1,86.1a305.6,305.6,0,0,0,40.8-127.4A309,309,0,0,0,430,252Z" style="fill: #d16bad"/>
        <path d="M433,248a308.2,308.2,0,0,0-47.2-74l-8.6,7a309.2,309.2,0,0,1,70,226.2c-3.9,42.6-18.9,85.8-40.6,124.2l9,5c24.2-40.5,39.4-86.7,43.6-132.2A309,309,0,0,0,433,248Z" style="fill: #332c91"/>
        <g>
          <path d="M305.4,353.2h-6v5.6h6.7v1.7h-8.7V345h8.4v1.7h-6.4v4.9h6Z" style="fill: #fff"/>
          <path d="M316.5,360.1a7.1,7.1,0,0,1-3.2.6c-3.4,0-5.5-2.2-5.5-5.6a5.6,5.6,0,0,1,5.9-5.9,8.2,8.2,0,0,1,2.8.5l-.4,1.6a4.8,4.8,0,0,0-2.4-.5c-2.5,0-3.9,1.8-3.9,4.2a3.8,3.8,0,0,0,3.9,4.1,7.3,7.3,0,0,0,2.5-.5Z" style="fill: #fff"/>
          <path d="M328.8,354.9c0,4.1-2.8,5.9-5.5,5.9s-5.4-2.2-5.4-5.8,2.5-5.9,5.5-5.9S328.8,351.5,328.8,354.9Zm-8.8.1c0,2.4,1.4,4.2,3.4,4.2s3.3-1.8,3.3-4.3-.9-4.3-3.3-4.3S320,352.9,320,355Z" style="fill: #fff"/>
          <path d="M331.4,352.4c0-1.2-.1-2.1-.1-3h1.8v1.8h0a4.4,4.4,0,0,1,3.7-2.1c1.5,0,3.9.9,3.9,4.8v6.6h-2v-6.4c0-1.8-.7-3.3-2.6-3.3a3,3,0,0,0-2.7,2.1,2.5,2.5,0,0,0-.1.9v6.7h-2Z" style="fill: #fff"/>
          <path d="M354.2,354.9c0,4.1-2.9,5.9-5.5,5.9s-5.4-2.2-5.4-5.8,2.5-5.9,5.5-5.9S354.2,351.5,354.2,354.9Zm-8.8.1c0,2.4,1.4,4.2,3.3,4.2s3.4-1.8,3.4-4.3-.9-4.3-3.3-4.3S345.4,352.9,345.4,355Zm6.4-10.4-2.8,3.3h-1.5l2.1-3.3Z" style="fill: #fff"/>
          <path d="M356.8,352.4c0-1.2-.1-2.1-.1-3h1.7v1.8h.1a3.7,3.7,0,0,1,3.5-2.1,3.1,3.1,0,0,1,3.1,2.3h.1a4.7,4.7,0,0,1,1.2-1.5,3.9,3.9,0,0,1,2.5-.8c1.5,0,3.6,1,3.6,4.9v6.5h-1.9v-6.3c0-2.1-.8-3.4-2.4-3.4a2.5,2.5,0,0,0-2.4,1.8,3.6,3.6,0,0,0-.2,1v6.9h-2v-6.7c0-1.7-.8-3-2.3-3a2.7,2.7,0,0,0-2.5,2,3.6,3.6,0,0,0-.2,1v6.7h-1.9Z" style="fill: #fff"/>
          <path d="M378.2,346.3a1.2,1.2,0,0,1-1.3,1.2,1.2,1.2,0,0,1-1.2-1.2,1.2,1.2,0,0,1,1.2-1.3A1.2,1.2,0,0,1,378.2,346.3Zm-2.3,14.2V349.4H378v11.1Z" style="fill: #fff"/>
          <path d="M389.3,360.1a7.8,7.8,0,0,1-3.2.6,5.2,5.2,0,0,1-5.6-5.6,5.6,5.6,0,0,1,6-5.9,8.8,8.8,0,0,1,2.8.5l-.5,1.6a4.1,4.1,0,0,0-2.3-.5c-2.6,0-3.9,1.8-3.9,4.2a3.8,3.8,0,0,0,3.8,4.1,6.8,6.8,0,0,0,2.5-.5Z" style="fill: #fff"/>
          <path d="M401.6,354.9c0,4.1-2.9,5.9-5.6,5.9s-5.3-2.2-5.3-5.8,2.4-5.9,5.5-5.9S401.6,351.5,401.6,354.9Zm-8.9.1c0,2.4,1.4,4.2,3.4,4.2s3.4-1.8,3.4-4.3-1-4.3-3.3-4.3S392.7,352.9,392.7,355Z" style="fill: #fff"/>
          <path d="M403.8,358.4a5.4,5.4,0,0,0,2.7.8c1.5,0,2.2-.7,2.2-1.6s-.6-1.5-2.1-2.1-3-1.8-3-3.1,1.5-3.3,3.9-3.3a6.2,6.2,0,0,1,2.7.7l-.5,1.5a3.9,3.9,0,0,0-2.3-.7,1.6,1.6,0,0,0-1.8,1.6c0,.9.6,1.3,2.1,1.8s2.9,1.8,2.9,3.4-1.5,3.3-4.1,3.3a7.2,7.2,0,0,1-3.2-.7Z" style="fill: #fff"/>
          <path d="M307.4,382.5c0,4.1-2.8,5.9-5.5,5.9s-5.4-2.2-5.4-5.8,2.5-5.9,5.6-5.9S307.4,379.1,307.4,382.5Zm-8.8.1c0,2.4,1.4,4.2,3.4,4.2s3.3-1.8,3.3-4.3-.9-4.3-3.3-4.3S298.6,380.5,298.6,382.6Z" style="fill: #fff"/>
          <path d="M324.5,371.8v13.4a25.3,25.3,0,0,0,.1,2.9h-1.9v-1.9h0a4.2,4.2,0,0,1-3.8,2.2c-2.7,0-4.8-2.3-4.8-5.7s2.3-6,5-6a3.8,3.8,0,0,1,3.4,1.7h0v-6.6Zm-2.1,9.7a2.2,2.2,0,0,0-.1-.8,3,3,0,0,0-2.9-2.4c-2.1,0-3.3,1.9-3.3,4.3s1.1,4.1,3.3,4.1a3,3,0,0,0,2.9-2.4,2.5,2.5,0,0,0,.1-.9Z" style="fill: #fff"/>
          <path d="M328.9,382.9c.1,2.8,1.8,3.9,3.9,3.9a7.1,7.1,0,0,0,3-.6l.4,1.5a9.6,9.6,0,0,1-3.7.6c-3.4,0-5.5-2.2-5.5-5.6s2-6,5.2-6,4.6,3.2,4.6,5.3v.9Zm6-1.4c0-1.3-.5-3.3-2.8-3.3a3.3,3.3,0,0,0-3.1,3.3Z" style="fill: #fff"/>
          <path d="M357.3,381.3c-.1-2.2-.2-4.8-.2-6.7H357c-.5,1.8-1.1,3.8-1.9,5.9l-2.7,7.5h-1.6l-2.5-7.4q-1.1-3.2-1.8-6h0c-.1,1.9-.2,4.5-.3,6.9l-.4,6.6h-1.9l1.1-15.5h2.5l2.7,7.5c.6,1.9,1.1,3.6,1.5,5.2h.1c.4-1.5.9-3.2,1.6-5.2l2.8-7.5h2.5l1,15.5h-2Z" style="fill: #fff"/>
          <path d="M364,382.9a3.5,3.5,0,0,0,3.8,3.9,8.1,8.1,0,0,0,3.1-.6l.3,1.5a9.6,9.6,0,0,1-3.7.6c-3.4,0-5.5-2.2-5.5-5.6s2-6,5.3-6,4.6,3.2,4.6,5.3c0,.4-.1.7-.1.9Zm5.9-1.4c0-1.3-.5-3.3-2.8-3.3s-2.9,1.9-3.1,3.3Z" style="fill: #fff"/>
          <path d="M374.4,380.5c0-1.4-.1-2.5-.1-3.5H376v2.2h.1a3.4,3.4,0,0,1,3.1-2.5h.6v1.9h-.7a2.8,2.8,0,0,0-2.7,2.6,3.1,3.1,0,0,0-.1,1v5.9h-2Z" style="fill: #fff"/>
          <path d="M389.6,387.7a7.1,7.1,0,0,1-3.2.6c-3.4,0-5.5-2.2-5.5-5.6a5.6,5.6,0,0,1,5.9-5.9,8.2,8.2,0,0,1,2.8.5l-.4,1.6a4.8,4.8,0,0,0-2.4-.5c-2.5,0-3.9,1.8-3.9,4.2a3.8,3.8,0,0,0,3.9,4.1,6.2,6.2,0,0,0,2.4-.5Z" style="fill: #fff"/>
          <path d="M398.1,388.1v-1.4h-.1a4,4,0,0,1-3.4,1.7,3.1,3.1,0,0,1-3.4-3.2c0-2.7,2.4-4.2,6.7-4.2v-.2a2.3,2.3,0,0,0-2.5-2.6,4.6,4.6,0,0,0-2.9.9l-.5-1.4a6.7,6.7,0,0,1,3.7-1c3.4,0,4.2,2.4,4.2,4.6v4.1a11,11,0,0,0,.2,2.7Zm-.3-5.7c-2.2,0-4.7.4-4.7,2.5a1.9,1.9,0,0,0,1.9,2,2.7,2.7,0,0,0,2.7-1.9,1.3,1.3,0,0,0,.1-.6Z" style="fill: #fff"/>
          <path d="M412.7,371.8v13.4a25.3,25.3,0,0,0,.1,2.9h-1.9v-1.9h0a4.2,4.2,0,0,1-3.8,2.2c-2.7,0-4.8-2.3-4.8-5.7s2.3-6,5-6a3.8,3.8,0,0,1,3.4,1.7h0v-6.6Zm-2.1,9.7a2.2,2.2,0,0,0-.1-.8,3,3,0,0,0-2.9-2.4c-2.1,0-3.3,1.9-3.3,4.3s1.1,4.1,3.3,4.1a3,3,0,0,0,2.9-2.4,2.5,2.5,0,0,0,.1-.9Z" style="fill: #fff"/>
          <path d="M426.1,382.5c0,4.1-2.9,5.9-5.5,5.9s-5.4-2.2-5.4-5.8,2.5-5.9,5.5-5.9S426.1,379.1,426.1,382.5Zm-8.8.1c0,2.4,1.4,4.2,3.3,4.2s3.4-1.8,3.4-4.3-.9-4.3-3.3-4.3S417.3,380.5,417.3,382.6Z" style="fill: #fff"/>
        </g>
      </g>
      <g class="hoverable" id="compensaciones_de_cargas_estimulos_y_beneficios" onclick="showInstrument('economicos', 'economicos_o_de_mercado', 'compensaciones_de_cargas_estimulos_y_beneficios');">
        <path d="M438.2,183.6a392.1,392.1,0,0,0-24.6-35.4L602.3,0a598.7,598.7,0,0,1,40.5,58.2Z" style="fill: #d16bad"/>
        <g>
          <path d="M460.9,141.7a7.3,7.3,0,0,1-2,2.1,5.1,5.1,0,0,1-7.6-1.1c-2.2-2.8-1.5-6,1.2-8a6.2,6.2,0,0,1,2.3-1.2l.6,1.5a4.4,4.4,0,0,0-1.9,1c-1.8,1.3-2.2,3.3-.6,5.4a3.5,3.5,0,0,0,5.3.9,7.6,7.6,0,0,0,1.5-1.7Z" style="fill: #fff"/>
          <path d="M465.4,133.7a3.8,3.8,0,0,1-.7,5.7,3.7,3.7,0,0,1-5.5-.8,3.9,3.9,0,0,1,.7-5.8A3.7,3.7,0,0,1,465.4,133.7Zm-4.6,3.6c.9,1.2,2.1,1.7,3.1,1s.9-2.1-.1-3.3-2-1.8-3.1-1S460,136.3,460.8,137.3Z" style="fill: #fff"/>
          <path d="M465.6,131.7l-1.5-1.8,1.4-1,.7.9h.1a2.5,2.5,0,0,1,1.1-2.5,2.3,2.3,0,0,1,2.6-.1h0a3.2,3.2,0,0,1,.2-1.4,3.1,3.1,0,0,1,1-1.3c1-.8,2.6-.8,4.1,1.2l2.7,3.6-1.5,1.2-2.6-3.5c-.8-1-1.6-1.3-2.3-.8a1.4,1.4,0,0,0-.5,1.7l.3.6,2.8,3.7-1.5,1.2-2.7-3.7c-.7-.8-1.5-1.2-2.2-.6a1.5,1.5,0,0,0-.5,1.7l.3.6,2.8,3.7-1.6,1.1Z" style="fill: #fff"/>
          <path d="M476.3,124a19.9,19.9,0,0,0-1.6-2l1.4-1.1.8.9h0a3.4,3.4,0,0,1,1.3-2.7c1.5-1.1,3.6-.7,5,1.2s1.1,4.4-.3,5.5a2.8,2.8,0,0,1-2.4.5h0l2.4,3.2-1.6,1.2Zm2.8.4.3.4a1.8,1.8,0,0,0,2.2,0c1-.7,1-2,.1-3.2s-2.1-1.6-3.1-.8a1.8,1.8,0,0,0-.5,2.2c.1.1.1.3.2.4Z" style="fill: #fff"/>
          <path d="M485.8,119.2a2,2,0,0,0,3.1.2,4.5,4.5,0,0,0,1.5-1.6l1.1,1a8.6,8.6,0,0,1-1.9,2,3.7,3.7,0,0,1-5.6-.8c-1.3-1.7-1.5-4.1.5-5.6s4-.4,5,1l.5.7Zm1.9-3.1a1.6,1.6,0,0,0-2.4-.6,1.8,1.8,0,0,0-.3,2.6Z" style="fill: #fff"/>
          <path d="M489.7,113.6l-1.4-1.8,1.4-1,.8.8h0a2.8,2.8,0,0,1,1.2-2.6c1.1-.8,2.7-.9,4.2,1.1l2.8,3.7-1.6,1.1-2.6-3.5c-.7-.9-1.6-1.3-2.4-.7a2,2,0,0,0-.6,1.9,1,1,0,0,0,.4.5l2.7,3.7L493,118Z" style="fill: #fff"/>
          <path d="M498.9,111.3a4,4,0,0,0,2-.7c.7-.6.8-1.1.4-1.5s-.7-.4-1.7-.1-2.5.2-3-.6-.6-2.6.8-3.7a5.6,5.6,0,0,1,2-.9l.5,1.4a3.2,3.2,0,0,0-1.6.6c-.5.4-.7.9-.4,1.3s.8.4,1.8.1,2.4-.3,3.1.6.6,2.7-1.1,3.9a5.2,5.2,0,0,1-2.2,1Z" style="fill: #fff"/>
          <path d="M508.7,106.3l-.6-.7H508a2.9,2.9,0,0,1-1.2,2.2,2.3,2.3,0,0,1-3.3-.4c-1.2-1.6-.4-3.4,1.9-5.1h-.1a1.4,1.4,0,0,0-2.1-.2,4.8,4.8,0,0,0-1.3,1.7l-1.1-.7a5.5,5.5,0,0,1,1.9-2.3c2-1.5,3.5-.7,4.5.7l1.7,2.3,1.2,1.4Zm-2.5-2.9c-1.1.8-2,1.8-1.3,2.8a1.1,1.1,0,0,0,1.6.2,1.6,1.6,0,0,0,.5-1.8l-.2-.4Z" style="fill: #fff"/>
          <path d="M515.9,100.6a7.9,7.9,0,0,1-1.6,1.6,3.7,3.7,0,0,1-5.6-.7,4.1,4.1,0,0,1,1-6,5.5,5.5,0,0,1,1.8-.8l.6,1.4a2.7,2.7,0,0,0-1.4.6,2.3,2.3,0,0,0-.4,3.5,2.3,2.3,0,0,0,3.4.5,3.7,3.7,0,0,0,1.1-1.1Z" style="fill: #fff"/>
          <path d="M512.6,90.9a1,1,0,0,1-.3,1.5,1,1,0,0,1-1.5-.2,1.1,1.1,0,0,1,.3-1.5A1,1,0,0,1,512.6,90.9Zm4.3,9.2-4.7-6.2,1.6-1.2,4.7,6.2Z" style="fill: #fff"/>
          <path d="M523.5,90.2a4,4,0,1,1-5.5-.9A3.7,3.7,0,0,1,523.5,90.2Zm-4.7,3.6c.9,1.2,2.2,1.7,3.2.9s.8-2-.1-3.2-2-1.8-3.1-1S518.1,92.8,518.8,93.8Z" style="fill: #fff"/>
          <path d="M523.6,88.2l-1.4-1.8,1.4-1,.7.8h.1a2.5,2.5,0,0,1,1.2-2.5c1-.9,2.7-1,4.2,1l2.7,3.7L531,89.6,528.3,86c-.6-.9-1.5-1.3-2.3-.7a1.7,1.7,0,0,0-.6,1.9l.3.6,2.8,3.6-1.6,1.2Z" style="fill: #fff"/>
          <path d="M533.1,83.8a2.1,2.1,0,0,0,3.1.2,7.1,7.1,0,0,0,1.5-1.6l1.1.9a7,7,0,0,1-1.9,2,3.7,3.7,0,0,1-5.6-.7c-1.3-1.7-1.5-4.2.5-5.7s4-.3,5,1.1l.5.7Zm1.9-3.2a1.7,1.7,0,0,0-2.4-.5,1.9,1.9,0,0,0-.4,2.6Z" style="fill: #fff"/>
          <path d="M539.2,81.2a6,6,0,0,0,1.9-.8c.7-.5.8-1,.5-1.4s-.8-.5-1.7-.2-2.6.2-3.1-.5-.6-2.6.9-3.7a4,4,0,0,1,1.9-.9l.5,1.3a6.4,6.4,0,0,0-1.6.7.9.9,0,0,0-.3,1.3c.3.4.7.3,1.7,0s2.4-.2,3.1.7.6,2.6-1.1,3.8a4.3,4.3,0,0,1-2.2,1Z" style="fill: #fff"/>
          <path d="M546.7,63.5l5.5,7.4,1.4,1.7-1.4,1.1-.8-1h0a3,3,0,0,1-1.2,2.7c-1.5,1.1-3.6.7-5.1-1.2s-1.2-4.3.3-5.4a2.3,2.3,0,0,1,2.4-.5h0l-2.6-3.6Zm2.5,6.7-.3-.4a1.8,1.8,0,0,0-2.2-.1c-1,.8-.9,2.1,0,3.2s2,1.6,3,.8a1.6,1.6,0,0,0,.5-2.1c0-.2-.1-.3-.3-.5Z" style="fill: #fff"/>
          <path d="M554.1,68a2,2,0,0,0,3.1.2,4.5,4.5,0,0,0,1.5-1.6l1.1,1a8.6,8.6,0,0,1-1.9,2,3.7,3.7,0,0,1-5.6-.8c-1.3-1.7-1.5-4.1.5-5.6s4-.4,5,1l.5.7Zm1.9-3.1a1.7,1.7,0,0,0-2.4-.6,1.8,1.8,0,0,0-.3,2.6Z" style="fill: #fff"/>
          <path d="M568.2,61.4a7.9,7.9,0,0,1-1.6,1.6,3.7,3.7,0,0,1-5.6-.7,4.1,4.1,0,0,1,1-6,5.5,5.5,0,0,1,1.8-.8l.6,1.4a2.7,2.7,0,0,0-1.4.6,2.3,2.3,0,0,0-.4,3.5,2.3,2.3,0,0,0,3.4.6,5.4,5.4,0,0,0,1.1-1.2Z" style="fill: #fff"/>
          <path d="M572.7,58.3l-.6-.7h0a2.9,2.9,0,0,1-1.3,2.2,2.3,2.3,0,0,1-3.3-.4c-1.2-1.6-.4-3.4,1.9-5.1h0a1.4,1.4,0,0,0-2.1-.2,7,7,0,0,0-1.4,1.7l-1-.7a5,5,0,0,1,1.8-2.3c2-1.5,3.5-.6,4.5.7l1.7,2.3,1.2,1.4Zm-2.5-2.9c-1.1.8-2,1.8-1.3,2.8a1.1,1.1,0,0,0,1.6.2,1.7,1.7,0,0,0,.6-1.8c-.1-.1-.1-.3-.2-.4Z" style="fill: #fff"/>
          <path d="M572.3,52a12.6,12.6,0,0,0-1.6-2l1.4-1,1,1.1h0a2.2,2.2,0,0,1,.7-2.6l.4-.3,1.1,1.5-.5.3a1.9,1.9,0,0,0-.5,2.3l.3.5L577,55l-1.5,1.2Z" style="fill: #fff"/>
          <path d="M580.7,42.6l1.3,1.8,2.6,3.5a4.5,4.5,0,0,1,1.2,3.5A4.4,4.4,0,0,1,584,54a4.9,4.9,0,0,1-2.6,1.1l-.5-1.4a4.9,4.9,0,0,0,2.2-.9,2,2,0,0,0,.3-3.2L583,49h0a2.5,2.5,0,0,1-1.1,2.3c-1.6,1.2-3.6.7-4.9-1s-1.2-4.3.3-5.4a2.4,2.4,0,0,1,2.6-.4h0l-.6-.9Zm.2,3.7-.3-.4a1.7,1.7,0,0,0-2.1-.1c-.9.7-.9,2,0,3.2s2,1.5,3,.8a1.5,1.5,0,0,0,.5-1.9c0-.2-.2-.4-.3-.6Z" style="fill: #fff"/>
          <path d="M590.3,45.1l-.7-.6h0a3.1,3.1,0,0,1-1.2,2.3,2.4,2.4,0,0,1-3.4-.4c-1.2-1.6-.4-3.5,2-5.2h-.1c-.3-.4-1-.9-2.1-.1a4.1,4.1,0,0,0-1.3,1.7l-1.1-.8a4.8,4.8,0,0,1,1.8-2.2,2.9,2.9,0,0,1,4.6.7l1.7,2.2a9.8,9.8,0,0,0,1.2,1.5Zm-2.5-2.9c-1.2.8-2.1,1.9-1.3,2.8a1,1,0,0,0,1.5.3,1.6,1.6,0,0,0,.6-1.8.5.5,0,0,0-.2-.4Z" style="fill: #fff"/>
          <path d="M591.8,41.7a4.2,4.2,0,0,0,2-.8c.7-.5.8-1,.4-1.4s-.7-.5-1.7-.2-2.5.3-3-.5-.6-2.6.8-3.7a5.6,5.6,0,0,1,2-.9l.5,1.4a3.2,3.2,0,0,0-1.6.6c-.5.4-.7.9-.4,1.3s.8.4,1.8.1,2.4-.3,3.1.6.5,2.6-1.1,3.9a6.9,6.9,0,0,1-2.2,1Z" style="fill: #fff"/>
          <path d="M598.4,41.5a24,24,0,0,0-1.7-4l1.5-1.4a23.3,23.3,0,0,1,1.2,4.5Z" style="fill: #fff"/>
          <path d="M463.9,151.4a2,2,0,0,0,3.1.2,4.5,4.5,0,0,0,1.5-1.6l1.1,1a8.6,8.6,0,0,1-1.9,2,3.7,3.7,0,0,1-5.6-.8c-1.3-1.7-1.5-4.1.5-5.6s4-.4,5,1l.5.7Zm1.9-3.1a1.6,1.6,0,0,0-2.4-.6,1.8,1.8,0,0,0-.3,2.6Z" style="fill: #fff"/>
          <path d="M470,148.8a4,4,0,0,0,1.9-.7c.7-.6.8-1.1.5-1.5s-.8-.4-1.7-.1-2.6.2-3.1-.6-.6-2.6.9-3.7a5.3,5.3,0,0,1,1.9-.9l.5,1.4a2.9,2.9,0,0,0-1.5.6c-.6.4-.7.9-.4,1.3s.7.4,1.7.1,2.4-.3,3.1.6.6,2.6-1.1,3.9a4.3,4.3,0,0,1-2.2,1Z" style="fill: #fff"/>
          <path d="M472,137l1.3,1.8,1.5-1.1.9,1.1-1.5,1.2,2.1,2.7c.6.8,1.1,1,1.7.6l.5-.6.9,1.2a2.4,2.4,0,0,1-1,1,2,2,0,0,1-1.7.5,3,3,0,0,1-1.8-1.3l-2.2-3-.9.7-.9-1.2.9-.7-1.1-1.4Z" style="fill: #fff"/>
          <path d="M476.5,132.2l-.2,3.1-1.1.8-.3-2.7Zm3.9,11-4.6-6.2,1.6-1.2L482,142Z" style="fill: #fff"/>
          <path d="M480.2,136.6l-1.5-1.9,1.4-1,.8.9h0a2.7,2.7,0,0,1,1.1-2.5,2.3,2.3,0,0,1,2.6-.2h0a5.9,5.9,0,0,1,.2-1.4,3.1,3.1,0,0,1,1-1.3c1-.7,2.6-.8,4.1,1.2l2.8,3.7-1.6,1.1-2.6-3.4c-.7-1.1-1.6-1.4-2.3-.9a1.6,1.6,0,0,0-.5,1.7l.3.6,2.8,3.7-1.5,1.2-2.7-3.6c-.7-.9-1.5-1.3-2.2-.7a1.6,1.6,0,0,0-.5,1.7l.3.6,2.8,3.7-1.5,1.1Z" style="fill: #fff"/>
          <path d="M498.3,126.9a18.9,18.9,0,0,0,1.4,1.9l-1.4,1-.8-.9h0a2.8,2.8,0,0,1-1.2,2.6c-1.1.9-2.7,1-4.2-1.1l-2.7-3.6,1.5-1.2,2.6,3.4c.8,1,1.6,1.4,2.4.8a1.5,1.5,0,0,0,.6-1.7c-.1-.2-.1-.4-.3-.6l-2.8-3.7,1.6-1.2Z" style="fill: #fff"/>
          <path d="M494.3,118.6l1.6-1.2,6.8,9.1-1.6,1.2Z" style="fill: #fff"/>
          <path d="M507.7,117.8a4,4,0,0,1-.7,5.8,4.1,4.1,0,0,1-4.8-6.6A3.7,3.7,0,0,1,507.7,117.8Zm-4.7,3.6c.9,1.2,2.2,1.7,3.2,1s.8-2.1-.1-3.3-2-1.8-3.1-1S502.3,120.4,503,121.4Z" style="fill: #fff"/>
          <path d="M509.9,118.8a4,4,0,0,0,2-.7c.7-.5.8-1,.5-1.4s-.8-.5-1.8-.2-2.5.2-3-.5-.6-2.7.9-3.7a3.6,3.6,0,0,1,1.9-.9l.5,1.3a3.5,3.5,0,0,0-1.6.7,1,1,0,0,0-.4,1.3c.3.4.8.3,1.8,0s2.4-.2,3.1.7.6,2.6-1.1,3.8a5.2,5.2,0,0,1-2.2,1Z" style="fill: #fff"/>
          <path d="M514.9,107.7l3.6,2.5,1.3.9h0l-.6-1.5-1.5-4.1,1.7-1.2,1.6,5.4c.9,3,1.1,4.4.8,5.6a3.7,3.7,0,0,1-1,2.1l-1.4-1.1a1.7,1.7,0,0,0,.6-1.1,2.7,2.7,0,0,0,.2-1.6c-.1-.2-.1-.3-.2-.4s-.1-.1-.3-.2l-6.5-4Z" style="fill: #fff"/>
          <path d="M527.1,108.3l-1.3-1.8-5.5-7.4,1.6-1.1,2.8,3.7h0a2.8,2.8,0,0,1,1.2-2.5c1.6-1.2,3.6-.7,5,1.2s1.1,4.4-.3,5.4a2.6,2.6,0,0,1-2.8.5h0l.6,1Zm-.3-3.8.3.3a1.8,1.8,0,0,0,2.2.1c1-.8,1-2,.1-3.3s-2.1-1.6-3.1-.8a1.9,1.9,0,0,0-.6,2.2l.3.5Z" style="fill: #fff"/>
          <path d="M533.5,99.3c.8,1.1,2.1.9,3.1.2a7.1,7.1,0,0,0,1.5-1.6l1.1.9a7,7,0,0,1-1.9,2c-2.1,1.5-4.2,1.2-5.6-.7s-1.5-4.2.5-5.7,4-.3,5,1.1.4.5.4.7Zm1.9-3.2a1.8,1.8,0,0,0-2.5-.5,2,2,0,0,0-.3,2.6Z" style="fill: #fff"/>
          <path d="M537.4,93.7,536,91.9l1.4-1.1.7.9h.1a2.9,2.9,0,0,1,1.1-2.6c1.1-.8,2.8-1,4.3,1l2.7,3.7L544.8,95l-2.7-3.5c-.6-.9-1.5-1.3-2.3-.7a1.5,1.5,0,0,0-.6,1.8l.3.6,2.8,3.7-1.6,1.2Z" style="fill: #fff"/>
          <path d="M546.9,89.2a2,2,0,0,0,3.1.2,4.5,4.5,0,0,0,1.5-1.6l1.1,1a8.6,8.6,0,0,1-1.9,2,3.7,3.7,0,0,1-5.6-.8c-1.3-1.7-1.5-4.1.5-5.6s4-.4,5,1l.4.7Zm1.9-3.1a1.6,1.6,0,0,0-2.4-.6,1.9,1.9,0,0,0-.4,2.6Z" style="fill: #fff"/>
          <path d="M554.3,87.9l-3.8-5.1-.8.6-.9-1.1.8-.7-.2-.3c-1.3-1.7-.9-3.5,1-4.9a3.9,3.9,0,0,1,2-.9l.6,1.4a4.7,4.7,0,0,0-1.7.7,1.7,1.7,0,0,0-.3,2.6l.2.3,3.7-2.8,4.7,6.2L558,85.1,554.2,80l-2.1,1.6,3.8,5.1Z" style="fill: #fff"/>
          <path d="M565.5,79.2a6,6,0,0,1-1.6,1.6,3.7,3.7,0,0,1-5.6-.7,4.1,4.1,0,0,1,1-6,5.5,5.5,0,0,1,1.8-.8l.6,1.4a3.3,3.3,0,0,0-1.4.6,2.4,2.4,0,0,0-.4,3.5,2.3,2.3,0,0,0,3.4.6,3.8,3.8,0,0,0,1.1-1.2Z" style="fill: #fff"/>
          <path d="M562.2,69.5a1,1,0,0,1-.3,1.5,1,1,0,0,1-1.5-.2,1.1,1.1,0,0,1,.3-1.5A1,1,0,0,1,562.2,69.5Zm4.3,9.2-4.7-6.2,1.6-1.2,4.7,6.2Z" style="fill: #fff"/>
          <path d="M573.1,68.8a3.8,3.8,0,0,1-.7,5.7,3.8,3.8,0,0,1-5.6-.8,4,4,0,0,1,.8-5.8A3.7,3.7,0,0,1,573.1,68.8Zm-4.7,3.6c.9,1.2,2.2,1.7,3.2,1s.8-2.1-.1-3.3-2-1.8-3.1-1S567.6,71.4,568.4,72.4Z" style="fill: #fff"/>
          <path d="M575.3,69.8a4,4,0,0,0,2-.7c.7-.5.8-1.1.5-1.5s-.8-.4-1.8-.1-2.5.2-3-.5-.6-2.7.9-3.8a3.4,3.4,0,0,1,1.9-.8l.5,1.3a4.6,4.6,0,0,0-1.6.6,1.2,1.2,0,0,0-.4,1.4c.3.4.8.3,1.8,0s2.4-.2,3.1.7.6,2.6-1.1,3.8a5.2,5.2,0,0,1-2.2,1Z" style="fill: #fff"/>
        </g>
      </g>
      <g class="hoverable" id="transferencias_de_derechos_de_construccion" onclick="showInstrument('economicos', 'economicos_o_de_mercado', 'transferencias_de_derechos_de_construccion');">
        <path d="M460.4,228.6a372.7,372.7,0,0,0-19.9-38.1l206.2-123a647.9,647.9,0,0,1,32.7,63Z" style="fill: #d16bad"/>
        <g>
          <path d="M485.2,184.5l-2.7,1.5-.8-1.5,7.2-3.9.8,1.5-2.7,1.5,4.4,8-1.8.9Z" style="fill: #fff"/>
          <path d="M491.6,185.4l-1.3-2.2,1.5-.8.8,1.3h.1a2.3,2.3,0,0,1,1-2.5l.4-.2.9,1.6-.5.2a1.8,1.8,0,0,0-.8,2.2,1.4,1.4,0,0,0,.2.6l2,3.5-1.8.9Z" style="fill: #fff"/>
          <path d="M502.6,185.4l-.6-.7h0a2.8,2.8,0,0,1-1.5,2.1,2.4,2.4,0,0,1-3.3-.9c-.9-1.7.1-3.4,2.6-4.8h0c-.3-.5-.9-1.1-2.1-.4a3.6,3.6,0,0,0-1.5,1.5l-1-1a6.1,6.1,0,0,1,2.2-1.9c2.1-1.2,3.5-.2,4.4,1.3l1.3,2.5,1,1.6Zm-2.1-3.2c-1.2.6-2.3,1.5-1.7,2.6a1,1,0,0,0,1.5.4,1.7,1.7,0,0,0,.9-1.7c-.1-.1-.1-.3-.2-.4Z" style="fill: #fff"/>
          <path d="M502.9,179a11.7,11.7,0,0,0-1.2-2l1.6-.9.6,1h.1a2.6,2.6,0,0,1,1.5-2.4c1.2-.6,2.8-.6,4,1.6l2.2,4.1-1.7.9-2.1-3.8c-.5-1-1.3-1.6-2.3-1.1a1.9,1.9,0,0,0-.7,1.8,1.4,1.4,0,0,0,.2.6l2.2,4-1.7,1Z" style="fill: #fff"/>
          <path d="M512.3,178a5.4,5.4,0,0,0,2.1-.5c.7-.4.9-.9.6-1.4s-.6-.5-1.6-.3-2.6-.2-3-1-.2-2.7,1.4-3.6a7.1,7.1,0,0,1,2-.6l.4,1.5a2.4,2.4,0,0,0-1.7.4c-.6.3-.8.8-.6,1.2s.7.5,1.8.3,2.4.1,2.9,1.1.2,2.6-1.6,3.6a4.3,4.3,0,0,1-2.3.7Z" style="fill: #fff"/>
          <path d="M519.1,176.3l-3.1-5.5-.9.5-.7-1.3.9-.5-.2-.3a4,4,0,0,1-.4-2.8,2.8,2.8,0,0,1,1.4-1.6,2.4,2.4,0,0,1,1.2-.4l.6,1.4-.8.2c-.8.5-.7,1.4-.3,2.2l.2.4,1.5-.9.7,1.3-1.5.9,3.1,5.5Z" style="fill: #fff"/>
          <path d="M522.5,170.6a2.1,2.1,0,0,0,3.1.6,4.8,4.8,0,0,0,1.7-1.3l.9,1a6.5,6.5,0,0,1-2.1,1.8,3.7,3.7,0,0,1-5.4-1.5,3.9,3.9,0,0,1,1.3-5.6c2.2-1.2,3.9.3,4.7,1.8l.4.7Zm2.4-2.8c-.4-.7-1.2-1.6-2.4-.9a1.8,1.8,0,0,0-.6,2.5Z" style="fill: #fff"/>
          <path d="M527.3,165.8l-1.2-2.2,1.5-.8.7,1.3h.1a2.4,2.4,0,0,1,1-2.5h.5l.9,1.6-.6.2a1.8,1.8,0,0,0-.8,2.2c.1.1.1.3.2.5l2,3.6-1.7.9Z" style="fill: #fff"/>
          <path d="M534.1,164.3c.7,1.2,1.9,1.2,3,.6a6.6,6.6,0,0,0,1.8-1.4l.9,1.1a6.7,6.7,0,0,1-2.2,1.7,3.6,3.6,0,0,1-5.4-1.5c-1-1.9-.9-4.3,1.3-5.5s4,.2,4.8,1.7a1.6,1.6,0,0,1,.3.8Zm2.3-2.9a1.7,1.7,0,0,0-2.3-.9,2,2,0,0,0-.7,2.6Z" style="fill: #fff"/>
          <path d="M538.8,159.3c-.5-.8-.8-1.5-1.2-2l1.5-.9.7,1h0a2.9,2.9,0,0,1,1.5-2.4c1.2-.6,2.9-.5,4.1,1.6l2.2,4.1-1.7.9-2.2-3.8c-.5-1-1.3-1.6-2.2-1a1.5,1.5,0,0,0-.8,1.7,1.4,1.4,0,0,0,.2.6l2.2,4-1.7,1Z" style="fill: #fff"/>
          <path d="M554,156.8a4.3,4.3,0,0,1-1.7,1.5,3.8,3.8,0,0,1-5.4-1.6c-1.2-2-.6-4.4,1.8-5.7a3.5,3.5,0,0,1,1.8-.6l.4,1.4-1.4.5a2.3,2.3,0,0,0-.9,3.4,2.3,2.3,0,0,0,3.3,1,3.2,3.2,0,0,0,1.2-1Z" style="fill: #fff"/>
          <path d="M552.2,146.8a1,1,0,0,1-.5,1.4,1,1,0,0,1-1.4-.4.9.9,0,0,1,.4-1.4A1,1,0,0,1,552.2,146.8Zm3,9.7-3.8-6.8,1.7-1,3.8,6.9Z" style="fill: #fff"/>
          <path d="M562.3,152.6l-.5-.7h-.1a2.7,2.7,0,0,1-1.5,2,2.2,2.2,0,0,1-3.2-.8c-1-1.7.1-3.5,2.6-4.8h-.1c-.2-.5-.8-1.1-2-.5a4.7,4.7,0,0,0-1.6,1.5l-.9-.9a5.1,5.1,0,0,1,2.1-2c2.2-1.2,3.6-.1,4.4,1.4l1.4,2.4a7.4,7.4,0,0,0,1,1.6Zm-2-3.2c-1.3.6-2.3,1.5-1.7,2.6a1,1,0,0,0,1.5.4,1.6,1.6,0,0,0,.8-1.7v-.4Z" style="fill: #fff"/>
          <path d="M564.4,149.4a3.9,3.9,0,0,0,2-.5c.7-.4.9-.9.7-1.3s-.7-.6-1.7-.4-2.6-.2-3-1a2.6,2.6,0,0,1,1.4-3.5,3.7,3.7,0,0,1,2-.6l.4,1.4a3,3,0,0,0-1.7.4c-.6.3-.8.8-.5,1.2s.6.5,1.7.3,2.4.1,2.9,1.1.3,2.7-1.6,3.7a5.3,5.3,0,0,1-2.3.6Z" style="fill: #fff"/>
          <path d="M574.3,133l4.4,8.1a18.6,18.6,0,0,0,1.2,1.8l-1.6.9-.7-1.1h0a2.7,2.7,0,0,1-1.5,2.4c-1.7.9-3.7.2-4.9-1.9s-.6-4.4,1.1-5.3a2.6,2.6,0,0,1,2.4-.2h0l-2.1-3.8Zm1.6,6.9-.3-.4a1.8,1.8,0,0,0-2.2-.4c-1.1.6-1.1,1.9-.4,3.2a2,2,0,0,0,2.9,1.2,1.7,1.7,0,0,0,.8-2l-.3-.5Z" style="fill: #fff"/>
          <path d="M581,138.5a2.1,2.1,0,0,0,3.1.6,4.8,4.8,0,0,0,1.7-1.3l.9,1a8.5,8.5,0,0,1-2.2,1.8,3.7,3.7,0,0,1-5.4-1.6c-1-1.9-.9-4.3,1.3-5.5s4,.2,4.8,1.7l.4.8Zm2.3-2.8a1.6,1.6,0,0,0-2.3-.9,1.9,1.9,0,0,0-.7,2.5Z" style="fill: #fff"/>
          <path d="M488.8,195.2l2.6-1.7a7.4,7.4,0,0,1,4.5-1,5.2,5.2,0,0,1,3.4,2.7,5.9,5.9,0,0,1,.6,4.6,7.8,7.8,0,0,1-3.6,3.6,11.6,11.6,0,0,1-2.4,1.1Zm6.1,7.1,1-.5c2.2-1.2,2.9-3.2,1.6-5.6s-3-2.6-5.2-1.4l-1.1.7Z" style="fill: #fff"/>
          <path d="M502.7,195.9a2.2,2.2,0,0,0,3.1.6,4.8,4.8,0,0,0,1.7-1.3l.9,1a6.5,6.5,0,0,1-2.1,1.8,3.7,3.7,0,0,1-5.4-1.6c-1.1-1.9-.9-4.3,1.3-5.5s3.9.2,4.8,1.7.3.6.3.8Zm2.4-2.8c-.4-.7-1.2-1.6-2.4-.9a1.9,1.9,0,0,0-.6,2.5Z" style="fill: #fff"/>
          <path d="M507.5,191.1a19.9,19.9,0,0,0-1.2-2.2l1.5-.8.7,1.2h.1a2.3,2.3,0,0,1,1.1-2.5l.4-.2.9,1.7-.5.2a1.7,1.7,0,0,0-.9,2.1l.3.6,1.9,3.5-1.7,1Z" style="fill: #fff"/>
          <path d="M514.3,189.6a2.1,2.1,0,0,0,3.1.6,6.3,6.3,0,0,0,1.7-1.4l.9,1.1a8.4,8.4,0,0,1-2.2,1.7,3.7,3.7,0,0,1-5.4-1.5c-1-1.9-.9-4.3,1.3-5.5s4,.2,4.8,1.7a5.9,5.9,0,0,1,.4.8Zm2.3-2.9a1.7,1.7,0,0,0-2.3-.9,2,2,0,0,0-.7,2.6Z" style="fill: #fff"/>
          <path d="M526.5,186.4a6.9,6.9,0,0,1-1.7,1.4,3.6,3.6,0,0,1-5.4-1.6c-1.2-2-.6-4.4,1.8-5.7a7.6,7.6,0,0,1,1.8-.6l.4,1.5a3.3,3.3,0,0,0-1.4.4,2.3,2.3,0,0,0-.9,3.4,2.2,2.2,0,0,0,3.3,1,3.1,3.1,0,0,0,1.2-1Z" style="fill: #fff"/>
          <path d="M522.2,176.1l1.7-1,2.2,4.1h.1a2,2,0,0,1,.4-1.3,2.2,2.2,0,0,1,1-.9c1.2-.7,2.8-.6,4,1.6l2.2,4-1.7,1-2.1-3.8c-.5-1-1.3-1.6-2.3-1.1a1.8,1.8,0,0,0-.8,1.7,1.4,1.4,0,0,0,.2.6l2.3,4.1-1.8.9Z" style="fill: #fff"/>
          <path d="M540,174.7a4,4,0,0,1-1.5,5.6,3.8,3.8,0,0,1-5.4-1.6,3.9,3.9,0,0,1,1.5-5.6A3.9,3.9,0,0,1,540,174.7Zm-5.1,2.9c.7,1.4,1.9,2,2.9,1.4s1.2-1.9.4-3.2-1.7-2.1-2.9-1.4S534.2,176.5,534.9,177.6Z" style="fill: #fff"/>
          <path d="M542.1,176.1a5.3,5.3,0,0,0,2-.5c.7-.4.9-.9.7-1.4s-.7-.5-1.7-.4-2.6-.1-3-.9a2.7,2.7,0,0,1,1.4-3.6,4.9,4.9,0,0,1,2-.6l.4,1.4a4.1,4.1,0,0,0-1.7.4c-.6.4-.8.9-.5,1.3s.6.5,1.7.3,2.4.1,3,1.1.2,2.6-1.7,3.6a4.3,4.3,0,0,1-2.3.7Z" style="fill: #fff"/>
          <path d="M552,159.7l4.4,8,1.2,1.9-1.6.9-.7-1.1h0a2.9,2.9,0,0,1-1.5,2.5c-1.7.9-3.7.2-4.9-1.9s-.6-4.4,1.1-5.3a2.6,2.6,0,0,1,2.4-.2h0l-2.1-3.9Zm1.6,6.9-.3-.4a1.7,1.7,0,0,0-2.2-.4c-1.1.6-1.1,1.9-.4,3.2a2.1,2.1,0,0,0,2.9,1.2,1.8,1.8,0,0,0,.8-2l-.3-.6Z" style="fill: #fff"/>
          <path d="M558.7,165.2a2.1,2.1,0,0,0,3.1.6,6.3,6.3,0,0,0,1.7-1.4l.9,1.1a6.7,6.7,0,0,1-2.2,1.7,3.7,3.7,0,0,1-5.4-1.5c-1-1.9-.9-4.3,1.3-5.5s4,.2,4.8,1.7a1.6,1.6,0,0,1,.3.8Zm2.3-2.9a1.7,1.7,0,0,0-2.3-.9,2,2,0,0,0-.7,2.6Z" style="fill: #fff"/>
          <path d="M575.3,159.5a6.3,6.3,0,0,1-2.2,1.7c-3,1.7-5.8.8-7.4-2.1a6.1,6.1,0,0,1,4.8-8.6l.4,1.6a4.4,4.4,0,0,0-2,.7c-2,1-2.7,3-1.4,5.3a3.5,3.5,0,0,0,5.1,1.6,6.3,6.3,0,0,0,1.7-1.4Z" style="fill: #fff"/>
          <path d="M581,152.2a4,4,0,0,1-1.5,5.6,4.1,4.1,0,0,1-3.9-7.2A3.8,3.8,0,0,1,581,152.2Zm-5.1,2.9c.7,1.3,1.9,2,2.9,1.4s1.2-1.9.4-3.3-1.7-2-2.9-1.3S575.2,154,575.9,155.1Z" style="fill: #fff"/>
          <path d="M581.4,150.3c-.5-.8-.8-1.5-1.2-2l1.5-.9.7,1h0a2.9,2.9,0,0,1,1.5-2.4c1.2-.6,2.9-.5,4.1,1.6l2.2,4.1-1.7.9-2.1-3.8c-.6-1-1.4-1.6-2.3-1a1.5,1.5,0,0,0-.8,1.7,1.4,1.4,0,0,0,.2.6l2.3,4-1.8,1Z" style="fill: #fff"/>
          <path d="M590.8,149.3a5.3,5.3,0,0,0,2-.5c.8-.4.9-.9.7-1.3s-.7-.6-1.7-.4-2.5-.2-2.9-1-.2-2.7,1.4-3.6a4.2,4.2,0,0,1,2-.5l.3,1.4a2.7,2.7,0,0,0-1.6.4c-.7.3-.8.8-.6,1.2s.7.5,1.7.3,2.4.1,3,1.1.2,2.7-1.6,3.7a5.7,5.7,0,0,1-2.4.6Z" style="fill: #fff"/>
          <path d="M594.5,137.9l1,1.9,1.7-.9.7,1.3-1.6.9,1.6,3.1c.5.8.9,1.1,1.6.7l.6-.4.8,1.3-1.2.8a2,2,0,0,1-1.8.3,3.1,3.1,0,0,1-1.6-1.6l-1.7-3.2-1,.5-.7-1.3,1-.5-.9-1.6Z" style="fill: #fff"/>
          <path d="M599.4,140.6l-1.2-2.2,1.5-.8.7,1.3h.1a2.4,2.4,0,0,1,1-2.5h.5l.9,1.6-.6.2a1.8,1.8,0,0,0-.8,2.2c.1.1.1.3.2.5l2,3.6-1.7.9Z" style="fill: #fff"/>
          <path d="M611.7,137.2l1.1,2-1.5.9-.6-1h-.1a2.9,2.9,0,0,1-1.5,2.4c-1.2.7-2.8.5-4-1.7l-2.2-4,1.7-.9,2.1,3.7c.6,1.1,1.4,1.6,2.3,1.1a1.6,1.6,0,0,0,.8-1.6c-.1-.2-.1-.4-.2-.6l-2.3-4.1,1.7-1Z" style="fill: #fff"/>
          <path d="M619.3,135.4a4.7,4.7,0,0,1-1.8,1.4,3.7,3.7,0,0,1-5.4-1.5,4,4,0,0,1,1.8-5.7,3.8,3.8,0,0,1,1.8-.6l.4,1.4a3.9,3.9,0,0,0-1.4.5,2.3,2.3,0,0,0-.9,3.3,2.4,2.4,0,0,0,3.3,1.1,3.2,3.2,0,0,0,1.2-1Z" style="fill: #fff"/>
          <path d="M625.2,132.2a5.9,5.9,0,0,1-1.8,1.4,3.7,3.7,0,0,1-5.4-1.5,4.1,4.1,0,0,1,1.8-5.8l1.8-.6.4,1.5a3.3,3.3,0,0,0-1.4.4,2.4,2.4,0,0,0-.9,3.4,2.4,2.4,0,0,0,3.3,1.1,3.3,3.3,0,0,0,1.2-1.1Z" style="fill: #fff"/>
          <path d="M623.3,122.1a1.1,1.1,0,0,1-.5,1.5,1,1,0,0,1-1.4-.4,1.1,1.1,0,0,1,1.9-1.1Zm3,9.8-3.8-6.9,1.8-.9,3.7,6.8Z" style="fill: #fff"/>
          <path d="M634.2,123a3.8,3.8,0,0,1-1.5,5.5,3.8,3.8,0,0,1-5.4-1.6,3.9,3.9,0,0,1,1.6-5.6C630.9,120.2,633,120.9,634.2,123Zm-4.9-5.6-.6,3.1-1.2.6v-2.7Zm-.2,8.5c.7,1.3,1.9,1.9,2.9,1.4s1.2-1.9.4-3.3-1.7-2-2.9-1.4S628.4,124.8,629.1,125.9Z" style="fill: #fff"/>
          <path d="M634.6,121c-.5-.7-.8-1.4-1.2-2l1.5-.8.7,1h0a2.9,2.9,0,0,1,1.5-2.4c1.2-.7,2.9-.6,4.1,1.6l2.2,4-1.7,1-2.1-3.9c-.6-.9-1.4-1.5-2.3-1a1.7,1.7,0,0,0-.8,1.8.9.9,0,0,0,.3.6l2.2,4-1.8.9Z" style="fill: #fff"/>
        </g>
      </g>
      <g class="hoverable" id="subsidios" onclick="showInstrument('economicos', 'economicos_o_de_mercado', 'subsidios');">
        <path d="M487.7,319.5a374.8,374.8,0,0,0-9.4-42l230.6-66.3a600.5,600.5,0,0,1,15.6,69.1Z" style="fill: #d16bad"/>
        <g>
          <path d="M520.9,293.1a4.8,4.8,0,0,0,2.7.1c1.2-.3,1.8-1,1.6-1.9s-.8-1.1-2.3-1.3-3.2-.9-3.5-2.4.7-3.3,3-3.9a5.6,5.6,0,0,1,2.6,0v1.6a5.2,5.2,0,0,0-2.2,0c-1.2.3-1.6,1.1-1.4,1.7s.8,1,2.4,1.3,3.1.9,3.4,2.5-.6,3.4-3.3,4a6,6,0,0,1-3,0Z" style="fill: #fff"/>
          <path d="M535.4,289.6c.2.9.4,1.7.6,2.3l-1.7.4-.4-1.2h0a2.7,2.7,0,0,1-2.1,1.9c-1.4.3-2.9-.2-3.4-2.7l-1-4.4,1.9-.5.9,4.2c.3,1.2.9,1.9,1.9,1.7a1.5,1.5,0,0,0,1.2-1.4.6.6,0,0,0,0-.6l-1-4.6,1.9-.4Z" style="fill: #fff"/>
          <path d="M537.6,291.5c-.1-.5-.2-1.4-.4-2.1l-2-9,1.9-.4,1,4.5h0a3.2,3.2,0,0,1,2.2-1.8c1.9-.4,3.5.8,4,3.1s-.8,4.5-2.5,4.9a2.7,2.7,0,0,1-2.7-.7h0l.2,1.1Zm1.3-3.6c0,.2.1.3.1.5a1.8,1.8,0,0,0,2,.9c1.3-.3,1.8-1.4,1.4-2.9s-1.2-2.3-2.5-2a1.9,1.9,0,0,0-1.3,1.8v.5Z" style="fill: #fff"/>
          <path d="M546,287.7a3.7,3.7,0,0,0,2.1.1c.8-.2,1.1-.6,1-1.1s-.5-.7-1.5-.8-2.4-.9-2.6-1.7a2.7,2.7,0,0,1,2.3-3.1,4.8,4.8,0,0,1,2.1,0v1.4a3.2,3.2,0,0,0-1.7,0c-.7.1-1,.5-.9,1s.5.6,1.6.8,2.3.7,2.5,1.8-.5,2.6-2.5,3.1a5.3,5.3,0,0,1-2.5,0Z" style="fill: #fff"/>
          <path d="M552.5,277.9a1,1,0,0,1-.8,1.2,1,1,0,0,1-1.3-.7,1,1,0,0,1,.8-1.3A1,1,0,0,1,552.5,277.9Zm.2,10.2-1.7-7.6,1.9-.5,1.7,7.6Z" style="fill: #fff"/>
          <path d="M560.8,274.5l2.1,9,.5,2.1-1.7.4-.3-1.2h-.1a2.7,2.7,0,0,1-2.1,2c-1.8.4-3.6-.8-4.2-3.2s.7-4.4,2.5-4.8a2.4,2.4,0,0,1,2.4.5h0l-1-4.3Zm-.4,7.1a1.1,1.1,0,0,0-.1-.5,1.8,1.8,0,0,0-2-.9c-1.2.2-1.6,1.5-1.3,2.9s1.2,2.2,2.4,2a1.8,1.8,0,0,0,1.4-1.8,1.1,1.1,0,0,0-.1-.5Z" style="fill: #fff"/>
          <path d="M564.9,275a1,1,0,0,1-.8,1.3,1,1,0,0,1-1.3-.8,1.1,1.1,0,0,1,.8-1.3A1,1,0,0,1,564.9,275Zm.2,10.2-1.7-7.6,1.9-.4,1.8,7.6Z" style="fill: #fff"/>
          <path d="M575.1,278.8a3.9,3.9,0,0,1-2.9,5,3.7,3.7,0,0,1-4.7-3.1,3.8,3.8,0,0,1,3-4.9A3.7,3.7,0,0,1,575.1,278.8Zm-5.7,1.4c.4,1.5,1.3,2.4,2.5,2.2s1.6-1.5,1.3-3.1-1.1-2.4-2.5-2.1S569.1,279,569.4,280.2Z" style="fill: #fff"/>
          <path d="M576.8,280.7a4.8,4.8,0,0,0,2.1.1c.8-.2,1.1-.6,1-1.1s-.5-.7-1.5-.9-2.4-.8-2.6-1.7.6-2.6,2.3-3a3.7,3.7,0,0,1,2.1,0v1.4a4.6,4.6,0,0,0-1.7-.1c-.7.2-1,.6-.9,1.1s.5.6,1.6.7a2.6,2.6,0,0,1,2.5,1.9c.3,1.4-.5,2.6-2.5,3.1a6.9,6.9,0,0,1-2.5,0Z" style="fill: #fff"/>
        </g>
      </g>
      <g class="hoverable" id="fondos" onclick="showInstrument('economicos', 'economicos_o_de_mercado', 'fondos');">
        <path d="M716,523.8,482.6,467.9a374.5,374.5,0,0,0,7.6-42.3L728.5,454A610.9,610.9,0,0,1,716,523.8Z" style="fill: #d16bad"/>
        <g>
          <path d="M529.7,449.7l6.2.8-.2,1.6-4.3-.5-.3,2.9,3.9.5-.2,1.6-3.9-.5-.6,4.6-2-.3Z" style="fill: #fff"/>
          <path d="M543.4,458.3a3.8,3.8,0,0,1-4.5,3.6,3.7,3.7,0,0,1-3.3-4.4,3.8,3.8,0,0,1,4.5-3.6A3.7,3.7,0,0,1,543.4,458.3Zm-5.8-.6c-.2,1.5.4,2.7,1.6,2.8s2-.8,2.2-2.4-.2-2.6-1.5-2.8S537.8,456.4,537.6,457.7Z" style="fill: #fff"/>
          <path d="M544.9,457a21.5,21.5,0,0,0,.2-2.3l1.7.2v1.2h0a2.8,2.8,0,0,1,2.7-1c1.3.1,2.6,1.2,2.3,3.6l-.6,4.6-1.9-.2.5-4.4c.2-1.1-.1-2-1.2-2.1a1.8,1.8,0,0,0-1.7.9,1.3,1.3,0,0,0-.1.6l-.6,4.6-2-.3Z" style="fill: #fff"/>
          <path d="M561.5,453.2l-1.1,9.1a20.6,20.6,0,0,0-.2,2.1l-1.8-.2V463h0a3,3,0,0,1-2.7,1.1c-1.9-.3-3.1-2-2.8-4.4s2.1-3.9,4-3.7a2.5,2.5,0,0,1,2,1.3h0l.6-4.4Zm-2.8,6.5c0-.2.1-.4,0-.5a1.6,1.6,0,0,0-1.5-1.6c-1.2-.2-2.1.8-2.2,2.3s.4,2.5,1.6,2.7a1.6,1.6,0,0,0,1.8-1.2,1.4,1.4,0,0,0,.2-.6Z" style="fill: #fff"/>
          <path d="M569.7,461.6a3.9,3.9,0,0,1-4.5,3.7,4.1,4.1,0,0,1,1.2-8.1A3.7,3.7,0,0,1,569.7,461.6Zm-5.8-.6c-.2,1.5.4,2.7,1.6,2.9s2-.9,2.2-2.5-.2-2.6-1.5-2.8S564.1,459.7,563.9,461Z" style="fill: #fff"/>
          <path d="M570.7,463.9a3,3,0,0,0,1.9.8c.8.2,1.3-.1,1.3-.7s-.2-.8-1.1-1.2-2-1.7-1.9-2.6a2.7,2.7,0,0,1,3.3-2,4.7,4.7,0,0,1,2,.7l-.6,1.3a4.1,4.1,0,0,0-1.6-.6c-.7-.1-1.1.2-1.2.7s.3.7,1.3,1.2,1.9,1.5,1.7,2.6-1.4,2.3-3.4,2a4.4,4.4,0,0,1-2.3-.8Z" style="fill: #fff"/>
        </g>
      </g>
      <g class="hoverable" id="exencion_predial" onclick="showInstrument('economicos', 'economicos_o_de_mercado', 'exencion_predial');">
        <path d="M660.4,669.9,448.9,556.5a394.1,394.1,0,0,0,18.1-39l223.2,88.2A633,633,0,0,1,660.4,669.9Z" style="fill: #d16bad"/>
        <g>
          <path d="M501.9,557.1l-3.6-1.9-1.4,2.9,4,2-.7,1.4-5.8-2.9,4.9-9.6,5.6,2.8-.8,1.5-3.8-2-1.3,2.5,3.7,1.8Z" style="fill: #fff"/>
          <path d="M506.1,555.8v1.7a6.6,6.6,0,0,1,.1,1.4h.1l1.1-.8,1.5-.9,1.9,1-4,2.2.5,4.8-2-1v-1.8a7.6,7.6,0,0,1-.1-1.5h0l-1.2.8-1.5,1-2-1,4.2-2.3-.6-4.6Z" style="fill: #fff"/>
          <path d="M510.6,563.1a2.3,2.3,0,0,0,1.3,2.9,6.1,6.1,0,0,0,2.1.6l-.4,1.4a8.3,8.3,0,0,1-2.6-.8,3.7,3.7,0,0,1-1.8-5.4,3.8,3.8,0,0,1,5.2-2c2.3,1.2,2.1,3.4,1.3,4.9a2.1,2.1,0,0,1-.4.7Zm3.7.3a1.6,1.6,0,0,0-.6-2.4,1.9,1.9,0,0,0-2.4.8Z" style="fill: #fff"/>
          <path d="M517.4,564.1a18.9,18.9,0,0,0,1-2.1l1.6.8-.5,1.1h.1a2.7,2.7,0,0,1,2.8-.1c1.2.6,2.1,2.1,1,4.3l-2.1,4.1-1.8-.9,2-3.9c.5-1,.5-2-.4-2.5a1.6,1.6,0,0,0-1.9.4,1,1,0,0,0-.4.5l-2.1,4.1L515,569Z" style="fill: #fff"/>
          <path d="M528.1,575.4a6.7,6.7,0,0,1-2.2-.7,3.7,3.7,0,0,1-1.8-5.3,4.1,4.1,0,0,1,5.8-1.8,4.7,4.7,0,0,1,1.5,1.2l-1,1.2a2.5,2.5,0,0,0-1.2-1,2.2,2.2,0,0,0-3.2,1.2,2.3,2.3,0,0,0,1,3.3,3.4,3.4,0,0,0,1.5.4Z" style="fill: #fff"/>
          <path d="M529,576.1l3.5-7,1.8.9-3.5,7Zm6.4-8a1.1,1.1,0,0,1-2-1,1,1,0,0,1,1.4-.4A1.1,1.1,0,0,1,535.4,568.1Z" style="fill: #fff"/>
          <path d="M540.8,577.6a4,4,0,0,1-5.5,1.9,3.8,3.8,0,0,1-1.7-5.4,3.9,3.9,0,0,1,5.5-1.8A3.8,3.8,0,0,1,540.8,577.6Zm-5.3-2.6c-.7,1.4-.6,2.7.5,3.2s2.2-.1,2.9-1.5.7-2.6-.5-3.2S536.1,573.9,535.5,575Zm7.1-4.6-2.8,1.3-1.3-.6,2.3-1.5Z" style="fill: #fff"/>
          <path d="M542.6,576.8l1-2.1,1.5.8-.4,1.1h0a3,3,0,0,1,2.8-.1c1.3.7,2.1,2.1,1,4.3l-2.1,4.1-1.7-.9,1.9-3.9c.6-1,.6-2-.4-2.4a1.7,1.7,0,0,0-1.9.3l-.3.5-2.1,4.1-1.8-.9Z" style="fill: #fff"/>
          <path d="M553,582.4c.5-.9.8-1.7,1.1-2.3l1.6.7-.5,1.2h0a2.9,2.9,0,0,1,3.1,0c1.6.8,2.2,2.8,1.1,5s-3.5,2.9-5.1,2.1a2.8,2.8,0,0,1-1.5-1.9h0l-1.8,3.6-1.8-.9Zm.9,2.6c-.1.2-.1.4-.2.5a1.8,1.8,0,0,0,.9,2c1.2.6,2.3,0,3-1.4s.5-2.5-.6-3.1a2.2,2.2,0,0,0-2.3.5l-.3.5Z" style="fill: #fff"/>
          <path d="M561.1,586.4a22.9,22.9,0,0,0,1.1-2.3l1.5.8-.6,1.4h.1a2.2,2.2,0,0,1,2.6-.5l.4.2-.8,1.7-.5-.3a1.7,1.7,0,0,0-2.3.5l-.3.5-1.8,3.6-1.8-.9Z" style="fill: #fff"/>
          <path d="M566.2,591.1a2.1,2.1,0,0,0,1.2,2.9,7.4,7.4,0,0,0,2.1.7l-.4,1.3a6.3,6.3,0,0,1-2.6-.8,3.6,3.6,0,0,1-1.8-5.3,3.8,3.8,0,0,1,5.3-2c2.2,1.1,2,3.3,1.3,4.9l-.5.7Zm3.6.3a1.6,1.6,0,0,0-.5-2.4,2,2,0,0,0-2.5.9Z" style="fill: #fff"/>
          <path d="M582,590.2l-4.1,8.2c-.4.7-.7,1.5-.9,1.9l-1.6-.8.5-1.1h-.1a2.7,2.7,0,0,1-2.9.1c-1.6-.8-2.2-2.9-1.1-5.1a3.7,3.7,0,0,1,5-2.1,2.7,2.7,0,0,1,1.5,1.9h0l2-3.9Zm-4.8,5.2c.1-.2.1-.4.2-.5a1.7,1.7,0,0,0-.9-2c-1.1-.6-2.3.1-2.9,1.4s-.5,2.5.6,3.1a1.9,1.9,0,0,0,2.2-.5l.3-.5Z" style="fill: #fff"/>
          <path d="M578.5,601.1l3.5-6.9,1.8.9-3.5,6.9Zm6.4-7.9a1.1,1.1,0,0,1-1.5.4,1,1,0,0,1-.5-1.4,1.1,1.1,0,0,1,1.5-.5A1.1,1.1,0,0,1,584.9,593.2Z" style="fill: #fff"/>
          <path d="M585.8,604.8l.3-.8H586a2.5,2.5,0,0,1-2.5-.1,2.2,2.2,0,0,1-1.1-3.1c.8-1.8,2.8-1.9,5.4-.6h.1a1.3,1.3,0,0,0-.8-1.9,4.4,4.4,0,0,0-2.2-.5l.3-1.3a6,6,0,0,1,2.8.7c2.2,1.1,2.2,2.8,1.4,4.4l-1.3,2.5a7.7,7.7,0,0,0-.7,1.7Zm1.5-3.5c-1.2-.7-2.6-1-3.1.1a1,1,0,0,0,.5,1.5,1.6,1.6,0,0,0,1.8-.3c.2-.1.2-.2.3-.4Z" style="fill: #fff"/>
          <path d="M594,596.2l1.7.9-5.1,10.1-1.8-.9Z" style="fill: #fff"/>
        </g>
      </g>
      <g class="hoverable" id="compensaciones_ambiental_o_patrimonial" onclick="showInstrument('economicos', 'economicos_o_de_mercado', 'compensaciones_ambiental_o_patrimonial');">
        <path d="M477,273.2a361.4,361.4,0,0,0-14.8-40.4l220.2-95.5A611.7,611.7,0,0,1,706.8,204Z" style="fill: #d16bad"/>
        <g>
          <path d="M513.1,236.3a7,7,0,0,1-2.5,1.3c-3.3,1.1-5.9-.3-6.9-3.4a5.5,5.5,0,0,1,3.7-7.3,5.4,5.4,0,0,1,2.6-.3v1.6a5.6,5.6,0,0,0-2.1.3,3.9,3.9,0,0,0,2.4,7.5,6.8,6.8,0,0,0,1.9-1.1Z" style="fill: #fff"/>
          <path d="M520,230.2a4,4,0,0,1-2.6,5.2,3.8,3.8,0,0,1-4.9-2.6,4,4,0,1,1,7.5-2.6Zm-5.6,1.9c.5,1.4,1.5,2.3,2.7,1.9s1.4-1.6.9-3.1-1.3-2.3-2.6-1.9S514,230.9,514.4,232.1Z" style="fill: #fff"/>
          <path d="M520.7,228.4a17.7,17.7,0,0,0-.8-2.2l1.7-.5.4,1h0a2.9,2.9,0,0,1,1.9-2,2.3,2.3,0,0,1,2.5.7h0a6.7,6.7,0,0,1,.6-1.2,2.8,2.8,0,0,1,1.4-1c1.2-.4,2.7.1,3.5,2.4l1.4,4.4-1.8.6-1.3-4.1c-.4-1.2-1.1-1.8-2-1.5a1.7,1.7,0,0,0-1,1.4c0,.2.1.4.1.6l1.5,4.5-1.8.6-1.4-4.3c-.4-1-1-1.6-1.9-1.4a1.7,1.7,0,0,0-1,1.5,1.5,1.5,0,0,0,.1.7l1.4,4.4-1.8.6Z" style="fill: #fff"/>
          <path d="M533.4,224.5a20.7,20.7,0,0,0-.9-2.4l1.7-.6.4,1.1h.1a3,3,0,0,1,2.1-2.1c1.7-.6,3.6.4,4.3,2.8s-.4,4.5-2,5a2.7,2.7,0,0,1-2.5-.3h0l1.3,3.9-1.9.6Zm2.5,1.2a.8.8,0,0,0,.2.5,1.8,1.8,0,0,0,2.1.8c1.2-.4,1.5-1.6,1.1-3.1s-1.5-2.1-2.7-1.7a1.8,1.8,0,0,0-1.2,1.9.7.7,0,0,0,.1.5Z" style="fill: #fff"/>
          <path d="M543.9,223c.5,1.4,1.7,1.6,2.9,1.2a4.8,4.8,0,0,0,1.9-1l.7,1.2a5.4,5.4,0,0,1-2.4,1.3,3.6,3.6,0,0,1-5-2.5,3.9,3.9,0,0,1,2.3-5.2c2.4-.7,3.8,1,4.4,2.6a4.5,4.5,0,0,0,.2.8Zm2.8-2.3a1.7,1.7,0,0,0-2.1-1.3,1.7,1.7,0,0,0-1.1,2.3Z" style="fill: #fff"/>
          <path d="M549.5,219l-.8-2.2,1.6-.5.5,1h0a2.7,2.7,0,0,1,2-2c1.2-.4,2.9,0,3.6,2.3l1.5,4.4-1.9.6-1.4-4.2c-.3-1-1-1.7-2-1.4a1.8,1.8,0,0,0-1.1,1.6,1.3,1.3,0,0,0,.1.6l1.4,4.4-1.8.6Z" style="fill: #fff"/>
          <path d="M558.9,219.8a5.1,5.1,0,0,0,2.1-.1c.8-.3,1-.7.9-1.2s-.6-.7-1.6-.7-2.5-.6-2.7-1.5.3-2.7,2-3.3a8.6,8.6,0,0,1,2.1-.2v1.5a3.4,3.4,0,0,0-1.7.1c-.7.2-.9.6-.8,1.1s.6.6,1.6.6,2.4.5,2.8,1.6-.3,2.7-2.3,3.3a4.1,4.1,0,0,1-2.4.2Z" style="fill: #fff"/>
          <path d="M569.8,218.1l-.4-.8h-.1a3,3,0,0,1-1.8,1.7,2.5,2.5,0,0,1-3.1-1.5c-.6-1.9.7-3.3,3.5-4.2h-.1c-.1-.5-.6-1.3-1.9-.8a3.8,3.8,0,0,0-1.8,1.2l-.8-1.1a5.4,5.4,0,0,1,2.5-1.6,2.9,2.9,0,0,1,4.1,2.1l.9,2.7.6,1.8Zm-1.5-3.5c-1.3.4-2.5,1.1-2.1,2.2a1,1,0,0,0,1.4.7,1.5,1.5,0,0,0,1.1-1.5v-.4Z" style="fill: #fff"/>
          <path d="M578.4,215.1a7.3,7.3,0,0,1-2,1,3.6,3.6,0,0,1-5-2.5,4,4,0,0,1,2.8-5.3l1.9-.3v1.6a2.7,2.7,0,0,0-1.5.1,2.4,2.4,0,0,0-1.5,3.2,2.4,2.4,0,0,0,3.1,1.6l1.4-.7Z" style="fill: #fff"/>
          <path d="M578.4,204.8a1.1,1.1,0,0,1-.7,1.4,1.2,1.2,0,0,1-1.4-.7,1.1,1.1,0,0,1,.7-1.4A1,1,0,0,1,578.4,204.8Zm1.1,10.1-2.4-7.4,1.9-.6,2.4,7.4Z" style="fill: #fff"/>
          <path d="M588.9,207.7a3.9,3.9,0,0,1-2.5,5.2,3.7,3.7,0,0,1-4.9-2.6,3.8,3.8,0,0,1,2.5-5.2A3.7,3.7,0,0,1,588.9,207.7Zm-5.5,1.9c.4,1.4,1.5,2.3,2.6,1.9s1.5-1.6,1-3.1-1.3-2.4-2.6-1.9S583,208.4,583.4,209.6Z" style="fill: #fff"/>
          <path d="M589.7,205.9a17.7,17.7,0,0,0-.8-2.2l1.7-.6.4,1.1h.1a2.8,2.8,0,0,1,1.9-2.1c1.3-.4,2.9,0,3.7,2.4l1.4,4.4-1.9.6-1.3-4.2c-.4-1.1-1-1.7-2.1-1.4a1.8,1.8,0,0,0-1.1,1.6,2.1,2.1,0,0,0,.2.6l1.4,4.3-1.9.7Z" style="fill: #fff"/>
          <path d="M600.1,204.7a2.1,2.1,0,0,0,2.9,1.2,5.6,5.6,0,0,0,1.9-1l.7,1.2a8.6,8.6,0,0,1-2.4,1.3,3.8,3.8,0,0,1-5.1-2.5c-.6-2.1,0-4.4,2.4-5.2s3.8.9,4.3,2.6a1.3,1.3,0,0,1,.2.8Zm2.8-2.4a1.7,1.7,0,0,0-2.1-1.3,1.9,1.9,0,0,0-1.1,2.4Z" style="fill: #fff"/>
          <path d="M606.7,204.2a5.1,5.1,0,0,0,2.1-.1c.8-.3,1-.7.9-1.2s-.6-.7-1.6-.7-2.5-.6-2.7-1.5.3-2.7,2-3.3a8.6,8.6,0,0,1,2.1-.2v1.5a3.4,3.4,0,0,0-1.7.1c-.7.2-1,.6-.8,1.1s.6.6,1.6.6,2.4.5,2.7,1.6-.3,2.7-2.2,3.3a4.1,4.1,0,0,1-2.4.2Z" style="fill: #fff"/>
          <path d="M510.8,247.4v3.2l-1.9.6V239.9l2.4-.8,6.7,9.2-2,.7-1.9-2.6Zm2.5-2.4-1.6-2.2a17.4,17.4,0,0,1-1.1-1.8h-.1c.1.7.1,1.5.2,2.1v2.8Z" style="fill: #fff"/>
          <path d="M517.3,242.8l-.8-2.2,1.6-.5.4,1h.1a2.7,2.7,0,0,1,1.8-2,2.2,2.2,0,0,1,2.5.7h.1a2.3,2.3,0,0,1,.6-1.2,2.5,2.5,0,0,1,1.3-.9c1.3-.4,2.8,0,3.6,2.4l1.4,4.3-1.8.6-1.4-4.1c-.4-1.2-1-1.8-1.9-1.5a1.4,1.4,0,0,0-1,1.4,2,2,0,0,0,.1.7l1.4,4.4-1.8.6-1.4-4.3c-.3-1-1-1.6-1.8-1.3a1.5,1.5,0,0,0-1,1.5.7.7,0,0,0,.1.6l1.4,4.4-1.8.6Z" style="fill: #fff"/>
          <path d="M531.5,243.9c-.1-.5-.4-1.3-.6-2.1l-2.9-8.7,1.9-.6,1.4,4.4h.1a2.7,2.7,0,0,1,2-2c1.8-.6,3.6.5,4.3,2.8s-.4,4.5-2.1,5a2.5,2.5,0,0,1-2.7-.5h-.1l.3,1.2Zm.9-3.7c.1.2.1.3.2.4a1.8,1.8,0,0,0,2.1.8c1.2-.4,1.6-1.6,1.1-3s-1.4-2.2-2.6-1.8a1.9,1.9,0,0,0-1.3,1.9.7.7,0,0,1,.1.5Z" style="fill: #fff"/>
          <path d="M539,230.9a1,1,0,0,1-.7,1.4,1.1,1.1,0,0,1-1.4-.7,1,1,0,0,1,.8-1.3A1,1,0,0,1,539,230.9Zm1.1,10.2-2.4-7.4,1.9-.7,2.4,7.5Z" style="fill: #fff"/>
          <path d="M544,236.3c.5,1.3,1.7,1.5,2.9,1.2a6.2,6.2,0,0,0,2-1l.7,1.2a11.4,11.4,0,0,1-2.5,1.3,3.7,3.7,0,0,1-5-2.5c-.7-2.1-.1-4.4,2.3-5.2s3.9.9,4.4,2.6a3.1,3.1,0,0,1,.2.8Zm2.9-2.4c-.3-.7-.9-1.7-2.2-1.3a2,2,0,0,0-1.1,2.4Z" style="fill: #fff"/>
          <path d="M549.6,232.2c-.3-.8-.5-1.5-.8-2.2l1.6-.5.5,1.1h0a3.1,3.1,0,0,1,2-2.1c1.3-.4,2.9,0,3.7,2.4l1.4,4.3-1.9.7-1.3-4.2c-.4-1.1-1-1.8-2.1-1.4a1.6,1.6,0,0,0-1.1,1.5c0,.2.1.5.1.7l1.5,4.3-1.9.6Z" style="fill: #fff"/>
          <path d="M558.6,224.5l.7,2.1,1.8-.6.5,1.4-1.8.6,1.1,3.3c.2.9.6,1.3,1.4,1l.7-.3.5,1.4a5,5,0,0,1-1.3.7,2.6,2.6,0,0,1-1.8-.1,2.8,2.8,0,0,1-1.3-1.9l-1.1-3.5-1.1.4-.5-1.4,1.1-.4-.5-1.7Z" style="fill: #fff"/>
          <path d="M568.8,231.7l-.4-.8h0a3.2,3.2,0,0,1-1.9,1.7,2.3,2.3,0,0,1-3-1.5c-.7-1.9.7-3.3,3.4-4.2h0a1.4,1.4,0,0,0-1.9-.9,5.1,5.1,0,0,0-1.8,1.2l-.8-1a4.9,4.9,0,0,1,2.5-1.6c2.3-.8,3.5.5,4,2.1l.9,2.7a17.1,17.1,0,0,0,.7,1.8Zm-1.4-3.5c-1.4.4-2.5,1.1-2.2,2.2a1.1,1.1,0,0,0,1.5.7,1.6,1.6,0,0,0,1.1-1.5.6.6,0,0,0-.1-.4Z" style="fill: #fff"/>
          <path d="M568.5,219.9l1.9-.7,3.5,10.8-1.8.7Z" style="fill: #fff"/>
          <path d="M584.3,222.5a4,4,0,1,1-7.5,2.6,3.9,3.9,0,0,1,2.6-5.2A3.7,3.7,0,0,1,584.3,222.5Zm-5.5,1.9c.4,1.4,1.5,2.3,2.6,1.9s1.5-1.7,1-3.1-1.3-2.4-2.6-1.9S578.4,223.1,578.8,224.4Z" style="fill: #fff"/>
          <path d="M586.4,214.8a11,11,0,0,1,2.8-1.2,4.7,4.7,0,0,1,3.3-.1,3.4,3.4,0,0,1,1.6,4.5,4.5,4.5,0,0,1-2.9,2.2l-.9.2,1.3,3.9-1.9.6Zm3.4,4.2,1-.3c1.4-.4,2-1.4,1.6-2.6a2,2,0,0,0-2.7-1.1l-1,.5Z" style="fill: #fff"/>
          <path d="M601.7,221l-.4-.8h-.1a2.6,2.6,0,0,1-1.8,1.7,2.4,2.4,0,0,1-3.1-1.4c-.6-1.9.8-3.4,3.5-4.3h0a1.4,1.4,0,0,0-2-.8,4.7,4.7,0,0,0-1.8,1.2l-.7-1.1a5.8,5.8,0,0,1,2.4-1.5,2.9,2.9,0,0,1,4.1,2.1l.9,2.7a5.4,5.4,0,0,0,.7,1.7Zm-1.5-3.6c-1.3.5-2.5,1.2-2.1,2.3a1,1,0,0,0,1.4.7,1.6,1.6,0,0,0,1.2-1.5c0-.2-.1-.3-.1-.4Z" style="fill: #fff"/>
          <path d="M603.9,209.7l.7,2.1,1.7-.5.5,1.4-1.8.5,1.1,3.3c.3.9.7,1.3,1.4,1.1l.7-.4.5,1.5a4,4,0,0,1-1.3.6,2.2,2.2,0,0,1-1.8-.1,3.7,3.7,0,0,1-1.3-1.9l-1.1-3.5-1.1.4-.4-1.4,1-.4-.5-1.6Z" style="fill: #fff"/>
          <path d="M608.2,213.3a22.3,22.3,0,0,0-.8-2.4l1.6-.5.5,1.4h.1a2.4,2.4,0,0,1,1.5-2.3h.5l.5,1.8h-.5a1.8,1.8,0,0,0-1.2,2,1.3,1.3,0,0,0,.1.6l1.2,3.8-1.8.6Z" style="fill: #fff"/>
          <path d="M613.9,206.5a1.1,1.1,0,0,1-.8,1.4,1,1,0,0,1-1.3-.7,1.1,1.1,0,0,1,2.1-.7Zm1.1,10.1-2.4-7.4,1.9-.6,2.4,7.4Z" style="fill: #fff"/>
          <path d="M616.9,210.3l-.8-2.2,1.6-.5.4,1h.1a2.7,2.7,0,0,1,1.9-2,2.3,2.3,0,0,1,2.5.7h0a2.3,2.3,0,0,1,.6-1.2,2.2,2.2,0,0,1,1.3-1c1.3-.4,2.8.1,3.6,2.4l1.4,4.4-1.8.6-1.4-4.1c-.4-1.2-1-1.8-1.9-1.5a1.4,1.4,0,0,0-1,1.4,2,2,0,0,0,.1.7l1.4,4.4-1.8.6-1.4-4.3c-.3-1-1-1.6-1.8-1.3a1.5,1.5,0,0,0-1,1.5,1.3,1.3,0,0,0,.1.6l1.4,4.4-1.8.6Z" style="fill: #fff"/>
          <path d="M637,205.3a3.9,3.9,0,0,1-2.5,5.2,4.1,4.1,0,0,1-2.4-7.8A3.7,3.7,0,0,1,637,205.3Zm-5.6,1.9c.5,1.4,1.5,2.3,2.7,1.9s1.4-1.6,1-3.1-1.4-2.3-2.6-1.9S631,206,631.4,207.2Z" style="fill: #fff"/>
          <path d="M637.7,203.5a19.4,19.4,0,0,0-.7-2.2l1.6-.6.5,1.1h0a2.7,2.7,0,0,1,1.9-2c1.3-.5,3-.1,3.7,2.3l1.5,4.4-1.9.6-1.4-4.2c-.3-1.1-1-1.7-2-1.4a1.5,1.5,0,0,0-1.1,1.6,1.3,1.3,0,0,0,.1.6l1.4,4.4-1.9.6Z" style="fill: #fff"/>
          <path d="M646.7,195.8a.9.9,0,0,1-.7,1.3,1,1,0,0,1-1.4-.6,1.1,1.1,0,0,1,.8-1.4A1,1,0,0,1,646.7,195.8Zm1.1,10.1-2.4-7.4,1.9-.6,2.4,7.4Z" style="fill: #fff"/>
          <path d="M655.6,203.4l-.4-.8h0a2.7,2.7,0,0,1-1.9,1.7,2.4,2.4,0,0,1-3.1-1.4c-.6-1.9.8-3.4,3.5-4.3h0c-.2-.5-.6-1.2-1.9-.8a4.4,4.4,0,0,0-1.9,1.2l-.7-1.1a5.8,5.8,0,0,1,2.4-1.5,2.9,2.9,0,0,1,4.1,2.1l.9,2.7a9.8,9.8,0,0,0,.7,1.7Zm-1.4-3.5c-1.4.4-2.5,1.1-2.2,2.2a1.1,1.1,0,0,0,1.4.7,1.6,1.6,0,0,0,1.2-1.5c0-.2-.1-.3-.1-.4Z" style="fill: #fff"/>
          <path d="M655.3,191.5l1.9-.6,3.5,10.8-1.9.6Z" style="fill: #fff"/>
        </g>
      </g>
      <g class="hoverable" id="certificacion_de_incentivo_forestal" onclick="showInstrument('economicos', 'economicos_o_de_mercado', 'certificacion_de_incentivo_forestal');">
        <path d="M492.7,373.4c0-2.1-.1-4.3-.2-6.4a383.8,383.8,0,0,0-4-43l237.2-36.3a633.5,633.5,0,0,1,6.7,70.3c.1,3.5.2,7.1.3,10.5Z" style="fill: #d16bad"/>
        <g>
          <path d="M533.6,343.9a7,7,0,0,1-2.8.7,5.1,5.1,0,0,1-5.9-4.9,5.9,5.9,0,0,1,7.9-5.9l-.3,1.6a5.8,5.8,0,0,0-2.1-.3,3.5,3.5,0,0,0-3.4,4.3c.2,2.4,1.7,3.8,4,3.6a5.8,5.8,0,0,0,2.1-.6Z" style="fill: #fff"/>
          <path d="M535.7,340.7a2.2,2.2,0,0,0,2.6,1.8,9.3,9.3,0,0,0,2.1-.5l.4,1.3a7.4,7.4,0,0,1-2.7.7,3.7,3.7,0,0,1-4.3-3.6,3.9,3.9,0,0,1,3.5-4.5c2.5-.2,3.5,1.8,3.6,3.5a1.4,1.4,0,0,1,0,.9ZM539,339a1.6,1.6,0,0,0-1.7-1.7,1.9,1.9,0,0,0-1.7,2Z" style="fill: #fff"/>
          <path d="M542.1,338.2c-.1-1-.2-1.8-.3-2.5h1.7l.2,1.5h.1a2.3,2.3,0,0,1,2-1.8h.4l.2,1.9a.6.6,0,0,0-.6,0,1.6,1.6,0,0,0-1.6,1.6c0,.2-.1.4,0,.6l.3,4-2,.2Z" style="fill: #fff"/>
          <path d="M549.7,332.8l.2,2.2h1.8v1.5H550l.3,3.4c0,1,.3,1.5,1.1,1.4l.7-.2.2,1.5a2.6,2.6,0,0,1-1.4.3,2,2,0,0,1-1.7-.5,2.9,2.9,0,0,1-.8-2.1l-.3-3.6h-1.2v-1.5h1.1v-1.8Z" style="fill: #fff"/>
          <path d="M554.8,332.4a1.2,1.2,0,0,1-1,1.2c-.7,0-1.2-.4-1.2-1a.9.9,0,0,1,1-1.1A1,1,0,0,1,554.8,332.4Zm-1.3,10.2-.6-7.8,2-.2.6,7.8Z" style="fill: #fff"/>
          <path d="M557.5,342.2l-.5-6.3h-1.1v-1.5h1.1v-.4c-.1-2.1,1.2-3.5,3.5-3.7a4.9,4.9,0,0,1,2.2.3l-.3,1.5a4.2,4.2,0,0,0-1.7-.2,1.6,1.6,0,0,0-1.7,2v.3l4.7-.4.6,7.8h-2l-.5-6.3-2.6.3.5,6.3Z" style="fill: #fff"/>
          <path d="M571.6,340.8a6.6,6.6,0,0,1-2.2.6,3.7,3.7,0,0,1-4.3-3.6,4,4,0,0,1,4-4.5,3.9,3.9,0,0,1,1.9.2l-.2,1.5a2.6,2.6,0,0,0-1.6-.2,2.2,2.2,0,0,0-2.1,2.7,2.3,2.3,0,0,0,2.6,2.3l1.5-.4Z" style="fill: #fff"/>
          <path d="M577.1,340.6l-.2-.9h0a3,3,0,0,1-2.3,1.3,2.4,2.4,0,0,1-2.6-2.1c-.2-2,1.5-3.1,4.4-3.4h0a1.4,1.4,0,0,0-1.7-1.2,4.4,4.4,0,0,0-2.1.7l-.5-1.2a6.1,6.1,0,0,1,2.8-.9c2.5-.2,3.3,1.3,3.5,3l.2,2.8c.1.7.2,1.4.3,1.8Zm-.6-3.8c-1.4.1-2.7.5-2.6,1.7a1,1,0,0,0,1.2,1,1.6,1.6,0,0,0,1.5-1.2v-1.5Z" style="fill: #fff"/>
          <path d="M586.2,339.6a6.6,6.6,0,0,1-2.2.6,3.8,3.8,0,0,1-4.3-3.7c-.2-2.3,1.2-4.2,4-4.5l1.9.2-.2,1.5a3.4,3.4,0,0,0-1.5-.1,2.3,2.3,0,0,0-2.2,2.7,2.3,2.3,0,0,0,2.6,2.3,4.4,4.4,0,0,0,1.5-.5Z" style="fill: #fff"/>
          <path d="M588.6,329.6a1,1,0,0,1-1,1.2,1.1,1.1,0,0,1-1.2-1,1.2,1.2,0,0,1,1-1.2A1.1,1.1,0,0,1,588.6,329.6Zm-1.2,10.1-.7-7.7,2-.2.6,7.8Z" style="fill: #fff"/>
          <path d="M598.2,334.8a3.9,3.9,0,0,1-3.7,4.5,3.7,3.7,0,0,1-4.2-3.7,3.8,3.8,0,0,1,3.7-4.4A3.7,3.7,0,0,1,598.2,334.8Zm-5.9.6c.1,1.5,1,2.6,2.2,2.5s1.8-1.3,1.6-2.9-.7-2.5-2.1-2.4S592.2,334.1,592.3,335.4Zm3.7-7.6-1.8,2.5h-1.3l1.1-2.5Z" style="fill: #fff"/>
          <path d="M599.3,333.2a15.2,15.2,0,0,0-.2-2.3h1.7l.2,1.1h0a2.9,2.9,0,0,1,2.4-1.5c1.4-.1,2.8.6,3,3.1l.4,4.6-1.9.2-.4-4.4c-.1-1.2-.6-2-1.7-1.9a1.9,1.9,0,0,0-1.4,1.3v.6l.4,4.6-2,.2Z" style="fill: #fff"/>
          <path d="M617.8,325.8l.7,9.1c.1.8.2,1.7.3,2.2H617V336h-.1a2.8,2.8,0,0,1-2.4,1.6c-1.8.2-3.4-1.3-3.6-3.7s1.2-4.2,3.1-4.4a2.6,2.6,0,0,1,2.3.8h0l-.4-4.4Zm-1.4,6.9a4.3,4.3,0,0,1-.1-.5,1.7,1.7,0,0,0-1.8-1.2c-1.3.1-1.9,1.3-1.8,2.7s1,2.4,2.2,2.3a1.8,1.8,0,0,0,1.6-1.5v-1.8Z" style="fill: #fff"/>
          <path d="M621.6,333.5c.2,1.4,1.3,1.9,2.6,1.8a9.3,9.3,0,0,0,2.1-.5l.4,1.3a7.4,7.4,0,0,1-2.7.7,3.7,3.7,0,0,1-4.3-3.6,3.9,3.9,0,0,1,3.5-4.5c2.5-.2,3.5,1.8,3.6,3.5v.9Zm3.3-1.7a1.6,1.6,0,0,0-1.7-1.7,1.9,1.9,0,0,0-1.7,2Z" style="fill: #fff"/>
          <path d="M528,346.5l.9,10.8-1.9.2-.9-10.8Z" style="fill: #fff"/>
          <path d="M530.4,351.7c-.1-.9-.1-1.7-.2-2.3l1.7-.2.2,1.2h0a2.8,2.8,0,0,1,2.4-1.6c1.3-.1,2.8.7,3,3.1l.4,4.6-2,.2-.3-4.4c-.1-1.1-.6-1.9-1.7-1.8a1.5,1.5,0,0,0-1.4,1.3.6.6,0,0,0,0,.6l.3,4.6h-1.9Z" style="fill: #fff"/>
          <path d="M545.4,355.7a6.6,6.6,0,0,1-2.2.6,3.8,3.8,0,0,1-4.3-3.7,4,4,0,0,1,3.9-4.5l2,.2-.3,1.5a3.3,3.3,0,0,0-1.5-.1,2.2,2.2,0,0,0-2.1,2.7,2.2,2.2,0,0,0,2.5,2.3,5,5,0,0,0,1.6-.5Z" style="fill: #fff"/>
          <path d="M547.5,352.4c.1,1.4,1.3,1.9,2.5,1.8a10.3,10.3,0,0,0,2.2-.5l.4,1.3a8.8,8.8,0,0,1-2.7.7,3.7,3.7,0,0,1-4.3-3.6c-.2-2.1.9-4.3,3.4-4.5s3.5,1.8,3.7,3.5v.8Zm3.3-1.7c-.1-.7-.5-1.8-1.8-1.7a1.8,1.8,0,0,0-1.6,2Z" style="fill: #fff"/>
          <path d="M553.8,349.7c-.1-.9-.1-1.6-.2-2.3h1.7l.2,1.1h0a2.9,2.9,0,0,1,2.4-1.5c1.3-.1,2.8.6,3,3.1l.4,4.6h-2l-.3-4.3c-.1-1.2-.6-2-1.7-1.9a1.7,1.7,0,0,0-1.4,1.3.6.6,0,0,0,0,.6l.4,4.6-2,.2Z" style="fill: #fff"/>
          <path d="M564.4,344.3l.2,2.2,1.9-.2v1.5h-1.9l.3,3.5c.1.9.4,1.4,1.1,1.3h.8v1.5l-1.4.3a2.9,2.9,0,0,1-1.7-.5,2.9,2.9,0,0,1-.8-2.1l-.3-3.7h-1.1v-1.5h1.1l-.2-1.7Z" style="fill: #fff"/>
          <path d="M569.5,343.9a.9.9,0,0,1-1,1.1,1,1,0,0,1-1.2-.9,1.2,1.2,0,0,1,1-1.2C569,342.9,569.5,343.3,569.5,343.9ZM568.3,354l-.7-7.8h2l.6,7.7Z" style="fill: #fff"/>
          <path d="M572.6,345.8l1.6,3.8c.3.7.5,1.3.7,1.9h.1a19.6,19.6,0,0,1,.3-2l.9-4,2.1-.2-2.3,8-2,.2-3.5-7.5Z" style="fill: #fff"/>
          <path d="M586.7,348.5a3.8,3.8,0,0,1-3.7,4.4,3.7,3.7,0,0,1-4.2-3.6,3.9,3.9,0,0,1,3.7-4.5A3.8,3.8,0,0,1,586.7,348.5Zm-5.9.5c.1,1.5,1,2.6,2.2,2.5s1.8-1.2,1.6-2.8-.7-2.6-2.1-2.5S580.7,347.7,580.8,349Z" style="fill: #fff"/>
          <path d="M590.4,341.3l6.2-.5.2,1.6-4.3.4.3,2.9,3.9-.3.2,1.6-4,.3.4,4.6-2,.2Z" style="fill: #fff"/>
          <path d="M605.7,346.9a3.8,3.8,0,0,1-3.7,4.4,3.7,3.7,0,0,1-4.2-3.6,3.9,3.9,0,0,1,3.7-4.5A3.8,3.8,0,0,1,605.7,346.9Zm-5.9.5c.1,1.5,1,2.6,2.2,2.5s1.8-1.2,1.6-2.8-.7-2.6-2.1-2.4S599.7,346.2,599.8,347.4Z" style="fill: #fff"/>
          <path d="M606.8,345.5a15.7,15.7,0,0,0-.2-2.5l1.7-.2.2,1.5h0a2.3,2.3,0,0,1,2-1.8.5.5,0,0,1,.5,0v1.8h-.5a1.7,1.7,0,0,0-1.7,1.6v.6l.3,4.1h-1.9Z" style="fill: #fff"/>
          <path d="M613.6,346.8c.2,1.4,1.3,1.9,2.6,1.8a4.3,4.3,0,0,0,2.1-.5l.4,1.3a6.6,6.6,0,0,1-2.7.8,3.7,3.7,0,0,1-4.3-3.6c-.2-2.2.9-4.3,3.4-4.5s3.6,1.8,3.7,3.5v.8Zm3.3-1.6a1.7,1.7,0,0,0-1.8-1.8,1.9,1.9,0,0,0-1.6,2.1Z" style="fill: #fff"/>
          <path d="M620.2,347.8a3.1,3.1,0,0,0,2,.4c.9-.1,1.2-.4,1.2-.9s-.4-.8-1.4-1.1-2.3-1.1-2.3-2.1.9-2.5,2.7-2.6a4.4,4.4,0,0,1,2.1.2l-.3,1.5a2.6,2.6,0,0,0-1.6-.3c-.7,0-1.1.4-1.1.9s.5.7,1.5.9a2.8,2.8,0,0,1,2.3,2.2c.1,1.4-.9,2.6-3,2.7a4.5,4.5,0,0,1-2.4-.3Z" style="fill: #fff"/>
          <path d="M628.1,338.9l.2,2.2h1.9v1.4l-1.8.2.2,3.4c.1,1,.4,1.4,1.2,1.4l.7-.2.2,1.5a2.6,2.6,0,0,1-1.4.3,2.2,2.2,0,0,1-1.8-.5,2.9,2.9,0,0,1-.7-2.1l-.4-3.6h-1.1v-1.5h1.1v-1.8Z" style="fill: #fff"/>
          <path d="M636.4,348.3l-.2-.9h-.1a2.8,2.8,0,0,1-2.2,1.3,2.4,2.4,0,0,1-2.6-2.1c-.2-2,1.5-3.1,4.4-3.4h-.1c0-.5-.3-1.3-1.6-1.2a4.4,4.4,0,0,0-2.1.7l-.5-1.2a5.7,5.7,0,0,1,2.8-.9c2.5-.2,3.3,1.3,3.5,3l.2,2.8a4.5,4.5,0,0,0,.3,1.8Zm-.6-3.8c-1.4.1-2.7.5-2.6,1.7s.6,1.1,1.2,1a1.7,1.7,0,0,0,1.5-1.2v-1.5Z" style="fill: #fff"/>
          <path d="M638.8,336.7l2-.2,1,11.3-2,.2Z" style="fill: #fff"/>
        </g>
      </g>
      <g class="hoverable" id="bonos_verdes" onclick="showInstrument('economicos', 'economicos_o_de_mercado', 'bonos_verdes');">
        <path d="M729.3,446.6,490.7,421.1a378,378,0,0,0,2.1-39.9V378l240-2.1v5.3A620.1,620.1,0,0,1,729.3,446.6Z" style="fill: #d16bad"/>
        <g>
          <path d="M530.8,396.4l2.8-.2a5.1,5.1,0,0,1,3.1.7,2.3,2.3,0,0,1,1.2,2,2.5,2.5,0,0,1-1.8,2.3h0a2.5,2.5,0,0,1,2.1,2.6,3.1,3.1,0,0,1-1,2.3,6.4,6.4,0,0,1-4,1l-2.4-.2Zm1.9,9.2h1.1c1.2,0,2.4-.5,2.4-1.8s-1.1-1.8-2.5-1.8h-1Zm0-4.9h1c1.4,0,2.2-.7,2.2-1.6s-.8-1.5-2-1.5h-1.2Z" style="fill: #fff"/>
          <path d="M547.1,403.1a3.9,3.9,0,0,1-4,4.1,3.8,3.8,0,0,1-3.9-4,3.8,3.8,0,0,1,4-4.1A3.8,3.8,0,0,1,547.1,403.1Zm-5.9.1c0,1.5.7,2.6,1.9,2.6s2-1.1,2-2.7-.6-2.6-1.9-2.6S541.2,401.9,541.2,403.2Z" style="fill: #fff"/>
          <path d="M548.4,401.6a15.5,15.5,0,0,0-.1-2.3H550v1.1h.1a2.8,2.8,0,0,1,2.5-1.3c1.3,0,2.7.9,2.7,3.3v4.7h-1.9v-4.4c0-1.2-.4-2-1.5-2a1.8,1.8,0,0,0-1.6,1.1v5.3h-2Z" style="fill: #fff"/>
          <path d="M564.6,403.1a3.8,3.8,0,0,1-4,4.1,3.8,3.8,0,0,1-3.9-4,3.9,3.9,0,0,1,4-4.1A3.7,3.7,0,0,1,564.6,403.1Zm-5.9.1c0,1.5.8,2.6,2,2.6s1.9-1.1,1.9-2.7-.6-2.6-1.9-2.6S558.7,401.9,558.7,403.2Z" style="fill: #fff"/>
          <path d="M565.8,405.2a4.3,4.3,0,0,0,2,.6c.9,0,1.3-.3,1.3-.9s-.4-.8-1.3-1.1-2.2-1.4-2.2-2.3,1.2-2.4,3-2.4a5.6,5.6,0,0,1,2.1.4l-.4,1.4a3.9,3.9,0,0,0-1.7-.4c-.7,0-1.1.3-1.1.8s.4.7,1.4,1.1,2.1,1.2,2.1,2.4-1.1,2.4-3.2,2.4a5.7,5.7,0,0,1-2.4-.5Z" style="fill: #fff"/>
          <path d="M576.5,399.3l1.3,3.9a14.6,14.6,0,0,1,.5,2h0l.6-2,1.2-3.9h2.1l-3,7.8h-1.9l-2.9-7.8Z" style="fill: #fff"/>
          <path d="M584.2,403.7a2.2,2.2,0,0,0,2.4,2,6.5,6.5,0,0,0,2.2-.3l.3,1.3a6.8,6.8,0,0,1-2.7.5c-2.6,0-4-1.5-4-3.9s1.3-4.2,3.8-4.2,3.3,2.1,3.3,3.8v.8Zm3.5-1.4a1.7,1.7,0,0,0-1.6-1.9,2,2,0,0,0-1.9,1.9Z" style="fill: #fff"/>
          <path d="M590.8,401.8a17.8,17.8,0,0,0-.1-2.5h1.7v1.5h.1a2.4,2.4,0,0,1,2.1-1.7h.5V401h-.6a1.7,1.7,0,0,0-1.8,1.5v4.7h-2Z" style="fill: #fff"/>
          <path d="M603.2,395.7v9.2a14.8,14.8,0,0,0,.1,2.2h-1.8v-1.3h0a2.7,2.7,0,0,1-2.5,1.4c-1.9,0-3.4-1.5-3.4-3.9s1.6-4.2,3.5-4.2a2.3,2.3,0,0,1,2.2,1h0v-4.4Zm-2,6.8V402a1.7,1.7,0,0,0-1.7-1.4c-1.3,0-2,1.1-2,2.6s.7,2.5,2,2.5a1.8,1.8,0,0,0,1.7-1.4v-1.8Z" style="fill: #fff"/>
          <path d="M606.4,403.7c0,1.4,1.1,2,2.4,2a6.9,6.9,0,0,0,2.2-.3l.2,1.3a6.5,6.5,0,0,1-2.7.5,3.7,3.7,0,0,1-4-3.9c0-2.2,1.3-4.2,3.8-4.2s3.4,2.1,3.4,3.8-.1.6-.1.8Zm3.4-1.4a1.7,1.7,0,0,0-1.6-1.9,1.9,1.9,0,0,0-1.8,1.9Z" style="fill: #fff"/>
          <path d="M612.8,405.3a5.9,5.9,0,0,0,2,.5c.9,0,1.3-.3,1.3-.8s-.3-.8-1.3-1.2-2.2-1.3-2.1-2.3,1.1-2.4,2.9-2.4a4.1,4.1,0,0,1,2.1.5l-.4,1.4a3.4,3.4,0,0,0-1.7-.5c-.7,0-1,.3-1,.8s.3.8,1.3,1.1,2.1,1.2,2.1,2.4-1.1,2.4-3.2,2.4a4.9,4.9,0,0,1-2.3-.5Z" style="fill: #fff"/>
        </g>
      </g>
      <g class="hoverable" id="cuotas" onclick="showInstrument('economicos', 'economicos_o_de_mercado', 'cuotas');">
        <path d="M692.9,598.7,468.6,513.3a361.2,361.2,0,0,0,12.9-41l232.7,58.8A595.2,595.2,0,0,1,692.9,598.7Z" style="fill: #d16bad"/>
        <g>
          <path d="M524.4,509.9a6.4,6.4,0,0,1-2.8-.4,5.1,5.1,0,0,1-3.5-6.9,5.4,5.4,0,0,1,7.3-3.5,5.1,5.1,0,0,1,2.3,1.3l-.9,1.3a5,5,0,0,0-1.8-1.1,3.6,3.6,0,0,0-4.9,2.6,3.6,3.6,0,0,0,2.3,4.9l2.2.3Z" style="fill: #fff"/>
          <path d="M532.6,510.6l-.7,2.3-1.7-.6.3-1.1h0a2.6,2.6,0,0,1-2.8.5c-1.3-.4-2.3-1.7-1.5-4.1l1.5-4.3,1.9.6-1.4,4c-.4,1.3-.3,2.2.7,2.5a1.7,1.7,0,0,0,1.8-.5l.3-.5,1.5-4.5,1.8.7Z" style="fill: #fff"/>
          <path d="M541.8,512.1a4,4,0,1,1-7.5-2.5,3.9,3.9,0,0,1,5.2-2.6A3.7,3.7,0,0,1,541.8,512.1Zm-5.6-1.8c-.4,1.4-.1,2.7,1,3.1s2.2-.4,2.7-1.9.3-2.7-1-3.1S536.7,509,536.2,510.3Z" style="fill: #fff"/>
          <path d="M547.1,507.5l-.7,2.1,1.8.6-.5,1.4-1.8-.6-1.1,3.3c-.3.9-.2,1.4.5,1.7h.8l-.5,1.5-1.4-.3a2.4,2.4,0,0,1-1.4-1.2,3.4,3.4,0,0,1,.1-2.2l1.2-3.5-1-.4.4-1.4,1.1.4.6-1.7Z" style="fill: #fff"/>
          <path d="M550.9,519.4l.2-.9H551a2.7,2.7,0,0,1-2.5.3,2.4,2.4,0,0,1-1.6-3c.7-1.9,2.7-2.3,5.4-1.3h0c.2-.5.3-1.4-1-1.8a4.3,4.3,0,0,0-2.2-.2v-1.3a6.2,6.2,0,0,1,2.9.3c2.4.8,2.6,2.5,2,4.1l-.9,2.7a16.7,16.7,0,0,0-.5,1.8Zm1-3.7c-1.3-.5-2.7-.6-3,.5a1,1,0,0,0,.7,1.4,1.5,1.5,0,0,0,1.8-.5c0-.1.1-.2.2-.4Z" style="fill: #fff"/>
          <path d="M554.6,518.8a6.3,6.3,0,0,0,1.8,1.2c.8.2,1.2,0,1.4-.5s0-.8-.8-1.4-1.6-2-1.3-2.9,1.9-1.9,3.6-1.4a5.1,5.1,0,0,1,1.8,1.2l-.8,1.2a3.6,3.6,0,0,0-1.5-1,1,1,0,0,0-1.3.4c-.1.5.2.8,1,1.5a2.6,2.6,0,0,1,1.2,2.9c-.5,1.3-1.9,2-3.8,1.3a5.4,5.4,0,0,1-2.1-1.3Z" style="fill: #fff"/>
        </g>
      </g>
    </g>
  </g>
</svg>
