<svg class="animate__animated" xmlns="http://www.w3.org/2000/svg" viewBox="0 0 729 272.9">
  <g id="Capa_2" data-name="Capa 2">
    <g id="Capa_1-2" data-name="Capa 1">
      <g class="hoverable" onclick="returnToGroups(); changeImage('rueda');">
        <circle cx="127.7" cy="143.4" r="105" style="fill: #bdc4c6"/>
        <circle cx="127.5" cy="145.4" r="127" style="fill: none;stroke: #aab8bd;stroke-miterlimit: 10"/>
        <g>
          <path d="M73.1,144H67.7v4.1h6v2.2H65.1V136h8.3v2.2H67.7v3.6h5.4Z" style="fill: #112025"/>
          <path d="M86.2,149.9a9.2,9.2,0,0,1-3.7.6c-4.5,0-7.2-2.8-7.2-7.2s3.2-7.5,7.6-7.5a8.4,8.4,0,0,1,3.5.6l-.6,2.1a6.9,6.9,0,0,0-2.8-.6c-2.9,0-5,1.9-5,5.3s1.8,5.1,5,5.1a7.8,7.8,0,0,0,2.8-.5Z" style="fill: #112025"/>
          <path d="M100.6,143c0,4.8-2.9,7.5-6.9,7.5s-6.5-3-6.5-7.2,2.7-7.5,6.7-7.5S100.6,138.9,100.6,143Zm-10.7.2c0,2.9,1.5,5.2,4,5.2s3.9-2.3,3.9-5.3-1.3-5.2-3.9-5.2S89.9,140.3,89.9,143.2Z" style="fill: #112025"/>
          <path d="M102.8,150.3V136h3l3.7,6.1c.9,1.6,1.7,3.3,2.4,4.8h0c-.1-1.9-.2-3.7-.2-5.9v-5h2.4v14.3h-2.7l-3.7-6.3a45.9,45.9,0,0,1-2.6-4.9h0c.1,1.9.1,3.7.1,6.1v5.1Z" style="fill: #112025"/>
          <path d="M129.8,143c0,4.8-2.9,7.5-6.9,7.5s-6.5-3-6.5-7.2,2.7-7.5,6.7-7.5S129.8,138.9,129.8,143Zm-10.7.2c0,2.9,1.5,5.2,4,5.2s3.9-2.3,3.9-5.3-1.3-5.2-3.9-5.2S119.1,140.3,119.1,143.2Zm7.4-10.5-2.7,2.5h-2l1.8-2.5Z" style="fill: #112025"/>
          <path d="M144.1,144.5c-.1-1.9-.2-4.1-.2-6h-.1a41.7,41.7,0,0,1-1.7,5.4l-2,6.2H138l-1.9-6.1c-.5-1.8-1-3.7-1.4-5.5h0c-.1,1.8-.2,4.1-.3,6.1l-.3,5.7h-2.4l.9-14.3H136l1.9,5.8a44.3,44.3,0,0,1,1.3,4.9h.1c.4-1.5.8-3.3,1.4-5l2-5.7H146l.9,14.3h-2.6Z" style="fill: #112025"/>
          <path d="M152.1,136v14.3h-2.6V136Z" style="fill: #112025"/>
          <path d="M165.3,149.9a9,9,0,0,1-3.6.6c-4.6,0-7.3-2.8-7.3-7.2s3.2-7.5,7.6-7.5a8.4,8.4,0,0,1,3.5.6l-.6,2.1a6.9,6.9,0,0,0-2.8-.6c-2.9,0-5,1.9-5,5.3s1.8,5.1,5,5.1a7.8,7.8,0,0,0,2.8-.5Z" style="fill: #112025"/>
          <path d="M179.7,143c0,4.8-2.9,7.5-6.9,7.5s-6.5-3-6.5-7.2,2.7-7.5,6.7-7.5S179.7,138.9,179.7,143Zm-10.7.2c0,2.9,1.5,5.2,4,5.2s3.9-2.3,3.9-5.3-1.3-5.2-3.9-5.2S169,140.3,169,143.2Z" style="fill: #112025"/>
          <path d="M181.8,147.5a9,9,0,0,0,3.5.9c1.7,0,2.6-.8,2.6-2s-.7-1.7-2.5-2.4-3.9-2.1-3.9-4.1,2-4.1,5-4.1a7.7,7.7,0,0,1,3.5.7l-.7,2.1a5.6,5.6,0,0,0-2.8-.7c-1.7,0-2.4.9-2.4,1.7s.9,1.6,2.8,2.4,3.6,2.2,3.6,4.2-1.7,4.3-5.4,4.3a7.9,7.9,0,0,1-3.8-.9Z" style="fill: #112025"/>
        </g>
      </g>
      <g class="hoverable" id="negocios_verdes_y_sostenibles" onclick="showInstrument('economicos', 'educacion_y_formacion', 'negocios_verdes_y_sostenibles');">
        <path d="M488.5,118.3l240.3.6S724.7,50.3,713.3,0L472.4,39.7C474.8,44,482.2,61.2,488.5,118.3Z" style="fill: #d36caf"/>
        <g>
          <path d="M533.1,68.1,531.9,56l1.7-.2,4.5,5.7c1,1.4,1.9,2.6,2.6,3.7h0c-.3-1.6-.5-3-.7-4.9l-.5-5.1H541l1.2,12.1h-1.6l-4.4-5.7a38.8,38.8,0,0,1-2.7-3.8h-.1a50.2,50.2,0,0,1,.7,5l.5,5.1Z" style="fill: #fff"/>
          <path d="M545.3,62.7a2.9,2.9,0,0,0,3.3,2.8,8.7,8.7,0,0,0,2.4-.7l.4,1.1a7.3,7.3,0,0,1-2.9.8c-2.6.3-4.4-1.3-4.7-3.9s1.1-4.9,3.6-5.1,3.8,2.1,4,3.7v.7Zm4.5-1.6a2.1,2.1,0,0,0-2.4-2.3,2.8,2.8,0,0,0-2.2,2.8Z" style="fill: #fff"/>
          <path d="M560.4,56.5c.1.7.1,1.4.2,2.4l.5,5.1c.2,2-.1,3.2-.8,4a4.7,4.7,0,0,1-3.1,1.4,5.4,5.4,0,0,1-2.9-.4l.2-1.3a5.4,5.4,0,0,0,2.7.5c1.6-.2,2.7-1.2,2.4-3.3v-1h0a3.2,3.2,0,0,1-2.6,1.7c-2.2.2-3.9-1.4-4.1-3.8s1.4-4.8,3.4-5a2.9,2.9,0,0,1,2.9,1.2h0V56.7Zm-1.3,3.6a1.7,1.7,0,0,0-.1-.7,2.3,2.3,0,0,0-2.4-1.4c-1.5.1-2.4,1.5-2.2,3.5s1.1,3,2.8,2.9a2.4,2.4,0,0,0,2.1-1.9v-.8Z" style="fill: #fff"/>
          <path d="M571.2,59.7c.4,3.3-1.7,4.9-3.8,5.1a4.2,4.2,0,0,1-4.6-4,4.3,4.3,0,0,1,3.8-5.1A4.1,4.1,0,0,1,571.2,59.7Zm-6.8.8c.2,1.9,1.4,3.3,2.9,3.1s2.5-1.7,2.3-3.6-1-3.3-2.9-3.1S564.2,58.9,564.4,60.5Z" style="fill: #fff"/>
          <path d="M579.8,63a5.9,5.9,0,0,1-2.4.8,4.3,4.3,0,0,1-4.8-4,4.4,4.4,0,0,1,4.2-5.1,4.7,4.7,0,0,1,2.2.2l-.2,1.3a4.4,4.4,0,0,0-1.9-.3,3,3,0,0,0-2.7,3.6,3.1,3.1,0,0,0,3.3,3,3.8,3.8,0,0,0,1.9-.7Z" style="fill: #fff"/>
          <path d="M582.3,51.8a.9.9,0,0,1-.9,1.1,1,1,0,0,1-.1-1.9A.8.8,0,0,1,582.3,51.8Zm-.6,11.3-.9-8.6,1.6-.2.9,8.7Z" style="fill: #fff"/>
          <path d="M593.3,57.5a4.3,4.3,0,0,1-3.9,5c-2.3.3-4.3-1.3-4.6-4a4.2,4.2,0,0,1,3.9-5C591.2,53.2,593,54.9,593.3,57.5Zm-6.9.8c.2,1.9,1.5,3.2,3,3.1s2.5-1.7,2.3-3.7-1.1-3.2-3-3S586.3,56.6,586.4,58.3Z" style="fill: #fff"/>
          <path d="M595.3,60.1a3.8,3.8,0,0,0,2.2.4c1.1-.1,1.6-.7,1.5-1.4s-.5-1.1-1.7-1.5-2.5-1.1-2.6-2.2.9-2.6,2.8-2.8a4.4,4.4,0,0,1,2.1.3l-.2,1.2a3.4,3.4,0,0,0-1.9-.3c-.9.1-1.4.6-1.3,1.3s.6,1,1.8,1.3,2.4,1.1,2.5,2.4-.9,2.7-2.9,2.9a4.8,4.8,0,0,1-2.5-.3Z" style="fill: #fff"/>
          <path d="M606.3,51.9l2.2,4.7a20,20,0,0,1,1,2.1h0c.1-.7.3-1.5.5-2.3l1.2-5,1.7-.2-2.6,9-1.5.2L604.7,52Z" style="fill: #fff"/>
          <path d="M615.5,55.6a2.8,2.8,0,0,0,3.3,2.7,5.2,5.2,0,0,0,2.3-.7l.4,1.1a7.5,7.5,0,0,1-2.8.9,4.1,4.1,0,0,1-4.7-4c-.3-2.6,1.1-4.8,3.6-5.1s3.8,2.1,4,3.7V55ZM620,54c-.1-1-.7-2.5-2.4-2.3s-2.2,1.7-2.2,2.8Z" style="fill: #fff"/>
          <path d="M623.4,52.9c-.1-1.1-.2-1.9-.3-2.7l1.3-.2.3,1.7h0a2.6,2.6,0,0,1,2.2-2.1h.5l.2,1.5a.6.6,0,0,0-.6,0,2.2,2.2,0,0,0-1.9,2.2V54l.5,4.7H624Z" style="fill: #fff"/>
          <path d="M635.9,44.8,637,55.2a8,8,0,0,0,.3,2.3h-1.5l-.2-1.5h0a3.2,3.2,0,0,1-2.8,2c-2.1.2-3.9-1.4-4.2-4s1.3-4.8,3.5-5a2.8,2.8,0,0,1,2.7,1h0l-.5-5.2Zm-.8,7.7a1.1,1.1,0,0,0-.2-.6,2.1,2.1,0,0,0-2.4-1.6c-1.6.1-2.5,1.7-2.3,3.6s1.2,3.1,2.9,2.9a2.3,2.3,0,0,0,2.1-2.1.8.8,0,0,0,0-.7Z" style="fill: #fff"/>
          <path d="M640.3,53.1a2.7,2.7,0,0,0,3.2,2.7,5.7,5.7,0,0,0,2.4-.7l.4,1.1a7.3,7.3,0,0,1-2.9.8c-2.6.3-4.4-1.3-4.7-3.9s1.1-4.8,3.6-5.1,3.9,2.1,4,3.7a1.1,1.1,0,0,1,0,.8Zm4.5-1.6a2.4,2.4,0,0,0-2.5-2.4c-1.6.2-2.1,1.7-2.1,2.9Z" style="fill: #fff"/>
          <path d="M648.4,54.7a3.5,3.5,0,0,0,2.1.4c1.2-.1,1.7-.7,1.6-1.4s-.6-1.1-1.8-1.5-2.4-1.1-2.5-2.2.8-2.6,2.7-2.8a4.7,4.7,0,0,1,2.2.3l-.3,1.2a3.1,3.1,0,0,0-1.8-.3c-1,.1-1.4.6-1.4,1.3s.7,1,1.8,1.3,2.5,1.1,2.6,2.4-.9,2.7-3,2.9a5.1,5.1,0,0,1-2.5-.3Z" style="fill: #fff"/>
          <path d="M535,80.8l2.4,5,.7,1.7h.1c.1-.5.2-1.2.3-1.9l1.2-5.2,1.7-.2-1.7,6.4c-.9,3.1-1.5,4.7-2.5,5.7a5.1,5.1,0,0,1-1.8,1.3l-.5-1.3a5.1,5.1,0,0,0,1.3-.9,5.6,5.6,0,0,0,1.1-1.9.8.8,0,0,0,0-.8L533.2,81Z" style="fill: #fff"/>
          <path d="M547.1,86.7a4.8,4.8,0,0,0,2.2.5c1.1-.2,1.6-.8,1.5-1.5s-.5-1.1-1.8-1.4-2.4-1.2-2.5-2.3a2.7,2.7,0,0,1,2.7-2.8,4.7,4.7,0,0,1,2.2.3l-.3,1.2a2.9,2.9,0,0,0-1.8-.3c-.9.1-1.4.7-1.3,1.3s.6,1,1.8,1.3,2.4,1.1,2.5,2.4-.9,2.7-3,2.9a4.5,4.5,0,0,1-2.4-.3Z" style="fill: #fff"/>
          <path d="M562,82.4a4.3,4.3,0,0,1-3.9,5c-2.3.3-4.3-1.3-4.6-4a4.2,4.2,0,0,1,3.9-5C559.9,78.1,561.7,79.7,562,82.4Zm-6.9.8c.2,1.9,1.5,3.2,3,3.1s2.5-1.7,2.3-3.7-1.1-3.2-3-3S555,81.5,555.1,83.2Z" style="fill: #fff"/>
          <path d="M564,85a3.8,3.8,0,0,0,2.2.4c1.1-.1,1.6-.7,1.5-1.4s-.5-1.1-1.7-1.5-2.5-1.1-2.6-2.2.9-2.6,2.8-2.8a4.4,4.4,0,0,1,2.1.3l-.2,1.2a3.4,3.4,0,0,0-1.9-.3c-.9.1-1.4.6-1.3,1.3s.6,1,1.8,1.3,2.4,1.1,2.5,2.4-.9,2.7-2.9,2.9a4.8,4.8,0,0,1-2.5-.3Z" style="fill: #fff"/>
          <path d="M572.3,74.5l.2,2.5,2.3-.2V78l-2.2.2.4,4.7c.1,1.1.5,1.6,1.4,1.6l.9-.2.2,1.1a3.9,3.9,0,0,1-1.4.4,2.3,2.3,0,0,1-1.8-.5,3.2,3.2,0,0,1-.8-2.2l-.5-4.7h-1.3l-.2-1.2H571l-.2-2.1Z" style="fill: #fff"/>
          <path d="M577.8,81.2a2.9,2.9,0,0,0,3.3,2.7,7,7,0,0,0,2.3-.7l.4,1.1a6.2,6.2,0,0,1-2.8.8,4,4,0,0,1-4.7-3.9c-.3-2.7,1-4.9,3.6-5.1s3.8,2.1,4,3.7v.7Zm4.5-1.6c-.1-1.1-.7-2.6-2.4-2.4a2.7,2.7,0,0,0-2.2,2.8Z" style="fill: #fff"/>
          <path d="M585.7,78.1l-.3-2.4h1.3L587,77h0a3.2,3.2,0,0,1,2.7-1.9c1.2-.2,3.2.4,3.5,3.4l.5,5.1-1.6.2-.5-5c-.1-1.4-.8-2.5-2.3-2.4a2.3,2.3,0,0,0-1.9,1.9.8.8,0,0,0,0,.7l.5,5.2-1.6.2Z" style="fill: #fff"/>
          <path d="M596.9,72.1a1.1,1.1,0,0,1-.9,1.1,1.1,1.1,0,0,1-1.1-.9,1,1,0,0,1,.9-1.1A.9.9,0,0,1,596.9,72.1Zm-.7,11.3-.8-8.7,1.5-.2.9,8.7Z" style="fill: #fff"/>
          <path d="M600.4,82.9c-.1-.5-.1-1.4-.2-2.2l-1.1-10.5h1.6l.6,5.4h0a3.3,3.3,0,0,1,2.8-1.9c2.1-.2,3.8,1.4,4.1,4.1s-1.5,4.8-3.4,5a3.3,3.3,0,0,1-3.1-1.3h0v1.4Zm1.2-3.6c.1.2.1.4.2.6a2.5,2.5,0,0,0,2.5,1.6c1.7-.2,2.5-1.6,2.3-3.6s-1.2-3.2-2.9-3a2.5,2.5,0,0,0-2.2,2.2v2.2Z" style="fill: #fff"/>
          <path d="M609.3,69.2l1.6-.2,1.3,12.7-1.6.2Z" style="fill: #fff"/>
          <path d="M615.3,77.3c.3,2.2,1.7,2.9,3.3,2.7a4.9,4.9,0,0,0,2.4-.7l.3,1.2a7.9,7.9,0,0,1-2.8.8c-2.7.3-4.4-1.3-4.7-4s1.1-4.8,3.6-5,3.8,2.1,4,3.7v.7Zm4.5-1.6c-.1-1-.7-2.5-2.4-2.3a2.7,2.7,0,0,0-2.2,2.8Z" style="fill: #fff"/>
          <path d="M623.4,79a4.8,4.8,0,0,0,2.2.4c1.1-.1,1.6-.8,1.5-1.5s-.5-1.1-1.7-1.4-2.5-1.2-2.6-2.2a2.8,2.8,0,0,1,2.8-2.9,4.4,4.4,0,0,1,2.1.3l-.2,1.2a4.7,4.7,0,0,0-1.9-.3c-.9.1-1.4.7-1.3,1.3s.6,1,1.8,1.3,2.4,1.1,2.5,2.4-.9,2.7-2.9,3a6,6,0,0,1-2.5-.4Z" style="fill: #fff"/>
        </g>
      </g>
      <g class="hoverable" id="certificaciones_y_sellos" onclick="showInstrument('economicos', 'educacion_y_formacion', 'certificaciones_y_sellos');">
        <path d="M728.8,122.2H489c2.7,35.8-2.8,71.7-5.8,87.6L720.6,249C730.9,193.6,728.8,122.2,728.8,122.2Z" style="fill: #d36caf"/>
        <g>
          <g>
            <path d="M543.4,165.7a11.3,11.3,0,0,1-3.2.4c-3.5-.2-5.9-2.5-5.7-6.5a6,6,0,0,1,6.7-6,7.8,7.8,0,0,1,2.9.7l-.5,1.2a7,7,0,0,0-2.4-.6c-2.9-.2-4.8,1.6-5,4.7s1.4,5,4.4,5.2a6.2,6.2,0,0,0,2.5-.4Z" style="fill: #fff"/>
            <path d="M546.2,162.1a2.8,2.8,0,0,0,2.8,3.2,5.4,5.4,0,0,0,2.4-.3l.2,1.2a7,7,0,0,1-2.9.3,4,4,0,0,1-4-4.6c.1-2.6,1.8-4.6,4.3-4.4s3.5,2.7,3.4,4.3-.1.5-.1.7Zm4.7-.8a2.3,2.3,0,0,0-2.1-2.7c-1.6-.1-2.3,1.3-2.5,2.4Z" style="fill: #fff"/>
            <path d="M554.4,160.7a26.2,26.2,0,0,0,.1-2.7h1.4v1.8h.1a2.6,2.6,0,0,1,2.5-1.8h.5v1.5h-.5a2.2,2.2,0,0,0-2.3,1.9c0,.2-.1.5-.1.7l-.3,4.7h-1.5Z" style="fill: #fff"/>
            <path d="M562.9,155.9v2.5l2.2.2v1.2l-2.3-.2-.3,4.7c0,1.1.3,1.7,1.1,1.8h1v1.2l-1.4.2a2.1,2.1,0,0,1-1.7-.8,3.2,3.2,0,0,1-.5-2.3l.3-4.7h-1.4v-1.2h1.3l.2-2Z" style="fill: #fff"/>
            <path d="M566.3,167.4l.5-8.7h1.6l-.5,8.7Zm2.4-11.1a.8.8,0,0,1-1,.9,1,1,0,1,1,1-.9Z" style="fill: #fff"/>
            <path d="M570.7,167.6l.4-7.5h-1.2v-1.2h1.2v-.5a3.4,3.4,0,0,1,4-3.5,3.6,3.6,0,0,1,2.2.7l-.5,1.1a5.4,5.4,0,0,0-1.8-.6c-1.7-.1-2.2,1.1-2.3,2.5v.4l5,.3-.5,8.7h-1.6l.5-7.5-3.5-.2-.4,7.5Z" style="fill: #fff"/>
            <path d="M586.2,168.2a5.9,5.9,0,0,1-2.6.3c-2.6-.1-4.2-2-4.1-4.7a4.9,4.9,0,0,1,7.2-3.7l-.5,1.2a3.1,3.1,0,0,0-1.8-.6c-2-.1-3.1,1.3-3.2,3.2a2.9,2.9,0,0,0,2.8,3.4,8.5,8.5,0,0,0,2-.3Z" style="fill: #fff"/>
            <path d="M592.8,168.9v-1.1h0a3.2,3.2,0,0,1-2.7,1.1,2.6,2.6,0,0,1-2.6-2.7c.2-2.1,2.1-3.1,5.4-2.9v-.2A1.8,1.8,0,0,0,591,161a5.6,5.6,0,0,0-2.3.5l-.3-1a5.2,5.2,0,0,1,2.9-.7c2.7.2,3.2,2.1,3.1,3.8l-.2,3.2v2.1Zm0-4.5c-1.7-.1-3.7.1-3.8,1.8a1.5,1.5,0,0,0,1.4,1.6,2.3,2.3,0,0,0,2.2-1.4.7.7,0,0,0,.1-.5Z" style="fill: #fff"/>
            <path d="M602.9,169.1a7.4,7.4,0,0,1-2.6.4,4.1,4.1,0,0,1-4-4.7,4.4,4.4,0,0,1,4.9-4.4,8.5,8.5,0,0,1,2.2.6l-.5,1.2a3.2,3.2,0,0,0-1.8-.5,3.3,3.3,0,0,0-.4,6.5,3.8,3.8,0,0,0,2-.3Z" style="fill: #fff"/>
            <path d="M604.7,169.5l.5-8.7h1.6l-.5,8.7Zm2.4-11c0,.5-.4.9-1.1.9a1,1,0,0,1-.9-1,1.1,1.1,0,0,1,1.1-1A1,1,0,0,1,607.1,158.5Z" style="fill: #fff"/>
            <path d="M617,165.8a4.3,4.3,0,0,1-4.6,4.4,4.3,4.3,0,0,1-3.9-4.7c.2-3,2.2-4.6,4.6-4.4S617.2,163.1,617,165.8Zm-6.9-.3c-.1,1.9.9,3.4,2.5,3.5s2.7-1.3,2.8-3.2-.5-3.4-2.4-3.5S610.2,163.8,610.1,165.5Z" style="fill: #fff"/>
            <path d="M619.1,164a20.9,20.9,0,0,0,.1-2.4h1.4v1.4h0a3.1,3.1,0,0,1,3-1.5c1.2,0,3,.9,2.9,3.9l-.3,5.1h-1.6l.3-5.1c.1-1.4-.4-2.6-1.9-2.6a2.2,2.2,0,0,0-2.2,1.5,6.4,6.4,0,0,0-.2.7l-.2,5.2h-1.6Z" style="fill: #fff"/>
            <path d="M629.9,166.9a2.8,2.8,0,0,0,2.8,3.2,7.4,7.4,0,0,0,2.4-.3l.2,1.1a6.8,6.8,0,0,1-2.9.4,4,4,0,0,1-4-4.6c.1-2.7,1.8-4.7,4.3-4.5s3.5,2.7,3.4,4.3a2.3,2.3,0,0,0-.1.7Zm4.7-.9c0-1-.3-2.6-2.1-2.7s-2.4,1.4-2.6,2.5Z" style="fill: #fff"/>
            <path d="M637.6,169.8a4.4,4.4,0,0,0,2.1.7c1.1.1,1.7-.5,1.7-1.2s-.3-1.2-1.5-1.7-2.2-1.5-2.2-2.6,1.3-2.5,3.2-2.3a4,4,0,0,1,2.1.6l-.5,1.1a4.1,4.1,0,0,0-1.7-.6c-.9,0-1.5.5-1.5,1.1s.4,1.1,1.5,1.6,2.2,1.5,2.2,2.8-1.4,2.5-3.4,2.4a5.2,5.2,0,0,1-2.4-.7Z" style="fill: #fff"/>
          </g>
          <g>
            <path d="M535.2,175.4l1.6,5.2a13.3,13.3,0,0,1,.5,1.9h0a13.4,13.4,0,0,1,.7-1.8l2-5h1.7l-2.7,6c-1.4,2.9-2.2,4.4-3.4,5.3a4.1,4.1,0,0,1-2,.9l-.3-1.3,1.5-.7a6.3,6.3,0,0,0,1.4-1.7.8.8,0,0,0,.1-.4v-.4l-2.8-8.2Z" style="fill: #fff"/>
            <path d="M546.3,183.1a4.4,4.4,0,0,0,2.1.8c1.1.1,1.7-.5,1.7-1.2s-.4-1.2-1.5-1.7a3,3,0,0,1-2.2-2.6c.1-1.4,1.3-2.5,3.2-2.4a5.2,5.2,0,0,1,2.1.7l-.5,1.1a4.1,4.1,0,0,0-1.7-.6c-1,0-1.5.5-1.5,1.1s.4,1.1,1.5,1.6,2.2,1.4,2.2,2.7-1.4,2.6-3.5,2.5a5.7,5.7,0,0,1-2.4-.8Z" style="fill: #fff"/>
            <path d="M554.7,181.2a2.8,2.8,0,0,0,2.8,3.2,7.4,7.4,0,0,0,2.4-.3l.2,1.1a6.8,6.8,0,0,1-2.9.4,4,4,0,0,1-4-4.7c.1-2.6,1.8-4.6,4.3-4.4s3.5,2.7,3.4,4.3a2.3,2.3,0,0,0-.1.7Zm4.7-.9c0-1-.3-2.6-2.1-2.7s-2.4,1.4-2.6,2.4Z" style="fill: #fff"/>
            <path d="M563.3,173h1.6l-.8,12.8h-1.6Z" style="fill: #fff"/>
            <path d="M567.5,173.2h1.6l-.7,12.8h-1.6Z" style="fill: #fff"/>
            <path d="M579.2,182.2c-.2,3.3-2.5,4.5-4.6,4.4s-4.1-2-4-4.7a4.3,4.3,0,0,1,4.6-4.4A4.3,4.3,0,0,1,579.2,182.2Zm-7-.3c-.1,1.9.9,3.4,2.5,3.5s2.7-1.2,2.8-3.2-.5-3.4-2.4-3.5S572.3,180.3,572.2,181.9Z" style="fill: #fff"/>
            <path d="M580.8,185.2a3.6,3.6,0,0,0,2,.7c1.2.1,1.7-.5,1.8-1.2s-.4-1.2-1.5-1.7-2.3-1.5-2.2-2.6,1.3-2.5,3.2-2.4a5.8,5.8,0,0,1,2.1.7l-.5,1.1a4.1,4.1,0,0,0-1.8-.6,1.4,1.4,0,0,0-1.5,1.1c0,.7.5,1.1,1.6,1.6s2.2,1.5,2.1,2.8-1.3,2.5-3.4,2.4a5.7,5.7,0,0,1-2.4-.8Z" style="fill: #fff"/>
          </g>
        </g>
      </g>
      <g class="hoverable" onclick="returnToTypesInstrument(); changeImage('economicos/E_Herramienta_Segundo_Plano');">
        <path d="M447,143.6a325.7,325.7,0,0,1-5.5,59.4l19.2,3.2a334.4,334.4,0,0,0,5.8-62.6A341.3,341.3,0,0,0,451.3,43.2l-19.4,3.2A323,323,0,0,1,447,143.6Z" style="fill: #3f3793"/>
        <path d="M431.9,46.4,266.4,77.1a145.3,145.3,0,0,1,11.1,99.4l164,26.5a325.7,325.7,0,0,0,5.5-59.4A323,323,0,0,0,431.9,46.4Z" style="fill: #d36caf"/>
        <g>
          <path d="M313.8,114.8h-6v5.6h6.7v1.7h-8.7V106.6h8.4v1.7h-6.4v4.9h6Z" style="fill: #fff"/>
          <path d="M326.6,105.8v13.4a26.2,26.2,0,0,0,.1,2.9h-1.8v-1.9h-.1a4.2,4.2,0,0,1-3.8,2.2c-2.7,0-4.7-2.3-4.7-5.7s2.2-6,5-6a3.6,3.6,0,0,1,3.3,1.7h.1v-6.6Zm-2,9.7c0-.2-.1-.6-.1-.8a3,3,0,0,0-3-2.4c-2,0-3.3,1.9-3.3,4.3s1.1,4.1,3.3,4.1a3.1,3.1,0,0,0,3-2.4c0-.3.1-.5.1-.9Z" style="fill: #fff"/>
          <path d="M339.3,119.1v3h-1.7l-.2-1.8h0a4.2,4.2,0,0,1-3.7,2.1c-1.7,0-3.8-1-3.8-4.9V111h2v6.1c0,2.2.6,3.6,2.5,3.6a2.9,2.9,0,0,0,2.6-1.9,1.6,1.6,0,0,0,.2-1V111h2.1Z" style="fill: #fff"/>
          <path d="M350.5,121.7a7,7,0,0,1-3.1.6,5.2,5.2,0,0,1-5.6-5.6,5.7,5.7,0,0,1,6-6,6.5,6.5,0,0,1,2.8.6l-.5,1.6a4.1,4.1,0,0,0-2.3-.5c-2.6,0-3.9,1.8-3.9,4.2a3.8,3.8,0,0,0,3.8,4.1,6.8,6.8,0,0,0,2.5-.5Z" style="fill: #fff"/>
          <path d="M359.1,122.1l-.2-1.4h0a4.4,4.4,0,0,1-3.5,1.7,3.2,3.2,0,0,1-3.4-3.2c0-2.7,2.4-4.2,6.7-4.2v-.2a2.3,2.3,0,0,0-2.5-2.6,5.7,5.7,0,0,0-2.9.8l-.5-1.3a7.3,7.3,0,0,1,3.7-1c3.4,0,4.2,2.3,4.2,4.6v4.1a21.3,21.3,0,0,0,.2,2.7Zm-.3-5.7c-2.2,0-4.7.4-4.7,2.5a1.8,1.8,0,0,0,1.9,2,3,3,0,0,0,2.7-1.9c0-.2.1-.4.1-.6Z" style="fill: #fff"/>
          <path d="M371.9,121.7a7.1,7.1,0,0,1-3.2.6,5.2,5.2,0,0,1-5.5-5.6,5.7,5.7,0,0,1,6-6,6.5,6.5,0,0,1,2.8.6l-.5,1.6a4.4,4.4,0,0,0-2.3-.5c-2.6,0-4,1.8-4,4.2a3.8,3.8,0,0,0,3.9,4.1,6.8,6.8,0,0,0,2.5-.5Z" style="fill: #fff"/>
          <path d="M376.6,107.9a1.2,1.2,0,0,1-1.3,1.2,1.2,1.2,0,0,1-1.2-1.2,1.2,1.2,0,0,1,1.2-1.3A1.2,1.2,0,0,1,376.6,107.9Zm-2.3,14.2V111h2v11.1Z" style="fill: #fff"/>
          <path d="M389.8,116.5c0,4.1-2.9,5.9-5.6,5.9s-5.3-2.2-5.3-5.8,2.4-5.9,5.5-5.9S389.8,113,389.8,116.5Zm-8.9.1c0,2.4,1.4,4.2,3.4,4.2s3.4-1.8,3.4-4.3-1-4.3-3.3-4.3S380.9,114.5,380.9,116.6Zm6.4-10.4-2.8,3.3h-1.4l2-3.3Z" style="fill: #fff"/>
          <path d="M392.3,114a27.2,27.2,0,0,0-.1-3H394v1.8h.1a4.1,4.1,0,0,1,3.7-2.1c1.5,0,3.9.9,3.9,4.8v6.6h-2v-6.4c0-1.8-.7-3.3-2.6-3.3a2.8,2.8,0,0,0-2.7,2.1,2.4,2.4,0,0,0-.2.9v6.7h-2Z" style="fill: #fff"/>
          <path d="M410.7,111l2.4,6.6a11.1,11.1,0,0,1,.7,2.2h.1c.2-.6.4-1.5.7-2.3l2.2-6.5h2.1l-3,7.9c-1.4,3.8-2.4,5.8-3.8,7a5.4,5.4,0,0,1-2.5,1.3l-.5-1.7a6.6,6.6,0,0,0,1.8-1,6.5,6.5,0,0,0,1.7-2.3.8.8,0,0,0,.1-.4,1.5,1.5,0,0,0-.1-.6L408.5,111Z" style="fill: #fff"/>
          <path d="M305.8,134.2h8.4v1.7h-6.4V141h5.9v1.7h-5.9v7h-2Z" style="fill: #fff"/>
          <path d="M326.3,144.1c0,4.1-2.8,5.9-5.5,5.9s-5.4-2.2-5.4-5.8,2.5-5.9,5.5-5.9S326.3,140.6,326.3,144.1Zm-8.8.1c0,2.4,1.4,4.2,3.4,4.2s3.3-1.8,3.3-4.3-.9-4.3-3.3-4.3S317.5,142.1,317.5,144.2Z" style="fill: #fff"/>
          <path d="M328.9,141.6c0-1.2-.1-2.1-.1-3h1.7v1.8h.1a3.8,3.8,0,0,1,3.5-2.1,3.1,3.1,0,0,1,3.1,2.3h.1a4.7,4.7,0,0,1,1.2-1.5,3.9,3.9,0,0,1,2.5-.8c1.5,0,3.7,1,3.7,4.9v6.5h-2v-6.3c0-2.1-.8-3.4-2.4-3.4a2.5,2.5,0,0,0-2.4,1.8,3.6,3.6,0,0,0-.2,1v6.9h-2V143c0-1.7-.8-3-2.3-3a2.7,2.7,0,0,0-2.5,2,3,3,0,0,0-.2,1v6.7h-1.9Z" style="fill: #fff"/>
          <path d="M354.2,149.7l-.2-1.4h0a4,4,0,0,1-3.4,1.7,3.1,3.1,0,0,1-3.4-3.2c0-2.7,2.4-4.2,6.7-4.2v-.2a2.4,2.4,0,0,0-2.6-2.6,5.7,5.7,0,0,0-2.9.8l-.4-1.3a6.6,6.6,0,0,1,3.6-1c3.4,0,4.3,2.3,4.3,4.6V147a22.6,22.6,0,0,0,.1,2.7Zm-.3-5.7c-2.2,0-4.7.4-4.7,2.5a1.9,1.9,0,0,0,1.9,2,2.9,2.9,0,0,0,2.7-1.9,1.3,1.3,0,0,0,.1-.6Z" style="fill: #fff"/>
          <path d="M367.1,149.3a7.5,7.5,0,0,1-3.2.6,5.2,5.2,0,0,1-5.6-5.6,5.7,5.7,0,0,1,6-6,6.1,6.1,0,0,1,2.8.6l-.5,1.6a4.1,4.1,0,0,0-2.3-.5c-2.5,0-3.9,1.8-3.9,4.2a3.8,3.8,0,0,0,3.8,4.1,6.8,6.8,0,0,0,2.5-.5Z" style="fill: #fff"/>
          <path d="M371.7,135.5a1.2,1.2,0,0,1-1.3,1.2,1.2,1.2,0,0,1-1.2-1.2,1.2,1.2,0,0,1,1.2-1.3A1.2,1.2,0,0,1,371.7,135.5Zm-2.3,14.2V138.6h2.1v11.1Z" style="fill: #fff"/>
          <path d="M384.9,144.1c0,4.1-2.9,5.9-5.6,5.9s-5.3-2.2-5.3-5.8,2.4-5.9,5.5-5.9S384.9,140.6,384.9,144.1Zm-8.8.1c0,2.4,1.4,4.2,3.3,4.2s3.4-1.8,3.4-4.3-.9-4.3-3.3-4.3S376.1,142.1,376.1,144.2Zm6.4-10.4-2.8,3.3h-1.5l2-3.3Z" style="fill: #fff"/>
          <path d="M387.4,141.6a27.2,27.2,0,0,0-.1-3h1.8l.2,1.8h0a4.2,4.2,0,0,1,3.7-2.1c1.5,0,3.9.9,3.9,4.8v6.6h-2v-6.4c0-1.8-.7-3.3-2.6-3.3a2.8,2.8,0,0,0-2.7,2.1,2.5,2.5,0,0,0-.1.9v6.7h-2.1Z" style="fill: #fff"/>
        </g>
      </g>
    </g>
  </g>
</svg>
