<svg class="animate__animated" xmlns="http://www.w3.org/2000/svg" viewBox="0 0 734.4 312.7">
  <g id="Capa_2" data-name="Capa 2">
    <g id="Capa_1-2" data-name="Capa 1">
      <g class="hoverable" id="pago_por_servicios_ambientales_psa" onclick="showInstrument('economicos', 'voluntarios', 'pago_por_servicios_ambientales_psa');">
        <path d="M494.3,162.3c-.1-2.1-.1-4.3-.2-6.5a361.7,361.7,0,0,0-4.1-43L727.3,76.5a635.1,635.1,0,0,1,6.6,70.4q.3,5.3.3,10.5Z" style="fill: #d16bad"/>
        <g>
          <path d="M540.3,116.6a16.8,16.8,0,0,1,3-.5,5.2,5.2,0,0,1,3.5.7,3.4,3.4,0,0,1,1.3,2.4,4,4,0,0,1-.8,2.7,4.9,4.9,0,0,1-3.5,1.7h-1.3l.4,4.8-1.5.2Zm2.1,5.7a2.8,2.8,0,0,0,1.3,0c1.9-.2,2.9-1.2,2.8-2.8s-1.3-2.3-3.1-2.2l-1.4.3Z" style="fill: #fff"/>
          <path d="M555.2,127.3l-.2-1.1h-.1a3.1,3.1,0,0,1-2.5,1.6,2.5,2.5,0,0,1-2.9-2.3c-.2-2.1,1.6-3.4,4.9-3.7v-.2c0-.7-.3-1.9-2.1-1.8a4,4,0,0,0-2.2.9l-.5-1.1a5.8,5.8,0,0,1,2.8-1c2.7-.2,3.5,1.5,3.6,3.3l.3,3.2q.2,1.2.3,2.1Zm-.6-4.4c-1.7.1-3.7.6-3.5,2.3a1.5,1.5,0,0,0,1.6,1.4,2.3,2.3,0,0,0,2-1.7v-2Z" style="fill: #fff"/>
          <path d="M565.7,117.6c.1.7.1,1.4.2,2.4l.4,5.1c.2,2-.1,3.2-.8,4a4.7,4.7,0,0,1-3.1,1.4,5.8,5.8,0,0,1-3-.5l.3-1.2a5.1,5.1,0,0,0,2.6.4c1.6-.1,2.8-1.1,2.6-3.3V125h-.1a3.4,3.4,0,0,1-2.6,1.7,3.9,3.9,0,0,1-4.1-3.9c-.2-3,1.5-4.8,3.5-5a3.1,3.1,0,0,1,2.9,1.3h0v-1.3Zm-1.3,3.6a1.5,1.5,0,0,0-.1-.7,2.3,2.3,0,0,0-2.4-1.5c-1.5.2-2.5,1.5-2.3,3.5s1.2,3.1,2.9,2.9a2.2,2.2,0,0,0,2-1.8,2.5,2.5,0,0,0,.1-.8Z" style="fill: #fff"/>
          <path d="M576.5,121a4.3,4.3,0,0,1-3.9,5,4.1,4.1,0,0,1-4.5-4.1c-.3-2.9,1.4-4.8,3.8-5A4.1,4.1,0,0,1,576.5,121Zm-6.9.7c.2,1.9,1.4,3.2,3,3.1s2.5-1.7,2.3-3.6-1-3.3-2.9-3.1S569.5,120,569.6,121.7Z" style="fill: #fff"/>
          <path d="M582.2,119c-.1-1.1-.2-2-.3-2.8h1.4l.2,1.4h0a3.4,3.4,0,0,1,3-1.9c2-.2,3.8,1.4,4,4.1s-1.5,4.8-3.5,5a3,3,0,0,1-2.8-1.1h0l.4,4.7H583Zm1.8,2.2a1.3,1.3,0,0,0,.1.6,2.5,2.5,0,0,0,2.5,1.7c1.7-.2,2.5-1.6,2.4-3.6s-1.3-3.2-2.9-3a2.4,2.4,0,0,0-2.2,2.2,1.3,1.3,0,0,0-.1.6Z" style="fill: #fff"/>
          <path d="M600.4,118.8c.3,3.3-1.8,4.9-3.9,5a4.1,4.1,0,0,1-4.6-4.1,4.2,4.2,0,0,1,3.9-4.9C598.3,114.5,600.1,116.2,600.4,118.8Zm-6.9.7c.2,2,1.4,3.3,2.9,3.1s2.5-1.6,2.4-3.6-1.1-3.2-2.9-3.1S593.3,117.9,593.5,119.5Z" style="fill: #fff"/>
          <path d="M602.2,117.1q-.2-1.5-.3-2.7h1.4l.2,1.7h.1a2.5,2.5,0,0,1,2.2-2.1c.2-.1.3-.1.4,0l.2,1.5a.6.6,0,0,0-.6,0,2.2,2.2,0,0,0-1.9,2.2v.7l.4,4.6-1.6.2Z" style="fill: #fff"/>
          <path d="M612.1,120.6a4.1,4.1,0,0,0,2.1.5,1.6,1.6,0,0,0,1.6-1.5c-.1-.7-.6-1.1-1.8-1.4s-2.4-1.2-2.5-2.3.9-2.6,2.8-2.8a3.5,3.5,0,0,1,2.1.4l-.3,1.1a3.9,3.9,0,0,0-1.8-.3c-.9.1-1.4.7-1.3,1.3s.6,1,1.8,1.3,2.4,1.2,2.5,2.4-1,2.7-3,2.9a4.8,4.8,0,0,1-2.5-.3Z" style="fill: #fff"/>
          <path d="M620,117.5a2.9,2.9,0,0,0,3.3,2.7,5.2,5.2,0,0,0,2.3-.7l.4,1.1a6.7,6.7,0,0,1-2.8.8,4,4,0,0,1-4.7-4c-.2-2.6,1.1-4.8,3.7-5s3.8,2.2,3.9,3.8v.7Zm4.6-1.6a2.4,2.4,0,0,0-2.5-2.4,2.8,2.8,0,0,0-2.2,2.8Z" style="fill: #fff"/>
          <path d="M628,114.8a19.3,19.3,0,0,0-.4-2.7H629l.2,1.7h.1a2.6,2.6,0,0,1,2.2-2.1h.5v1.5h-.5a2.4,2.4,0,0,0-2,2.2v.7l.5,4.6-1.6.2Z" style="fill: #fff"/>
          <path d="M634.6,111.5l2.2,4.7.9,2.2h0l.6-2.3,1.2-5.1h1.7l-2.7,9H637l-4-8.4Z" style="fill: #fff"/>
          <path d="M644.2,108.2a.9.9,0,0,1-.9,1,.9.9,0,0,1-1.1-.9,1,1,0,0,1,.9-1A.9.9,0,0,1,644.2,108.2Zm-.8,11.2-.7-8.6,1.5-.2.8,8.7Z" style="fill: #fff"/>
          <path d="M653.8,118.2a5.4,5.4,0,0,1-2.5.7c-2.6.3-4.4-1.4-4.7-4a4.4,4.4,0,0,1,4.3-5,4.8,4.8,0,0,1,2.2.2l-.3,1.3a2.9,2.9,0,0,0-1.8-.3,3.1,3.1,0,0,0-2.8,3.6,2.9,2.9,0,0,0,3.3,2.9,3.1,3.1,0,0,0,1.9-.6Z" style="fill: #fff"/>
          <path d="M656.4,107.1a.9.9,0,0,1-.9,1,.8.8,0,0,1-1-.8.9.9,0,0,1,.9-1.1A.8.8,0,0,1,656.4,107.1Zm-.7,11.3-.8-8.7,1.6-.2.7,8.7Z" style="fill: #fff"/>
          <path d="M667.3,112.9a4.3,4.3,0,1,1-8.5.9c-.2-2.9,1.5-4.8,3.9-5A4.1,4.1,0,0,1,667.3,112.9Zm-6.9.7c.2,1.9,1.4,3.2,3,3.1s2.5-1.7,2.3-3.6-1-3.3-2.9-3.1S660.3,111.9,660.4,113.6Z" style="fill: #fff"/>
          <path d="M669.3,115.5a4.8,4.8,0,0,0,2.2.5c1.1-.2,1.6-.8,1.5-1.5s-.5-1.1-1.7-1.4-2.4-1.3-2.5-2.3.9-2.6,2.7-2.8a4.7,4.7,0,0,1,2.2.3l-.3,1.2a2.9,2.9,0,0,0-1.8-.3c-.9.1-1.4.6-1.3,1.3s.6,1,1.7,1.3,2.4,1.1,2.6,2.4-1,2.7-3.1,2.9a4.2,4.2,0,0,1-2.5-.4Z" style="fill: #fff"/>
          <path d="M548.1,149.6l-.3-1h0a3.2,3.2,0,0,1-2.6,1.5,2.4,2.4,0,0,1-2.8-2.3c-.2-2.1,1.5-3.4,4.9-3.7h0a1.9,1.9,0,0,0-2.2-1.9,4.3,4.3,0,0,0-2.2.9l-.4-1a4.8,4.8,0,0,1,2.8-1.1c2.6-.2,3.4,1.6,3.6,3.3l.3,3.3a6.4,6.4,0,0,0,.3,2Zm-.7-4.4c-1.7.2-3.6.6-3.5,2.3a1.4,1.4,0,0,0,1.6,1.4,2.2,2.2,0,0,0,2-1.6,1.3,1.3,0,0,0,.1-.6Z" style="fill: #fff"/>
          <path d="M551.3,143a15.7,15.7,0,0,0-.3-2.4h1.4l.2,1.4h.1a2.8,2.8,0,0,1,2.6-1.8,2.5,2.5,0,0,1,2.6,1.5h0a2.7,2.7,0,0,1,.9-1.2,2.3,2.3,0,0,1,1.8-.8c1.2-.1,3,.5,3.2,3.5l.5,5.1h-1.6l-.4-4.9c-.1-1.6-.8-2.6-2.1-2.5a2.1,2.1,0,0,0-1.8,1.6v.8l.5,5.4h-1.6l-.4-5.2c-.2-1.4-.9-2.3-2.1-2.2a2.1,2.1,0,0,0-1.8,1.7c0,.3-.1.6,0,.8l.4,5.3h-1.5Z" style="fill: #fff"/>
          <path d="M566.8,148a21.5,21.5,0,0,0-.2-2.3l-.9-10.5h1.6l.5,5.4h0a3.2,3.2,0,0,1,2.8-1.8c2.2-.2,3.8,1.5,4.1,4.1s-1.6,4.8-3.5,5a3.2,3.2,0,0,1-3.1-1.4h0v1.5Zm1.3-3.6a4.3,4.3,0,0,1,.1.5,2.5,2.5,0,0,0,2.5,1.7c1.7-.2,2.6-1.6,2.4-3.6s-1.2-3.2-2.9-3a2.4,2.4,0,0,0-2.2,2.1,1.6,1.6,0,0,0,0,.7Z" style="fill: #fff"/>
          <path d="M577.8,135.8a.9.9,0,0,1-.9,1,.8.8,0,0,1-1-.8.9.9,0,0,1,.9-1.1A.9.9,0,0,1,577.8,135.8Zm-.8,11.3-.7-8.7,1.5-.2.8,8.7Z" style="fill: #fff"/>
          <path d="M581.8,142.6a2.7,2.7,0,0,0,3.2,2.7,6.2,6.2,0,0,0,2.4-.7l.3,1.1a6.2,6.2,0,0,1-2.8.8c-2.7.3-4.4-1.3-4.7-4s1.2-4.8,3.7-5,3.8,2.2,3.9,3.8a2,2,0,0,1,.1.7Zm4.5-1.6a2.4,2.4,0,0,0-2.4-2.4,2.7,2.7,0,0,0-2.2,2.8Z" style="fill: #fff"/>
          <path d="M589.7,139.6l-.3-2.4h1.4l.2,1.4h0a3.2,3.2,0,0,1,2.7-1.9c1.3-.1,3.2.5,3.4,3.4l.5,5.2-1.6.2-.4-5c-.1-1.4-.8-2.6-2.3-2.4a2.2,2.2,0,0,0-1.9,1.8,1.7,1.7,0,0,0-.1.7l.5,5.2-1.6.2Z" style="fill: #fff"/>
          <path d="M601,133.7l.2,2.5,2.3-.3v1.3l-2.3.2.4,4.6c.1,1.1.5,1.7,1.4,1.6l.9-.2.2,1.2a2.6,2.6,0,0,1-1.4.3,2.2,2.2,0,0,1-1.8-.5,3.2,3.2,0,0,1-.8-2.2l-.4-4.7h-1.4v-1.2h1.4l-.2-2.1Z" style="fill: #fff"/>
          <path d="M610.8,144l-.2-1h0a3.4,3.4,0,0,1-2.6,1.5,2.6,2.6,0,0,1-2.9-2.3c-.1-2.1,1.6-3.4,5-3.7h0a1.9,1.9,0,0,0-2.2-1.9,4.3,4.3,0,0,0-2.2.9l-.4-1a4.4,4.4,0,0,1,2.7-1.1c2.7-.2,3.5,1.6,3.7,3.3l.2,3.2a11.2,11.2,0,0,0,.4,2.1Zm-.6-4.4c-1.7.2-3.6.6-3.5,2.3a1.4,1.4,0,0,0,1.6,1.4,2.2,2.2,0,0,0,2-1.6c0-.2.1-.4,0-.6Z" style="fill: #fff"/>
          <path d="M613.5,131l1.6-.2,1.2,12.8h-1.6Z" style="fill: #fff"/>
          <path d="M619.4,139.2a2.8,2.8,0,0,0,3.3,2.7,5.4,5.4,0,0,0,2.3-.6l.4,1.1a6.7,6.7,0,0,1-2.8.8,4.1,4.1,0,0,1-4.7-4c-.2-2.6,1.1-4.8,3.7-5.1s3.8,2.2,3.9,3.8v.7Zm4.5-1.6a2.1,2.1,0,0,0-2.4-2.3c-1.6.1-2.1,1.7-2.2,2.8Z" style="fill: #fff"/>
          <path d="M627.5,140.9a4.8,4.8,0,0,0,2.2.5c1.1-.1,1.6-.8,1.5-1.5s-.5-1.1-1.7-1.4-2.4-1.2-2.5-2.3.9-2.6,2.7-2.8a3.6,3.6,0,0,1,2.2.4l-.3,1.1a3.9,3.9,0,0,0-1.8-.3c-.9.1-1.4.7-1.3,1.3s.6,1,1.7,1.3,2.4,1.2,2.5,2.4-.9,2.8-3,2.9a5.1,5.1,0,0,1-2.5-.3Z" style="fill: #fff"/>
          <path d="M642,135.8V137l-4.5.3v-1.1Z" style="fill: #fff"/>
          <path d="M647.1,128.8a15.4,15.4,0,0,1,3-.5,4.4,4.4,0,0,1,3.4.7,3.2,3.2,0,0,1,1.3,2.4,3.5,3.5,0,0,1-.7,2.7,4.9,4.9,0,0,1-3.6,1.6,2.4,2.4,0,0,1-1.2,0l.4,4.9h-1.6Zm2.1,5.7h1.3c1.8-.2,2.9-1.2,2.8-2.9s-1.4-2.3-3.1-2.1l-1.5.3Z" style="fill: #fff"/>
          <path d="M657.3,138a6.3,6.3,0,0,0,2.9.5c1.6-.1,2.4-1,2.3-2.3s-.8-1.7-2.5-2.2-3.3-1.4-3.5-3.1,1.3-3.4,3.6-3.6a6.9,6.9,0,0,1,2.8.3l-.4,1.3a4.5,4.5,0,0,0-2.3-.3c-1.7.1-2.2,1.1-2.1,2s.9,1.6,2.6,2.1,3.2,1.5,3.4,3.3-1.1,3.6-3.9,3.8a6.2,6.2,0,0,1-3.2-.5Z" style="fill: #fff"/>
          <path d="M668.1,135.1l-.9,3.9-1.6.2,3-12.5,1.9-.2,5.2,11.8h-1.6l-1.7-3.7Zm3.9-1.6-1.5-3.3c-.3-.8-.6-1.5-.8-2.2h-.1a17,17,0,0,1-.4,2.2l-.8,3.6Z" style="fill: #fff"/>
        </g>
      </g>
      <g class="hoverable" id="redd" onclick="showInstrument('economicos', 'voluntarios', 'redd');">
        <path d="M489.2,108.1c-2.4-14.1-7.4-28-11.4-41.7L708.5,0a627.4,627.4,0,0,1,15.6,69.1Z" style="fill: #d16bad"/>
        <g>
          <path d="M529.8,71.9l2.9-.8a5.4,5.4,0,0,1,3.7.3,3.8,3.8,0,0,1,1.3,2.1A3.2,3.2,0,0,1,536,77h0a3.3,3.3,0,0,1,2.2,2.1c.7,1.6,1.2,2.7,1.5,3.2l-1.6.2a16.9,16.9,0,0,1-1.3-2.7c-.7-1.6-1.4-2.1-2.8-1.9l-1.5.3,1,5.2-1.6.3Zm2.5,5.1,1.6-.3a2.3,2.3,0,0,0,2.3-2.7c-.3-1.5-1.5-2-3.2-1.7l-1.5.4Z" style="fill: #fff"/>
          <path d="M546.6,75.2l-4.6.9.8,4.3,5.1-1,.3,1.3-6.7,1.2L539.3,70l6.5-1.2.2,1.3-4.9.9.7,3.8,4.6-.8Z" style="fill: #fff"/>
          <path d="M548.1,68.6l3.2-.9a6.8,6.8,0,0,1,5.1.7,5.3,5.3,0,0,1,2.4,4,6.2,6.2,0,0,1-.8,4.9,7.8,7.8,0,0,1-5,2.7l-2.8.3Zm3.4,10.3,1.6-.2c3.3-.6,4.7-2.8,4.1-6s-2.4-4.3-5.6-3.7l-1.8.4Z" style="fill: #fff"/>
          <path d="M559.9,66.5a20.7,20.7,0,0,1,3.2-.9,7.4,7.4,0,0,1,5.1.6,5.6,5.6,0,0,1,2.4,4,6.4,6.4,0,0,1-.8,5,8.3,8.3,0,0,1-5,2.7l-2.8.3Zm3.4,10.2h1.6c3.3-.6,4.7-2.8,4.1-6s-2.4-4.4-5.6-3.8l-1.8.5Z" style="fill: #fff"/>
          <path d="M576.6,65.9l.7,4.2,4-.8.2,1.1-4,.7.8,4.2-1.2.2-.7-4.2-4,.7-.2-1,4-.7-.8-4.2Z" style="fill: #fff"/>
        </g>
      </g>
      <g class="hoverable" id="donaciones" onclick="showInstrument('economicos', 'voluntarios', 'donaciones');">
        <path d="M730.9,235.4,492.2,209.9a376.2,376.2,0,0,0,2.2-39.8c0-1.1,0-2.1-.1-3.2l240-2.2c.1,1.8.1,3.6.1,5.4A616.8,616.8,0,0,1,730.9,235.4Z" style="fill: #d16bad"/>
        <g>
          <path d="M543.1,185.6l3.3-.2c2.3.1,3.9.6,4.9,1.6a5.3,5.3,0,0,1,1.6,4.4,6.5,6.5,0,0,1-1.8,4.7,7.4,7.4,0,0,1-5.4,1.6l-2.9-.2Zm1.3,10.8H546c3.3.1,5.2-1.8,5.3-5.1s-1.5-4.7-4.8-4.7a5.4,5.4,0,0,0-1.9.1Z" style="fill: #fff"/>
          <path d="M562.8,193.6a4.3,4.3,0,0,1-4.4,4.5,4.6,4.6,0,0,1,.3-9.1C561.2,189,562.9,190.9,562.8,193.6Zm-6.9-.1c-.1,1.9,1,3.4,2.6,3.4s2.6-1.4,2.7-3.3-.7-3.4-2.6-3.4S555.9,191.9,555.9,193.5Z" style="fill: #fff"/>
          <path d="M564.8,191.7a9.6,9.6,0,0,0,0-2.4h1.4v1.4h0a3.4,3.4,0,0,1,2.9-1.6c1.2,0,3.1.8,3,3.8v5.2h-1.6v-5.1c.1-1.4-.4-2.5-1.9-2.6a2.3,2.3,0,0,0-2.2,1.6,1.7,1.7,0,0,0-.1.7v5.3h-1.6Z" style="fill: #fff"/>
          <path d="M579.5,198.4v-1.1h0a3.6,3.6,0,0,1-2.7,1.2,2.4,2.4,0,0,1-2.6-2.6c0-2.1,1.9-3.2,5.3-3.1v-.2a1.8,1.8,0,0,0-2-2,4,4,0,0,0-2.2.6l-.4-1.1a6.2,6.2,0,0,1,2.9-.7c2.7.1,3.3,1.9,3.2,3.6v3.3a7,7,0,0,0,.1,2.1Zm-.1-4.5c-1.8-.1-3.7.2-3.8,1.9a1.4,1.4,0,0,0,1.5,1.5,1.9,1.9,0,0,0,2.1-1.4.7.7,0,0,0,.1-.5Z" style="fill: #fff"/>
          <path d="M589.6,198.3a6.7,6.7,0,0,1-2.5.4,4.2,4.2,0,0,1-4.3-4.5,4.6,4.6,0,0,1,4.8-4.6,8,8,0,0,1,2.2.5l-.4,1.3a3,3,0,0,0-1.8-.5,3.1,3.1,0,0,0-3.2,3.2,3,3,0,0,0,3,3.3,4.4,4.4,0,0,0,1.9-.3Z" style="fill: #fff"/>
          <path d="M591.4,198.6l.2-8.7h1.6l-.2,8.7Zm2-11.1a.9.9,0,0,1-1,.9.8.8,0,0,1-.9-.9.9.9,0,0,1,1-1C593.1,186.5,593.4,186.9,593.4,187.5Z" style="fill: #fff"/>
          <path d="M603.6,194.4c-.1,3.3-2.3,4.6-4.4,4.6a4.1,4.1,0,0,1-4.1-4.6c.1-2.9,2-4.6,4.4-4.5A4.1,4.1,0,0,1,603.6,194.4Zm-6.9,0c0,1.9,1,3.4,2.6,3.4s2.7-1.4,2.7-3.3-.7-3.4-2.5-3.4S596.7,192.7,596.7,194.4Z" style="fill: #fff"/>
          <path d="M605.7,192.6a17.7,17.7,0,0,0-.1-2.4H607v1.5h0a3.4,3.4,0,0,1,2.9-1.6c1.3,0,3.1.8,3,3.8v5.2h-1.5v-5c0-1.4-.5-2.6-2-2.6a2.4,2.4,0,0,0-2.2,1.6c0,.2-.1.4-.1.7V199h-1.6Z" style="fill: #fff"/>
          <path d="M616.5,195.1a2.8,2.8,0,0,0,2.9,3.1,7,7,0,0,0,2.4-.4l.3,1.1a6.9,6.9,0,0,1-2.9.5,4.1,4.1,0,0,1-4.2-4.5c0-2.6,1.6-4.7,4.2-4.6s3.5,2.6,3.5,4.2a5.6,5.6,0,0,1-.1.7Zm4.6-1a2.2,2.2,0,0,0-2.1-2.7c-1.6,0-2.3,1.5-2.5,2.6Z" style="fill: #fff"/>
          <path d="M624.3,197.7a4.4,4.4,0,0,0,2.1.7c1.2,0,1.7-.6,1.7-1.3s-.4-1.2-1.6-1.6-2.2-1.5-2.2-2.5a2.7,2.7,0,0,1,3.1-2.5,4.3,4.3,0,0,1,2.1.6l-.4,1.1a3.9,3.9,0,0,0-1.8-.5,1.2,1.2,0,0,0-1.5,1.1c0,.7.5,1.1,1.6,1.5s2.3,1.4,2.3,2.7-1.3,2.6-3.3,2.5a4.6,4.6,0,0,1-2.5-.6Z" style="fill: #fff"/>
        </g>
      </g>
      <g class="hoverable" id="compromisos_privados" onclick="showInstrument('economicos', 'voluntarios', 'compromisos_privados');">
        <path d="M717.6,312.7,484.2,256.8a378.2,378.2,0,0,0,7.5-42.3L730,242.9A589.5,589.5,0,0,1,717.6,312.7Z" style="fill: #d16bad"/>
        <g>
          <path d="M544,251.1a7.1,7.1,0,0,1-3.3,0c-3.3-.6-5.5-3.1-4.8-7.1a6.7,6.7,0,0,1,10.1-4.1l-.6,1.2a4.4,4.4,0,0,0-2.3-.9c-2.8-.5-5,.9-5.6,4.1s.9,5.1,3.8,5.6a5.6,5.6,0,0,0,2.6-.1Z" style="fill: #fff"/>
          <path d="M554.1,248.8a4.2,4.2,0,0,1-5,3.8,4.1,4.1,0,0,1-3.4-5.1,4.3,4.3,0,0,1,5.1-3.8C553.3,244.1,554.6,246.2,554.1,248.8Zm-6.8-1.1c-.3,1.9.5,3.5,2,3.8s2.9-1,3.2-2.9-.1-3.4-2-3.8S547.6,246.1,547.3,247.7Z" style="fill: #fff"/>
          <path d="M556.4,247.3c.2-.9.3-1.6.4-2.3l1.3.2v1.4h0a3.2,3.2,0,0,1,3-1.1,2.5,2.5,0,0,1,2.1,2.2h.1a2.6,2.6,0,0,1,1.1-1,2.7,2.7,0,0,1,2-.2c1.2.2,2.7,1.2,2.2,4.2l-.9,5-1.6-.2.9-4.9c.3-1.6-.1-2.7-1.4-3a2.2,2.2,0,0,0-2.1,1.1,1.9,1.9,0,0,0-.2.8l-1,5.3-1.5-.3.9-5.1c.3-1.4-.2-2.5-1.4-2.7a2.2,2.2,0,0,0-2.2,1.2,1.9,1.9,0,0,0-.2.7l-1,5.2-1.5-.3Z" style="fill: #fff"/>
          <path d="M571.1,250.4c.2-1.1.4-2,.5-2.8l1.4.2-.2,1.5h0a3.7,3.7,0,0,1,3.4-1.1c2,.4,3.3,2.4,2.8,5s-2.7,4.3-4.7,3.9a2.9,2.9,0,0,1-2.4-1.8h0L571,260l-1.5-.3Zm1.2,2.6a1.3,1.3,0,0,0-.1.6,2.6,2.6,0,0,0,2,2.3c1.7.2,2.9-.9,3.2-2.9s-.3-3.3-1.9-3.6a2.7,2.7,0,0,0-2.8,1.5,1.4,1.4,0,0,1-.2.6Z" style="fill: #fff"/>
          <path d="M581.2,252.1a14.7,14.7,0,0,0,.4-2.7l1.4.2-.2,1.7h0a2.5,2.5,0,0,1,2.7-1.4h.5l-.3,1.5-.5-.2a2.3,2.3,0,0,0-2.5,1.7,2.5,2.5,0,0,1-.2.7l-.8,4.5-1.5-.2Z" style="fill: #fff"/>
          <path d="M594.3,256a4.2,4.2,0,0,1-5,3.8c-2.4-.4-3.8-2.4-3.4-5.2a4.3,4.3,0,0,1,5.1-3.8A4.1,4.1,0,0,1,594.3,256Zm-6.8-1.1c-.3,1.9.5,3.5,2,3.7s2.9-.9,3.2-2.8-.1-3.5-1.9-3.8S587.8,253.2,587.5,254.9Z" style="fill: #fff"/>
          <path d="M596.6,254.5c.2-.9.3-1.7.4-2.4l1.4.3-.2,1.4h0a2.9,2.9,0,0,1,3-1.1,2.4,2.4,0,0,1,2.1,2.1h.1a3.1,3.1,0,0,1,1.1-.9,3.3,3.3,0,0,1,2-.3c1.2.2,2.7,1.3,2.2,4.2l-.9,5.1-1.5-.3.8-4.8c.3-1.7-.1-2.8-1.4-3a2,2,0,0,0-2.1,1.1,1.9,1.9,0,0,0-.2.7l-1,5.3-1.5-.2.9-5.2a2.1,2.1,0,0,0-1.4-2.7,2.3,2.3,0,0,0-2.2,1.3,1.4,1.4,0,0,0-.2.7l-.9,5.2-1.6-.3Z" style="fill: #fff"/>
          <path d="M610.3,263.3l1.5-8.5,1.6.2-1.5,8.6Zm3.7-10.6a.9.9,0,0,1-1.2.7.9.9,0,0,1-.7-1.1,1,1,0,0,1,1.1-.8A1,1,0,0,1,614,252.7Z" style="fill: #fff"/>
          <path d="M614.5,262.4a3.8,3.8,0,0,0,2,1c1.1.2,1.7-.2,1.9-.9s-.3-1.3-1.3-1.9-2.1-1.8-1.9-2.8a2.7,2.7,0,0,1,3.4-2,3.4,3.4,0,0,1,2,.9l-.5,1a5.4,5.4,0,0,0-1.7-.8,1.5,1.5,0,0,0-1.7.9c-.1.8.4,1.2,1.4,1.8s2,1.7,1.8,3-1.6,2.3-3.7,2a7,7,0,0,1-2.3-1Z" style="fill: #fff"/>
          <path d="M630,262.4a4.2,4.2,0,0,1-5.1,3.7,4.1,4.1,0,0,1-3.3-5.1,4.3,4.3,0,0,1,5.1-3.8C629.1,257.6,630.5,259.7,630,262.4Zm-6.8-1.2c-.3,1.9.5,3.5,2,3.8s2.9-.9,3.2-2.9-.1-3.4-2-3.7S623.5,259.6,623.2,261.2Z" style="fill: #fff"/>
          <path d="M631.3,265.4a3.5,3.5,0,0,0,1.9,1c1.2.2,1.8-.3,1.9-1s-.2-1.2-1.3-1.8-2-1.8-1.8-2.9,1.5-2.3,3.4-1.9a3.7,3.7,0,0,1,2,.9l-.6,1a5.4,5.4,0,0,0-1.7-.8c-.9-.1-1.5.3-1.6.9s.3,1.2,1.4,1.8,2,1.7,1.7,3-1.6,2.3-3.6,2a4.5,4.5,0,0,1-2.3-1.1Z" style="fill: #fff"/>
          <path d="M644.1,257.2l3,.3a4.9,4.9,0,0,1,3.2,1.6,3.1,3.1,0,0,1,.6,2.7,3.6,3.6,0,0,1-1.4,2.3,4.5,4.5,0,0,1-3.9.7l-1.2-.3-.8,4.8L642,269Zm.6,6,1.2.4c1.9.3,3.2-.4,3.5-2s-.7-2.6-2.4-2.9h-1.5Z" style="fill: #fff"/>
          <path d="M652.2,264.7c.2-1,.3-1.9.4-2.7l1.3.3-.2,1.7h.1a2.6,2.6,0,0,1,2.7-1.5h.4l-.2,1.5h-.6a2.2,2.2,0,0,0-2.4,1.6,1.4,1.4,0,0,0-.2.7l-.8,4.6-1.6-.3Z" style="fill: #fff"/>
          <path d="M657,271.7l1.5-8.6,1.6.3-1.6,8.5Zm3.7-10.7a1,1,0,0,1-1.2.8,1,1,0,0,1-.7-1.2.9.9,0,0,1,1.1-.8A1,1,0,0,1,660.7,261Z" style="fill: #fff"/>
          <path d="M663.3,263.9l.8,5.1.3,2.4h0a22.5,22.5,0,0,1,1.2-2.1l2.5-4.5,1.6.3-4.9,8-1.5-.3-1.7-9.2Z" style="fill: #fff"/>
          <path d="M674.3,274.7v-1.1h0a3.1,3.1,0,0,1-2.9.8,2.5,2.5,0,0,1-2.2-2.9c.4-2.1,2.4-2.9,5.7-2.3h.1a1.9,1.9,0,0,0-1.6-2.4,4.8,4.8,0,0,0-2.4.3v-1.1a4.6,4.6,0,0,1,2.9-.3c2.6.5,3,2.4,2.7,4.1l-.6,3.2a8.2,8.2,0,0,0-.2,2.1Zm.6-4.4c-1.7-.3-3.7-.4-4,1.3a1.5,1.5,0,0,0,1.2,1.8,2.1,2.1,0,0,0,2.3-1.1c.1-.2.2-.3.2-.5Z" style="fill: #fff"/>
          <path d="M687.8,264.2l-1.9,10.3c-.1.8-.2,1.7-.3,2.3l-1.4-.3.2-1.5h0a3.5,3.5,0,0,1-3.3,1.2c-2-.4-3.3-2.4-2.8-5.1s2.5-4.2,4.6-3.9a3.1,3.1,0,0,1,2.4,1.8h0l.9-5.1Zm-2.9,7.2v-.7a2.2,2.2,0,0,0-1.9-2.2c-1.6-.3-2.8,1-3.2,2.9s.3,3.3,2,3.6a2.4,2.4,0,0,0,2.6-1.5,1.4,1.4,0,0,0,.2-.6Z" style="fill: #fff"/>
          <path d="M696.7,274.2c-.6,3.2-3,4.2-5.1,3.8a4.1,4.1,0,0,1-3.3-5.1c.5-2.9,2.6-4.2,5-3.8S697.1,271.6,696.7,274.2Zm-6.9-1.1c-.3,1.9.5,3.5,2.1,3.8s2.8-1,3.2-2.9-.2-3.4-2-3.8S690.1,271.5,689.8,273.1Z" style="fill: #fff"/>
          <path d="M697.9,277.3a3.8,3.8,0,0,0,2,1,1.5,1.5,0,0,0,1.9-1c.1-.7-.3-1.2-1.4-1.8s-2-1.9-1.8-2.9a2.7,2.7,0,0,1,3.4-2,5.4,5.4,0,0,1,2,.9l-.6,1.1a2.7,2.7,0,0,0-1.6-.8,1.3,1.3,0,0,0-1.7.9c-.1.7.4,1.1,1.4,1.7s2,1.8,1.8,3-1.6,2.4-3.7,2a4.4,4.4,0,0,1-2.3-1Z" style="fill: #fff"/>
        </g>
      </g>
      <g class="hoverable" onclick="returnToGroups(); changeImage('rueda');">
        <circle cx="127.7" cy="181.9" r="105" style="fill: #bdc4c6"/>
        <circle cx="127.5" cy="183.9" r="127" style="fill: none;stroke: #aab8bd;stroke-miterlimit: 10"/>
        <g>
          <path d="M73.1,180.4H67.7v4.2h6v2.2H65.1V172.5h8.3v2.1H67.7v3.7h5.4Z" style="fill: #112025"/>
          <path d="M86.2,186.3a7.4,7.4,0,0,1-3.7.7c-4.5,0-7.2-2.9-7.2-7.2s3.2-7.5,7.6-7.5a8.4,8.4,0,0,1,3.5.6l-.6,2.1a6.9,6.9,0,0,0-2.8-.6c-2.9,0-5,1.9-5,5.3s1.8,5.1,5,5.1a7.8,7.8,0,0,0,2.8-.5Z" style="fill: #112025"/>
          <path d="M100.6,179.5c0,4.8-2.9,7.5-6.9,7.5s-6.5-3.1-6.5-7.3,2.7-7.4,6.7-7.4S100.6,175.4,100.6,179.5Zm-10.7.2c0,2.9,1.5,5.2,4,5.2s3.9-2.3,3.9-5.3-1.3-5.2-3.9-5.2S89.9,176.8,89.9,179.7Z" style="fill: #112025"/>
          <path d="M102.8,186.8V172.5h3l3.7,6.1c.9,1.6,1.7,3.3,2.4,4.8h0c-.1-1.9-.2-3.7-.2-5.9v-5h2.4v14.3h-2.7l-3.7-6.3c-.9-1.6-1.9-3.3-2.6-4.9h0c.1,1.8.1,3.7.1,6.1v5.1Z" style="fill: #112025"/>
          <path d="M129.8,179.5c0,4.8-2.9,7.5-6.9,7.5s-6.5-3.1-6.5-7.3,2.7-7.4,6.7-7.4S129.8,175.4,129.8,179.5Zm-10.7.2c0,2.9,1.5,5.2,4,5.2s3.9-2.3,3.9-5.3-1.3-5.2-3.9-5.2S119.1,176.8,119.1,179.7Zm7.4-10.5-2.7,2.5h-2l1.8-2.5Z" style="fill: #112025"/>
          <path d="M144.1,181c-.1-1.9-.2-4.1-.2-6h-.1a41.7,41.7,0,0,1-1.7,5.4l-2,6.2H138l-1.9-6.1c-.5-1.8-1-3.8-1.4-5.5h0c-.1,1.8-.2,4.1-.3,6l-.3,5.8h-2.4l.9-14.3H136l1.9,5.7c.5,1.7,1,3.4,1.3,5h.1c.4-1.6.8-3.3,1.4-5l2-5.7H146l.9,14.3h-2.6Z" style="fill: #112025"/>
          <path d="M152.1,172.5v14.3h-2.6V172.5Z" style="fill: #112025"/>
          <path d="M165.3,186.3a7.2,7.2,0,0,1-3.6.7c-4.6,0-7.3-2.9-7.3-7.2s3.2-7.5,7.6-7.5a8.4,8.4,0,0,1,3.5.6l-.6,2.1a6.9,6.9,0,0,0-2.8-.6c-2.9,0-5,1.9-5,5.3s1.8,5.1,5,5.1a7.8,7.8,0,0,0,2.8-.5Z" style="fill: #112025"/>
          <path d="M179.7,179.5c0,4.8-2.9,7.5-6.9,7.5s-6.5-3.1-6.5-7.3,2.7-7.4,6.7-7.4S179.7,175.4,179.7,179.5Zm-10.7.2c0,2.9,1.5,5.2,4,5.2s3.9-2.3,3.9-5.3-1.3-5.2-3.9-5.2S169,176.8,169,179.7Z" style="fill: #112025"/>
          <path d="M181.8,183.9a7.5,7.5,0,0,0,3.5.9c1.7,0,2.6-.7,2.6-1.9s-.7-1.7-2.5-2.4-3.9-2.1-3.9-4.1,2-4.1,5-4.1a7.7,7.7,0,0,1,3.5.7l-.7,2.1a5.6,5.6,0,0,0-2.8-.7c-1.7,0-2.4.9-2.4,1.7s.9,1.6,2.8,2.4,3.6,2.2,3.6,4.2-1.7,4.3-5.4,4.3a7.9,7.9,0,0,1-3.8-.9Z" style="fill: #112025"/>
        </g>
      </g>
      <g class="hoverable" onclick="returnToTypesInstrument(); changeImage('economicos/E_Herramienta_Segundo_Plano');">
        <path d="M458.8,250.1,285.3,212.3a159.3,159.3,0,0,0-5.3-80.7L448.8,75.4A337.7,337.7,0,0,1,466,182.1C466,203.5,462.8,229.3,458.8,250.1Z" style="fill: #332c91"/>
        <path d="M441.5,247,276.7,210.8a153.6,153.6,0,0,0,2.7-28.8,151.6,151.6,0,0,0-7.7-47.9L432.1,80.7A321.6,321.6,0,0,1,448.4,182C448.4,202.4,445.3,227.1,441.5,247Z" style="fill: #d16bad"/>
        <g>
          <path d="M303.3,176.2l-5-15.5h2.1l2.4,7.7a51.2,51.2,0,0,1,1.7,5.7h0c.5-1.7,1.1-3.7,1.8-5.7l2.6-7.7h2.2l-5.6,15.5Z" style="fill: #fff"/>
          <path d="M322,170.6c0,4.1-2.9,5.9-5.5,5.9s-5.4-2.2-5.4-5.8,2.5-5.9,5.5-5.9S322,167.2,322,170.6Zm-8.8.1c0,2.4,1.4,4.3,3.3,4.3s3.4-1.9,3.4-4.4-.9-4.2-3.3-4.2S313.2,168.6,313.2,170.7Z" style="fill: #fff"/>
          <path d="M324.5,159.9h2.1v16.3h-2.1Z" style="fill: #fff"/>
          <path d="M339.3,173.2a28.1,28.1,0,0,0,.1,3h-1.8v-1.8h-.1a4.2,4.2,0,0,1-3.7,2.1c-1.7,0-3.8-1-3.8-4.9v-6.5h2v6.1c0,2.2.7,3.6,2.5,3.6a3,3,0,0,0,2.7-1.9,2.5,2.5,0,0,0,.2-1v-6.8h2Z" style="fill: #fff"/>
          <path d="M342.6,168.1v-3h1.7l.2,1.8h0a4.4,4.4,0,0,1,3.7-2.1c1.5,0,3.9,1,3.9,4.8v6.6h-2v-6.4c0-1.8-.7-3.3-2.6-3.3a3,3,0,0,0-2.7,2.1,2.5,2.5,0,0,0-.1.9v6.7h-2.1Z" style="fill: #fff"/>
          <path d="M357.8,161.9v3.2h2.9v1.5h-2.9v6c0,1.4.3,2.2,1.5,2.2h1.1v1.5l-1.8.2a2.7,2.7,0,0,1-2.1-.8,4,4,0,0,1-.8-2.9v-6.1h-1.7v-1.5h1.7v-2.7Z" style="fill: #fff"/>
          <path d="M369.1,176.2l-.2-1.4h0a4.2,4.2,0,0,1-3.4,1.7,3.1,3.1,0,0,1-3.4-3.2c0-2.7,2.4-4.2,6.7-4.2v-.2a2.4,2.4,0,0,0-2.6-2.6,5,5,0,0,0-2.9.9l-.4-1.4a6.6,6.6,0,0,1,3.6-1c3.4,0,4.3,2.4,4.3,4.6v4.1a21.8,21.8,0,0,0,.1,2.7Zm-.3-5.7c-2.2,0-4.7.4-4.7,2.5a1.8,1.8,0,0,0,1.9,2,2.8,2.8,0,0,0,2.7-1.9,1.3,1.3,0,0,0,.1-.6Z" style="fill: #fff"/>
          <path d="M374,168.6c0-1.4,0-2.5-.1-3.5h1.8v2.2h.1a3.4,3.4,0,0,1,3-2.5h.6v1.9h-.7a2.9,2.9,0,0,0-2.7,2.6c0,.3-.1.6-.1,1v5.9h-2Z" style="fill: #fff"/>
          <path d="M383.9,162a1.2,1.2,0,0,1-1.3,1.2,1.2,1.2,0,0,1-1.2-1.2,1.2,1.2,0,0,1,1.2-1.3A1.2,1.2,0,0,1,383.9,162Zm-2.3,14.2V165.1h2.1v11.1Z" style="fill: #fff"/>
          <path d="M397.1,170.6c0,4.1-2.9,5.9-5.6,5.9s-5.3-2.2-5.3-5.8,2.4-5.9,5.5-5.9S397.1,167.2,397.1,170.6Zm-8.8.1c0,2.4,1.4,4.3,3.3,4.3s3.4-1.9,3.4-4.4-.9-4.2-3.3-4.2S388.3,168.6,388.3,170.7Z" style="fill: #fff"/>
          <path d="M399.4,174.1a5,5,0,0,0,2.6.9c1.5,0,2.2-.8,2.2-1.7s-.6-1.5-2.1-2.1-2.9-1.8-2.9-3.1,1.4-3.3,3.8-3.3a7.2,7.2,0,0,1,2.8.7l-.5,1.5a4.5,4.5,0,0,0-2.3-.6c-1.2,0-1.9.6-1.9,1.5s.7,1.3,2.1,1.9,2.9,1.7,2.9,3.3-1.5,3.3-4.1,3.3a6.8,6.8,0,0,1-3.1-.7Z" style="fill: #fff"/>
        </g>
      </g>
    </g>
  </g>
</svg>
