<svg class="animate__animated" xmlns="http://www.w3.org/2000/svg" viewBox="0 0 420.5 501.3">
  <g id="Capa_2" data-name="Capa 2">
    <g id="Capa_1-2" data-name="Capa 1">
      <g class="hoverable" onclick="showTypeInstrument('planificacion_complementaria', 1, 4); changeImage('gestion/G_Planificacion_Complementaria');">
        <path d="M257.2,171.4A152.9,152.9,0,0,0,205,120.6L276.1,0a293.7,293.7,0,0,1,99.7,97Z" style="fill: #c85696;opacity: 0.62"/>
        <g>
          <path d="M248.6,84.8a4.3,4.3,0,0,1,1.7.3,2.4,2.4,0,0,1,1.1.6,1.8,1.8,0,0,1,.7,1,2.4,2.4,0,0,1,.3,1.2,2.8,2.8,0,0,1-.3,1.3,3.6,3.6,0,0,1-.7,1,3.5,3.5,0,0,1-1.2.7l-1.6.2H247v3.8h-1.3V84.8Zm0,5.2h1l.8-.5c.2-.1.3-.4.4-.6a1.5,1.5,0,0,0,.2-.9,2,2,0,0,0-.6-1.5,3,3,0,0,0-1.8-.5H247V90Z" style="fill: #fff"/>
          <path d="M255,84.5V94.9h-1.2V84.5Z" style="fill: #fff"/>
          <path d="M256.8,88.8a5.1,5.1,0,0,1,1.3-.9,4,4,0,0,1,1.5-.3l1.1.2.8.6a2,2,0,0,1,.4.8,4.3,4.3,0,0,1,.2,1.1v4.6h-.8a.2.2,0,0,1-.2-.2v-.7l-.6.5-.5.3-.7.2h-1.5l-.6-.4a.9.9,0,0,1-.4-.6,1.7,1.7,0,0,1,0-1.6,1.9,1.9,0,0,1,.8-.7l1.3-.5,2.1-.2v-.6a1.6,1.6,0,0,0-.4-1.2,1.2,1.2,0,0,0-1-.4h-.8l-.5.2-.4.3h-.7Zm4.1,2.9h-1.5l-1,.3a1,1,0,0,0-.5.4c-.1.2-.2.3-.2.5a.7.7,0,0,0,.1.5c0,.2.1.3.2.3l.4.2h1.1l.5-.2a.5.5,0,0,0,.4-.3l.5-.4Z" style="fill: #fff"/>
          <path d="M265.2,88.8l.5-.5.5-.3.6-.3h.7a1.5,1.5,0,0,1,1,.2l.8.5a2,2,0,0,1,.4.8,4.3,4.3,0,0,1,.2,1.1v4.6h-1.3V90.3a2.1,2.1,0,0,0-.3-1.2,1.4,1.4,0,0,0-1.1-.4,2,2,0,0,0-1.1.2l-.9.7v5.3H264V87.8h.7l.4.2Z" style="fill: #fff"/>
          <path d="M273.4,85.5c0,.2,0,.3-.1.4l-.2.3-.3.2h-.7l-.2-.2-.2-.3c-.1-.1-.1-.2-.1-.4a.4.4,0,0,1,.1-.3c0-.1.1-.2.2-.3s.1-.1.2-.2h.7l.3.2c.1.1.2.2.2.3A.4.4,0,0,1,273.4,85.5Zm-.3,2.3v7.1h-1.2V87.8Z" style="fill: #fff"/>
          <path d="M275.6,94.9V88.8h-1c-.1,0-.1-.1-.1-.2v-.5h1.1v-.4a5,5,0,0,1,.2-1.2l.6-.9a2.4,2.4,0,0,1,1.1-.6,3,3,0,0,1,1.4-.2h1v.7h-.6a3,3,0,0,0-1.8.5,2,2,0,0,0-.6,1.6v.3h4.3v7h-1.2V88.8h-3v6.1Z" style="fill: #fff"/>
          <path d="M288.1,89H288c0,.1-.1.1-.2.1h-.2l-.3-.2-.5-.2h-.6l-.9.2a1.3,1.3,0,0,0-.7.6,2,2,0,0,0-.4.8,3.6,3.6,0,0,0-.2,1.1,5,5,0,0,0,.2,1.2,2,2,0,0,0,.4.8,1.8,1.8,0,0,0,.7.5l.8.2h.8l.5-.3.3-.2h.5l.3.5-.5.5-.6.3-.7.2h-.8a2.4,2.4,0,0,1-1.2-.3,2.3,2.3,0,0,1-1-.7,4.1,4.1,0,0,1-.7-1.1,7.8,7.8,0,0,1-.2-1.6,3.8,3.8,0,0,1,.8-2.6l1.1-.8a3.2,3.2,0,0,1,1.4-.2,2.7,2.7,0,0,1,1.3.2l1,.7Z" style="fill: #fff"/>
          <path d="M289.7,88.8l1.2-.9a4,4,0,0,1,1.5-.3l1.1.2.8.6a2.2,2.2,0,0,1,.5.8,4.1,4.1,0,0,1,.1,1.1v4.6h-.8c-.1,0-.1-.1-.2-.2v-.7l-.6.5-.5.3-.6.2h-1.6l-.6-.4a.9.9,0,0,1-.4-.6,1.9,1.9,0,0,1-.2-.8,1.1,1.1,0,0,1,.3-.8,1.6,1.6,0,0,1,.7-.7,4.6,4.6,0,0,1,1.4-.5l2-.2v-.6a1.6,1.6,0,0,0-.4-1.2,1.1,1.1,0,0,0-1-.4h-.8l-.5.2-.4.3h-.3c-.1,0-.2,0-.2-.1h-.2Zm4,2.9h-1.5l-1,.3a1,1,0,0,0-.5.4c-.1.2-.2.3-.2.5a4.3,4.3,0,0,0,.1.5q.1.3.3.3l.3.2h1.1l.5-.2c.2,0,.3-.1.5-.3s.3-.2.4-.4Z" style="fill: #fff"/>
          <path d="M301.8,89h-.2c0,.1,0,.1-.1.1s-.2,0-.2-.1l-.4-.2-.4-.2h-.7l-.9.2a1.3,1.3,0,0,0-.7.6,5.9,5.9,0,0,0-.4.8,3.7,3.7,0,0,0-.1,1.1,4.9,4.9,0,0,0,.1,1.2,2.2,2.2,0,0,0,.5.8,1.5,1.5,0,0,0,.6.5l.9.2h.7l.5-.3.3-.2h.3c.1,0,.2,0,.2.1l.4.5-.6.5-.6.3-.7.2h-.8a2.7,2.7,0,0,1-1.2-.3,2.3,2.3,0,0,1-1-.7,2.4,2.4,0,0,1-.6-1.1,4.1,4.1,0,0,1-.3-1.6,7.7,7.7,0,0,1,.2-1.5,4.1,4.1,0,0,1,.7-1.1,3.9,3.9,0,0,1,1-.8,5,5,0,0,1,2.8,0l1,.7Z" style="fill: #fff"/>
          <path d="M305.1,85.5c0,.2,0,.3-.1.4l-.2.3-.3.2h-.7l-.2-.2-.2-.3c-.1-.1-.1-.2-.1-.4a.4.4,0,0,1,.1-.3c0-.1.1-.2.2-.3s.1-.1.2-.2h.7l.3.2c.1.1.2.2.2.3A.4.4,0,0,1,305.1,85.5Zm-.3,2.3v7.1h-1.2V87.8Z" style="fill: #fff"/>
          <path d="M309.8,87.7a3,3,0,0,1,1.4.2,2.3,2.3,0,0,1,1.1.8,4.1,4.1,0,0,1,.7,1.1,7.7,7.7,0,0,1,.2,1.5,6.1,6.1,0,0,1-.2,1.5,3.5,3.5,0,0,1-.7,1.2,3,3,0,0,1-1.1.7,2.9,2.9,0,0,1-1.4.3,3.5,3.5,0,0,1-1.4-.3l-1-.7a3.5,3.5,0,0,1-.7-1.2,3.4,3.4,0,0,1-.2-1.5,3.9,3.9,0,0,1,.2-1.5,4.1,4.1,0,0,1,.7-1.1,2.5,2.5,0,0,1,1-.8A3.4,3.4,0,0,1,309.8,87.7Zm0,6.3a1.8,1.8,0,0,0,1.6-.7,3,3,0,0,0,.5-2,3.1,3.1,0,0,0-.5-2,2,2,0,0,0-1.6-.7l-.9.2a1.5,1.5,0,0,0-.6.5,3.6,3.6,0,0,0-.4.9,3.6,3.6,0,0,0-.2,1.1,3,3,0,0,0,.6,2A1.6,1.6,0,0,0,309.8,94Zm2.1-9.3-1.6,1.8c-.1.1-.2.1-.2.2h-1l1-1.7.2-.2h1.6Z" style="fill: #fff"/>
          <path d="M316,88.8l.5-.5.5-.3.6-.3h.7a2,2,0,0,1,1.1.2,1.8,1.8,0,0,1,.7.5,5.6,5.6,0,0,1,.5.8,4.1,4.1,0,0,1,.1,1.1v4.6h-1.2V90.3a2.1,2.1,0,0,0-.4-1.2,1.4,1.4,0,0,0-1.1-.4,2.2,2.2,0,0,0-1.1.2,2.7,2.7,0,0,0-.8.7v5.3h-1.3V87.8h.7a.5.5,0,0,1,.4.2Z" style="fill: #fff"/>
          <path d="M240.7,109.6c.1,0,.2,0,.2.1l.5.6-1.4,1.1a6.7,6.7,0,0,1-2.2.4,5.8,5.8,0,0,1-1.9-.4,4.2,4.2,0,0,1-1.5-1.1,2.9,2.9,0,0,1-1-1.6,6.6,6.6,0,0,1-.3-2.1,6.4,6.4,0,0,1,.3-2,4.8,4.8,0,0,1,1-1.7,4.4,4.4,0,0,1,1.6-1,4.2,4.2,0,0,1,2-.4,4.1,4.1,0,0,1,1.9.4,4.2,4.2,0,0,1,1.4.9l-.5.6h-.2l-.3-.2-.5-.3-.8-.3h-1a3.7,3.7,0,0,0-1.5.3,2.6,2.6,0,0,0-1.1.7,5.4,5.4,0,0,0-.7,1.3,4.1,4.1,0,0,0-.3,1.6,4.3,4.3,0,0,0,.3,1.7,5.4,5.4,0,0,0,.7,1.3,3.4,3.4,0,0,0,1.1.7,3.5,3.5,0,0,0,1.4.3h.8l.7-.2.6-.3.5-.4Z" style="fill: #fff"/>
          <path d="M245.6,104.5a3.2,3.2,0,0,1,1.4.2,2.5,2.5,0,0,1,1,.8,2.6,2.6,0,0,1,.7,1.1,4,4,0,0,1,.3,1.5,3.3,3.3,0,0,1-.3,1.5,2.4,2.4,0,0,1-.7,1.2l-1,.7a3.4,3.4,0,0,1-2.8,0,3,3,0,0,1-1.1-.7,3.5,3.5,0,0,1-.7-1.2,6.1,6.1,0,0,1-.2-1.5,7.7,7.7,0,0,1,.2-1.5,4.1,4.1,0,0,1,.7-1.1,2.3,2.3,0,0,1,1.1-.8A3.2,3.2,0,0,1,245.6,104.5Zm0,6.3a1.6,1.6,0,0,0,1.5-.7,3,3,0,0,0,.6-2,3.2,3.2,0,0,0-.6-2,1.8,1.8,0,0,0-1.5-.7l-.9.2a1.8,1.8,0,0,0-.7.5,3.6,3.6,0,0,0-.4.9,3.7,3.7,0,0,0-.1,1.1,3,3,0,0,0,.5,2A1.8,1.8,0,0,0,245.6,110.8Z" style="fill: #fff"/>
          <path d="M250.5,111.7v-7.1h.8c.2,0,.3.1.3.2v.8a3.2,3.2,0,0,1,.9-.8,2,2,0,0,1,1.1-.3,1.6,1.6,0,0,1,1.2.4,1.7,1.7,0,0,1,.6,1,2.1,2.1,0,0,1,.4-.6l.5-.5.7-.3h1.7a2,2,0,0,1,.7.6,2.2,2.2,0,0,1,.5.8,3.7,3.7,0,0,1,.1,1.1v4.6h-1.2v-4.6a1.6,1.6,0,0,0-.4-1.2,1.2,1.2,0,0,0-1-.4h-.6a.5.5,0,0,0-.5.3l-.3.5a1.7,1.7,0,0,0-.1.7v4.6h-1.3v-4.6a2.1,2.1,0,0,0-.3-1.2,1.3,1.3,0,0,0-1-.4,1.3,1.3,0,0,0-.9.2,2.3,2.3,0,0,0-.7.7v5.3Z" style="fill: #fff"/>
          <path d="M263.2,105.7a3.1,3.1,0,0,1,1.1-.9,2.8,2.8,0,0,1,1.3-.4,2,2,0,0,1,1.1.3c.4.1.6.4.9.7a3.7,3.7,0,0,1,.5,1.1,7.8,7.8,0,0,1,.2,1.6,5.9,5.9,0,0,1-.2,1.4l-.6,1.2a3.9,3.9,0,0,1-1,.8,2.8,2.8,0,0,1-1.3.3,2,2,0,0,1-1.1-.3,1.6,1.6,0,0,1-.8-.6v3.2H262v-9.5h.8c.2,0,.3.1.3.2Zm.1,4.3a1.9,1.9,0,0,0,.7.6l1,.2a1.8,1.8,0,0,0,1.5-.7,3.9,3.9,0,0,0,.5-2,4.1,4.1,0,0,0-.1-1.2,1.5,1.5,0,0,0-.4-.8l-.5-.5h-.8a2,2,0,0,0-1.1.2,6,6,0,0,0-.8.8Z" style="fill: #fff"/>
          <path d="M271.2,101.4v10.3h-1.3V101.4Z" style="fill: #fff"/>
          <path d="M278.9,110.7c-.1.2-.3.3-.5.5l-.7.3-.8.2h-.7a3.2,3.2,0,0,1-1.4-.3,4.1,4.1,0,0,1-1.1-.7,3.5,3.5,0,0,1-.7-1.2,7.8,7.8,0,0,1-.2-1.6,5.9,5.9,0,0,1,.2-1.4,4.1,4.1,0,0,1,.7-1.1,3.9,3.9,0,0,1,1-.8,3.2,3.2,0,0,1,1.4-.2,2.5,2.5,0,0,1,1.2.2,1.8,1.8,0,0,1,.9.6,2.1,2.1,0,0,1,.6,1,2.8,2.8,0,0,1,.3,1.3,1,1,0,0,1-.1.4h-5a3.7,3.7,0,0,0,.2,1.2,2.2,2.2,0,0,0,.5.8,1.8,1.8,0,0,0,.7.5l.9.2h.8l.6-.3.4-.2h.5Zm-1-3.4a2.5,2.5,0,0,0-.1-.8l-.3-.6-.6-.4h-.8a1.7,1.7,0,0,0-1.4.5,2,2,0,0,0-.6,1.4Z" style="fill: #fff"/>
          <path d="M280.6,111.7v-7.1h.7l.4.2v.8a2,2,0,0,1,.8-.8,2.4,2.4,0,0,1,1.2-.3,1.5,1.5,0,0,1,1.1.4,2.6,2.6,0,0,1,.7,1l.4-.6.5-.5.6-.3h1.7a2.4,2.4,0,0,1,.8.6,2,2,0,0,1,.4.8,3.6,3.6,0,0,1,.2,1.1v4.6h-1.3v-4.6a2.1,2.1,0,0,0-.3-1.2,1.4,1.4,0,0,0-1.1-.4h-.6a.5.5,0,0,0-.4.3,1,1,0,0,0-.4.5,1.7,1.7,0,0,0-.1.7v4.6h-1.2v-4.6a2.1,2.1,0,0,0-.4-1.2,1.1,1.1,0,0,0-1-.4,1.1,1.1,0,0,0-.8.2l-.8.7v5.3Z" style="fill: #fff"/>
          <path d="M297.9,110.7l-.6.5-.7.3-.7.2h-.8a3.2,3.2,0,0,1-1.4-.3,4.1,4.1,0,0,1-1.1-.7,3.5,3.5,0,0,1-.7-1.2,7.8,7.8,0,0,1-.2-1.6,5.9,5.9,0,0,1,.2-1.4,4.1,4.1,0,0,1,.7-1.1,3.9,3.9,0,0,1,1-.8,3.2,3.2,0,0,1,1.4-.2,2.5,2.5,0,0,1,1.2.2,1.8,1.8,0,0,1,.9.6,2.1,2.1,0,0,1,.6,1,2.8,2.8,0,0,1,.3,1.3,1,1,0,0,1-.1.4h-5a3.7,3.7,0,0,0,.2,1.2,2.2,2.2,0,0,0,.5.8,1.8,1.8,0,0,0,.7.5l.9.2h.8l.6-.3.4-.2h.5Zm-1.1-3.4a2.5,2.5,0,0,0-.1-.8l-.3-.6-.6-.4H295a1.7,1.7,0,0,0-1.4.5,2.6,2.6,0,0,0-.6,1.4Z" style="fill: #fff"/>
          <path d="M300.7,105.6l.5-.5.5-.3.6-.3h.7a2,2,0,0,1,1.1.2l.7.5a2,2,0,0,1,.4.8,4.3,4.3,0,0,1,.2,1.1v4.6h-1.3v-4.6a2.1,2.1,0,0,0-.3-1.2,1.4,1.4,0,0,0-1.1-.4,2,2,0,0,0-1.1.2l-.9.7v5.3h-1.2v-7.1h.7l.4.2Z" style="fill: #fff"/>
          <path d="M309.4,111.8a1.7,1.7,0,0,1-1.3-.5,1.9,1.9,0,0,1-.5-1.3v-4.4h-1c-.1,0-.1-.1-.1-.2v-.5h1.2l.3-2.2v-.2h.8v2.4h2v.9h-2v4.3a.8.8,0,0,0,.2.6.6.6,0,0,0,.6.3h1l.4.6-.8.5Z" style="fill: #fff"/>
          <path d="M312,105.6a5.1,5.1,0,0,1,1.3-.9,4,4,0,0,1,1.5-.3l1.1.2.7.6a1.4,1.4,0,0,1,.5.8,4.3,4.3,0,0,1,.2,1.1v4.6h-.9v-.9l-.6.5-.5.3-.7.2h-1.5l-.6-.4c-.2-.1-.3-.3-.5-.6a1.9,1.9,0,0,1-.1-.8,1.9,1.9,0,0,1,.2-.8,1.9,1.9,0,0,1,.8-.7l1.3-.5,2.1-.2v-.6a2.1,2.1,0,0,0-.4-1.2,1.2,1.2,0,0,0-1-.4h-.8l-.5.2-.4.3h-.7Zm4.1,2.9h-1.5l-1,.3a1,1,0,0,0-.5.4.6.6,0,0,0-.2.5.7.7,0,0,0,.1.5c0,.2.1.3.2.3l.4.2h1.1l.5-.2a.5.5,0,0,0,.4-.3l.5-.4Z" style="fill: #fff"/>
          <path d="M320.4,106a2.4,2.4,0,0,1,.8-1.1,1.7,1.7,0,0,1,1.2-.5h.8v1a.2.2,0,0,1-.2.2h-1.3a.5.5,0,0,0-.5.3l-.4.4-.3.7v4.5h-1.2v-7.1h1c0,.1.1.2.1.3Z" style="fill: #fff"/>
          <path d="M325.9,102.3c0,.2-.1.3-.1.4l-.2.3-.3.2h-.7l-.3-.2-.2-.3V102l.2-.3.3-.2h.7l.3.2.2.3Zm-.3,2.3v7.1h-1.3v-7.1Z" style="fill: #fff"/>
          <path d="M327.5,105.6a3.4,3.4,0,0,1,1.2-.9,4,4,0,0,1,1.5-.3l1.1.2.8.6a2,2,0,0,1,.4.8,4.3,4.3,0,0,1,.2,1.1v4.6h-.8l-.2-.2v-.7l-.6.5-.5.3-.7.2h-1.5l-.6-.4a.9.9,0,0,1-.4-.6,1.7,1.7,0,0,1,0-1.6,1.9,1.9,0,0,1,.8-.7l1.3-.5,2.1-.2v-.6a1.6,1.6,0,0,0-.4-1.2,1.2,1.2,0,0,0-1-.4h-.8l-.5.2-.4.3h-.7Zm4,2.9H330l-1,.3a1,1,0,0,0-.5.4c-.1.2-.2.3-.2.5a.7.7,0,0,0,.1.5c.1.2.1.3.2.3l.4.2h1.1l.5-.2a.5.5,0,0,0,.4-.3l.5-.4Z" style="fill: #fff"/>
        </g>
      </g>
      <g class="hoverable" onclick="showTypeInstrument('gestion_intervencion_estructura_predial', 1, 4); changeImage('gestion/G_Intervencion_Estructural_Predial');">
        <path d="M280.4,247.2a149.9,149.9,0,0,0-19.6-69.9l121.8-69a293.3,293.3,0,0,1,37.7,134.1Z" style="fill: #ca5c9d;opacity: 0.62"/>
        <g>
          <path d="M302.6,182.9h-1.3V172.8h1.3Z" style="fill: #fff"/>
          <path d="M306,176.8l.5-.5.5-.3.6-.3h.7a1.5,1.5,0,0,1,1,.2l.8.5a2,2,0,0,1,.4.8,4.3,4.3,0,0,1,.2,1.1v4.6h-1.3v-4.6a2.1,2.1,0,0,0-.3-1.2,1.4,1.4,0,0,0-1.1-.4,2,2,0,0,0-1.1.2l-.9.7v5.3h-1.2v-7.1h.7l.4.2Z" style="fill: #fff"/>
          <path d="M314.7,183a1.7,1.7,0,0,1-1.3-.5,1.9,1.9,0,0,1-.5-1.3v-4.4h-.8c-.1,0-.2,0-.2-.1s-.1-.1-.1-.2V176H313l.3-2.2v-.2h.8v2.4h2v.9h-2v4.3a.8.8,0,0,0,.2.6.6.6,0,0,0,.6.3h1l.4.6-.8.5Z" style="fill: #fff"/>
          <path d="M323.2,181.9c-.1.2-.3.3-.5.5l-.7.3-.8.2h-.7a3.2,3.2,0,0,1-1.4-.3,4.1,4.1,0,0,1-1.1-.7,3.5,3.5,0,0,1-.7-1.2,7.8,7.8,0,0,1-.2-1.6,5.9,5.9,0,0,1,.2-1.4,4.1,4.1,0,0,1,.7-1.1,2.7,2.7,0,0,1,1-.8,3.2,3.2,0,0,1,1.4-.2,2.5,2.5,0,0,1,1.2.2l.9.6a2.1,2.1,0,0,1,.6,1,2.8,2.8,0,0,1,.3,1.3,1,1,0,0,1-.1.4h-5a3.7,3.7,0,0,0,.2,1.2,2.2,2.2,0,0,0,.5.8,1.8,1.8,0,0,0,.7.5l.9.2h.8l.6-.3.4-.2h.5Zm-1-3.4a2.5,2.5,0,0,0-.1-.8l-.3-.6-.6-.4h-.8a1.6,1.6,0,0,0-1.4.5,2,2,0,0,0-.6,1.4Z" style="fill: #fff"/>
          <path d="M326.1,177.2a2.4,2.4,0,0,1,.8-1.1,1.7,1.7,0,0,1,1.2-.5h.8v1l-.2.2h-1.3a.5.5,0,0,0-.5.3l-.4.4-.3.7v4.5h-1.2v-7.1h1v1.4Z" style="fill: #fff"/>
          <path d="M336,175.8l-2.8,7.1H332l-2.9-7.1h1.3v.2l1.8,4.6c.1.2.2.3.2.5s.1.3.1.5.1-.3.1-.5l.2-.5,1.8-4.6v-.2H336Z" style="fill: #fff"/>
          <path d="M342.8,181.9l-.6.5-.7.3-.7.2H340a3.2,3.2,0,0,1-1.4-.3l-1.1-.7a3.5,3.5,0,0,1-.7-1.2,7.8,7.8,0,0,1-.2-1.6,5.9,5.9,0,0,1,.2-1.4,4.1,4.1,0,0,1,.7-1.1,3.9,3.9,0,0,1,1-.8,3.2,3.2,0,0,1,1.4-.2,2.5,2.5,0,0,1,1.2.2,1.8,1.8,0,0,1,.9.6,2.1,2.1,0,0,1,.6,1,2.8,2.8,0,0,1,.3,1.3,1,1,0,0,1-.1.4c0,.1-.1.1-.2.1h-4.8a3.7,3.7,0,0,0,.2,1.2,2.2,2.2,0,0,0,.5.8,1.8,1.8,0,0,0,.7.5l.9.2h.8l.6-.3.4-.2h.5Zm-1.1-3.4a2.5,2.5,0,0,0-.1-.8l-.3-.6-.6-.4h-.8a1.7,1.7,0,0,0-1.4.5,2.6,2.6,0,0,0-.6,1.4Z" style="fill: #fff"/>
          <path d="M345.6,176.8c.1-.2.3-.3.5-.5l.5-.3.6-.3h.7a2,2,0,0,1,1.1.2l.7.5a2,2,0,0,1,.4.8,4.3,4.3,0,0,1,.2,1.1v4.6H349v-4.6a2.1,2.1,0,0,0-.3-1.2,1.4,1.4,0,0,0-1.1-.4,2.2,2.2,0,0,0-1.1.2l-.9.7v5.3h-1.2v-7.1h.7l.4.2Z" style="fill: #fff"/>
          <path d="M357.1,177h-.5l-.3-.2-.4-.2h-.7l-.9.2a1.3,1.3,0,0,0-.7.6,2,2,0,0,0-.4.8,3.7,3.7,0,0,0-.1,1.1,4.9,4.9,0,0,0,.1,1.2l.4.8a1.8,1.8,0,0,0,.7.5l.8.2h.8l.5-.3.3-.2h.5l.4.5-.6.5-.6.3-.7.2h-.8l-1.2-.3a2.3,2.3,0,0,1-1-.7,4.1,4.1,0,0,1-.7-1.1,6.1,6.1,0,0,1,0-3.1,4.1,4.1,0,0,1,.7-1.1,3.9,3.9,0,0,1,1-.8,5,5,0,0,1,2.8,0l1,.7Z" style="fill: #fff"/>
          <path d="M360.5,173.5c0,.2-.1.3-.1.4l-.2.3-.3.2h-.7l-.2-.2-.2-.3c-.1-.1-.1-.2-.1-.4a.4.4,0,0,1,.1-.3l.2-.3.2-.2h.7l.3.2.2.3C360.4,173.3,360.5,173.4,360.5,173.5Zm-.3,2.3v7.1H359v-7.1Z" style="fill: #fff"/>
          <path d="M365.2,175.7a3,3,0,0,1,1.4.2,2.3,2.3,0,0,1,1.1.8,4.1,4.1,0,0,1,.7,1.1,7.7,7.7,0,0,1,.2,1.5,6.1,6.1,0,0,1-.2,1.5,3.5,3.5,0,0,1-.7,1.2,3,3,0,0,1-1.1.7,2.9,2.9,0,0,1-1.4.3,3.2,3.2,0,0,1-1.4-.3l-1-.7a2.4,2.4,0,0,1-.7-1.2,3.3,3.3,0,0,1-.3-1.5,4,4,0,0,1,.3-1.5,2.6,2.6,0,0,1,.7-1.1,2.5,2.5,0,0,1,1-.8A3.2,3.2,0,0,1,365.2,175.7Zm0,6.3a1.8,1.8,0,0,0,1.6-.7,3,3,0,0,0,.5-2,3.1,3.1,0,0,0-.5-2,2,2,0,0,0-1.6-.7l-.9.2a1,1,0,0,0-.6.5,1.8,1.8,0,0,0-.4.9,3.6,3.6,0,0,0-.2,1.1,3,3,0,0,0,.6,2A1.6,1.6,0,0,0,365.2,182Zm2.1-9.3-1.7,1.8v.2h-1l1-1.7.2-.2h1.6Z" style="fill: #fff"/>
          <path d="M371.4,176.8l.5-.5.5-.3.6-.3h.7a1.6,1.6,0,0,1,1,.2l.8.5a2,2,0,0,1,.4.8,4.3,4.3,0,0,1,.2,1.1v4.6h-1.3v-4.6a2.1,2.1,0,0,0-.3-1.2,1.4,1.4,0,0,0-1.1-.4,2,2,0,0,0-1.1.2l-.9.7v5.3h-1.2v-7.1h.7a.5.5,0,0,1,.4.2Z" style="fill: #fff"/>
          <path d="M314.3,198.6v1.1h-6.2V189.6h6.2v1.1h-4.9v3.4h3.9v1h-3.9v3.5Z" style="fill: #fff"/>
          <path d="M319.9,193.7l-.3.2h-.2l-.3-.2h-1.7l-.4.2-.3.3a.6.6,0,0,0-.1.4.8.8,0,0,0,.2.5l.4.3.6.2.6.2.7.3.6.3.4.6a1.4,1.4,0,0,1,.2.7,2.9,2.9,0,0,1-.2.9,1.8,1.8,0,0,1-.5.7l-.8.5-1.2.2a2.8,2.8,0,0,1-1.3-.3,2.4,2.4,0,0,1-1.1-.6l.3-.5h.6l.4.3.5.2h1.3l.5-.3c.1-.1.2-.2.2-.3a.9.9,0,0,0,.1-.5.7.7,0,0,0-.1-.5l-.5-.3-.5-.2-.7-.3-.7-.2-.6-.4a1,1,0,0,1-.4-.5,1.9,1.9,0,0,1-.2-.8,2.4,2.4,0,0,1,.2-.8l.5-.6.8-.5h1a2.7,2.7,0,0,1,1.3.2,2.1,2.1,0,0,1,1,.6Z" style="fill: #fff"/>
          <path d="M324,199.8a1.7,1.7,0,0,1-1.3-.5,1.8,1.8,0,0,1-.4-1.3v-4.4h-1.1v-.7h1.2l.3-2.2v-.2h.8v2.4h2v.9h-2v4.3a.8.8,0,0,0,.2.6.7.7,0,0,0,.6.3h1l.4.6-.8.5Z" style="fill: #fff"/>
          <path d="M328,194a2.4,2.4,0,0,1,.8-1.1,2.1,2.1,0,0,1,1.2-.5h.8v1c0,.1,0,.2-.2.2h-1.3a.5.5,0,0,0-.4.3l-.4.4-.3.7v4.5h-1.3v-7.1h1a.4.4,0,0,1,.1.3Z" style="fill: #fff"/>
          <path d="M337.8,192.6v7.1H337a.3.3,0,0,1-.3-.3v-.8a4.1,4.1,0,0,1-1,.9,3.2,3.2,0,0,1-1.4.3l-1-.2a1.3,1.3,0,0,1-.7-.6,2.2,2.2,0,0,1-.5-.8,3.7,3.7,0,0,1-.1-1.1v-4.5h1.2v4.5a1.6,1.6,0,0,0,.4,1.2,1.3,1.3,0,0,0,1.1.5,1.7,1.7,0,0,0,1-.3,3.1,3.1,0,0,0,.9-.7v-5.2Z" style="fill: #fff"/>
          <path d="M344.7,193.8h-.5l-.3-.2-.5-.2h-.7l-.9.2a1.2,1.2,0,0,0-.6.6,2.2,2.2,0,0,0-.5.8c0,.3-.1.7-.1,1.1a5,5,0,0,0,.2,1.2,2,2,0,0,0,.4.8l.6.5.9.2h.7l.5-.3c.1,0,.3-.1.3-.2h.5l.4.5-.5.5-.7.3-.7.2h-.7a2.8,2.8,0,0,1-1.3-.3,2.3,2.3,0,0,1-1-.7,3.9,3.9,0,0,1-.6-1.1,4.1,4.1,0,0,1-.3-1.6,4,4,0,0,1,.3-1.5,2.4,2.4,0,0,1,.6-1.1,3.9,3.9,0,0,1,1-.8,3.6,3.6,0,0,1,1.5-.2,2.7,2.7,0,0,1,1.3.2l1,.7Z" style="fill: #fff"/>
          <path d="M348.6,199.8a1.7,1.7,0,0,1-1.3-.5,1.8,1.8,0,0,1-.4-1.3v-4.4h-1.1v-.7h1.2l.3-2.2v-.2h.8v2.4h2.1v.9h-2.1v4.3a.8.8,0,0,0,.2.6.7.7,0,0,0,.6.3h1l.4.6-.8.5Z" style="fill: #fff"/>
          <path d="M357.3,192.6v7.1h-.8a.3.3,0,0,1-.3-.3v-.8a4.1,4.1,0,0,1-1,.9,3.2,3.2,0,0,1-1.4.3l-1-.2a1.3,1.3,0,0,1-.7-.6,2.2,2.2,0,0,1-.5-.8,3.7,3.7,0,0,1-.1-1.1v-4.5h1.2v4.5a1.6,1.6,0,0,0,.4,1.2,1.3,1.3,0,0,0,1.1.5,1.7,1.7,0,0,0,1-.3,2.2,2.2,0,0,0,.9-.7v-5.2Z" style="fill: #fff"/>
          <path d="M360.4,194c.3-.5.5-.9.9-1.1a1.7,1.7,0,0,1,1.2-.5h.7v1c-.1.1-.1.2-.3.2h-1.3a.5.5,0,0,0-.4.3.8.8,0,0,0-.4.4l-.3.7v4.5h-1.3v-7.1h1a.4.4,0,0,1,.1.3Z" style="fill: #fff"/>
          <path d="M364,193.6a5.1,5.1,0,0,1,1.3-.9l1.5-.3,1.1.2.8.6a2,2,0,0,1,.4.8,4.3,4.3,0,0,1,.2,1.1v4.6h-.8a.2.2,0,0,1-.2-.2v-.7l-.6.5-.5.3-.7.2h-1.5l-.6-.4a.9.9,0,0,1-.4-.6,1.1,1.1,0,0,1-.2-.8,1.9,1.9,0,0,1,.2-.8,1.9,1.9,0,0,1,.8-.7l1.3-.5,2.1-.2v-.6a1.6,1.6,0,0,0-.4-1.2,1.2,1.2,0,0,0-1-.4h-.8l-.5.2-.4.3h-.7Zm4.1,2.9h-1.5l-1,.3a1,1,0,0,0-.5.4c-.1.2-.2.3-.2.5a.7.7,0,0,0,.1.5c0,.2.1.3.2.3l.4.2h1.1l.5-.2a.5.5,0,0,0,.4-.3l.5-.4Z" style="fill: #fff"/>
          <path d="M321.8,206.4l1.6.2a3.5,3.5,0,0,1,1.2.7,2.6,2.6,0,0,1,.7,1,4.3,4.3,0,0,1,.2,1.2,5.1,5.1,0,0,1-.2,1.3,2.5,2.5,0,0,1-.8,1,4.1,4.1,0,0,1-1.1.7l-1.6.2h-1.6v3.8h-1.4V206.4Zm0,5.2h1a1.8,1.8,0,0,0,.7-.5c.3-.1.4-.4.5-.6a2.9,2.9,0,0,0,.2-.9,2,2,0,0,0-.6-1.5,3,3,0,0,0-1.8-.5h-1.6v4.1Z" style="fill: #fff"/>
          <path d="M328,210.8a2.4,2.4,0,0,1,.8-1.1,1.7,1.7,0,0,1,1.2-.5h.8v1a.2.2,0,0,1-.2.2h-1.3c-.2,0-.3.1-.5.3l-.4.4-.3.7v4.5h-1.2v-7.1h1v1.4Z" style="fill: #fff"/>
          <path d="M337.4,215.5l-.6.5-.7.3-.7.2h-.8a3.2,3.2,0,0,1-1.4-.3l-1.1-.7a3.5,3.5,0,0,1-.7-1.2,7.8,7.8,0,0,1-.2-1.6,5.9,5.9,0,0,1,.2-1.4,4.1,4.1,0,0,1,.7-1.1,3.9,3.9,0,0,1,1-.8,3.2,3.2,0,0,1,1.4-.2,2.5,2.5,0,0,1,1.2.2,1.8,1.8,0,0,1,.9.6,2.1,2.1,0,0,1,.6,1,2.8,2.8,0,0,1,.3,1.3,1,1,0,0,1-.1.4h-5a3.7,3.7,0,0,0,.2,1.2,2.2,2.2,0,0,0,.5.8,1.8,1.8,0,0,0,.7.5l.9.2h.8l.6-.3.4-.2h.5Zm-1.1-3.4a2.5,2.5,0,0,0-.1-.8l-.3-.6-.6-.4h-.8a1.7,1.7,0,0,0-1.4.5,2.6,2.6,0,0,0-.6,1.4Z" style="fill: #fff"/>
          <path d="M344.9,206.1v10.4h-.8a.3.3,0,0,1-.3-.3v-.9a3.1,3.1,0,0,1-1.1.9,2.8,2.8,0,0,1-1.3.4,2,2,0,0,1-1.1-.3,2.8,2.8,0,0,1-.9-.7,2.8,2.8,0,0,1-.5-1.1,7.8,7.8,0,0,1-.2-1.6,5.9,5.9,0,0,1,.2-1.4,6.7,6.7,0,0,1,.6-1.2,3.9,3.9,0,0,1,1-.8,2.8,2.8,0,0,1,1.3-.3,2,2,0,0,1,1.1.3,1.6,1.6,0,0,1,.8.6v-4Zm-1.3,5a1.5,1.5,0,0,0-.7-.7l-1-.2a2.1,2.1,0,0,0-1.5.7,3.9,3.9,0,0,0-.5,2,4.1,4.1,0,0,0,.1,1.2,1.5,1.5,0,0,0,.4.8.8.8,0,0,0,.5.5l.8.2a2,2,0,0,0,1.1-.3l.8-.8Z" style="fill: #fff"/>
          <path d="M348.4,207.1c0,.2,0,.3-.1.4l-.2.3-.2.2h-.7l-.3-.2-.2-.3c0-.1-.1-.2-.1-.4v-.3l.2-.3.3-.2h.7l.2.2c.1.1.2.2.2.3A.4.4,0,0,1,348.4,207.1Zm-.3,2.3v7.1h-1.2v-7.1Z" style="fill: #fff"/>
          <path d="M350,210.4a3.8,3.8,0,0,1,1.3-.9,3.3,3.3,0,0,1,1.5-.3l1,.2.8.6a2.2,2.2,0,0,1,.5.8,4.3,4.3,0,0,1,.2,1.1v4.6h-.9a.3.3,0,0,1-.1-.2l-.2-.7-.5.5-.6.3-.6.2h-1.5l-.7-.4a1.5,1.5,0,0,1-.4-.6,1.9,1.9,0,0,1-.1-.8,1.1,1.1,0,0,1,.2-.8,1.6,1.6,0,0,1,.7-.7,4.6,4.6,0,0,1,1.4-.5l2-.2v-.6a2.1,2.1,0,0,0-.3-1.2,1.4,1.4,0,0,0-1.1-.4h-.7l-.6.2-.4.3h-.7Zm4,2.9h-1.4l-1,.3a.9.9,0,0,0-.6.4.9.9,0,0,0-.1.5v.5l.3.3.4.2h1l.5-.2a.5.5,0,0,0,.5-.3.8.8,0,0,0,.4-.4Z" style="fill: #fff"/>
          <path d="M358.4,206.1v10.4h-1.2V206.1Z" style="fill: #fff"/>
        </g>
      </g>
      <g class="hoverable" onclick="showTypeInstrument('reparto_de_recargas_y_beneficios', 1, 4); changeImage('gestion/G_Reporte_cargos_y_beneficios');">
        <path d="M386.1,390.4,262.6,324.5a152.3,152.3,0,0,0,17.9-70.4l140,1.4A294.6,294.6,0,0,1,386.1,390.4Z" style="fill: #ca5c9d;opacity: 0.62"/>
        <g>
          <path d="M297.8,303.9h-1.2a.7.7,0,0,1-.6-.3l-2.6-3.6c0-.1-.1-.2-.2-.3h-1.5v4.2h-1.3V293.8h2.8l1.7.2a3.9,3.9,0,0,1,1.1.6,2.2,2.2,0,0,1,.7.9,3.6,3.6,0,0,1,.2,1.1,3,3,0,0,1-.2,1,2.2,2.2,0,0,1-.5.8,2.3,2.3,0,0,1-.7.7l-1.1.4c.2,0,.3.2.5.4Zm-4.6-5.2,1-.2.8-.4a.9.9,0,0,0,.4-.6,1.9,1.9,0,0,0,.2-.8,1.5,1.5,0,0,0-.6-1.3,3,3,0,0,0-1.8-.5h-1.5v3.8Z" style="fill: #fff"/>
          <path d="M304.2,302.9l-.6.5-.7.3-.8.2h-.7a3.2,3.2,0,0,1-1.4-.3,4.1,4.1,0,0,1-1.1-.7,3.5,3.5,0,0,1-.7-1.2,7.8,7.8,0,0,1-.2-1.6,5.9,5.9,0,0,1,.2-1.4,4.1,4.1,0,0,1,.7-1.1,3.9,3.9,0,0,1,1-.8,3.2,3.2,0,0,1,1.4-.2,2.5,2.5,0,0,1,1.2.2,1.8,1.8,0,0,1,.9.6,2.1,2.1,0,0,1,.6,1,2.8,2.8,0,0,1,.3,1.3,1,1,0,0,1-.1.4c0,.1-.1.1-.2.1h-4.8a3.7,3.7,0,0,0,.2,1.2,2.2,2.2,0,0,0,.5.8,1.8,1.8,0,0,0,.7.5l.9.2h.8l.6-.3.4-.2h.5Zm-1.1-3.4a2.5,2.5,0,0,0-.1-.8l-.3-.6-.6-.4h-.8a1.7,1.7,0,0,0-1.4.5,2.6,2.6,0,0,0-.6,1.4Z" style="fill: #fff"/>
          <path d="M307,297.9a2.8,2.8,0,0,1,1-.9,3.3,3.3,0,0,1,1.4-.4,2.3,2.3,0,0,1,1.1.3,1.8,1.8,0,0,1,.8.7,3.9,3.9,0,0,1,.6,1.1,8.1,8.1,0,0,1,.1,1.6,3.2,3.2,0,0,1-.2,1.4,2.3,2.3,0,0,1-.6,1.2,3.4,3.4,0,0,1-.9.8,2.8,2.8,0,0,1-1.3.3,1.8,1.8,0,0,1-1.1-.3,2.4,2.4,0,0,1-.9-.6v3.2h-1.2v-9.5h.7l.4.2Zm0,4.3a2.1,2.1,0,0,0,.8.6l.9.2a1.6,1.6,0,0,0,1.5-.7,3.2,3.2,0,0,0,.6-2,3.7,3.7,0,0,0-.2-1.2,1.5,1.5,0,0,0-.3-.8l-.6-.5H309a1.8,1.8,0,0,0-1.1.2l-.9.8Z" style="fill: #fff"/>
          <path d="M313.5,297.8a3.4,3.4,0,0,1,1.2-.9,4,4,0,0,1,1.5-.3l1.1.2.8.6a2,2,0,0,1,.4.8,4.3,4.3,0,0,1,.2,1.1v4.6h-.8l-.2-.2v-.7l-.6.5-.5.3-.7.2h-1.5l-.6-.4a.9.9,0,0,1-.4-.6,1.7,1.7,0,0,1,0-1.6,1.9,1.9,0,0,1,.8-.7l1.3-.5,2.1-.2v-.6a1.6,1.6,0,0,0-.4-1.2,1.2,1.2,0,0,0-1-.4h-.8l-.5.2-.4.3h-.7Zm4,2.9H316l-1,.3a1,1,0,0,0-.5.4c-.1.2-.2.3-.2.5a.7.7,0,0,0,.1.5c.1.2.1.3.2.3l.4.2h1.1l.5-.2a.5.5,0,0,0,.4-.3l.5-.4Z" style="fill: #fff"/>
          <path d="M321.8,298.2a2.4,2.4,0,0,1,.8-1.1,1.7,1.7,0,0,1,1.2-.5h.8v1l-.2.2H323c-.2,0-.3.1-.5.3l-.4.4-.3.7v4.5h-1.2v-7.1h1c0,.1.1.2.1.3Z" style="fill: #fff"/>
          <path d="M327.9,304a1.7,1.7,0,0,1-1.3-.5,1.9,1.9,0,0,1-.5-1.3v-4.4h-.8c-.1,0-.2,0-.2-.1s-.1-.1-.1-.2V297h1.2l.3-2.2v-.2h.9v2.4h2v.9h-2v4.3c0,.3,0,.5.2.6a.5.5,0,0,0,.5.3h1.1l.4.6-.8.5Z" style="fill: #fff"/>
          <path d="M333.7,296.7a3.4,3.4,0,0,1,1.4.2,2.5,2.5,0,0,1,1,.8,4.1,4.1,0,0,1,.7,1.1,3.9,3.9,0,0,1,.2,1.5,3.4,3.4,0,0,1-.2,1.5,3.5,3.5,0,0,1-.7,1.2l-1,.7a3.5,3.5,0,0,1-1.4.3,2.9,2.9,0,0,1-1.4-.3,3,3,0,0,1-1.1-.7,3.5,3.5,0,0,1-.7-1.2,6.1,6.1,0,0,1-.2-1.5,7.7,7.7,0,0,1,.2-1.5,4.1,4.1,0,0,1,.7-1.1,2.3,2.3,0,0,1,1.1-.8A3,3,0,0,1,333.7,296.7Zm0,6.3a1.6,1.6,0,0,0,1.5-.7,3,3,0,0,0,.5-2,3.1,3.1,0,0,0-.5-2,1.8,1.8,0,0,0-1.5-.7l-1,.2-.6.5a3.6,3.6,0,0,0-.4.9,3.7,3.7,0,0,0-.1,1.1,3,3,0,0,0,.5,2A1.8,1.8,0,0,0,333.7,303Z" style="fill: #fff"/>
          <path d="M348.1,293.6v10.3h-.8a.3.3,0,0,1-.3-.3v-.9a3.1,3.1,0,0,1-1.1.9,2.8,2.8,0,0,1-1.3.4,2,2,0,0,1-1.1-.3,2.8,2.8,0,0,1-.9-.7,2.8,2.8,0,0,1-.5-1.1,7.8,7.8,0,0,1-.2-1.6,5.9,5.9,0,0,1,.2-1.4,6.7,6.7,0,0,1,.6-1.2,3.9,3.9,0,0,1,1-.8,2.8,2.8,0,0,1,1.3-.3,2,2,0,0,1,1.1.3,1.6,1.6,0,0,1,.8.6v-3.9Zm-1.3,4.9a1.5,1.5,0,0,0-.7-.7l-1-.2a2.1,2.1,0,0,0-1.5.7,3.9,3.9,0,0,0-.5,2,4.1,4.1,0,0,0,.1,1.2,1.5,1.5,0,0,0,.4.8.8.8,0,0,0,.5.5l.8.2a2,2,0,0,0,1.1-.3,3,3,0,0,0,.8-.8Z" style="fill: #fff"/>
          <path d="M355.8,302.9l-.6.5-.7.3-.7.2H353a2.8,2.8,0,0,1-1.3-.3,3,3,0,0,1-1.1-.7,2.4,2.4,0,0,1-.7-1.2,4.1,4.1,0,0,1-.3-1.6,3.2,3.2,0,0,1,.3-1.4,2.4,2.4,0,0,1,.6-1.1,3.1,3.1,0,0,1,1.1-.8,2.7,2.7,0,0,1,1.3-.2,2.2,2.2,0,0,1,1.2.2,2.1,2.1,0,0,1,1,.6l.6,1a5.1,5.1,0,0,1,.2,1.3c0,.2,0,.4-.1.4s-.1.1-.2.1h-4.7a4.1,4.1,0,0,0,.1,1.2,5.6,5.6,0,0,0,.5.8,1.8,1.8,0,0,0,.7.5l.9.2h.8l.6-.3a.5.5,0,0,0,.4-.2h.5Zm-1-3.4c0-.2-.1-.5-.1-.8l-.4-.6-.6-.4H353a1.6,1.6,0,0,0-1.4.5,2.1,2.1,0,0,0-.7,1.4Z" style="fill: #fff"/>
          <path d="M365.9,298c0,.1,0,.1-.1.1h-.4c0-.1-.1-.1-.3-.2l-.4-.2H364l-.9.2a1.3,1.3,0,0,0-.7.6,2,2,0,0,0-.4.8,3.7,3.7,0,0,0-.1,1.1,4.9,4.9,0,0,0,.1,1.2l.4.8a1.8,1.8,0,0,0,.7.5l.9.2h.7l.5-.3.3-.2h.5l.4.5-.6.5-.6.3-.7.2h-.8a2.7,2.7,0,0,1-1.2-.3,2.3,2.3,0,0,1-1-.7,2.4,2.4,0,0,1-.6-1.1,4.1,4.1,0,0,1-.3-1.6,7.7,7.7,0,0,1,.2-1.5,4.1,4.1,0,0,1,.7-1.1,3.9,3.9,0,0,1,1-.8,5,5,0,0,1,2.8,0l1,.7Z" style="fill: #fff"/>
          <path d="M367.5,297.8a3.8,3.8,0,0,1,1.3-.9,3.3,3.3,0,0,1,1.5-.3l1,.2.8.6a2.2,2.2,0,0,1,.5.8,4.3,4.3,0,0,1,.2,1.1v4.6h-.9v-.2l-.2-.7-.5.5-.6.3-.6.2h-1.5l-.7-.4a1.5,1.5,0,0,1-.4-.6,1.9,1.9,0,0,1-.1-.8,1.1,1.1,0,0,1,.2-.8,1.6,1.6,0,0,1,.7-.7,4.6,4.6,0,0,1,1.4-.5l2-.2v-.6a2.1,2.1,0,0,0-.3-1.2,1.4,1.4,0,0,0-1.1-.4h-.7l-.6.2-.4.3h-.7Zm4,2.9h-1.4l-1,.3a.9.9,0,0,0-.6.4.9.9,0,0,0-.1.5.7.7,0,0,0,.1.5c0,.2.1.3.2.3a.5.5,0,0,0,.4.2h1l.5-.2a.5.5,0,0,0,.5-.3l.4-.4Z" style="fill: #fff"/>
          <path d="M375.8,298.2c.3-.5.5-.9.9-1.1a1.7,1.7,0,0,1,1.2-.5h.8v1c-.1.1-.1.2-.2.2H377a.5.5,0,0,0-.4.3.8.8,0,0,0-.4.4l-.3.7v4.5h-1.2v-7.1h.9l.2.3Z" style="fill: #fff"/>
          <path d="M385.6,297.1v.4a.3.3,0,0,1-.3.3h-.8a3.6,3.6,0,0,1,.2,1,3,3,0,0,1-.2,1,1.8,1.8,0,0,1-.5.7l-.9.5h-2l-.3.3a.4.4,0,0,0-.1.3c0,.2,0,.3.2.4l.5.2h2.5c.3.1.6.1.8.3a1,1,0,0,1,.5.4,1.3,1.3,0,0,1,.3.8,1.6,1.6,0,0,1-.3.9,1.6,1.6,0,0,1-.6.8l-1.1.5-1.4.2h-1.3l-1-.5c-.3-.1-.4-.3-.6-.5a2.4,2.4,0,0,1-.2-.8.9.9,0,0,1,.4-.8,1.5,1.5,0,0,1,.9-.6,1,1,0,0,1-.5-.4.7.7,0,0,1-.2-.6v-.4l.2-.3.3-.3.4-.3a1.9,1.9,0,0,1-.8-.7,2.4,2.4,0,0,1-.3-1.2,1.5,1.5,0,0,1,.2-.9,1.8,1.8,0,0,1,.5-.7,2.6,2.6,0,0,1,.9-.5h1.9a.9.9,0,0,1,.7.3Zm-1.3,7.1a.6.6,0,0,0-.1-.4l-.4-.2-.6-.2H381c-.2.1-.5.2-.6.4a.9.9,0,0,0-.3.7c0,.1.1.3.1.4l.4.4.7.2h1.8l.6-.2.5-.4A1.3,1.3,0,0,0,384.3,304.2Zm-2.2-3.8h.6l.5-.3.3-.5a.7.7,0,0,0,.1-.5,1.4,1.4,0,0,0-.4-1.1,1.8,1.8,0,0,0-1.1-.4,2.1,2.1,0,0,0-1.2.4,1.4,1.4,0,0,0-.4,1.1.7.7,0,0,0,.1.5l.3.5.5.3Z" style="fill: #fff"/>
          <path d="M386.7,297.8a3.8,3.8,0,0,1,1.3-.9,3.3,3.3,0,0,1,1.5-.3l1,.2.8.6a2.2,2.2,0,0,1,.5.8,4.1,4.1,0,0,1,.1,1.1v4.6h-.8l-.2-.2v-.7c-.2.2-.4.3-.5.5l-.6.3-.6.2h-1.5l-.7-.4a.9.9,0,0,1-.4-.6,1.9,1.9,0,0,1-.2-.8,1.1,1.1,0,0,1,.3-.8,1.6,1.6,0,0,1,.7-.7,4.6,4.6,0,0,1,1.4-.5l2-.2v-.6a2.1,2.1,0,0,0-.3-1.2,1.4,1.4,0,0,0-1.1-.4h-.8l-.5.2-.4.3h-.7Zm4,2.9h-1.5l-.9.3a.9.9,0,0,0-.6.4c-.1.2-.2.3-.2.5a4.3,4.3,0,0,0,.1.5q.1.3.3.3l.3.2h1.1l.5-.2c.2,0,.3-.1.5-.3s.3-.2.4-.4Z" style="fill: #fff"/>
          <path d="M398,297.9l-.3.2c-.1,0-.2,0-.2-.1l-.4-.2h-1.6l-.5.2-.2.3a.6.6,0,0,0-.1.4.7.7,0,0,0,.1.5l.5.3.5.2.7.2.7.3.6.3.4.6a1.4,1.4,0,0,1,.2.7,2.9,2.9,0,0,1-.2.9,1.8,1.8,0,0,1-.5.7,2.6,2.6,0,0,1-.9.5l-1.1.2a3.2,3.2,0,0,1-1.4-.3,2.1,2.1,0,0,1-1-.6l.3-.5h.6l.3.3.5.2h1.4l.4-.3c.2-.1.2-.2.3-.3a.9.9,0,0,0,.1-.5.8.8,0,0,0-.2-.5l-.4-.3-.6-.2-.7-.3-.6-.2a.9.9,0,0,1-.6-.4,1,1,0,0,1-.4-.5,1.9,1.9,0,0,1-.2-.8,2.4,2.4,0,0,1,.2-.8,1.3,1.3,0,0,1,.5-.6,1.8,1.8,0,0,1,.7-.5H396a2.7,2.7,0,0,1,1.3.2,1.8,1.8,0,0,1,.9.6Z" style="fill: #fff"/>
          <path d="M314.7,313.6l-4,9.2a.3.3,0,0,0-.1.2h-1.3l1.3-2.9-2.9-6.6h1.5l1.9,4.5a1.4,1.4,0,0,0,.2.6,1.4,1.4,0,0,1,.2-.6l1.8-4.5v-.2h1.3Z" style="fill: #fff"/>
          <path d="M320.3,314.6a2.5,2.5,0,0,1,1-.8,2.5,2.5,0,0,1,1.3-.3,2,2,0,0,1,1.1.2,2.7,2.7,0,0,1,.8.7,2.4,2.4,0,0,1,.6,1.1,5.9,5.9,0,0,1,.2,1.4,7.8,7.8,0,0,1-.2,1.6,3.5,3.5,0,0,1-.7,1.2,2.4,2.4,0,0,1-.9.8,2.8,2.8,0,0,1-1.3.3,2.1,2.1,0,0,1-1.2-.3,2.7,2.7,0,0,1-.8-.7v.6a.3.3,0,0,1-.3.3H319V310.4h1.3Zm0,4.4a1.3,1.3,0,0,0,.7.6l.9.2a1.6,1.6,0,0,0,1.5-.7,3.3,3.3,0,0,0,.6-2.1,3.1,3.1,0,0,0-.5-1.9,1.6,1.6,0,0,0-1.3-.6,1.8,1.8,0,0,0-1.1.2,3,3,0,0,0-.8.8Z" style="fill: #fff"/>
          <path d="M332.6,319.7l-.6.5-.6.3-.8.2h-.8a2.8,2.8,0,0,1-1.3-.3,4.1,4.1,0,0,1-1.1-.7,3.5,3.5,0,0,1-.7-1.2,4.1,4.1,0,0,1-.3-1.6,3.2,3.2,0,0,1,.3-1.4,2.4,2.4,0,0,1,.6-1.1l1.1-.8a2.7,2.7,0,0,1,1.3-.2,2.2,2.2,0,0,1,1.2.2,2.1,2.1,0,0,1,1,.6l.6,1a5.1,5.1,0,0,1,.2,1.3c0,.2,0,.4-.1.4s-.1.1-.2.1h-4.7a2.2,2.2,0,0,0,.2,1.2,2,2,0,0,0,.4.8,1.8,1.8,0,0,0,.7.5l.9.2h.8l.6-.3a.5.5,0,0,0,.4-.2h.5Zm-1-3.4c0-.2-.1-.5-.1-.8l-.4-.6a.9.9,0,0,0-.6-.4h-.7a1.6,1.6,0,0,0-1.4.5,2.1,2.1,0,0,0-.7,1.4Z" style="fill: #fff"/>
          <path d="M335.4,314.6l.5-.5.5-.3.7-.3h.7a1.6,1.6,0,0,1,1,.2,1.8,1.8,0,0,1,.7.5,2.2,2.2,0,0,1,.5.8,4.1,4.1,0,0,1,.1,1.1v4.6h-1.2v-4.6a1.6,1.6,0,0,0-.4-1.2,1.2,1.2,0,0,0-1.1-.4,1.6,1.6,0,0,0-1,.2l-.9.7v5.3h-1.3v-7.1h.8c.2,0,.3.1.3.2Z" style="fill: #fff"/>
          <path d="M347.8,319.7l-.6.5-.6.3-.8.2H345a2.8,2.8,0,0,1-1.3-.3,4.1,4.1,0,0,1-1.1-.7,3.5,3.5,0,0,1-.7-1.2,4.1,4.1,0,0,1-.3-1.6,3.2,3.2,0,0,1,.3-1.4,2.4,2.4,0,0,1,.6-1.1l1.1-.8a3,3,0,0,1,1.4-.2,2,2,0,0,1,1.1.2,2.1,2.1,0,0,1,1,.6l.6,1a5.1,5.1,0,0,1,.2,1.3c0,.2,0,.4-.1.4s-.1.1-.2.1h-4.7a2.2,2.2,0,0,0,.2,1.2,2,2,0,0,0,.4.8,1.8,1.8,0,0,0,.7.5l.9.2h.8l.6-.3a.5.5,0,0,0,.4-.2h.5Zm-1-3.4a2.5,2.5,0,0,0-.1-.8l-.4-.6a.9.9,0,0,0-.6-.4H345a1.6,1.6,0,0,0-1.4.5,2.1,2.1,0,0,0-.7,1.4Z" style="fill: #fff"/>
          <path d="M349.8,320.7v-6.1h-1a.3.3,0,0,1-.1-.2v-.5h1.1v-.4a5,5,0,0,1,.2-1.2l.7-.9a1.7,1.7,0,0,1,1-.6,3,3,0,0,1,1.4-.2h1v.7c-.1,0-.1,0-.1.1h-.6a3,3,0,0,0-1.8.5,1.9,1.9,0,0,0-.5,1.6v.3h4.2v7h-1.2v-6.1h-3v6.1Z" style="fill: #fff"/>
          <path d="M362.3,314.8h-.1a.1.1,0,0,1-.1.1h-.3l-.3-.2-.4-.2h-.7l-.9.2a1.3,1.3,0,0,0-.7.6,2,2,0,0,0-.4.8,3.7,3.7,0,0,0-.1,1.1,4.9,4.9,0,0,0,.1,1.2,2,2,0,0,0,.4.8,1.8,1.8,0,0,0,.7.5l.8.2h.8l.5-.3.3-.2h.5l.3.5c-.1.2-.3.3-.5.5l-.6.3-.7.2h-.8a2.4,2.4,0,0,1-1.2-.3,2.3,2.3,0,0,1-1-.7,4.1,4.1,0,0,1-.7-1.1,6.1,6.1,0,0,1,0-3.1l.6-1.1,1.1-.8a3.2,3.2,0,0,1,1.4-.2,2.8,2.8,0,0,1,2.3.9Z" style="fill: #fff"/>
          <path d="M365.6,311.3v.4l-.2.3-.3.2h-.7l-.3-.2c0-.1-.1-.2-.2-.3V311c.1-.1.2-.2.2-.3l.3-.2h.7l.3.2.2.3Zm-.2,2.3v7.1h-1.3v-7.1Z" style="fill: #fff"/>
          <path d="M370.4,313.5a3.2,3.2,0,0,1,1.4.2,2.8,2.8,0,0,1,1.1.8,4.1,4.1,0,0,1,.7,1.1,7.7,7.7,0,0,1,.2,1.5,6.1,6.1,0,0,1-.2,1.5,3.5,3.5,0,0,1-.7,1.2,4.1,4.1,0,0,1-1.1.7,3.4,3.4,0,0,1-2.8,0,4.1,4.1,0,0,1-1.1-.7,2.3,2.3,0,0,1-.6-1.2,3.3,3.3,0,0,1-.3-1.5,4,4,0,0,1,.3-1.5,2.4,2.4,0,0,1,.6-1.1,2.8,2.8,0,0,1,1.1-.8A3.2,3.2,0,0,1,370.4,313.5Zm0,6.3a1.9,1.9,0,0,0,1.6-.7,3.7,3.7,0,0,0,.5-2,3.9,3.9,0,0,0-.5-2,2.2,2.2,0,0,0-1.6-.7l-.9.2a1.8,1.8,0,0,0-.7.5l-.4.9c0,.3-.1.7-.1,1.1a3.7,3.7,0,0,0,.5,2A1.9,1.9,0,0,0,370.4,319.8Z" style="fill: #fff"/>
          <path d="M379.5,314.7c-.1.1-.1.2-.3.2H379l-.3-.2H377a.5.5,0,0,0-.4.2l-.3.3a.6.6,0,0,0-.1.4.8.8,0,0,0,.2.5l.4.3.6.2.7.2.6.3.6.3a2.1,2.1,0,0,1,.4.6,1.4,1.4,0,0,1,.2.7,2.9,2.9,0,0,1-.2.9,1.8,1.8,0,0,1-.5.7l-.8.5-1.2.2a2.8,2.8,0,0,1-1.3-.3,2.4,2.4,0,0,1-1.1-.6l.3-.5h.6l.4.3.5.2h1.3l.5-.3c.1-.1.2-.2.2-.3a.9.9,0,0,0,.1-.5.7.7,0,0,0-.1-.5l-.4-.3-.6-.2-.7-.3-.7-.2-.6-.4a1,1,0,0,1-.4-.5,1.9,1.9,0,0,1-.2-.8,2.4,2.4,0,0,1,.2-.8l.5-.6.8-.5h1.1a2.5,2.5,0,0,1,1.2.2,2.1,2.1,0,0,1,1,.6Z" style="fill: #fff"/>
        </g>
      </g>
      <g class="hoverable" onclick="showTypeInstrument('intervencion_en_la_propiedad', 2, 3); changeImage('gestion/G_Intervencion_en_la_Propiedad');">
        <path d="M282.4,501.3,208.3,382.5a154.7,154.7,0,0,0,50.9-52.1l120.4,71.5A296.1,296.1,0,0,1,282.4,501.3Z" style="fill: #cc62a1;opacity: 0.62"/>
        <g>
          <path d="M242.9,393.5c0,.2,0,.3-.1.4s-.1.2-.2.3l-.3.2h-.7l-.2-.2c-.1-.1-.2-.2-.2-.3s-.1-.2-.1-.4a.4.4,0,0,1,.1-.3l.2-.3.2-.2h.7l.3.2.2.3A.4.4,0,0,1,242.9,393.5Zm-.3,2.3v7.1h-1.2v-7.1Z" style="fill: #fff"/>
          <path d="M245.8,396.8l.5-.5.6-.3.6-.3h.7a1.6,1.6,0,0,1,1,.2l.8.5a2,2,0,0,1,.4.8,4.3,4.3,0,0,1,.2,1.1v4.6h-1.3v-4.6a2.1,2.1,0,0,0-.3-1.2,1.6,1.6,0,0,0-1.2-.4,1.8,1.8,0,0,0-1,.2l-.9.7v5.3h-1.2v-7.1h.7c.2,0,.3.1.3.2Z" style="fill: #fff"/>
          <path d="M254.6,403a1.7,1.7,0,0,1-1.3-.5,1.9,1.9,0,0,1-.5-1.3v-4.4H252c-.1,0-.2,0-.2-.1s-.1-.1-.1-.2V396h1.2l.2-2.2c.1-.1.1-.1.1-.2h.9v2.4h2v.9h-2v4.3c0,.3,0,.5.2.6a.5.5,0,0,0,.5.3h1.1l.4.6-.8.5Z" style="fill: #fff"/>
          <path d="M263.1,401.9c-.1.2-.3.3-.5.5l-.7.3-.8.2h-.8a2.8,2.8,0,0,1-1.3-.3,4.1,4.1,0,0,1-1.1-.7,3.5,3.5,0,0,1-.7-1.2,4.1,4.1,0,0,1-.2-1.6,3.2,3.2,0,0,1,.2-1.4,3.9,3.9,0,0,1,.6-1.1l1.1-.8a3.2,3.2,0,0,1,1.4-.2,2,2,0,0,1,1.1.2,2.1,2.1,0,0,1,1,.6,3.3,3.3,0,0,1,.6,1,2.7,2.7,0,0,1,.2,1.3v.4h-5a3.7,3.7,0,0,0,.2,1.2,2,2,0,0,0,.4.8l.7.5.9.2h.9l.5-.3a.5.5,0,0,0,.4-.2h.6Zm-1-3.4a2.5,2.5,0,0,0-.1-.8l-.4-.6-.5-.4h-.8a1.6,1.6,0,0,0-1.4.5,2.1,2.1,0,0,0-.7,1.4Z" style="fill: #fff"/>
          <path d="M265.9,397.2c.3-.5.5-.9.9-1.1a1.7,1.7,0,0,1,1.2-.5h.8v1c-.1.1-.1.2-.2.2h-1.4a.5.5,0,0,0-.4.3.8.8,0,0,0-.4.4l-.3.7v4.5h-1.2v-7.1h.9l.2.3Z" style="fill: #fff"/>
          <path d="M275.9,395.8l-2.9,7.1h-1.1l-2.9-7.1h1.3a.3.3,0,0,1,.1.2l1.8,4.6.2.5c0,.2.1.3.1.5s.1-.3.1-.5l.2-.5,1.8-4.6v-.2h1.2Z" style="fill: #fff"/>
          <path d="M282.6,401.9c-.1.2-.3.3-.5.5l-.7.3-.8.2h-.7a3.2,3.2,0,0,1-1.4-.3,4.1,4.1,0,0,1-1.1-.7,3.5,3.5,0,0,1-.7-1.2,7.8,7.8,0,0,1-.2-1.6,3.2,3.2,0,0,1,.2-1.4,4.1,4.1,0,0,1,.7-1.1,2.7,2.7,0,0,1,1-.8,3.2,3.2,0,0,1,1.4-.2,2.5,2.5,0,0,1,1.2.2,2.4,2.4,0,0,1,.9.6,2.1,2.1,0,0,1,.6,1,2.7,2.7,0,0,1,.2,1.3v.4h-5a3.7,3.7,0,0,0,.2,1.2l.4.8.7.5,1,.2h.8l.6-.3.4-.2h.5Zm-1-3.4a2.5,2.5,0,0,0-.1-.8l-.4-.6-.5-.4h-.8a1.6,1.6,0,0,0-1.4.5,2.1,2.1,0,0,0-.7,1.4Z" style="fill: #fff"/>
          <path d="M285.4,396.8c.2-.2.4-.3.5-.5l.6-.3.6-.3h.7a1.6,1.6,0,0,1,1,.2l.8.5a2,2,0,0,1,.4.8,4.3,4.3,0,0,1,.2,1.1v4.6h-1.3v-4.6a2.1,2.1,0,0,0-.3-1.2,1.6,1.6,0,0,0-1.2-.4,1.8,1.8,0,0,0-1,.2l-.9.7v5.3h-1.2v-7.1h.7c.2,0,.3.1.3.2Z" style="fill: #fff"/>
          <path d="M297,397a.1.1,0,0,1-.1.1h-.4l-.3-.2-.4-.2h-.7l-.9.2a1.3,1.3,0,0,0-.7.6,2,2,0,0,0-.4.8,3.7,3.7,0,0,0-.1,1.1,4.9,4.9,0,0,0,.1,1.2,2,2,0,0,0,.4.8,1.8,1.8,0,0,0,.7.5l.8.2h.8l.5-.3.3-.2h.5l.3.5c-.1.2-.3.3-.5.5l-.6.3-.7.2h-.8a2.4,2.4,0,0,1-1.2-.3,2.3,2.3,0,0,1-1-.7,4.1,4.1,0,0,1-.7-1.1,6.1,6.1,0,0,1,0-3.1l.6-1.1,1.1-.8a3.2,3.2,0,0,1,1.4-.2,2.8,2.8,0,0,1,2.3.9Z" style="fill: #fff"/>
          <path d="M300.3,393.5v.4l-.2.3-.3.2h-.7l-.3-.2-.2-.3v-.7c.1-.1.2-.2.2-.3l.3-.2h.7l.3.2.2.3Zm-.2,2.3v7.1h-1.3v-7.1Z" style="fill: #fff"/>
          <path d="M305.1,395.7a3.2,3.2,0,0,1,1.4.2,2.8,2.8,0,0,1,1.1.8,4.1,4.1,0,0,1,.7,1.1,7.7,7.7,0,0,1,.2,1.5,6.1,6.1,0,0,1-.2,1.5,3.5,3.5,0,0,1-.7,1.2,4.1,4.1,0,0,1-1.1.7,3.4,3.4,0,0,1-2.8,0,4.1,4.1,0,0,1-1.1-.7,2.3,2.3,0,0,1-.6-1.2,3.3,3.3,0,0,1-.3-1.5,4,4,0,0,1,.3-1.5,2.4,2.4,0,0,1,.6-1.1,2.8,2.8,0,0,1,1.1-.8A3.2,3.2,0,0,1,305.1,395.7Zm0,6.3a1.9,1.9,0,0,0,1.6-.7,3.7,3.7,0,0,0,.5-2,3.9,3.9,0,0,0-.5-2,2.2,2.2,0,0,0-1.6-.7l-.9.2a1.8,1.8,0,0,0-.7.5l-.4.9c0,.3-.1.7-.1,1.1a3.7,3.7,0,0,0,.5,2A1.9,1.9,0,0,0,305.1,402Zm2.1-9.3-1.7,1.8c0,.1-.1.1-.2.2h-.9l1-1.7.2-.2h1.6Z" style="fill: #fff"/>
          <path d="M311.2,396.8c.2-.2.4-.3.5-.5l.6-.3.6-.3h.7a1.6,1.6,0,0,1,1,.2l.8.5a2,2,0,0,1,.4.8,4.3,4.3,0,0,1,.2,1.1v4.6h-1.3v-4.6a2.1,2.1,0,0,0-.3-1.2,1.6,1.6,0,0,0-1.2-.4,1.8,1.8,0,0,0-1,.2l-.9.7v5.3h-1.2v-7.1h.7c.2,0,.3.1.3.2Z" style="fill: #fff"/>
          <path d="M327.2,401.9c-.1.2-.3.3-.5.5l-.7.3-.8.2h-.8a2.8,2.8,0,0,1-1.3-.3,4.1,4.1,0,0,1-1.1-.7,3.5,3.5,0,0,1-.7-1.2,4.1,4.1,0,0,1-.2-1.6,3.2,3.2,0,0,1,.2-1.4,3.9,3.9,0,0,1,.6-1.1l1.1-.8a3.2,3.2,0,0,1,1.4-.2,2,2,0,0,1,1.1.2,2.1,2.1,0,0,1,1,.6,3.3,3.3,0,0,1,.6,1,2.7,2.7,0,0,1,.2,1.3v.4h-5a3.7,3.7,0,0,0,.2,1.2,2,2,0,0,0,.4.8l.7.5.9.2h.8l.6-.3a.5.5,0,0,0,.4-.2h.6Zm-1-3.4a2.5,2.5,0,0,0-.1-.8l-.4-.6-.5-.4h-.8a1.6,1.6,0,0,0-1.4.5,2.1,2.1,0,0,0-.7,1.4Z" style="fill: #fff"/>
          <path d="M330,396.8l.5-.5.6-.3.6-.3h.7a1.6,1.6,0,0,1,1,.2l.8.5a2,2,0,0,1,.4.8,4.3,4.3,0,0,1,.2,1.1v4.6h-1.3v-4.6a1.6,1.6,0,0,0-.4-1.2,1.2,1.2,0,0,0-1.1-.4,1.8,1.8,0,0,0-1,.2l-.9.7v5.3h-1.2v-7.1h.7c.2,0,.3.1.3.2Z" style="fill: #fff"/>
          <path d="M252.4,409.4v10.3h-1.2V409.4Z" style="fill: #fff"/>
          <path d="M254.3,413.6a4.7,4.7,0,0,1,1.2-.9,4,4,0,0,1,1.5-.3l1.1.2.8.6a5.6,5.6,0,0,1,.5.8,4.1,4.1,0,0,1,.1,1.1v4.6h-.8c-.1,0-.1-.1-.2-.2v-.7l-.6.5-.5.3-.6.2h-1.6l-.6-.4a.9.9,0,0,1-.4-.6,1.9,1.9,0,0,1-.2-.8,1.1,1.1,0,0,1,.3-.8,1.6,1.6,0,0,1,.7-.7,3.8,3.8,0,0,1,1.4-.5l2-.2v-.6a1.6,1.6,0,0,0-.4-1.2,1.1,1.1,0,0,0-1-.4h-.8l-.5.2-.4.3h-.7Zm4,2.9h-1.5l-1,.3a1,1,0,0,0-.5.4c-.1.2-.2.3-.2.5a.7.7,0,0,0,.1.5q.2.3.3.3l.3.2h1.1l.5-.2c.2,0,.3-.1.5-.3s.3-.2.4-.4Z" style="fill: #fff"/>
          <path d="M266.2,413.7a2.8,2.8,0,0,1,1-.9,3.3,3.3,0,0,1,1.4-.4,2.3,2.3,0,0,1,1.1.3,1.8,1.8,0,0,1,.8.7,3.9,3.9,0,0,1,.6,1.1,7.8,7.8,0,0,1,.2,1.6,3.2,3.2,0,0,1-.3,1.4,2.3,2.3,0,0,1-.6,1.2,2.4,2.4,0,0,1-.9.8,2.8,2.8,0,0,1-1.3.3,2,2,0,0,1-1.1-.3,2.4,2.4,0,0,1-.9-.6v3.2H265v-9.5h.7l.4.2Zm0,4.3a2.1,2.1,0,0,0,.8.6l.9.2a1.6,1.6,0,0,0,1.5-.7,3.2,3.2,0,0,0,.6-2,3.7,3.7,0,0,0-.2-1.2,1.5,1.5,0,0,0-.3-.8l-.6-.5h-.7a2,2,0,0,0-1.1.2l-.9.8Z" style="fill: #fff"/>
          <path d="M274,414a2,2,0,0,1,.9-1.1,1.6,1.6,0,0,1,1.1-.5h.8v1c-.1.1-.1.2-.3.2h-1.3a.5.5,0,0,0-.4.3l-.4.4-.3.7v4.5h-1.3v-7.1h1a.4.4,0,0,1,.1.3Z" style="fill: #fff"/>
          <path d="M280.6,412.5a3,3,0,0,1,1.4.2,2.3,2.3,0,0,1,1.1.8,4.1,4.1,0,0,1,.7,1.1,7.7,7.7,0,0,1,.2,1.5,6.1,6.1,0,0,1-.2,1.5,3.5,3.5,0,0,1-.7,1.2,3,3,0,0,1-1.1.7,2.9,2.9,0,0,1-1.4.3,3.2,3.2,0,0,1-1.4-.3l-1-.7a2.4,2.4,0,0,1-.7-1.2,3.4,3.4,0,0,1-.2-1.5,3.9,3.9,0,0,1,.2-1.5,2.6,2.6,0,0,1,.7-1.1,2.5,2.5,0,0,1,1-.8A3.2,3.2,0,0,1,280.6,412.5Zm0,6.3a1.8,1.8,0,0,0,1.6-.7,3,3,0,0,0,.5-2,3.1,3.1,0,0,0-.5-2,2,2,0,0,0-1.6-.7l-.9.2a1,1,0,0,0-.6.5,1.8,1.8,0,0,0-.4.9,3.6,3.6,0,0,0-.2,1.1,3,3,0,0,0,.6,2A1.6,1.6,0,0,0,280.6,418.8Z" style="fill: #fff"/>
          <path d="M286.8,413.7a2.8,2.8,0,0,1,1-.9,3.3,3.3,0,0,1,1.4-.4,2.3,2.3,0,0,1,1.1.3,1.8,1.8,0,0,1,.8.7,3.9,3.9,0,0,1,.6,1.1,8.1,8.1,0,0,1,.1,1.6,3.2,3.2,0,0,1-.2,1.4,2.3,2.3,0,0,1-.6,1.2,3.4,3.4,0,0,1-.9.8,2.8,2.8,0,0,1-1.3.3,1.8,1.8,0,0,1-1.1-.3,2.4,2.4,0,0,1-.9-.6v3.2h-1.2v-9.5h.7a.5.5,0,0,1,.4.2Zm0,4.3a2.1,2.1,0,0,0,.8.6l.9.2a1.6,1.6,0,0,0,1.5-.7,3.2,3.2,0,0,0,.6-2,3.7,3.7,0,0,0-.2-1.2,1.5,1.5,0,0,0-.3-.8l-.6-.5h-.7a1.8,1.8,0,0,0-1.1.2l-.9.8Z" style="fill: #fff"/>
          <path d="M295,410.3c0,.2,0,.3-.1.4s-.1.2-.2.3l-.2.2h-.7l-.3-.2-.2-.3c0-.1-.1-.2-.1-.4s.1-.2.1-.3l.2-.3.3-.2h.7l.2.2c.1.1.2.2.2.3A.4.4,0,0,1,295,410.3Zm-.3,2.3v7.1h-1.2v-7.1Z" style="fill: #fff"/>
          <path d="M302.5,418.7l-.5.5-.7.3-.8.2h-.7a3.2,3.2,0,0,1-1.4-.3,4.1,4.1,0,0,1-1.1-.7,3.5,3.5,0,0,1-.7-1.2,7.8,7.8,0,0,1-.2-1.6,5.9,5.9,0,0,1,.2-1.4,4.1,4.1,0,0,1,.7-1.1,3.9,3.9,0,0,1,1-.8,3.2,3.2,0,0,1,1.4-.2,2.5,2.5,0,0,1,1.2.2,1.8,1.8,0,0,1,.9.6,2.1,2.1,0,0,1,.6,1,2.8,2.8,0,0,1,.3,1.3,1,1,0,0,1-.1.4c0,.1-.1.1-.2.1h-4.8a3.7,3.7,0,0,0,.2,1.2,2.2,2.2,0,0,0,.5.8,1.8,1.8,0,0,0,.7.5l.9.2h.8l.6-.3.4-.2h.5Zm-1-3.4a2.5,2.5,0,0,0-.1-.8l-.3-.6-.6-.4h-.8a1.7,1.7,0,0,0-1.4.5,2,2,0,0,0-.6,1.4Z" style="fill: #fff"/>
          <path d="M310.1,409.4v10.3h-.8a.3.3,0,0,1-.3-.3v-.9a3.1,3.1,0,0,1-1.1.9,2.8,2.8,0,0,1-1.3.4,2,2,0,0,1-1.1-.3c-.4-.1-.6-.4-.9-.7a2.8,2.8,0,0,1-.5-1.1,7.8,7.8,0,0,1-.2-1.6,5.9,5.9,0,0,1,.2-1.4,3.4,3.4,0,0,1,.6-1.2,3.9,3.9,0,0,1,1-.8,2.8,2.8,0,0,1,1.3-.3,2,2,0,0,1,1.1.3,1.6,1.6,0,0,1,.8.6v-3.9Zm-1.3,4.9a1.3,1.3,0,0,0-.8-.7l-.9-.2a2.1,2.1,0,0,0-1.5.7,3.9,3.9,0,0,0-.5,2,4.1,4.1,0,0,0,.1,1.2,1.5,1.5,0,0,0,.4.8.8.8,0,0,0,.5.5l.8.2a2,2,0,0,0,1.1-.3,6,6,0,0,0,.8-.8Z" style="fill: #fff"/>
          <path d="M311.8,413.6a5.1,5.1,0,0,1,1.3-.9,4,4,0,0,1,1.5-.3l1.1.2.7.6a1.4,1.4,0,0,1,.5.8,4.3,4.3,0,0,1,.2,1.1v4.6h-.8a.2.2,0,0,1-.2-.2v-.7l-.6.5-.5.3-.7.2h-1.5l-.6-.4c-.2-.1-.3-.3-.5-.6a1.9,1.9,0,0,1-.1-.8,1.9,1.9,0,0,1,.2-.8,1.9,1.9,0,0,1,.8-.7l1.3-.5,2.1-.2v-.6a2.1,2.1,0,0,0-.4-1.2,1.2,1.2,0,0,0-1-.4h-.8l-.5.2-.4.3h-.7Zm4.1,2.9h-1.5l-1,.3a1,1,0,0,0-.5.4.6.6,0,0,0-.2.5.7.7,0,0,0,.1.5c0,.2.1.3.2.3l.4.2h1.1l.5-.2a.5.5,0,0,0,.4-.3l.5-.4Z" style="fill: #fff"/>
          <path d="M324.8,409.4v10.3h-.7a.3.3,0,0,1-.3-.3v-.9a3.1,3.1,0,0,1-1.1.9,2.8,2.8,0,0,1-1.3.4,2,2,0,0,1-1.1-.3c-.4-.1-.6-.4-.9-.7a2.8,2.8,0,0,1-.5-1.1,7.8,7.8,0,0,1-.2-1.6,5.9,5.9,0,0,1,.2-1.4,2.3,2.3,0,0,1,.6-1.2,3.9,3.9,0,0,1,1-.8,2.8,2.8,0,0,1,1.3-.3,2,2,0,0,1,1.1.3,1.6,1.6,0,0,1,.8.6v-3.9Zm-1.2,4.9a1.3,1.3,0,0,0-.8-.7l-.9-.2a2.1,2.1,0,0,0-1.5.7,3.9,3.9,0,0,0-.5,2,4.1,4.1,0,0,0,.1,1.2,1.5,1.5,0,0,0,.4.8.8.8,0,0,0,.5.5l.8.2a2,2,0,0,0,1.1-.3,6,6,0,0,0,.8-.8Z" style="fill: #fff"/>
        </g>
      </g>
      <g class="hoverable" onclick="returnToGroups(); changeImage('rueda');">
        <circle cx="127.5" cy="248.5" r="109" style="fill: #bcc3c5"/>
        <g>
          <path d="M96.5,255.2a15.3,15.3,0,0,1-4.6.8,7.8,7.8,0,0,1-5.6-1.9,7.5,7.5,0,0,1-2-5.3c0-4.5,3.3-7.4,8-7.4a10.2,10.2,0,0,1,3.8.7l-.6,2.1a8.2,8.2,0,0,0-3.2-.6c-3.1,0-5.2,1.8-5.2,5.1s2,5.2,4.9,5.2a4.3,4.3,0,0,0,2-.3V250H91.5v-2h5Z" style="fill: #112025"/>
          <path d="M107.2,249.5h-5.4v4.2h6v2.2H99.2V241.6h8.3v2.1h-5.7v3.7h5.4Z" style="fill: #112025"/>
          <path d="M110,253a7.2,7.2,0,0,0,3.5.9c1.6,0,2.6-.8,2.6-1.9s-.7-1.7-2.6-2.4-3.8-2.1-3.8-4.1,1.9-4.1,5-4.1a7.7,7.7,0,0,1,3.5.7l-.7,2.1a5.6,5.6,0,0,0-2.8-.7c-1.7,0-2.4.9-2.4,1.7s.8,1.6,2.7,2.4,3.7,2.1,3.7,4.2-1.7,4.3-5.4,4.3a8.8,8.8,0,0,1-3.8-.9Z" style="fill: #112025"/>
          <path d="M123.8,243.8h-4.1v-2.2h10.8v2.2h-4.1v12.1h-2.6Z" style="fill: #112025"/>
          <path d="M134.8,241.6v14.3h-2.6V241.6Z" style="fill: #112025"/>
          <path d="M150.4,248.6c0,4.8-2.9,7.5-6.8,7.5s-6.6-3.1-6.6-7.3,2.8-7.4,6.8-7.4S150.4,244.5,150.4,248.6Zm-10.6.2c0,2.9,1.4,5.2,3.9,5.2s4-2.3,4-5.3-1.4-5.3-4-5.3S139.8,245.8,139.8,248.8Zm7.3-10.6-2.6,2.6h-2.1l1.9-2.6Z" style="fill: #112025"/>
          <path d="M152.7,255.9V241.6h2.9l3.7,6.1a36.7,36.7,0,0,1,2.5,4.8h0a56.2,56.2,0,0,1-.2-5.9v-5H164v14.3h-2.7l-3.7-6.3c-.9-1.6-1.9-3.3-2.6-4.9h-.1c.1,1.8.2,3.7.2,6.1v5.1Z" style="fill: #112025"/>
        </g>
        <circle cx="127.5" cy="248.5" r="127" style="fill: none;stroke: #a9b7bc;stroke-miterlimit: 10"/>
      </g>
    </g>
  </g>
</svg>
