<svg class="animate__animated" xmlns="http://www.w3.org/2000/svg" viewBox="0 0 729.4 669.9">
  <g>
    <g class="hoverable" onclick="returnToGroups();">
      <circle cx="127.5" cy="380" r="105" style="fill: #bdc4c6" />
      <circle cx="127.5" cy="380" r="127" style="fill: none;stroke: #aab8bd;stroke-miterlimit: 10" />
      <g>
        <path d="M73.1,378.6H67.7v4.2h6v2.1H65.1V370.7h8.3v2.1H67.7v3.7h5.4Z" style="fill: #112025" />
        <path
          d="M86.2,384.5a9.2,9.2,0,0,1-3.7.6c-4.5,0-7.2-2.8-7.2-7.1a7.2,7.2,0,0,1,7.6-7.6,8.1,8.1,0,0,1,3.5.7l-.6,2a7,7,0,0,0-2.8-.5c-2.9,0-5,1.8-5,5.2s1.8,5.2,5,5.2a6.1,6.1,0,0,0,2.8-.6Z"
          style="fill: #112025" />
        <path
          d="M100.6,377.6c0,4.8-2.9,7.6-6.9,7.6s-6.5-3.1-6.5-7.3,2.7-7.5,6.7-7.5S100.6,373.6,100.6,377.6Zm-10.7.3c0,2.9,1.5,5.2,4,5.2s3.9-2.4,3.9-5.3-1.3-5.3-3.9-5.3S89.9,374.9,89.9,377.9Z"
          style="fill: #112025" />
        <path
          d="M102.8,384.9V370.7h3l3.7,6.1q1.4,2.4,2.4,4.8h0c-.1-1.9-.2-3.8-.2-6v-4.9h2.4v14.2h-2.7l-3.7-6.2c-.9-1.6-1.9-3.4-2.6-5h0c.1,1.8.1,3.7.1,6v5.1Z"
          style="fill: #112025" />
        <path
          d="M129.8,377.6c0,4.8-2.9,7.6-6.9,7.6s-6.5-3.1-6.5-7.3,2.7-7.5,6.7-7.5S129.8,373.6,129.8,377.6Zm-10.7.3c0,2.9,1.5,5.2,4,5.2s3.9-2.4,3.9-5.3-1.3-5.3-3.9-5.3S119.1,374.9,119.1,377.9Zm7.4-10.6-2.7,2.6h-2l1.8-2.6Z"
          style="fill: #112025" />
        <path
          d="M144.1,379.1c-.1-1.8-.2-4.1-.2-6h-.1a38.6,38.6,0,0,1-1.7,5.5l-2,6.2H138l-1.9-6.1c-.5-1.9-1-3.8-1.4-5.6h0c-.1,1.9-.2,4.1-.3,6.1l-.3,5.7h-2.4l.9-14.2H136l1.9,5.7c.5,1.7,1,3.4,1.3,4.9h.1c.4-1.5.8-3.3,1.4-4.9l2-5.7H146l.9,14.2h-2.6Z"
          style="fill: #112025" />
        <path d="M152.1,370.7v14.2h-2.6V370.7Z" style="fill: #112025" />
        <path
          d="M165.3,384.5a9,9,0,0,1-3.6.6c-4.6,0-7.3-2.8-7.3-7.1a7.2,7.2,0,0,1,7.6-7.6,8.1,8.1,0,0,1,3.5.7l-.6,2a7,7,0,0,0-2.8-.5c-2.9,0-5,1.8-5,5.2s1.8,5.2,5,5.2a6.1,6.1,0,0,0,2.8-.6Z"
          style="fill: #112025" />
        <path
          d="M179.7,377.6c0,4.8-2.9,7.6-6.9,7.6s-6.5-3.1-6.5-7.3,2.7-7.5,6.7-7.5S179.7,373.6,179.7,377.6Zm-10.7.3c0,2.9,1.5,5.2,4,5.2s3.9-2.4,3.9-5.3-1.3-5.3-3.9-5.3S169,374.9,169,377.9Z"
          style="fill: #112025" />
        <path
          d="M181.8,382.1a7.5,7.5,0,0,0,3.5.9c1.7,0,2.6-.8,2.6-1.9s-.7-1.8-2.5-2.4-3.9-2.1-3.9-4.2,2-4.1,5-4.1a9.3,9.3,0,0,1,3.5.7l-.7,2.1a7.3,7.3,0,0,0-2.8-.6c-1.7,0-2.4.9-2.4,1.7s.9,1.6,2.8,2.3,3.6,2.2,3.6,4.3-1.7,4.2-5.4,4.2a7.9,7.9,0,0,1-3.8-.9Z"
          style="fill: #112025" />
      </g>
    </g>
    <g class="hoverable" onclick="returnToTypesInstrument()">
      <path
        d="M426.6,252a308.5,308.5,0,0,0-47.3-74L245,287.2a136.6,136.6,0,0,1,16.9,162.3L412,535.6a307,307,0,0,0,40.8-127.4A310.1,310.1,0,0,0,426.6,252Z"
        style="fill: #d16bad" />
      <path
        d="M429.6,248a308.5,308.5,0,0,0-47.3-74l-8.6,7a306.4,306.4,0,0,1,43.9,70,310.1,310.1,0,0,1,26.2,156.2c-4,42.6-19,85.8-40.7,124.2l9,5c24.3-40.5,39.5-86.7,43.7-132.2A310.1,310.1,0,0,0,429.6,248Z"
        style="fill: #332c91" />
      <g>
        <path
          d="M321.5,358.1a9.1,9.1,0,0,1-4.1.8c-4.3,0-7.6-2.8-7.6-7.9a7.7,7.7,0,0,1,8.1-8.1,8.4,8.4,0,0,1,3.7.7l-.5,1.6a9.1,9.1,0,0,0-3.2-.6c-3.6,0-6,2.3-6,6.4s2.2,6.2,6,6.2a7.6,7.6,0,0,0,3.2-.6Z"
          style="fill: #fff" />
        <path
          d="M333.8,353c0,4.1-2.9,5.9-5.5,5.9s-5.4-2.2-5.4-5.7,2.5-5.9,5.5-5.9S333.8,349.6,333.8,353Zm-8.8.1c0,2.4,1.4,4.3,3.3,4.3s3.4-1.8,3.4-4.3-.9-4.3-3.3-4.3S325,351,325,353.1Z"
          style="fill: #fff" />
        <path
          d="M336.3,350.5v-3H338v1.8h.1a3.8,3.8,0,0,1,3.5-2,3.2,3.2,0,0,1,3.1,2.2h.1a4.2,4.2,0,0,1,1.2-1.4,3.4,3.4,0,0,1,2.5-.8c1.5,0,3.6.9,3.6,4.8v6.6h-1.9v-6.3c0-2.2-.8-3.5-2.5-3.5a2.6,2.6,0,0,0-2.3,1.9,2.5,2.5,0,0,0-.2,1v6.9h-2V352c0-1.8-.8-3.1-2.3-3.1a2.7,2.7,0,0,0-2.5,2.1,2.4,2.4,0,0,0-.2.9v6.8h-2Z"
          style="fill: #fff" />
        <path
          d="M361.7,358.7l-.2-1.4h0a4.6,4.6,0,0,1-3.4,1.6,3.1,3.1,0,0,1-3.4-3.2c0-2.7,2.3-4.2,6.6-4.1v-.3a2.2,2.2,0,0,0-2.5-2.5,5.7,5.7,0,0,0-2.9.8l-.4-1.3a6.6,6.6,0,0,1,3.6-1c3.4,0,4.2,2.3,4.2,4.5V356a21.3,21.3,0,0,0,.2,2.7Zm-.3-5.7c-2.2-.1-4.7.3-4.7,2.5a1.8,1.8,0,0,0,1.9,1.9,2.8,2.8,0,0,0,2.7-1.9c0-.2.1-.4.1-.6Z"
          style="fill: #fff" />
        <path
          d="M366.6,350.5a28.1,28.1,0,0,0-.1-3h1.8v1.9h.1a3.9,3.9,0,0,1,3.7-2.1c1.5,0,3.9.9,3.9,4.7v6.7h-2v-6.5c0-1.8-.7-3.3-2.6-3.3a2.9,2.9,0,0,0-2.7,2.1,3,3,0,0,0-.2,1v6.7h-2Z"
          style="fill: #fff" />
        <path
          d="M389,342.3v13.5a26.2,26.2,0,0,0,.1,2.9h-1.8v-2h-.1a3.9,3.9,0,0,1-3.8,2.2c-2.7,0-4.7-2.3-4.7-5.7s2.3-5.9,5-5.9a3.6,3.6,0,0,1,3.3,1.7h.1v-6.7Zm-2,9.8c0-.3-.1-.6-.1-.9a2.9,2.9,0,0,0-2.9-2.3c-2.1,0-3.4,1.8-3.4,4.3s1.1,4.1,3.3,4.1a3.1,3.1,0,0,0,3-2.4c0-.3.1-.6.1-.9Z"
          style="fill: #fff" />
        <path
          d="M402.4,353c0,4.1-2.8,5.9-5.5,5.9a5.3,5.3,0,0,1-5.4-5.7c0-3.7,2.5-5.9,5.6-5.9S402.4,349.6,402.4,353Zm-8.8.1c0,2.4,1.4,4.3,3.4,4.3s3.4-1.8,3.4-4.3-1-4.3-3.4-4.3S393.6,351,393.6,353.1Z"
          style="fill: #fff" />
        <path
          d="M410.6,347.5l2.4,6.6a10.1,10.1,0,0,1,.7,2.3h.1c.2-.7.4-1.5.7-2.3l2.2-6.6h2.1l-3,8c-1.4,3.8-2.4,5.7-3.8,6.9a5.4,5.4,0,0,1-2.5,1.3L409,362a3.7,3.7,0,0,0,1.8-1,7,7,0,0,0,1.7-2.2,1.3,1.3,0,0,0,0-1l-4.1-10.3Z"
          style="fill: #fff" />
        <path
          d="M340.9,385.7a9.1,9.1,0,0,1-4.1.8c-4.4,0-7.7-2.8-7.7-7.9a8.4,8.4,0,0,1,11.8-7.4l-.5,1.6a8.1,8.1,0,0,0-3.1-.6c-3.6,0-6,2.3-6,6.4s2.1,6.2,5.9,6.2a8.1,8.1,0,0,0,3.3-.6Z"
          style="fill: #fff" />
        <path
          d="M353.1,380.6c0,4.1-2.8,5.9-5.5,5.9s-5.3-2.2-5.3-5.7,2.4-5.9,5.5-5.9S353.1,377.2,353.1,380.6Zm-8.8.1c0,2.4,1.4,4.3,3.4,4.3s3.4-1.8,3.4-4.3-1-4.3-3.4-4.3S344.3,378.6,344.3,380.7Z"
          style="fill: #fff" />
        <path
          d="M355.7,378.1a28.1,28.1,0,0,0-.1-3h1.8V377h.1a3.9,3.9,0,0,1,3.6-2.1c1.6,0,4,.9,4,4.7v6.7h-2v-6.5c0-1.8-.7-3.3-2.6-3.3a2.8,2.8,0,0,0-2.7,2.1,3,3,0,0,0-.2,1v6.7h-2Z"
          style="fill: #fff" />
        <path
          d="M370.8,371.9v3.2h2.9v1.6h-2.9v6c0,1.3.4,2.1,1.5,2.1h1.2v1.5a4.2,4.2,0,0,1-1.8.3,2.8,2.8,0,0,1-2.2-.9,4,4,0,0,1-.8-2.9v-6h-1.7v-1.6h1.7v-2.6Z"
          style="fill: #fff" />
        <path
          d="M376,378.6c0-1.3,0-2.4-.1-3.5h1.8v2.2h.1a3.4,3.4,0,0,1,3.1-2.4h.6v1.9h-.7a2.9,2.9,0,0,0-2.7,2.6,2.8,2.8,0,0,0-.1.9v6h-2Z"
          style="fill: #fff" />
        <path
          d="M393.4,380.6c0,4.1-2.9,5.9-5.6,5.9s-5.3-2.2-5.3-5.7,2.4-5.9,5.5-5.9S393.4,377.2,393.4,380.6Zm-8.9.1c0,2.4,1.4,4.3,3.4,4.3s3.4-1.8,3.4-4.3-1-4.3-3.4-4.3S384.5,378.6,384.5,380.7Z"
          style="fill: #fff" />
        <path d="M395.9,369.9h2v16.4h-2Z" style="fill: #fff" />
      </g>
    </g>
    <g class="hoverable" id="plusvalia" onclick="showInstrument('economicos', 'comando_y_control', 'plusvalia');">
      <path d="M434.7,183.6a355.2,355.2,0,0,0-24.6-35.4L598.9,0a598.7,598.7,0,0,1,40.5,58.2Z" style="fill: #d16bad" />
      <g>
        <path
          d="M466.3,128.8a25.6,25.6,0,0,1,2.7-2.3,6,6,0,0,1,3.9-1.3,3.8,3.8,0,0,1,2.7,1.7,4.2,4.2,0,0,1,.9,3.1,6.3,6.3,0,0,1-2.6,3.8,5.6,5.6,0,0,1-1.3.7l3.3,4.6-1.5,1.1Zm5.4,4.5a4.6,4.6,0,0,0,1.3-.8c1.8-1.2,2.3-2.9,1.2-4.5s-2.7-1.5-4.3-.3l-1.4,1.1Z"
          style="fill: #fff" />
        <path d="M474.7,121.7l1.5-1.1,8.7,12.1-1.5,1.1Z" style="fill: #fff" />
        <path
          d="M492.7,123.7a24.6,24.6,0,0,0,1.7,2.2l-1.3,1-1.1-1.3h0a3.9,3.9,0,0,1-1.7,3.5c-1.3.9-3.3,1.3-5.4-1.6l-3.5-4.8,1.5-1.1,3.3,4.6c1.1,1.5,2.4,2.3,3.7,1.3a2.7,2.7,0,0,0,1-2.8,1.8,1.8,0,0,0-.4-.9l-3.6-5,1.5-1.1Z"
          style="fill: #fff" />
        <path
          d="M495.5,122.8a4.6,4.6,0,0,0,2.4-.8c1.1-.8,1.2-1.7.7-2.4s-1.2-.8-2.6-.4-3.1.2-3.8-.8-.7-3.2,1.1-4.5a4.2,4.2,0,0,1,2.4-.9l.4,1.3a4,4,0,0,0-2,.8c-.9.6-1.1,1.5-.6,2.1s1.2.6,2.5.3,3.1-.3,4,.9.6,3.3-1.3,4.7a5.5,5.5,0,0,1-2.8,1.1Z"
          style="fill: #fff" />
        <path d="M498.3,110.7l4.9,3.4,2.2,1.7h0c-.3-.9-.5-1.7-.8-2.7l-1.7-5.8,1.6-1.1,2.6,10.6-1.4,1-9.1-6Z"
          style="fill: #fff" />
        <path
          d="M516.3,110.2l-.9-.9h0a4,4,0,0,1-1.7,3.1,2.9,2.9,0,0,1-4.2-.6c-1.4-2-.4-4.4,2.8-6.6V105a2.1,2.1,0,0,0-3.3-.6,6,6,0,0,0-1.7,2.2l-1-.8a5.7,5.7,0,0,1,2.1-2.6c2.6-1.8,4.4-.6,5.6,1.1l2.2,3.1a16,16,0,0,0,1.6,1.9Zm-3.2-4c-1.7,1.1-3.3,2.7-2.2,4.4a1.7,1.7,0,0,0,2.4.4,2.5,2.5,0,0,0,1-2.8,1.4,1.4,0,0,0-.2-.6Z"
          style="fill: #fff" />
        <path d="M511.3,95.5l1.5-1.1,8.7,12.2-1.5,1Z" style="fill: #fff" />
        <path
          d="M518.1,93a1.1,1.1,0,0,1-.3,1.6,1.1,1.1,0,0,1-1.6-.3,1.2,1.2,0,0,1,.3-1.6A1.1,1.1,0,0,1,518.1,93Zm5.9,11.8-5.9-8.3,1.5-1.1,5.9,8.3Z"
          style="fill: #fff" />
        <path
          d="M532.6,98.6l-.9-.9h0a3.7,3.7,0,0,1-1.7,3,2.8,2.8,0,0,1-4.2-.5c-1.4-2-.5-4.4,2.8-6.7h-.2a2,2,0,0,0-3.2-.6,5.1,5.1,0,0,0-1.7,2.2l-1.1-.8a7.7,7.7,0,0,1,2.2-2.7c2.5-1.8,4.4-.5,5.6,1.2l2.2,3.1a9.5,9.5,0,0,0,1.5,1.8Zm-3.3-4c-1.6,1.1-3.3,2.7-2.1,4.3a1.6,1.6,0,0,0,2.4.5,2.6,2.6,0,0,0,1-2.9c0-.2-.1-.3-.2-.5Z"
          style="fill: #fff" />
      </g>
    </g>
    <g class="hoverable" id="banco_de_tierras" onclick="showInstrument('economicos', 'comando_y_control', 'banco_de_tierras');">
      <path d="M473.6,273.2a382.4,382.4,0,0,0-14.8-40.4L679,137.3A611.7,611.7,0,0,1,703.4,204Z" style="fill: #d16bad" />
      <g>
        <path
          d="M518.4,226l3.1-1.4a5.7,5.7,0,0,1,4-.3,3.2,3.2,0,0,1,1.9,2,3.3,3.3,0,0,1-1.2,3.7h0a3.8,3.8,0,0,1,4,2.4,4.1,4.1,0,0,1-.2,3.1c-.6,1.1-2,2.1-4.2,2.8a12,12,0,0,1-2.7.8Zm3.7,4.9,1.5-.6c1.9-.6,2.6-2,2.1-3.2s-1.9-1.8-3.7-1.2l-1.5.7Zm2.3,6.4,1.4-.5c1.8-.6,3.2-1.8,2.5-3.8s-2.5-2-4.3-1.3l-1.5.5Z"
          style="fill: #fff" />
        <path
          d="M539.1,233.5l-.6-1.2h-.1a3.5,3.5,0,0,1-2.4,2.5,2.9,2.9,0,0,1-3.9-1.7c-.8-2.3.8-4.3,4.5-5.6v-.2a2,2,0,0,0-2.9-1.4,4.8,4.8,0,0,0-2.3,1.6l-.8-1a6,6,0,0,1,2.8-2c3-1.1,4.4.7,5.1,2.6l1.3,3.6c.3.8.6,1.6.9,2.2Zm-2-4.8c-2,.6-4,1.7-3.3,3.6a1.6,1.6,0,0,0,2.2,1.1,2.7,2.7,0,0,0,1.8-2.5c0-.2-.1-.4-.1-.6Z"
          style="fill: #fff" />
        <path
          d="M540.8,225l-1-2.6,1.5-.5.7,1.5h0a3.7,3.7,0,0,1,2.6-2.9c1.3-.5,3.6-.4,4.8,2.8l2,5.7-1.7.7-2-5.5c-.5-1.6-1.6-2.7-3.2-2.1a2.8,2.8,0,0,0-1.7,2.6,2.9,2.9,0,0,0,.2.9l2,5.7-1.7.7Z"
          style="fill: #fff" />
        <path
          d="M561,225.2a7.8,7.8,0,0,1-2.6,1.6,4.8,4.8,0,0,1-6.5-3.2,5.1,5.1,0,0,1,3.3-6.9,5.6,5.6,0,0,1,2.6-.4v1.5a3.8,3.8,0,0,0-2.2.3c-2.2.7-2.8,2.8-2.1,4.8s2.7,3.1,4.6,2.4a5.7,5.7,0,0,0,2-1.3Z"
          style="fill: #fff" />
        <path
          d="M569.9,216.9c1.3,3.6-.6,6-2.9,6.8s-5.3-.2-6.4-3.2.3-5.9,3-6.8S568.9,214,569.9,216.9Zm-7.5,2.9c.7,2.1,2.5,3.2,4.2,2.6s2.3-2.6,1.6-4.8-2.2-3.3-4.2-2.6S561.7,217.9,562.4,219.8Z"
          style="fill: #fff" />
        <path
          d="M581.3,202.5l4.1,11.6c.3.8.7,1.8,1,2.4l-1.6.6-.6-1.6h-.1a3.6,3.6,0,0,1-2.6,3c-2.3.9-4.8-.5-5.8-3.4s.1-5.8,2.5-6.6a3.3,3.3,0,0,1,3.4.4h0l-2-5.7Zm1.3,9-.4-.7a2.6,2.6,0,0,0-3.2-1.1c-1.8.6-2.3,2.6-1.6,4.7s2.2,3.2,4.1,2.5a2.6,2.6,0,0,0,1.8-2.9,2.4,2.4,0,0,0-.2-.8Z"
          style="fill: #fff" />
        <path
          d="M588.6,210.7c.9,2.4,2.7,2.8,4.4,2.2a6.8,6.8,0,0,0,2.5-1.5l.8,1.2a7.9,7.9,0,0,1-3,1.7c-3,1.1-5.4-.3-6.4-3.1s-.2-5.8,2.6-6.8,4.9,1.3,5.6,3.1a3.1,3.1,0,0,1,.2.8Zm4.6-3a2.5,2.5,0,0,0-3.4-2c-1.7.6-1.9,2.5-1.6,3.8Z"
          style="fill: #fff" />
        <path
          d="M601,197.4l1,2.8,2.5-.9.4,1.3-2.4.9,1.8,5.2c.4,1.1,1,1.7,2,1.3l.9-.4.6,1.2a3.5,3.5,0,0,1-1.5.8,2.6,2.6,0,0,1-2.1,0,3.8,3.8,0,0,1-1.6-2.3l-1.8-5.2-1.5.5-.5-1.3,1.5-.5-.8-2.3Z"
          style="fill: #fff" />
        <path
          d="M607.4,195.2a1.1,1.1,0,0,1-.7,1.5,1.2,1.2,0,0,1-1.5-.7,1.2,1.2,0,0,1,.7-1.5A1.1,1.1,0,0,1,607.4,195.2Zm2.4,12.9-3.4-9.5,1.8-.6,3.4,9.5Z"
          style="fill: #fff" />
        <path
          d="M613.8,201.7a3.3,3.3,0,0,0,4.5,2.1,6.3,6.3,0,0,0,2.5-1.4l.7,1.1a8.5,8.5,0,0,1-2.9,1.8c-3,1-5.4-.3-6.5-3.2s-.1-5.8,2.7-6.7,4.9,1.3,5.5,3a9.2,9.2,0,0,1,.3.9Zm4.7-3.1c-.4-1.1-1.5-2.7-3.4-2a3.1,3.1,0,0,0-1.7,3.8Z"
          style="fill: #fff" />
        <path
          d="M622,196.4c-.4-1.2-.7-2.1-1.1-3l1.5-.5.7,1.8h.1a3,3,0,0,1,1.9-3l.5-.2.6,1.7h-.6a2.6,2.6,0,0,0-1.5,3.1,3.1,3.1,0,0,0,.2.8l1.8,5.1-1.7.6Z"
          style="fill: #fff" />
        <path
          d="M628.6,194a28.5,28.5,0,0,0-1.2-2.9l1.5-.6.8,1.9h.1a2.9,2.9,0,0,1,1.9-3.1h.5l.6,1.6-.7.2a2.6,2.6,0,0,0-1.5,3.1c.1.2.1.5.2.8l1.8,5.1-1.7.6Z"
          style="fill: #fff" />
        <path
          d="M642.6,196.4l-.6-1.1h0a4.1,4.1,0,0,1-2.5,2.5,2.9,2.9,0,0,1-3.9-1.7c-.8-2.3.8-4.3,4.5-5.6v-.2a2,2,0,0,0-2.9-1.5,5.3,5.3,0,0,0-2.3,1.6l-.8-1a7.1,7.1,0,0,1,2.9-2c2.9-1,4.3.7,5,2.7l1.3,3.5a9.9,9.9,0,0,0,1,2.3Zm-2-4.8c-1.9.7-4,1.8-3.3,3.6a1.6,1.6,0,0,0,2.2,1.1,2.5,2.5,0,0,0,1.8-2.4c0-.2-.1-.4-.1-.6Z"
          style="fill: #fff" />
        <path
          d="M646,193.2a4.3,4.3,0,0,0,2.5-.1c1.3-.5,1.6-1.3,1.3-2.1s-.9-1.1-2.4-1.1-3.1-.7-3.5-1.8a3.2,3.2,0,0,1,2.3-4,5,5,0,0,1,2.6-.3v1.5a3.9,3.9,0,0,0-2.1.1,1.6,1.6,0,0,0-1.2,1.9c.3.8,1,.9,2.4,1s3.1.5,3.6,2-.3,3.3-2.6,4.1a5,5,0,0,1-2.9.3Z"
          style="fill: #fff" />
      </g>
    </g>
    <g class="hoverable" id="multa" onclick="showInstrument('economicos', 'comando_y_control', 'multa');">
      <path
        d="M489.3,373.4c-.1-2.1-.1-4.3-.2-6.4a361.7,361.7,0,0,0-4.1-43l237.3-36.3a633.3,633.3,0,0,1,6.6,70.3c.2,3.5.3,7.1.3,10.5Z"
        style="fill: #d16bad" />
      <g>
        <path
          d="M554.9,339.4c-.2-1.9-.6-4.3-.7-6h-.1a47.7,47.7,0,0,1-1.3,5.5l-1.9,7.1h-1.3l-2.9-6.5a42.3,42.3,0,0,1-2.1-5.4h-.1c.1,1.8.2,4.2.3,6.3l.2,6.1h-1.8l-.2-14.2,2.3-.2,3,6.6c.7,1.7,1.3,3.2,1.8,4.7h.1a37,37,0,0,1,1.1-4.9l1.9-7.1,2.3-.2,2.1,14-1.8.2Z"
          style="fill: #fff" />
        <path
          d="M568.6,341.7a19.3,19.3,0,0,0,.4,2.7l-1.7.2-.2-1.7h0a3.8,3.8,0,0,1-3.2,2.2c-1.6.2-3.6-.6-3.9-4.1l-.5-5.9,1.8-.2.5,5.6c.2,1.9.9,3.2,2.5,3a2.6,2.6,0,0,0,2.4-2.8l-.6-6.2,1.9-.2Z"
          style="fill: #fff" />
        <path d="M570.6,329.3l1.9-.2,1.3,14.9-1.9.2Z" style="fill: #fff" />
        <path
          d="M577.9,330.5l.3,2.9,2.6-.2.2,1.4-2.7.2.5,5.5c.1,1.2.5,1.9,1.6,1.8l1-.2.2,1.4-1.6.4a3,3,0,0,1-2-.6,3.7,3.7,0,0,1-1-2.6l-.5-5.5H575l-.2-1.4h1.6l-.2-2.5Z"
          style="fill: #fff" />
        <path
          d="M589.4,342.6l-.2-1.3h-.1a3.6,3.6,0,0,1-3,1.8,2.8,2.8,0,0,1-3.3-2.6c-.2-2.5,1.8-4,5.7-4.3V336a2.1,2.1,0,0,0-2.5-2.2,5.9,5.9,0,0,0-2.6,1l-.5-1.1a5.7,5.7,0,0,1,3.2-1.2c3.1-.3,4.1,1.7,4.3,3.8l.3,3.7a16.4,16.4,0,0,0,.4,2.5Zm-.7-5.1c-2,.1-4.3.7-4.1,2.6a1.6,1.6,0,0,0,1.9,1.6,2.5,2.5,0,0,0,2.3-1.9c0-.2.1-.4,0-.6Z"
          style="fill: #fff" />
      </g>
    </g>
    <g class="hoverable" id="impuestos" onclick="showInstrument('economicos', 'comando_y_control', 'impuestos');">
      <path d="M457,228.6a393.8,393.8,0,0,0-19.9-38.1l206.1-123a627.3,627.3,0,0,1,32.8,63Z" style="fill: #d16bad" />
      <g>
        <path d="M499.4,175.4l6.2,12.7-1.6.8-6.3-12.7Z" style="fill: #fff" />
        <path
          d="M505.3,180a14.6,14.6,0,0,0-1.3-2.5l1.5-.7.8,1.5h0a3.7,3.7,0,0,1,2.1-3.1,3.1,3.1,0,0,1,3.5.6h0a4.3,4.3,0,0,1,.4-1.7,3.8,3.8,0,0,1,1.7-1.6c1.2-.6,3.4-.7,5,2.4l2.6,5.4-1.6.8-2.5-5.2c-.9-1.7-2.1-2.5-3.4-1.8a2.5,2.5,0,0,0-1.2,2.5,1.9,1.9,0,0,0,.3.9l2.7,5.6-1.6.8-2.7-5.5c-.7-1.4-1.9-2.1-3.1-1.5a2.3,2.3,0,0,0-1.2,2.6,2.9,2.9,0,0,0,.2.9l2.7,5.5-1.6.8Z"
          style="fill: #fff" />
        <path
          d="M521.3,172.7c-.6-1.1-1.1-2.1-1.6-2.9l1.5-.7.9,1.5h0a3.9,3.9,0,0,1,2.4-3.4c2.2-1.1,4.8,0,6.1,2.7s.4,5.9-1.7,7a3.6,3.6,0,0,1-3.5-.1h0l2.4,5-1.6.8Zm2.8,1.6a4.3,4.3,0,0,0,.4.7,2.9,2.9,0,0,0,3.5.7c1.7-.9,2-2.8,1-4.9s-2.6-2.9-4.4-2a2.9,2.9,0,0,0-1.5,3.3c.1.2.1.5.3.7Z"
          style="fill: #fff" />
        <path
          d="M541.4,167.3l1.3,2.5-1.4.7-.9-1.4h0a4.1,4.1,0,0,1-2.2,3.2c-1.4.7-3.5.7-5.1-2.5l-2.6-5.3,1.6-.8,2.5,5c.9,1.8,2,2.7,3.5,1.9a2.6,2.6,0,0,0,1.4-2.6,2.9,2.9,0,0,0-.2-.9l-2.8-5.6,1.7-.8Z"
          style="fill: #fff" />
        <path
          d="M544.2,163.7c1.2,2.3,3.1,2.5,4.7,1.7a6.5,6.5,0,0,0,2.3-1.8l.9,1.1a10.9,10.9,0,0,1-2.8,2.1,4.8,4.8,0,0,1-6.7-2.4c-1.4-2.8-.8-5.7,1.8-7s5.1.7,5.9,2.4a1.6,1.6,0,0,1,.3.8Zm4.3-3.5c-.5-1.1-1.8-2.5-3.6-1.6a2.9,2.9,0,0,0-1.2,3.9Z"
          style="fill: #fff" />
        <path
          d="M553.8,162.2a4.7,4.7,0,0,0,2.5-.4c1.2-.6,1.5-1.5,1.1-2.2s-1.1-1-2.5-.9-3.2-.3-3.7-1.4-.2-3.2,1.8-4.2a5,5,0,0,1,2.5-.5l.2,1.4a3.5,3.5,0,0,0-2.1.4c-1,.5-1.3,1.3-.9,2s1.1.8,2.5.7,3,.2,3.7,1.5.1,3.4-2,4.4a6.8,6.8,0,0,1-2.9.7Z"
          style="fill: #fff" />
        <path
          d="M558.5,147.4l1.3,2.6,2.4-1.2.6,1.3-2.4,1.2,2.4,4.9c.6,1.1,1.2,1.6,2.2,1.1l.9-.5.7,1.2a5.6,5.6,0,0,1-1.4.9,2.3,2.3,0,0,1-2.1.2,3.9,3.9,0,0,1-1.8-2.1l-2.5-4.9-1.4.7-.6-1.3,1.4-.7-1.1-2.2Z"
          style="fill: #fff" />
        <path
          d="M574.4,148.4c1.6,3.4,0,6-2.2,7.1s-5.2.3-6.7-2.6a4.9,4.9,0,0,1,2.2-7C570.3,144.6,573,145.6,574.4,148.4Zm-7.2,3.7c1,2,2.9,2.9,4.5,2.1s2-2.9,1-4.9-2.5-3.1-4.4-2.2S566.3,150.3,567.2,152.1Z"
          style="fill: #fff" />
        <path
          d="M577.7,150.4a4.7,4.7,0,0,0,2.5-.4c1.2-.6,1.5-1.5,1.1-2.2s-1.1-1-2.5-.9-3.2-.3-3.7-1.4-.1-3.2,1.8-4.2a5,5,0,0,1,2.5-.5l.2,1.4a3,3,0,0,0-2.1.4,1.5,1.5,0,0,0-.9,2c.4.7,1.1.8,2.5.7s3.1.2,3.7,1.5.1,3.4-2,4.4a6.8,6.8,0,0,1-2.9.7Z"
          style="fill: #fff" />
      </g>
    </g>
    <g class="hoverable" id="tasa" onclick="showInstrument('economicos', 'comando_y_control', 'tasa');">
      <path d="M484.3,319.5a354.3,354.3,0,0,0-9.5-42l230.7-66.3a622.3,622.3,0,0,1,15.6,69.1Z" style="fill: #d16bad" />
      <g>
        <path d="M535.6,278.9l-4.3.8-.2-1.6,10.3-1.8.2,1.5-4.2.8,2.2,12.4-1.8.3Z" style="fill: #fff" />
        <path
          d="M549.6,289.2l-.4-1.3h-.1a3.8,3.8,0,0,1-2.7,2.1,2.9,2.9,0,0,1-3.6-2.3c-.5-2.5,1.5-4.2,5.3-4.8v-.2a2.1,2.1,0,0,0-2.7-1.9,4.5,4.5,0,0,0-2.5,1.2l-.6-1.2a6.8,6.8,0,0,1,3.1-1.4c3.1-.6,4.2,1.4,4.6,3.4l.6,3.7q.3,1.3.6,2.4Zm-1.2-5.1c-2,.3-4.2,1.1-3.8,3a1.7,1.7,0,0,0,2,1.5,2.6,2.6,0,0,0,2.1-2.2v-.5Z"
          style="fill: #fff" />
        <path
          d="M553.4,286.6a6.4,6.4,0,0,0,2.5.3c1.4-.3,1.9-1.1,1.7-1.9s-.7-1.2-2.2-1.5-2.9-1.1-3.1-2.3.7-3.2,2.9-3.6a4.3,4.3,0,0,1,2.6.2l-.2,1.4a3.8,3.8,0,0,0-2.2-.2c-1.1.2-1.6.9-1.4,1.6s.8,1.1,2.2,1.4,2.9,1,3.1,2.5-.8,3.3-3.2,3.7a5.5,5.5,0,0,1-2.9-.2Z"
          style="fill: #fff" />
        <path
          d="M567.7,285.9l-.3-1.2h-.1a3.6,3.6,0,0,1-2.8,2,2.9,2.9,0,0,1-3.6-2.3c-.4-2.4,1.5-4.1,5.4-4.8v-.2a2.1,2.1,0,0,0-2.7-1.9,5,5,0,0,0-2.4,1.2l-.7-1.1a6.4,6.4,0,0,1,3.2-1.5c3-.6,4.1,1.4,4.5,3.4l.7,3.7a7.7,7.7,0,0,0,.6,2.4Zm-1.2-5c-2,.3-4.1,1-3.8,3a1.6,1.6,0,0,0,2,1.4,2.4,2.4,0,0,0,2.1-2.1.6.6,0,0,0,0-.6Z"
          style="fill: #fff" />
      </g>
    </g>
    <g class="hoverable" id="peajes" onclick="showInstrument('economicos', 'comando_y_control', 'peajes');">
      <path
        d="M725.9,446.6,487.2,421.1a378.1,378.1,0,0,0,2.2-39.9c0-1,0-2.1-.1-3.2l240-2.1c.1,1.8.1,3.6.1,5.3A620.1,620.1,0,0,1,725.9,446.6Z"
        style="fill: #d16bad" />
      <g>
        <path
          d="M544.3,391.7l3.6-.2a5.8,5.8,0,0,1,3.9,1.3,3.8,3.8,0,0,1,1.2,3,4.1,4.1,0,0,1-1.2,3,6.1,6.1,0,0,1-4.3,1.5l-1.5-.2v5.7H544Zm1.7,6.9,1.5.2c2.2,0,3.6-1,3.7-3s-1.3-2.8-3.3-2.8h-1.8Z"
          style="fill: #fff" />
        <path
          d="M555.8,401.2c0,2.5,1.5,3.6,3.4,3.6a6.9,6.9,0,0,0,2.8-.4l.3,1.3a8.6,8.6,0,0,1-3.4.6A4.8,4.8,0,0,1,554,401c.1-3,1.9-5.4,4.9-5.3s4.1,3,4.1,4.8-.1.7-.1.9Zm5.4-1.2a2.6,2.6,0,0,0-2.5-3c-1.9-.1-2.7,1.6-2.9,2.9Z"
          style="fill: #fff" />
        <path
          d="M570.8,406.3V405h-.1a3.9,3.9,0,0,1-3.1,1.5,3,3,0,0,1-3.1-3c.1-2.5,2.3-3.8,6.2-3.7v-.2a2.2,2.2,0,0,0-2.3-2.4,5.6,5.6,0,0,0-2.6.7l-.4-1.2a5.8,5.8,0,0,1,3.3-.8c3.2,0,3.9,2.2,3.8,4.2v3.8a9,9,0,0,0,.2,2.4Zm-.2-5.2c-2-.1-4.3.2-4.3,2.2a1.6,1.6,0,0,0,1.7,1.8,2.7,2.7,0,0,0,2.5-1.6c0-.2.1-.4.1-.6Z"
          style="fill: #fff" />
        <path
          d="M572.7,409.3a4,4,0,0,0,2.1-.7c.5-.6.7-1.4.7-3.9l.2-8.5h1.9l-.2,9.2c-.1,2-.4,3.2-1.3,4.2a4.4,4.4,0,0,1-3.2,1Zm5.1-15.9a1,1,0,0,1-1.1,1.1,1.1,1.1,0,0,1-1.2-1.1,1.2,1.2,0,0,1,1.3-1.1A1,1,0,0,1,577.8,393.4Z"
          style="fill: #fff" />
        <path
          d="M581.5,401.8a3.3,3.3,0,0,0,3.4,3.6,6.7,6.7,0,0,0,2.8-.5l.3,1.4a11,11,0,0,1-3.4.5c-3.1-.1-4.9-2.2-4.9-5.2s2-5.5,4.9-5.4,4.2,3,4.1,4.9c0,.4,0,.7-.1.8Zm5.4-1.2a2.6,2.6,0,0,0-2.5-3.1,3,3,0,0,0-2.8,3Z"
          style="fill: #fff" />
        <path
          d="M590.7,404.8a4.3,4.3,0,0,0,2.4.8c1.3.1,2-.6,2-1.4s-.5-1.4-1.8-1.9-2.7-1.8-2.7-3,1.4-2.9,3.6-2.9a4.6,4.6,0,0,1,2.5.7l-.5,1.3a4.4,4.4,0,0,0-2.1-.6c-1.1,0-1.7.6-1.7,1.3s.6,1.3,1.9,1.8,2.6,1.6,2.6,3.1-1.5,3-3.9,3a4.9,4.9,0,0,1-2.8-.8Z"
          style="fill: #fff" />
      </g>
    </g>
    <g class="hoverable" id="licencia_y_permisos" onclick="showInstrument('economicos', 'comando_y_control', 'licencia_y_permisos');">
      <path d="M689.5,598.7,465.2,513.3a382.6,382.6,0,0,0,12.9-41l232.7,58.8A638.4,638.4,0,0,1,689.5,598.7Z"
        style="fill: #d16bad" />
      <g>
        <path d="M526.6,502.5l1.4.5-3.4,9.7,4.7,1.6-.4,1.1-6.1-2.1Z" style="fill: #fff" />
        <path
          d="M530.4,516l2.7-7.8,1.4.5-2.7,7.8Zm5-9.4c-.1.5-.6.7-1.2.5a.8.8,0,0,1-.5-1.1.9.9,0,0,1,1.2-.6A.9.9,0,0,1,535.4,506.6Z"
          style="fill: #fff" />
        <path
          d="M539.8,518.9a4.4,4.4,0,0,1-2.4-.3c-2.4-.8-3.3-2.9-2.5-5.3a4.2,4.2,0,0,1,5.6-2.7,5.6,5.6,0,0,1,1.8,1.1l-.7,1a3.8,3.8,0,0,0-1.5-1,2.9,2.9,0,0,0-3.8,2,3,3,0,0,0,1.7,3.9,7.2,7.2,0,0,0,1.9.2Z"
          style="fill: #fff" />
        <path
          d="M543.3,516.4A2.6,2.6,0,0,0,545,520a5.5,5.5,0,0,0,2.3.4v1.1a8.4,8.4,0,0,1-2.8-.4,3.8,3.8,0,0,1-2.4-5.3c.8-2.3,2.8-3.7,5.1-2.9s2.4,3.3,1.9,4.8l-.3.6Zm4.5.4c.3-.9.4-2.4-1.2-2.9s-2.5.6-3,1.5Z"
          style="fill: #fff" />
        <path
          d="M551.2,516.9c.3-.8.5-1.5.7-2.1l1.3.4-.4,1.3h0a3,3,0,0,1,3.1-.5c1.1.3,2.5,1.6,1.6,4.2l-1.6,4.7-1.5-.5,1.6-4.5c.5-1.2.3-2.5-1-2.9a2.2,2.2,0,0,0-2.4.8,1.6,1.6,0,0,0-.3.6l-1.6,4.7-1.4-.5Z"
          style="fill: #fff" />
        <path
          d="M563.8,527.3a4.6,4.6,0,0,1-2.4-.3,3.9,3.9,0,0,1-2.5-5.3,4.2,4.2,0,0,1,5.6-2.7,6.3,6.3,0,0,1,1.9,1.1l-.7,1a4.4,4.4,0,0,0-1.6-1,3.1,3.1,0,0,0-2,5.9,6.9,6.9,0,0,0,1.8.2Z"
          style="fill: #fff" />
        <path
          d="M565.3,528.2l2.8-7.8,1.4.5-2.7,7.8Zm5.1-9.4a.9.9,0,0,1-1.2.5.9.9,0,0,1-.6-1.1.9.9,0,0,1,1.2-.6A.9.9,0,0,1,570.4,518.8Z"
          style="fill: #fff" />
        <path
          d="M573.4,531l.2-1h0a3.3,3.3,0,0,1-2.8.3,2.4,2.4,0,0,1-1.6-3.1c.7-1.8,2.7-2.3,5.7-1.2v-.2a1.6,1.6,0,0,0-1.1-2.4,4.1,4.1,0,0,0-2.2-.1v-1.1a5.5,5.5,0,0,1,2.8.2c2.4.9,2.4,2.7,1.8,4.2l-1,2.9a19.4,19.4,0,0,0-.5,2Zm1.2-4c-1.6-.6-3.4-.9-3.9.6a1.3,1.3,0,0,0,.8,1.8,2.3,2.3,0,0,0,2.4-.7.5.5,0,0,0,.2-.4Z"
          style="fill: #fff" />
        <path
          d="M583.5,525.8V531c0,.6-.1,1.2-.1,1.8h0l1.1-1.5,3.1-4,1.5.5-4,4.8c-2,2.3-3.1,3.5-4.4,3.9a4.8,4.8,0,0,1-2,.4v-1.4a2.7,2.7,0,0,0,1.5-.2,4.4,4.4,0,0,0,1.7-1.2l.3-.3v-.4l-.4-8.1Z"
          style="fill: #fff" />
        <path
          d="M595,526.6a13.5,13.5,0,0,1,2.7.7,5.1,5.1,0,0,1,2.8,1.9,3.3,3.3,0,0,1,.1,2.6,3.5,3.5,0,0,1-1.6,2.1,5,5,0,0,1-3.8,0l-1-.5-1.6,4.3-1.4-.5Zm-.4,5.7,1.1.5c1.7.6,3,.1,3.5-1.4s-.3-2.5-1.8-3l-1.4-.3Z"
          style="fill: #fff" />
        <path
          d="M601.4,536.7a2.6,2.6,0,0,0,1.7,3.6,5.5,5.5,0,0,0,2.3.4v1.1a8.7,8.7,0,0,1-2.8-.4c-2.4-.9-3.2-2.9-2.4-5.3s2.8-3.7,5.1-2.9,2.4,3.4,1.9,4.8a1.6,1.6,0,0,1-.3.6Zm4.5.5c.3-.9.4-2.5-1.2-3a2.4,2.4,0,0,0-2.9,1.5Z"
          style="fill: #fff" />
        <path
          d="M609.2,537.5a16.8,16.8,0,0,0,.8-2.4l1.3.4-.5,1.6h0a2.7,2.7,0,0,1,2.8-1l.4.2-.5,1.4-.5-.3a2.2,2.2,0,0,0-2.5,1.2l-.3.6-1.4,4.2-1.4-.5Z"
          style="fill: #fff" />
        <path
          d="M614.7,539.1c.2-.8.5-1.5.6-2.2l1.3.5-.4,1.3h0a2.8,2.8,0,0,1,3-.6,2.5,2.5,0,0,1,1.6,2.3h.1l1.2-.7a2.5,2.5,0,0,1,1.9.1c1,.3,2.3,1.5,1.4,4.2l-1.6,4.6-1.4-.5,1.5-4.4c.6-1.5.3-2.5-.8-2.9a1.7,1.7,0,0,0-2.1.7c-.2.1-.3.4-.4.6l-1.7,4.8-1.4-.5,1.7-4.6c.4-1.3.2-2.3-.9-2.7a2,2,0,0,0-2.2.8,2.1,2.1,0,0,0-.4.6l-1.6,4.7-1.4-.5Z"
          style="fill: #fff" />
        <path
          d="M626.1,549.4l2.7-7.8,1.4.5-2.7,7.8Zm5-9.4a.9.9,0,0,1-1.2.6.9.9,0,0,1-.5-1.2c.1-.5.6-.7,1.2-.6A.9.9,0,0,1,631.1,540Z"
          style="fill: #fff" />
        <path
          d="M630.1,549.2a4.3,4.3,0,0,0,1.7,1.2c1,.4,1.7,0,1.9-.6s0-1.2-.9-1.9-1.6-2-1.3-2.9,1.8-2,3.5-1.4a3.7,3.7,0,0,1,1.7,1.2l-.7.9a2.7,2.7,0,0,0-1.4-1c-.9-.3-1.5,0-1.7.6s.1,1.1,1,1.8,1.6,1.9,1.2,3-1.8,2-3.7,1.4a5,5,0,0,1-2-1.3Z"
          style="fill: #fff" />
        <path
          d="M644.6,551.5a4,4,0,0,1-5.3,2.7c-2.1-.7-3.2-2.8-2.3-5.3s3.1-3.5,5.2-2.7S645.4,549.1,644.6,551.5Zm-6.2-2.1c-.6,1.7-.1,3.3,1.3,3.8s2.8-.4,3.4-2.2.4-3.2-1.3-3.8S638.9,547.9,638.4,549.4Z"
          style="fill: #fff" />
        <path
          d="M645.3,554.5a3.7,3.7,0,0,0,1.7,1.2c1,.4,1.7,0,1.9-.6s-.1-1.2-1-1.9-1.6-2-1.2-2.9a2.4,2.4,0,0,1,3.4-1.4,5.1,5.1,0,0,1,1.8,1.2l-.7.9a3.6,3.6,0,0,0-1.5-1,1.1,1.1,0,0,0-1.6.6c-.3.6.1,1.1,1,1.8s1.6,1.9,1.2,3-1.9,2-3.7,1.4a4.4,4.4,0,0,1-2-1.3Z"
          style="fill: #fff" />
      </g>
    </g>
    <g class="hoverable" id="derechos_de_propiedad" onclick="showInstrument('economicos', 'comando_y_control', 'derechos_de_propiedad');">
      <path d="M657,669.9,445.4,556.5a353.3,353.3,0,0,0,18.1-39l223.3,88.2A633,633,0,0,1,657,669.9Z"
        style="fill: #d16bad" />
      <g>
        <path
          d="M506.8,553.1l3,1.2c1.8,1,3,2.1,3.4,3.4a5.4,5.4,0,0,1-.4,4.4,5.7,5.7,0,0,1-3.5,3.2,7,7,0,0,1-5.3-.8l-2.3-1.4Zm-3.2,9.7,1.2.7c2.9,1.5,5.2.7,6.6-2.1s.7-4.6-2.1-6l-1.6-.7Z"
          style="fill: #fff" />
        <path
          d="M514.3,565.3a2.6,2.6,0,0,0,1.2,3.8,6.7,6.7,0,0,0,2.2.7l-.2,1a6.4,6.4,0,0,1-2.7-.8c-2.3-1.1-2.8-3.3-1.7-5.5s3.3-3.3,5.4-2.2,2,3.7,1.3,5a1.5,1.5,0,0,1-.4.6Zm4.4,1a2.2,2.2,0,0,0-.8-3.1c-1.3-.7-2.5.3-3.1,1.1Z"
          style="fill: #fff" />
        <path
          d="M522,567.2l1.1-2.4,1.1.6-.7,1.5h.1a2.5,2.5,0,0,1,2.9-.5l.3.2-.6,1.2-.5-.2a2,2,0,0,0-2.6.8,1.5,1.5,0,0,0-.4.6l-2,3.9-1.3-.7Z"
          style="fill: #fff" />
        <path
          d="M526.7,571.6a2.6,2.6,0,0,0,1.2,3.8,6.1,6.1,0,0,0,2.2.7l-.2,1.1a7.7,7.7,0,0,1-2.7-.8,3.8,3.8,0,0,1-1.7-5.6c1.1-2.2,3.3-3.3,5.4-2.2a3.5,3.5,0,0,1,1.3,5l-.4.6Zm4.4,1a2.2,2.2,0,0,0-.8-3.1c-1.3-.7-2.5.3-3.1,1.2Z"
          style="fill: #fff" />
        <path
          d="M537.1,580.9a5.5,5.5,0,0,1-2.3-.6,3.9,3.9,0,0,1-1.7-5.6,4.1,4.1,0,0,1,5.9-1.9,3.7,3.7,0,0,1,1.6,1.3l-.8.9a3.1,3.1,0,0,0-1.3-1.2,2.9,2.9,0,0,0-4,1.5c-.9,1.7-.4,3.3,1.1,4a4.1,4.1,0,0,0,1.8.5Z"
          style="fill: #fff" />
        <path
          d="M544,571.2l1.4.7-2.4,4.6h.1a3.4,3.4,0,0,1,1.4-.5,3.2,3.2,0,0,1,1.6.4c.9.5,2.2,1.9.9,4.4l-2.2,4.4-1.3-.7,2.1-4.2c.6-1.2.7-2.4-.6-3.1a2.1,2.1,0,0,0-2.4.4l-.5.6-2.2,4.5-1.3-.7Z"
          style="fill: #fff" />
        <path
          d="M555.5,585.9c-1.4,2.7-3.9,3-5.6,2.1a4,4,0,0,1-1.6-5.6,3.9,3.9,0,0,1,5.6-2C556,581.4,556.6,583.7,555.5,585.9Zm-5.9-2.9c-.8,1.6-.5,3.3.8,4a2.9,2.9,0,0,0,3.7-1.7c.6-1.3.8-3.2-.8-4S550.3,581.6,549.6,583Z"
          style="fill: #fff" />
        <path
          d="M555.8,589.1a4.1,4.1,0,0,0,1.5,1.4,1.3,1.3,0,0,0,1.9-.4c.4-.6.2-1.2-.6-2s-1.4-2.2-.9-3.1,2-1.6,3.6-.8a3.6,3.6,0,0,1,1.6,1.3l-.8.8a3.8,3.8,0,0,0-1.3-1.2,1.3,1.3,0,0,0-1.8.4c-.3.6,0,1.1.8,2s1.4,2.1.8,3.2-2.1,1.6-3.9.8a5.7,5.7,0,0,1-1.8-1.6Z"
          style="fill: #fff" />
        <path
          d="M576.3,587.7l-4.5,8.9a10.7,10.7,0,0,0-.9,1.9l-1.2-.6.6-1.3h-.1a2.8,2.8,0,0,1-3.2.2c-1.8-.9-2.4-3.1-1.2-5.3s3.5-3.2,5.3-2.3a2.7,2.7,0,0,1,1.6,2.3h0L575,587Zm-4.6,5.7a1.1,1.1,0,0,0,.2-.6,2.1,2.1,0,0,0-1.1-2.5c-1.4-.7-2.8.1-3.7,1.7s-.6,3.1.8,3.8a2.2,2.2,0,0,0,2.8-.6l.3-.5Z"
          style="fill: #fff" />
        <path
          d="M575.5,596.5a2.7,2.7,0,0,0,1.2,3.9,6.1,6.1,0,0,0,2.2.6l-.2,1.1a6.4,6.4,0,0,1-2.7-.8,3.9,3.9,0,0,1-1.7-5.5c1.1-2.3,3.3-3.3,5.4-2.2s2,3.6,1.3,5l-.4.6Zm4.4,1.1c.4-.9.8-2.4-.7-3.1a2.5,2.5,0,0,0-3.2,1.1Z"
          style="fill: #fff" />
        <path
          d="M589,595l2.6,1.1a5.7,5.7,0,0,1,2.5,2.3,3.4,3.4,0,0,1-.2,2.6,4.1,4.1,0,0,1-1.9,1.8,4.6,4.6,0,0,1-3.7-.5l-1-.6-2.1,4.1-1.3-.7Zm-1.2,5.6,1,.7c1.6.8,3,.5,3.7-.9s.1-2.5-1.4-3.2a3.1,3.1,0,0,0-1.3-.5Z"
          style="fill: #fff" />
        <path
          d="M594.2,604l1.1-2.3,1.2.6-.7,1.5h0a2.7,2.7,0,0,1,2.9-.6l.3.3-.6,1.2a.5.5,0,0,0-.4-.2,2,2,0,0,0-2.7.8l-.4.5-2,3.9-1.3-.6Z"
          style="fill: #fff" />
        <path
          d="M605,611.2a4.1,4.1,0,0,1-5.7,2,3.8,3.8,0,0,1-1.6-5.5c1.3-2.5,3.6-3.1,5.6-2.1S606.1,608.9,605,611.2Zm-5.9-2.9c-.8,1.6-.5,3.3.8,3.9s2.8,0,3.7-1.7.8-3.1-.8-3.9S599.8,606.9,599.1,608.3Z"
          style="fill: #fff" />
        <path
          d="M607.3,610.8l1.1-2.4,1.2.6-.6,1.3h.1a3.2,3.2,0,0,1,3.3-.1c1.8.9,2.3,3.1,1.2,5.3s-3.6,3.2-5.3,2.3a3,3,0,0,1-1.7-2.3h0l-2.1,3.9-1.3-.6Zm.3,2.7a1.7,1.7,0,0,0-.2.5,2.2,2.2,0,0,0,1.2,2.6c1.4.7,2.8,0,3.6-1.7s.6-3.1-.8-3.8a2.2,2.2,0,0,0-2.8.6l-.4.5Z"
          style="fill: #fff" />
        <path
          d="M613.3,620.2l3.8-7.4,1.3.7-3.7,7.3Zm6.3-8.7a.8.8,0,0,1-1.2.4.8.8,0,0,1-.4-1.2.8.8,0,0,1,1.2-.4A.8.8,0,0,1,619.6,611.5Z"
          style="fill: #fff" />
        <path
          d="M619.4,618.9a2.7,2.7,0,0,0,1.2,3.9,5.6,5.6,0,0,0,2.2.6l-.2,1.1a6.4,6.4,0,0,1-2.7-.8,3.7,3.7,0,0,1-1.7-5.5c1.1-2.2,3.3-3.3,5.4-2.2s2,3.6,1.3,5l-.4.6Zm4.4,1.1c.4-.9.7-2.4-.8-3.1a2.4,2.4,0,0,0-3.1,1.1Z"
          style="fill: #fff" />
        <path
          d="M636.3,618.3l-4.5,8.9a10.7,10.7,0,0,0-.9,1.9l-1.2-.6.6-1.3h-.1a2.8,2.8,0,0,1-3.2.1c-1.8-.9-2.4-3.1-1.2-5.3s3.5-3.2,5.3-2.2a2.6,2.6,0,0,1,1.6,2.2h0l2.3-4.3Zm-4.6,5.8a1.4,1.4,0,0,0,.2-.6,2.2,2.2,0,0,0-1.1-2.6c-1.4-.7-2.8.1-3.7,1.7s-.6,3.1.8,3.9a2.5,2.5,0,0,0,2.8-.6l.3-.6Z"
          style="fill: #fff" />
        <path
          d="M637.1,632.3l.3-1h0a3.1,3.1,0,0,1-2.8-.1,2.3,2.3,0,0,1-1.2-3.2c.9-1.8,3-2,5.8-.5v-.2a1.7,1.7,0,0,0-.8-2.5,4.3,4.3,0,0,0-2.2-.4l.2-1.1a5.5,5.5,0,0,1,2.7.6c2.2,1.2,2,3,1.3,4.4l-1.4,2.8a5.5,5.5,0,0,0-.8,1.8Zm1.7-3.9c-1.5-.7-3.2-1.3-4,.1a1.4,1.4,0,0,0,.6,1.9,2,2,0,0,0,2.4-.3.5.5,0,0,0,.3-.4Z"
          style="fill: #fff" />
        <path
          d="M652.1,626.4l-4.5,8.9-.9,1.9-1.2-.6.6-1.3h0a3.2,3.2,0,0,1-3.3.1c-1.7-.9-2.3-3.1-1.2-5.3s3.5-3.2,5.3-2.3a2.7,2.7,0,0,1,1.6,2.3h.1l2.2-4.4Zm-4.6,5.7a3.3,3.3,0,0,0,.3-.6,2.3,2.3,0,0,0-1.2-2.5c-1.4-.7-2.8.1-3.6,1.7s-.7,3.1.8,3.8a2.2,2.2,0,0,0,2.7-.5,2.1,2.1,0,0,0,.4-.6Z"
          style="fill: #fff" />
      </g>
    </g>
    <g class="hoverable" id="tarifas" onclick="showInstrument('economicos', 'comando_y_control', 'tarifas');">
      <path d="M712.6,523.8,479.2,467.9a374.2,374.2,0,0,0,7.5-42.3L725,454A589.5,589.5,0,0,1,712.6,523.8Z"
        style="fill: #d16bad" />
      <g>
        <path d="M540.8,449.9l-3.4-.6.2-1.3,8.4,1.7-.3,1.2-3.4-.7-2,10-1.5-.3Z" style="fill: #fff" />
        <path
          d="M548.3,461.8v-1h0a3.4,3.4,0,0,1-2.7.7,2.3,2.3,0,0,1-2-2.8c.4-2,2.3-2.7,5.4-2.1h0a1.7,1.7,0,0,0-1.4-2.3,5.2,5.2,0,0,0-2.2.2l-.2-1a5.2,5.2,0,0,1,2.8-.2c2.5.5,2.7,2.3,2.4,3.9l-.6,3a15,15,0,0,0-.2,2Zm.6-4.1c-1.5-.4-3.4-.5-3.7,1.1a1.3,1.3,0,0,0,1.1,1.7,2.2,2.2,0,0,0,2.2-1c.1-.1.1-.3.2-.4Z"
          style="fill: #fff" />
        <path
          d="M553,457c.2-1,.3-1.8.4-2.6l1.3.3-.2,1.6h0a2.5,2.5,0,0,1,2.6-1.3h.4l-.2,1.4-.5-.2a2.2,2.2,0,0,0-2.4,1.5c-.1.2-.1.5-.2.7l-.8,4.3-1.5-.3Z"
          style="fill: #fff" />
        <path d="M557.4,463.6l1.6-8.1,1.5.3-1.6,8.1Zm3.7-10a.9.9,0,0,1-1.1.7.9.9,0,1,1,1.1-.7Z" style="fill: #fff" />
        <path
          d="M561.5,464.4l1.4-6.9-1.2-.3.3-1.1,1.1.3V456a3.5,3.5,0,0,1,1.5-2.7,2.6,2.6,0,0,1,2.1-.3,3.3,3.3,0,0,1,1.2.5l-.4,1-.9-.3c-1.3-.3-1.8.8-2.1,2v.4l2,.4-.2,1.1-2-.3-1.4,6.9Z"
          style="fill: #fff" />
        <path
          d="M570.7,466.2v-1h-.1a3.3,3.3,0,0,1-2.7.7,2.4,2.4,0,0,1-2-2.8c.4-2,2.3-2.7,5.4-2v-.2a1.7,1.7,0,0,0-1.5-2.2,4.1,4.1,0,0,0-2.2.1v-1a4.8,4.8,0,0,1,2.7-.2c2.5.5,2.8,2.3,2.5,3.9l-.6,3a7.5,7.5,0,0,0-.3,2Zm.6-4.1c-1.6-.4-3.5-.4-3.8,1.1a1.4,1.4,0,0,0,1.1,1.7,1.9,1.9,0,0,0,2.2-1,.8.8,0,0,0,.2-.4Z"
          style="fill: #fff" />
        <path
          d="M574.3,465.4a4.3,4.3,0,0,0,1.9,1,1.4,1.4,0,0,0,1.8-.9c.1-.7-.2-1.2-1.2-1.8s-1.9-1.7-1.7-2.7a2.4,2.4,0,0,1,3.2-1.8,3.4,3.4,0,0,1,1.9.9l-.6,1a2.4,2.4,0,0,0-1.5-.8c-.9-.2-1.5.2-1.6.8s.3,1.1,1.3,1.7,1.8,1.6,1.6,2.8-1.6,2.2-3.5,1.9a5.1,5.1,0,0,1-2.1-1Z"
          style="fill: #fff" />
      </g>
    </g>
  </g>
</svg>