<svg class="animate__animated" xmlns="http://www.w3.org/2000/svg" viewBox="0 0 734 543.3">
  <g>
    <g class="hoverable" onclick="returnToTypesInstrument()">
      <path
        d="M425,417.1,270.8,332.7A157.1,157.1,0,0,0,269,194.2l156-79.4a332.6,332.6,0,0,1,36,150.4C461,315.2,446.3,372.3,425,417.1Z"
        style="fill: #332c91" />
      <path
        d="M413.5,411.6,261,339c9.7-20.4,18.4-51.4,18.4-74.3a150.4,150.4,0,0,0-16.3-68.6l150.6-76.6a321.8,321.8,0,0,1,34.7,145.2C448.4,312.9,434.2,368.4,413.5,411.6Z"
        style="fill: #d16bad" />
      <g>
        <path d="M314.3,251.8h-6v5.6H315V259h-8.7V243.5h8.4v1.7h-6.4v4.9h6Z" style="fill: #fff" />
        <path
          d="M325.4,258.6a6.9,6.9,0,0,1-3.2.7c-3.4,0-5.5-2.3-5.5-5.7a5.6,5.6,0,0,1,5.9-5.9,6.1,6.1,0,0,1,2.8.6l-.4,1.5a4.8,4.8,0,0,0-2.4-.5c-2.5,0-3.9,1.9-3.9,4.2a3.9,3.9,0,0,0,3.9,4.2,5.4,5.4,0,0,0,2.5-.6Z"
          style="fill: #fff" />
        <path
          d="M337.7,253.4c0,4.1-2.8,5.9-5.5,5.9s-5.4-2.2-5.4-5.7,2.5-5.9,5.5-5.9S337.7,250,337.7,253.4Zm-8.8.1c0,2.4,1.4,4.3,3.4,4.3s3.3-1.8,3.3-4.3-.9-4.3-3.3-4.3S328.9,251.4,328.9,253.5Z"
          style="fill: #fff" />
        <path
          d="M340.3,250.9c0-1.1-.1-2.1-.1-3H342v1.9h0a4.2,4.2,0,0,1,3.7-2.1c1.5,0,3.9.9,3.9,4.7V259h-2v-6.4c0-1.8-.7-3.3-2.6-3.3a3,3,0,0,0-2.7,2.1,3.1,3.1,0,0,0-.1,1V259h-2Z"
          style="fill: #fff" />
        <path
          d="M363.1,253.4c0,4.1-2.9,5.9-5.5,5.9s-5.4-2.2-5.4-5.7,2.5-5.9,5.5-5.9S363.1,250,363.1,253.4Zm-8.8.1c0,2.4,1.4,4.3,3.3,4.3s3.4-1.8,3.4-4.3-.9-4.3-3.3-4.3S354.3,251.4,354.3,253.5Zm6.4-10.4-2.8,3.3h-1.5l2-3.3Z"
          style="fill: #fff" />
        <path
          d="M365.6,250.9v-3h1.7v1.8h.1a3.7,3.7,0,0,1,3.5-2,3.2,3.2,0,0,1,3.1,2.2h.1a6.1,6.1,0,0,1,1.2-1.5,3.9,3.9,0,0,1,2.5-.7c1.5,0,3.6.9,3.6,4.8V259h-1.9v-6.3c0-2.1-.8-3.4-2.5-3.4a2.6,2.6,0,0,0-2.3,1.9,2.5,2.5,0,0,0-.2,1V259h-2v-6.6c0-1.8-.8-3.1-2.3-3.1a2.7,2.7,0,0,0-2.5,2,3.6,3.6,0,0,0-.2,1V259h-2Z"
          style="fill: #fff" />
        <path
          d="M387.1,244.8a1.2,1.2,0,0,1-1.3,1.2,1.2,1.2,0,0,1-1.2-1.2,1.2,1.2,0,0,1,1.2-1.3A1.3,1.3,0,0,1,387.1,244.8ZM384.8,259V247.9h2.1V259Z"
          style="fill: #fff" />
        <path
          d="M398.1,258.6a6.7,6.7,0,0,1-3.1.7,5.3,5.3,0,0,1-5.6-5.7,5.7,5.7,0,0,1,6-5.9,6.5,6.5,0,0,1,2.8.6l-.5,1.5a4.4,4.4,0,0,0-2.3-.5c-2.6,0-3.9,1.9-3.9,4.2s1.6,4.2,3.8,4.2a5.1,5.1,0,0,0,2.5-.6Z"
          style="fill: #fff" />
        <path
          d="M410.4,253.4c0,4.1-2.8,5.9-5.5,5.9s-5.3-2.2-5.3-5.7,2.4-5.9,5.5-5.9S410.4,250,410.4,253.4Zm-8.8.1c0,2.4,1.4,4.3,3.4,4.3s3.4-1.8,3.4-4.3-1-4.3-3.4-4.3S401.6,251.4,401.6,253.5Z"
          style="fill: #fff" />
        <path
          d="M412.7,257a5.4,5.4,0,0,0,2.7.8c1.5,0,2.2-.8,2.2-1.7s-.6-1.5-2.1-2-3-1.8-3-3.2,1.5-3.2,3.9-3.2a5.1,5.1,0,0,1,2.7.7l-.5,1.4a4,4,0,0,0-2.3-.6c-1.2,0-1.8.7-1.8,1.5s.6,1.3,2.1,1.9,2.9,1.7,2.9,3.3-1.5,3.4-4.1,3.4a6.1,6.1,0,0,1-3.2-.8Z"
          style="fill: #fff" />
        <path
          d="M308.6,281c0,4.1-2.9,5.9-5.5,5.9s-5.4-2.2-5.4-5.7,2.5-5.9,5.5-5.9S308.6,277.6,308.6,281Zm-8.8.1c0,2.4,1.4,4.3,3.3,4.3s3.4-1.8,3.4-4.3-.9-4.3-3.3-4.3S299.8,279,299.8,281.1Z"
          style="fill: #fff" />
        <path
          d="M325.6,270.3v13.5c0,1,.1,2.1.1,2.8h-1.8v-1.9h0a4,4,0,0,1-3.8,2.2c-2.7,0-4.8-2.3-4.8-5.7s2.3-5.9,5-5.9a3.8,3.8,0,0,1,3.4,1.7h0v-6.7Zm-2,9.7a2.2,2.2,0,0,0-.1-.8,3,3,0,0,0-2.9-2.4c-2.1,0-3.3,1.9-3.3,4.3s1.1,4.2,3.3,4.2a3,3,0,0,0,2.9-2.5,1.9,1.9,0,0,0,.1-.8Z"
          style="fill: #fff" />
        <path
          d="M330.1,281.4c.1,2.8,1.8,3.9,3.8,3.9a6,6,0,0,0,3.1-.6l.4,1.5a9.6,9.6,0,0,1-3.7.7c-3.5,0-5.5-2.3-5.5-5.6s2-6,5.2-6,4.6,3.2,4.6,5.2a2.2,2.2,0,0,1-.1.9Zm6-1.4c0-1.3-.6-3.3-2.8-3.3s-3,1.9-3.2,3.3Z"
          style="fill: #fff" />
        <path
          d="M358.5,279.8c-.1-2.1-.2-4.7-.2-6.7h-.1a57.1,57.1,0,0,1-1.9,5.9l-2.8,7.6H352l-2.5-7.4c-.7-2.2-1.3-4.2-1.8-6.1h0c-.1,2-.2,4.6-.3,6.9l-.4,6.6h-1.9l1-15.5h2.6l2.6,7.5a50.9,50.9,0,0,1,1.6,5.3h.1c.4-1.6.9-3.3,1.6-5.3l2.8-7.5h2.5l1,15.5h-2Z"
          style="fill: #fff" />
        <path
          d="M365.2,281.4c0,2.8,1.7,3.9,3.8,3.9a6.6,6.6,0,0,0,3.1-.6l.3,1.5a9.2,9.2,0,0,1-3.7.7,5.2,5.2,0,0,1-5.5-5.6c0-3.4,2-6,5.2-6s4.6,3.2,4.6,5.2v.9Zm5.9-1.4c0-1.3-.5-3.3-2.8-3.3a3.3,3.3,0,0,0-3.1,3.3Z"
          style="fill: #fff" />
        <path
          d="M375.6,279c0-1.3-.1-2.5-.1-3.5h1.7v2.2h.1a3.3,3.3,0,0,1,3.1-2.4h.5v1.9h-.6a2.8,2.8,0,0,0-2.8,2.6v6.8h-2Z"
          style="fill: #fff" />
        <path
          d="M390.8,286.2a7.2,7.2,0,0,1-3.2.7,5.3,5.3,0,0,1-5.6-5.7,5.7,5.7,0,0,1,6-5.9,6.1,6.1,0,0,1,2.8.6l-.4,1.5a4.8,4.8,0,0,0-2.4-.5c-2.5,0-3.9,1.9-3.9,4.2s1.6,4.2,3.8,4.2a4.8,4.8,0,0,0,2.5-.6Z"
          style="fill: #fff" />
        <path
          d="M399.3,286.6l-.2-1.4h0a4,4,0,0,1-3.4,1.7,3.1,3.1,0,0,1-3.4-3.2c0-2.7,2.4-4.2,6.7-4.1v-.3a2.3,2.3,0,0,0-2.6-2.5,5.7,5.7,0,0,0-2.9.8l-.4-1.4a7.6,7.6,0,0,1,3.6-.9c3.4,0,4.3,2.3,4.3,4.5V284a20.9,20.9,0,0,0,.1,2.6ZM399,281c-2.2-.1-4.7.3-4.7,2.5a1.8,1.8,0,0,0,1.9,1.9,2.7,2.7,0,0,0,2.7-1.9,1.3,1.3,0,0,0,.1-.6Z"
          style="fill: #fff" />
        <path
          d="M413.8,270.3v13.5c0,1,.1,2.1.1,2.8h-1.8v-1.9h0a4,4,0,0,1-3.8,2.2c-2.7,0-4.8-2.3-4.8-5.7s2.3-5.9,5-5.9a3.8,3.8,0,0,1,3.4,1.7h0v-6.7Zm-2,9.7a2.2,2.2,0,0,0-.1-.8,3,3,0,0,0-2.9-2.4c-2.1,0-3.3,1.9-3.3,4.3s1.1,4.2,3.3,4.2a3,3,0,0,0,2.9-2.5,1.9,1.9,0,0,0,.1-.8Z"
          style="fill: #fff" />
        <path
          d="M427.3,281c0,4.1-2.9,5.9-5.6,5.9s-5.3-2.2-5.3-5.7,2.4-5.9,5.5-5.9S427.3,277.6,427.3,281Zm-8.9.1c0,2.4,1.4,4.3,3.4,4.3s3.4-1.8,3.4-4.3-.9-4.3-3.3-4.3S418.4,279,418.4,281.1Z"
          style="fill: #fff" />
      </g>
    </g>
    <g class="hoverable" onclick="returnToGroups();">
      <circle cx="127.5" cy="266.6" r="127" style="fill: none;stroke: #aab8bd;stroke-miterlimit: 10" />
      <circle cx="127.7" cy="264.7" r="105" style="fill: #bdc4c6" />
      <g>
        <path d="M73.1,266.5H67.7v4.2h6v2.1H65.1V258.5h8.3v2.2H67.7v3.7h5.4Z" style="fill: #112025" />
        <path
          d="M86.2,272.4a9.2,9.2,0,0,1-3.7.6c-4.5,0-7.2-2.8-7.2-7.2s3.2-7.5,7.6-7.5a10.5,10.5,0,0,1,3.5.6l-.6,2.1a7,7,0,0,0-2.8-.5c-2.9,0-5,1.8-5,5.2s1.8,5.2,5,5.2a7.7,7.7,0,0,0,2.8-.6Z"
          style="fill: #112025" />
        <path
          d="M100.6,265.5c0,4.8-2.9,7.5-6.9,7.5s-6.5-3-6.5-7.2,2.7-7.5,6.7-7.5S100.6,261.5,100.6,265.5Zm-10.7.2c0,2.9,1.5,5.2,4,5.2s3.9-2.3,3.9-5.3-1.3-5.2-3.9-5.2S89.9,262.8,89.9,265.7Z"
          style="fill: #112025" />
        <path
          d="M102.8,272.8V258.5h3l3.7,6.2a52.1,52.1,0,0,1,2.4,4.7h0c-.1-1.9-.2-3.7-.2-5.9v-5h2.4v14.3h-2.7l-3.7-6.3a45.9,45.9,0,0,1-2.6-4.9h0c.1,1.9.1,3.8.1,6.1v5.1Z"
          style="fill: #112025" />
        <path
          d="M129.8,265.5c0,4.8-2.9,7.5-6.9,7.5s-6.5-3-6.5-7.2,2.7-7.5,6.7-7.5S129.8,261.5,129.8,265.5Zm-10.7.2c0,2.9,1.5,5.2,4,5.2s3.9-2.3,3.9-5.3-1.3-5.2-3.9-5.2S119.1,262.8,119.1,265.7Zm7.4-10.5-2.7,2.5h-2l1.8-2.5Z"
          style="fill: #112025" />
        <path
          d="M144.1,267c-.1-1.9-.2-4.1-.2-6h-.1a43,43,0,0,1-1.7,5.5l-2,6.1H138l-1.9-6.1c-.5-1.8-1-3.7-1.4-5.5h0c-.1,1.9-.2,4.1-.3,6.1l-.3,5.7h-2.4l.9-14.3H136l1.9,5.8a44.3,44.3,0,0,1,1.3,4.9h.1c.4-1.5.8-3.3,1.4-4.9l2-5.8H146l.9,14.3h-2.6Z"
          style="fill: #112025" />
        <path d="M152.1,258.5v14.3h-2.6V258.5Z" style="fill: #112025" />
        <path
          d="M165.3,272.4a9,9,0,0,1-3.6.6c-4.6,0-7.3-2.8-7.3-7.2s3.2-7.5,7.6-7.5a10.5,10.5,0,0,1,3.5.6l-.6,2.1a7,7,0,0,0-2.8-.5c-2.9,0-5,1.8-5,5.2s1.8,5.2,5,5.2a7.7,7.7,0,0,0,2.8-.6Z"
          style="fill: #112025" />
        <path
          d="M179.7,265.5c0,4.8-2.9,7.5-6.9,7.5s-6.5-3-6.5-7.2,2.7-7.5,6.7-7.5S179.7,261.5,179.7,265.5Zm-10.7.2c0,2.9,1.5,5.2,4,5.2s3.9-2.3,3.9-5.3-1.3-5.2-3.9-5.2S169,262.8,169,265.7Z"
          style="fill: #112025" />
        <path
          d="M181.8,270a7.5,7.5,0,0,0,3.5.9c1.7,0,2.6-.8,2.6-2s-.7-1.7-2.5-2.3-3.9-2.1-3.9-4.2,2-4.1,5-4.1a7.7,7.7,0,0,1,3.5.7l-.7,2.1a5.6,5.6,0,0,0-2.8-.7c-1.7,0-2.4.9-2.4,1.8s.9,1.6,2.8,2.3,3.6,2.2,3.6,4.2-1.7,4.3-5.4,4.3a7.9,7.9,0,0,1-3.8-.9Z"
          style="fill: #112025" />
      </g>
    </g>
    <g class="hoverable" id="compensaciones_ambiental_o_patrimonial" onclick="showInstrument('economicos', 'economicos_o_de_mercado', 'compensaciones_ambiental_o_patrimonial');">
      <path d="M474.7,147.3a356,356,0,0,0-17.4-42.4L673.2,0a599.5,599.5,0,0,1,28.9,70.5Z" style="fill: #d16bad" />
      <g>
        <path
          d="M522.3,98.4a6.7,6.7,0,0,1-2.8,1.7,5.7,5.7,0,0,1-7.7-3.8,6,6,0,0,1,3.8-8.1,6.3,6.3,0,0,1,2.9-.5V89a5.9,5.9,0,0,0-2.5.4c-2.7.9-3.9,3.3-2.8,6.3s3.3,4,6.1,3a6.7,6.7,0,0,0,2.2-1.3Z"
          style="fill: #fff" />
        <path
          d="M530,91.4a4.3,4.3,0,0,1-2.5,5.8,4.1,4.1,0,0,1-5.5-2.8,4.3,4.3,0,0,1,2.5-5.8A4.2,4.2,0,0,1,530,91.4Zm-6.5,2.4c.7,1.8,2.2,2.8,3.6,2.3s2-2.2,1.4-4.1-1.8-2.9-3.6-2.3S522.9,92.3,523.5,93.8Z"
          style="fill: #fff" />
        <path
          d="M531.2,88.9c-.3-.8-.6-1.5-.8-2.2l1.3-.4.5,1.3h.1a2.8,2.8,0,0,1,2-2.4,2.6,2.6,0,0,1,2.9.8h0a3.5,3.5,0,0,1,.6-1.4,3,3,0,0,1,1.6-1.2c1.1-.4,2.9-.3,3.9,2.6l1.8,4.8-1.5.5L542,86.6c-.6-1.6-1.5-2.3-2.7-1.9a2,2,0,0,0-1.3,2,2.5,2.5,0,0,0,.1.8l1.9,5-1.5.6-1.8-4.9c-.4-1.4-1.3-2.1-2.5-1.7a2.2,2.2,0,0,0-1.3,2.2c0,.2.1.5.1.7l1.8,5-1.4.5Z"
          style="fill: #fff" />
        <path
          d="M545.5,84.3l-1-2.6,1.3-.5.6,1.4h0a3.5,3.5,0,0,1,2.4-2.7c2-.7,4.1.5,4.9,3s-.2,5-2.1,5.7a3.2,3.2,0,0,1-3-.4h0l1.6,4.5-1.5.5Zm2.3,1.7.3.6a2.4,2.4,0,0,0,2.8.9c1.6-.6,2.1-2.2,1.4-4s-2-2.8-3.6-2.2a2.3,2.3,0,0,0-1.5,2.6,1.7,1.7,0,0,0,.1.7Z"
          style="fill: #fff" />
        <path
          d="M556.6,82.3a2.8,2.8,0,0,0,3.8,1.8,5.5,5.5,0,0,0,2.1-1.2l.7,1a7.5,7.5,0,0,1-2.6,1.4,4,4,0,0,1-5.5-2.7c-.9-2.4-.1-4.9,2.3-5.8s4.2,1.2,4.8,2.7a6.4,6.4,0,0,0,.2.7Zm4-2.7a2.2,2.2,0,0,0-2.9-1.6c-1.6.5-1.7,2.1-1.5,3.2Z"
          style="fill: #fff" />
        <path
          d="M563.5,77.4a16.5,16.5,0,0,0-.9-2.2l1.3-.5.6,1.3h0a3.6,3.6,0,0,1,2.2-2.5c1.1-.4,3.2-.4,4.2,2.5l1.7,4.9-1.5.5-1.7-4.7c-.4-1.4-1.3-2.3-2.7-1.8a2.4,2.4,0,0,0-1.5,2.3,2.5,2.5,0,0,0,.2.7l1.7,4.9-1.5.6Z"
          style="fill: #fff" />
        <path
          d="M574.3,78.5a3.4,3.4,0,0,0,2.2-.1c1-.4,1.4-1.1,1.1-1.8s-.8-.9-2-.9-2.7-.6-3-1.6a2.6,2.6,0,0,1,1.9-3.4,4.5,4.5,0,0,1,2.2-.2v1.2a3.8,3.8,0,0,0-1.8.1c-.9.4-1.2,1-1,1.7s.9.8,2.1.8,2.6.5,3,1.7-.2,2.8-2.2,3.5a4.5,4.5,0,0,1-2.5.3Z"
          style="fill: #fff" />
        <path
          d="M586.3,76l-.5-1h-.1a3.2,3.2,0,0,1-2,2.1,2.5,2.5,0,0,1-3.4-1.4c-.7-2,.7-3.7,3.9-4.9h-.1a1.8,1.8,0,0,0-2.5-1.3,4.8,4.8,0,0,0-2,1.4L579,70a4.8,4.8,0,0,1,2.4-1.7c2.5-.9,3.7.6,4.3,2.2l1.1,3.1a18.2,18.2,0,0,0,.8,1.9Zm-1.7-4.1c-1.7.5-3.4,1.5-2.8,3.1a1.4,1.4,0,0,0,1.9.9,2.3,2.3,0,0,0,1.5-2.1,4.3,4.3,0,0,0-.1-.5Z"
          style="fill: #fff" />
        <path
          d="M595.7,72.3a7.8,7.8,0,0,1-2.2,1.3,4.1,4.1,0,0,1-5.6-2.7,4.5,4.5,0,0,1,2.8-6,7.2,7.2,0,0,1,2.3-.3v1.3a3.1,3.1,0,0,0-1.8.2c-1.9.7-2.4,2.4-1.8,4.2a2.9,2.9,0,0,0,3.9,2,3.8,3.8,0,0,0,1.7-1.1Z"
          style="fill: #fff" />
        <path
          d="M595.4,60.9a.9.9,0,0,1-.6,1.2.9.9,0,0,1-1.2-.6,1,1,0,0,1,.6-1.3A.9.9,0,0,1,595.4,60.9ZM597.5,72l-2.9-8.2,1.5-.6,2.9,8.2Z"
          style="fill: #fff" />
        <path
          d="M607.4,63.7a4.2,4.2,0,0,1-2.5,5.8c-2.2.8-4.5-.2-5.5-2.8s.3-5,2.5-5.8A4.2,4.2,0,0,1,607.4,63.7Zm-6.5,2.4c.7,1.8,2.2,2.8,3.6,2.3s2.1-2.2,1.4-4.1-1.8-2.9-3.6-2.3S600.4,64.6,600.9,66.1Z"
          style="fill: #fff" />
        <path
          d="M608.6,61.2c-.3-.8-.5-1.5-.8-2.2l1.3-.4.6,1.3h0a2.9,2.9,0,0,1,2.2-2.5c1.1-.5,3.1-.4,4.1,2.4l1.8,4.9-1.5.5-1.7-4.7c-.5-1.3-1.4-2.2-2.8-1.7a2,2,0,0,0-1.4,2.2,1.7,1.7,0,0,0,.1.7l1.8,5-1.5.5Z"
          style="fill: #fff" />
        <path
          d="M619.6,59.7a2.9,2.9,0,0,0,3.9,1.9,5.8,5.8,0,0,0,2.1-1.3l.6,1a7.3,7.3,0,0,1-2.5,1.5,4,4,0,0,1-5.5-2.7c-.9-2.5-.2-5,2.2-5.8s4.3,1.1,4.8,2.6a3.1,3.1,0,0,1,.2.8Zm4-2.6a2.2,2.2,0,0,0-2.9-1.7,2.5,2.5,0,0,0-1.4,3.2Z"
          style="fill: #fff" />
        <path
          d="M627.9,59.4a4.2,4.2,0,0,0,2.2-.2c1.1-.3,1.4-1.1,1.2-1.7s-.9-1-2.1-1-2.7-.6-3-1.6.2-2.7,2-3.4a4.3,4.3,0,0,1,2.2-.2v1.2a3.4,3.4,0,0,0-1.9.2c-.9.3-1.2,1-.9,1.6s.8.8,2,.8,2.6.5,3.1,1.7-.3,2.9-2.2,3.6a4.4,4.4,0,0,1-2.5.2Z"
          style="fill: #fff" />
        <path
          d="M522.3,117.8v4l-1.5.5-.2-12.8,1.7-.6,8,10-1.5.6-2.5-3.2Zm3.3-2.5-2.3-2.9-1.3-1.9h0c0,.7.1,1.5.1,2.3v3.7Z"
          style="fill: #fff" />
        <path
          d="M529.9,112.3l-.9-2.2,1.3-.4.6,1.3h0a3.1,3.1,0,0,1,2-2.5,2.6,2.6,0,0,1,2.9.8h.1a5.8,5.8,0,0,1,.5-1.4,3.4,3.4,0,0,1,1.6-1.2c1.1-.4,3-.2,4,2.6l1.7,4.8-1.4.6-1.7-4.7c-.6-1.6-1.5-2.3-2.7-1.9a2.2,2.2,0,0,0-1.3,2,3.1,3.1,0,0,0,.2.8l1.8,5.1-1.5.5-1.7-4.9c-.5-1.3-1.4-2.1-2.5-1.7a2.1,2.1,0,0,0-1.3,2.2,1.2,1.2,0,0,0,.1.8l1.8,4.9-1.5.5Z"
          style="fill: #fff" />
        <path
          d="M546.1,113.3l-.7-2.1-3.6-10,1.5-.5,1.9,5.2h0a3.2,3.2,0,0,1,2.2-2.6c2.1-.7,4.1.5,5,3s-.3,5-2.1,5.7a3.1,3.1,0,0,1-3.3-.6h-.1l.5,1.3Zm.3-3.8.3.5a2.5,2.5,0,0,0,2.9.9c1.5-.5,2-2.1,1.3-4s-1.9-2.8-3.5-2.2a2.5,2.5,0,0,0-1.6,2.6,2,2,0,0,0,.1.7Z"
          style="fill: #fff" />
        <path
          d="M553.7,98.7a1,1,0,0,1-.6,1.3,1,1,0,0,1-1.3-.6,1,1,0,0,1,.6-1.3A1,1,0,0,1,553.7,98.7Zm2.1,11.1-2.9-8.2,1.4-.5,3,8.2Z"
          style="fill: #fff" />
        <path
          d="M559.2,104.3c.8,2,2.4,2.4,3.8,1.8a7.2,7.2,0,0,0,2.2-1.2l.6,1a6.1,6.1,0,0,1-2.5,1.4,4.1,4.1,0,0,1-5.6-2.7c-.8-2.4-.1-4.9,2.3-5.8s4.2,1.2,4.8,2.7.1.6.2.7Zm4-2.7a2.2,2.2,0,0,0-2.9-1.6,2.7,2.7,0,0,0-1.5,3.2Z"
          style="fill: #fff" />
        <path
          d="M566.1,99.4a16.5,16.5,0,0,0-.9-2.2l1.4-.5.5,1.3h.1a3.2,3.2,0,0,1,2.1-2.5c1.2-.4,3.2-.3,4.2,2.5l1.7,4.9-1.5.5L572,98.7c-.4-1.4-1.3-2.3-2.7-1.8a2.4,2.4,0,0,0-1.5,2.3,2.5,2.5,0,0,0,.2.7l1.7,4.9-1.5.6Z"
          style="fill: #fff" />
        <path
          d="M575.6,90.8l.8,2.4,2.2-.8.4,1.1-2.2.8,1.6,4.4c.4,1.1.9,1.5,1.7,1.2l.8-.4.5,1.1-1.2.7a2.5,2.5,0,0,1-1.9-.1,2.9,2.9,0,0,1-1.3-1.9l-1.6-4.5-1.3.5-.4-1.1,1.3-.5-.7-2Z"
          style="fill: #fff" />
        <path
          d="M587.7,98.4l-.5-1h0a3.1,3.1,0,0,1-2.1,2.1,2.4,2.4,0,0,1-3.3-1.4c-.7-2,.6-3.7,3.8-4.8v-.2a1.8,1.8,0,0,0-2.6-1.2,3.8,3.8,0,0,0-1.9,1.3l-.7-.8a5.5,5.5,0,0,1,2.4-1.7c2.5-.9,3.8.6,4.4,2.2l1.1,3.1a8.4,8.4,0,0,0,.8,1.9ZM586,94.3c-1.6.5-3.4,1.5-2.8,3.1a1.4,1.4,0,0,0,1.9.9,2.2,2.2,0,0,0,1.5-2.1.9.9,0,0,0-.1-.5Z"
          style="fill: #fff" />
        <path d="M587.1,85.1l1.4-.6,4.3,12.1-1.4.5Z" style="fill: #fff" />
        <path
          d="M604.9,87.6a4.3,4.3,0,0,1-2.5,5.8,4.1,4.1,0,0,1-5.5-2.8,4.4,4.4,0,0,1,2.5-5.9C601.8,83.9,604,85,604.9,87.6ZM598.4,90c.6,1.8,2.2,2.7,3.6,2.2s2-2.2,1.4-4.1-1.8-2.9-3.6-2.2S597.8,88.4,598.4,90Z"
          style="fill: #fff" />
        <path
          d="M607.9,78.5a11.3,11.3,0,0,1,2.7-1.3,5.7,5.7,0,0,1,3.6-.2,3.2,3.2,0,0,1,1.8,2.1,3.2,3.2,0,0,1,0,2.7,5.1,5.1,0,0,1-3,2.5l-1.3.3,1.7,4.6-1.5.5Zm3.4,4.9,1.3-.3c1.7-.6,2.5-1.9,2-3.4s-1.9-1.9-3.5-1.3a3.8,3.8,0,0,0-1.4.6Z"
          style="fill: #fff" />
        <path
          d="M625,85.1l-.5-1h-.1a3.2,3.2,0,0,1-2,2.1,2.5,2.5,0,0,1-3.4-1.4c-.7-2,.7-3.7,3.8-4.9h0a1.9,1.9,0,0,0-2.6-1.3,5.2,5.2,0,0,0-1.9,1.4l-.7-.8a5.1,5.1,0,0,1,2.5-1.7c2.5-.9,3.7.6,4.3,2.2l1.1,3.1a8.4,8.4,0,0,0,.8,1.9ZM623.2,81c-1.6.5-3.3,1.5-2.8,3.1a1.6,1.6,0,0,0,2,.9,2.1,2.1,0,0,0,1.4-2.1v-.5Z"
          style="fill: #fff" />
        <path
          d="M626.5,72.6l.9,2.3,2.1-.7.4,1.1-2.1.8,1.6,4.4c.3,1,.8,1.5,1.7,1.2l.8-.4.5,1.1a5,5,0,0,1-1.3.7,2.2,2.2,0,0,1-1.8-.1,3.6,3.6,0,0,1-1.4-1.9l-1.6-4.5-1.2.5-.4-1.2,1.2-.4-.7-2Z"
          style="fill: #fff" />
        <path
          d="M632.1,76.1a18.6,18.6,0,0,0-1-2.5l1.3-.5.7,1.6h0a2.8,2.8,0,0,1,1.7-2.6h.4l.5,1.4h-.5a2.3,2.3,0,0,0-1.3,2.7c0,.2.1.4.1.7l1.6,4.4-1.5.5Z"
          style="fill: #fff" />
        <path d="M637.6,68.7a.9.9,0,0,1-.6,1.2.9.9,0,0,1-.6-1.8A.9.9,0,0,1,637.6,68.7Zm2.1,11.1-2.9-8.2,1.5-.6,2.9,8.3Z"
          style="fill: #fff" />
        <path
          d="M641.6,72.4a16.5,16.5,0,0,0-.9-2.2l1.3-.5.6,1.3h0a3.1,3.1,0,0,1,2-2.4,2.6,2.6,0,0,1,3,.8h0a3.8,3.8,0,0,1,.5-1.4,3,3,0,0,1,1.6-1.3c1.1-.3,3-.2,4,2.6l1.7,4.9-1.4.5L652.3,70c-.6-1.5-1.5-2.3-2.7-1.8a2.1,2.1,0,0,0-1.3,1.9,1.9,1.9,0,0,0,.2.8l1.8,5.1-1.5.5-1.7-4.9c-.5-1.3-1.4-2-2.5-1.6a1.9,1.9,0,0,0-1.3,2.1,1.1,1.1,0,0,0,.1.8l1.8,4.9-1.5.6Z"
          style="fill: #fff" />
        <path
          d="M663.8,66.5a4.3,4.3,0,0,1-2.5,5.8,4.1,4.1,0,0,1-5.5-2.8c-1-2.8.2-5,2.5-5.8S662.9,64,663.8,66.5Zm-6.5,2.4c.6,1.8,2.2,2.8,3.6,2.3s2-2.3,1.4-4.1-1.9-2.9-3.6-2.3S656.7,67.3,657.3,68.9Z"
          style="fill: #fff" />
        <path
          d="M665,64c-.3-.9-.6-1.5-.9-2.2l1.4-.5.5,1.4h.1a3.2,3.2,0,0,1,2.1-2.5c1.2-.4,3.2-.3,4.2,2.5l1.7,4.9-1.5.5-1.7-4.7c-.4-1.3-1.3-2.3-2.7-1.8a2.5,2.5,0,0,0-1.5,2.3,1.9,1.9,0,0,0,.2.7l1.7,4.9-1.5.6Z"
          style="fill: #fff" />
        <path d="M674.5,55.5a1,1,0,0,1-.7,1.3.9.9,0,0,1-1.2-.6,1,1,0,0,1,1.9-.7Zm2.1,11.1-3-8.2,1.5-.5,2.9,8.2Z"
          style="fill: #fff" />
        <path
          d="M685.1,63.6l-.5-1h-.1a3.2,3.2,0,0,1-2,2.1,2.5,2.5,0,0,1-3.4-1.4c-.7-2,.7-3.7,3.8-4.9h0a1.9,1.9,0,0,0-2.6-1.3,5.2,5.2,0,0,0-1.9,1.4l-.7-.9a5.2,5.2,0,0,1,2.5-1.6c2.5-.9,3.7.6,4.3,2.2l1.1,3.1a8.4,8.4,0,0,0,.8,1.9Zm-1.8-4.1c-1.6.5-3.3,1.5-2.8,3.1a1.5,1.5,0,0,0,1.9.9,2,2,0,0,0,1.5-2.1v-.5Z"
          style="fill: #fff" />
        <path d="M684.4,50.2l1.5-.5,4.3,12-1.5.6Z" style="fill: #fff" />
      </g>
    </g>
    <g class="hoverable" id="inversion_forzosa" onclick="showInstrument('economicos', 'economicos_o_de_mercado', 'inversion_forzosa');">
      <path d="M493.3,243.8v-.7a387.8,387.8,0,0,0-5.5-45.7l235.9-43.7a611.9,611.9,0,0,1,9.2,75.3v1Z"
        style="fill: #d16bad" />
      <g>
        <path d="M543.9,206.1l1,12.1h-1.5l-1.1-12.1Z" style="fill: #fff" />
        <path
          d="M547.2,211.6a15.7,15.7,0,0,0-.3-2.4h1.4l.3,1.4h0a3.6,3.6,0,0,1,2.7-1.9c1.2-.1,3.2.5,3.4,3.5l.5,5.1-1.6.2-.4-5c-.2-1.4-.8-2.5-2.3-2.4a2.3,2.3,0,0,0-2,1.8v.7l.5,5.3h-1.6Z"
          style="fill: #fff" />
        <path d="M557.3,208.3l2.2,4.7.9,2.2h0l.6-2.3,1.2-5,1.7-.2-2.7,9h-1.5l-4-8.3Z" style="fill: #fff" />
        <path
          d="M566.5,212.2a2.7,2.7,0,0,0,3.2,2.7,6.2,6.2,0,0,0,2.4-.7l.3,1.1a6.2,6.2,0,0,1-2.8.8c-2.7.3-4.4-1.3-4.6-4s1.1-4.8,3.6-5,3.8,2.2,4,3.8v.7Zm4.5-1.6c-.1-1-.6-2.5-2.4-2.4a2.7,2.7,0,0,0-2.2,2.8Z"
          style="fill: #fff" />
        <path
          d="M574.4,209.5q-.1-1.5-.3-2.7h1.4l.2,1.7h0a2.6,2.6,0,0,1,2.3-2.1c.2-.1.3,0,.4,0l.2,1.5a.6.6,0,0,0-.6,0,2.2,2.2,0,0,0-1.9,2.2v.7l.4,4.6-1.6.2Z"
          style="fill: #fff" />
        <path
          d="M580.4,213.4a4.8,4.8,0,0,0,2.2.4c1.1-.1,1.6-.7,1.5-1.4s-.5-1.2-1.7-1.5-2.4-1.2-2.5-2.2.9-2.7,2.7-2.9a6.2,6.2,0,0,1,2.2.4l-.3,1.2a3.7,3.7,0,0,0-1.8-.4c-.9.1-1.4.7-1.3,1.3s.6,1,1.7,1.4,2.4,1.1,2.6,2.4-1,2.7-3.1,2.9a4.5,4.5,0,0,1-2.4-.4Z"
          style="fill: #fff" />
        <path
          d="M588.7,203.1a.9.9,0,0,1-1,1c-.5.1-.9-.3-1-.9a.9.9,0,0,1,.9-1A.9.9,0,0,1,588.7,203.1Zm-.8,11.2-.8-8.7h1.6l.8,8.7Z"
          style="fill: #fff" />
        <path
          d="M599.6,208.8a4.4,4.4,0,0,1-4,5,4.1,4.1,0,0,1-4.5-4.1,4.3,4.3,0,0,1,3.9-5C597.5,204.5,599.3,206.2,599.6,208.8Zm-6.9.7c.1,1.9,1.4,3.3,2.9,3.1s2.5-1.6,2.3-3.6-1-3.2-2.9-3.1S592.5,207.9,592.7,209.5ZM597,201l-2,2.8h-1.1l1.3-2.8Z"
          style="fill: #fff" />
        <path
          d="M601.4,206.7c-.1-.9-.2-1.6-.3-2.3h1.4l.2,1.4h0a3.2,3.2,0,0,1,2.8-1.9c1.2-.1,3.1.5,3.4,3.4l.4,5.2-1.6.2-.4-5c-.1-1.4-.7-2.6-2.2-2.4a2.2,2.2,0,0,0-2,1.8,1.5,1.5,0,0,0-.1.7l.5,5.2-1.6.2Z"
          style="fill: #fff" />
        <path d="M614.7,199.8l6.5-.6v1.3l-5,.4.4,4,4.6-.4v1.3l-4.6.4.5,5.5h-1.6Z" style="fill: #fff" />
        <path
          d="M631.3,206a4.3,4.3,0,0,1-3.9,5,4.1,4.1,0,0,1-4.5-4.1c-.3-2.9,1.4-4.8,3.8-5A4.2,4.2,0,0,1,631.3,206Zm-6.9.7c.2,1.9,1.4,3.2,3,3.1s2.5-1.6,2.3-3.6-1-3.3-2.9-3.1S624.3,205.1,624.4,206.7Z"
          style="fill: #fff" />
        <path
          d="M633.2,204.3c-.1-1.1-.2-1.9-.3-2.7l1.3-.2.2,1.7h.1a2.6,2.6,0,0,1,2.3-2.1h.4v1.5h-.5a2.2,2.2,0,0,0-1.9,2.2,1.1,1.1,0,0,0,0,.8l.4,4.6h-1.6Z"
          style="fill: #fff" />
        <path d="M638.7,208.9l3.4-5.5,1-1.4h0l-4.7.5v-1.3l6.6-.6v1l-3.4,5.4-1,1.4h0l5.1-.5v1.3l-7.1.6Z"
          style="fill: #fff" />
        <path
          d="M654.7,203.9a4.3,4.3,0,0,1-3.9,5,4.1,4.1,0,0,1-4.5-4.1,4.2,4.2,0,0,1,3.9-5A4.1,4.1,0,0,1,654.7,203.9Zm-6.8.7c.1,1.9,1.4,3.3,2.9,3.1s2.5-1.6,2.3-3.6-1-3.3-2.9-3.1S647.7,203,647.9,204.6Z"
          style="fill: #fff" />
        <path
          d="M656.8,206.6a4.4,4.4,0,0,0,2.1.4c1.1-.1,1.6-.7,1.6-1.4s-.6-1.2-1.8-1.5-2.4-1.2-2.5-2.2A2.8,2.8,0,0,1,659,199a4.4,4.4,0,0,1,2.1.4l-.2,1.2a4.5,4.5,0,0,0-1.9-.4c-.9.1-1.4.7-1.3,1.3s.6,1,1.8,1.4,2.4,1.1,2.5,2.4-1,2.7-3,2.9a4.7,4.7,0,0,1-2.5-.4Z"
          style="fill: #fff" />
        <path
          d="M669,207.1l-.2-1.1h-.1a3.2,3.2,0,0,1-2.5,1.5,2.5,2.5,0,0,1-2.9-2.2c-.2-2.1,1.6-3.4,5-3.7v-.2a1.7,1.7,0,0,0-2.1-1.8,4.2,4.2,0,0,0-2.2.8l-.5-1a5.8,5.8,0,0,1,2.8-1c2.7-.2,3.5,1.5,3.6,3.2l.3,3.3a13,13,0,0,0,.4,2.1Zm-.6-4.4c-1.7.1-3.7.6-3.5,2.3a1.3,1.3,0,0,0,1.6,1.3,2.2,2.2,0,0,0,2-1.6v-2Z"
          style="fill: #fff" />
      </g>
    </g>
    <g class="hoverable" id="subsidios" onclick="showInstrument('economicos', 'economicos_o_de_mercado', 'subsidios');">
      <path d="M487.2,194.5a375.8,375.8,0,0,0-11.5-44.4l228-74.9a602.6,602.6,0,0,1,19.1,73.6Z" style="fill: #d16bad" />
      <g>
        <path
          d="M534.9,162.3a5.9,5.9,0,0,0,3,.2c1.5-.4,2.2-1.5,1.9-2.6s-1-1.6-2.7-1.9-3.6-.9-4-2.6.8-3.5,3.1-4.1a4.8,4.8,0,0,1,2.7,0v1.3a4.7,4.7,0,0,0-2.4,0,2,2,0,0,0-1.8,2.3c.3,1.1,1.2,1.5,2.9,1.7s3.5,1,3.9,2.8-.6,3.7-3.3,4.3a5.7,5.7,0,0,1-3.2,0Z"
          style="fill: #fff" />
        <path
          d="M550.7,158.1c.2.9.4,1.6.6,2.3l-1.3.3-.4-1.4h-.1a3.3,3.3,0,0,1-2.4,2.2c-1.3.3-3.1,0-3.8-3l-1.2-5,1.5-.3,1.2,4.7c.3,1.6,1.1,2.5,2.5,2.2a2.2,2.2,0,0,0,1.7-1.9,2.5,2.5,0,0,0-.1-.8l-1.2-5.2,1.5-.4Z"
          style="fill: #fff" />
        <path
          d="M553.8,159.8c-.2-.6-.3-1.4-.5-2.2l-2.4-10.2,1.5-.4,1.2,5.3h.1a3,3,0,0,1,2.5-2.2c2.1-.5,4,.9,4.6,3.4s-.8,5-2.7,5.5a3.2,3.2,0,0,1-3.2-.9h-.1l.3,1.4Zm.7-3.8a1.4,1.4,0,0,1,.2.6,2.5,2.5,0,0,0,2.8,1.2c1.6-.4,2.2-1.9,1.8-3.8s-1.7-3-3.3-2.6a2.6,2.6,0,0,0-1.9,2.5,1.5,1.5,0,0,0,.1.6Z"
          style="fill: #fff" />
        <path
          d="M563.2,155.9a4,4,0,0,0,2.2.1c1.1-.3,1.5-.9,1.3-1.6s-.7-1.1-1.9-1.2-2.6-.9-2.8-1.9.5-2.7,2.3-3.2a4,4,0,0,1,2.2.1v1.2a2.9,2.9,0,0,0-1.9-.1c-.9.2-1.3.9-1.1,1.5s.7.9,1.9,1,2.6.8,2.9,2.1-.6,2.8-2.6,3.3a5.3,5.3,0,0,1-2.5,0Z"
          style="fill: #fff" />
        <path
          d="M569.8,144.5a.9.9,0,0,1-.7,1.2,1,1,0,0,1-1.2-.8,1.1,1.1,0,0,1,.8-1.2A.9.9,0,0,1,569.8,144.5Zm.9,11.3-2-8.5,1.5-.4,2.1,8.5Z"
          style="fill: #fff" />
        <path
          d="M579.2,140.6l2.4,10.2c.2.8.4,1.6.6,2.2l-1.4.3-.4-1.4h0a3.1,3.1,0,0,1-2.5,2.3c-2.1.5-4.1-.8-4.7-3.4s.7-5,2.7-5.5a3,3,0,0,1,2.9.7h0l-1.2-5Zm.2,7.8c-.1-.2-.1-.5-.2-.7a2.4,2.4,0,0,0-2.7-1.2c-1.6.4-2.2,2-1.7,3.9s1.5,2.9,3.2,2.5a2.4,2.4,0,0,0,1.8-2.4,2,2,0,0,0-.1-.7Z"
          style="fill: #fff" />
        <path
          d="M583.8,141.1a.9.9,0,0,1-.7,1.2.9.9,0,0,1-1.2-.7,1,1,0,0,1,.7-1.2A1,1,0,0,1,583.8,141.1Zm.9,11.3-2-8.5,1.5-.3,2,8.4Z"
          style="fill: #fff" />
        <path
          d="M595.4,145.3a4.2,4.2,0,0,1-3.1,5.5c-2.3.6-4.5-.7-5.1-3.4a4.3,4.3,0,0,1,3.1-5.5C592.7,141.3,594.8,142.7,595.4,145.3Zm-6.7,1.7c.5,1.8,1.9,3,3.4,2.6s2.2-2,1.8-3.9-1.5-3.1-3.4-2.6S588.3,145.4,588.7,147Z"
          style="fill: #fff" />
        <path
          d="M597.8,147.6a4,4,0,0,0,2.2.1c1.1-.2,1.5-.9,1.3-1.6s-.7-1-1.9-1.2-2.6-.8-2.8-1.9.5-2.7,2.3-3.1a4,4,0,0,1,2.2,0v1.2a3.7,3.7,0,0,0-1.9-.1c-.9.2-1.3.9-1.1,1.5s.7.9,1.9,1.1,2.6.7,2.9,2-.6,2.8-2.6,3.3a5.3,5.3,0,0,1-2.5,0Z"
          style="fill: #fff" />
      </g>
    </g>
    <g class="hoverable" id="certificacion_de_incentivo_forestal" onclick="showInstrument('economicos', 'economicos_o_de_mercado', 'certificacion_de_incentivo_forestal');">
      <path
        d="M732.2,310.9,492.9,292.8c.7-9.1,1.1-18.4,1.1-27.6,0-6.1-.2-12.3-.5-18.4L733.2,235c.5,10,.8,20.2.8,30.2C734,280.4,733.4,295.8,732.2,310.9Z"
        style="fill: #d16bad" />
      <g>
        <path
          d="M552.3,266.1a7.8,7.8,0,0,1-3.2.5,5.7,5.7,0,0,1-5.9-6.3,6,6,0,0,1,6.5-6.2,6.6,6.6,0,0,1,2.9.6l-.4,1.3a5.7,5.7,0,0,0-2.5-.6c-2.8,0-4.7,1.7-4.8,4.9s1.6,4.9,4.5,5a6.3,6.3,0,0,0,2.6-.5Z"
          style="fill: #fff" />
        <path
          d="M555,262.5a2.8,2.8,0,0,0,2.9,3.1,7,7,0,0,0,2.4-.4l.3,1.1a6.9,6.9,0,0,1-2.9.5,4.1,4.1,0,0,1-4.2-4.5c0-2.6,1.6-4.7,4.2-4.6s3.5,2.6,3.5,4.2a5.6,5.6,0,0,1-.1.7Zm4.6-1.1a2.2,2.2,0,0,0-2.1-2.6c-1.6,0-2.3,1.5-2.5,2.5Z"
          style="fill: #fff" />
        <path
          d="M563.2,260.7a22.6,22.6,0,0,0-.1-2.7h1.4v1.8h.1a2.6,2.6,0,0,1,2.5-1.9h.4v1.5h-.6a2.2,2.2,0,0,0-2.1,2,1.5,1.5,0,0,0-.1.7v4.7H563Z"
          style="fill: #fff" />
        <path
          d="M571.5,255.7v2.5h2.3v1.2h-2.3v4.7c0,1.1.3,1.7,1.2,1.7h.9v1.2l-1.4.2a2.4,2.4,0,0,1-1.7-.7,3.2,3.2,0,0,1-.5-2.3v-4.7h-1.4v-1.2h1.4v-2.1Z"
          style="fill: #fff" />
        <path
          d="M575.3,267l.2-8.7h1.6l-.2,8.7Zm2-11.1a.9.9,0,0,1-1,.9.9.9,0,0,1-1-1,.9.9,0,0,1,1-.9A.9.9,0,0,1,577.3,255.9Z"
          style="fill: #fff" />
        <path
          d="M579.7,267.1v-7.5h-1.2v-1.3h1.3v-.5a3.4,3.4,0,0,1,3.8-3.7,4.1,4.1,0,0,1,2.2.6l-.4,1.2a3.3,3.3,0,0,0-1.9-.5c-1.6-.1-2.1,1.1-2.2,2.5v.4h5.1l-.2,8.7h-1.6l.2-7.5h-3.5l-.2,7.5Z"
          style="fill: #fff" />
        <path
          d="M595.1,267.1a4.9,4.9,0,0,1-2.5.4,4,4,0,0,1-4.2-4.5,4.3,4.3,0,0,1,4.8-4.5,4.9,4.9,0,0,1,2.1.5l-.3,1.2a5.6,5.6,0,0,0-1.9-.5A3,3,0,0,0,590,263a2.9,2.9,0,0,0,2.9,3.3,5,5,0,0,0,2-.4Z"
          style="fill: #fff" />
        <path
          d="M601.8,267.6v-1.1h-.1a3.4,3.4,0,0,1-2.6,1.2,2.5,2.5,0,0,1-2.7-2.6c.1-2.1,2-3.2,5.4-3.1v-.2a1.8,1.8,0,0,0-2-2,4.6,4.6,0,0,0-2.3.6l-.3-1.1a6.2,6.2,0,0,1,2.9-.7c2.6.1,3.3,1.9,3.2,3.6v3.3a13.4,13.4,0,0,0,.1,2.1Zm-.1-4.5c-1.8-.1-3.7.2-3.8,1.9a1.4,1.4,0,0,0,1.5,1.5,1.9,1.9,0,0,0,2.1-1.4.7.7,0,0,0,.1-.5Z"
          style="fill: #fff" />
        <path
          d="M611.9,267.5a6.7,6.7,0,0,1-2.5.4,4.2,4.2,0,0,1-4.3-4.5,4.6,4.6,0,0,1,4.8-4.6,8,8,0,0,1,2.2.5l-.4,1.3a3,3,0,0,0-1.8-.5,3.3,3.3,0,0,0-.2,6.6,6.1,6.1,0,0,0,1.9-.4Z"
          style="fill: #fff" />
        <path
          d="M613.7,267.8l.2-8.7h1.6l-.2,8.8Zm2-11.1a.9.9,0,0,1-1,.9c-.6,0-1-.4-.9-.9a.9.9,0,0,1,1-1C615.4,255.7,615.7,256.1,615.7,256.7Z"
          style="fill: #fff" />
        <path
          d="M625.9,263.7a4.3,4.3,0,0,1-4.4,4.5,4.1,4.1,0,0,1-4.1-4.6c.1-2.9,2-4.6,4.4-4.5S626,261,625.9,263.7Zm-6.9-.1c0,1.9,1,3.4,2.6,3.4s2.6-1.4,2.7-3.3-.7-3.4-2.6-3.4S619,261.9,619,263.6Zm5.2-8-2.3,2.5h-1.1l1.6-2.6Z"
          style="fill: #fff" />
        <path
          d="M627.9,261.8a9.6,9.6,0,0,0,0-2.4h1.4v1.5h0a3.4,3.4,0,0,1,2.9-1.6c1.2,0,3.1.8,3,3.8v5.2h-1.6v-5c.1-1.4-.4-2.6-1.9-2.6a2.3,2.3,0,0,0-2.2,1.6c0,.2-.1.4-.1.7v5.3h-1.6Z"
          style="fill: #fff" />
        <path
          d="M649.4,255.8l-.2,10.5v2.3h-1.4V267h0a3.3,3.3,0,0,1-3,1.7c-2.1-.1-3.7-1.9-3.6-4.5s1.9-4.7,4-4.6a2.9,2.9,0,0,1,2.6,1.4h0v-5.2Zm-1.7,7.6a1.7,1.7,0,0,0-.1-.7,2.5,2.5,0,0,0-2.2-1.9c-1.7,0-2.7,1.4-2.7,3.3s.8,3.3,2.5,3.3a2.3,2.3,0,0,0,2.3-1.8,1.7,1.7,0,0,0,.1-.7Z"
          style="fill: #fff" />
        <path
          d="M652.7,264.6a2.9,2.9,0,0,0,3,3.1,7,7,0,0,0,2.4-.4l.2,1.1a6.2,6.2,0,0,1-2.9.5,4.1,4.1,0,0,1-4.2-4.5c.1-2.6,1.7-4.7,4.2-4.6s3.6,2.6,3.5,4.2,0,.6-.1.7Zm4.7-1c0-1.1-.4-2.6-2.1-2.7a2.7,2.7,0,0,0-2.5,2.6Z"
          style="fill: #fff" />
        <path d="M545.2,275.8l-.3,12.1h-1.5l.2-12.1Z" style="fill: #fff" />
        <path
          d="M547.9,281.6v-2.3h1.4v1.5h0a3.1,3.1,0,0,1,2.9-1.6c1.2,0,3.1.8,3,3.8v5.2h-1.6v-5c.1-1.4-.4-2.6-1.9-2.6a2.3,2.3,0,0,0-2.2,1.6,1.5,1.5,0,0,0-.1.7V288h-1.6Z"
          style="fill: #fff" />
        <path
          d="M564,288a6.3,6.3,0,0,1-2.5.5,4.2,4.2,0,0,1-4.3-4.6,4.5,4.5,0,0,1,4.8-4.5,5.5,5.5,0,0,1,2.2.5l-.4,1.2a4,4,0,0,0-1.8-.4c-2-.1-3.1,1.4-3.2,3.2a3,3,0,0,0,3,3.3,4.1,4.1,0,0,0,1.9-.4Z"
          style="fill: #fff" />
        <path
          d="M566.7,284.3c0,2.2,1.3,3.1,2.9,3.1a4,4,0,0,0,2.4-.4l.3,1.2a6.8,6.8,0,0,1-2.9.4,3.9,3.9,0,0,1-4.2-4.4c0-2.7,1.6-4.7,4.2-4.6s3.5,2.5,3.5,4.1-.1.6-.1.8Zm4.7-1c0-1-.4-2.6-2.2-2.6s-2.3,1.4-2.5,2.5Z"
          style="fill: #fff" />
        <path
          d="M574.9,282.2v-2.3h1.4v1.4h.1a2.9,2.9,0,0,1,2.9-1.5c1.2,0,3,.8,3,3.7v5.2h-1.6v-5c0-1.4-.5-2.6-2-2.6a2.1,2.1,0,0,0-2.1,1.5,1.9,1.9,0,0,0-.2.8v5.2h-1.6Z"
          style="fill: #fff" />
        <path
          d="M586.8,277.6v2.5H589v1.2h-2.3V286c0,1.1.3,1.7,1.2,1.7a2.6,2.6,0,0,0,.9,0v1.1a2.8,2.8,0,0,1-1.4.2,2.1,2.1,0,0,1-1.7-.7,3.3,3.3,0,0,1-.5-2.2v-4.8h-1.4v-1.2h1.3V278Z"
          style="fill: #fff" />
        <path
          d="M590.6,288.9l.2-8.7h1.6l-.2,8.8Zm2-11.1a1,1,0,0,1-1,1c-.6-.1-1-.5-.9-1a.9.9,0,0,1,1-1C592.3,276.8,592.6,277.2,592.6,277.8Z"
          style="fill: #fff" />
        <path d="M595.6,280.3l1.6,4.9c.3.8.5,1.6.7,2.3h0c.2-.7.5-1.4.8-2.2l1.8-4.9h1.7l-3.6,8.6h-1.5l-3.2-8.8Z"
          style="fill: #fff" />
        <path
          d="M611.3,284.9a4.4,4.4,0,0,1-4.5,4.6,4.1,4.1,0,0,1-4-4.6,4.2,4.2,0,0,1,4.4-4.5C609.7,280.4,611.3,282.3,611.3,284.9Zm-6.9,0c-.1,1.9,1,3.4,2.5,3.4s2.7-1.4,2.8-3.3-.7-3.4-2.6-3.4S604.4,283.2,604.4,284.9Z"
          style="fill: #fff" />
        <path d="M617.3,277.4h6.5v1.3h-5v4h4.6v1.3h-4.6v5.5H617Z" style="fill: #fff" />
        <path
          d="M633.2,285.4a4.3,4.3,0,0,1-4.5,4.5,4,4,0,0,1-4-4.5,4.3,4.3,0,0,1,4.4-4.6C631.6,280.9,633.2,282.7,633.2,285.4Zm-6.9,0c-.1,1.9,1,3.3,2.5,3.4s2.7-1.4,2.8-3.4-.7-3.3-2.6-3.4S626.3,283.7,626.3,285.4Z"
          style="fill: #fff" />
        <path
          d="M635.2,283.9v-2.7h1.4v1.7h.1a2.5,2.5,0,0,1,2.4-1.8h.5v1.5H639a2.2,2.2,0,0,0-2.2,1.9,2.2,2.2,0,0,1-.1.8v4.6h-1.5Z"
          style="fill: #fff" />
        <path
          d="M641.8,286a2.7,2.7,0,0,0,2.9,3,4.2,4.2,0,0,0,2.4-.4l.2,1.2a7.9,7.9,0,0,1-2.9.5,4.2,4.2,0,0,1-4.2-4.5c.1-2.6,1.7-4.7,4.2-4.6s3.6,2.6,3.5,4.2v.7Zm4.6-1.1a2.2,2.2,0,0,0-2.1-2.6,2.6,2.6,0,0,0-2.5,2.5Z"
          style="fill: #fff" />
        <path
          d="M649.6,288.6a5.8,5.8,0,0,0,2.1.7c1.1,0,1.7-.6,1.7-1.3s-.4-1.2-1.6-1.6-2.2-1.5-2.2-2.6,1.2-2.5,3-2.5a5.8,5.8,0,0,1,2.2.6l-.5,1.2a4.1,4.1,0,0,0-1.7-.6c-1,0-1.5.5-1.5,1.2s.5,1,1.6,1.5,2.3,1.4,2.2,2.7-1.2,2.6-3.3,2.5a5.7,5.7,0,0,1-2.4-.6Z"
          style="fill: #fff" />
        <path
          d="M659.1,279.2v2.5h2.3v1.2H659v4.7c0,1.1.3,1.7,1.1,1.7h1v1.2l-1.4.2a2.4,2.4,0,0,1-1.7-.7,3.7,3.7,0,0,1-.6-2.3v-4.7h-1.3v-1.2h1.4v-2.1Z"
          style="fill: #fff" />
        <path
          d="M667.7,290.6v-1.1h-.1a2.9,2.9,0,0,1-2.6,1.2,2.5,2.5,0,0,1-2.7-2.5c.1-2.1,2-3.3,5.4-3.2h0a1.8,1.8,0,0,0-2-2.1,4.6,4.6,0,0,0-2.3.6l-.3-1.1a6.2,6.2,0,0,1,2.9-.7c2.6.1,3.3,1.9,3.2,3.7v3.2c0,.8.1,1.5.1,2.1Zm-.1-4.5c-1.8,0-3.7.2-3.8,1.9a1.6,1.6,0,0,0,1.5,1.6,2.1,2.1,0,0,0,2.1-1.4,1.3,1.3,0,0,0,.1-.6Z"
          style="fill: #fff" />
        <path d="M671.8,277.9h1.6l-.3,12.8h-1.5Z" style="fill: #fff" />
      </g>
    </g>
    <g class="hoverable" id="fondos" onclick="showInstrument('economicos', 'economicos_o_de_mercado', 'fondos');">
      <path d="M698.6,469.1l-225.9-81a369.1,369.1,0,0,0,12.7-44L719.7,396A616.7,616.7,0,0,1,698.6,469.1Z"
        style="fill: #d16bad" />
      <g>
        <path d="M526.9,372.5l6.2,2.1-.5,1.3-4.6-1.7-1.4,3.9,4.4,1.5-.5,1.2-4.3-1.5-1.8,5.2-1.5-.6Z"
          style="fill: #fff" />
        <path
          d="M539.5,385.1c-1.1,3-3.6,3.6-5.6,2.9a4.2,4.2,0,0,1-2.5-5.6c1-2.8,3.4-3.8,5.6-3S540.4,382.5,539.5,385.1Zm-6.5-2.2c-.7,1.8-.1,3.5,1.3,4s3-.5,3.7-2.3.4-3.4-1.4-4S533.5,381.3,533,382.9Z"
          style="fill: #fff" />
        <path
          d="M542,383.9a11.9,11.9,0,0,0,.7-2.3l1.4.5-.4,1.4h0a3.3,3.3,0,0,1,3.3-.6c1.1.4,2.6,1.7,1.7,4.5l-1.8,4.9-1.5-.5,1.7-4.7c.5-1.3.4-2.6-1.1-3.1a2.2,2.2,0,0,0-2.5.8,1.5,1.5,0,0,0-.3.7l-1.8,4.9-1.5-.5Z"
          style="fill: #fff" />
        <path
          d="M560.7,383.6l-3.5,10-.7,2.1-1.3-.5.4-1.4h0a3.3,3.3,0,0,1-3.4.6c-2-.7-2.9-2.9-2-5.4s3.2-3.8,5.2-3.1a2.6,2.6,0,0,1,2,2.1h.1l1.7-4.9Zm-4,6.7c0-.2.1-.5.1-.7a2.4,2.4,0,0,0-1.5-2.5c-1.6-.5-3,.5-3.6,2.4s-.2,3.3,1.4,3.8a2.2,2.2,0,0,0,2.8-1l.3-.6Z"
          style="fill: #fff" />
        <path
          d="M567.9,395a4.3,4.3,0,0,1-5.7,2.9c-2.2-.8-3.3-3-2.4-5.6a4.3,4.3,0,0,1,5.6-3A4.4,4.4,0,0,1,567.9,395Zm-6.6-2.2c-.6,1.8-.1,3.5,1.4,4s3-.5,3.6-2.3.4-3.4-1.4-4S561.8,391.2,561.3,392.8Z"
          style="fill: #fff" />
        <path
          d="M568.6,398.2a4.4,4.4,0,0,0,1.8,1.3c1.1.4,1.8,0,2-.7s0-1.2-1-2-1.7-2.1-1.4-3.1a2.7,2.7,0,0,1,3.7-1.4,4.4,4.4,0,0,1,1.9,1.2l-.8.9a2.6,2.6,0,0,0-1.5-1c-.9-.3-1.6,0-1.8.6s.2,1.2,1.1,2,1.7,2,1.3,3.2-2,2.1-3.9,1.4a4.4,4.4,0,0,1-2.2-1.4Z"
          style="fill: #fff" />
      </g>
    </g>
    <g class="hoverable" id="deducciones" onclick="showInstrument('economicos', 'economicos_o_de_mercado', 'deducciones');">
      <path d="M666.2,543.3,453.1,432.9a347.8,347.8,0,0,0,18.5-42l225.3,82.9A589.2,589.2,0,0,1,666.2,543.3Z"
        style="fill: #d16bad" />
      <g>
        <path
          d="M510.4,425.6a17.4,17.4,0,0,1,3.2,1.1,7.3,7.3,0,0,1,3.8,3.5,5.4,5.4,0,0,1-.3,4.6,6.5,6.5,0,0,1-3.5,3.6,7.7,7.7,0,0,1-5.6-.7l-2.6-1.3Zm-3,10.4,1.4.7c3,1.4,5.4.5,6.8-2.5s.5-4.9-2.5-6.3a3.8,3.8,0,0,0-1.7-.6Z"
          style="fill: #fff" />
        <path
          d="M518.8,438.1c-.8,2,0,3.4,1.5,4a4.9,4.9,0,0,0,2.3.6l-.2,1.2a6.7,6.7,0,0,1-2.8-.8c-2.5-1.1-3.2-3.3-2.1-5.7s3.4-3.7,5.7-2.6,2.2,3.8,1.5,5.2a2.4,2.4,0,0,1-.3.7Zm4.7.9a2.2,2.2,0,0,0-.9-3.2c-1.5-.7-2.7.4-3.3,1.3Z"
          style="fill: #fff" />
        <path
          d="M536.7,436.8l-4.4,9.5-.9,2.1-1.3-.6.6-1.4h-.1a3.1,3.1,0,0,1-3.4.3c-1.9-.9-2.6-3.2-1.5-5.6s3.6-3.5,5.5-2.6a2.8,2.8,0,0,1,1.8,2.3h.1l2.2-4.7Zm-4.6,6.2a1.4,1.4,0,0,1,.2-.6,2.4,2.4,0,0,0-1.3-2.6c-1.5-.7-3,.2-3.8,1.9s-.6,3.3,1,4a2.3,2.3,0,0,0,2.9-.7l.3-.6Z"
          style="fill: #fff" />
        <path
          d="M541.3,450.4c-.3.8-.7,1.5-.9,2.2l-1.3-.6.5-1.4h0a3.3,3.3,0,0,1-3.3.3c-1.2-.6-2.4-1.9-1.1-4.7l2.1-4.7,1.5.7-2.1,4.4c-.7,1.5-.7,2.7.6,3.3a2.2,2.2,0,0,0,2.5-.4,1.8,1.8,0,0,0,.5-.7l2.3-4.8,1.4.6Z"
          style="fill: #fff" />
        <path
          d="M548.5,455.9a5.7,5.7,0,0,1-2.5-.5,4.2,4.2,0,0,1-2.1-5.9,4.5,4.5,0,0,1,6.2-2.2,3.8,3.8,0,0,1,1.8,1.3l-.8.9a5.2,5.2,0,0,0-1.5-1.1,3.1,3.1,0,0,0-4.2,1.7,3,3,0,0,0,1.4,4.2,6.4,6.4,0,0,0,2,.5Z"
          style="fill: #fff" />
        <path
          d="M555.7,459.3a6.5,6.5,0,0,1-2.5-.6c-2.3-1.1-3.1-3.4-2-5.9a4.4,4.4,0,0,1,6.2-2.2,5.6,5.6,0,0,1,1.8,1.3l-.9,1a3.2,3.2,0,0,0-1.5-1.2,3,3,0,0,0-4.1,1.7,3.1,3.1,0,0,0,1.3,4.3,6.3,6.3,0,0,0,2,.4Z"
          style="fill: #fff" />
        <path
          d="M557.3,460.3l3.6-7.9,1.5.7-3.7,7.9Zm6.3-9.4a1,1,0,0,1-1.4.5.9.9,0,0,1-.4-1.3,1,1,0,0,1,1.3-.5A1,1,0,0,1,563.6,450.9Z"
          style="fill: #fff" />
        <path
          d="M570.1,461.4a4.3,4.3,0,0,1-5.9,2.4,4.2,4.2,0,0,1-1.9-5.8,4.3,4.3,0,0,1,5.9-2.4C570.5,456.6,571.2,459,570.1,461.4Zm-6.3-2.8c-.8,1.7-.4,3.5,1,4.1s3-.2,3.8-1.9.8-3.4-.9-4.2S564.5,457.1,563.8,458.6Z"
          style="fill: #fff" />
        <path
          d="M572.7,460.5l1-2.2,1.2.6-.5,1.3h0a3.2,3.2,0,0,1,3.3-.3c1.1.5,2.5,1.9,1.3,4.6l-2.2,4.8-1.4-.7,2.1-4.6c.6-1.2.6-2.5-.8-3.2a2.3,2.3,0,0,0-2.6.6,4.3,4.3,0,0,0-.4.7l-2.2,4.7-1.4-.7Z"
          style="fill: #fff" />
        <path
          d="M581.7,467.1a2.8,2.8,0,0,0,1.4,4,5,5,0,0,0,2.4.6l-.3,1.2a8.7,8.7,0,0,1-2.8-.8,4.1,4.1,0,0,1-2.1-5.8c1.1-2.3,3.4-3.6,5.7-2.5s2.2,3.8,1.6,5.2l-.4.7Zm4.6.9a2.2,2.2,0,0,0-.9-3.2,2.6,2.6,0,0,0-3.3,1.3Z"
          style="fill: #fff" />
        <path
          d="M587.8,472.6a3.9,3.9,0,0,0,1.6,1.5c1.1.5,1.8.2,2.1-.5s.1-1.2-.8-2.1-1.5-2.3-1-3.2a2.7,2.7,0,0,1,3.8-1.1,4.1,4.1,0,0,1,1.7,1.4l-.9.9a2.9,2.9,0,0,0-1.4-1.2,1.3,1.3,0,0,0-1.8.5c-.3.6.1,1.1.9,2s1.5,2.2,1,3.3-2.2,1.9-4.1,1a4.9,4.9,0,0,1-1.9-1.5Z"
          style="fill: #fff" />
      </g>
    </g>
    <g class="hoverable" id="bonos_de_desempeño" onclick="showInstrument('economicos', 'economicos_o_de_mercado', 'bonos_de_desempeño');">
      <path d="M720.7,391.1,486,341.2a363.8,363.8,0,0,0,6.7-45.3l239.1,19.9A594.2,594.2,0,0,1,720.7,391.1Z"
        style="fill: #d16bad" />
      <g>
        <path
          d="M538.2,322.5l2.9.2a6,6,0,0,1,3.2,1.4,2.6,2.6,0,0,1,.6,2.3,2.9,2.9,0,0,1-2.4,2.3h0a3.2,3.2,0,0,1,2,3.4,3.4,3.4,0,0,1-1.4,2.3,6.3,6.3,0,0,1-4.3.5l-2.4-.6Zm-.1,10.9,1.3.3c1.6.3,3.2-.1,3.4-1.8s-1-2.6-2.7-2.8l-1.3-.2Zm.9-5.7,1.4.2c1.7.3,2.7-.4,2.9-1.6s-.7-2.1-2.3-2.4h-1.4Z"
          style="fill: #fff" />
        <path
          d="M554.5,332.7c-.5,3.2-2.9,4.3-5,3.9s-3.8-2.3-3.4-5a4.2,4.2,0,0,1,5-3.9C553.5,328,554.9,330.1,554.5,332.7Zm-6.8-1c-.3,1.9.5,3.5,2.1,3.8s2.8-1,3.1-3-.2-3.4-2.1-3.7S547.9,330.1,547.7,331.7Z"
          style="fill: #fff" />
        <path
          d="M556.8,331.1c.1-.9.2-1.6.3-2.3l1.4.2-.2,1.4h.1a3.1,3.1,0,0,1,3.1-1.2c1.2.2,2.9,1.2,2.4,4.1l-.8,5.2-1.5-.3.7-4.9c.3-1.4-.1-2.7-1.6-2.9a2.1,2.1,0,0,0-2.3,1.3,1.4,1.4,0,0,0-.2.7l-.8,5.2-1.6-.3Z"
          style="fill: #fff" />
        <path
          d="M574.1,335.8a4.3,4.3,0,0,1-5,3.9,4.2,4.2,0,0,1-3.4-5.1c.5-2.9,2.6-4.3,5-3.9A4.1,4.1,0,0,1,574.1,335.8Zm-6.8-1c-.3,1.9.6,3.5,2.1,3.7s2.8-1,3.1-2.9-.2-3.4-2-3.7S567.6,333.2,567.3,334.8Z"
          style="fill: #fff" />
        <path
          d="M575.5,338.9a4.8,4.8,0,0,0,1.9.9c1.2.2,1.8-.3,1.9-1s-.3-1.2-1.3-1.9-2.1-1.7-1.9-2.8a2.7,2.7,0,0,1,3.3-2,4.1,4.1,0,0,1,2.1.9l-.6,1a3.9,3.9,0,0,0-1.7-.7,1.2,1.2,0,0,0-1.6.9c-.1.7.3,1.1,1.4,1.7s2,1.7,1.8,3-1.5,2.4-3.6,2a4.8,4.8,0,0,1-2.3-.9Z"
          style="fill: #fff" />
        <path
          d="M595.7,330.7,594,341.1a21.5,21.5,0,0,0-.2,2.3l-1.5-.3.2-1.5h0a3.3,3.3,0,0,1-3.2,1.3c-2.1-.4-3.4-2.4-3-5s2.5-4.4,4.6-4a2.9,2.9,0,0,1,2.4,1.7h0l.8-5.1Zm-2.8,7.3c0-.2.1-.5,0-.7a2.1,2.1,0,0,0-1.9-2.1c-1.6-.3-2.8,1-3.1,2.9s.3,3.3,2,3.6a2.4,2.4,0,0,0,2.6-1.6c.1-.2.1-.4.2-.6Z"
          style="fill: #fff" />
        <path
          d="M597.8,339.9a2.7,2.7,0,0,0,2.5,3.4,4.6,4.6,0,0,0,2.4-.1v1.2a6.5,6.5,0,0,1-2.9.1,4,4,0,0,1-3.6-5c.4-2.6,2.3-4.4,4.8-4s3.1,3,2.9,4.6a6.4,6.4,0,0,1-.2.7Zm4.7-.4a2.3,2.3,0,0,0-1.7-2.9c-1.6-.3-2.5,1.1-2.8,2.1Z"
          style="fill: #fff" />
        <path
          d="M610.9,333.9l3.3.3a6.9,6.9,0,0,1,4.6,2.2,5.8,5.8,0,0,1,1,4.6,6.2,6.2,0,0,1-2.4,4.4,8.2,8.2,0,0,1-5.6.9l-2.8-.6Zm-.2,10.9,1.6.3c3.3.5,5.4-1.1,5.9-4.3s-.9-4.9-4.1-5.4h-1.9Z"
          style="fill: #fff" />
        <path
          d="M622.4,343.7a2.9,2.9,0,0,0,2.5,3.5,8.6,8.6,0,0,0,2.4-.1v1.1a5.3,5.3,0,0,1-2.9.1,4,4,0,0,1-3.6-5c.4-2.6,2.3-4.4,4.8-4s3.1,3.1,2.9,4.6a4.5,4.5,0,0,1-.2.8Zm4.7-.4a2.3,2.3,0,0,0-1.7-2.9,2.7,2.7,0,0,0-2.8,2.2Z"
          style="fill: #fff" />
        <path
          d="M629.8,347.4a4.6,4.6,0,0,0,2,.9,1.5,1.5,0,0,0,1.9-1c.1-.8-.3-1.2-1.4-1.9s-2.1-1.7-1.9-2.7,1.5-2.4,3.4-2.1a3.7,3.7,0,0,1,2,.9l-.6,1a3.4,3.4,0,0,0-1.6-.7c-1-.2-1.6.3-1.7.9s.4,1.1,1.4,1.7,2.1,1.7,1.9,3-1.6,2.4-3.6,2a5.2,5.2,0,0,1-2.4-.9Z"
          style="fill: #fff" />
        <path
          d="M638.3,346.2a2.9,2.9,0,0,0,2.5,3.5,9.6,9.6,0,0,0,2.5-.1v1.1a6.9,6.9,0,0,1-3,.1,4.1,4.1,0,0,1-3.6-5c.5-2.6,2.3-4.4,4.8-4s3.2,3,2.9,4.6-.1.6-.1.8Zm4.8-.4a2.3,2.3,0,0,0-1.8-2.9,2.7,2.7,0,0,0-2.8,2.2Z"
          style="fill: #fff" />
        <path
          d="M646.7,345.2c.2-.9.2-1.6.3-2.3l1.4.2-.2,1.4h.1a2.9,2.9,0,0,1,2.9-1.2,2.7,2.7,0,0,1,2.2,2.1h0a4.7,4.7,0,0,1,1.2-.9,2.7,2.7,0,0,1,2-.3c1.1.1,2.7,1.1,2.2,4.1l-.8,5.1-1.5-.2.8-4.9c.2-1.7-.2-2.8-1.5-2.9a2,2,0,0,0-2.1,1.1,1.9,1.9,0,0,0-.2.7l-.9,5.4-1.5-.3.8-5.1c.2-1.4-.2-2.5-1.4-2.7a2.2,2.2,0,0,0-2.2,1.3,1.9,1.9,0,0,0-.2.7l-.8,5.2-1.6-.2Z"
          style="fill: #fff" />
        <path
          d="M661.5,348c.1-1.1.2-2,.3-2.8l1.4.2v1.5h0a3.3,3.3,0,0,1,3.3-1.2c2.1.3,3.4,2.3,3,4.9s-2.6,4.4-4.6,4.1a3.2,3.2,0,0,1-2.5-1.8h0l-.7,4.7-1.6-.3Zm1.2,2.5a2,2,0,0,0-.1.7,2.5,2.5,0,0,0,2.1,2.2c1.6.3,2.8-1,3.1-2.9s-.4-3.4-2-3.6a2.5,2.5,0,0,0-2.7,1.5,1.9,1.9,0,0,0-.2.7Z"
          style="fill: #fff" />
        <path
          d="M672.2,351.5a2.9,2.9,0,0,0,2.5,3.5,8.6,8.6,0,0,0,2.4-.1V356a6.5,6.5,0,0,1-2.9.1,4,4,0,0,1-3.6-5c.4-2.6,2.3-4.4,4.8-4s3.1,3,2.9,4.6-.1.6-.2.7Zm4.7-.4a2.3,2.3,0,0,0-1.7-2.9,2.7,2.7,0,0,0-2.8,2.2Z"
          style="fill: #fff" />
        <path
          d="M680.6,350.5c.1-.9.2-1.6.3-2.3l1.4.2-.2,1.4h.1a3.2,3.2,0,0,1,3.1-1.2c1.1.2,2.9,1.2,2.4,4.2l-.8,5.1-1.5-.2.7-5c.2-1.4-.1-2.6-1.6-2.8a2.1,2.1,0,0,0-2.3,1.2,1.9,1.9,0,0,0-.2.7l-.8,5.2-1.6-.2Zm2-3.6c.2-1.1.8-1.8,1.5-1.6a1.8,1.8,0,0,1,1.1.5,1.3,1.3,0,0,0,.7.4c.3.1.5,0,.6-.6h.8c-.1,1.2-.7,1.7-1.5,1.6l-1-.5-.7-.5c-.3,0-.5.3-.6.8Z"
          style="fill: #fff" />
        <path
          d="M697.9,355.2a4.3,4.3,0,0,1-5,3.9,4.2,4.2,0,0,1-3.4-5.1c.5-2.9,2.6-4.3,5-3.9S698.3,352.5,697.9,355.2Zm-6.8-1c-.3,1.9.6,3.5,2.1,3.7s2.8-1,3.1-2.9-.2-3.5-2-3.7S691.3,352.6,691.1,354.2Z"
          style="fill: #fff" />
      </g>
    </g>
  </g>
</svg>