<svg class="animate__animated" xmlns="http://www.w3.org/2000/svg" viewBox="0 0 734 353.2">
  <g>
    <g class="hoverable" onclick="returnToTypesInstrument(); changeImage('economicos/E_Herramienta_Segundo_Plano');">
      <path
        d="M452.4,288,281.2,246.2a159.8,159.8,0,0,0,4.5-37.9,158.2,158.2,0,0,0-8.9-52.5L443.1,97.2A335.5,335.5,0,0,1,462,208.3,332.4,332.4,0,0,1,452.4,288Z"
        style="fill: #332c91" />
      <path
        d="M439.3,284.3,275.1,244.1a154,154,0,0,0-4.2-86.6l159.4-56.2a321.3,321.3,0,0,1,18.1,106.6A326.5,326.5,0,0,1,439.3,284.3Z"
        style="fill: #b74b90" />
      <g>
        <path
          d="M315.5,164.1a20.9,20.9,0,0,1,3.8-.3c2.2,0,3.5.4,4.5,1.3A3.7,3.7,0,0,1,325,168a4.1,4.1,0,0,1-2.9,4h0c1.2.4,1.9,1.5,2.3,3.1a18.9,18.9,0,0,0,1.2,4.2h-2.1a13.9,13.9,0,0,1-1-3.7c-.5-2.1-1.3-2.9-3.1-3h-1.9v6.7h-2Zm2,7.1h2c2.2,0,3.5-1.2,3.5-2.9s-1.4-2.9-3.5-2.9l-2,.2Z"
          style="fill: #fff" />
        <path
          d="M329,174.2a3.5,3.5,0,0,0,3.8,3.9,6.3,6.3,0,0,0,3.1-.6l.3,1.5a9.2,9.2,0,0,1-3.7.7c-3.4,0-5.4-2.3-5.4-5.6s1.9-6,5.2-6,4.6,3.2,4.6,5.2c0,.4-.1.7-.1.9Zm5.9-1.4a2.8,2.8,0,0,0-2.8-3.3c-2,0-2.9,1.9-3.1,3.3Z"
          style="fill: #fff" />
        <path
          d="M339.4,171.9c0-1.4-.1-2.5-.1-3.6h1.8v1.9h.1a4.3,4.3,0,0,1,3.9-2.1c2.7,0,4.7,2.2,4.7,5.6s-2.4,6-5,6a4.1,4.1,0,0,1-3.5-1.8h0V184h-2Zm2,3a1.9,1.9,0,0,0,.1.8,3.2,3.2,0,0,0,3,2.4c2.2,0,3.4-1.7,3.4-4.3s-1.2-4.1-3.3-4.1a3.3,3.3,0,0,0-3.1,2.5c0,.2-.1.5-.1.8Z"
          style="fill: #fff" />
        <path
          d="M358.6,179.4V178h-.1a4,4,0,0,1-3.4,1.7,3.2,3.2,0,0,1-3.4-3.2c0-2.7,2.4-4.2,6.7-4.1v-.3a2.3,2.3,0,0,0-2.5-2.5,5.5,5.5,0,0,0-2.9.8l-.5-1.4a7,7,0,0,1,3.7-.9c3.4,0,4.2,2.3,4.2,4.5v4.2a10.6,10.6,0,0,0,.2,2.6Zm-.3-5.6c-2.2-.1-4.7.3-4.7,2.5a1.8,1.8,0,0,0,1.9,1.9,2.7,2.7,0,0,0,2.7-1.9,1.3,1.3,0,0,0,.1-.6Z"
          style="fill: #fff" />
        <path
          d="M363.6,171.8c0-1.3-.1-2.5-.1-3.5h1.7v2.2h.1a3.3,3.3,0,0,1,3.1-2.4h.6V170h-.7a2.7,2.7,0,0,0-2.7,2.6,2.5,2.5,0,0,0-.1.9v5.9h-2Z"
          style="fill: #fff" />
        <path
          d="M374.1,165.1v3.2H377v1.6h-2.9v6c0,1.3.4,2.1,1.5,2.1h1.2v1.5a4.5,4.5,0,0,1-1.8.3,2.7,2.7,0,0,1-2.2-.9,4,4,0,0,1-.8-2.9v-6h-1.7v-1.6h1.7v-2.7Z"
          style="fill: #fff" />
        <path
          d="M389.2,173.8c0,4.1-2.9,5.9-5.6,5.9s-5.3-2.2-5.3-5.7,2.4-5.9,5.5-5.9S389.2,170.4,389.2,173.8Zm-8.8.1c0,2.4,1.4,4.3,3.3,4.3s3.4-1.8,3.4-4.3-.9-4.3-3.3-4.3S380.4,171.8,380.4,173.9Z"
          style="fill: #fff" />
        <path
          d="M406.2,163.1v13.5c0,1,.1,2.1.1,2.8h-1.8v-1.9h0a4.1,4.1,0,0,1-3.8,2.2c-2.7,0-4.8-2.3-4.8-5.7s2.3-5.9,5-5.9a3.8,3.8,0,0,1,3.4,1.7h0v-6.7Zm-2,9.7a2.2,2.2,0,0,0-.1-.8,3,3,0,0,0-2.9-2.4c-2.1,0-3.3,1.9-3.3,4.3s1.1,4.2,3.2,4.2a3.1,3.1,0,0,0,3-2.5,1.9,1.9,0,0,0,.1-.8Z"
          style="fill: #fff" />
        <path
          d="M410.7,174.2c.1,2.8,1.8,3.9,3.8,3.9a6,6,0,0,0,3.1-.6l.4,1.5a10,10,0,0,1-3.7.7c-3.5,0-5.5-2.3-5.5-5.6s2-6,5.2-6,4.6,3.2,4.6,5.2a2.2,2.2,0,0,1-.1.9Zm5.9-1.4a2.8,2.8,0,0,0-2.8-3.3c-2,0-2.9,1.9-3.1,3.3Z"
          style="fill: #fff" />
        <path
          d="M337.5,206.6a7.6,7.6,0,0,1-3.2.7,5.3,5.3,0,0,1-5.6-5.7,5.7,5.7,0,0,1,6-5.9,6.5,6.5,0,0,1,2.8.6l-.5,1.5a4.1,4.1,0,0,0-2.3-.5c-2.6,0-3.9,1.9-3.9,4.2s1.6,4.2,3.8,4.2a5.1,5.1,0,0,0,2.5-.6Z"
          style="fill: #fff" />
        <path
          d="M346,207l-.2-1.4h0a4.3,4.3,0,0,1-3.4,1.7,3.2,3.2,0,0,1-3.5-3.2c0-2.7,2.4-4.2,6.7-4.1v-.3a2.2,2.2,0,0,0-2.5-2.5,5.7,5.7,0,0,0-2.9.8l-.4-1.4a6.6,6.6,0,0,1,3.6-.9c3.4,0,4.2,2.3,4.2,4.5v4.2a19.7,19.7,0,0,0,.2,2.6Zm-.3-5.6c-2.2-.1-4.7.3-4.7,2.5a1.7,1.7,0,0,0,1.9,1.9,2.9,2.9,0,0,0,2.7-1.9c0-.2.1-.4.1-.6Z"
          style="fill: #fff" />
        <path
          d="M350.9,199.4c0-1.3,0-2.5-.1-3.5h1.8v2.2h0a3.5,3.5,0,0,1,3.1-2.4h.6v1.9h-.7a2.8,2.8,0,0,0-2.7,2.6c0,.2-.1.6-.1.9V207h-2Z"
          style="fill: #fff" />
        <path
          d="M367.8,195.9c0,.8-.1,1.7-.1,3.1v6.4c0,2.6-.5,4.1-1.5,5.1a6.1,6.1,0,0,1-4.1,1.3,7.2,7.2,0,0,1-3.7-.9l.5-1.5a6.8,6.8,0,0,0,3.3.9c2,0,3.6-1.1,3.6-3.9v-1.3h-.1a3.8,3.8,0,0,1-3.5,1.9c-2.8,0-4.8-2.4-4.8-5.4s2.5-5.9,5.1-5.9a3.7,3.7,0,0,1,3.4,1.9h.1v-1.7Zm-2.1,4.4a2.8,2.8,0,0,0-.1-.9,2.8,2.8,0,0,0-2.8-2.2c-1.9,0-3.3,1.7-3.3,4.3s1.1,4,3.3,4a3.1,3.1,0,0,0,2.8-2.1,4.5,4.5,0,0,0,.1-1.1Z"
          style="fill: #fff" />
        <path
          d="M377.3,207l-.2-1.4H377a4,4,0,0,1-3.4,1.7,3.2,3.2,0,0,1-3.4-3.2c0-2.7,2.4-4.2,6.7-4.1v-.3a2.2,2.2,0,0,0-2.5-2.5,5.7,5.7,0,0,0-2.9.8l-.5-1.4a7.2,7.2,0,0,1,3.7-.9c3.4,0,4.2,2.3,4.2,4.5v4.2a19.7,19.7,0,0,0,.2,2.6Zm-.3-5.6c-2.2-.1-4.8.3-4.8,2.5a1.8,1.8,0,0,0,2,1.9,2.6,2.6,0,0,0,2.6-1.9,1.4,1.4,0,0,0,.2-.6Z"
          style="fill: #fff" />
        <path
          d="M381.9,205a5.4,5.4,0,0,0,2.7.8c1.4,0,2.1-.8,2.1-1.7s-.5-1.5-2-2-3-1.8-3-3.2,1.5-3.2,3.9-3.2a6.3,6.3,0,0,1,2.7.6l-.5,1.5a4,4,0,0,0-2.3-.6c-1.2,0-1.8.7-1.8,1.5s.6,1.3,2.1,1.9,2.9,1.7,2.9,3.3-1.5,3.4-4.2,3.4a5.9,5.9,0,0,1-3.1-.8Z"
          style="fill: #fff" />
        <path
          d="M396.9,195.9l2.4,6.6a20.9,20.9,0,0,1,.8,2.3h0c.2-.7.4-1.6.7-2.4l2.2-6.5h2.2l-3.1,7.9c-1.4,3.9-2.4,5.8-3.8,7a5.4,5.4,0,0,1-2.5,1.3l-.5-1.7a4.7,4.7,0,0,0,1.8-1,7,7,0,0,0,1.7-2.2,1.7,1.7,0,0,0,.2-.5l-.2-.5-4.1-10.3Z"
          style="fill: #fff" />
        <path
          d="M319,234.6c0-.7.1-1.8.1-2.8V218.3h2v7h0a4.2,4.2,0,0,1,3.8-2c2.8,0,4.7,2.3,4.7,5.6s-2.5,6-5,6a3.9,3.9,0,0,1-3.7-2.1h-.1v1.8Zm2.1-4.4a1.7,1.7,0,0,0,.1.7,3.1,3.1,0,0,0,3,2.4c2.1,0,3.4-1.7,3.4-4.3s-1.2-4.1-3.3-4.1a3.2,3.2,0,0,0-3.1,2.5c0,.2-.1.5-.1.8Z"
          style="fill: #fff" />
        <path
          d="M333.3,229.4a3.5,3.5,0,0,0,3.8,3.9,6.3,6.3,0,0,0,3.1-.6l.3,1.5a9.2,9.2,0,0,1-3.7.7c-3.4,0-5.4-2.3-5.4-5.6s1.9-6,5.2-6,4.6,3.2,4.6,5.2c0,.4-.1.7-.1.9Zm5.9-1.4a2.8,2.8,0,0,0-2.8-3.3c-2,0-2.9,1.9-3.1,3.3Z"
          style="fill: #fff" />
        <path
          d="M343.7,226.5a28.1,28.1,0,0,0-.1-3h1.8v1.9h.1a3.9,3.9,0,0,1,3.6-2.1c1.6,0,4,.9,4,4.7v6.6h-2.1v-6.4c0-1.8-.6-3.3-2.5-3.3a2.8,2.8,0,0,0-2.7,2.1,2.9,2.9,0,0,0-.2.9v6.7h-2Z"
          style="fill: #fff" />
        <path
          d="M357.6,229.4a3.5,3.5,0,0,0,3.8,3.9,6.3,6.3,0,0,0,3.1-.6l.3,1.5a9.2,9.2,0,0,1-3.7.7c-3.4,0-5.4-2.3-5.4-5.6s1.9-6,5.2-6,4.6,3.2,4.6,5.2c0,.4-.1.7-.1.9Zm5.9-1.4c0-1.3-.5-3.3-2.8-3.3s-2.9,1.9-3.1,3.3Z"
          style="fill: #fff" />
        <path
          d="M368.2,234.6v-9.5h-1.6v-1.6h1.6v-.6a4.4,4.4,0,0,1,4.8-4.8,5.9,5.9,0,0,1,2.9.7l-.6,1.5a4.8,4.8,0,0,0-2.3-.6c-2.2,0-2.8,1.5-2.8,3.3v.5h6.5v11.1h-2v-9.5h-4.5v9.5Z"
          style="fill: #fff" />
        <path
          d="M387.9,234.2a6.7,6.7,0,0,1-3.1.7,5.3,5.3,0,0,1-5.6-5.7,5.7,5.7,0,0,1,6-5.9,6.5,6.5,0,0,1,2.8.6l-.5,1.5a4.4,4.4,0,0,0-2.3-.5c-2.6,0-3.9,1.9-3.9,4.2s1.6,4.2,3.8,4.2a5.1,5.1,0,0,0,2.5-.6Z"
          style="fill: #fff" />
        <path
          d="M392.6,220.4a1.2,1.2,0,0,1-1.3,1.2,1.2,1.2,0,0,1-1.2-1.2,1.2,1.2,0,0,1,1.2-1.3A1.3,1.3,0,0,1,392.6,220.4Zm-2.3,14.2V223.5h2v11.1Z"
          style="fill: #fff" />
        <path
          d="M405.8,229c0,4.1-2.9,5.9-5.6,5.9s-5.3-2.2-5.3-5.7,2.4-5.9,5.5-5.9S405.8,225.6,405.8,229Zm-8.9.1c0,2.4,1.4,4.3,3.4,4.3s3.4-1.8,3.4-4.3-.9-4.3-3.3-4.3S396.9,227,396.9,229.1Z"
          style="fill: #fff" />
        <path
          d="M408,232.6a5.4,5.4,0,0,0,2.7.8c1.5,0,2.2-.8,2.2-1.7s-.6-1.5-2.1-2-2.9-1.8-2.9-3.2,1.4-3.2,3.8-3.2a6.3,6.3,0,0,1,2.7.6l-.5,1.5a3.9,3.9,0,0,0-2.2-.6c-1.2,0-1.9.7-1.9,1.5s.7,1.3,2.1,1.9,2.9,1.7,2.9,3.3-1.5,3.4-4.1,3.4a6.3,6.3,0,0,1-3.2-.8Z"
          style="fill: #fff" />
      </g>
    </g>
    <g class="hoverable" id="compensaciones" onclick="showInstrument('economicos', 'reparto_de_cargas_y_beneficios', 'compensaciones');">
      <path d="M493.3,186.9v-.7a364.2,364.2,0,0,0-21.5-104L697.3,0a607.8,607.8,0,0,1,35.6,172.2v1.2Z"
        style="fill: #b74b90" />
      <g>
        <path
          d="M547.5,128.2a6.7,6.7,0,0,1-3,1.1c-3.4.6-6.3-1.1-7-5s1.5-6.8,5.2-7.4a6,6,0,0,1,2.9.1v1.3a5.1,5.1,0,0,0-2.5-.1c-2.8.5-4.4,2.6-3.9,5.7s2.5,4.6,5.5,4.1a7.5,7.5,0,0,0,2.4-1Z"
          style="fill: #fff" />
        <path
          d="M556.3,122.6c.5,3.2-1.4,5-3.5,5.3a4.2,4.2,0,0,1-4.9-3.7c-.5-2.9,1.1-4.9,3.5-5.3A4.1,4.1,0,0,1,556.3,122.6Zm-6.8,1.3c.3,1.8,1.6,3.1,3.2,2.8s2.3-1.8,2-3.8-1.3-3.1-3.1-2.8S549.2,122.2,549.5,123.9Z"
          style="fill: #fff" />
        <path
          d="M557.9,120.4a13.7,13.7,0,0,0-.4-2.3l1.3-.3.4,1.4h0a2.8,2.8,0,0,1,2.4-2,2.6,2.6,0,0,1,2.8,1.3h0a3.2,3.2,0,0,1,.8-1.3,2.4,2.4,0,0,1,1.8-.9c1.1-.2,2.9.2,3.4,3.2l.9,5.1-1.5.2-.9-4.8c-.3-1.7-1-2.6-2.3-2.4a2.1,2.1,0,0,0-1.6,1.8v.8l.9,5.3-1.5.2-.9-5.1c-.2-1.4-1-2.3-2.2-2.1a2.1,2.1,0,0,0-1.6,1.9,1.1,1.1,0,0,0,0,.8l.8,5.2-1.5.2Z"
          style="fill: #fff" />
        <path
          d="M572.8,118.3c-.2-1.1-.3-1.9-.5-2.8l1.4-.2.3,1.5h0a3.4,3.4,0,0,1,2.8-2.2c2.1-.4,3.9,1.1,4.4,3.7s-1.1,5-3.1,5.3a3,3,0,0,1-2.9-.9h0l.8,4.7-1.6.2Zm2,2.1c0,.2.1.4.1.6a2.5,2.5,0,0,0,2.7,1.4c1.6-.3,2.4-1.8,2-3.7s-1.4-3.1-3.1-2.8a2.6,2.6,0,0,0-2,2.3v.7Z"
          style="fill: #fff" />
        <path
          d="M584.1,118.2c.4,2.2,1.9,2.8,3.4,2.5a7.4,7.4,0,0,0,2.4-.8l.4,1.1a9.4,9.4,0,0,1-2.8,1,4,4,0,0,1-4.9-3.6c-.5-2.6.7-4.9,3.2-5.4s4,1.9,4.3,3.5v.7Zm4.4-1.9a2.3,2.3,0,0,0-2.6-2.1c-1.6.2-2,1.8-2,2.9Z"
          style="fill: #fff" />
        <path
          d="M591.7,114.6c-.1-.9-.3-1.6-.4-2.3l1.3-.2.4,1.4h0a3.2,3.2,0,0,1,2.6-2.1c1.2-.2,3.1.2,3.6,3.1l.9,5.1-1.6.3-.8-4.9c-.2-1.4-.9-2.5-2.4-2.2a2.1,2.1,0,0,0-1.8,1.9,1.1,1.1,0,0,0,0,.8l.9,5.1-1.6.3Z"
          style="fill: #fff" />
        <path
          d="M602.2,117.7a3.5,3.5,0,0,0,2.1.2c1.2-.2,1.6-.8,1.5-1.5s-.7-1.1-1.9-1.3-2.5-1.1-2.7-2.1.7-2.7,2.6-3a4,4,0,0,1,2.2.2l-.2,1.2a2.8,2.8,0,0,0-1.9-.2,1.2,1.2,0,0,0-1.2,1.4c.1.7.7.9,1.9,1.2s2.4.9,2.7,2.2-.8,2.7-2.8,3.1a4.9,4.9,0,0,1-2.5-.2Z"
          style="fill: #fff" />
        <path
          d="M614.4,117.2l-.3-1.1h0a3.4,3.4,0,0,1-2.4,1.7,2.5,2.5,0,0,1-3.1-2c-.3-2.1,1.3-3.6,4.6-4.1v-.2a1.8,1.8,0,0,0-2.3-1.6,3.8,3.8,0,0,0-2.1,1l-.5-1a4.5,4.5,0,0,1,2.6-1.2c2.7-.5,3.6,1.2,3.9,2.9l.6,3.2a6.5,6.5,0,0,0,.5,2.1Zm-.9-4.3c-1.8.2-3.6.8-3.4,2.5a1.6,1.6,0,0,0,1.8,1.3,2.2,2.2,0,0,0,1.8-1.8v-.5Z"
          style="fill: #fff" />
        <path
          d="M624.3,115.2a5.7,5.7,0,0,1-2.4.9,4,4,0,0,1-5-3.6,4.4,4.4,0,0,1,3.8-5.4,5.5,5.5,0,0,1,2.3.1l-.2,1.3a2.8,2.8,0,0,0-1.9-.1c-1.9.3-2.7,1.9-2.4,3.7a2.9,2.9,0,0,0,3.5,2.7,4.5,4.5,0,0,0,1.8-.7Z"
          style="fill: #fff" />
        <path d="M626,103.9a1,1,0,1,1-1.1-.8A.9.9,0,0,1,626,103.9Zm.2,11.3-1.5-8.6,1.6-.2,1.4,8.5Z"
          style="fill: #fff" />
        <path
          d="M637.4,108.8a4.4,4.4,0,0,1-3.5,5.3,4.1,4.1,0,0,1-4.9-3.7c-.5-2.9,1.1-4.9,3.5-5.3S636.9,106.2,637.4,108.8Zm-6.8,1.3c.3,1.8,1.6,3.1,3.1,2.8s2.4-1.8,2.1-3.8-1.3-3.1-3.2-2.8S630.3,108.4,630.6,110.1Z"
          style="fill: #fff" />
        <path
          d="M639,106.6a13.2,13.2,0,0,0-.5-2.3l1.4-.3.4,1.4h0a3.2,3.2,0,0,1,2.6-2.1c1.1-.2,3.1.2,3.6,3.2l.9,5.1-1.6.3-.8-5c-.3-1.4-1-2.4-2.4-2.2a2.3,2.3,0,0,0-1.9,2,2,2,0,0,0,.1.7l.8,5.2-1.5.2Z"
          style="fill: #fff" />
        <path
          d="M650.1,107a2.9,2.9,0,0,0,3.5,2.5,5.5,5.5,0,0,0,2.3-.9l.4,1.1a7.3,7.3,0,0,1-2.7,1,4,4,0,0,1-5-3.6c-.5-2.6.7-4.9,3.2-5.3s4,1.9,4.3,3.4v.8Zm4.4-1.9c-.2-1-.8-2.5-2.6-2.2s-2,1.9-2,3Z"
          style="fill: #fff" />
        <path
          d="M658.3,108.1a4.9,4.9,0,0,0,2.2.3c1.1-.2,1.6-.9,1.4-1.6s-.6-1.1-1.8-1.3-2.5-1-2.7-2.1.7-2.7,2.5-3a4.8,4.8,0,0,1,2.2.2l-.2,1.2a3.1,3.1,0,0,0-1.8-.2c-.9.2-1.4.8-1.3,1.4s.7,1,1.9,1.2,2.5.9,2.7,2.2-.7,2.8-2.8,3.1a4.2,4.2,0,0,1-2.5-.2Z"
          style="fill: #fff" />
      </g>
    </g>
    <g class="hoverable" id="transferencias_de_derechos_de_construccion" onclick="showInstrument('economicos', 'reparto_de_cargas_y_beneficios', 'transferencias_de_derechos_de_construccion');">
      <path
        d="M716.4,353.2l-233-57.5A365.6,365.6,0,0,0,494,208.3c0-6-.2-12.2-.5-18.3l239.7-11.8c.5,10,.8,20.1.8,30.1A608.1,608.1,0,0,1,716.4,353.2Z"
        style="fill: #b74b90" />
      <g>
        <path d="M559.8,228.3l-3.7-.4.2-1.4,8.9,1.1-.2,1.3-3.7-.4L560,239.2l-1.5-.2Z" style="fill: #fff" />
        <path
          d="M564.9,233.8c.1-1.1.2-1.9.3-2.7h1.3v1.7h.1a2.6,2.6,0,0,1,2.6-1.6h.4v1.5h-.6a2.2,2.2,0,0,0-2.3,1.8,1.4,1.4,0,0,0-.2.7l-.5,4.6-1.6-.2Z"
          style="fill: #fff" />
        <path
          d="M574.7,241v-1.1h-.1a3.2,3.2,0,0,1-2.8.9,2.4,2.4,0,0,1-2.3-2.8c.2-2.1,2.2-3,5.5-2.6h.1a1.9,1.9,0,0,0-1.8-2.3,4.5,4.5,0,0,0-2.3.4l-.2-1.1a5.3,5.3,0,0,1,2.9-.4c2.7.3,3.1,2.2,2.9,3.9l-.4,3.3a7.6,7.6,0,0,0-.1,2.1Zm.3-4.5c-1.7-.2-3.7-.1-3.9,1.6a1.4,1.4,0,0,0,1.3,1.6,2.1,2.1,0,0,0,2.3-1.2c.1-.1.1-.3.2-.5Z"
          style="fill: #fff" />
        <path
          d="M579.3,235.1a21.5,21.5,0,0,0,.2-2.3l1.4.2v1.4h0a3,3,0,0,1,3-1.3c1.2.2,3,1.1,2.7,4.1l-.7,5.1-1.5-.2.6-4.9c.1-1.4-.2-2.7-1.7-2.8a2.1,2.1,0,0,0-2.3,1.3,1.9,1.9,0,0,0-.2.7l-.7,5.2-1.5-.2Z"
          style="fill: #fff" />
        <path
          d="M588.5,241a3.7,3.7,0,0,0,2,.9c1.1.1,1.7-.4,1.8-1.1s-.3-1.2-1.4-1.8-2.1-1.7-2-2.7,1.4-2.4,3.3-2.2a4.2,4.2,0,0,1,2,.8l-.5,1.1a3,3,0,0,0-1.7-.7c-.9-.1-1.5.3-1.6,1s.4,1.1,1.5,1.7,2.1,1.6,1.9,2.8-1.5,2.5-3.5,2.2a5.2,5.2,0,0,1-2.4-.8Z"
          style="fill: #fff" />
        <path
          d="M595.7,243.5l.9-7.4-1.2-.2.2-1.2,1.2.2v-.4a4.2,4.2,0,0,1,1.4-2.9,2.6,2.6,0,0,1,2.2-.6l1.3.4-.4,1.2a1.9,1.9,0,0,0-.9-.3c-1.4-.2-1.9,1-2,2.3v.4l2.1.3v1.2l-2.1-.3-.9,7.5Z"
          style="fill: #fff" />
        <path
          d="M601.9,240.2a2.8,2.8,0,0,0,2.6,3.3,6.6,6.6,0,0,0,2.5-.1v1.1a6.2,6.2,0,0,1-2.9.2,4.1,4.1,0,0,1-3.8-4.9c.3-2.6,2.1-4.4,4.6-4.1s3.3,2.9,3.1,4.5-.1.5-.1.7Zm4.8-.6c.1-1-.1-2.6-1.9-2.8a2.6,2.6,0,0,0-2.7,2.2Z"
          style="fill: #fff" />
        <path
          d="M610.2,239.2q.1-1.5.3-2.7l1.4.2-.2,1.7h.1a2.6,2.6,0,0,1,2.6-1.6h.4v1.5h-.6a2.1,2.1,0,0,0-2.3,1.7,1.9,1.9,0,0,0-.2.7l-.5,4.7-1.6-.2Z"
          style="fill: #fff" />
        <path
          d="M616.5,241.9a2.8,2.8,0,0,0,2.6,3.4,5.9,5.9,0,0,0,2.5-.2v1.2a7.7,7.7,0,0,1-2.9.2,4.1,4.1,0,0,1-3.8-4.9c.4-2.6,2.1-4.5,4.7-4.2s3.2,2.9,3.1,4.5a3.1,3.1,0,0,0-.2.8Zm4.8-.5c.1-1-.1-2.7-1.9-2.9a2.6,2.6,0,0,0-2.7,2.3Z"
          style="fill: #fff" />
        <path
          d="M624.9,240.6a21.5,21.5,0,0,0,.2-2.3h1.4v1.5h0a3.3,3.3,0,0,1,3.1-1.3c1.2.1,3,1.1,2.6,4.1l-.6,5.1-1.6-.2.6-5c.2-1.3-.2-2.6-1.7-2.8a2.4,2.4,0,0,0-2.3,1.4c-.1.2-.1.5-.2.7l-.6,5.2-1.6-.2Z"
          style="fill: #fff" />
        <path
          d="M640.2,248.6a7.6,7.6,0,0,1-2.5.2,4.2,4.2,0,0,1-3.8-5,4.4,4.4,0,0,1,5.2-4,5.2,5.2,0,0,1,2.2.7l-.6,1.2a3,3,0,0,0-1.7-.7,3.1,3.1,0,0,0-3.5,2.9,3,3,0,0,0,2.6,3.6,4,4,0,0,0,2-.2Z"
          style="fill: #fff" />
        <path
          d="M642,249.1l1.1-8.7,1.6.2-1.1,8.7Zm3.1-10.9c0,.6-.5.9-1.1.9a1,1,0,0,1-.8-1.1,1,1,0,0,1,1.1-.9A.9.9,0,0,1,645.1,238.2Z"
          style="fill: #fff" />
        <path
          d="M651,250.2v-1.1h0a3.2,3.2,0,0,1-2.8.9,2.5,2.5,0,0,1-2.4-2.8c.3-2.1,2.3-3,5.6-2.6h0a1.8,1.8,0,0,0-1.7-2.3,4.3,4.3,0,0,0-2.3.4l-.3-1.1a5.8,5.8,0,0,1,3-.4c2.6.3,3.1,2.2,2.8,3.9l-.3,3.3a15,15,0,0,0-.2,2Zm.3-4.5c-1.7-.2-3.7-.1-3.9,1.5a1.4,1.4,0,0,0,1.3,1.7,2.2,2.2,0,0,0,2.3-1.2.7.7,0,0,0,.1-.5Z"
          style="fill: #fff" />
        <path
          d="M654.8,249a3.7,3.7,0,0,0,2,.9c1.2.1,1.8-.4,1.9-1.1s-.4-1.2-1.5-1.8-2.1-1.7-2-2.7a2.8,2.8,0,0,1,3.3-2.2,5.1,5.1,0,0,1,2.1.8l-.5,1.1a3,3,0,0,0-1.7-.7c-1-.1-1.6.3-1.6,1s.4,1.1,1.4,1.6,2.1,1.6,2,2.9-1.5,2.5-3.6,2.2a4.8,4.8,0,0,1-2.3-.8Z"
          style="fill: #fff" />
        <path
          d="M674.7,240.2l-1.3,10.4a15.2,15.2,0,0,1-.2,2.3l-1.4-.2v-1.5h0a3.1,3.1,0,0,1-3.1,1.3c-2.1-.2-3.5-2.2-3.2-4.8s2.3-4.5,4.4-4.2a3,3,0,0,1,2.5,1.6h0l.6-5.1Zm-2.5,7.3c0-.2.1-.4,0-.6a2.2,2.2,0,0,0-2-2.1c-1.6-.2-2.8,1.1-3,3s.5,3.3,2.2,3.5a2.4,2.4,0,0,0,2.5-1.6,1.5,1.5,0,0,0,.1-.7Z"
          style="fill: #fff" />
        <path
          d="M677.1,249.2a2.9,2.9,0,0,0,2.7,3.4,5.6,5.6,0,0,0,2.4-.2v1.2a7.5,7.5,0,0,1-2.9.2,4,4,0,0,1-3.7-4.9c.3-2.6,2.1-4.5,4.6-4.2s3.3,2.9,3.1,4.5a4.5,4.5,0,0,1-.2.8Zm4.8-.5c.1-1-.1-2.7-1.9-2.9s-2.4,1.2-2.7,2.3Z"
          style="fill: #fff" />
        <path
          d="M524.5,244.6a19.4,19.4,0,0,1,3.3.2,6.5,6.5,0,0,1,4.7,2.1,5.4,5.4,0,0,1,1.2,4.5,6.2,6.2,0,0,1-2.3,4.5c-1.3,1-3.2,1.3-5.5,1.1l-2.8-.5Zm.3,10.9,1.5.2c3.3.4,5.4-1.2,5.8-4.4s-1.1-4.9-4.4-5.3h-1.8Z"
          style="fill: #fff" />
        <path
          d="M536.3,254a2.9,2.9,0,0,0,2.6,3.4,5.9,5.9,0,0,0,2.5-.2v1.2a7.7,7.7,0,0,1-2.9.2,4,4,0,0,1-3.7-4.9c.3-2.6,2.1-4.5,4.6-4.2s3.2,2.9,3.1,4.5-.1.6-.2.8Zm4.8-.6c.1-1-.1-2.6-1.9-2.8a2.6,2.6,0,0,0-2.7,2.3Z"
          style="fill: #fff" />
        <path
          d="M545.3,255.1a2.8,2.8,0,0,0,2.6,3.4,5.6,5.6,0,0,0,2.4-.2l.2,1.2a8.9,8.9,0,0,1-3,.1,4,4,0,0,1-3.7-4.8c.3-2.6,2.1-4.5,4.6-4.2s3.3,2.9,3.1,4.5a5.6,5.6,0,0,1-.1.7Zm4.7-.6a2.2,2.2,0,0,0-1.8-2.8c-1.6-.2-2.5,1.2-2.8,2.3Z"
          style="fill: #fff" />
        <path
          d="M559.1,260.5a4.9,4.9,0,0,1-2.6.2,4,4,0,0,1-3.7-4.9,4.3,4.3,0,0,1,5.2-4,4.7,4.7,0,0,1,2.1.7l-.5,1.1a4.6,4.6,0,0,0-1.8-.6,3.3,3.3,0,0,0-.8,6.5,4,4,0,0,0,2-.2Z"
          style="fill: #fff" />
        <path
          d="M562.4,248.4l1.6.2-.7,5.4h.1a2.9,2.9,0,0,1,1.2-1,4.7,4.7,0,0,1,1.7-.3c1.2.2,2.9,1.1,2.6,4.1l-.6,5.2-1.6-.2.6-5c.1-1.4-.2-2.6-1.7-2.8a2.4,2.4,0,0,0-2.3,1.3,1.4,1.4,0,0,0-.2.7l-.6,5.3-1.6-.2Z"
          style="fill: #fff" />
        <path
          d="M579.2,258.8a4.3,4.3,0,0,1-4.9,4.1c-2.3-.3-3.9-2.2-3.6-5a4.3,4.3,0,1,1,8.5.9Zm-6.9-.7c-.2,1.9.7,3.4,2.2,3.6s2.8-1.1,3-3-.3-3.4-2.1-3.7S572.5,256.4,572.3,258.1Z"
          style="fill: #fff" />
        <path
          d="M580.6,261.8a3.7,3.7,0,0,0,2,.9c1.1.1,1.7-.4,1.8-1.1s-.3-1.2-1.4-1.8-2.1-1.7-2-2.7,1.4-2.4,3.3-2.2a5.1,5.1,0,0,1,2.1.8l-.6,1.1a3.9,3.9,0,0,0-1.7-.7,1.3,1.3,0,0,0-1.6,1c0,.7.4,1.1,1.5,1.7s2.1,1.6,2,2.8-1.5,2.5-3.6,2.2a4.8,4.8,0,0,1-2.3-.8Z"
          style="fill: #fff" />
        <path
          d="M600.5,253l-1.3,10.4a21.5,21.5,0,0,0-.2,2.3l-1.4-.2V264h0a3.2,3.2,0,0,1-3.2,1.3c-2.1-.2-3.5-2.2-3.1-4.8s2.3-4.5,4.4-4.2a3,3,0,0,1,2.4,1.6h.1l.6-5.1Zm-2.5,7.3v-.6a2.2,2.2,0,0,0-2-2.1c-1.7-.2-2.8,1.1-3,3s.4,3.3,2.1,3.5a2.4,2.4,0,0,0,2.6-1.6c0-.2.1-.4.1-.7Z"
          style="fill: #fff" />
        <path
          d="M602.9,262a2.8,2.8,0,0,0,2.6,3.4,5.9,5.9,0,0,0,2.5-.2v1.2a6.2,6.2,0,0,1-2.9.2,4.1,4.1,0,0,1-3.8-4.9c.4-2.6,2.1-4.5,4.7-4.2s3.2,3,3,4.5-.1.6-.1.8Zm4.8-.5a2.4,2.4,0,0,0-1.9-2.9,2.6,2.6,0,0,0-2.7,2.3Z"
          style="fill: #fff" />
        <path
          d="M622.8,268.1a6.2,6.2,0,0,1-3.2.2c-3.4-.4-5.7-2.8-5.2-6.8a6,6,0,0,1,7-5.6,8,8,0,0,1,2.8.9l-.5,1.2a6.8,6.8,0,0,0-2.4-.7c-2.8-.4-4.9,1.2-5.3,4.4s1.1,5,4,5.4a6.9,6.9,0,0,0,2.6-.2Z"
          style="fill: #fff" />
        <path
          d="M632.8,265.3a4.3,4.3,0,0,1-4.8,4.1,4.1,4.1,0,0,1-3.6-5c.3-2.9,2.4-4.4,4.8-4.1S633.1,262.6,632.8,265.3Zm-6.8-.8c-.3,1.9.6,3.5,2.2,3.7s2.8-1.1,3-3.1-.3-3.4-2.2-3.6S626.2,262.9,626,264.5Z"
          style="fill: #fff" />
        <path
          d="M635,263.6c.1-.9.2-1.6.3-2.3h1.3v1.5h0a3.1,3.1,0,0,1,3.1-1.3c1.2.1,2.9,1.1,2.6,4l-.7,5.2-1.5-.2.6-5c.1-1.4-.2-2.6-1.7-2.8a2.1,2.1,0,0,0-2.3,1.4,1.4,1.4,0,0,0-.2.7l-.6,5.2-1.6-.2Z"
          style="fill: #fff" />
        <path
          d="M644.2,269.5a3.7,3.7,0,0,0,2,.8c1.1.2,1.7-.3,1.8-1s-.3-1.3-1.4-1.8-2.1-1.7-2-2.7,1.4-2.4,3.3-2.2a4,4,0,0,1,2.1.8l-.6,1.1a2.5,2.5,0,0,0-1.7-.7,1.2,1.2,0,0,0-1.6,1c-.1.7.4,1.1,1.5,1.6s2.1,1.6,1.9,2.9-1.4,2.5-3.5,2.2a4.6,4.6,0,0,1-2.4-.9Z"
          style="fill: #fff" />
        <path
          d="M654.5,261.1l-.3,2.4,2.3.3-.2,1.2-2.2-.3-.6,4.7c-.1,1.1.1,1.7,1,1.8a1.4,1.4,0,0,0,.9,0v1.2h-1.4a2.2,2.2,0,0,1-1.6-.9,2.8,2.8,0,0,1-.3-2.3l.5-4.8h-1.3v-1.2l1.4.2.2-2.1Z"
          style="fill: #fff" />
        <path
          d="M657.9,266.7q.1-1.5.3-2.7l1.3.2v1.7h.1a2.6,2.6,0,0,1,2.6-1.6h.4l-.2,1.5h-.5a2.1,2.1,0,0,0-2.3,1.7,1.9,1.9,0,0,0-.2.7l-.6,4.7-1.5-.2Z"
          style="fill: #fff" />
        <path
          d="M670.6,271.9c-.2.9-.2,1.7-.3,2.4l-1.3-.2v-1.4h0a3.4,3.4,0,0,1-3.1,1.2c-1.3-.1-2.9-1.1-2.5-4.1l.6-5.1,1.6.2-.6,4.8c-.2,1.6.2,2.8,1.6,3a2.4,2.4,0,0,0,2.3-1.2,1.9,1.9,0,0,0,.2-.8l.6-5.3,1.6.2Z"
          style="fill: #fff" />
        <path
          d="M679.1,275a6.3,6.3,0,0,1-2.6.2,4,4,0,0,1-3.7-4.9,4.4,4.4,0,0,1,5.2-4.1,6.4,6.4,0,0,1,2.1.7l-.5,1.2a3.4,3.4,0,0,0-1.8-.6c-2-.3-3.2,1.1-3.4,2.9A3,3,0,0,0,677,274a5.6,5.6,0,0,0,2-.2Z"
          style="fill: #fff" />
        <path
          d="M687,275.9a4.9,4.9,0,0,1-2.6.2,4,4,0,0,1-3.7-4.9,4.3,4.3,0,0,1,5.2-4,4.7,4.7,0,0,1,2.1.7l-.5,1.2a3.4,3.4,0,0,0-1.8-.7,3.3,3.3,0,0,0-.8,6.5,4,4,0,0,0,2-.2Z"
          style="fill: #fff" />
        <path
          d="M688.8,276.5l1-8.7,1.6.2-1,8.7Zm3.1-10.9a1.1,1.1,0,0,1-1.1.9,1.1,1.1,0,0,1-.9-1.1,1,1,0,0,1,1.1-.9A1.1,1.1,0,0,1,691.9,265.6Z"
          style="fill: #fff" />
        <path
          d="M701.3,273.5c-.4,3.2-2.7,4.4-4.8,4.1a4,4,0,0,1-3.6-4.9c.3-2.9,2.4-4.4,4.8-4.1S701.6,270.9,701.3,273.5Zm-6.8-.7c-.3,1.9.6,3.4,2.2,3.6s2.8-1.1,3-3-.3-3.4-2.2-3.6S694.6,271.1,694.5,272.8Zm5.9-7.5-2.5,2.3h-1.1l1.9-2.4Z"
          style="fill: #fff" />
        <path
          d="M703.5,271.9a23.2,23.2,0,0,0,.2-2.4l1.4.2v1.4h0a3.3,3.3,0,0,1,3.1-1.3c1.1.2,2.9,1.1,2.6,4.1l-.7,5.2-1.5-.2.6-5c.1-1.4-.2-2.6-1.7-2.8a2.2,2.2,0,0,0-2.3,1.3,1.9,1.9,0,0,0-.2.8l-.6,5.2-1.6-.2Z"
          style="fill: #fff" />
      </g>
    </g>
    <g class="hoverable" onclick="returnToGroups(); changeImage('rueda');">
      <circle cx="127.5" cy="207.7" r="105" style="fill: #bdc4c6" />
      <circle cx="127.5" cy="207.7" r="127" style="fill: none;stroke: #aab8bd;stroke-miterlimit: 10" />
      <g>
        <path d="M73.1,204.3H67.7v4.2h6v2.1H65.1V196.3h8.3v2.2H67.7v3.7h5.4Z" style="fill: #112025" />
        <path
          d="M86.2,210.2a9.2,9.2,0,0,1-3.7.6c-4.5,0-7.2-2.8-7.2-7.2s3.2-7.5,7.6-7.5a8.1,8.1,0,0,1,3.5.7l-.6,2a7,7,0,0,0-2.8-.5c-2.9,0-5,1.8-5,5.2s1.8,5.2,5,5.2a6.1,6.1,0,0,0,2.8-.6Z"
          style="fill: #112025" />
        <path
          d="M100.6,203.3c0,4.8-2.9,7.5-6.9,7.5s-6.5-3-6.5-7.2,2.7-7.5,6.7-7.5S100.6,199.3,100.6,203.3Zm-10.7.2c0,2.9,1.5,5.3,4,5.3s3.9-2.4,3.9-5.4-1.3-5.2-3.9-5.2S89.9,200.6,89.9,203.5Z"
          style="fill: #112025" />
        <path
          d="M102.8,210.6V196.3h3l3.7,6.2c.9,1.6,1.7,3.2,2.4,4.7h0c-.1-1.9-.2-3.7-.2-5.9v-5h2.4v14.3h-2.7l-3.7-6.3a45.9,45.9,0,0,1-2.6-4.9h0c.1,1.9.1,3.8.1,6.1v5.1Z"
          style="fill: #112025" />
        <path
          d="M129.8,203.3c0,4.8-2.9,7.5-6.9,7.5s-6.5-3-6.5-7.2,2.7-7.5,6.7-7.5S129.8,199.3,129.8,203.3Zm-10.7.2c0,2.9,1.5,5.3,4,5.3s3.9-2.4,3.9-5.4-1.3-5.2-3.9-5.2S119.1,200.6,119.1,203.5Zm7.4-10.5-2.7,2.5h-2l1.8-2.5Z"
          style="fill: #112025" />
        <path
          d="M144.1,204.8c-.1-1.8-.2-4.1-.2-6h-.1a43,43,0,0,1-1.7,5.5l-2,6.1H138l-1.9-6.1c-.5-1.8-1-3.7-1.4-5.5h0c-.1,1.9-.2,4.1-.3,6.1l-.3,5.7h-2.4l.9-14.3H136l1.9,5.8c.5,1.7,1,3.3,1.3,4.9h.1c.4-1.5.8-3.3,1.4-4.9l2-5.8H146l.9,14.3h-2.6Z"
          style="fill: #112025" />
        <path d="M152.1,196.3v14.3h-2.6V196.3Z" style="fill: #112025" />
        <path
          d="M165.3,210.2a9,9,0,0,1-3.6.6c-4.6,0-7.3-2.8-7.3-7.2s3.2-7.5,7.6-7.5a8.1,8.1,0,0,1,3.5.7l-.6,2a7,7,0,0,0-2.8-.5c-2.9,0-5,1.8-5,5.2s1.8,5.2,5,5.2a6.1,6.1,0,0,0,2.8-.6Z"
          style="fill: #112025" />
        <path
          d="M179.7,203.3c0,4.8-2.9,7.5-6.9,7.5s-6.5-3-6.5-7.2,2.7-7.5,6.7-7.5S179.7,199.3,179.7,203.3Zm-10.7.2c0,2.9,1.5,5.3,4,5.3s3.9-2.4,3.9-5.4-1.3-5.2-3.9-5.2S169,200.6,169,203.5Z"
          style="fill: #112025" />
        <path
          d="M181.8,207.8a7.5,7.5,0,0,0,3.5.9c1.7,0,2.6-.8,2.6-2s-.7-1.7-2.5-2.3-3.9-2.1-3.9-4.2,2-4.1,5-4.1a9.3,9.3,0,0,1,3.5.7l-.7,2.1a7.3,7.3,0,0,0-2.8-.6c-1.7,0-2.4.8-2.4,1.7s.9,1.6,2.8,2.3,3.6,2.2,3.6,4.2-1.7,4.3-5.4,4.3a7.9,7.9,0,0,1-3.8-.9Z"
          style="fill: #112025" />
      </g>
    </g>
  </g>
</svg>