<svg class="animate__animated" xmlns="http://www.w3.org/2000/svg" viewBox="0 0 420.5 541.8">
  <g>
    <g class="hoverable" onclick="returnToGroups();">
      <circle cx="127.5" cy="289" r="127" style="fill: none;stroke: #aab8bd;stroke-miterlimit: 10"/>
      <circle cx="127.5" cy="289" r="109" style="fill: #bdc4c6"/>
      <g>
        <path d="M70.1,290H64.7v4.2h6.1v2.1H62.1V282h8.3v2.2H64.7v3.7h5.4Z" style="fill: #112025"/>
        <path d="M83.3,295.9a9.6,9.6,0,0,1-3.7.6c-4.5,0-7.3-2.8-7.3-7.2s3.3-7.5,7.6-7.5a10,10,0,0,1,3.5.6l-.6,2.1A7,7,0,0,0,80,284c-2.9,0-5,1.8-5,5.2s1.9,5.2,5,5.2a6.9,6.9,0,0,0,2.8-.6Z" style="fill: #112025"/>
        <path d="M97.6,289c0,4.8-2.9,7.5-6.8,7.5s-6.6-3-6.6-7.2,2.8-7.5,6.8-7.5S97.6,285,97.6,289Zm-10.6.2c0,2.9,1.4,5.2,3.9,5.2s3.9-2.3,3.9-5.3-1.3-5.2-3.9-5.2S87,286.3,87,289.2Z" style="fill: #112025"/>
        <path d="M99.8,296.3V282h3l3.7,6.2a34.8,34.8,0,0,1,2.4,4.7h.1a54.1,54.1,0,0,1-.3-5.9v-5h2.4v14.3h-2.6l-3.8-6.3a45.2,45.2,0,0,1-2.5-4.9h-.1c.1,1.9.1,3.8.1,6.1v5.1Z" style="fill: #112025"/>
        <path d="M126.8,289c0,4.8-2.9,7.5-6.8,7.5s-6.6-3-6.6-7.2,2.8-7.5,6.8-7.5S126.8,285,126.8,289Zm-10.6.2c0,2.9,1.4,5.2,3.9,5.2s4-2.3,4-5.3-1.4-5.2-4-5.2S116.2,286.3,116.2,289.2Zm7.3-10.5-2.6,2.5h-2.1l1.8-2.5Z" style="fill: #112025"/>
        <path d="M141.1,290.5c-.1-1.9-.2-4.1-.2-6h0c-.5,1.7-1.1,3.7-1.7,5.5l-2.1,6.1h-2l-1.9-6.1a56.2,56.2,0,0,1-1.5-5.5h0c-.1,1.9-.1,4.1-.3,6.1l-.3,5.7h-2.4l.9-14.3h3.5l1.8,5.8c.5,1.7,1,3.3,1.3,4.9h.1c.4-1.5.9-3.3,1.4-4.9l2-5.8h3.4l.8,14.3h-2.5Z" style="fill: #112025"/>
        <path d="M149.2,282v14.3h-2.6V282Z" style="fill: #112025"/>
        <path d="M162.4,295.9a9.6,9.6,0,0,1-3.7.6c-4.5,0-7.3-2.8-7.3-7.2s3.3-7.5,7.6-7.5a10,10,0,0,1,3.5.6l-.6,2.1a7,7,0,0,0-2.8-.5c-2.9,0-5,1.8-5,5.2s1.9,5.2,5,5.2a6.9,6.9,0,0,0,2.8-.6Z" style="fill: #112025"/>
        <path d="M176.7,289c0,4.8-2.9,7.5-6.8,7.5s-6.6-3-6.6-7.2,2.8-7.5,6.8-7.5S176.7,285,176.7,289Zm-10.6.2c0,2.9,1.4,5.2,3.9,5.2s3.9-2.3,3.9-5.3-1.3-5.2-3.9-5.2S166.1,286.3,166.1,289.2Z" style="fill: #112025"/>
        <path d="M178.9,293.5a6.8,6.8,0,0,0,3.4.9c1.7,0,2.6-.8,2.6-2s-.7-1.7-2.5-2.3-3.9-2.1-3.9-4.2,2-4.1,5.1-4.1a7.2,7.2,0,0,1,3.4.7l-.6,2.1a5.8,5.8,0,0,0-2.9-.7c-1.6,0-2.3.9-2.3,1.8s.8,1.6,2.7,2.3,3.7,2.2,3.7,4.2-1.8,4.3-5.4,4.3a8.3,8.3,0,0,1-3.9-.9Z" style="fill: #112025"/>
      </g>
    </g>
    <g class="hoverable" onclick="showTypeInstrument('educacion-y-formacion');">
      <path d="M199.1,157.7A151,151,0,0,0,128.6,140L129.7,0a293.4,293.4,0,0,1,135,34Z" style="fill: #c95697;opacity: 0.62"/>
      <g>
        <path d="M149,74.7v1.2h-6.2V65.8H149v1.1h-4.9v3.4h4v1h-4v3.4Z" style="fill: #fff"/>
        <path d="M156.2,65.5V75.9h-.8a.3.3,0,0,1-.3-.3v-.9a3.1,3.1,0,0,1-1.1.9,2.8,2.8,0,0,1-1.3.4,2,2,0,0,1-1.1-.3c-.4-.1-.6-.4-.9-.7a3.7,3.7,0,0,1-.5-1.1,7.8,7.8,0,0,1-.2-1.6,5.9,5.9,0,0,1,.2-1.4l.6-1.2a3.9,3.9,0,0,1,1-.8,2.8,2.8,0,0,1,1.3-.3,2,2,0,0,1,1.1.3,1.6,1.6,0,0,1,.8.6v-4Zm-1.3,4.9a1.9,1.9,0,0,0-.7-.6l-1-.2a1.8,1.8,0,0,0-1.5.7,3.9,3.9,0,0,0-.5,2,4.1,4.1,0,0,0,.1,1.2,2,2,0,0,0,.4.8l.5.5h.8a2,2,0,0,0,1.1-.2,3,3,0,0,0,.8-.8Z" style="fill: #fff"/>
        <path d="M164,68.8v7.1h-.8a.3.3,0,0,1-.3-.3v-.8a4.8,4.8,0,0,1-1.1.9,2.5,2.5,0,0,1-1.3.3l-1-.2a2,2,0,0,1-.7-.6,2.2,2.2,0,0,1-.5-.8,3.7,3.7,0,0,1-.1-1.1V68.8h1.2v4.5a1.6,1.6,0,0,0,.4,1.2,1.3,1.3,0,0,0,1.1.5,1.7,1.7,0,0,0,1-.3l.9-.7V68.8Z" style="fill: #fff"/>
        <path d="M170.9,70h-.5l-.3-.2-.5-.2h-.7l-.9.2-.7.5-.4.9c0,.3-.1.7-.1,1.1a3.6,3.6,0,0,0,.2,1.1,1.9,1.9,0,0,0,.4.9l.6.5.9.2h.7l.5-.3.3-.2h.3c.1,0,.2,0,.2.1l.4.5-.5.4-.7.4-.7.2h-.7a2.8,2.8,0,0,1-1.3-.3l-1-.7a2.4,2.4,0,0,1-.6-1.1,4.1,4.1,0,0,1-.3-1.6,4,4,0,0,1,.3-1.5,2.4,2.4,0,0,1,.6-1.1,3.9,3.9,0,0,1,1-.8,3.6,3.6,0,0,1,1.5-.2,2.7,2.7,0,0,1,1.3.2l1,.7Z" style="fill: #fff"/>
        <path d="M172.4,69.8a3.8,3.8,0,0,1,1.3-.9,4,4,0,0,1,1.5-.3l1.1.2a2,2,0,0,1,.7.6,1.4,1.4,0,0,1,.5.8,4.3,4.3,0,0,1,.2,1.1v4.6h-.9a.3.3,0,0,1-.1-.2v-.7l-.6.4-.6.4-.6.2h-1.5c-.2-.1-.5-.2-.6-.4s-.4-.3-.5-.6a1.9,1.9,0,0,1-.1-.8,1.9,1.9,0,0,1,.2-.8,1.9,1.9,0,0,1,.8-.7l1.3-.5,2.1-.2v-.6a2.1,2.1,0,0,0-.4-1.2,1.2,1.2,0,0,0-1-.5l-.8.2-.6.2-.3.3h-.7Zm4.1,2.9H175l-1,.3a1,1,0,0,0-.5.4.6.6,0,0,0-.2.5.7.7,0,0,0,.1.5c0,.1.1.3.2.3l.4.2h1.1l.5-.2.4-.3.5-.4Z" style="fill: #fff"/>
        <path d="M184.5,70h-.1c0,.1-.1.1-.2.1H184l-.3-.2-.5-.2h-.6l-.9.2a1.8,1.8,0,0,0-.7.5,3.6,3.6,0,0,0-.4.9,3.1,3.1,0,0,0,0,2.2,1.9,1.9,0,0,0,.4.9,1.8,1.8,0,0,0,.7.5l.8.2h.8l.5-.3.3-.2h.5l.3.5a1,1,0,0,1-.5.4l-.6.4-.7.2h-.8a2.4,2.4,0,0,1-1.2-.3l-1-.7a4.1,4.1,0,0,1-.7-1.1,7.8,7.8,0,0,1-.2-1.6,3.8,3.8,0,0,1,.8-2.6l1.1-.8a3.2,3.2,0,0,1,1.4-.2,2.7,2.7,0,0,1,1.3.2l1,.7Z" style="fill: #fff"/>
        <path d="M187.8,66.5v.4l-.2.3h-1.3l-.2-.3v-.7l.2-.3.3-.2h.7l.3.2.2.3Zm-.2,2.3v7.1h-1.3V68.8Z" style="fill: #fff"/>
        <path d="M192.6,68.7a3.2,3.2,0,0,1,1.4.2,4.1,4.1,0,0,1,1.1.7,2.7,2.7,0,0,1,.6,1.2,3.9,3.9,0,0,1,0,3,2.7,2.7,0,0,1-.6,1.2,4.1,4.1,0,0,1-1.1.7,3.4,3.4,0,0,1-2.8,0,4.1,4.1,0,0,1-1.1-.7,2.7,2.7,0,0,1-.6-1.2,3.9,3.9,0,0,1,0-3,2.7,2.7,0,0,1,.6-1.2,4.1,4.1,0,0,1,1.1-.7A3.2,3.2,0,0,1,192.6,68.7Zm0,6.3a2.2,2.2,0,0,0,1.6-.7,3.7,3.7,0,0,0,.5-2,3.9,3.9,0,0,0-.5-2,2.2,2.2,0,0,0-1.6-.7l-.9.2a1.8,1.8,0,0,0-.7.5,2.5,2.5,0,0,0-.4.9,3.7,3.7,0,0,0-.1,1.1,3.7,3.7,0,0,0,.5,2A2.2,2.2,0,0,0,192.6,75Zm2.1-9.3L193,67.5l-.2.2h-1l1.1-1.7a.2.2,0,0,1,.2-.2h1.6Z" style="fill: #fff"/>
        <path d="M198.7,69.8l.5-.5.6-.3.6-.3h1.7l.8.6a2,2,0,0,1,.4.8,4.3,4.3,0,0,1,.2,1.1v4.6h-1.3V71.3a1.6,1.6,0,0,0-.4-1.2,1.3,1.3,0,0,0-1.1-.5,1.9,1.9,0,0,0-1,.3l-.9.7v5.3h-1.2V68.8h.7c.2,0,.3,0,.3.2Z" style="fill: #fff"/>
        <path d="M214.7,68.8l-3.9,9.1-.2.3h-1.2l1.3-2.9-2.9-6.6h1.3V69l1.9,4.5a1.4,1.4,0,0,1,.2.6c.1-.2.1-.4.2-.6l1.9-4.5v-.2h1.2Z" style="fill: #fff"/>
        <path d="M148.3,83.7v3.5h4.2v1.1h-4.2v4.4H147V82.6h6.2v1.1Z" style="fill: #fff"/>
        <path d="M157,85.5a3.2,3.2,0,0,1,1.4.2l1,.7a2.9,2.9,0,0,1,.7,1.2,3.9,3.9,0,0,1,0,3,2.9,2.9,0,0,1-.7,1.2l-1,.7a3.4,3.4,0,0,1-2.8,0,4.1,4.1,0,0,1-1.1-.7,4.7,4.7,0,0,1-.7-1.2,5.7,5.7,0,0,1,0-3,4.7,4.7,0,0,1,.7-1.2,4.1,4.1,0,0,1,1.1-.7A3.2,3.2,0,0,1,157,85.5Zm0,6.3a1.8,1.8,0,0,0,1.5-.7,3,3,0,0,0,.6-2,3.2,3.2,0,0,0-.6-2,1.8,1.8,0,0,0-1.5-.7l-.9.2a1.8,1.8,0,0,0-.7.5,2.5,2.5,0,0,0-.4.9,3.7,3.7,0,0,0-.1,1.1,3,3,0,0,0,.5,2A2,2,0,0,0,157,91.8Z" style="fill: #fff"/>
        <path d="M163.1,87a3.6,3.6,0,0,1,.8-1.2,2.8,2.8,0,0,1,1.2-.4h.8v1c0,.1-.1.1-.2.1h-1.3c-.2,0-.3.1-.5.3l-.3.4-.3.7v4.5h-1.3V85.6h1a.4.4,0,0,1,.1.3Z" style="fill: #fff"/>
        <path d="M167,92.7V85.6h.8c.1,0,.3,0,.3.2v.7a3.1,3.1,0,0,1,.9-.7,2,2,0,0,1,1.1-.3,2.1,2.1,0,0,1,1.2.3,2.4,2.4,0,0,1,.6,1.1c.1-.2.2-.5.4-.6s.3-.4.5-.5l.7-.3h1.7a1.3,1.3,0,0,1,.7.6,2.2,2.2,0,0,1,.5.8,3.7,3.7,0,0,1,.1,1.1v4.6h-1.2V88.1a1.6,1.6,0,0,0-.4-1.2,1.2,1.2,0,0,0-1-.5l-.6.2a.5.5,0,0,0-.5.3l-.3.5a1.9,1.9,0,0,0-.2.7v4.6h-1.2V88.1a1.9,1.9,0,0,0-.3-1.2,1.4,1.4,0,0,0-1.9-.2,2.3,2.3,0,0,0-.7.7v5.3Z" style="fill: #fff"/>
        <path d="M178.4,86.6a3.4,3.4,0,0,1,1.2-.9,4,4,0,0,1,1.5-.3l1.1.2a2.4,2.4,0,0,1,.8.6,2,2,0,0,1,.4.8,4.3,4.3,0,0,1,.2,1.1v4.6h-.8a.2.2,0,0,1-.2-.2v-.7l-.6.4-.5.4-.7.2h-1.5l-.6-.4a1.3,1.3,0,0,1-.4-.6,1.7,1.7,0,0,1,0-1.6,1.9,1.9,0,0,1,.8-.7l1.3-.5,2.1-.2v-.6a1.6,1.6,0,0,0-.4-1.2,1.2,1.2,0,0,0-1-.5l-.8.2-.5.2-.4.3h-.7Zm4,2.9h-1.5l-1,.3a1,1,0,0,0-.5.4c-.1.2-.2.3-.2.5a.7.7,0,0,0,.1.5c.1.1.1.3.2.3l.4.2H181l.5-.2.5-.3.4-.4Z" style="fill: #fff"/>
        <path d="M190.4,86.8c0,.1,0,.1-.1.1h-.4c0-.1-.2-.1-.3-.2l-.4-.2h-.7l-.9.2a1.8,1.8,0,0,0-.7.5,3.6,3.6,0,0,0-.4.9,6.1,6.1,0,0,0,0,2.2,3.9,3.9,0,0,0,.4.9,1.8,1.8,0,0,0,.7.5l.8.2h.8l.5-.3.3-.2h.5l.3.5a1,1,0,0,1-.5.4l-.6.4-.7.2h-.8a2.7,2.7,0,0,1-1.2-.3l-1-.7a4.1,4.1,0,0,1-.7-1.1,6.1,6.1,0,0,1,0-3.1,4.1,4.1,0,0,1,.7-1.1,2.7,2.7,0,0,1,1-.8,3.2,3.2,0,0,1,1.4-.2,2.5,2.5,0,0,1,1.3.2,4.1,4.1,0,0,1,1.1.7Z" style="fill: #fff"/>
        <path d="M193.8,83.3c0,.2-.1.3-.1.4l-.2.3h-1.3v-.3c-.1-.1-.1-.2-.1-.4a.4.4,0,0,1,.1-.3v-.3l.3-.2h.7l.3.2.2.3Zm-.3,2.3v7.1h-1.2V85.6Z" style="fill: #fff"/>
        <path d="M198.5,85.5a3.2,3.2,0,0,1,1.4.2,4.1,4.1,0,0,1,1.1.7,4.7,4.7,0,0,1,.7,1.2,5.7,5.7,0,0,1,0,3,4.7,4.7,0,0,1-.7,1.2,4.1,4.1,0,0,1-1.1.7,3.4,3.4,0,0,1-2.8,0,2.6,2.6,0,0,1-1-.7,2.9,2.9,0,0,1-.7-1.2,3.9,3.9,0,0,1,0-3,2.9,2.9,0,0,1,.7-1.2,2.6,2.6,0,0,1,1-.7A3.2,3.2,0,0,1,198.5,85.5Zm0,6.3a2,2,0,0,0,1.6-.7,3.7,3.7,0,0,0,.5-2,3.9,3.9,0,0,0-.5-2,2,2,0,0,0-1.6-.7l-.9.2a1.8,1.8,0,0,0-.7.5,2.4,2.4,0,0,0-.3.9,3.6,3.6,0,0,0-.2,1.1,3.7,3.7,0,0,0,.5,2A2.2,2.2,0,0,0,198.5,91.8Zm2.1-9.3-1.7,1.8c0,.1-.1.1-.2.2h-.9l1-1.7.2-.2h1.6Z" style="fill: #fff"/>
        <path d="M204.7,86.6l.4-.5.6-.3.6-.3H208l.8.6a2,2,0,0,1,.4.8,4.3,4.3,0,0,1,.2,1.1v4.6h-1.3V88.1a2.1,2.1,0,0,0-.3-1.2,1.7,1.7,0,0,0-1.2-.5,1.9,1.9,0,0,0-1,.3l-.9.7v5.3h-1.2V85.6h.7c.2,0,.3,0,.4.2Z" style="fill: #fff"/>
      </g>
    </g>
    <g class="hoverable" onclick="showTypeInstrument('voluntarios');">
      <path d="M257.2,211.9A152.9,152.9,0,0,0,205,161.1L276.1,40.5a292.8,292.8,0,0,1,99.7,97Z" style="fill: #c95697;opacity: 0.62"/>
      <g>
        <path d="M257.6,125.3l-4.1,10h-1.2l-4.1-10h1.4l.2.2,2.8,7.1c.1.1.1.3.2.5s.1.4.1.6l.2-.6a.8.8,0,0,1,.2-.5l2.8-7.1v-.2h1.4Z" style="fill: #fff"/>
        <path d="M260.6,128.1a3.2,3.2,0,0,1,1.4.3,2.6,2.6,0,0,1,1.1.7,2.3,2.3,0,0,1,.6,1.2,3.3,3.3,0,0,1,.3,1.5,4,4,0,0,1-.3,1.5,2.4,2.4,0,0,1-.6,1.1l-1.1.8-1.4.2-1.4-.2-1.1-.8a4.1,4.1,0,0,1-.7-1.1,7.7,7.7,0,0,1-.2-1.5,6.1,6.1,0,0,1,.2-1.5,3.5,3.5,0,0,1,.7-1.2,2.6,2.6,0,0,1,1.1-.7A3.2,3.2,0,0,1,260.6,128.1Zm0,6.3a1.9,1.9,0,0,0,1.6-.7,3.3,3.3,0,0,0,.5-1.9,3.7,3.7,0,0,0-.5-2,1.9,1.9,0,0,0-1.6-.7l-.9.2a1.8,1.8,0,0,0-.7.5,2,2,0,0,0-.4.8,4.9,4.9,0,0,0-.1,1.2,3.3,3.3,0,0,0,.5,1.9A1.9,1.9,0,0,0,260.6,134.4Z" style="fill: #fff"/>
        <path d="M266.8,125v10.3h-1.2V125Z" style="fill: #fff"/>
        <path d="M274.7,128.2v7.1h-.8l-.3-.2v-.8l-1,.8a3.2,3.2,0,0,1-1.4.3,2.2,2.2,0,0,1-1.7-.7,1.9,1.9,0,0,1-.5-.9,3.7,3.7,0,0,1-.1-1.1v-4.5H270v4.5a1.7,1.7,0,0,0,.4,1.3,1.2,1.2,0,0,0,1.1.4l1-.2a1.8,1.8,0,0,0,.9-.8v-5.2Z" style="fill: #fff"/>
        <path d="M277.8,129.3l.5-.5.6-.4.6-.2h.7l1,.2a1.6,1.6,0,0,1,.8.6,2,2,0,0,1,.4.8,3.6,3.6,0,0,1,.2,1.1v4.5h-1.3v-4.5a1.5,1.5,0,0,0-.4-1.2,1.3,1.3,0,0,0-1.1-.5,1.9,1.9,0,0,0-1,.3l-.9.7v5.2h-1.3v-7.1h.8a.3.3,0,0,1,.3.3Z" style="fill: #fff"/>
        <path d="M286.5,135.4a2,2,0,0,1-1.3-.4,2.1,2.1,0,0,1-.4-1.4v-4.3h-1c-.1,0-.1-.1-.1-.2v-.5h1.1l.3-2.2a.3.3,0,0,1,.1-.2h.8v2.5h2.1v.9H286v4.2a.9.9,0,0,0,.3.7l.5.2h.4l.2-.2h.5l.4.6-.8.5Z" style="fill: #fff"/>
        <path d="M289.2,129.2a3.5,3.5,0,0,1,1.3-.8,3.3,3.3,0,0,1,1.5-.3l1,.2.8.5a4.1,4.1,0,0,1,.5.9,3.7,3.7,0,0,1,.1,1.1v4.5h-.8a.4.4,0,0,1-.1-.3l-.2-.6-.5.4-.6.3-.6.3h-1.5l-.7-.3-.4-.6a2.5,2.5,0,0,1-.1-.9,1.3,1.3,0,0,1,.2-.8,2.3,2.3,0,0,1,.7-.7l1.4-.4a9.4,9.4,0,0,1,2-.3v-.5a2.3,2.3,0,0,0-.3-1.3,1.4,1.4,0,0,0-1.1-.4h-.7l-.6.3-.4.2-.3.2h-.2l-.2-.2Zm4,2.9-1.4.2-1,.2c-.3.2-.5.3-.6.5a.8.8,0,0,0-.2.5c0,.2.1.3.1.5l.3.3.4.2h1l.5-.2.5-.3.4-.4Z" style="fill: #fff"/>
        <path d="M297.5,129.6a4.4,4.4,0,0,1,.8-1.1,1.9,1.9,0,0,1,1.2-.4h.5l.3.2v.9c-.1.2-.1.2-.3.2h-1.3l-.4.3a1,1,0,0,0-.4.5l-.3.6v4.5h-1.3v-7.1h1c.1.1.1.1.1.3Z" style="fill: #fff"/>
        <path d="M303,126a.4.4,0,0,1-.1.3c0,.1-.1.2-.2.3a.2.2,0,0,1-.2.2h-.7l-.3-.2-.2-.3v-.6c.1-.2.1-.3.2-.3l.3-.2h.7a.2.2,0,0,1,.2.2c.1,0,.2.1.2.3A.4.4,0,0,1,303,126Zm-.2,2.2v7.1h-1.3v-7.1Z" style="fill: #fff"/>
        <path d="M307.8,128.1a3.2,3.2,0,0,1,1.4.3,1.8,1.8,0,0,1,1,.7,2.4,2.4,0,0,1,.7,1.2,3.3,3.3,0,0,1,.3,1.5,4,4,0,0,1-.3,1.5,2.6,2.6,0,0,1-.7,1.1,2.7,2.7,0,0,1-1,.8l-1.4.2-1.4-.2-1.1-.8a4.1,4.1,0,0,1-.7-1.1,7.7,7.7,0,0,1-.2-1.5,6.1,6.1,0,0,1,.2-1.5,3.5,3.5,0,0,1,.7-1.2,2.6,2.6,0,0,1,1.1-.7A3.2,3.2,0,0,1,307.8,128.1Zm0,6.3a1.9,1.9,0,0,0,1.6-.7,3.3,3.3,0,0,0,.5-1.9,3.7,3.7,0,0,0-.5-2,1.9,1.9,0,0,0-1.6-.7l-.9.2a1.8,1.8,0,0,0-.7.5,2,2,0,0,0-.4.8,4.9,4.9,0,0,0-.1,1.2,3.3,3.3,0,0,0,.5,1.9A1.8,1.8,0,0,0,307.8,134.4Z" style="fill: #fff"/>
        <path d="M316.9,129.4h-.5l-.4-.2-.4-.2h-1.2l-.4.2c-.2.1-.3.2-.3.4s-.1.2-.1.4,0,.3.1.4.3.3.5.3l.5.3.7.2.7.3.6.3a1,1,0,0,1,.4.5,1.9,1.9,0,0,1,.2.7,3,3,0,0,1-.2,1l-.5.7-.9.5h-1.1l-1.4-.2-1-.6.3-.5h.6l.3.2.5.2h1.4l.4-.2c.2-.1.2-.2.3-.4a.6.6,0,0,0,.1-.4.8.8,0,0,0-.2-.5.8.8,0,0,0-.4-.4l-.6-.2-.7-.2-.6-.3-.6-.3a1.3,1.3,0,0,1-.4-.6,1.4,1.4,0,0,1-.2-.7,1.9,1.9,0,0,1,.2-.8,1.2,1.2,0,0,1,.5-.7l.8-.4,1-.2,1.3.2.9.6Z" style="fill: #fff"/>
      </g>
    </g>
    <g class="hoverable" onclick="showTypeInstrument('reparto-de-cargas-y-beneficios');">
      <path d="M280.4,287.6a150.6,150.6,0,0,0-19.6-69.9l121.8-68.9a292.9,292.9,0,0,1,37.7,134Z" style="fill: #cb5c9e;opacity: 0.62"/>
      <g>
        <path d="M313.5,223.3h-1.2a.5.5,0,0,1-.5-.3l-2.6-3.6-.3-.2h-1.4v4.2h-1.4v-10h2.8l1.7.2,1.1.5a2.8,2.8,0,0,1,.7.9,4.3,4.3,0,0,1,.2,1.2,1.8,1.8,0,0,1-.2,1,3,3,0,0,1-.4.8l-.8.6-1.1.4a1,1,0,0,1,.5.4Zm-4.6-5.2h1a2,2,0,0,0,.8-.4l.4-.6a2.4,2.4,0,0,0,.2-.8,1.7,1.7,0,0,0-.6-1.4,3,3,0,0,0-1.8-.4h-1.4v3.7Z" style="fill: #fff"/>
        <path d="M319.9,222.3l-.6.5a1.5,1.5,0,0,1-.7.3l-.7.2h-.8l-1.4-.2a2.5,2.5,0,0,1-1-.8,2.6,2.6,0,0,1-.7-1.1,4.7,4.7,0,0,1-.3-1.7,3.5,3.5,0,0,1,.3-1.4,2.4,2.4,0,0,1,.6-1.1l1-.7a3.5,3.5,0,0,1,1.4-.3l1.2.2,1,.6.6,1a5.9,5.9,0,0,1,.2,1.4c0,.2,0,.3-.1.4H315a3.7,3.7,0,0,0,.1,1.1,3.6,3.6,0,0,0,.5.9,1.8,1.8,0,0,0,.7.5H318l.6-.2.4-.2.3-.2.2.2Zm-1-3.3c0-.3-.1-.6-.1-.8a2.1,2.1,0,0,0-.4-.6l-.6-.4-.7-.2a2,2,0,0,0-1.5.6,2.6,2.6,0,0,0-.6,1.4Z" style="fill: #fff"/>
        <path d="M322.7,217.3l1-.9a3.2,3.2,0,0,1,1.4-.3l1.1.2.9.7a3.3,3.3,0,0,1,.5,1.2,6.1,6.1,0,0,1,.2,1.5,7.7,7.7,0,0,1-.2,1.5l-.6,1.2-1,.7a2.8,2.8,0,0,1-1.3.3l-1.1-.2-.8-.6v3.1h-1.3v-9.5h.8a.3.3,0,0,1,.3.3Zm.1,4.3a4.6,4.6,0,0,0,.7.7h.9a1.9,1.9,0,0,0,1.6-.7,3.4,3.4,0,0,0,.5-2c0-.4-.1-.8-.1-1.2a2,2,0,0,0-.4-.8.9.9,0,0,0-.6-.4l-.7-.2a2,2,0,0,0-1.1.3,2,2,0,0,0-.8.8Z" style="fill: #fff"/>
        <path d="M329.2,217.2a3.5,3.5,0,0,1,1.3-.8,3.3,3.3,0,0,1,1.5-.3l1,.2.8.5a4.1,4.1,0,0,1,.5.9,3.7,3.7,0,0,1,.1,1.1v4.5h-.8l-.2-.3v-.6l-.5.4-.6.3-.6.3h-1.5l-.7-.3a2.1,2.1,0,0,1-.4-.6,2.4,2.4,0,0,1-.2-.9,1.6,1.6,0,0,1,.3-.8,2.3,2.3,0,0,1,.7-.7l1.4-.4a9.4,9.4,0,0,1,2-.3v-.5a2.3,2.3,0,0,0-.3-1.3,1.4,1.4,0,0,0-1.1-.4H331l-.5.3-.4.2-.3.2h-.2l-.2-.2Zm4,2.9-1.5.2-.9.2c-.3.2-.5.3-.6.5a.8.8,0,0,0-.2.5c0,.2.1.3.1.5l.3.3.3.2h1.1l.5-.2.5-.3.4-.4Z" style="fill: #fff"/>
        <path d="M337.5,217.6a4.4,4.4,0,0,1,.8-1.1,1.9,1.9,0,0,1,1.2-.4h.5l.3.2v.9c0,.2-.1.2-.2.2h-1.3l-.5.3-.3.5-.3.6v4.5h-1.3v-7.1h1c.1.1.1.1.1.3Z" style="fill: #fff"/>
        <path d="M343.6,223.4a1.7,1.7,0,0,1-1.3-.4,2.1,2.1,0,0,1-.4-1.4v-4.3h-1.1v-.7h1.2l.3-2.2c0-.1,0-.2.1-.2h.8v2.5h2.1v.9h-2.1v4.2a1.4,1.4,0,0,0,.2.7l.6.2h.3l.3-.2h.4l.4.6-.8.5Z" style="fill: #fff"/>
        <path d="M349.4,216.1a3.2,3.2,0,0,1,1.4.3,2.6,2.6,0,0,1,1.1.7,2.3,2.3,0,0,1,.6,1.2,3.3,3.3,0,0,1,.3,1.5,4,4,0,0,1-.3,1.5,2.4,2.4,0,0,1-.6,1.1l-1.1.8-1.4.2-1.4-.2-1.1-.8a4.1,4.1,0,0,1-.7-1.1,7.7,7.7,0,0,1-.2-1.5,6.1,6.1,0,0,1,.2-1.5,3.5,3.5,0,0,1,.7-1.2,2.6,2.6,0,0,1,1.1-.7A3.2,3.2,0,0,1,349.4,216.1Zm0,6.3a1.9,1.9,0,0,0,1.6-.7,3.3,3.3,0,0,0,.5-1.9,3.7,3.7,0,0,0-.5-2,1.9,1.9,0,0,0-1.6-.7l-.9.2a1.8,1.8,0,0,0-.7.5,2,2,0,0,0-.4.8,4.9,4.9,0,0,0-.1,1.2,3.3,3.3,0,0,0,.5,1.9A1.9,1.9,0,0,0,349.4,222.4Z" style="fill: #fff"/>
        <path d="M363.8,213v10.3h-.7a.5.5,0,0,1-.4-.2v-.9a2.8,2.8,0,0,1-1,.9,3.2,3.2,0,0,1-1.4.3l-1.1-.2a2.7,2.7,0,0,1-.8-.7,3.9,3.9,0,0,1-.6-1.1,7.8,7.8,0,0,1-.2-1.6,4,4,0,0,1,.3-1.5,2.4,2.4,0,0,1,.6-1.1,1.8,1.8,0,0,1,.9-.8,2.8,2.8,0,0,1,1.3-.3l1.1.2.8.6V213Zm-1.3,4.9a1.3,1.3,0,0,0-.7-.6,1.5,1.5,0,0,0-.9-.2,1.6,1.6,0,0,0-1.5.7,3,3,0,0,0-.6,2c0,.5.1.9.1,1.2a2,2,0,0,0,.4.8c.2.2.3.4.6.5h.7a2,2,0,0,0,1.1-.3,2,2,0,0,0,.8-.8Z" style="fill: #fff"/>
        <path d="M371.5,222.3l-.5.5-.7.3-.8.2h-.8l-1.3-.2a2.8,2.8,0,0,1-1.1-.8,4.1,4.1,0,0,1-.7-1.1,4.7,4.7,0,0,1-.2-1.7,3.4,3.4,0,0,1,.2-1.4,3.9,3.9,0,0,1,.6-1.1,4.1,4.1,0,0,1,1.1-.7,3.2,3.2,0,0,1,1.4-.3l1.2.2.9.6a2.1,2.1,0,0,1,.6,1,3.2,3.2,0,0,1,.2,1.4v.4h-5a3.6,3.6,0,0,0,.2,1.1,1.9,1.9,0,0,0,.4.9l.7.5h1.8l.5-.2.4-.2.3-.2.3.2Zm-1-3.3a1.9,1.9,0,0,0-.1-.8l-.4-.6a1,1,0,0,0-.5-.4l-.8-.2a1.7,1.7,0,0,0-1.4.6,2.1,2.1,0,0,0-.7,1.4Z" style="fill: #fff"/>
        <path d="M319.9,234.3h-.5l-.3-.2-.4-.2H318a1.3,1.3,0,0,0-.9.2,1.8,1.8,0,0,0-.7.5,1.9,1.9,0,0,0-.4.9,6.1,6.1,0,0,0,0,2.2l.4.9a1.8,1.8,0,0,0,.7.5h1.6l.5-.2.3-.2.3-.2.2.2.3.4-.5.5-.6.4-.7.2h-.8l-1.2-.2-1-.7a4.7,4.7,0,0,1-.7-1.2,5.7,5.7,0,0,1,0-3,7.5,7.5,0,0,1,.7-1.2,2.6,2.6,0,0,1,1-.7,3.2,3.2,0,0,1,1.4-.3,2.5,2.5,0,0,1,1.3.3,2.4,2.4,0,0,1,1.1.6Z" style="fill: #fff"/>
        <path d="M321.5,234a3.5,3.5,0,0,1,1.3-.8,3.3,3.3,0,0,1,1.5-.3l1,.2.8.5a4.1,4.1,0,0,1,.5.9,3.7,3.7,0,0,1,.1,1.1v4.5h-.8a.4.4,0,0,1-.1-.3l-.2-.6-.5.4-.6.3-.6.3h-1.5l-.7-.3-.4-.6a2.4,2.4,0,0,1-.2-.9,1.6,1.6,0,0,1,.3-.8l.7-.7,1.4-.4a9.4,9.4,0,0,1,2-.3v-.5a2.3,2.3,0,0,0-.3-1.3,1.4,1.4,0,0,0-1.1-.4h-.8l-.5.3-.4.2-.3.2h-.2l-.2-.2Zm4,2.9-1.4.2-1,.2c-.3.2-.5.3-.6.5a.8.8,0,0,0-.2.5c0,.2.1.3.1.5l.3.3a.5.5,0,0,0,.4.2h1l.5-.2.5-.3.4-.4Z" style="fill: #fff"/>
        <path d="M329.8,234.4a4.4,4.4,0,0,1,.8-1.1,1.9,1.9,0,0,1,1.2-.4h.5l.3.2v.9c0,.2,0,.2-.2.2H331l-.4.3a1,1,0,0,0-.4.5l-.3.6v4.5h-1.3V233h1c.1.1.1.1.1.3Z" style="fill: #fff"/>
        <path d="M339.6,233.3v.5l-.3.3h-.8a3,3,0,0,1,.2,1,2.9,2.9,0,0,1-.2.9,1.6,1.6,0,0,1-.6.8l-.8.4-1.1.2h-.9l-.3.3-.2.3a.8.8,0,0,0,.2.4h3.1l.8.2a1.2,1.2,0,0,1,.5.5,1.1,1.1,0,0,1,.2.8,1.5,1.5,0,0,1-.2.9c-.1.3-.4.5-.6.7a3.9,3.9,0,0,1-1.1.6l-1.4.2-1.3-.2a2.3,2.3,0,0,1-1-.4l-.6-.6a1.9,1.9,0,0,1-.2-.7,1.2,1.2,0,0,1,.3-.9l.9-.6-.5-.3a1.5,1.5,0,0,1-.1-.7V238l.2-.3.3-.3.4-.3a2.4,2.4,0,0,1-.9-.8,3.6,3.6,0,0,1-.2-1.1,1.6,1.6,0,0,1,.2-1l.5-.7a1.9,1.9,0,0,1,.9-.4l1-.2h.9l.7.3Zm-1.3,7.2a.5.5,0,0,0-.2-.4l-.4-.3H335a1,1,0,0,0-.6.5.9.9,0,0,0-.3.6.9.9,0,0,0,.1.5l.4.3.6.3H337l.7-.3.4-.4A.8.8,0,0,0,338.3,240.5Zm-2.3-3.8.7-.2.5-.2.3-.5c0-.2.1-.4.1-.6a1.5,1.5,0,0,0-.4-1,1.6,1.6,0,0,0-1.2-.4,1.4,1.4,0,0,0-1.1.4,1.2,1.2,0,0,0-.4,1,1.3,1.3,0,0,0,.1.6l.3.5.5.2Z" style="fill: #fff"/>
        <path d="M340.7,234a4.2,4.2,0,0,1,1.2-.8l1.5-.3,1.1.2.8.5.5.9a3.7,3.7,0,0,1,.1,1.1v4.5h-.8l-.2-.3v-.6l-.6.4a.9.9,0,0,1-.5.3l-.6.3h-1.6l-.6-.3-.4-.6a2.4,2.4,0,0,1-.2-.9,3.1,3.1,0,0,1,.2-.8l.8-.7a4,4,0,0,1,1.3-.4,11.8,11.8,0,0,1,2.1-.3v-.5a1.7,1.7,0,0,0-.4-1.3,1.1,1.1,0,0,0-1-.4h-.8l-.5.3-.4.2-.3.2H341v-.2Zm4,2.9-1.5.2-1,.2-.5.5a.8.8,0,0,0-.2.5.9.9,0,0,0,.1.5l.3.3.3.2h1.1l.5-.2.5-.3.4-.4Z" style="fill: #fff"/>
        <path d="M351.9,234.2c0,.1-.1.1-.2.1h-.3c0-.1-.2-.1-.3-.2l-.4-.2h-1.2l-.5.2a.5.5,0,0,0-.2.4c-.1.1-.1.2-.1.4s0,.3.1.4l.4.3.6.3.7.2.7.3.6.3.4.5a1.7,1.7,0,0,1,.1.7,3.1,3.1,0,0,1-.1,1c-.2.2-.3.5-.6.7l-.8.5h-1.1l-1.4-.2-1-.6.3-.5h.6l.3.2.5.2h1.4l.4-.2.3-.4c0-.1.1-.3.1-.4a.8.8,0,0,0-.2-.5l-.4-.4-.6-.2-.7-.2-.7-.3-.5-.3c-.2-.2-.4-.3-.5-.6a1.5,1.5,0,0,1-.1-.7,1.9,1.9,0,0,1,.1-.8l.5-.7.8-.4,1.1-.2,1.3.2.9.6Z" style="fill: #fff"/>
        <path d="M363.2,233l-3.9,9.2-.2.2h-1.2l1.3-2.8-2.9-6.7h1.3c.1.1.1.1.1.2l1.9,4.5a1.1,1.1,0,0,1,.2.6,6.4,6.4,0,0,1,.2-.7l1.9-4.4c0-.1,0-.2.1-.2h1.2Z" style="fill: #fff"/>
        <path d="M309.5,250.8l1-.8a2.8,2.8,0,0,1,1.3-.3,2.4,2.4,0,0,1,1.2.3,1.6,1.6,0,0,1,.8.6,3.7,3.7,0,0,1,.5,1.1,3.6,3.6,0,0,1,.2,1.5,4.1,4.1,0,0,1-.2,1.6,3.4,3.4,0,0,1-.6,1.2,2,2,0,0,1-.9.7,2.8,2.8,0,0,1-1.3.3l-1.2-.2a3,3,0,0,1-.8-.8v.7c0,.1-.1.2-.3.2h-.8V246.6h1.2Zm0,4.4.8.7h.9a1.7,1.7,0,0,0,1.5-.7,3,3,0,0,0,.5-2.1,3.4,3.4,0,0,0-.4-1.9,1.9,1.9,0,0,0-2.4-.3,3.2,3.2,0,0,0-.9.8Z" style="fill: #fff"/>
        <path d="M321.9,255.9l-.6.5a1.5,1.5,0,0,1-.7.3l-.7.2h-.8l-1.4-.2a2.5,2.5,0,0,1-1-.8,2.6,2.6,0,0,1-.7-1.1,4.7,4.7,0,0,1-.3-1.7,6.8,6.8,0,0,1,.2-1.4,4.1,4.1,0,0,1,.7-1.1l1-.7a3.2,3.2,0,0,1,1.4-.3l1.2.2.9.6a3.6,3.6,0,0,1,.7,1,5.9,5.9,0,0,1,.2,1.4c0,.2,0,.3-.1.4h-5c.1.4.1.8.2,1.1a1.9,1.9,0,0,0,.5.9,1.8,1.8,0,0,0,.7.5H320l.6-.2.4-.2.3-.2.2.2Zm-1-3.3a1.9,1.9,0,0,0-.2-.8c0-.2-.2-.4-.3-.6l-.6-.4-.8-.2a1.8,1.8,0,0,0-1.4.6,2.6,2.6,0,0,0-.6,1.4Z" style="fill: #fff"/>
        <path d="M324.7,250.9l.5-.5a1,1,0,0,1,.5-.4l.6-.2h.7l1.1.2a1.3,1.3,0,0,1,.7.6,2.2,2.2,0,0,1,.5.8,3.7,3.7,0,0,1,.1,1.1v4.5h-1.2v-4.5a1.9,1.9,0,0,0-.4-1.2,1.4,1.4,0,0,0-1.1-.5,2.3,2.3,0,0,0-1.1.3,2.7,2.7,0,0,0-.8.7v5.2h-1.3v-7.1h.8l.3.3Z" style="fill: #fff"/>
        <path d="M337.1,255.9l-.6.5a1.5,1.5,0,0,1-.7.3l-.7.2h-.8l-1.4-.2a2.5,2.5,0,0,1-1-.8,2.6,2.6,0,0,1-.7-1.1,4.7,4.7,0,0,1-.3-1.7,6.8,6.8,0,0,1,.2-1.4,4.1,4.1,0,0,1,.7-1.1l1-.7a3.2,3.2,0,0,1,1.4-.3l1.2.2.9.6a3.6,3.6,0,0,1,.7,1,5.9,5.9,0,0,1,.2,1.4c0,.2,0,.3-.1.4h-5c.1.4.1.8.2,1.1a1.9,1.9,0,0,0,.5.9,1.8,1.8,0,0,0,.7.5h1.7l.6-.2.4-.2.3-.2a.2.2,0,0,1,.2.2Zm-1-3.3a1.9,1.9,0,0,0-.2-.8c0-.2-.2-.4-.3-.6l-.6-.4-.8-.2a2,2,0,0,0-1.4.6,2.6,2.6,0,0,0-.6,1.4Z" style="fill: #fff"/>
        <path d="M339.1,256.9v-6h-1V250h1.1v-.4a3.7,3.7,0,0,1,.2-1.2l.6-1,1-.6,1.4-.2h1.1v.6h-.6a2.4,2.4,0,0,0-1.8.6,1.8,1.8,0,0,0-.6,1.5v.4h4.3v6.9h-1.2v-6h-3v6Z" style="fill: #fff"/>
        <path d="M351.6,251.1h-.5l-.3-.2-.5-.2h-.6a1.6,1.6,0,0,0-1,.2,1.5,1.5,0,0,0-.6.5,1.9,1.9,0,0,0-.4.9,3.1,3.1,0,0,0,0,2.2,3.6,3.6,0,0,0,.4.9l.6.5h1.6l.5-.2.4-.2.2-.2.3.2.3.4c-.2.2-.3.4-.5.5l-.7.4-.7.2h-.7l-1.3-.2-1-.7a4.5,4.5,0,0,1-.6-1.2,5.7,5.7,0,0,1,0-3,3.4,3.4,0,0,1,.6-1.2,3,3,0,0,1,1.1-.7,2.9,2.9,0,0,1,1.4-.3,2.8,2.8,0,0,1,1.3.3,2.1,2.1,0,0,1,1,.6Z" style="fill: #fff"/>
        <path d="M354.9,247.6a.4.4,0,0,1-.1.3l-.2.3a.2.2,0,0,1-.2.2h-.7l-.3-.2-.2-.3v-.6c.1-.2.1-.3.2-.3l.3-.2h.7l.2.2c.1,0,.2.1.2.3A.4.4,0,0,1,354.9,247.6Zm-.2,2.2v7.1h-1.3v-7.1Z" style="fill: #fff"/>
        <path d="M359.7,249.7a3.2,3.2,0,0,1,1.4.3,2.6,2.6,0,0,1,1.1.7,5.4,5.4,0,0,1,.9,2.7,4,4,0,0,1-.3,1.5,3.9,3.9,0,0,1-.6,1.1l-1.1.8-1.4.2-1.4-.2-1.1-.8a4.1,4.1,0,0,1-.7-1.1,7.7,7.7,0,0,1-.2-1.5,6.1,6.1,0,0,1,.2-1.5,3.5,3.5,0,0,1,.7-1.2,2.6,2.6,0,0,1,1.1-.7A3.2,3.2,0,0,1,359.7,249.7Zm0,6.3a1.9,1.9,0,0,0,1.6-.7,3.3,3.3,0,0,0,.5-1.9,3.7,3.7,0,0,0-.5-2,1.9,1.9,0,0,0-1.6-.7l-.9.2a1.8,1.8,0,0,0-.7.5,2,2,0,0,0-.4.8,4.9,4.9,0,0,0-.1,1.2,3.3,3.3,0,0,0,.5,1.9A1.8,1.8,0,0,0,359.7,256Z" style="fill: #fff"/>
        <path d="M368.8,251h-.5l-.4-.2-.4-.2h-1.2l-.4.2c-.2.1-.3.2-.3.4s-.1.2-.1.4,0,.3.1.4.3.3.5.3l.6.3.6.2.7.3.6.3a1,1,0,0,1,.4.5,1.9,1.9,0,0,1,.2.7,3,3,0,0,1-.2,1l-.5.7-.9.5h-1.1l-1.4-.2-1-.6.3-.5h.6l.3.2.5.2h1.4l.4-.2c.2-.1.2-.2.3-.4a.6.6,0,0,0,.1-.4.8.8,0,0,0-.2-.5.8.8,0,0,0-.4-.4l-.6-.2-.6-.2-.7-.3-.6-.3a1.3,1.3,0,0,1-.4-.6,1.4,1.4,0,0,1-.2-.7,1.9,1.9,0,0,1,.2-.8,1.2,1.2,0,0,1,.5-.7,1.5,1.5,0,0,1,.8-.4l1-.2,1.3.2.9.6Z" style="fill: #fff"/>
      </g>
    </g>
    <g class="hoverable" onclick="showTypeInstrument('economicos-o-de-mercado');">
      <path d="M386.1,430.9l-123.5-66a152,152,0,0,0,17.9-70.4l140,1.4A295,295,0,0,1,386.1,430.9Z" style="fill: #cb5c9e;opacity: 0.62"/>
      <g>
        <path d="M299.6,337.2v1.1h-6.2v-10h6.2v1.1h-4.8v3.3h3.9v1.1h-3.9v3.4Z" style="fill: #fff"/>
        <path d="M305.8,332.5a.1.1,0,0,0-.1.1h-.4l-.3-.2-.5-.2h-.6a1.6,1.6,0,0,0-1,.2,1.5,1.5,0,0,0-.6.5,1.9,1.9,0,0,0-.4.9,3.1,3.1,0,0,0,0,2.2,3.6,3.6,0,0,0,.4.9l.6.5h1.6l.5-.2.4-.2.2-.2.3.2.3.4-.5.5-.7.4-.7.2h-.7l-1.3-.2-1-.7a4.5,4.5,0,0,1-.6-1.2,5.7,5.7,0,0,1,0-3,3.4,3.4,0,0,1,.6-1.2,3,3,0,0,1,1.1-.7,2.9,2.9,0,0,1,1.4-.3,2.8,2.8,0,0,1,1.3.3,2.1,2.1,0,0,1,1,.6Z" style="fill: #fff"/>
        <path d="M310.4,331.1a3.2,3.2,0,0,1,1.4.3,2.6,2.6,0,0,1,1.1.7,2.3,2.3,0,0,1,.6,1.2,3.3,3.3,0,0,1,.3,1.5,4,4,0,0,1-.3,1.5,2.4,2.4,0,0,1-.6,1.1l-1.1.8-1.4.2-1.4-.2-1.1-.8a4.1,4.1,0,0,1-.7-1.1,7.7,7.7,0,0,1-.2-1.5,6.1,6.1,0,0,1,.2-1.5,3.5,3.5,0,0,1,.7-1.2,2.6,2.6,0,0,1,1.1-.7A3.2,3.2,0,0,1,310.4,331.1Zm0,6.3a1.9,1.9,0,0,0,1.6-.7,3.3,3.3,0,0,0,.5-1.9,3.7,3.7,0,0,0-.5-2,1.9,1.9,0,0,0-1.6-.7l-.9.2a1.8,1.8,0,0,0-.7.5,2,2,0,0,0-.4.8,4.9,4.9,0,0,0-.1,1.2,3.3,3.3,0,0,0,.5,1.9A1.9,1.9,0,0,0,310.4,337.4Z" style="fill: #fff"/>
        <path d="M316.5,332.3c.2-.2.3-.4.5-.5l.6-.4.6-.2h.7l1,.2a1.1,1.1,0,0,1,.7.6,2.2,2.2,0,0,1,.5.8,3.6,3.6,0,0,1,.2,1.1v4.5H320v-4.5a1.5,1.5,0,0,0-.4-1.2,1.3,1.3,0,0,0-1.1-.5,1.7,1.7,0,0,0-1,.3l-.9.7v5.2h-1.3v-7.1h.8a.3.3,0,0,1,.3.3Z" style="fill: #fff"/>
        <path d="M326.1,331.1a2.9,2.9,0,0,1,1.4.3,2.1,2.1,0,0,1,1.1.7,3.5,3.5,0,0,1,.7,1.2,6.1,6.1,0,0,1,.2,1.5,7.7,7.7,0,0,1-.2,1.5,4.1,4.1,0,0,1-.7,1.1,3.1,3.1,0,0,1-1.1.8l-1.4.2-1.4-.2a3.9,3.9,0,0,1-1-.8,4.1,4.1,0,0,1-.7-1.1,3.9,3.9,0,0,1-.2-1.5,3.4,3.4,0,0,1,.2-1.5,3.5,3.5,0,0,1,.7-1.2,2.3,2.3,0,0,1,1-.7A3.5,3.5,0,0,1,326.1,331.1Zm0,6.3a1.8,1.8,0,0,0,1.6-.7,2.7,2.7,0,0,0,.5-1.9,3,3,0,0,0-.5-2,1.8,1.8,0,0,0-1.6-.7l-.9.2a1.5,1.5,0,0,0-.6.5,2,2,0,0,0-.4.8,5,5,0,0,0-.2,1.2,2.7,2.7,0,0,0,.6,1.9A1.6,1.6,0,0,0,326.1,337.4Zm2.1-9.2-1.6,1.8h-1.2l1-1.7c.1-.1.2-.2.2-.3h1.6Z" style="fill: #fff"/>
        <path d="M331.1,338.3v-7.1h.7c.2,0,.3.1.4.3v.7a3,3,0,0,1,.8-.8,2.7,2.7,0,0,1,1.2-.3,1.4,1.4,0,0,1,1.1.4,3,3,0,0,1,.7,1.1,1.6,1.6,0,0,1,.4-.7,1,1,0,0,1,.5-.4c.2-.2.4-.2.7-.3h.6l1,.2.8.5a3.6,3.6,0,0,1,.5.9,3.7,3.7,0,0,1,.1,1.1v4.5h-1.2v-4.5a2.2,2.2,0,0,0-.4-1.3,1.6,1.6,0,0,0-1.1-.4h-.5l-.5.3a2.1,2.1,0,0,0-.4.6c0,.2-.1.4-.1.7v4.5h-1.2v-4.5a1.7,1.7,0,0,0-.4-1.3,1.1,1.1,0,0,0-1-.4,1.1,1.1,0,0,0-.8.3,1.3,1.3,0,0,0-.7.6v5.3Z" style="fill: #fff"/>
        <path d="M344.2,329a.4.4,0,0,1-.1.3l-.2.3-.3.2H343c-.2,0-.2-.1-.3-.2l-.2-.3a.5.5,0,0,1,0-.6c0-.2.1-.3.2-.3s.1-.2.3-.2h.6l.3.2c.1,0,.2.1.2.3A.4.4,0,0,1,344.2,329Zm-.3,2.2v7.1h-1.2v-7.1Z" style="fill: #fff"/>
        <path d="M350.9,332.5h-.5l-.3-.2-.5-.2H349c-.4,0-.7,0-.9.2a1.8,1.8,0,0,0-.7.5,1.9,1.9,0,0,0-.4.9,3.1,3.1,0,0,0,0,2.2,3.6,3.6,0,0,0,.4.9,1.8,1.8,0,0,0,.7.5h1.6l.5-.2.3-.2.2-.2.3.2.3.4-.5.5-.6.4-.7.2h-.8l-1.2-.2a2.6,2.6,0,0,1-1-.7,4.7,4.7,0,0,1-.7-1.2,6.8,6.8,0,0,1-.2-1.5,3.6,3.6,0,0,1,.2-1.5,6.7,6.7,0,0,1,.6-1.2,4.1,4.1,0,0,1,1.1-.7,3.2,3.2,0,0,1,1.4-.3,2.8,2.8,0,0,1,1.3.3,2.1,2.1,0,0,1,1,.6Z" style="fill: #fff"/>
        <path d="M355.5,331.1a3.2,3.2,0,0,1,1.4.3,2.6,2.6,0,0,1,1.1.7,3.5,3.5,0,0,1,.7,1.2,6.1,6.1,0,0,1,.2,1.5,7.7,7.7,0,0,1-.2,1.5,4.1,4.1,0,0,1-.7,1.1l-1.1.8-1.4.2-1.4-.2-1.1-.8a2.4,2.4,0,0,1-.6-1.1,4,4,0,0,1-.3-1.5,3.3,3.3,0,0,1,.3-1.5,2.3,2.3,0,0,1,.6-1.2,2.6,2.6,0,0,1,1.1-.7A3.2,3.2,0,0,1,355.5,331.1Zm0,6.3a1.9,1.9,0,0,0,1.6-.7,3.3,3.3,0,0,0,.5-1.9,3.7,3.7,0,0,0-.5-2,1.9,1.9,0,0,0-1.6-.7l-.9.2a1.8,1.8,0,0,0-.7.5l-.4.8c0,.4-.1.8-.1,1.2a3.3,3.3,0,0,0,.5,1.9A1.9,1.9,0,0,0,355.5,337.4Z" style="fill: #fff"/>
        <path d="M364.6,332.4h-.5l-.3-.2-.5-.2h-1.2l-.4.2-.3.4c0,.1-.1.2-.1.4a.5.5,0,0,0,.2.4c.1.2.2.3.4.3l.6.3.7.2.6.3a.9.9,0,0,1,.6.3,1,1,0,0,1,.4.5,1.9,1.9,0,0,1,.2.7,3,3,0,0,1-.2,1l-.5.7-.8.5h-1.2l-1.3-.2-1.1-.6.3-.5h.2c0-.1.1-.1.2-.1h.2l.4.2.5.2H363l.5-.2a.5.5,0,0,0,.2-.4.6.6,0,0,0,.1-.4.7.7,0,0,0-.1-.5l-.4-.4-.6-.2-.7-.2-.7-.3-.6-.3a1.3,1.3,0,0,1-.4-.6,1.4,1.4,0,0,1-.2-.7,1.9,1.9,0,0,1,.2-.8,1.8,1.8,0,0,1,.5-.7,2,2,0,0,1,.8-.4l1.1-.2,1.2.2,1,.6Z" style="fill: #fff"/>
        <path d="M373.1,331.1a3.2,3.2,0,0,1,1.4.3,2.6,2.6,0,0,1,1.1.7,2.3,2.3,0,0,1,.6,1.2,3.3,3.3,0,0,1,.3,1.5,4,4,0,0,1-.3,1.5,2.4,2.4,0,0,1-.6,1.1l-1.1.8-1.4.2-1.4-.2-1.1-.8a4.1,4.1,0,0,1-.7-1.1,7.7,7.7,0,0,1-.2-1.5,6.1,6.1,0,0,1,.2-1.5,3.5,3.5,0,0,1,.7-1.2,2.6,2.6,0,0,1,1.1-.7A3.2,3.2,0,0,1,373.1,331.1Zm0,6.3a1.9,1.9,0,0,0,1.6-.7,3.3,3.3,0,0,0,.5-1.9,3.7,3.7,0,0,0-.5-2,1.9,1.9,0,0,0-1.6-.7l-.9.2a1.8,1.8,0,0,0-.7.5,2,2,0,0,0-.4.8,4.9,4.9,0,0,0-.1,1.2,3.3,3.3,0,0,0,.5,1.9A1.9,1.9,0,0,0,373.1,337.4Z" style="fill: #fff"/>
        <path d="M387.5,328v10.3h-.7l-.4-.2v-.9a2.8,2.8,0,0,1-1,.9,3.2,3.2,0,0,1-1.4.3l-1.1-.2a2.7,2.7,0,0,1-.8-.7,3.9,3.9,0,0,1-.6-1.1,7.8,7.8,0,0,1-.2-1.6,4,4,0,0,1,.3-1.5,2.4,2.4,0,0,1,.6-1.1,1.8,1.8,0,0,1,.9-.8,2.8,2.8,0,0,1,1.3-.3l1.1.2.9.6V328Zm-1.2,4.9a2.1,2.1,0,0,0-.8-.6,1.5,1.5,0,0,0-.9-.2,1.6,1.6,0,0,0-1.5.7,3,3,0,0,0-.6,2,3.7,3.7,0,0,0,.2,1.2,1.9,1.9,0,0,0,.3.8l.6.5h.7a2,2,0,0,0,1.1-.3,3.2,3.2,0,0,0,.9-.8Z" style="fill: #fff"/>
        <path d="M395.2,337.3a1.2,1.2,0,0,1-.5.5l-.7.3-.8.2h-.8l-1.3-.2a2.8,2.8,0,0,1-1.1-.8,4.1,4.1,0,0,1-.7-1.1,8.8,8.8,0,0,1-.2-1.7,3.4,3.4,0,0,1,.2-1.4,2.6,2.6,0,0,1,.7-1.1,2.6,2.6,0,0,1,1-.7,3.2,3.2,0,0,1,1.4-.3l1.2.2.9.6a2.1,2.1,0,0,1,.6,1,3.2,3.2,0,0,1,.2,1.4v.4h-5a3.6,3.6,0,0,0,.2,1.1,1.9,1.9,0,0,0,.4.9l.7.5h1.8l.5-.2.5-.2.2-.2.3.2Zm-1-3.3a1.9,1.9,0,0,0-.1-.8l-.4-.6a1,1,0,0,0-.5-.4l-.8-.2a1.7,1.7,0,0,0-1.4.6,2.1,2.1,0,0,0-.7,1.4Z" style="fill: #fff"/>
        <path d="M328.5,345.1v10h-1.2v-8l-3.5,6.3a.5.5,0,0,1-.5.3h-.2a.5.5,0,0,1-.5-.3l-3.5-6.3a1.3,1.3,0,0,1,.1.6v7.4h-1.2v-10h1.3a.3.3,0,0,1,.1.2l3.5,6.2.2.3c0,.2.1.3.1.4l.2-.4c0-.1.1-.2.1-.3l3.4-6.2.2-.2h1.3Z" style="fill: #fff"/>
        <path d="M336.3,354.1l-.5.5-.7.3-.8.2h-.8l-1.3-.2a2.8,2.8,0,0,1-1.1-.8,4.1,4.1,0,0,1-.7-1.1,4.7,4.7,0,0,1-.2-1.7,3.4,3.4,0,0,1,.2-1.4,3.9,3.9,0,0,1,.6-1.1,4.1,4.1,0,0,1,1.1-.7,3.2,3.2,0,0,1,1.4-.3l1.2.2.9.6a2.1,2.1,0,0,1,.6,1,3.2,3.2,0,0,1,.2,1.4v.4h-5a3.6,3.6,0,0,0,.2,1.1,1.9,1.9,0,0,0,.4.9l.7.5h1.8l.5-.2.4-.2.3-.2.3.2Zm-1-3.3a1.9,1.9,0,0,0-.1-.8l-.4-.6a1,1,0,0,0-.5-.4l-.8-.2a1.7,1.7,0,0,0-1.4.6,2.1,2.1,0,0,0-.7,1.4Z" style="fill: #fff"/>
        <path d="M339.1,349.4a4.8,4.8,0,0,1,.9-1.1,1.6,1.6,0,0,1,1.2-.4h.4l.4.2v.9c-.1.2-.1.2-.2.2h-1.4l-.4.3a1,1,0,0,0-.4.5l-.3.6v4.5H338V348h1v1.3Z" style="fill: #fff"/>
        <path d="M347.7,349.3h-.5l-.3-.2-.5-.2h-.6c-.4,0-.7,0-.9.2a1.8,1.8,0,0,0-.7.5,1.9,1.9,0,0,0-.4.9,3.1,3.1,0,0,0,0,2.2,3.6,3.6,0,0,0,.4.9,1.8,1.8,0,0,0,.7.5h1.6a.5.5,0,0,0,.4-.2l.4-.2c.1-.1.1-.2.2-.2l.3.2.3.4-.5.5-.6.4-.8.2h-.7l-1.2-.2a2.6,2.6,0,0,1-1-.7,4.7,4.7,0,0,1-.7-1.2,5.7,5.7,0,0,1,0-3,3.4,3.4,0,0,1,.6-1.2,4.1,4.1,0,0,1,1.1-.7,3.2,3.2,0,0,1,1.4-.3,2.8,2.8,0,0,1,1.3.3,2.1,2.1,0,0,1,1,.6Z" style="fill: #fff"/>
        <path d="M349.3,349a4.2,4.2,0,0,1,1.2-.8,4,4,0,0,1,1.5-.3l1.1.2.8.5.5.9a3.7,3.7,0,0,1,.1,1.1v4.5h-.8l-.2-.3v-.6l-.6.4a.9.9,0,0,1-.5.3l-.6.3h-1.6l-.6-.3a2.1,2.1,0,0,1-.4-.6,2.4,2.4,0,0,1-.2-.9,3.1,3.1,0,0,1,.2-.8l.8-.7a3.9,3.9,0,0,1,1.4-.4,9.4,9.4,0,0,1,2-.3v-.5a1.7,1.7,0,0,0-.4-1.3,1.1,1.1,0,0,0-1-.4h-.8l-.5.3-.4.2-.3.2h-.3c0-.1-.1-.1-.1-.2Zm4,2.9-1.5.2-1,.2c-.2.2-.4.3-.5.5a.8.8,0,0,0-.2.5.9.9,0,0,0,.1.5l.3.3.3.2h1.1l.5-.2.5-.3.4-.4Z" style="fill: #fff"/>
        <path d="M362.3,344.8v10.3h-.8c-.1,0-.3-.1-.3-.2V354a3.1,3.1,0,0,1-1.1.9,2.5,2.5,0,0,1-1.3.3l-1.1-.2a2.7,2.7,0,0,1-.8-.7,2.4,2.4,0,0,1-.6-1.1,6.1,6.1,0,0,1,0-3.1l.6-1.1a2.5,2.5,0,0,1,1-.8,2.8,2.8,0,0,1,1.3-.3l1.1.2.8.6v-3.9Zm-1.3,4.9a1.9,1.9,0,0,0-.7-.6,1.5,1.5,0,0,0-.9-.2,1.9,1.9,0,0,0-1.6.7,3.7,3.7,0,0,0-.5,2c0,.5.1.9.1,1.2a2,2,0,0,0,.4.8,1.2,1.2,0,0,0,.5.5h.8a2,2,0,0,0,1.1-.3,2,2,0,0,0,.8-.8Z" style="fill: #fff"/>
        <path d="M367.2,347.9a2.9,2.9,0,0,1,1.4.3,2.1,2.1,0,0,1,1.1.7,3.5,3.5,0,0,1,.7,1.2,6.1,6.1,0,0,1,.2,1.5,7.7,7.7,0,0,1-.2,1.5,4.1,4.1,0,0,1-.7,1.1,3.1,3.1,0,0,1-1.1.8l-1.4.2-1.4-.2a3.9,3.9,0,0,1-1-.8,2.6,2.6,0,0,1-.7-1.1,3.9,3.9,0,0,1-.2-1.5,3.4,3.4,0,0,1,.2-1.5,2.4,2.4,0,0,1,.7-1.2,2.3,2.3,0,0,1,1-.7A3.2,3.2,0,0,1,367.2,347.9Zm0,6.3a1.8,1.8,0,0,0,1.6-.7,2.7,2.7,0,0,0,.5-1.9,3,3,0,0,0-.5-2,1.8,1.8,0,0,0-1.6-.7l-.9.2a1,1,0,0,0-.6.5,1.2,1.2,0,0,0-.4.8,5,5,0,0,0-.2,1.2,2.7,2.7,0,0,0,.6,1.9A1.6,1.6,0,0,0,367.2,354.2Z" style="fill: #fff"/>
      </g>
    </g>
    <g class="hoverable" onclick="showTypeInstrument('comando-y-control');">
      <path d="M282.4,541.8,208.3,423a154.7,154.7,0,0,0,50.9-52.1l120.4,71.4A295.5,295.5,0,0,1,282.4,541.8Z" style="fill: #cb5c9e;opacity: 0.62"/>
      <g>
        <path d="M255.7,441.2h.2l.5.6a3.3,3.3,0,0,1-1.5,1.1,4.6,4.6,0,0,1-2.1.4,6.4,6.4,0,0,1-2-.3,4.2,4.2,0,0,1-1.5-1.1,6.2,6.2,0,0,1-1-1.6,6.6,6.6,0,0,1-.3-2.1,4.9,4.9,0,0,1,.4-2.1,3.9,3.9,0,0,1,1-1.6,4.2,4.2,0,0,1,1.5-1.1,6.4,6.4,0,0,1,2-.3,5.4,5.4,0,0,1,1.9.3,6.7,6.7,0,0,1,1.4.9l-.4.7h-.6l-.5-.3-.7-.3h-1.1a3.2,3.2,0,0,0-1.4.2l-1.1.8a5,5,0,0,0-.8,1.2,8.8,8.8,0,0,0-.2,1.7,4.7,4.7,0,0,0,.3,1.7,2.4,2.4,0,0,0,.7,1.2,2.8,2.8,0,0,0,1.1.8,3.2,3.2,0,0,0,1.4.3h.8l.6-.2.6-.2.5-.4Z" style="fill: #fff"/>
        <path d="M260.5,436.1a3.2,3.2,0,0,1,1.4.3,2.6,2.6,0,0,1,1.1.7,3.5,3.5,0,0,1,.7,1.2,6.1,6.1,0,0,1,.2,1.5,7.7,7.7,0,0,1-.2,1.5,4.1,4.1,0,0,1-.7,1.1l-1.1.8-1.4.2-1.4-.2-1.1-.8a3.9,3.9,0,0,1-.6-1.1,4,4,0,0,1-.3-1.5,5.4,5.4,0,0,1,.9-2.7,2.6,2.6,0,0,1,1.1-.7A3.2,3.2,0,0,1,260.5,436.1Zm0,6.3a1.9,1.9,0,0,0,1.6-.7,3.3,3.3,0,0,0,.5-1.9,3.7,3.7,0,0,0-.5-2,1.9,1.9,0,0,0-1.6-.7l-.9.2a1.8,1.8,0,0,0-.7.5l-.4.8c0,.4-.1.8-.1,1.2a3.3,3.3,0,0,0,.5,1.9A1.9,1.9,0,0,0,260.5,442.4Z" style="fill: #fff"/>
        <path d="M265.5,443.3v-7.1h.7c.2,0,.3.1.4.3v.7l.9-.8a2.4,2.4,0,0,1,1.2-.3,1.5,1.5,0,0,1,1.1.4,3,3,0,0,1,.7,1.1,1.6,1.6,0,0,1,.4-.7,1,1,0,0,1,.5-.4l.6-.3h.7l1,.2.8.5a1.9,1.9,0,0,1,.4.9,3.6,3.6,0,0,1,.2,1.1v4.5h-1.3v-4.5a2.3,2.3,0,0,0-.3-1.3,1.8,1.8,0,0,0-1.1-.4h-.6l-.4.3a2.1,2.1,0,0,0-.4.6,1.5,1.5,0,0,0-.1.7v4.5h-1.3v-4.5a2.3,2.3,0,0,0-.3-1.3,1.2,1.2,0,0,0-1-.4,1.6,1.6,0,0,0-.9.3,1.9,1.9,0,0,0-.7.6v5.3Z" style="fill: #fff"/>
        <path d="M276.8,437.2a3.5,3.5,0,0,1,1.3-.8,3.3,3.3,0,0,1,1.5-.3l1,.2.8.5a4.1,4.1,0,0,1,.5.9,3.6,3.6,0,0,1,.2,1.1v4.5h-.9c0-.1-.1-.2-.1-.3l-.2-.6-.5.4c-.2.1-.4.3-.6.3l-.6.3h-1.5l-.7-.3-.4-.6a2.5,2.5,0,0,1-.1-.9,1.3,1.3,0,0,1,.2-.8l.7-.7,1.4-.4a9.4,9.4,0,0,1,2-.3v-.5a2.3,2.3,0,0,0-.3-1.3,1.8,1.8,0,0,0-1.1-.4h-.7l-.6.3-.4.2-.3.2h-.2l-.2-.2Zm4,2.9-1.4.2-1,.2c-.3.2-.5.3-.6.5a.7.7,0,0,0-.1.5v.5l.3.3a.5.5,0,0,0,.4.2h1l.5-.2.5-.3c.2-.1.3-.3.4-.4Z" style="fill: #fff"/>
        <path d="M285.1,437.3c.2-.2.3-.4.5-.5l.6-.4.6-.2h.7l1,.2a1.6,1.6,0,0,1,.8.6,5.9,5.9,0,0,1,.4.8,3.6,3.6,0,0,1,.2,1.1v4.5h-1.3v-4.5a1.5,1.5,0,0,0-.4-1.2,1.3,1.3,0,0,0-1.1-.5,1.9,1.9,0,0,0-1,.3l-.9.7v5.2h-1.3v-7.1h.8a.3.3,0,0,1,.3.3Z" style="fill: #fff"/>
        <path d="M297.6,433v10.3h-.7l-.4-.2v-.9a2.8,2.8,0,0,1-1,.9,2.8,2.8,0,0,1-1.3.3l-1.2-.2a2.7,2.7,0,0,1-.8-.7,3.7,3.7,0,0,1-.5-1.1,4.1,4.1,0,0,1-.2-1.6,3.9,3.9,0,0,1,.2-1.5,2.4,2.4,0,0,1,.6-1.1,2.3,2.3,0,0,1,.9-.8,3.1,3.1,0,0,1,1.3-.3l1.2.2.8.6V433Zm-1.2,4.9a2.1,2.1,0,0,0-.8-.6c-.2-.2-.5-.2-.9-.2a1.7,1.7,0,0,0-1.5.7,3,3,0,0,0-.5,2,4.1,4.1,0,0,0,.1,1.2l.3.8.6.5h.8a1.7,1.7,0,0,0,1-.3,3.2,3.2,0,0,0,.9-.8Z" style="fill: #fff"/>
        <path d="M302.6,436.1a3.2,3.2,0,0,1,1.4.3,2.6,2.6,0,0,1,1.1.7,5.4,5.4,0,0,1,.9,2.7,4,4,0,0,1-.3,1.5,3.9,3.9,0,0,1-.6,1.1l-1.1.8-1.4.2-1.4-.2-1.1-.8a4.1,4.1,0,0,1-.7-1.1,7.7,7.7,0,0,1-.2-1.5,6.1,6.1,0,0,1,.2-1.5,3.5,3.5,0,0,1,.7-1.2,2.6,2.6,0,0,1,1.1-.7A3.2,3.2,0,0,1,302.6,436.1Zm0,6.3a1.9,1.9,0,0,0,1.6-.7,3.3,3.3,0,0,0,.5-1.9,3.7,3.7,0,0,0-.5-2,1.9,1.9,0,0,0-1.6-.7l-.9.2a1.8,1.8,0,0,0-.7.5,2,2,0,0,0-.4.8,4.9,4.9,0,0,0-.1,1.2,3.3,3.3,0,0,0,.5,1.9A1.9,1.9,0,0,0,302.6,442.4Z" style="fill: #fff"/>
        <path d="M316.9,436.2l-4,9.2a.3.3,0,0,1-.1.2h-1.2l1.3-2.8-3-6.7h1.4c0,.1.1.1.1.2l1.9,4.5c.1.1.1.4.2.6a1.4,1.4,0,0,1,.2-.7l1.8-4.4.2-.2h1.2Z" style="fill: #fff"/>
        <path d="M267.4,458h.2l.5.6a3.3,3.3,0,0,1-1.5,1.1,4.6,4.6,0,0,1-2.1.4,6.4,6.4,0,0,1-2-.3,4.2,4.2,0,0,1-1.5-1.1,6.2,6.2,0,0,1-1-1.6,6.6,6.6,0,0,1-.3-2.1,4.9,4.9,0,0,1,.4-2.1,3.9,3.9,0,0,1,1-1.6,4.2,4.2,0,0,1,1.5-1.1,6.4,6.4,0,0,1,2-.3,5.8,5.8,0,0,1,1.9.3,6.7,6.7,0,0,1,1.4.9l-.4.7h-.6l-.5-.3-.7-.3h-1.1a3.2,3.2,0,0,0-1.4.2,3.1,3.1,0,0,0-1.1.8,5,5,0,0,0-.8,1.2,8.8,8.8,0,0,0-.2,1.7,4.7,4.7,0,0,0,.3,1.7,2.4,2.4,0,0,0,.7,1.2,2.8,2.8,0,0,0,1.1.8,3.2,3.2,0,0,0,1.4.3h.8l.6-.2.6-.2.5-.4Z" style="fill: #fff"/>
        <path d="M272.2,452.9a3.2,3.2,0,0,1,1.4.3,2.6,2.6,0,0,1,1.1.7,3.5,3.5,0,0,1,.7,1.2,6.1,6.1,0,0,1,.2,1.5,7.7,7.7,0,0,1-.2,1.5,4.1,4.1,0,0,1-.7,1.1l-1.1.8-1.4.2-1.4-.2-1.1-.8a2.4,2.4,0,0,1-.6-1.1,4,4,0,0,1-.3-1.5,3.3,3.3,0,0,1,.3-1.5,2.3,2.3,0,0,1,.6-1.2,2.6,2.6,0,0,1,1.1-.7A3.2,3.2,0,0,1,272.2,452.9Zm0,6.3a1.9,1.9,0,0,0,1.6-.7,3.3,3.3,0,0,0,.5-1.9,3.7,3.7,0,0,0-.5-2,1.9,1.9,0,0,0-1.6-.7l-.9.2a1.8,1.8,0,0,0-.7.5l-.4.8c0,.4-.1.8-.1,1.2a3.3,3.3,0,0,0,.5,1.9A1.9,1.9,0,0,0,272.2,459.2Z" style="fill: #fff"/>
        <path d="M278.3,454.1l.5-.5.6-.4.6-.2h.7l1,.2a1.6,1.6,0,0,1,.8.6,2,2,0,0,1,.4.8,3.6,3.6,0,0,1,.2,1.1v4.5h-1.3v-4.5a1.9,1.9,0,0,0-.3-1.2,1.7,1.7,0,0,0-1.2-.5,1.9,1.9,0,0,0-1,.3l-.9.7v5.2h-1.2V453h.7a.3.3,0,0,1,.3.3Z" style="fill: #fff"/>
        <path d="M287.1,460.2a1.7,1.7,0,0,1-1.3-.4,2.2,2.2,0,0,1-.5-1.4v-4.3h-1c-.1,0-.1-.1-.1-.2v-.5h1.2l.2-2.2v-.2h.9v2.5h2v.9h-2v4.2a.8.8,0,0,0,.2.7l.5.2h.4c.1-.1.2-.1.2-.2s.2,0,.2-.1h.1c.1,0,.2,0,.2.1l.4.6-.8.5Z" style="fill: #fff"/>
        <path d="M291.1,454.4a4.4,4.4,0,0,1,.8-1.1,1.6,1.6,0,0,1,1.2-.4h.4l.4.2v.9c0,.2-.1.2-.2.2h-1.3l-.5.3-.3.5a.9.9,0,0,0-.3.6v4.5h-1.3V453h1c0,.1.1.1.1.3Z" style="fill: #fff"/>
        <path d="M297.7,452.9a3.2,3.2,0,0,1,1.4.3,2.6,2.6,0,0,1,1.1.7,2.3,2.3,0,0,1,.6,1.2,3.3,3.3,0,0,1,.3,1.5,4,4,0,0,1-.3,1.5,2.4,2.4,0,0,1-.6,1.1l-1.1.8-1.4.2-1.4-.2-1.1-.8a4.1,4.1,0,0,1-.7-1.1,7.7,7.7,0,0,1-.2-1.5,6.1,6.1,0,0,1,.2-1.5,3.5,3.5,0,0,1,.7-1.2,2.6,2.6,0,0,1,1.1-.7A3.2,3.2,0,0,1,297.7,452.9Zm0,6.3a1.9,1.9,0,0,0,1.6-.7,3.3,3.3,0,0,0,.5-1.9,3.7,3.7,0,0,0-.5-2,1.9,1.9,0,0,0-1.6-.7l-.9.2a1.8,1.8,0,0,0-.7.5,2,2,0,0,0-.4.8,4.9,4.9,0,0,0-.1,1.2,3.3,3.3,0,0,0,.5,1.9A1.9,1.9,0,0,0,297.7,459.2Z" style="fill: #fff"/>
        <path d="M303.9,449.8v10.3h-1.2V449.8Z" style="fill: #fff"/>
      </g>
    </g>
  </g>
</svg>
