<svg class="animate__animated" xmlns="http://www.w3.org/2000/svg" viewBox="0 0 420.5 501.3">
  <g id="Capa_2" data-name="Capa 2">
    <g id="Capa_1-2" data-name="Capa 1">
      <g class="hoverable" onclick="showTypeInstrument('formulacion_de_proyectos', 3, 2); changeImage('financiacion/F_Formulacion_de_Proyectos');">
        <path d="M257.2,171.4A152.9,152.9,0,0,0,205,120.6L276.1,0a293.7,293.7,0,0,1,99.7,97Z" style="fill: #c85696;opacity: 0.62"/>
        <g>
          <path d="M238.4,85.9v3.5h4.1v1.1h-4.1v4.4H237V84.8h6.2v1.1Z" style="fill: #fff"/>
          <path d="M247,87.7a3.2,3.2,0,0,1,1.4.2,2.8,2.8,0,0,1,1.1.8,4.1,4.1,0,0,1,.7,1.1,7.7,7.7,0,0,1,.2,1.5,6.1,6.1,0,0,1-.2,1.5,3.5,3.5,0,0,1-.7,1.2,4.1,4.1,0,0,1-1.1.7,3.4,3.4,0,0,1-2.8,0,4.1,4.1,0,0,1-1.1-.7,2.3,2.3,0,0,1-.6-1.2,3.3,3.3,0,0,1-.3-1.5,4,4,0,0,1,.3-1.5,2.4,2.4,0,0,1,.6-1.1,2.8,2.8,0,0,1,1.1-.8A3.2,3.2,0,0,1,247,87.7Zm0,6.3a1.9,1.9,0,0,0,1.6-.7,3.7,3.7,0,0,0,.5-2,3.9,3.9,0,0,0-.5-2,2.2,2.2,0,0,0-1.6-.7l-.9.2a1.8,1.8,0,0,0-.7.5l-.4.9c0,.3-.1.7-.1,1.1a3.7,3.7,0,0,0,.5,2A1.9,1.9,0,0,0,247,94Z" style="fill: #fff"/>
          <path d="M253.1,89.2c.3-.5.5-.9.9-1.1a1.7,1.7,0,0,1,1.2-.5h.8v1a.2.2,0,0,1-.2.2h-1.3a.5.5,0,0,0-.5.3.8.8,0,0,0-.4.4l-.3.7v4.5H252V87.8h1a.4.4,0,0,0,.1.3Z" style="fill: #fff"/>
          <path d="M257.1,94.9V87.8h.7c.2,0,.3.1.3.2v.8a3.2,3.2,0,0,1,.9-.8,2,2,0,0,1,1.1-.3,1.6,1.6,0,0,1,1.2.4,1.7,1.7,0,0,1,.6,1l.4-.6.6-.5.6-.3h1.7a2.4,2.4,0,0,1,.8.6,2,2,0,0,1,.4.8,3.6,3.6,0,0,1,.2,1.1v4.6h-1.3V90.3a2.1,2.1,0,0,0-.3-1.2,1.4,1.4,0,0,0-1.1-.4h-.6c-.2,0-.3.1-.5.3l-.3.5a1.7,1.7,0,0,0-.1.7v4.6h-1.3V90.3a2.1,2.1,0,0,0-.3-1.2,1.2,1.2,0,0,0-1-.4,1.5,1.5,0,0,0-.9.2,4.6,4.6,0,0,0-.7.7v5.3Z" style="fill: #fff"/>
          <path d="M274.4,87.8v7.1h-.7c-.2,0-.3-.1-.4-.3v-.8a2.8,2.8,0,0,1-1,.9,2.8,2.8,0,0,1-1.3.3l-1-.2a1.6,1.6,0,0,1-.8-.6,2,2,0,0,1-.4-.8,3.6,3.6,0,0,1-.2-1.1V87.8h1.3v4.5a2.1,2.1,0,0,0,.3,1.2,1.4,1.4,0,0,0,1.1.5,2,2,0,0,0,1.1-.3l.9-.7V87.8Z" style="fill: #fff"/>
          <path d="M277.7,84.5V94.9h-1.3V84.5Z" style="fill: #fff"/>
          <path d="M279.5,88.8a3.8,3.8,0,0,1,1.3-.9,3.3,3.3,0,0,1,1.5-.3l1,.2.8.6a2.2,2.2,0,0,1,.5.8,4.1,4.1,0,0,1,.1,1.1v4.6h-.8c-.1,0-.1-.1-.1-.2l-.2-.7-.5.5-.6.3-.6.2h-1.5l-.7-.4a1.5,1.5,0,0,1-.4-.6,1.9,1.9,0,0,1-.1-.8,1.1,1.1,0,0,1,.2-.8,1.6,1.6,0,0,1,.7-.7,4.6,4.6,0,0,1,1.4-.5l2-.2v-.6a2.1,2.1,0,0,0-.3-1.2,1.4,1.4,0,0,0-1.1-.4h-.7l-.6.2-.4.3h-.3c-.1,0-.2,0-.2-.1h-.2Zm4,2.9h-1.4l-1,.3a.9.9,0,0,0-.6.4.9.9,0,0,0-.1.5v.5l.3.3a.5.5,0,0,0,.4.2h1l.5-.2a.5.5,0,0,0,.5-.3l.4-.4Z" style="fill: #fff"/>
          <path d="M291.6,89h-.5l-.3-.2-.5-.2h-.6l-1,.2a1.2,1.2,0,0,0-.6.6,1.2,1.2,0,0,0-.4.8,3.6,3.6,0,0,0-.2,1.1,5,5,0,0,0,.2,1.2,2,2,0,0,0,.4.8l.6.5.9.2h.7l.5-.3c.2,0,.3-.1.3-.2h.3c.1,0,.2,0,.2.1l.4.5-.5.5-.7.3-.7.2h-.7a2.8,2.8,0,0,1-1.3-.3,2.3,2.3,0,0,1-1-.7,3.9,3.9,0,0,1-.6-1.1,4.1,4.1,0,0,1-.3-1.6,4,4,0,0,1,.3-1.5,2.4,2.4,0,0,1,.6-1.1,3.1,3.1,0,0,1,1.1-.8,3,3,0,0,1,1.4-.2,2.7,2.7,0,0,1,1.3.2l1,.7Z" style="fill: #fff"/>
          <path d="M294.9,85.5c0,.2,0,.3-.1.4l-.2.3-.2.2h-.7l-.3-.2-.2-.3c0-.1-.1-.2-.1-.4v-.3c0-.1.1-.2.2-.3l.3-.2h.7c.1.1.2.1.2.2s.2.2.2.3A.4.4,0,0,1,294.9,85.5Zm-.3,2.3v7.1h-1.2V87.8Z" style="fill: #fff"/>
          <path d="M299.7,87.7a3.2,3.2,0,0,1,1.4.2,2.5,2.5,0,0,1,1,.8,2.6,2.6,0,0,1,.7,1.1,3.9,3.9,0,0,1,.2,1.5,3.4,3.4,0,0,1-.2,1.5,2.4,2.4,0,0,1-.7,1.2l-1,.7a3.4,3.4,0,0,1-2.8,0,3,3,0,0,1-1.1-.7,3.5,3.5,0,0,1-.7-1.2,6.1,6.1,0,0,1-.2-1.5,7.7,7.7,0,0,1,.2-1.5,4.1,4.1,0,0,1,.7-1.1,2.3,2.3,0,0,1,1.1-.8A3.2,3.2,0,0,1,299.7,87.7Zm0,6.3a1.6,1.6,0,0,0,1.5-.7,3,3,0,0,0,.6-2,3.2,3.2,0,0,0-.6-2,1.8,1.8,0,0,0-1.5-.7l-1,.2-.6.5a3.6,3.6,0,0,0-.4.9,3.7,3.7,0,0,0-.1,1.1,3,3,0,0,0,.5,2A1.8,1.8,0,0,0,299.7,94Zm2-9.3-1.6,1.8-.2.2h-1l1-1.7.3-.2h1.5Z" style="fill: #fff"/>
          <path d="M305.8,88.8l.5-.5.5-.3.7-.3h.7a2.2,2.2,0,0,1,1.7.7,2.2,2.2,0,0,1,.5.8,4.1,4.1,0,0,1,.1,1.1v4.6h-1.2V90.3a1.6,1.6,0,0,0-.4-1.2,1.2,1.2,0,0,0-1.1-.4,1.6,1.6,0,0,0-1,.2,2.2,2.2,0,0,0-.9.7v5.3h-1.3V87.8h.8c.2,0,.3.1.3.2Z" style="fill: #fff"/>
          <path d="M321.9,84.5V94.9h-.8q-.2,0-.3-.3v-.9a4.1,4.1,0,0,1-1,.9,3.3,3.3,0,0,1-1.4.4,2,2,0,0,1-1.1-.3,1.8,1.8,0,0,1-.8-.7,2,2,0,0,1-.6-1.1,7.8,7.8,0,0,1-.2-1.6,5.9,5.9,0,0,1,.2-1.4,6.7,6.7,0,0,1,.6-1.2,3.9,3.9,0,0,1,1-.8,2.8,2.8,0,0,1,1.3-.3,2,2,0,0,1,1.1.3,1.6,1.6,0,0,1,.8.6v-4Zm-1.3,5a1.2,1.2,0,0,0-.7-.7l-.9-.2a1.8,1.8,0,0,0-1.5.7,3.2,3.2,0,0,0-.6,2c0,.5.1.9.1,1.2a1.5,1.5,0,0,0,.4.8c.1.3.3.4.6.5l.7.2a2,2,0,0,0,1.1-.3,3,3,0,0,0,.8-.8Z" style="fill: #fff"/>
          <path d="M329.6,93.9l-.5.5-.7.3-.8.2h-.8a2.8,2.8,0,0,1-1.3-.3,4.1,4.1,0,0,1-1.1-.7,3.5,3.5,0,0,1-.7-1.2,4.1,4.1,0,0,1-.2-1.6,3.2,3.2,0,0,1,.2-1.4,3.9,3.9,0,0,1,.6-1.1l1.1-.8a3.2,3.2,0,0,1,1.4-.2,2,2,0,0,1,1.1.2,2.1,2.1,0,0,1,1,.6,3.3,3.3,0,0,1,.6,1,2.7,2.7,0,0,1,.2,1.3v.4h-5a3.7,3.7,0,0,0,.2,1.2,2,2,0,0,0,.4.8l.7.5.9.2h.8l.6-.3.4-.2h.6Zm-1-3.4a2.5,2.5,0,0,0-.1-.8,2.1,2.1,0,0,0-.4-.6,1,1,0,0,0-.5-.4h-.8a1.6,1.6,0,0,0-1.4.5,2.1,2.1,0,0,0-.7,1.4Z" style="fill: #fff"/>
          <path d="M256.8,101.6a4.7,4.7,0,0,1,1.7.3,2.4,2.4,0,0,1,1.1.6,1.8,1.8,0,0,1,.7,1,2.3,2.3,0,0,1,.2,1.2,2.7,2.7,0,0,1-.2,1.3,3.6,3.6,0,0,1-.7,1,3.5,3.5,0,0,1-1.2.7l-1.6.2h-1.6v3.8h-1.4V101.6Zm0,5.2h1l.8-.5c.2-.1.3-.4.4-.6a2.9,2.9,0,0,0,.2-.9,2,2,0,0,0-.6-1.5,3,3,0,0,0-1.8-.5h-1.6v4.1Z" style="fill: #fff"/>
          <path d="M263,106a2.4,2.4,0,0,1,.8-1.1,2.1,2.1,0,0,1,1.2-.5h.8v1a.2.2,0,0,1-.2.2h-1.3c-.2,0-.3.1-.5.3l-.3.4-.3.7v4.5h-1.3v-7.1h1a.4.4,0,0,1,.1.3Z" style="fill: #fff"/>
          <path d="M269.6,104.5a3.2,3.2,0,0,1,1.4.2,2.8,2.8,0,0,1,1.1.8,4.1,4.1,0,0,1,.7,1.1,7.7,7.7,0,0,1,.2,1.5,6.1,6.1,0,0,1-.2,1.5,3.5,3.5,0,0,1-.7,1.2,4.1,4.1,0,0,1-1.1.7,3.4,3.4,0,0,1-2.8,0,4.1,4.1,0,0,1-1.1-.7,2.3,2.3,0,0,1-.6-1.2,3.3,3.3,0,0,1-.3-1.5,4,4,0,0,1,.3-1.5,2.4,2.4,0,0,1,.6-1.1,2.8,2.8,0,0,1,1.1-.8A3.2,3.2,0,0,1,269.6,104.5Zm0,6.3a1.9,1.9,0,0,0,1.6-.7,3.7,3.7,0,0,0,.5-2,3.9,3.9,0,0,0-.5-2,2.2,2.2,0,0,0-1.6-.7l-.9.2a1.8,1.8,0,0,0-.7.5l-.4.9c0,.3-.1.7-.1,1.1a3.7,3.7,0,0,0,.5,2A1.9,1.9,0,0,0,269.6,110.8Z" style="fill: #fff"/>
          <path d="M280.5,104.6l-4,9.2-.2.2h-1.2l1.3-2.9-2.9-6.6h1.1c.1,0,.2,0,.2.1h.2l1.9,4.5a1.4,1.4,0,0,0,.2.6,1.4,1.4,0,0,1,.2-.6l1.8-4.5a.3.3,0,0,0,.1-.2h1.3Z" style="fill: #fff"/>
          <path d="M287.1,110.7l-.5.5-.7.3-.8.2h-.8a2.8,2.8,0,0,1-1.3-.3,4.1,4.1,0,0,1-1.1-.7,3.5,3.5,0,0,1-.7-1.2,4.1,4.1,0,0,1-.2-1.6,3.2,3.2,0,0,1,.2-1.4,3.9,3.9,0,0,1,.6-1.1l1.1-.8a3.2,3.2,0,0,1,1.4-.2,2,2,0,0,1,1.1.2,2.4,2.4,0,0,1,1.6,1.6,2.7,2.7,0,0,1,.2,1.3v.4h-5a3.7,3.7,0,0,0,.2,1.2,2,2,0,0,0,.4.8l.7.5.9.2h.9l.5-.3.4-.2h.6Zm-1-3.4a2.5,2.5,0,0,0-.1-.8,2.1,2.1,0,0,0-.4-.6,1,1,0,0,0-.5-.4h-.8a1.6,1.6,0,0,0-1.4.5,2.1,2.1,0,0,0-.7,1.4Z" style="fill: #fff"/>
          <path d="M293.7,105.8a.1.1,0,0,1-.1.1h-.4l-.3-.2-.5-.2h-.6l-1,.2a1.7,1.7,0,0,0-.6.6,2,2,0,0,0-.4.8,3.6,3.6,0,0,0-.2,1.1,5,5,0,0,0,.2,1.2,2,2,0,0,0,.4.8l.6.5.9.2h.8l.4-.3a.5.5,0,0,0,.4-.2c0-.1.1-.1.2-.1h.3l.3.5-.5.5-.7.3-.7.2h-.7a2.8,2.8,0,0,1-1.3-.3,2,2,0,0,1-.9-.7,3.3,3.3,0,0,1-.9-2.7,3.9,3.9,0,0,1,.2-1.5,2.4,2.4,0,0,1,.6-1.1l1.1-.8a3.2,3.2,0,0,1,1.4-.2,2.7,2.7,0,0,1,1.3.2l1,.7Z" style="fill: #fff"/>
          <path d="M297.6,111.8a1.9,1.9,0,0,1-1.3-.5,1.8,1.8,0,0,1-.4-1.3v-4.4h-1.1v-.7h1.1l.3-2.2v-.2h.8v2.4h2.1v.9h-2.1v4.3a.8.8,0,0,0,.2.6.9.9,0,0,0,.6.3H299l.3.6a1.8,1.8,0,0,1-.7.5Z" style="fill: #fff"/>
          <path d="M303.4,104.5a3.2,3.2,0,0,1,1.4.2,2.8,2.8,0,0,1,1.1.8,4.1,4.1,0,0,1,.7,1.1,7.7,7.7,0,0,1,.2,1.5,6.1,6.1,0,0,1-.2,1.5,3.5,3.5,0,0,1-.7,1.2,4.1,4.1,0,0,1-1.1.7,3.4,3.4,0,0,1-2.8,0,4.1,4.1,0,0,1-1.1-.7,2.3,2.3,0,0,1-.6-1.2,3.3,3.3,0,0,1-.3-1.5,4,4,0,0,1,.3-1.5,2.4,2.4,0,0,1,.6-1.1,2.8,2.8,0,0,1,1.1-.8A3.2,3.2,0,0,1,303.4,104.5Zm0,6.3a1.9,1.9,0,0,0,1.6-.7,3.7,3.7,0,0,0,.5-2,3.9,3.9,0,0,0-.5-2,2.2,2.2,0,0,0-1.6-.7l-.9.2a1.8,1.8,0,0,0-.7.5l-.4.9c0,.3-.1.7-.1,1.1a3.7,3.7,0,0,0,.5,2A1.9,1.9,0,0,0,303.4,110.8Z" style="fill: #fff"/>
          <path d="M312.5,105.7c-.1.1-.1.2-.3.2H312l-.3-.2H310l-.4.2-.3.3a.6.6,0,0,0-.1.4.8.8,0,0,0,.2.5l.4.3.6.2.7.2.6.3.6.3.4.6a1.4,1.4,0,0,1,.2.7,2.9,2.9,0,0,1-.2.9,1.8,1.8,0,0,1-.5.7l-.8.5-1.2.2a2.8,2.8,0,0,1-1.3-.3,2.4,2.4,0,0,1-1.1-.6l.3-.5h.6l.4.3.5.2h1.3l.5-.3.2-.3a1.3,1.3,0,0,0,0-1l-.5-.3-.5-.2-.7-.3-.7-.2-.6-.4a1,1,0,0,1-.4-.5,1.9,1.9,0,0,1-.2-.8,2.4,2.4,0,0,1,.2-.8l.5-.6.8-.5h1.1a2.5,2.5,0,0,1,1.2.2,2.1,2.1,0,0,1,1,.6Z" style="fill: #fff"/>
        </g>
      </g>
      <g class="hoverable" onclick="showTypeInstrument('financiacion_intervencion_estructura_predial', 4, 1); changeImage('financiacion/F_Inversion_Estructural_Predial');">
        <path d="M280.4,247.2a149.9,149.9,0,0,0-19.6-69.9l121.8-69a293.3,293.3,0,0,1,37.7,134.1Z" style="fill: #ca5c9d;opacity: 0.62"/>
        <g>
          <path d="M302.6,182.9h-1.3V172.8h1.3Z" style="fill: #fff"/>
          <path d="M306,176.8l.5-.5.5-.3.6-.3h.7a1.5,1.5,0,0,1,1,.2l.8.5a2,2,0,0,1,.4.8,4.3,4.3,0,0,1,.2,1.1v4.6h-1.3v-4.6a2.1,2.1,0,0,0-.3-1.2,1.4,1.4,0,0,0-1.1-.4,2,2,0,0,0-1.1.2l-.9.7v5.3h-1.2v-7.1h.7l.4.2Z" style="fill: #fff"/>
          <path d="M314.7,183a1.7,1.7,0,0,1-1.3-.5,1.9,1.9,0,0,1-.5-1.3v-4.4h-.8c-.1,0-.2,0-.2-.1s-.1-.1-.1-.2V176H313l.3-2.2v-.2h.8v2.4h2v.9h-2v4.3a.8.8,0,0,0,.2.6.6.6,0,0,0,.6.3h1l.4.6-.8.5Z" style="fill: #fff"/>
          <path d="M323.2,181.9c-.1.2-.3.3-.5.5l-.7.3-.8.2h-.7a3.2,3.2,0,0,1-1.4-.3,4.1,4.1,0,0,1-1.1-.7,3.5,3.5,0,0,1-.7-1.2,7.8,7.8,0,0,1-.2-1.6,5.9,5.9,0,0,1,.2-1.4,4.1,4.1,0,0,1,.7-1.1,2.7,2.7,0,0,1,1-.8,3.2,3.2,0,0,1,1.4-.2,2.5,2.5,0,0,1,1.2.2l.9.6a2.1,2.1,0,0,1,.6,1,2.8,2.8,0,0,1,.3,1.3,1,1,0,0,1-.1.4h-5a3.7,3.7,0,0,0,.2,1.2,2.2,2.2,0,0,0,.5.8,1.8,1.8,0,0,0,.7.5l.9.2h.8l.6-.3.4-.2h.5Zm-1-3.4a2.5,2.5,0,0,0-.1-.8l-.3-.6-.6-.4h-.8a1.6,1.6,0,0,0-1.4.5,2,2,0,0,0-.6,1.4Z" style="fill: #fff"/>
          <path d="M326.1,177.2a2.4,2.4,0,0,1,.8-1.1,1.7,1.7,0,0,1,1.2-.5h.8v1l-.2.2h-1.3a.5.5,0,0,0-.5.3l-.4.4-.3.7v4.5h-1.2v-7.1h1v1.4Z" style="fill: #fff"/>
          <path d="M336,175.8l-2.8,7.1H332l-2.9-7.1h1.3v.2l1.8,4.6c.1.2.2.3.2.5s.1.3.1.5.1-.3.1-.5l.2-.5,1.8-4.6v-.2H336Z" style="fill: #fff"/>
          <path d="M342.8,181.9l-.6.5-.7.3-.7.2H340a3.2,3.2,0,0,1-1.4-.3l-1.1-.7a3.5,3.5,0,0,1-.7-1.2,7.8,7.8,0,0,1-.2-1.6,5.9,5.9,0,0,1,.2-1.4,4.1,4.1,0,0,1,.7-1.1,3.9,3.9,0,0,1,1-.8,3.2,3.2,0,0,1,1.4-.2,2.5,2.5,0,0,1,1.2.2,1.8,1.8,0,0,1,.9.6,2.1,2.1,0,0,1,.6,1,2.8,2.8,0,0,1,.3,1.3,1,1,0,0,1-.1.4c0,.1-.1.1-.2.1h-4.8a3.7,3.7,0,0,0,.2,1.2,2.2,2.2,0,0,0,.5.8,1.8,1.8,0,0,0,.7.5l.9.2h.8l.6-.3.4-.2h.5Zm-1.1-3.4a2.5,2.5,0,0,0-.1-.8l-.3-.6-.6-.4h-.8a1.7,1.7,0,0,0-1.4.5,2.6,2.6,0,0,0-.6,1.4Z" style="fill: #fff"/>
          <path d="M345.6,176.8c.1-.2.3-.3.5-.5l.5-.3.6-.3h.7a2,2,0,0,1,1.1.2l.7.5a2,2,0,0,1,.4.8,4.3,4.3,0,0,1,.2,1.1v4.6H349v-4.6a2.1,2.1,0,0,0-.3-1.2,1.4,1.4,0,0,0-1.1-.4,2.2,2.2,0,0,0-1.1.2l-.9.7v5.3h-1.2v-7.1h.7l.4.2Z" style="fill: #fff"/>
          <path d="M357.1,177h-.5l-.3-.2-.4-.2h-.7l-.9.2a1.3,1.3,0,0,0-.7.6,2,2,0,0,0-.4.8,3.7,3.7,0,0,0-.1,1.1,4.9,4.9,0,0,0,.1,1.2l.4.8a1.8,1.8,0,0,0,.7.5l.8.2h.8l.5-.3.3-.2h.5l.4.5-.6.5-.6.3-.7.2h-.8l-1.2-.3a2.3,2.3,0,0,1-1-.7,4.1,4.1,0,0,1-.7-1.1,6.1,6.1,0,0,1,0-3.1,4.1,4.1,0,0,1,.7-1.1,3.9,3.9,0,0,1,1-.8,5,5,0,0,1,2.8,0l1,.7Z" style="fill: #fff"/>
          <path d="M360.5,173.5c0,.2-.1.3-.1.4l-.2.3-.3.2h-.7l-.2-.2-.2-.3c-.1-.1-.1-.2-.1-.4a.4.4,0,0,1,.1-.3l.2-.3.2-.2h.7l.3.2.2.3C360.4,173.3,360.5,173.4,360.5,173.5Zm-.3,2.3v7.1H359v-7.1Z" style="fill: #fff"/>
          <path d="M365.2,175.7a3,3,0,0,1,1.4.2,2.3,2.3,0,0,1,1.1.8,4.1,4.1,0,0,1,.7,1.1,7.7,7.7,0,0,1,.2,1.5,6.1,6.1,0,0,1-.2,1.5,3.5,3.5,0,0,1-.7,1.2,3,3,0,0,1-1.1.7,2.9,2.9,0,0,1-1.4.3,3.2,3.2,0,0,1-1.4-.3l-1-.7a2.4,2.4,0,0,1-.7-1.2,3.3,3.3,0,0,1-.3-1.5,4,4,0,0,1,.3-1.5,2.6,2.6,0,0,1,.7-1.1,2.5,2.5,0,0,1,1-.8A3.2,3.2,0,0,1,365.2,175.7Zm0,6.3a1.8,1.8,0,0,0,1.6-.7,3,3,0,0,0,.5-2,3.1,3.1,0,0,0-.5-2,2,2,0,0,0-1.6-.7l-.9.2a1,1,0,0,0-.6.5,1.8,1.8,0,0,0-.4.9,3.6,3.6,0,0,0-.2,1.1,3,3,0,0,0,.6,2A1.6,1.6,0,0,0,365.2,182Zm2.1-9.3-1.7,1.8v.2h-1l1-1.7.2-.2h1.6Z" style="fill: #fff"/>
          <path d="M371.4,176.8l.5-.5.5-.3.6-.3h.7a1.6,1.6,0,0,1,1,.2l.8.5a2,2,0,0,1,.4.8,4.3,4.3,0,0,1,.2,1.1v4.6h-1.3v-4.6a2.1,2.1,0,0,0-.3-1.2,1.4,1.4,0,0,0-1.1-.4,2,2,0,0,0-1.1.2l-.9.7v5.3h-1.2v-7.1h.7a.5.5,0,0,1,.4.2Z" style="fill: #fff"/>
          <path d="M314.3,198.6v1.1h-6.2V189.6h6.2v1.1h-4.9v3.4h3.9v1h-3.9v3.5Z" style="fill: #fff"/>
          <path d="M319.9,193.7l-.3.2h-.2l-.3-.2h-1.7l-.4.2-.3.3a.6.6,0,0,0-.1.4.8.8,0,0,0,.2.5l.4.3.6.2.6.2.7.3.6.3.4.6a1.4,1.4,0,0,1,.2.7,2.9,2.9,0,0,1-.2.9,1.8,1.8,0,0,1-.5.7l-.8.5-1.2.2a2.8,2.8,0,0,1-1.3-.3,2.4,2.4,0,0,1-1.1-.6l.3-.5h.6l.4.3.5.2h1.3l.5-.3c.1-.1.2-.2.2-.3a.9.9,0,0,0,.1-.5.7.7,0,0,0-.1-.5l-.5-.3-.5-.2-.7-.3-.7-.2-.6-.4a1,1,0,0,1-.4-.5,1.9,1.9,0,0,1-.2-.8,2.4,2.4,0,0,1,.2-.8l.5-.6.8-.5h1a2.7,2.7,0,0,1,1.3.2,2.1,2.1,0,0,1,1,.6Z" style="fill: #fff"/>
          <path d="M324,199.8a1.7,1.7,0,0,1-1.3-.5,1.8,1.8,0,0,1-.4-1.3v-4.4h-1.1v-.7h1.2l.3-2.2v-.2h.8v2.4h2v.9h-2v4.3a.8.8,0,0,0,.2.6.7.7,0,0,0,.6.3h1l.4.6-.8.5Z" style="fill: #fff"/>
          <path d="M328,194a2.4,2.4,0,0,1,.8-1.1,2.1,2.1,0,0,1,1.2-.5h.8v1c0,.1,0,.2-.2.2h-1.3a.5.5,0,0,0-.4.3l-.4.4-.3.7v4.5h-1.3v-7.1h1a.4.4,0,0,1,.1.3Z" style="fill: #fff"/>
          <path d="M337.8,192.6v7.1H337a.3.3,0,0,1-.3-.3v-.8a4.1,4.1,0,0,1-1,.9,3.2,3.2,0,0,1-1.4.3l-1-.2a1.3,1.3,0,0,1-.7-.6,2.2,2.2,0,0,1-.5-.8,3.7,3.7,0,0,1-.1-1.1v-4.5h1.2v4.5a1.6,1.6,0,0,0,.4,1.2,1.3,1.3,0,0,0,1.1.5,1.7,1.7,0,0,0,1-.3,3.1,3.1,0,0,0,.9-.7v-5.2Z" style="fill: #fff"/>
          <path d="M344.7,193.8h-.5l-.3-.2-.5-.2h-.7l-.9.2a1.2,1.2,0,0,0-.6.6,2.2,2.2,0,0,0-.5.8c0,.3-.1.7-.1,1.1a5,5,0,0,0,.2,1.2,2,2,0,0,0,.4.8l.6.5.9.2h.7l.5-.3c.1,0,.3-.1.3-.2h.5l.4.5-.5.5-.7.3-.7.2h-.7a2.8,2.8,0,0,1-1.3-.3,2.3,2.3,0,0,1-1-.7,3.9,3.9,0,0,1-.6-1.1,4.1,4.1,0,0,1-.3-1.6,4,4,0,0,1,.3-1.5,2.4,2.4,0,0,1,.6-1.1,3.9,3.9,0,0,1,1-.8,3.6,3.6,0,0,1,1.5-.2,2.7,2.7,0,0,1,1.3.2l1,.7Z" style="fill: #fff"/>
          <path d="M348.6,199.8a1.7,1.7,0,0,1-1.3-.5,1.8,1.8,0,0,1-.4-1.3v-4.4h-1.1v-.7h1.2l.3-2.2v-.2h.8v2.4h2.1v.9h-2.1v4.3a.8.8,0,0,0,.2.6.7.7,0,0,0,.6.3h1l.4.6-.8.5Z" style="fill: #fff"/>
          <path d="M357.3,192.6v7.1h-.8a.3.3,0,0,1-.3-.3v-.8a4.1,4.1,0,0,1-1,.9,3.2,3.2,0,0,1-1.4.3l-1-.2a1.3,1.3,0,0,1-.7-.6,2.2,2.2,0,0,1-.5-.8,3.7,3.7,0,0,1-.1-1.1v-4.5h1.2v4.5a1.6,1.6,0,0,0,.4,1.2,1.3,1.3,0,0,0,1.1.5,1.7,1.7,0,0,0,1-.3,2.2,2.2,0,0,0,.9-.7v-5.2Z" style="fill: #fff"/>
          <path d="M360.4,194c.3-.5.5-.9.9-1.1a1.7,1.7,0,0,1,1.2-.5h.7v1c-.1.1-.1.2-.3.2h-1.3a.5.5,0,0,0-.4.3.8.8,0,0,0-.4.4l-.3.7v4.5h-1.3v-7.1h1a.4.4,0,0,1,.1.3Z" style="fill: #fff"/>
          <path d="M364,193.6a5.1,5.1,0,0,1,1.3-.9l1.5-.3,1.1.2.8.6a2,2,0,0,1,.4.8,4.3,4.3,0,0,1,.2,1.1v4.6h-.8a.2.2,0,0,1-.2-.2v-.7l-.6.5-.5.3-.7.2h-1.5l-.6-.4a.9.9,0,0,1-.4-.6,1.1,1.1,0,0,1-.2-.8,1.9,1.9,0,0,1,.2-.8,1.9,1.9,0,0,1,.8-.7l1.3-.5,2.1-.2v-.6a1.6,1.6,0,0,0-.4-1.2,1.2,1.2,0,0,0-1-.4h-.8l-.5.2-.4.3h-.7Zm4.1,2.9h-1.5l-1,.3a1,1,0,0,0-.5.4c-.1.2-.2.3-.2.5a.7.7,0,0,0,.1.5c0,.2.1.3.2.3l.4.2h1.1l.5-.2a.5.5,0,0,0,.4-.3l.5-.4Z" style="fill: #fff"/>
          <path d="M321.8,206.4l1.6.2a3.5,3.5,0,0,1,1.2.7,2.6,2.6,0,0,1,.7,1,4.3,4.3,0,0,1,.2,1.2,5.1,5.1,0,0,1-.2,1.3,2.5,2.5,0,0,1-.8,1,4.1,4.1,0,0,1-1.1.7l-1.6.2h-1.6v3.8h-1.4V206.4Zm0,5.2h1a1.8,1.8,0,0,0,.7-.5c.3-.1.4-.4.5-.6a2.9,2.9,0,0,0,.2-.9,2,2,0,0,0-.6-1.5,3,3,0,0,0-1.8-.5h-1.6v4.1Z" style="fill: #fff"/>
          <path d="M328,210.8a2.4,2.4,0,0,1,.8-1.1,1.7,1.7,0,0,1,1.2-.5h.8v1a.2.2,0,0,1-.2.2h-1.3c-.2,0-.3.1-.5.3l-.4.4-.3.7v4.5h-1.2v-7.1h1v1.4Z" style="fill: #fff"/>
          <path d="M337.4,215.5l-.6.5-.7.3-.7.2h-.8a3.2,3.2,0,0,1-1.4-.3l-1.1-.7a3.5,3.5,0,0,1-.7-1.2,7.8,7.8,0,0,1-.2-1.6,5.9,5.9,0,0,1,.2-1.4,4.1,4.1,0,0,1,.7-1.1,3.9,3.9,0,0,1,1-.8,3.2,3.2,0,0,1,1.4-.2,2.5,2.5,0,0,1,1.2.2,1.8,1.8,0,0,1,.9.6,2.1,2.1,0,0,1,.6,1,2.8,2.8,0,0,1,.3,1.3,1,1,0,0,1-.1.4h-5a3.7,3.7,0,0,0,.2,1.2,2.2,2.2,0,0,0,.5.8,1.8,1.8,0,0,0,.7.5l.9.2h.8l.6-.3.4-.2h.5Zm-1.1-3.4a2.5,2.5,0,0,0-.1-.8l-.3-.6-.6-.4h-.8a1.7,1.7,0,0,0-1.4.5,2.6,2.6,0,0,0-.6,1.4Z" style="fill: #fff"/>
          <path d="M344.9,206.1v10.4h-.8a.3.3,0,0,1-.3-.3v-.9a3.1,3.1,0,0,1-1.1.9,2.8,2.8,0,0,1-1.3.4,2,2,0,0,1-1.1-.3,2.8,2.8,0,0,1-.9-.7,2.8,2.8,0,0,1-.5-1.1,7.8,7.8,0,0,1-.2-1.6,5.9,5.9,0,0,1,.2-1.4,6.7,6.7,0,0,1,.6-1.2,3.9,3.9,0,0,1,1-.8,2.8,2.8,0,0,1,1.3-.3,2,2,0,0,1,1.1.3,1.6,1.6,0,0,1,.8.6v-4Zm-1.3,5a1.5,1.5,0,0,0-.7-.7l-1-.2a2.1,2.1,0,0,0-1.5.7,3.9,3.9,0,0,0-.5,2,4.1,4.1,0,0,0,.1,1.2,1.5,1.5,0,0,0,.4.8.8.8,0,0,0,.5.5l.8.2a2,2,0,0,0,1.1-.3l.8-.8Z" style="fill: #fff"/>
          <path d="M348.4,207.1c0,.2,0,.3-.1.4l-.2.3-.2.2h-.7l-.3-.2-.2-.3c0-.1-.1-.2-.1-.4v-.3l.2-.3.3-.2h.7l.2.2c.1.1.2.2.2.3A.4.4,0,0,1,348.4,207.1Zm-.3,2.3v7.1h-1.2v-7.1Z" style="fill: #fff"/>
          <path d="M350,210.4a3.8,3.8,0,0,1,1.3-.9,3.3,3.3,0,0,1,1.5-.3l1,.2.8.6a2.2,2.2,0,0,1,.5.8,4.3,4.3,0,0,1,.2,1.1v4.6h-.9a.3.3,0,0,1-.1-.2l-.2-.7-.5.5-.6.3-.6.2h-1.5l-.7-.4a1.5,1.5,0,0,1-.4-.6,1.9,1.9,0,0,1-.1-.8,1.1,1.1,0,0,1,.2-.8,1.6,1.6,0,0,1,.7-.7,4.6,4.6,0,0,1,1.4-.5l2-.2v-.6a2.1,2.1,0,0,0-.3-1.2,1.4,1.4,0,0,0-1.1-.4h-.7l-.6.2-.4.3h-.7Zm4,2.9h-1.4l-1,.3a.9.9,0,0,0-.6.4.9.9,0,0,0-.1.5v.5l.3.3.4.2h1l.5-.2a.5.5,0,0,0,.5-.3.8.8,0,0,0,.4-.4Z" style="fill: #fff"/>
          <path d="M358.4,206.1v10.4h-1.2V206.1Z" style="fill: #fff"/>
        </g>
      </g>
      <g class="hoverable" onclick="showTypeInstrument('desarrollo', 4, 1); changeImage('financiacion/F_Desarrollo');">
        <path d="M386.1,390.4,262.6,324.5a152.3,152.3,0,0,0,17.9-70.4l140,1.4A294.6,294.6,0,0,1,386.1,390.4Z" style="fill: #ca5c9d;opacity: 0.62"/>
        <g>
          <path d="M322.3,298.8a4.6,4.6,0,0,1-.4,2.1,3.9,3.9,0,0,1-1,1.6,4,4,0,0,1-1.5,1,6.5,6.5,0,0,1-2,.4h-3.8V293.8h3.8a6.5,6.5,0,0,1,2,.4,4,4,0,0,1,1.5,1,3.9,3.9,0,0,1,1,1.6A4.5,4.5,0,0,1,322.3,298.8Zm-1.4,0a7.8,7.8,0,0,0-.2-1.6,3.6,3.6,0,0,0-.8-1.2,2.3,2.3,0,0,0-1.1-.8,3.2,3.2,0,0,0-1.4-.3H315v7.9h2.4a3.2,3.2,0,0,0,1.4-.3,2.3,2.3,0,0,0,1.1-.8,3.6,3.6,0,0,0,.8-1.2A7.9,7.9,0,0,0,320.9,298.8Z" style="fill: #fff"/>
          <path d="M329.6,302.9c-.1.2-.3.3-.5.5l-.7.3-.8.2h-.8a2.8,2.8,0,0,1-1.3-.3,4.1,4.1,0,0,1-1.1-.7,3.5,3.5,0,0,1-.7-1.2,4.1,4.1,0,0,1-.2-1.6,3.2,3.2,0,0,1,.2-1.4,3.9,3.9,0,0,1,.6-1.1l1.1-.8a3.2,3.2,0,0,1,1.4-.2,2,2,0,0,1,1.1.2,2.1,2.1,0,0,1,1,.6,3.3,3.3,0,0,1,.6,1,2.7,2.7,0,0,1,.2,1.3v.4h-5a3.7,3.7,0,0,0,.2,1.2,2,2,0,0,0,.4.8l.7.5.9.2h.9l.5-.3a.5.5,0,0,0,.4-.2h.6Zm-1-3.4a2.5,2.5,0,0,0-.1-.8l-.4-.6-.5-.4h-.8a1.6,1.6,0,0,0-1.4.5,2.1,2.1,0,0,0-.7,1.4Z" style="fill: #fff"/>
          <path d="M335.4,297.9l-.3.2h-.2l-.3-.2h-1.7l-.4.2-.3.3a.6.6,0,0,0-.1.4.8.8,0,0,0,.2.5l.4.3a1.1,1.1,0,0,0,.6.2l.6.2.7.3.6.3.4.6a1.4,1.4,0,0,1,.2.7,2.9,2.9,0,0,1-.2.9,1.8,1.8,0,0,1-.5.7,1.9,1.9,0,0,1-.9.5l-1.1.2a2.8,2.8,0,0,1-1.3-.3,2.4,2.4,0,0,1-1.1-.6l.3-.5h.6l.4.3.4.2h1.4l.5-.3c.1-.1.2-.2.2-.3a.9.9,0,0,0,.1-.5.7.7,0,0,0-.1-.5l-.5-.3a.8.8,0,0,0-.6-.2l-.6-.3-.7-.2-.6-.4a1,1,0,0,1-.4-.5,1.9,1.9,0,0,1-.2-.8,2.4,2.4,0,0,1,.2-.8l.5-.6.8-.5h1a2.7,2.7,0,0,1,1.3.2,2.1,2.1,0,0,1,1,.6Z" style="fill: #fff"/>
          <path d="M337.1,297.8a3.8,3.8,0,0,1,1.3-.9,4,4,0,0,1,1.5-.3l1.1.2.7.6a2.2,2.2,0,0,1,.5.8,4.3,4.3,0,0,1,.2,1.1v4.6h-.9v-.2l-.2-.7c-.1.2-.3.3-.5.5l-.6.3-.6.2H338c-.2-.1-.5-.2-.6-.4a1,1,0,0,1-.5-.6,1.9,1.9,0,0,1-.1-.8,1.9,1.9,0,0,1,.2-.8,1.9,1.9,0,0,1,.8-.7l1.3-.5,2.1-.2v-.6a2.1,2.1,0,0,0-.4-1.2,1.2,1.2,0,0,0-1-.4H339l-.6.2-.3.3h-.6a.1.1,0,0,1-.1-.1Zm4.1,2.9h-1.5l-1,.3a.7.7,0,0,0-.5.4.6.6,0,0,0-.2.5.7.7,0,0,0,.1.5c0,.2.1.3.2.3a.5.5,0,0,0,.4.2h1.1l.5-.2a.5.5,0,0,0,.4-.3l.5-.4Z" style="fill: #fff"/>
          <path d="M345.5,298.2a2.4,2.4,0,0,1,.8-1.1,1.7,1.7,0,0,1,1.2-.5h.8v1a.2.2,0,0,1-.2.2h-1.3a.5.5,0,0,0-.5.3c-.1.1-.3.2-.4.4l-.3.7v4.5h-1.2v-7.1h1c0,.1.1.2.1.3Z" style="fill: #fff"/>
          <path d="M350.6,298.2a2.4,2.4,0,0,1,.8-1.1,1.7,1.7,0,0,1,1.2-.5h.8v1l-.2.2h-1.3a.5.5,0,0,0-.5.3l-.4.4-.3.7v4.5h-1.2v-7.1h1a.4.4,0,0,0,.1.3Z" style="fill: #fff"/>
          <path d="M357.2,296.7a3.2,3.2,0,0,1,1.4.2,2.5,2.5,0,0,1,1,.8,4.1,4.1,0,0,1,.7,1.1,3.9,3.9,0,0,1,.2,1.5,3.4,3.4,0,0,1-.2,1.5,3.5,3.5,0,0,1-.7,1.2l-1,.7a3.2,3.2,0,0,1-1.4.3,2.9,2.9,0,0,1-1.4-.3,3,3,0,0,1-1.1-.7,3.5,3.5,0,0,1-.7-1.2,6.1,6.1,0,0,1-.2-1.5,7.7,7.7,0,0,1,.2-1.5,4.1,4.1,0,0,1,.7-1.1,2.3,2.3,0,0,1,1.1-.8A3,3,0,0,1,357.2,296.7Zm0,6.3a1.6,1.6,0,0,0,1.5-.7,3,3,0,0,0,.6-2,3.2,3.2,0,0,0-.6-2,1.8,1.8,0,0,0-1.5-.7l-1,.2-.6.5a3.6,3.6,0,0,0-.4.9,3.7,3.7,0,0,0-.1,1.1,3,3,0,0,0,.5,2A1.8,1.8,0,0,0,357.2,303Z" style="fill: #fff"/>
          <path d="M363.4,293.6v10.3h-1.2V293.6Z" style="fill: #fff"/>
          <path d="M366.7,293.6v10.3h-1.2V293.6Z" style="fill: #fff"/>
          <path d="M371.7,296.7a3.2,3.2,0,0,1,1.4.2,2.8,2.8,0,0,1,1.1.8,4.1,4.1,0,0,1,.7,1.1,7.7,7.7,0,0,1,.2,1.5,6.1,6.1,0,0,1-.2,1.5,3.5,3.5,0,0,1-.7,1.2,4.1,4.1,0,0,1-1.1.7,3.4,3.4,0,0,1-2.8,0,4.1,4.1,0,0,1-1.1-.7,2.3,2.3,0,0,1-.6-1.2,3.3,3.3,0,0,1-.3-1.5,4,4,0,0,1,.3-1.5,2.4,2.4,0,0,1,.6-1.1,2.8,2.8,0,0,1,1.1-.8A3.2,3.2,0,0,1,371.7,296.7Zm0,6.3a1.9,1.9,0,0,0,1.6-.7,3.7,3.7,0,0,0,.5-2,3.9,3.9,0,0,0-.5-2,2.2,2.2,0,0,0-1.6-.7l-.9.2a1.8,1.8,0,0,0-.7.5l-.4.9a3.7,3.7,0,0,0-.1,1.1,3.7,3.7,0,0,0,.5,2A1.9,1.9,0,0,0,371.7,303Z" style="fill: #fff"/>
        </g>
      </g>
      <g class="hoverable" onclick="showTypeInstrument('destinacion_especifica', 4, 1); changeImage('financiacion/F_Destinacion_Especifica');">
        <path d="M281.4,501.3,207.3,382.5a154.7,154.7,0,0,0,50.9-52.1l120.4,71.5A296.1,296.1,0,0,1,281.4,501.3Z" style="fill: #cc62a1;opacity: 0.62"/>
        <g>
          <path d="M255.4,397.8a4.6,4.6,0,0,1-.4,2.1,5.4,5.4,0,0,1-1,1.6,3.7,3.7,0,0,1-1.6,1,5.9,5.9,0,0,1-2,.4h-3.7V392.8h3.7a5.9,5.9,0,0,1,2,.4,3.7,3.7,0,0,1,1.6,1,5.4,5.4,0,0,1,1,1.6A4.5,4.5,0,0,1,255.4,397.8Zm-1.4,0a4.1,4.1,0,0,0-.3-1.6,2.4,2.4,0,0,0-.7-1.2,2.8,2.8,0,0,0-1.1-.8,3.3,3.3,0,0,0-1.5-.3H248v7.9h2.4a3.3,3.3,0,0,0,1.5-.3,2.8,2.8,0,0,0,1.1-.8,2.4,2.4,0,0,0,.7-1.2A4.3,4.3,0,0,0,254,397.8Z" style="fill: #fff"/>
          <path d="M262.7,401.9l-.6.5-.6.3-.8.2h-.8a2.8,2.8,0,0,1-1.3-.3,3,3,0,0,1-1.1-.7,3.5,3.5,0,0,1-.7-1.2,4.1,4.1,0,0,1-.3-1.6,3.2,3.2,0,0,1,.3-1.4,2.4,2.4,0,0,1,.6-1.1,3.1,3.1,0,0,1,1.1-.8,2.7,2.7,0,0,1,1.3-.2,2.2,2.2,0,0,1,1.2.2,2.1,2.1,0,0,1,1,.6l.6,1a5.1,5.1,0,0,1,.2,1.3c0,.2,0,.4-.1.4s-.1.1-.2.1h-4.7a2.2,2.2,0,0,0,.2,1.2,2,2,0,0,0,.4.8,1.8,1.8,0,0,0,.7.5l.9.2h.8l.6-.3a.5.5,0,0,0,.4-.2h.5Zm-1-3.4c0-.2-.1-.5-.1-.8l-.4-.6-.6-.4h-.7a1.6,1.6,0,0,0-1.4.5,2.1,2.1,0,0,0-.7,1.4Z" style="fill: #fff"/>
          <path d="M268.5,396.9l-.3.2H268l-.4-.2H266l-.4.2q-.3.2-.3.3a.6.6,0,0,0-.1.4.7.7,0,0,0,.1.5l.5.3.5.2.7.2.7.3.6.3.4.6a1.4,1.4,0,0,1,.2.7,2.9,2.9,0,0,1-.2.9,1.8,1.8,0,0,1-.5.7,2.6,2.6,0,0,1-.9.5l-1.1.2a3.2,3.2,0,0,1-1.4-.3,2.1,2.1,0,0,1-1-.6l.3-.5h.6l.3.3.5.2h1.4l.4-.3c.2-.1.2-.2.3-.3a.9.9,0,0,0,.1-.5.8.8,0,0,0-.2-.5l-.4-.3-.6-.2-.7-.3-.6-.2a.9.9,0,0,1-.6-.4,1,1,0,0,1-.4-.5,1.9,1.9,0,0,1-.2-.8,2.4,2.4,0,0,1,.2-.8,1.3,1.3,0,0,1,.5-.6,1.6,1.6,0,0,1,.8-.5h1a2.7,2.7,0,0,1,1.3.2,1.8,1.8,0,0,1,.9.6Z" style="fill: #fff"/>
          <path d="M277,402.9h-1.3v-6.1h-3.6v4.3c0,.3,0,.5.2.6a.6.6,0,0,0,.6.3h1l.4.6-.8.5-.9.2a1.7,1.7,0,0,1-1.3-.5,1.9,1.9,0,0,1-.5-1.3v-4.4H270c-.1,0-.2,0-.2-.1s-.1-.1-.1-.2V396h1.2l.3-2.2v-.2h.8v2.4H277Zm.3-9.4a.4.4,0,0,1-.1.3l-.2.3-.3.2H276a.2.2,0,0,1-.2-.2l-.2-.3a.4.4,0,0,1-.1-.3.8.8,0,0,1,.1-.4,1990328647664,1990328647664,0,0,1,.4-.4h.7l.3.2a.2.2,0,0,1,.2.2A.8.8,0,0,1,277.3,393.5Z" style="fill: #fff"/>
          <path d="M280.2,396.8l.5-.5.5-.3.6-.3h.8a2.2,2.2,0,0,1,1.7.7,2.2,2.2,0,0,1,.5.8,4.1,4.1,0,0,1,.1,1.1v4.6h-1.2v-4.6a2.1,2.1,0,0,0-.4-1.2,1.2,1.2,0,0,0-1.1-.4,1.6,1.6,0,0,0-1,.2,2.2,2.2,0,0,0-.9.7v5.3H279v-7.1h.8c.1,0,.3.1.3.2Z" style="fill: #fff"/>
          <path d="M286.6,396.8a5.1,5.1,0,0,1,1.3-.9,4,4,0,0,1,1.5-.3l1.1.2.8.6a2,2,0,0,1,.4.8,4.3,4.3,0,0,1,.2,1.1v4.6h-.8l-.2-.2v-.7l-.6.5-.5.3-.7.2h-1.5l-.6-.4a.9.9,0,0,1-.4-.6,1.1,1.1,0,0,1-.2-.8,1.9,1.9,0,0,1,.2-.8,1.9,1.9,0,0,1,.8-.7l1.3-.5,2.1-.2v-.6a1.6,1.6,0,0,0-.4-1.2,1.2,1.2,0,0,0-1-.4h-.8l-.5.2-.4.3h-.7Zm4.1,2.9h-1.5l-1,.3a1,1,0,0,0-.5.4c-.1.2-.2.3-.2.5a.7.7,0,0,0,.1.5c0,.2.1.3.2.3l.4.2h1.1l.5-.2a.5.5,0,0,0,.4-.3l.5-.4Z" style="fill: #fff"/>
          <path d="M298.7,397a.1.1,0,0,1-.1.1h-.4l-.3-.2-.4-.2h-.7l-.9.2a1.3,1.3,0,0,0-.7.6,2,2,0,0,0-.4.8,3.7,3.7,0,0,0-.1,1.1,4.9,4.9,0,0,0,.1,1.2,2,2,0,0,0,.4.8,1.8,1.8,0,0,0,.7.5l.8.2h.8l.5-.3.3-.2h.5l.3.5c-.1.2-.3.3-.5.5l-.6.3-.7.2h-.8a2.7,2.7,0,0,1-1.2-.3,2.3,2.3,0,0,1-1-.7,4.1,4.1,0,0,1-.7-1.1,6.1,6.1,0,0,1,0-3.1,4.1,4.1,0,0,1,.7-1.1,2.7,2.7,0,0,1,1-.8,3.2,3.2,0,0,1,1.4-.2,2.5,2.5,0,0,1,1.3.2,4.1,4.1,0,0,1,1.1.7Z" style="fill: #fff"/>
          <path d="M302.1,393.5c0,.2-.1.3-.1.4l-.2.3-.3.2h-.7l-.3-.2-.2-.3v-.7c.1-.1.2-.2.2-.3l.3-.2h.7l.3.2.2.3C302,393.3,302.1,393.4,302.1,393.5Zm-.3,2.3v7.1h-1.3v-7.1Z" style="fill: #fff"/>
          <path d="M306.8,395.7a3.2,3.2,0,0,1,1.4.2,2.8,2.8,0,0,1,1.1.8,4.1,4.1,0,0,1,.7,1.1,7.7,7.7,0,0,1,.2,1.5,6.1,6.1,0,0,1-.2,1.5,3.5,3.5,0,0,1-.7,1.2,4.1,4.1,0,0,1-1.1.7,3.4,3.4,0,0,1-2.8,0,4.1,4.1,0,0,1-1.1-.7,2.3,2.3,0,0,1-.6-1.2,3.3,3.3,0,0,1-.3-1.5,4,4,0,0,1,.3-1.5,2.4,2.4,0,0,1,.6-1.1,2.8,2.8,0,0,1,1.1-.8A3.2,3.2,0,0,1,306.8,395.7Zm0,6.3a1.9,1.9,0,0,0,1.6-.7,3.7,3.7,0,0,0,.5-2,3.9,3.9,0,0,0-.5-2,2.2,2.2,0,0,0-1.6-.7l-.9.2a1.8,1.8,0,0,0-.7.5l-.4.9c0,.3-.1.7-.1,1.1a3.7,3.7,0,0,0,.5,2A1.9,1.9,0,0,0,306.8,402Zm2.1-9.3-1.7,1.8c0,.1-.1.1-.2.2h-.9l1-1.7c.1-.1.1-.2.2-.2h1.6Z" style="fill: #fff"/>
          <path d="M312.9,396.8c.2-.2.4-.3.5-.5l.6-.3.6-.3h.7a1.6,1.6,0,0,1,1,.2l.8.5a2,2,0,0,1,.4.8,4.3,4.3,0,0,1,.2,1.1v4.6h-1.3v-4.6a2.1,2.1,0,0,0-.3-1.2,1.6,1.6,0,0,0-1.2-.4,1.8,1.8,0,0,0-1,.2l-.9.7v5.3h-1.2v-7.1h.7c.2,0,.3.1.3.2Z" style="fill: #fff"/>
          <path d="M259,418.6v1.1h-6.2V409.6H259v1.1h-4.9v3.4h4v1h-4v3.5Z" style="fill: #fff"/>
          <path d="M264.6,413.7c-.1.1-.1.2-.3.2h-.2l-.3-.2h-1.7l-.4.2-.3.3c0,.1-.1.3-.1.4a.8.8,0,0,0,.2.5l.4.3.6.2.7.2.6.3.6.3a2.1,2.1,0,0,1,.4.6,1.4,1.4,0,0,1,.2.7,2.9,2.9,0,0,1-.2.9,1.8,1.8,0,0,1-.5.7l-.8.5-1.2.2a2.8,2.8,0,0,1-1.3-.3,1.7,1.7,0,0,1-1-.6l.2-.5h.6l.4.3.5.2H263l.5-.3c.1-.1.2-.2.2-.3a.9.9,0,0,0,.1-.5.7.7,0,0,0-.1-.5l-.4-.3-.6-.2-.7-.3-.7-.2-.6-.4a1,1,0,0,1-.4-.5,1.9,1.9,0,0,1-.2-.8,2.4,2.4,0,0,1,.2-.8l.5-.6.8-.5h1.1a2.5,2.5,0,0,1,1.2.2,2.1,2.1,0,0,1,1,.6Z" style="fill: #fff"/>
          <path d="M267.7,413.7a3.1,3.1,0,0,1,1.1-.9,2.8,2.8,0,0,1,1.3-.4,2,2,0,0,1,1.1.3,2.8,2.8,0,0,1,.9.7,3.7,3.7,0,0,1,.5,1.1,7.8,7.8,0,0,1,.2,1.6,5.9,5.9,0,0,1-.2,1.4l-.6,1.2a3.9,3.9,0,0,1-1,.8,2.8,2.8,0,0,1-1.3.3,2,2,0,0,1-1.1-.3,1.6,1.6,0,0,1-.8-.6v3.2h-1.3v-9.5h.8c.2,0,.3.1.3.2Zm.1,4.3a1.9,1.9,0,0,0,.7.6l.9.2a1.9,1.9,0,0,0,1.6-.7,3.9,3.9,0,0,0,.5-2,4.1,4.1,0,0,0-.1-1.2,1.5,1.5,0,0,0-.4-.8,1.2,1.2,0,0,0-.5-.5h-.8a2,2,0,0,0-1.1.2,3,3,0,0,0-.8.8Z" style="fill: #fff"/>
          <path d="M280.1,418.7l-.5.5-.7.3-.8.2h-.7a3.2,3.2,0,0,1-1.4-.3,4.1,4.1,0,0,1-1.1-.7,3.5,3.5,0,0,1-.7-1.2,7.8,7.8,0,0,1-.2-1.6,3.2,3.2,0,0,1,.2-1.4,4.1,4.1,0,0,1,.7-1.1,2.7,2.7,0,0,1,1-.8,3.2,3.2,0,0,1,1.4-.2,2.5,2.5,0,0,1,1.2.2,2.4,2.4,0,0,1,.9.6,2.1,2.1,0,0,1,.6,1,2.7,2.7,0,0,1,.2,1.3v.4h-5a3.7,3.7,0,0,0,.2,1.2l.4.8.7.5,1,.2h.8l.6-.3.4-.2h.5Zm-1-3.4a2.5,2.5,0,0,0-.1-.8l-.4-.6a1,1,0,0,0-.5-.4h-.8a1.6,1.6,0,0,0-1.4.5,2.1,2.1,0,0,0-.7,1.4Zm.2-5.8-1.6,1.8-.2.2h-1l1.1-1.7a.2.2,0,0,1,.2-.2h1.5Z" style="fill: #fff"/>
          <path d="M286.7,413.8h-.1c0,.1-.1.1-.2.1h-.2l-.3-.2-.5-.2h-.6l-.9.2a1.3,1.3,0,0,0-.7.6,2,2,0,0,0-.4.8,3.6,3.6,0,0,0-.2,1.1,5,5,0,0,0,.2,1.2,2,2,0,0,0,.4.8,1.8,1.8,0,0,0,.7.5l.8.2h.8l.5-.3.3-.2h.5l.3.5-.5.5-.6.3-.8.2h-.7a2.4,2.4,0,0,1-1.2-.3,1.8,1.8,0,0,1-1-.7,4.1,4.1,0,0,1-.7-1.1,7.8,7.8,0,0,1-.2-1.6,3.8,3.8,0,0,1,.8-2.6l1.1-.8a3.2,3.2,0,0,1,1.4-.2,2.7,2.7,0,0,1,1.3.2l1,.7Z" style="fill: #fff"/>
          <path d="M290,410.3v.4c-.1.1-.2.2-.2.3l-.3.2h-.7l-.3-.2-.2-.3V410l.2-.3.3-.2h.7l.3.2c0,.1.1.2.2.3Zm-.2,2.3v7.1h-1.3v-7.1Z" style="fill: #fff"/>
          <path d="M292.3,419.7v-6.1h-.8c-.1,0-.2,0-.2-.1s-.1-.1-.1-.2v-.5h1.1v-.4a5,5,0,0,1,.2-1.2,2.4,2.4,0,0,1,.6-.9,2.1,2.1,0,0,1,1-.6,3.2,3.2,0,0,1,1.4-.2h1v.7h-.6a2.6,2.6,0,0,0-1.8.5,2,2,0,0,0-.6,1.6v.3h4.3v7h-1.3v-6.1h-3v6.1Z" style="fill: #fff"/>
          <path d="M304.8,413.8h-.5l-.3-.2-.5-.2h-.7l-.9.2a1.3,1.3,0,0,0-.7.6,5.9,5.9,0,0,0-.4.8c0,.3-.1.7-.1,1.1a5,5,0,0,0,.2,1.2,2,2,0,0,0,.4.8,1.5,1.5,0,0,0,.6.5l.9.2h.7l.5-.3.3-.2h.5l.4.5-.5.5-.7.3-.7.2h-.7a2.8,2.8,0,0,1-1.3-.3,2.3,2.3,0,0,1-1-.7,2.4,2.4,0,0,1-.6-1.1,4.1,4.1,0,0,1-.3-1.6,4,4,0,0,1,.3-1.5,2.4,2.4,0,0,1,.6-1.1,3.9,3.9,0,0,1,1-.8,3.6,3.6,0,0,1,1.5-.2,2.7,2.7,0,0,1,1.3.2l1,.7Z" style="fill: #fff"/>
          <path d="M306.3,413.6a3.8,3.8,0,0,1,1.3-.9,4,4,0,0,1,1.5-.3l1.1.2.7.6a2.2,2.2,0,0,1,.5.8,4.3,4.3,0,0,1,.2,1.1v4.6h-.9a.3.3,0,0,1-.1-.2l-.2-.7c-.1.2-.3.3-.5.5l-.6.3-.6.2h-1.5c-.2-.1-.5-.2-.6-.4a1,1,0,0,1-.5-.6,1.9,1.9,0,0,1-.1-.8,1.9,1.9,0,0,1,.2-.8,1.9,1.9,0,0,1,.8-.7l1.3-.5,2.1-.2v-.6a2.1,2.1,0,0,0-.4-1.2,1.2,1.2,0,0,0-1-.4h-.8l-.6.2-.3.3h-.6a.1.1,0,0,1-.1-.1Zm4.1,2.9h-1.5l-1,.3a.7.7,0,0,0-.5.4.6.6,0,0,0-.2.5.7.7,0,0,0,.1.5c0,.2.1.3.2.3l.4.2H309l.5-.2a.5.5,0,0,0,.4-.3l.5-.4Z" style="fill: #fff"/>
        </g>
      </g>
      <g class="hoverable" onclick="returnToGroups(); changeImage('rueda');">
        <circle cx="127.5" cy="248.5" r="109" style="fill: #bcc3c5"/>
        <g>
          <path d="M57.7,241.6h8.2v2.1H60.3v4h5.2v2.1H60.3v6.1H57.7Z" style="fill: #112025"/>
          <path d="M71,241.6v14.3H68.4V241.6Z" style="fill: #112025"/>
          <path d="M74,255.9V241.6h3l3.7,6.1a35.8,35.8,0,0,1,2.4,4.8h0c-.1-1.9-.2-3.8-.2-5.9v-5h2.4v14.3H82.6l-3.7-6.3c-.9-1.6-1.8-3.3-2.5-4.9h-.1c.1,1.8.1,3.7.1,6.1v5.1Z" style="fill: #112025"/>
          <path d="M91.2,251.8,90,255.9H87.3l4.5-14.3h3.4l4.6,14.3H97l-1.3-4.1Zm4.1-2-1.1-3.5a25.8,25.8,0,0,1-.8-2.6h0a25,25,0,0,1-.7,2.6l-1.1,3.5Z" style="fill: #112025"/>
          <path d="M101.8,255.9V241.6h3l3.6,6.1a36.7,36.7,0,0,1,2.5,4.8h0c-.1-1.9-.2-3.8-.2-5.9v-5h2.4v14.3h-2.7l-3.7-6.3c-.9-1.6-1.9-3.3-2.6-4.9h0c.1,1.8.1,3.7.1,6.1v5.1Z" style="fill: #112025"/>
          <path d="M126.3,255.4a8.8,8.8,0,0,1-3.7.7c-4.5,0-7.2-2.9-7.2-7.2s3.2-7.5,7.6-7.5a8.4,8.4,0,0,1,3.5.6l-.6,2.1a6.9,6.9,0,0,0-2.8-.6c-2.9,0-5,1.8-5,5.3s1.8,5.1,5,5.1a7.8,7.8,0,0,0,2.8-.5Z" style="fill: #112025"/>
          <path d="M131.2,241.6v14.3h-2.6V241.6Z" style="fill: #112025"/>
          <path d="M137,251.8l-1.2,4.1h-2.7l4.6-14.3H141l4.6,14.3h-2.8l-1.3-4.1Zm4.1-2-1.1-3.5c-.3-.8-.5-1.8-.8-2.6h0a25,25,0,0,1-.7,2.6l-1.1,3.5Z" style="fill: #112025"/>
          <path d="M157.4,255.4a9.2,9.2,0,0,1-3.7.7c-4.5,0-7.3-2.9-7.3-7.2s3.3-7.5,7.6-7.5a7.7,7.7,0,0,1,3.5.6l-.6,2.1a6.5,6.5,0,0,0-2.8-.6c-2.9,0-5,1.8-5,5.3s1.9,5.1,5,5.1a7.9,7.9,0,0,0,2.9-.5Z" style="fill: #112025"/>
          <path d="M162.2,241.6v14.3h-2.6V241.6Z" style="fill: #112025"/>
          <path d="M177.8,248.6c0,4.8-2.9,7.5-6.8,7.5s-6.5-3.1-6.5-7.3,2.7-7.4,6.7-7.4S177.8,244.5,177.8,248.6Zm-10.6.2c0,2.9,1.5,5.2,4,5.2s3.9-2.3,3.9-5.3-1.3-5.3-3.9-5.3S167.2,245.8,167.2,248.8Zm7.4-10.6-2.7,2.6h-2.1l1.9-2.6Z" style="fill: #112025"/>
          <path d="M180.1,255.9V241.6h3l3.6,6.1a36.7,36.7,0,0,1,2.5,4.8h0a56.2,56.2,0,0,1-.2-5.9v-5h2.4v14.3h-2.7l-3.7-6.3c-.9-1.6-1.9-3.3-2.6-4.9h0c.1,1.8.1,3.7.1,6.1v5.1Z" style="fill: #112025"/>
        </g>
        <circle cx="127.5" cy="248.5" r="127" style="fill: none;stroke: #a9b7bc;stroke-miterlimit: 10"/>
      </g>
    </g>
  </g>
</svg>
