<svg xmlns="http://www.w3.org/2000/svg" viewBox="0 0 363.8 340.3">
  <defs>
    <style>
      .a {
        fill: #bdc4c6;
      }

      .b {
        font-size: 22.56px;
        fill: #1a1a1a;
        font-family: Lato-Regular, Lato;
      }

      .c {
        letter-spacing: -0.02em;
      }

      .d {
        letter-spacing: -0.01em;
      }

      .e {
        letter-spacing: -0.01em;
      }

      .f {
        letter-spacing: 0em;
      }

      .g {
        fill: #71bfbb;
      }

      .h {
        fill: #112025;
      }
    </style>
  </defs>
  <g class="hoverable" onclick="mostrar('g-economico');">
    <path class="a hoverable" d="M121.9,23.3a158.9,158.9,0,0,0-18.4,258.1l91.8-118.7Z" />
    <text class="b hover-text" transform="translate(59.8 158.6) scale(0.93 1)">
      <tspan class="c">E</tspan>
      <tspan class="d" x="12.5" y="0">c</tspan>
      <tspan x="23.1" y="0">onómi</tspan>
      <tspan class="d" x="85.2" y="0">c</tspan>
      <tspan x="95.8" y="0">os</tspan>
    </text>
  </g>
  <g class="hoverable" id="g-gestion">
    <path class="a" d="M117.8,292a159.1,159.1,0,0,0,228.6-60.7L208.8,174.4Z" />
    <text class="b" transform="translate(180.8 247) scale(0.93 1)">
      <tspan class="e">G</tspan>
      <tspan x="16.3" y="0">estión del </tspan>
      <tspan x="30.3" y="27.1">suelo</tspan>
    </text>
  </g>
  <g class="hoverable" id="g-financiacion">
    <path class="a" d="M353.6,215a159,159,0,0,0-216-200.1l74.7,141.7Z" />
    <text class="b" transform="translate(207.8 98.8) scale(0.93 1)">
      <tspan class="f">F</tspan>
      <tspan x="12.7" y="0">inanciación </tspan>
    </text>
  </g>
  <g>
    <rect class="g" x="238" y="287.7" width="52.6" height="52.6" rx="26.3" />
    <path class="h"
      d="M258.2,331.8v-3.3a1.2,1.2,0,0,1,1.2-1.2h.3a1.1,1.1,0,0,0,1.1-1.1V313.7a1.2,1.2,0,0,0-1.1-1.2h-.3a1.1,1.1,0,0,1-1.2-1.1v-3.3a1.1,1.1,0,0,1,1.2-1.1h7.5a1.1,1.1,0,0,1,1.1,1.1v18.1a1.1,1.1,0,0,0,1.2,1.1h0a1.2,1.2,0,0,1,1.1,1.2v3.3a1.1,1.1,0,0,1-1.1,1.1h-9.8A1.1,1.1,0,0,1,258.2,331.8Zm10.5-32.1a4.8,4.8,0,0,1-1.3,3.2,4.1,4.1,0,0,1-2.9,1.3,4.3,4.3,0,0,1-3-1.3,4.7,4.7,0,0,1-1.2-3.2,4.5,4.5,0,0,1,1.2-3.2,3.9,3.9,0,0,1,3-1.3,3.7,3.7,0,0,1,2.9,1.3A4.6,4.6,0,0,1,268.7,299.7Z" />
  </g>
  <g>
    <rect class="g" x="293.5" y="15.3" width="52.6" height="52.6" rx="26.3" />
    <path class="h"
      d="M313.7,59.3V56a1.1,1.1,0,0,1,1.2-1.1h.3a1.1,1.1,0,0,0,1.1-1.2V41.3a1.1,1.1,0,0,0-1.1-1.2h-.3a1.1,1.1,0,0,1-1.2-1.1V35.7a1.2,1.2,0,0,1,1.2-1.2h7.5a1.1,1.1,0,0,1,1.1,1.2v18a1.2,1.2,0,0,0,1.2,1.2h0a1.1,1.1,0,0,1,1.1,1.1v3.3a1.1,1.1,0,0,1-1.1,1.2h-9.8A1.2,1.2,0,0,1,313.7,59.3Zm10.5-32.1a4.6,4.6,0,0,1-1.3,3.2,3.7,3.7,0,0,1-2.9,1.3,3.9,3.9,0,0,1-3-1.3,4.5,4.5,0,0,1-1.2-3.2A4.7,4.7,0,0,1,317,24a4.3,4.3,0,0,1,3-1.3,4.1,4.1,0,0,1,2.9,1.3A4.8,4.8,0,0,1,324.2,27.2Z" />
  </g>
  <g>
    <rect class="g" y="128" width="52.6" height="52.6" rx="26.3" />
    <path class="h"
      d="M20.3,172v-3.3a1.1,1.1,0,0,1,1.1-1.1h.3a1.2,1.2,0,0,0,1.2-1.2V153.9a1.1,1.1,0,0,0-1.2-1.1h-.3a1.1,1.1,0,0,1-1.1-1.2v-3.3a1.1,1.1,0,0,1,1.1-1.1h7.5a1.1,1.1,0,0,1,1.1,1.1v18.1a1.2,1.2,0,0,0,1.2,1.2h0a1.1,1.1,0,0,1,1.1,1.1V172a1.2,1.2,0,0,1-1.1,1.2H21.4A1.2,1.2,0,0,1,20.3,172Zm10.4-32.1a4.7,4.7,0,0,1-1.2,3.2,3.9,3.9,0,0,1-3,1.3,3.7,3.7,0,0,1-2.9-1.3,4.6,4.6,0,0,1,0-6.4,3.7,3.7,0,0,1,2.9-1.3,3.9,3.9,0,0,1,3,1.3A4.7,4.7,0,0,1,30.7,139.9Z" />
  </g>

</svg>