<svg class="animate__animated" xmlns="http://www.w3.org/2000/svg" viewBox="0 0 363.8 340.3">
  <g>
    <g class="hoverable" onclick="showType('g-economico');">
      <path d="M121.9,23.3a158.9,158.9,0,0,0-18.4,258.1l91.8-118.7Z" style="fill: #bdc4c6"/>
      <g>
        <path d="M71,156.8v1.8H61.8V142.5H71v1.7H63.8v5.4h5.8v1.7H63.8v5.5Z" style="fill: #1a1a1a"/>
        <path d="M80.3,149.2l-.2.2h-.2l-.4-.2-.4-.3-.7-.3h-1a3.2,3.2,0,0,0-1.4.3,3.9,3.9,0,0,0-1,.8,3.5,3.5,0,0,0-.6,1.4,8.2,8.2,0,0,0,0,3.6,9.8,9.8,0,0,0,.6,1.4,2.5,2.5,0,0,0,1,.8,2.8,2.8,0,0,0,1.3.3,2,2,0,0,0,1.1-.2l.7-.3.5-.4a.4.4,0,0,1,.4-.2l.4.2.5.7-.8.8-1,.6-1,.3H77a5.8,5.8,0,0,1-1.9-.4,4.4,4.4,0,0,1-1.5-1.2,7.7,7.7,0,0,1-1-1.8,9.5,9.5,0,0,1-.3-2.5,9.3,9.3,0,0,1,.3-2.4,5.2,5.2,0,0,1,1-1.8,4.7,4.7,0,0,1,1.5-1.3,7.8,7.8,0,0,1,2.2-.4,3.8,3.8,0,0,1,1.9.4,5.7,5.7,0,0,1,1.6,1.1Z" style="fill: #1a1a1a"/>
        <path d="M87.2,147a4.5,4.5,0,0,1,2,.4,4,4,0,0,1,1.6,1.2,3.9,3.9,0,0,1,1,1.9,7.4,7.4,0,0,1,0,4.8,3.9,3.9,0,0,1-1,1.9,4,4,0,0,1-1.6,1.2,6.5,6.5,0,0,1-2,.4,7.8,7.8,0,0,1-2.2-.4,4.4,4.4,0,0,1-1.5-1.2,5,5,0,0,1-1.1-1.9,9.8,9.8,0,0,1,0-4.8,5,5,0,0,1,1.1-1.9,4.4,4.4,0,0,1,1.5-1.2A5.4,5.4,0,0,1,87.2,147Zm0,10.2a2.7,2.7,0,0,0,2.3-1.1,6.8,6.8,0,0,0,0-6.4,2.7,2.7,0,0,0-2.3-1.1,2.9,2.9,0,0,0-1.4.3,2.7,2.7,0,0,0-1,.8,3,3,0,0,0-.6,1.4,9,9,0,0,0-.2,1.8,5.8,5.8,0,0,0,.8,3.2A2.8,2.8,0,0,0,87.2,157.2Z" style="fill: #1a1a1a"/>
        <path d="M96.3,148.8l.7-.7.9-.6a2.5,2.5,0,0,1,.9-.4h1a4.1,4.1,0,0,1,1.6.3,3.1,3.1,0,0,1,1.1.9,3,3,0,0,1,.6,1.4,4.7,4.7,0,0,1,.3,1.7v7.3h-1.9v-7.3a3.9,3.9,0,0,0-.5-2,2.1,2.1,0,0,0-1.7-.7,4.2,4.2,0,0,0-1.6.4,7.1,7.1,0,0,0-1.3,1.2v8.4H94.5V147.2h1.2a.5.5,0,0,1,.5.4Z" style="fill: #1a1a1a"/>
        <path d="M110.7,147a4.6,4.6,0,0,1,2.1.4,6.1,6.1,0,0,1,1.6,1.2,6.7,6.7,0,0,1,1,1.9,9.8,9.8,0,0,1,0,4.8,6.7,6.7,0,0,1-1,1.9,6.1,6.1,0,0,1-1.6,1.2,5.7,5.7,0,0,1-4.2,0,4,4,0,0,1-1.6-1.2,3.9,3.9,0,0,1-1-1.9,7.4,7.4,0,0,1,0-4.8,3.9,3.9,0,0,1,1-1.9,4,4,0,0,1,1.6-1.2A4.6,4.6,0,0,1,110.7,147Zm0,10.2a2.7,2.7,0,0,0,2.3-1.1,6.8,6.8,0,0,0,0-6.4,2.7,2.7,0,0,0-2.3-1.1,3.2,3.2,0,0,0-1.4.3,3.9,3.9,0,0,0-1,.8,9.8,9.8,0,0,0-.6,1.4,9,9,0,0,0-.2,1.8,5.8,5.8,0,0,0,.8,3.2A2.8,2.8,0,0,0,110.7,157.2Zm3-14.9-2.4,2.9-.3.2h-1.5l1.6-2.7.3-.4h2.3Z" style="fill: #1a1a1a"/>
        <path d="M118.1,158.6V147.2h1.1c.3,0,.4.1.5.4v1.2l1.3-1.3a3.4,3.4,0,0,1,1.7-.5,2.4,2.4,0,0,1,1.8.7,3.9,3.9,0,0,1,.9,1.7l.6-1.1.8-.7a3.1,3.1,0,0,1,1-.5h1a3.3,3.3,0,0,1,1.5.3l1.1.8a6.1,6.1,0,0,1,.7,1.4,5,5,0,0,1,.2,1.8v7.3h-1.8v-7.3a3,3,0,0,0-.6-2,1.7,1.7,0,0,0-1.5-.7l-.9.2a1.8,1.8,0,0,0-.7.5,1.3,1.3,0,0,0-.5.9,2,2,0,0,0-.2,1.1v7.3h-1.9v-7.3a3.4,3.4,0,0,0-.5-2,1.6,1.6,0,0,0-1.5-.7,2,2,0,0,0-1.3.4l-1.1,1.1v8.5Z" style="fill: #1a1a1a"/>
        <path d="M137.6,143.6a.7.7,0,0,1-.1.5.5.5,0,0,1-.3.5l-.4.3h-1l-.4-.3-.3-.5a.7.7,0,0,1-.1-.5,1.3,1.3,0,0,1,.1-.6l.3-.4c.1-.2.2-.3.4-.3h1c.2,0,.3.1.4.3a.5.5,0,0,1,.3.4A1.3,1.3,0,0,1,137.6,143.6Zm-.4,3.6v11.4h-1.8V147.2Z" style="fill: #1a1a1a"/>
        <path d="M147.7,149.2l-.2.2h-.2l-.4-.2-.4-.3-.7-.3h-1a3.2,3.2,0,0,0-1.4.3,3.9,3.9,0,0,0-1,.8,3.5,3.5,0,0,0-.6,1.4,8.2,8.2,0,0,0,0,3.6,9.8,9.8,0,0,0,.6,1.4,2.5,2.5,0,0,0,1,.8,2.8,2.8,0,0,0,1.3.3,1.8,1.8,0,0,0,1.1-.2l.7-.3.5-.4c.2-.2.3-.2.4-.2l.4.2.5.7-.8.8-.9.6-1.1.3h-1.1a5.8,5.8,0,0,1-1.9-.4l-1.5-1.2a5.1,5.1,0,0,1-.9-1.8,6.6,6.6,0,0,1-.4-2.5,9.3,9.3,0,0,1,.3-2.4,5.2,5.2,0,0,1,1-1.8,4.2,4.2,0,0,1,1.6-1.3,6.5,6.5,0,0,1,2.1-.4,3.8,3.8,0,0,1,1.9.4,5.7,5.7,0,0,1,1.6,1.1Z" style="fill: #1a1a1a"/>
        <path d="M154.6,147a5.2,5.2,0,0,1,2.1.4,4.4,4.4,0,0,1,1.5,1.2,5,5,0,0,1,1.1,1.9,9.8,9.8,0,0,1,0,4.8,5,5,0,0,1-1.1,1.9,4.4,4.4,0,0,1-1.5,1.2,7.8,7.8,0,0,1-2.1.4,6.5,6.5,0,0,1-2.1-.4,4,4,0,0,1-1.6-1.2,5,5,0,0,1-1.1-1.9,9.8,9.8,0,0,1,0-4.8,5,5,0,0,1,1.1-1.9,4,4,0,0,1,1.6-1.2A4.6,4.6,0,0,1,154.6,147Zm0,10.2a2.7,2.7,0,0,0,2.3-1.1,6.8,6.8,0,0,0,0-6.4,2.7,2.7,0,0,0-2.3-1.1,2.9,2.9,0,0,0-1.4.3,3.9,3.9,0,0,0-1,.8,3,3,0,0,0-.6,1.4,9,9,0,0,0-.2,1.8,5.8,5.8,0,0,0,.8,3.2A2.8,2.8,0,0,0,154.6,157.2Z" style="fill: #1a1a1a"/>
        <path d="M168.1,149.1a.5.5,0,0,1-.4.2h-.3l-.5-.3-.7-.3h-1.8l-.6.4a1,1,0,0,0-.4.5,1.4,1.4,0,0,0-.2.7.9.9,0,0,0,.3.7,1,1,0,0,0,.6.5,1.9,1.9,0,0,0,.9.4l1,.3,1,.4.9.6.6.8a5,5,0,0,1,.2,1.2,7.7,7.7,0,0,1-.2,1.5,4.4,4.4,0,0,1-.8,1.1,3.5,3.5,0,0,1-1.3.8,4.3,4.3,0,0,1-1.7.3,4.5,4.5,0,0,1-2-.4,5.6,5.6,0,0,1-1.5-1l.4-.8.2-.2h.3l.4.2.5.3.7.4,1.1.2,1-.2c.2-.1.5-.2.6-.4s.4-.4.4-.6a1.9,1.9,0,0,0,.2-.7,1.1,1.1,0,0,0-.3-.8,1,1,0,0,0-.6-.5,1.9,1.9,0,0,0-.9-.4l-1-.4-1-.4-.9-.6-.6-.8a2.7,2.7,0,0,1-.2-1.3,2.5,2.5,0,0,1,.2-1.2,4.1,4.1,0,0,1,.7-1.1l1.2-.7a4.1,4.1,0,0,1,1.6-.3,4.1,4.1,0,0,1,1.9.4,3.4,3.4,0,0,1,1.4.9Z" style="fill: #1a1a1a"/>
      </g>
    </g>
    <g class="hoverable" onclick="mostrar('g-gestion');">
      <path d="M117.8,292a159.1,159.1,0,0,0,228.6-60.7L208.8,174.4Z" style="fill: #bdc4c6"/>
      <g>
        <path d="M194.9,239.2v6.2a5.6,5.6,0,0,1-2.4,1.3,8.2,8.2,0,0,1-2.8.5,8.8,8.8,0,0,1-3.3-.6,7,7,0,0,1-2.4-1.7,6.3,6.3,0,0,1-1.6-2.6,9.3,9.3,0,0,1-.6-3.4,9.7,9.7,0,0,1,.6-3.4,6.8,6.8,0,0,1,1.5-2.6,7,7,0,0,1,2.4-1.7,8,8,0,0,1,3.2-.5h1.6l1.4.4,1.2.6,1.1.9-.6,1-.3.3h-.5l-.6-.4-.8-.5-1.1-.3-1.5-.2a5.9,5.9,0,0,0-2.3.5,5.4,5.4,0,0,0-2.8,3.3,7.1,7.1,0,0,0-.4,2.6,7.7,7.7,0,0,0,.4,2.7,7,7,0,0,0,1.1,2.1,5.3,5.3,0,0,0,1.9,1.3,5.9,5.9,0,0,0,2.3.4l1.9-.2,1.6-.8v-3.5h-2.7c0-.1-.1-.2-.1-.3v-1.3Z" style="fill: #1a1a1a"/>
        <path d="M206.1,245.4l-.9.8-1,.5a2.3,2.3,0,0,1-1.1.3l-1.2.2a6.5,6.5,0,0,1-2-.4,4.8,4.8,0,0,1-1.6-1.2,5.9,5.9,0,0,1-1.1-1.9,10.9,10.9,0,0,1-.3-2.6,8.5,8.5,0,0,1,.3-2.3,4,4,0,0,1,1-1.8,4.4,4.4,0,0,1,1.5-1.2,4.6,4.6,0,0,1,2.1-.4l1.8.3a7.1,7.1,0,0,1,1.4,1,5.1,5.1,0,0,1,.9,1.6,7.8,7.8,0,0,1,.3,2.2c0,.3,0,.5-.1.6l-.3.2h-7.1a5.8,5.8,0,0,0,.3,1.9,2.7,2.7,0,0,0,.7,1.3,2,2,0,0,0,1,.8,3.2,3.2,0,0,0,1.4.3l1.2-.2.8-.4.7-.4h.4c.1,0,.2,0,.3.2Zm-1.6-5.4a4.5,4.5,0,0,0-.1-1.2c-.2-.4-.3-.8-.6-1a2.7,2.7,0,0,0-.8-.7,2.3,2.3,0,0,0-1.2-.2,2.5,2.5,0,0,0-2.1.8,4,4,0,0,0-.9,2.3Z" style="fill: #1a1a1a"/>
        <path d="M214.7,237.5l-.4.2h-.4l-.5-.3-.6-.3H211l-.7.4a1,1,0,0,0-.4.5,1.3,1.3,0,0,0-.1.6,1.9,1.9,0,0,0,.2.8l.6.5.9.4,1,.3,1,.4.9.6a1.6,1.6,0,0,1,.6.8,2.1,2.1,0,0,1,.3,1.2,4,4,0,0,1-.3,1.5,2.8,2.8,0,0,1-.8,1.1,3.6,3.6,0,0,1-1.2.8,4.7,4.7,0,0,1-1.7.3,5.9,5.9,0,0,1-2-.4,6.2,6.2,0,0,1-1.6-1l.5-.8.2-.2c0-.1.1-.1.3-.1l.4.2.5.3.7.4h2l.7-.4.4-.6a2.2,2.2,0,0,0,.1-.8,1.4,1.4,0,0,0-.2-.7l-.6-.6-.9-.3-1-.4-1-.4-.9-.6a2.7,2.7,0,0,1-.7-.8,5.1,5.1,0,0,1-.2-1.3,3.1,3.1,0,0,1,.3-1.3,2.3,2.3,0,0,1,.7-1,2.4,2.4,0,0,1,1.2-.7,3.8,3.8,0,0,1,1.6-.3,5.8,5.8,0,0,1,1.9.3,7.1,7.1,0,0,1,1.4,1Z" style="fill: #1a1a1a"/>
        <path d="M227.4,247h-1.9v-9.8h-5.4v6.9a1.8,1.8,0,0,0,.3,1.1,1.1,1.1,0,0,0,.8.3h.9l.3-.2h.2l.2.2.6.9a2.5,2.5,0,0,1-1.2.8,3.2,3.2,0,0,1-1.4.3,2.4,2.4,0,0,1-1.9-.8,2.9,2.9,0,0,1-.7-2.2v-7h-1.6a.4.4,0,0,1-.1-.3V236l1.8-.2.4-3.6V232h1.3v3.9h7.3Zm.4-15.1a.7.7,0,0,1-.1.5.5.5,0,0,1-.3.5l-.4.3h-1l-.4-.3-.3-.5a.7.7,0,0,1-.1-.5,1.3,1.3,0,0,1,.1-.6l.3-.4c.1-.1.2-.3.4-.3h1c.2,0,.3.2.4.3a.5.5,0,0,1,.3.4A1.3,1.3,0,0,1,227.8,231.9Z" style="fill: #1a1a1a"/>
        <path d="M234.9,235.4a4.6,4.6,0,0,1,2.1.4,6.1,6.1,0,0,1,1.6,1.2,5.2,5.2,0,0,1,1,1.8,10.1,10.1,0,0,1,.3,2.5,8.8,8.8,0,0,1-.3,2.4,5.7,5.7,0,0,1-1,1.9,4.2,4.2,0,0,1-1.6,1.1,4.7,4.7,0,0,1-4.2,0,3.6,3.6,0,0,1-1.6-1.1,5.7,5.7,0,0,1-1-1.9,8.6,8.6,0,0,1-.4-2.4,10.1,10.1,0,0,1,.4-2.5,5.2,5.2,0,0,1,1-1.8,4.8,4.8,0,0,1,1.6-1.2A4.6,4.6,0,0,1,234.9,235.4Zm0,10.2a2.6,2.6,0,0,0,2.3-1.1,5.3,5.3,0,0,0,.8-3.2,5.1,5.1,0,0,0-.8-3.2,2.4,2.4,0,0,0-2.3-1.1,3.2,3.2,0,0,0-1.4.3,2.5,2.5,0,0,0-1,.8,4.6,4.6,0,0,0-.5,1.4,5,5,0,0,0-.2,1.8,6.1,6.1,0,0,0,.7,3.2A2.9,2.9,0,0,0,234.9,245.6Zm3.1-14.9-2.5,2.9-.3.2h-1.4l1.5-2.8.3-.3H238Z" style="fill: #1a1a1a"/>
        <path d="M244.1,237.2a2.3,2.3,0,0,1,.7-.7,2.4,2.4,0,0,1,.8-.6l.9-.4h1.1a3.3,3.3,0,0,1,1.5.3,2.4,2.4,0,0,1,1.1.9,5.4,5.4,0,0,1,.7,1.3,11,11,0,0,1,.2,1.8V247h-1.8v-7.3a3.2,3.2,0,0,0-.6-2,1.9,1.9,0,0,0-1.7-.7,2.8,2.8,0,0,0-1.5.4,4.9,4.9,0,0,0-1.3,1.2V247h-1.9V235.6h1.1c.3,0,.4.1.5.4Z" style="fill: #1a1a1a"/>
        <path d="M268.1,230.4V247H267c-.3,0-.5-.1-.5-.4l-.2-1.4a4.9,4.9,0,0,1-1.5,1.4,3.6,3.6,0,0,1-2,.6,4.3,4.3,0,0,1-1.7-.4,4.5,4.5,0,0,1-1.3-1.1,6.8,6.8,0,0,1-.8-1.9,9,9,0,0,1-.3-2.5,8.5,8.5,0,0,1,.4-2.3,4.8,4.8,0,0,1,.9-1.9,3.5,3.5,0,0,1,1.4-1.3,4.1,4.1,0,0,1,1.9-.4,4.3,4.3,0,0,1,1.7.3,4,4,0,0,1,1.2,1v-6.3Zm-1.9,7.9a2.9,2.9,0,0,0-1.1-1.1,3.2,3.2,0,0,0-1.4-.3,2.5,2.5,0,0,0-2.2,1.2,4.9,4.9,0,0,0-.8,3.2,5.3,5.3,0,0,0,.2,1.9,2.2,2.2,0,0,0,.5,1.3,2,2,0,0,0,.8.8,2.3,2.3,0,0,0,1.2.2,2.9,2.9,0,0,0,1.6-.4,5.1,5.1,0,0,0,1.2-1.3Z" style="fill: #1a1a1a"/>
        <path d="M279.6,245.4a3,3,0,0,1-.8.8l-1,.5-1.2.3-1.1.2a5.9,5.9,0,0,1-2-.4,4,4,0,0,1-1.6-1.2,5.9,5.9,0,0,1-1.1-1.9,10.9,10.9,0,0,1-.4-2.6,5.9,5.9,0,0,1,.4-2.3,5.1,5.1,0,0,1,.9-1.8,6.1,6.1,0,0,1,1.6-1.2,5.4,5.4,0,0,1,3.8-.1,5,5,0,0,1,1.4,1,8.6,8.6,0,0,1,1,1.6,7.8,7.8,0,0,1,.3,2.2c0,.3,0,.5-.1.6l-.3.2h-7.1a11.1,11.1,0,0,0,.2,1.9,4,4,0,0,0,.7,1.3,2.8,2.8,0,0,0,1.1.8,2.8,2.8,0,0,0,1.3.3l1.2-.2a1.9,1.9,0,0,0,.9-.4.9.9,0,0,0,.6-.4h.5c.1,0,.2,0,.3.2Zm-1.5-5.4a3.9,3.9,0,0,0-.7-2.2,2.7,2.7,0,0,0-.8-.7,3.3,3.3,0,0,0-3.3.6,4.9,4.9,0,0,0-1,2.3Z" style="fill: #1a1a1a"/>
        <path d="M284,230.4V247h-1.9V230.4Z" style="fill: #1a1a1a"/>
        <path d="M216.6,264.5a.5.5,0,0,1-.4.3h-.4l-.5-.3-.7-.3h-1.7l-.7.3-.4.6a1.3,1.3,0,0,0-.1.6,1.1,1.1,0,0,0,.2.8l.6.5.9.3,1,.4,1,.4a4.7,4.7,0,0,1,.9.6,2.4,2.4,0,0,1,.6.8,2.2,2.2,0,0,1,.2,1.2,3.2,3.2,0,0,1-.2,1.4,2.5,2.5,0,0,1-.8,1.2,3.6,3.6,0,0,1-1.2.8,4.8,4.8,0,0,1-1.8.3,6.5,6.5,0,0,1-2-.4,5.6,5.6,0,0,1-1.5-1l.4-.8.2-.2h.3c.2,0,.3,0,.4.2l.5.3.8.3a1.6,1.6,0,0,0,1,.2h1a1.8,1.8,0,0,0,.7-.5,1.5,1.5,0,0,0,.4-.6,1.5,1.5,0,0,0,.1-.7,1.9,1.9,0,0,0-.2-.8l-.7-.5-.8-.4-1.1-.3-1-.4-.9-.6-.6-.9a3.7,3.7,0,0,1-.2-1.2,5.1,5.1,0,0,1,.2-1.3,3.9,3.9,0,0,1,.8-1,3.6,3.6,0,0,1,1.2-.8l1.6-.2a4.8,4.8,0,0,1,1.8.3,5.6,5.6,0,0,1,1.5,1Z" style="fill: #1a1a1a"/>
        <path d="M228.1,262.6v11.5H227a.7.7,0,0,1-.5-.4v-1.3a7,7,0,0,1-1.6,1.4,3.8,3.8,0,0,1-1.9.5,4.2,4.2,0,0,1-1.6-.4l-1.1-.8a3.5,3.5,0,0,1-.6-1.4,4.8,4.8,0,0,1-.3-1.8v-7.3h1.9v7.3a3.4,3.4,0,0,0,.5,2,2.1,2.1,0,0,0,1.7.7,2.9,2.9,0,0,0,1.6-.4,6.3,6.3,0,0,0,1.3-1.1v-8.5Z" style="fill: #1a1a1a"/>
        <path d="M239.7,272.5a6,6,0,0,1-.8.8l-1.1.5a3.5,3.5,0,0,1-1.1.3h-1.2a4.5,4.5,0,0,1-2-.4,4.2,4.2,0,0,1-1.6-1.1,6.3,6.3,0,0,1-1-2,6.8,6.8,0,0,1-.4-2.6,7.8,7.8,0,0,1,.3-2.2,7.7,7.7,0,0,1,1-1.8,4.8,4.8,0,0,1,1.6-1.2,4.5,4.5,0,0,1,2-.4,4.8,4.8,0,0,1,1.8.3,4.5,4.5,0,0,1,1.4,1,4.2,4.2,0,0,1,.9,1.6,5.1,5.1,0,0,1,.4,2.2,3.5,3.5,0,0,1-.1.6l-.4.2h-7.1a8.4,8.4,0,0,0,.3,1.8,4.6,4.6,0,0,0,.7,1.4,3.9,3.9,0,0,0,1,.8,3.2,3.2,0,0,0,1.4.2h1.2l.9-.4.6-.4.4-.2a.5.5,0,0,1,.4.2Zm-1.5-5.4a5.1,5.1,0,0,0-.2-1.3,3.1,3.1,0,0,0-.5-1,1.8,1.8,0,0,0-.9-.6,2,2,0,0,0-1.1-.3,2.6,2.6,0,0,0-2.1.9,3.3,3.3,0,0,0-1,2.3Z" style="fill: #1a1a1a"/>
        <path d="M244.1,257.5v16.6h-1.9V257.5Z" style="fill: #1a1a1a"/>
        <path d="M251.5,262.5a4.6,4.6,0,0,1,2.1.4,4.9,4.9,0,0,1,2.6,3,6.6,6.6,0,0,1,.4,2.5,6.1,6.1,0,0,1-.4,2.4,4.9,4.9,0,0,1-2.6,3,4.6,4.6,0,0,1-2.1.4,5.2,5.2,0,0,1-2.1-.4,6.1,6.1,0,0,1-1.6-1.2,7.7,7.7,0,0,1-1-1.8,8.8,8.8,0,0,1-.3-2.4,9.5,9.5,0,0,1,.3-2.5,7.7,7.7,0,0,1,1-1.8,6.1,6.1,0,0,1,1.6-1.2A5.2,5.2,0,0,1,251.5,262.5Zm0,10.2a2.6,2.6,0,0,0,2.4-1.2,5.4,5.4,0,0,0,.8-3.1,5.6,5.6,0,0,0-.8-3.2,2.6,2.6,0,0,0-2.4-1.2,2.8,2.8,0,0,0-1.3.3,2.2,2.2,0,0,0-1,.9,2.6,2.6,0,0,0-.6,1.3,11.1,11.1,0,0,0-.2,1.9,5.4,5.4,0,0,0,.8,3.1A2.6,2.6,0,0,0,251.5,272.7Z" style="fill: #1a1a1a"/>
      </g>
    </g>
    <g class="hoverable" onclick="mostrar('g-financiacion');">
      <path d="M353.6,215a159,159,0,0,0-216-200.1l74.7,141.7Z" style="fill: #bdc4c6"/>
      <g>
        <path d="M211.7,84.4v5.7h6.2v1.8h-6.2v6.9h-2V82.7h9.2v1.7Z" style="fill: #1a1a1a"/>
        <path d="M223.4,83.8a1.3,1.3,0,0,1-.1.6l-.3.4-.4.3h-1l-.4-.3a.5.5,0,0,1-.3-.4,1.3,1.3,0,0,1-.1-.6.7.7,0,0,1,.1-.5.5.5,0,0,1,.3-.5l.4-.3h1l.4.3.3.5A.7.7,0,0,1,223.4,83.8Zm-.4,3.6V98.8h-1.8V87.4Z" style="fill: #1a1a1a"/>
        <path d="M227.8,89.1l.8-.8.8-.6a3.2,3.2,0,0,1,.9-.3l1.1-.2a4,4,0,0,1,1.5.3,3.1,3.1,0,0,1,1.1.9,4.6,4.6,0,0,1,.7,1.4,9,9,0,0,1,.2,1.8v7.2H233V91.6a4.1,4.1,0,0,0-.5-2.1,2.2,2.2,0,0,0-1.7-.7,2.7,2.7,0,0,0-1.5.5,3.3,3.3,0,0,0-1.3,1.1v8.4h-1.9V87.4h1.1c.3,0,.4.1.5.4Z" style="fill: #1a1a1a"/>
        <path d="M237.5,89a5.9,5.9,0,0,1,1.9-1.3,4,4,0,0,1,2.2-.5,4.1,4.1,0,0,1,1.6.3,3.4,3.4,0,0,1,1.2.9,4.6,4.6,0,0,1,.7,1.4,8.8,8.8,0,0,1,.2,1.7v7.3h-1.2l-.3-.3-.2-1.1-.8.7-.8.6-1,.3h-1.1l-1.1-.2a3.1,3.1,0,0,1-1-.5,3.3,3.3,0,0,1-.6-1,3.5,3.5,0,0,1,.1-2.6,2.9,2.9,0,0,1,1.1-1.1,5.2,5.2,0,0,1,2-.8,13.7,13.7,0,0,1,3.1-.4v-.9a3.7,3.7,0,0,0-.5-2,2.2,2.2,0,0,0-1.6-.7l-1.2.2-.8.4-.5.4a.6.6,0,0,1-.5.2H238l-.2-.2Zm6,4.7-2.2.2a5.3,5.3,0,0,0-1.5.5,2.8,2.8,0,0,0-.8.6,1.6,1.6,0,0,0-.3.9,2.4,2.4,0,0,0,.2.8l.3.5.6.3h1.6l.8-.3.6-.5.7-.6Z" style="fill: #1a1a1a"/>
        <path d="M249.9,89.1l.7-.8.9-.6a2.4,2.4,0,0,1,.9-.3l1-.2a4.1,4.1,0,0,1,1.6.3,3.1,3.1,0,0,1,1.1.9,3,3,0,0,1,.6,1.4,4.8,4.8,0,0,1,.3,1.8v7.2h-1.9V91.6a3.3,3.3,0,0,0-.6-2.1,2,2,0,0,0-1.6-.7,3,3,0,0,0-1.6.5,4.2,4.2,0,0,0-1.3,1.1v8.4h-1.9V87.4h1.2a.5.5,0,0,1,.5.4Z" style="fill: #1a1a1a"/>
        <path d="M267.2,89.4c-.1.1-.1.2-.2.2s-.1.1-.2.1h-.4l-.4-.4-.7-.3h-1a3.2,3.2,0,0,0-1.4.3,2.8,2.8,0,0,0-1,.9,8.1,8.1,0,0,0-.6,1.3,9.9,9.9,0,0,0-.2,1.8,11.1,11.1,0,0,0,.2,1.9,5.4,5.4,0,0,0,.7,1.3,1.7,1.7,0,0,0,.9.8,2.8,2.8,0,0,0,1.3.3h1.1l.8-.4.4-.4.4-.2a.5.5,0,0,1,.4.2l.5.7a3,3,0,0,1-.8.8l-.9.6-1.1.3h-1.1a4.1,4.1,0,0,1-1.9-.4,5.3,5.3,0,0,1-1.4-1.2,4,4,0,0,1-1-1.8,6.6,6.6,0,0,1-.4-2.5,8.5,8.5,0,0,1,.3-2.3,6.7,6.7,0,0,1,1-1.9,4.8,4.8,0,0,1,1.6-1.2,4.6,4.6,0,0,1,2.1-.5,6.5,6.5,0,0,1,2,.4,7.2,7.2,0,0,1,1.5,1.1Z" style="fill: #1a1a1a"/>
        <path d="M272.2,83.8c0,.2-.1.4-.1.6l-.3.4-.5.3h-1l-.4-.3-.3-.4a1.3,1.3,0,0,1-.1-.6.7.7,0,0,1,.1-.5l.3-.5.4-.3h1l.5.3.3.5A4.3,4.3,0,0,1,272.2,83.8Zm-.4,3.6V98.8h-1.9V87.4Z" style="fill: #1a1a1a"/>
        <path d="M274.5,89a7.2,7.2,0,0,1,1.9-1.3,4.6,4.6,0,0,1,2.3-.5,4.1,4.1,0,0,1,1.6.3,3.1,3.1,0,0,1,1.1.9,3.1,3.1,0,0,1,.7,1.4,4.7,4.7,0,0,1,.3,1.7v7.3h-1.3c-.1,0-.1-.2-.2-.3l-.2-1.1-.8.7-.9.6-.9.3H277l-1.2-.2-.9-.5a2.1,2.1,0,0,1-.6-1A2.8,2.8,0,0,1,274,96a2,2,0,0,1,.4-1.3,2.9,2.9,0,0,1,1.1-1.1,5.2,5.2,0,0,1,2-.8,13,13,0,0,1,3.1-.4v-.9a3,3,0,0,0-.6-2,1.8,1.8,0,0,0-1.5-.7l-1.2.2-.8.4-.6.4c-.1.2-.3.2-.5.2h-.3l-.2-.2Zm6.1,4.7-2.2.2-1.5.5a1.8,1.8,0,0,0-.8.6,1.6,1.6,0,0,0-.3.9c0,.3.1.5.1.8l.4.5.6.3h1.6l.7-.3.7-.5.7-.6Z" style="fill: #1a1a1a"/>
        <path d="M292.6,89.4l-.2.2c0,.1-.1.1-.2.1h-.4l-.4-.4-.7-.3h-1a3.2,3.2,0,0,0-1.4.3,2.8,2.8,0,0,0-1,.9,8.1,8.1,0,0,0-.6,1.3,9.9,9.9,0,0,0-.2,1.8,11.1,11.1,0,0,0,.2,1.9,5.4,5.4,0,0,0,.7,1.3,1.7,1.7,0,0,0,.9.8,2.8,2.8,0,0,0,1.3.3h1.1l.8-.4.4-.4.4-.2a.5.5,0,0,1,.4.2l.5.7a3,3,0,0,1-.8.8l-.9.6-1.1.3h-1.1a4.1,4.1,0,0,1-1.9-.4,5.3,5.3,0,0,1-1.4-1.2,4,4,0,0,1-1-1.8,6.6,6.6,0,0,1-.4-2.5,8.5,8.5,0,0,1,.3-2.3,6.7,6.7,0,0,1,1-1.9,4.8,4.8,0,0,1,1.6-1.2,4.6,4.6,0,0,1,2.1-.5,6.5,6.5,0,0,1,2,.4,7.2,7.2,0,0,1,1.5,1.1Z" style="fill: #1a1a1a"/>
        <path d="M297.6,83.8c0,.2-.1.4-.1.6l-.3.4-.5.3h-1l-.4-.3-.3-.4a1.3,1.3,0,0,1-.1-.6.7.7,0,0,1,.1-.5l.3-.5.4-.3h1l.5.3.3.5A4.3,4.3,0,0,1,297.6,83.8Zm-.4,3.6V98.8h-1.9V87.4Z" style="fill: #1a1a1a"/>
        <path d="M304.7,87.2a6.5,6.5,0,0,1,2.1.4,6.1,6.1,0,0,1,1.6,1.2,8.5,8.5,0,0,1,1,1.9,9.7,9.7,0,0,1,0,4.8,6.7,6.7,0,0,1-1,1.9,6.1,6.1,0,0,1-1.6,1.2,5.7,5.7,0,0,1-4.2,0,4.8,4.8,0,0,1-1.6-1.2,3.9,3.9,0,0,1-1-1.9,7.4,7.4,0,0,1,0-4.8,4.4,4.4,0,0,1,1-1.9,4.8,4.8,0,0,1,1.6-1.2A6.5,6.5,0,0,1,304.7,87.2Zm0,10.2a2.7,2.7,0,0,0,2.3-1.1,5.8,5.8,0,0,0,.8-3.2,6.1,6.1,0,0,0-.8-3.2,2.7,2.7,0,0,0-2.3-1.1,3.2,3.2,0,0,0-1.4.3,3.9,3.9,0,0,0-1,.8l-.6,1.4a9,9,0,0,0-.2,1.8,5.8,5.8,0,0,0,.8,3.2A2.8,2.8,0,0,0,304.7,97.4Zm3-14.9-2.4,2.9-.3.2h-1.5l1.6-2.7.3-.4h2.3Z" style="fill: #1a1a1a"/>
        <path d="M313.8,89.1a6,6,0,0,1,.8-.8l.8-.6.9-.3,1.1-.2a3.7,3.7,0,0,1,1.5.3,3.1,3.1,0,0,1,1.1.9,4.6,4.6,0,0,1,.7,1.4,9,9,0,0,1,.2,1.8v7.2H319V91.6a3.3,3.3,0,0,0-.5-2.1,2.2,2.2,0,0,0-1.7-.7,3,3,0,0,0-1.5.5,3.3,3.3,0,0,0-1.3,1.1v8.4h-1.9V87.4h1.1c.3,0,.4.1.5.4Z" style="fill: #1a1a1a"/>
      </g>
    </g>
  </g>
</svg>
