<svg xmlns="http://www.w3.org/2000/svg" viewBox="0 0 363.782 340.347"><g id="Capa_2" data-name="Capa 2"><g id="Capa_1-2" data-name="Capa 1"><path d="M117.842,292.017a158.913,158.913,0,0,0,228.531-60.743l-137.6-56.824Z" fill="#bdc4c6"/><path d="M353.61,214.962A158.983,158.983,0,0,0,137.64,14.886l74.632,141.708Z" fill="#bdc4c6"/><path d="M121.916,23.312a158.978,158.978,0,0,0-18.45,258.132l91.853-118.758Z" fill="#bdc4c6"/><text transform="translate(59.837 158.617) scale(0.927 1)" font-size="22.562" fill="#1a1a1a" font-family="Lato-Regular, Lato"><tspan letter-spacing="-0.024em">E</tspan><tspan x="12.489" y="0" letter-spacing="-0.009em">c</tspan><tspan x="23.059" y="0">onómi</tspan><tspan x="85.205" y="0" letter-spacing="-0.009em">c</tspan><tspan x="95.776" y="0">os</tspan></text><text transform="translate(180.829 246.996) scale(0.927 1)" font-size="22.562" fill="#1a1a1a" font-family="Lato-Regular, Lato"><tspan letter-spacing="-0.006em">G</tspan><tspan x="16.347" y="0">estión del </tspan><tspan x="30.289" y="27.075">suelo</tspan></text><text transform="translate(207.799 98.83) scale(0.927 1)" font-size="22.562" fill="#1a1a1a" font-family="Lato-Regular, Lato"><tspan letter-spacing="-0.002em">F</tspan><tspan x="12.713" y="0">inanciación </tspan></text><rect x="237.97" y="287.746" width="52.601" height="52.601" rx="26.301" fill="#71bfbb"/><path d="M258.231,331.77v-3.284a1.151,1.151,0,0,1,1.15-1.151h.311a1.151,1.151,0,0,0,1.151-1.15V313.7a1.151,1.151,0,0,0-1.151-1.151h-.311a1.15,1.15,0,0,1-1.15-1.151v-3.283a1.15,1.15,0,0,1,1.15-1.151h7.477a1.151,1.151,0,0,1,1.151,1.151v18.072a1.15,1.15,0,0,0,1.151,1.15h0a1.151,1.151,0,0,1,1.15,1.151v3.284a1.15,1.15,0,0,1-1.15,1.15h-9.779A1.15,1.15,0,0,1,258.231,331.77Zm10.426-32.1a4.517,4.517,0,0,1-1.223,3.181,3.956,3.956,0,0,1-5.9,0,4.75,4.75,0,0,1,0-6.361,3.943,3.943,0,0,1,5.884,0A4.489,4.489,0,0,1,268.657,299.671Z" fill="#112025"/><rect x="293.468" y="15.3" width="52.601" height="52.601" rx="26.301" fill="#71bfbb"/><path d="M313.729,59.324V56.04a1.151,1.151,0,0,1,1.151-1.151h.31a1.15,1.15,0,0,0,1.151-1.15V41.252A1.151,1.151,0,0,0,315.19,40.1h-.31a1.151,1.151,0,0,1-1.151-1.151V35.667a1.151,1.151,0,0,1,1.151-1.151h7.476a1.151,1.151,0,0,1,1.151,1.151V53.739a1.15,1.15,0,0,0,1.151,1.15h0a1.152,1.152,0,0,1,1.151,1.151v3.284a1.151,1.151,0,0,1-1.151,1.15H314.88A1.15,1.15,0,0,1,313.729,59.324Zm10.426-32.1a4.513,4.513,0,0,1-1.223,3.181,3.955,3.955,0,0,1-5.9,0,4.747,4.747,0,0,1,0-6.361,3.941,3.941,0,0,1,5.884,0A4.489,4.489,0,0,1,324.155,27.225Z" fill="#112025"/><rect y="127.978" width="52.601" height="52.601" rx="26.301" fill="#71bfbb"/><path d="M20.261,172v-3.284a1.15,1.15,0,0,1,1.151-1.15h.31a1.151,1.151,0,0,0,1.151-1.151V153.93a1.151,1.151,0,0,0-1.151-1.151h-.31a1.15,1.15,0,0,1-1.151-1.15v-3.284a1.151,1.151,0,0,1,1.151-1.151h7.476a1.151,1.151,0,0,1,1.151,1.151v18.072a1.151,1.151,0,0,0,1.151,1.151h0a1.151,1.151,0,0,1,1.151,1.15V172a1.152,1.152,0,0,1-1.151,1.151H21.412A1.151,1.151,0,0,1,20.261,172Zm10.426-32.1a4.509,4.509,0,0,1-1.223,3.181,3.955,3.955,0,0,1-5.895,0,4.747,4.747,0,0,1,0-6.361,3.943,3.943,0,0,1,5.884,0A4.5,4.5,0,0,1,30.687,139.9Z" fill="#112025"/></g></g></svg>