<svg xmlns="http://www.w3.org/2000/svg" viewBox="0 0 420.485 541.759"><g id="Capa_2" data-name="Capa 2"><g id="Capa_1-2" data-name="Capa 1"><circle cx="127.5" cy="288.992" r="127" fill="none" stroke="#aab8bd" stroke-miterlimit="10"/><circle cx="127.5" cy="288.992" r="109" fill="#bdc4c6"/><path d="M282.36,541.759l-74.072-118.8a154.541,154.541,0,0,0,50.939-52.072l120.408,71.429A295.154,295.154,0,0,1,282.36,541.759Z" fill="#c95697" opacity="0.62"/><path d="M386.08,430.871,262.588,364.92a151.055,151.055,0,0,0,17.9-70.381l139.994,1.375A293.732,293.732,0,0,1,386.08,430.871Z" fill="#cb5c9e" opacity="0.62"/><path d="M280.409,287.623a150.835,150.835,0,0,0-19.645-69.877l121.818-69a293.49,293.49,0,0,1,37.745,134.09Z" fill="#cb5c9e" opacity="0.62"/><path d="M257.247,211.852a154.546,154.546,0,0,0-52.206-50.8l71.1-120.6a295.151,295.151,0,0,1,99.7,97Z" fill="#c95697" opacity="0.62"/><path d="M199.07,157.714A151.1,151.1,0,0,0,128.646,140L129.667,0A293.756,293.756,0,0,1,264.7,34.048Z" fill="#c95697" opacity="0.62"/><text transform="translate(62.399 296.307)" font-size="21.167" fill="#112025" font-family="MyriadPro-Semibold, MyriadPro Semibold" font-weight="600">E<tspan x="10.414" y="0" letter-spacing="-0.021em">C</tspan><tspan x="22.246" y="0">ONÓMI</tspan><tspan x="87.419" y="0" letter-spacing="-0.021em">C</tspan><tspan x="99.251" y="0">OS</tspan></text><text transform="translate(141.51 75.853)" font-size="14" fill="#fff" font-family="Lato-Regular, Lato"><tspan letter-spacing="-0.021em">E</tspan><tspan x="7.791" y="0">ducación</tspan><tspan x="62.871" y="0" letter-spacing="-0.025em"> </tspan><tspan x="66.105" y="0" letter-spacing="-0.024em">y</tspan><tspan x="72.979" y="0"> </tspan><tspan x="4.186" y="16.8" letter-spacing="-0.043em">F</tspan><tspan x="11.494" y="16.8">ormación</tspan></text><text transform="translate(248.189 135.317)" font-size="14" fill="#fff" font-family="Lato-Regular, Lato"><tspan letter-spacing="-0.075em">V</tspan><tspan x="8.428" y="0">olu</tspan><tspan x="27.474" y="0" letter-spacing="-0.007em">n</tspan><tspan x="35.188" y="0">tarios</tspan></text><text transform="translate(304.827 223.317)" font-size="14" fill="#fff" font-family="Lato-Regular, Lato"><tspan letter-spacing="-0.033em">R</tspan><tspan x="8.315" y="0">epar</tspan><tspan x="35.607" y="0" letter-spacing="-0.002em">t</tspan><tspan x="40.592" y="0">o de </tspan><tspan x="9.18" y="16.8">ca</tspan><tspan x="22.822" y="16.8" letter-spacing="-0.012em">r</tspan><tspan x="27.757" y="16.8">gas</tspan><tspan x="48.057" y="16.8" letter-spacing="-0.025em"> </tspan><tspan x="51.291" y="16.8" letter-spacing="-0.024em">y</tspan><tspan x="58.165" y="16.8"> </tspan><tspan x="2.46" y="33.6">ben</tspan><tspan x="25.503" y="33.6" letter-spacing="-0.005em">e</tspan><tspan x="32.824" y="33.6">ficios</tspan></text><text transform="translate(292.116 338.317)" font-size="14" fill="#fff" font-family="Lato-Regular, Lato"><tspan letter-spacing="-0.024em">E</tspan><tspan x="7.749" y="0" letter-spacing="-0.009em">c</tspan><tspan x="14.308" y="0">onómi</tspan><tspan x="52.869" y="0" letter-spacing="-0.009em">c</tspan><tspan x="59.428" y="0">os o de </tspan><tspan x="24.682" y="16.8" letter-spacing="-0.015em">M</tspan><tspan x="37.464" y="16.8">e</tspan><tspan x="44.855" y="16.8" letter-spacing="-0.021em">r</tspan><tspan x="49.664" y="16.8">cado</tspan></text><text transform="translate(247.34 443.317)" font-size="14" fill="#fff" font-family="Lato-Regular, Lato"><tspan letter-spacing="-0.01em">C</tspan><tspan x="9.212" y="0">omando</tspan><tspan x="59.211" y="0" letter-spacing="-0.025em"> </tspan><tspan x="62.444" y="0" letter-spacing="-0.024em">y</tspan><tspan x="69.318" y="0"> </tspan><tspan x="11.693" y="16.8" letter-spacing="-0.01em">C</tspan><tspan x="20.905" y="16.8">o</tspan><tspan x="28.843" y="16.8" letter-spacing="-0.007em">n</tspan><tspan x="36.557" y="16.8">t</tspan><tspan x="41.575" y="16.8" letter-spacing="-0.021em">r</tspan><tspan x="46.384" y="16.8">ol</tspan></text></g></g></svg>